<?xml version="1.0" encoding="utf-8" standalone="no"?>
<!DOCTYPE svg PUBLIC "-//W3C//DTD SVG 1.1//EN"
  "http://www.w3.org/Graphics/SVG/1.1/DTD/svg11.dtd">
<svg xmlns:xlink="http://www.w3.org/1999/xlink" width="720pt" height="432pt" viewBox="0 0 720 432" xmlns="http://www.w3.org/2000/svg" version="1.1">
 <metadata>
  <rdf:RDF xmlns:dc="http://purl.org/dc/elements/1.1/" xmlns:cc="http://creativecommons.org/ns#" xmlns:rdf="http://www.w3.org/1999/02/22-rdf-syntax-ns#">
   <cc:Work>
    <dc:type rdf:resource="http://purl.org/dc/dcmitype/StillImage"/>
    <dc:date>2025-04-21T01:23:54.807635</dc:date>
    <dc:format>image/svg+xml</dc:format>
    <dc:creator>
     <cc:Agent>
      <dc:title>Matplotlib v3.10.1, https://matplotlib.org/</dc:title>
     </cc:Agent>
    </dc:creator>
   </cc:Work>
  </rdf:RDF>
 </metadata>
 <defs>
  <style type="text/css">*{stroke-linejoin: round; stroke-linecap: butt}</style>
 </defs>
 <g id="figure_1">
  <g id="patch_1">
   <path d="M 0 432 
L 720 432 
L 720 0 
L 0 0 
z
" style="fill: #ffffff"/>
  </g>
  <g id="axes_1">
   <g id="patch_2">
    <path d="M 90 384.48 
L 648 384.48 
L 648 51.84 
L 90 51.84 
z
" style="fill: #ffffff"/>
   </g>
   <g id="matplotlib.axis_1">
    <g id="xtick_1">
     <g id="line2d_1">
      <path d="M 115.363636 384.48 
L 115.363636 51.84 
" clip-path="url(#pdd86479147)" style="fill: none; stroke: #b0b0b0; stroke-width: 0.8; stroke-linecap: square"/>
     </g>
     <g id="line2d_2">
      <defs>
       <path id="md9335ba71d" d="M 0 0 
L 0 3.5 
" style="stroke: #000000; stroke-width: 0.8"/>
      </defs>
      <g>
       <use xlink:href="#md9335ba71d" x="115.363636" y="384.48" style="stroke: #000000; stroke-width: 0.8"/>
      </g>
     </g>
     <g id="text_1">
      <!-- 0.0 -->
      <g transform="translate(107.412074 399.078438) scale(0.1 -0.1)">
       <defs>
        <path id="DejaVuSans-30" d="M 2034 4250 
Q 1547 4250 1301 3770 
Q 1056 3291 1056 2328 
Q 1056 1369 1301 889 
Q 1547 409 2034 409 
Q 2525 409 2770 889 
Q 3016 1369 3016 2328 
Q 3016 3291 2770 3770 
Q 2525 4250 2034 4250 
z
M 2034 4750 
Q 2819 4750 3233 4129 
Q 3647 3509 3647 2328 
Q 3647 1150 3233 529 
Q 2819 -91 2034 -91 
Q 1250 -91 836 529 
Q 422 1150 422 2328 
Q 422 3509 836 4129 
Q 1250 4750 2034 4750 
z
" transform="scale(0.015625)"/>
        <path id="DejaVuSans-2e" d="M 684 794 
L 1344 794 
L 1344 0 
L 684 0 
L 684 794 
z
" transform="scale(0.015625)"/>
       </defs>
       <use xlink:href="#DejaVuSans-30"/>
       <use xlink:href="#DejaVuSans-2e" transform="translate(63.623047 0)"/>
       <use xlink:href="#DejaVuSans-30" transform="translate(95.410156 0)"/>
      </g>
     </g>
    </g>
    <g id="xtick_2">
     <g id="line2d_3">
      <path d="M 216.818182 384.48 
L 216.818182 51.84 
" clip-path="url(#pdd86479147)" style="fill: none; stroke: #b0b0b0; stroke-width: 0.8; stroke-linecap: square"/>
     </g>
     <g id="line2d_4">
      <g>
       <use xlink:href="#md9335ba71d" x="216.818182" y="384.48" style="stroke: #000000; stroke-width: 0.8"/>
      </g>
     </g>
     <g id="text_2">
      <!-- 0.2 -->
      <g transform="translate(208.866619 399.078438) scale(0.1 -0.1)">
       <defs>
        <path id="DejaVuSans-32" d="M 1228 531 
L 3431 531 
L 3431 0 
L 469 0 
L 469 531 
Q 828 903 1448 1529 
Q 2069 2156 2228 2338 
Q 2531 2678 2651 2914 
Q 2772 3150 2772 3378 
Q 2772 3750 2511 3984 
Q 2250 4219 1831 4219 
Q 1534 4219 1204 4116 
Q 875 4013 500 3803 
L 500 4441 
Q 881 4594 1212 4672 
Q 1544 4750 1819 4750 
Q 2544 4750 2975 4387 
Q 3406 4025 3406 3419 
Q 3406 3131 3298 2873 
Q 3191 2616 2906 2266 
Q 2828 2175 2409 1742 
Q 1991 1309 1228 531 
z
" transform="scale(0.015625)"/>
       </defs>
       <use xlink:href="#DejaVuSans-30"/>
       <use xlink:href="#DejaVuSans-2e" transform="translate(63.623047 0)"/>
       <use xlink:href="#DejaVuSans-32" transform="translate(95.410156 0)"/>
      </g>
     </g>
    </g>
    <g id="xtick_3">
     <g id="line2d_5">
      <path d="M 318.272727 384.48 
L 318.272727 51.84 
" clip-path="url(#pdd86479147)" style="fill: none; stroke: #b0b0b0; stroke-width: 0.8; stroke-linecap: square"/>
     </g>
     <g id="line2d_6">
      <g>
       <use xlink:href="#md9335ba71d" x="318.272727" y="384.48" style="stroke: #000000; stroke-width: 0.8"/>
      </g>
     </g>
     <g id="text_3">
      <!-- 0.4 -->
      <g transform="translate(310.321165 399.078438) scale(0.1 -0.1)">
       <defs>
        <path id="DejaVuSans-34" d="M 2419 4116 
L 825 1625 
L 2419 1625 
L 2419 4116 
z
M 2253 4666 
L 3047 4666 
L 3047 1625 
L 3713 1625 
L 3713 1100 
L 3047 1100 
L 3047 0 
L 2419 0 
L 2419 1100 
L 313 1100 
L 313 1709 
L 2253 4666 
z
" transform="scale(0.015625)"/>
       </defs>
       <use xlink:href="#DejaVuSans-30"/>
       <use xlink:href="#DejaVuSans-2e" transform="translate(63.623047 0)"/>
       <use xlink:href="#DejaVuSans-34" transform="translate(95.410156 0)"/>
      </g>
     </g>
    </g>
    <g id="xtick_4">
     <g id="line2d_7">
      <path d="M 419.727273 384.48 
L 419.727273 51.84 
" clip-path="url(#pdd86479147)" style="fill: none; stroke: #b0b0b0; stroke-width: 0.8; stroke-linecap: square"/>
     </g>
     <g id="line2d_8">
      <g>
       <use xlink:href="#md9335ba71d" x="419.727273" y="384.48" style="stroke: #000000; stroke-width: 0.8"/>
      </g>
     </g>
     <g id="text_4">
      <!-- 0.6 -->
      <g transform="translate(411.77571 399.078438) scale(0.1 -0.1)">
       <defs>
        <path id="DejaVuSans-36" d="M 2113 2584 
Q 1688 2584 1439 2293 
Q 1191 2003 1191 1497 
Q 1191 994 1439 701 
Q 1688 409 2113 409 
Q 2538 409 2786 701 
Q 3034 994 3034 1497 
Q 3034 2003 2786 2293 
Q 2538 2584 2113 2584 
z
M 3366 4563 
L 3366 3988 
Q 3128 4100 2886 4159 
Q 2644 4219 2406 4219 
Q 1781 4219 1451 3797 
Q 1122 3375 1075 2522 
Q 1259 2794 1537 2939 
Q 1816 3084 2150 3084 
Q 2853 3084 3261 2657 
Q 3669 2231 3669 1497 
Q 3669 778 3244 343 
Q 2819 -91 2113 -91 
Q 1303 -91 875 529 
Q 447 1150 447 2328 
Q 447 3434 972 4092 
Q 1497 4750 2381 4750 
Q 2619 4750 2861 4703 
Q 3103 4656 3366 4563 
z
" transform="scale(0.015625)"/>
       </defs>
       <use xlink:href="#DejaVuSans-30"/>
       <use xlink:href="#DejaVuSans-2e" transform="translate(63.623047 0)"/>
       <use xlink:href="#DejaVuSans-36" transform="translate(95.410156 0)"/>
      </g>
     </g>
    </g>
    <g id="xtick_5">
     <g id="line2d_9">
      <path d="M 521.181818 384.48 
L 521.181818 51.84 
" clip-path="url(#pdd86479147)" style="fill: none; stroke: #b0b0b0; stroke-width: 0.8; stroke-linecap: square"/>
     </g>
     <g id="line2d_10">
      <g>
       <use xlink:href="#md9335ba71d" x="521.181818" y="384.48" style="stroke: #000000; stroke-width: 0.8"/>
      </g>
     </g>
     <g id="text_5">
      <!-- 0.8 -->
      <g transform="translate(513.230256 399.078438) scale(0.1 -0.1)">
       <defs>
        <path id="DejaVuSans-38" d="M 2034 2216 
Q 1584 2216 1326 1975 
Q 1069 1734 1069 1313 
Q 1069 891 1326 650 
Q 1584 409 2034 409 
Q 2484 409 2743 651 
Q 3003 894 3003 1313 
Q 3003 1734 2745 1975 
Q 2488 2216 2034 2216 
z
M 1403 2484 
Q 997 2584 770 2862 
Q 544 3141 544 3541 
Q 544 4100 942 4425 
Q 1341 4750 2034 4750 
Q 2731 4750 3128 4425 
Q 3525 4100 3525 3541 
Q 3525 3141 3298 2862 
Q 3072 2584 2669 2484 
Q 3125 2378 3379 2068 
Q 3634 1759 3634 1313 
Q 3634 634 3220 271 
Q 2806 -91 2034 -91 
Q 1263 -91 848 271 
Q 434 634 434 1313 
Q 434 1759 690 2068 
Q 947 2378 1403 2484 
z
M 1172 3481 
Q 1172 3119 1398 2916 
Q 1625 2713 2034 2713 
Q 2441 2713 2670 2916 
Q 2900 3119 2900 3481 
Q 2900 3844 2670 4047 
Q 2441 4250 2034 4250 
Q 1625 4250 1398 4047 
Q 1172 3844 1172 3481 
z
" transform="scale(0.015625)"/>
       </defs>
       <use xlink:href="#DejaVuSans-30"/>
       <use xlink:href="#DejaVuSans-2e" transform="translate(63.623047 0)"/>
       <use xlink:href="#DejaVuSans-38" transform="translate(95.410156 0)"/>
      </g>
     </g>
    </g>
    <g id="xtick_6">
     <g id="line2d_11">
      <path d="M 622.636364 384.48 
L 622.636364 51.84 
" clip-path="url(#pdd86479147)" style="fill: none; stroke: #b0b0b0; stroke-width: 0.8; stroke-linecap: square"/>
     </g>
     <g id="line2d_12">
      <g>
       <use xlink:href="#md9335ba71d" x="622.636364" y="384.48" style="stroke: #000000; stroke-width: 0.8"/>
      </g>
     </g>
     <g id="text_6">
      <!-- 1.0 -->
      <g transform="translate(614.684801 399.078438) scale(0.1 -0.1)">
       <defs>
        <path id="DejaVuSans-31" d="M 794 531 
L 1825 531 
L 1825 4091 
L 703 3866 
L 703 4441 
L 1819 4666 
L 2450 4666 
L 2450 531 
L 3481 531 
L 3481 0 
L 794 0 
L 794 531 
z
" transform="scale(0.015625)"/>
       </defs>
       <use xlink:href="#DejaVuSans-31"/>
       <use xlink:href="#DejaVuSans-2e" transform="translate(63.623047 0)"/>
       <use xlink:href="#DejaVuSans-30" transform="translate(95.410156 0)"/>
      </g>
     </g>
    </g>
    <g id="text_7">
     <!-- Recall -->
     <g transform="translate(354.082812 412.756563) scale(0.1 -0.1)">
      <defs>
       <path id="DejaVuSans-52" d="M 2841 2188 
Q 3044 2119 3236 1894 
Q 3428 1669 3622 1275 
L 4263 0 
L 3584 0 
L 2988 1197 
Q 2756 1666 2539 1819 
Q 2322 1972 1947 1972 
L 1259 1972 
L 1259 0 
L 628 0 
L 628 4666 
L 2053 4666 
Q 2853 4666 3247 4331 
Q 3641 3997 3641 3322 
Q 3641 2881 3436 2590 
Q 3231 2300 2841 2188 
z
M 1259 4147 
L 1259 2491 
L 2053 2491 
Q 2509 2491 2742 2702 
Q 2975 2913 2975 3322 
Q 2975 3731 2742 3939 
Q 2509 4147 2053 4147 
L 1259 4147 
z
" transform="scale(0.015625)"/>
       <path id="DejaVuSans-65" d="M 3597 1894 
L 3597 1613 
L 953 1613 
Q 991 1019 1311 708 
Q 1631 397 2203 397 
Q 2534 397 2845 478 
Q 3156 559 3463 722 
L 3463 178 
Q 3153 47 2828 -22 
Q 2503 -91 2169 -91 
Q 1331 -91 842 396 
Q 353 884 353 1716 
Q 353 2575 817 3079 
Q 1281 3584 2069 3584 
Q 2775 3584 3186 3129 
Q 3597 2675 3597 1894 
z
M 3022 2063 
Q 3016 2534 2758 2815 
Q 2500 3097 2075 3097 
Q 1594 3097 1305 2825 
Q 1016 2553 972 2059 
L 3022 2063 
z
" transform="scale(0.015625)"/>
       <path id="DejaVuSans-63" d="M 3122 3366 
L 3122 2828 
Q 2878 2963 2633 3030 
Q 2388 3097 2138 3097 
Q 1578 3097 1268 2742 
Q 959 2388 959 1747 
Q 959 1106 1268 751 
Q 1578 397 2138 397 
Q 2388 397 2633 464 
Q 2878 531 3122 666 
L 3122 134 
Q 2881 22 2623 -34 
Q 2366 -91 2075 -91 
Q 1284 -91 818 406 
Q 353 903 353 1747 
Q 353 2603 823 3093 
Q 1294 3584 2113 3584 
Q 2378 3584 2631 3529 
Q 2884 3475 3122 3366 
z
" transform="scale(0.015625)"/>
       <path id="DejaVuSans-61" d="M 2194 1759 
Q 1497 1759 1228 1600 
Q 959 1441 959 1056 
Q 959 750 1161 570 
Q 1363 391 1709 391 
Q 2188 391 2477 730 
Q 2766 1069 2766 1631 
L 2766 1759 
L 2194 1759 
z
M 3341 1997 
L 3341 0 
L 2766 0 
L 2766 531 
Q 2569 213 2275 61 
Q 1981 -91 1556 -91 
Q 1019 -91 701 211 
Q 384 513 384 1019 
Q 384 1609 779 1909 
Q 1175 2209 1959 2209 
L 2766 2209 
L 2766 2266 
Q 2766 2663 2505 2880 
Q 2244 3097 1772 3097 
Q 1472 3097 1187 3025 
Q 903 2953 641 2809 
L 641 3341 
Q 956 3463 1253 3523 
Q 1550 3584 1831 3584 
Q 2591 3584 2966 3190 
Q 3341 2797 3341 1997 
z
" transform="scale(0.015625)"/>
       <path id="DejaVuSans-6c" d="M 603 4863 
L 1178 4863 
L 1178 0 
L 603 0 
L 603 4863 
z
" transform="scale(0.015625)"/>
      </defs>
      <use xlink:href="#DejaVuSans-52"/>
      <use xlink:href="#DejaVuSans-65" transform="translate(64.982422 0)"/>
      <use xlink:href="#DejaVuSans-63" transform="translate(126.505859 0)"/>
      <use xlink:href="#DejaVuSans-61" transform="translate(181.486328 0)"/>
      <use xlink:href="#DejaVuSans-6c" transform="translate(242.765625 0)"/>
      <use xlink:href="#DejaVuSans-6c" transform="translate(270.548828 0)"/>
     </g>
    </g>
   </g>
   <g id="matplotlib.axis_2">
    <g id="ytick_1">
     <g id="line2d_13">
      <path d="M 90 369.36 
L 648 369.36 
" clip-path="url(#pdd86479147)" style="fill: none; stroke: #b0b0b0; stroke-width: 0.8; stroke-linecap: square"/>
     </g>
     <g id="line2d_14">
      <defs>
       <path id="mf6c30e468e" d="M 0 0 
L -3.5 0 
" style="stroke: #000000; stroke-width: 0.8"/>
      </defs>
      <g>
       <use xlink:href="#mf6c30e468e" x="90" y="369.36" style="stroke: #000000; stroke-width: 0.8"/>
      </g>
     </g>
     <g id="text_8">
      <!-- 0.0 -->
      <g transform="translate(67.096875 373.159219) scale(0.1 -0.1)">
       <use xlink:href="#DejaVuSans-30"/>
       <use xlink:href="#DejaVuSans-2e" transform="translate(63.623047 0)"/>
       <use xlink:href="#DejaVuSans-30" transform="translate(95.410156 0)"/>
      </g>
     </g>
    </g>
    <g id="ytick_2">
     <g id="line2d_15">
      <path d="M 90 308.88 
L 648 308.88 
" clip-path="url(#pdd86479147)" style="fill: none; stroke: #b0b0b0; stroke-width: 0.8; stroke-linecap: square"/>
     </g>
     <g id="line2d_16">
      <g>
       <use xlink:href="#mf6c30e468e" x="90" y="308.88" style="stroke: #000000; stroke-width: 0.8"/>
      </g>
     </g>
     <g id="text_9">
      <!-- 0.2 -->
      <g transform="translate(67.096875 312.679219) scale(0.1 -0.1)">
       <use xlink:href="#DejaVuSans-30"/>
       <use xlink:href="#DejaVuSans-2e" transform="translate(63.623047 0)"/>
       <use xlink:href="#DejaVuSans-32" transform="translate(95.410156 0)"/>
      </g>
     </g>
    </g>
    <g id="ytick_3">
     <g id="line2d_17">
      <path d="M 90 248.4 
L 648 248.4 
" clip-path="url(#pdd86479147)" style="fill: none; stroke: #b0b0b0; stroke-width: 0.8; stroke-linecap: square"/>
     </g>
     <g id="line2d_18">
      <g>
       <use xlink:href="#mf6c30e468e" x="90" y="248.4" style="stroke: #000000; stroke-width: 0.8"/>
      </g>
     </g>
     <g id="text_10">
      <!-- 0.4 -->
      <g transform="translate(67.096875 252.199219) scale(0.1 -0.1)">
       <use xlink:href="#DejaVuSans-30"/>
       <use xlink:href="#DejaVuSans-2e" transform="translate(63.623047 0)"/>
       <use xlink:href="#DejaVuSans-34" transform="translate(95.410156 0)"/>
      </g>
     </g>
    </g>
    <g id="ytick_4">
     <g id="line2d_19">
      <path d="M 90 187.92 
L 648 187.92 
" clip-path="url(#pdd86479147)" style="fill: none; stroke: #b0b0b0; stroke-width: 0.8; stroke-linecap: square"/>
     </g>
     <g id="line2d_20">
      <g>
       <use xlink:href="#mf6c30e468e" x="90" y="187.92" style="stroke: #000000; stroke-width: 0.8"/>
      </g>
     </g>
     <g id="text_11">
      <!-- 0.6 -->
      <g transform="translate(67.096875 191.719219) scale(0.1 -0.1)">
       <use xlink:href="#DejaVuSans-30"/>
       <use xlink:href="#DejaVuSans-2e" transform="translate(63.623047 0)"/>
       <use xlink:href="#DejaVuSans-36" transform="translate(95.410156 0)"/>
      </g>
     </g>
    </g>
    <g id="ytick_5">
     <g id="line2d_21">
      <path d="M 90 127.44 
L 648 127.44 
" clip-path="url(#pdd86479147)" style="fill: none; stroke: #b0b0b0; stroke-width: 0.8; stroke-linecap: square"/>
     </g>
     <g id="line2d_22">
      <g>
       <use xlink:href="#mf6c30e468e" x="90" y="127.44" style="stroke: #000000; stroke-width: 0.8"/>
      </g>
     </g>
     <g id="text_12">
      <!-- 0.8 -->
      <g transform="translate(67.096875 131.239219) scale(0.1 -0.1)">
       <use xlink:href="#DejaVuSans-30"/>
       <use xlink:href="#DejaVuSans-2e" transform="translate(63.623047 0)"/>
       <use xlink:href="#DejaVuSans-38" transform="translate(95.410156 0)"/>
      </g>
     </g>
    </g>
    <g id="ytick_6">
     <g id="line2d_23">
      <path d="M 90 66.96 
L 648 66.96 
" clip-path="url(#pdd86479147)" style="fill: none; stroke: #b0b0b0; stroke-width: 0.8; stroke-linecap: square"/>
     </g>
     <g id="line2d_24">
      <g>
       <use xlink:href="#mf6c30e468e" x="90" y="66.96" style="stroke: #000000; stroke-width: 0.8"/>
      </g>
     </g>
     <g id="text_13">
      <!-- 1.0 -->
      <g transform="translate(67.096875 70.759219) scale(0.1 -0.1)">
       <use xlink:href="#DejaVuSans-31"/>
       <use xlink:href="#DejaVuSans-2e" transform="translate(63.623047 0)"/>
       <use xlink:href="#DejaVuSans-30" transform="translate(95.410156 0)"/>
      </g>
     </g>
    </g>
    <g id="text_14">
     <!-- Precision -->
     <g transform="translate(61.017187 240.467031) rotate(-90) scale(0.1 -0.1)">
      <defs>
       <path id="DejaVuSans-50" d="M 1259 4147 
L 1259 2394 
L 2053 2394 
Q 2494 2394 2734 2622 
Q 2975 2850 2975 3272 
Q 2975 3691 2734 3919 
Q 2494 4147 2053 4147 
L 1259 4147 
z
M 628 4666 
L 2053 4666 
Q 2838 4666 3239 4311 
Q 3641 3956 3641 3272 
Q 3641 2581 3239 2228 
Q 2838 1875 2053 1875 
L 1259 1875 
L 1259 0 
L 628 0 
L 628 4666 
z
" transform="scale(0.015625)"/>
       <path id="DejaVuSans-72" d="M 2631 2963 
Q 2534 3019 2420 3045 
Q 2306 3072 2169 3072 
Q 1681 3072 1420 2755 
Q 1159 2438 1159 1844 
L 1159 0 
L 581 0 
L 581 3500 
L 1159 3500 
L 1159 2956 
Q 1341 3275 1631 3429 
Q 1922 3584 2338 3584 
Q 2397 3584 2469 3576 
Q 2541 3569 2628 3553 
L 2631 2963 
z
" transform="scale(0.015625)"/>
       <path id="DejaVuSans-69" d="M 603 3500 
L 1178 3500 
L 1178 0 
L 603 0 
L 603 3500 
z
M 603 4863 
L 1178 4863 
L 1178 4134 
L 603 4134 
L 603 4863 
z
" transform="scale(0.015625)"/>
       <path id="DejaVuSans-73" d="M 2834 3397 
L 2834 2853 
Q 2591 2978 2328 3040 
Q 2066 3103 1784 3103 
Q 1356 3103 1142 2972 
Q 928 2841 928 2578 
Q 928 2378 1081 2264 
Q 1234 2150 1697 2047 
L 1894 2003 
Q 2506 1872 2764 1633 
Q 3022 1394 3022 966 
Q 3022 478 2636 193 
Q 2250 -91 1575 -91 
Q 1294 -91 989 -36 
Q 684 19 347 128 
L 347 722 
Q 666 556 975 473 
Q 1284 391 1588 391 
Q 1994 391 2212 530 
Q 2431 669 2431 922 
Q 2431 1156 2273 1281 
Q 2116 1406 1581 1522 
L 1381 1569 
Q 847 1681 609 1914 
Q 372 2147 372 2553 
Q 372 3047 722 3315 
Q 1072 3584 1716 3584 
Q 2034 3584 2315 3537 
Q 2597 3491 2834 3397 
z
" transform="scale(0.015625)"/>
       <path id="DejaVuSans-6f" d="M 1959 3097 
Q 1497 3097 1228 2736 
Q 959 2375 959 1747 
Q 959 1119 1226 758 
Q 1494 397 1959 397 
Q 2419 397 2687 759 
Q 2956 1122 2956 1747 
Q 2956 2369 2687 2733 
Q 2419 3097 1959 3097 
z
M 1959 3584 
Q 2709 3584 3137 3096 
Q 3566 2609 3566 1747 
Q 3566 888 3137 398 
Q 2709 -91 1959 -91 
Q 1206 -91 779 398 
Q 353 888 353 1747 
Q 353 2609 779 3096 
Q 1206 3584 1959 3584 
z
" transform="scale(0.015625)"/>
       <path id="DejaVuSans-6e" d="M 3513 2113 
L 3513 0 
L 2938 0 
L 2938 2094 
Q 2938 2591 2744 2837 
Q 2550 3084 2163 3084 
Q 1697 3084 1428 2787 
Q 1159 2491 1159 1978 
L 1159 0 
L 581 0 
L 581 3500 
L 1159 3500 
L 1159 2956 
Q 1366 3272 1645 3428 
Q 1925 3584 2291 3584 
Q 2894 3584 3203 3211 
Q 3513 2838 3513 2113 
z
" transform="scale(0.015625)"/>
      </defs>
      <use xlink:href="#DejaVuSans-50"/>
      <use xlink:href="#DejaVuSans-72" transform="translate(58.552734 0)"/>
      <use xlink:href="#DejaVuSans-65" transform="translate(97.416016 0)"/>
      <use xlink:href="#DejaVuSans-63" transform="translate(158.939453 0)"/>
      <use xlink:href="#DejaVuSans-69" transform="translate(213.919922 0)"/>
      <use xlink:href="#DejaVuSans-73" transform="translate(241.703125 0)"/>
      <use xlink:href="#DejaVuSans-69" transform="translate(293.802734 0)"/>
      <use xlink:href="#DejaVuSans-6f" transform="translate(321.585938 0)"/>
      <use xlink:href="#DejaVuSans-6e" transform="translate(382.767578 0)"/>
     </g>
    </g>
   </g>
   <g id="line2d_25">
    <path d="M 622.636364 369.26976 
L 622.636364 369.267183 
L 614.284609 369.164808 
L 614.284609 369.1576 
L 614.220365 369.155353 
L 611.58635 369.048779 
L 611.58635 369.045322 
L 611.58635 369.002528 
L 610.622686 368.908701 
L 610.622686 368.89211 
L 610.622686 368.828096 
L 605.547389 368.738036 
L 605.547389 368.722427 
L 605.547389 368.701271 
L 603.170351 368.649696 
L 603.170351 368.593348 
L 603.170351 368.555361 
L 602.527908 368.505202 
L 602.527908 368.445308 
L 602.527908 368.386273 
L 602.335175 368.386657 
L 602.335175 368.275549 
L 602.335175 368.121763 
L 599.508428 368.111838 
L 599.508428 368.017813 
L 599.508428 367.88544 
L 598.930229 367.885581 
L 598.930229 367.776082 
L 598.930229 367.726385 
L 598.352031 367.728328 
L 598.352031 367.617224 
L 598.352031 367.542625 
L 597.709588 367.545028 
L 597.709588 367.433916 
L 597.645344 366.896873 
L 597.516855 366.897523 
L 597.516855 366.786414 
L 597.516855 366.270249 
L 597.388367 366.271064 
L 597.388367 366.160043 
L 597.388367 364.924382 
L 596.874413 364.929042 
L 596.874413 364.817931 
L 596.874413 363.463753 
L 596.553191 363.397685 
L 596.553191 363.356644 
L 596.553191 362.960244 
L 596.167726 362.965262 
L 596.167726 362.854344 
L 596.167726 359.024702 
L 595.653772 359.035372 
L 595.653772 358.924568 
L 595.589527 355.028564 
L 595.204062 355.039523 
L 595.204062 354.928902 
L 595.204062 350.935626 
L 594.882841 350.947209 
L 594.882841 350.837206 
L 594.882841 326.932255 
L 594.368886 326.971355 
L 594.368886 326.861896 
L 594.368886 322.621864 
L 593.790688 322.66957 
L 593.790688 322.562843 
L 593.790688 321.590011 
L 593.405222 321.622424 
L 593.405222 321.548377 
L 593.405222 305.474974 
L 593.084001 305.508837 
L 593.084001 305.410781 
L 593.084001 280.792258 
L 592.698536 280.842803 
L 592.698536 280.741557 
L 592.698536 266.468944 
L 591.477894 266.642684 
L 591.477894 266.619139 
L 591.477894 264.450048 
L 589.679055 264.709245 
L 589.679055 264.606131 
L 589.679055 244.562951 
L 589.293589 244.622536 
L 589.293589 244.566713 
L 589.293589 212.106031 
L 588.779635 212.187931 
L 588.779635 212.076996 
L 588.779635 208.465733 
L 587.94446 208.598679 
L 587.94446 208.505679 
L 587.94446 197.41485 
L 587.815971 197.435021 
L 587.815971 197.328624 
L 587.815971 188.264756 
L 587.49475 188.314167 
L 587.49475 188.225629 
L 587.49475 185.61981 
L 586.274109 185.806505 
L 586.274109 185.425721 
L 586.017132 185.465055 
L 586.017132 185.373421 
L 586.017132 175.164488 
L 585.824399 175.19295 
L 585.824399 175.090748 
L 585.824399 173.423422 
L 585.117712 173.527142 
L 585.117712 173.457741 
L 585.117712 172.024096 
L 584.603758 172.099162 
L 584.603758 172.011036 
L 584.603758 169.673751 
L 584.411025 169.701617 
L 584.411025 168.940392 
L 583.768582 169.033051 
L 583.768582 168.923782 
L 583.768582 168.668356 
L 582.869163 168.798133 
L 582.869163 167.9906 
L 582.355209 168.064615 
L 582.355209 162.222269 
L 581.969743 162.276161 
L 581.969743 161.629819 
L 579.528461 161.971296 
L 579.528461 161.121342 
L 578.821774 161.220166 
L 578.821774 161.120825 
L 578.821774 160.061948 
L 578.629041 160.088752 
L 578.629041 160.008387 
L 578.629041 159.645978 
L 578.115087 159.717344 
L 578.115087 159.616408 
L 578.115087 159.029061 
L 577.215667 159.153696 
L 577.215667 158.807593 
L 576.830202 158.860998 
L 576.830202 158.840597 
L 576.830202 157.299158 
L 576.444736 157.352107 
L 576.444736 157.248507 
L 576.444736 156.18597 
L 575.609561 156.300047 
L 575.609561 156.195226 
L 575.609561 154.610436 
L 574.453164 154.76711 
L 574.453164 153.997194 
L 573.553744 154.118802 
L 573.4895 152.504167 
L 572.333103 152.550082 
L 572.333103 152.375111 
L 571.754905 152.45273 
L 571.754905 152.430827 
L 571.754905 152.035812 
L 569.12089 152.27989 
L 569.12089 152.059033 
L 567.386295 152.271295 
L 567.386295 151.782906 
L 565.458967 151.977033 
L 565.458967 151.686682 
L 564.366814 151.812537 
L 564.366814 151.02595 
L 564.238326 151.043323 
L 564.238326 150.953054 
L 564.238326 150.636522 
L 561.090356 151.063132 
L 561.090356 150.972241 
L 561.090356 150.104989 
L 560.576402 150.174559 
L 560.576402 149.276824 
L 560.319425 149.311418 
L 560.319425 149.218903 
L 560.319425 148.940888 
L 559.741227 149.018612 
L 559.741227 148.739728 
L 559.291517 148.800152 
L 559.291517 148.70699 
L 559.291517 148.520431 
L 559.03454 148.554925 
L 559.03454 148.321219 
L 557.621166 148.511114 
L 557.621166 148.323517 
L 555.629594 148.545168 
L 555.629594 148.451014 
L 552.353136 148.872831 
L 552.353136 146.965709 
L 551.196739 147.121716 
L 551.196739 146.928947 
L 549.205167 147.126112 
L 549.205167 147.077732 
L 545.479 147.58675 
L 545.479 147.440894 
L 544.708069 147.546895 
L 544.708069 147.473834 
L 544.708069 147.107806 
L 543.423183 147.18653 
L 543.423183 146.941278 
L 542.780741 147.029665 
L 542.780741 146.660509 
L 538.476375 147.20647 
L 538.476375 147.132104 
L 536.934512 147.34738 
L 536.934512 147.024 
L 534.94294 147.228136 
L 534.94294 147.128156 
L 532.244681 147.408456 
L 532.244681 147.232583 
L 531.859215 147.287141 
L 531.859215 146.301723 
L 529.546422 146.628045 
L 529.546422 146.398792 
L 528.325781 146.469598 
L 528.325781 146.316145 
L 527.233628 146.471244 
L 527.233628 146.368696 
L 527.233628 146.034761 
L 525.884498 146.226513 
L 525.884498 145.994378 
L 524.728102 146.159166 
L 524.728102 145.900322 
L 520.680713 146.429222 
L 520.680713 146.324975 
L 519.717049 146.464392 
L 519.717049 146.098346 
L 518.946118 146.2099 
L 518.946118 145.973735 
L 518.046698 146.077729 
L 518.046698 145.682492 
L 517.4685 145.76619 
L 517.4685 145.660485 
L 517.4685 145.18357 
L 515.027217 145.537228 
L 515.027217 145.510595 
L 515.027217 145.404 
L 512.971401 145.703977 
L 512.971401 145.597016 
L 512.971401 144.979998 
L 512.071981 145.111171 
L 512.071981 144.949472 
L 509.566455 145.316725 
L 509.502211 144.919642 
L 503.399005 145.826038 
L 503.399005 145.743937 
L 503.399005 145.22256 
L 502.306853 145.386168 
L 502.306853 144.916969 
L 498.323708 145.517159 
L 498.323708 145.043624 
L 494.790274 145.581727 
L 494.790274 145.188493 
L 491.385327 145.627577 
L 491.385327 144.633337 
L 487.980381 145.073555 
L 487.980381 144.815127 
L 483.547527 145.451163 
L 483.547527 145.42223 
L 483.547527 144.783818 
L 480.335314 145.291342 
L 480.335314 144.99871 
L 478.92194 145.223576 
L 478.92194 145.135472 
L 478.92194 144.782362 
L 478.343741 144.874387 
L 478.343741 144.401475 
L 475.966704 144.69141 
L 475.966704 144.274308 
L 474.55333 144.500524 
L 474.55333 144.380838 
L 473.65391 144.525338 
L 473.65391 143.863971 
L 472.75449 144.008198 
L 472.75449 143.73618 
L 472.369025 143.798013 
L 472.369025 143.373341 
L 471.341116 143.538113 
L 471.341116 143.050113 
L 470.248964 143.225223 
L 470.248964 142.518935 
L 469.542277 142.631971 
L 469.542277 142.539429 
L 469.542277 141.95157 
L 469.2853 141.99251 
L 469.2853 141.370182 
L 468.578613 141.482368 
L 468.578613 141.419885 
L 468.578613 141.106952 
L 468.064659 141.188477 
L 468.064659 140.905892 
L 467.679193 140.966996 
L 467.679193 140.715081 
L 465.623377 140.978673 
L 465.623377 140.057524 
L 465.173667 140.12876 
L 465.173667 139.713138 
L 458.74924 140.742178 
L 458.74924 140.61276 
L 455.858248 141.084826 
L 455.858248 140.498084 
L 454.444874 140.729832 
L 454.444874 140.467529 
L 450.525974 141.11625 
L 450.525974 140.653012 
L 448.534402 140.885874 
L 448.534402 140.519142 
L 448.148936 140.583602 
L 448.148936 138.118193 
L 448.084692 138.128699 
L 447.699226 138.191801 
L 447.699226 137.712554 
L 447.313761 137.775474 
L 447.313761 137.569346 
L 446.607074 137.650325 
L 446.607074 137.270926 
L 442.495441 137.912412 
L 442.495441 137.039421 
L 439.668693 137.472532 
L 439.668693 137.155071 
L 437.355899 137.541585 
L 437.355899 137.328647 
L 436.45648 137.408619 
L 436.45648 136.622827 
L 435.300083 136.780541 
L 435.300083 136.672732 
L 429.004145 137.635498 
L 429.004145 137.015524 
L 427.141061 137.336727 
L 427.141061 136.785166 
L 426.562863 136.884901 
L 426.562863 136.70028 
L 425.149489 136.944826 
L 425.149489 136.648094 
L 424.507046 136.759488 
L 424.507046 136.536192 
L 418.853551 137.529815 
L 418.853551 137.077463 
L 414.806162 137.803174 
L 414.806162 137.269369 
L 414.484941 137.327304 
L 414.484941 137.097644 
L 413.970986 137.190327 
L 413.970986 136.652185 
L 409.795109 137.371517 
L 409.795109 136.982535 
L 408.381735 137.241791 
L 408.381735 136.654348 
L 408.124758 136.701415 
L 408.124758 135.834021 
L 406.904117 136.056498 
L 406.904117 135.140645 
L 406.004697 135.303952 
L 406.004697 134.782222 
L 405.105278 134.945425 
L 405.105278 134.743795 
L 404.398591 134.872306 
L 404.398591 134.629565 
L 403.049461 134.875636 
L 403.049461 134.550359 
L 401.250622 134.839261 
L 401.250622 134.634725 
L 398.873584 135.074326 
L 398.873584 134.33161 
L 393.155844 135.404444 
L 393.155844 135.027097 
L 392.127936 135.222832 
L 392.127936 134.927896 
L 391.678226 135.013622 
L 391.678226 134.632983 
L 390.778806 134.8044 
L 390.778806 134.37925 
L 390.393341 134.452651 
L 390.393341 134.282027 
L 389.943631 134.367709 
L 389.943631 133.76802 
L 387.502349 134.234009 
L 387.502349 133.931513 
L 383.390716 134.728644 
L 383.390716 134.597663 
L 377.415999 135.788782 
L 377.415999 135.390046 
L 375.745648 135.640092 
L 375.745648 135.595514 
L 375.038961 135.739817 
L 375.038961 135.561071 
L 371.569771 136.277047 
L 371.569771 135.508691 
L 368.935756 135.966805 
L 368.935756 135.28022 
L 366.879939 135.665567 
L 366.879939 135.527095 
L 366.173252 135.67639 
L 366.173252 135.027011 
L 365.53081 135.162387 
L 365.53081 134.929261 
L 362.639818 135.543688 
L 362.639818 133.745101 
L 362.125863 133.853431 
L 362.125863 133.710091 
L 360.969467 133.954746 
L 360.969467 133.762853 
L 360.584001 133.844636 
L 360.584001 133.411349 
L 359.620337 133.615731 
L 359.620337 133.179885 
L 354.802017 134.216082 
L 354.802017 134.167012 
L 354.802017 133.527232 
L 352.810445 133.862655 
L 352.810445 133.465023 
L 352.424979 133.549349 
L 352.424979 132.899733 
L 352.103758 132.969673 
L 352.103758 132.517492 
L 351.589804 132.629151 
L 351.589804 132.427377 
L 351.07585 132.539168 
L 351.07585 131.880205 
L 350.561896 131.991561 
L 350.561896 131.838781 
L 350.17643 131.922406 
L 350.17643 131.36 
L 349.72672 131.457218 
L 349.72672 130.788374 
L 347.927881 131.177232 
L 347.927881 130.031622 
L 347.156949 130.197527 
L 347.156949 129.72477 
L 344.715667 130.253023 
L 344.715667 129.242562 
L 343.623515 129.478955 
L 343.623515 129.318177 
L 342.916828 129.471803 
L 342.916828 128.28397 
L 341.374965 128.562535 
L 341.374965 128.071 
L 335.72147 129.204408 
L 335.72147 128.814545 
L 335.336004 128.900734 
L 335.336004 128.509197 
L 332.25228 129.204178 
L 332.25228 129.147671 
L 332.25228 129.034576 
L 328.847334 129.818832 
L 328.847334 129.418453 
L 326.791517 129.899365 
L 326.791517 128.391864 
L 323.515059 129.159951 
L 323.515059 128.806109 
L 322.679884 129.004138 
L 322.679884 128.172457 
L 322.294418 128.263366 
L 322.294418 127.904769 
L 322.037441 127.965261 
L 322.037441 127.485112 
L 320.624067 127.818 
L 320.624067 126.604221 
L 318.889472 127.011606 
L 318.889472 126.273677 
L 318.182785 126.439695 
L 318.182785 126.316008 
L 317.283366 126.528319 
L 317.283366 125.719087 
L 314.456618 126.389401 
L 314.456618 126.263346 
L 310.794695 127.153365 
L 310.794695 127.025753 
L 309.509809 127.279788 
L 309.509809 125.53588 
L 305.976375 126.408253 
L 305.976375 126.210732 
L 302.507184 127.090693 
L 302.507184 125.818059 
L 300.644101 126.293779 
L 300.644101 125.409902 
L 300.451368 125.458992 
L 300.451368 124.842908 
L 296.853689 125.767186 
L 296.853689 125.489032 
L 295.054849 125.960633 
L 295.054849 124.551664 
L 294.026941 124.81961 
L 294.026941 123.532932 
L 291.90688 124.083967 
L 291.90688 123.866588 
L 291.200193 124.052116 
L 291.200193 123.906619 
L 290.557751 124.076002 
L 290.557751 123.856934 
L 287.53827 124.664348 
L 287.53827 122.953189 
L 285.353965 123.538065 
L 285.353965 122.856488 
L 284.454545 123.098614 
L 284.454545 122.640595 
L 283.555126 122.883288 
L 283.555126 122.344961 
L 282.976927 122.500926 
L 282.976927 122.114121 
L 279.571981 123.04566 
L 279.571981 122.809952 
L 277.773142 123.313267 
L 277.773142 122.43907 
L 277.708897 122.456995 
L 276.745233 122.727273 
L 276.745233 121.601096 
L 273.019066 122.654681 
L 273.019066 121.501082 
L 272.6336 121.610602 
L 272.6336 121.361608 
L 271.862669 121.581191 
L 271.862669 120.828826 
L 267.943769 121.960758 
L 267.943769 121.191375 
L 266.466151 121.625831 
L 266.466151 121.193636 
L 265.952197 121.345444 
L 265.952197 120.649263 
L 265.502487 120.781456 
L 265.502487 120.69399 
L 265.502487 120.08 
L 264.603067 120.343623 
L 264.603067 119.368826 
L 263.639403 119.650089 
L 263.639403 119.471278 
L 262.675739 119.754816 
L 262.675739 116.662041 
L 262.290274 116.770957 
L 262.290274 116.216223 
L 258.885327 117.190683 
L 258.885327 116.53006 
L 257.985908 116.791151 
L 257.985908 116.600964 
L 256.636778 116.900774 
L 256.636778 116.131668 
L 255.673114 116.414155 
L 255.673114 115.928841 
L 254.902183 116.155374 
L 254.902183 115.96 
L 247.642581 118.193562 
L 247.642581 117.990763 
L 246.743161 118.178846 
L 246.743161 118.076782 
L 244.815833 118.707594 
L 244.815833 116.942436 
L 244.687345 116.983881 
L 244.687345 115.086316 
L 237.23501 117.426403 
L 237.23501 116.649515 
L 235.628903 117.202851 
L 235.628903 115.620511 
L 231.645758 117.011452 
L 231.645758 116.661939 
L 229.718431 117.36 
L 229.718431 116.887205 
L 227.791103 117.599772 
L 227.791103 117.239943 
L 226.056507 117.895135 
L 226.056507 116.675616 
L 222.458828 118.06349 
L 222.458828 117.812695 
L 221.045455 118.377154 
L 221.045455 118.123636 
L 219.632081 118.698509 
L 219.632081 118.185384 
L 217.06231 119.255925 
L 217.06231 117.810236 
L 213.914341 119.154175 
L 213.914341 116.563488 
L 212.179746 117.304248 
L 212.179746 116.745366 
L 211.730036 116.939299 
L 211.730036 115.668725 
L 209.931196 116.443636 
L 209.931196 114.123303 
L 207.040204 115.372478 
L 207.040204 115.222898 
L 204.855899 116.209038 
L 204.855899 112.660914 
L 204.40619 112.856695 
L 204.40619 112.69962 
L 200.680022 114.384 
L 200.680022 114.222008 
L 200.680022 113.734793 
L 199.909091 114.09483 
L 199.909091 112.114751 
L 198.752694 112.646331 
L 198.752694 112.310098 
L 197.33932 112.973023 
L 197.33932 112.28978 
L 196.696878 112.593803 
L 196.696878 111.382642 
L 196.054435 111.684016 
L 196.054435 109.923934 
L 193.998618 110.884022 
L 193.998618 110.341386 
L 192.649489 110.988409 
L 192.649489 108.76745 
L 188.537856 110.776216 
L 188.537856 109.410113 
L 186.867505 110.259769 
L 186.867505 108.452093 
L 185.004421 109.406312 
L 185.004421 106.276854 
L 183.012849 107.28 
L 183.012849 103.338947 
L 182.306162 103.676358 
L 182.306162 102.777259 
L 181.663719 103.082867 
L 181.663719 98.694952 
L 180.7643 99.085022 
L 180.7643 96.932389 
L 179.929124 97.281218 
L 179.929124 94.326516 
L 175.110804 96.319223 
L 173.376209 97.109551 
L 173.376209 93.534545 
L 168.686377 95.650076 
L 168.686377 94.751685 
L 166.052363 96.056907 
L 166.052363 91.925581 
L 164.831721 92.489608 
L 164.831721 91.166452 
L 162.133462 92.445283 
L 162.133462 89.274504 
L 159.306715 90.597736 
L 159.306715 89.466089 
L 158.471539 89.869091 
L 158.471539 89.097017 
L 157.250898 89.693617 
L 157.250898 89.296364 
L 153.331998 91.415365 
L 153.331998 87.469779 
L 151.211937 88.59594 
L 147.742747 90.731846 
L 145.751174 92.16 
L 145.751174 87.23929 
L 143.759602 88.56 
L 142.860182 89.214545 
L 142.860182 88.606855 
L 141.639541 89.537376 
L 141.639541 86.981918 
L 141.125587 87.354419 
L 141.125587 86.697063 
L 139.840702 87.6622 
L 139.840702 86.971765 
L 137.977618 88.503008 
L 136.307267 90.089745 
L 134.958138 91.552771 
L 131.745924 95.913191 
L 130.139818 98.72965 
L 130.139818 97.6725 
L 129.240398 99.449256 
L 127.248826 104.222559 
L 125.642719 109.230968 
L 124.229345 114.901463 
L 124.229345 105.238481 
L 123.908124 106.489412 
L 123.908124 103.007682 
L 123.329925 105.292394 
L 123.329925 103.419574 
L 121.916552 110.16 
L 121.466842 112.86 
L 120.053468 124.08 
L 119.089804 135.504 
L 117.804918 160.429091 
L 117.804918 156.56 
L 116.905499 187.92 
L 116.905499 66.96 
L 115.363636 66.96 
L 115.363636 66.96 
" clip-path="url(#pdd86479147)" style="fill: none; stroke: #1f77b4; stroke-width: 1.5; stroke-linecap: square"/>
   </g>
   <g id="line2d_26">
    <path d="M 622.636364 369.271566 
L 622.636364 369.245978 
L 621.980803 369.213446 
L 621.980803 369.135014 
L 621.980803 369.099455 
L 617.522992 369.003704 
L 617.522992 368.990635 
L 617.522992 368.940981 
L 616.080758 368.902505 
L 616.080758 368.831072 
L 616.080758 368.79958 
L 610.508494 368.710526 
L 610.508494 368.694694 
L 610.508494 368.60531 
L 609.197373 368.591235 
L 609.197373 368.496193 
L 609.197373 368.492653 
L 607.75514 368.419199 
L 607.75514 368.384069 
L 607.75514 368.356331 
L 603.690665 368.262811 
L 603.690665 368.253487 
L 603.690665 368.2457 
L 603.297328 368.246594 
L 603.297328 368.135487 
L 603.297328 368.068467 
L 601.658427 367.977504 
L 601.658427 367.961679 
L 601.658427 367.77981 
L 601.527315 367.780234 
L 601.527315 367.669125 
L 601.461759 367.566551 
L 601.396203 367.566791 
L 601.396203 367.455682 
L 601.396203 367.398528 
L 601.002867 367.400105 
L 601.002867 367.288995 
L 601.002867 367.028464 
L 600.60953 367.030338 
L 600.60953 366.919235 
L 600.60953 366.376886 
L 600.019526 366.364163 
L 600.019526 366.269423 
L 600.019526 366.254371 
L 599.560633 366.257281 
L 599.560633 366.1462 
L 599.560633 366.028879 
L 599.298409 366.030663 
L 599.298409 365.91958 
L 599.298409 365.6055 
L 598.642849 365.610523 
L 598.642849 365.499412 
L 598.642849 365.23832 
L 598.249512 365.241629 
L 598.249512 365.130557 
L 598.249512 364.739174 
L 597.856176 364.74288 
L 597.856176 364.631808 
L 597.79062 358.393846 
L 597.397284 358.402463 
L 597.397284 358.29207 
L 597.397284 358.262295 
L 597.13506 358.268111 
L 597.13506 358.157121 
L 597.13506 357.660161 
L 596.610611 357.672405 
L 596.610611 357.561839 
L 596.610611 357.08427 
L 594.119481 357.145248 
L 594.119481 357.034262 
L 594.119481 356.951433 
L 593.988369 356.954691 
L 593.988369 356.845632 
L 593.988369 353.971368 
L 593.660589 353.981371 
L 593.660589 353.870598 
L 593.660589 351.312176 
L 591.169459 351.400592 
L 591.169459 351.291778 
L 591.169459 343.144439 
L 591.038347 343.151037 
L 591.038347 343.040692 
L 591.038347 335.6692 
L 590.448342 335.706338 
L 590.448342 335.601619 
L 590.448342 267.101925 
L 590.120562 267.148631 
L 590.120562 267.038793 
L 590.120562 262.703359 
L 589.727226 262.760575 
L 589.727226 262.667016 
L 589.727226 242.421469 
L 589.333889 242.482563 
L 589.333889 242.379398 
L 589.333889 228.532174 
L 588.940553 228.594641 
L 588.940553 228.512959 
L 588.940553 189.251368 
L 588.416105 189.332082 
L 588.416105 184.638219 
L 587.563876 184.767864 
L 587.563876 176.378056 
L 587.367208 176.407146 
L 587.367208 176.338723 
L 587.367208 174.577391 
L 586.514979 174.702696 
L 586.514979 174.458305 
L 585.990531 174.535482 
L 585.990531 174.430522 
L 585.990531 171.589243 
L 585.597194 171.646464 
L 585.597194 168.683231 
L 585.33497 168.720888 
L 585.33497 168.628 
L 585.33497 168.535025 
L 584.220517 168.695238 
L 584.220517 168.639369 
L 584.220517 165.210028 
L 582.384948 165.470392 
L 582.384948 165.373862 
L 582.384948 162.255828 
L 582.122724 162.292487 
L 582.122724 162.272571 
L 582.122724 161.793433 
L 581.729387 161.848319 
L 581.729387 160.640334 
L 581.467163 160.676704 
L 581.467163 158.837724 
L 581.073827 158.891733 
L 581.073827 158.871111 
L 581.073827 158.29205 
L 580.287154 158.399858 
L 580.287154 158.337585 
L 580.287154 156.557777 
L 579.566038 156.57113 
L 579.566038 156.211045 
L 578.582697 156.344508 
L 578.582697 154.26453 
L 578.189361 154.317293 
L 578.189361 152.548382 
L 577.730468 152.609268 
L 577.730468 149.820401 
L 575.894899 150.059907 
L 575.894899 150.037266 
L 575.894899 149.241878 
L 573.797105 149.42415 
L 573.797105 149.263913 
L 573.338213 149.32392 
L 573.338213 149.117465 
L 573.207101 149.134599 
L 573.207101 147.585181 
L 571.830424 147.763368 
L 571.830424 147.693382 
L 571.830424 147.529912 
L 571.568199 147.563879 
L 571.568199 147.5405 
L 571.568199 147.095361 
L 569.994854 147.299009 
L 569.994854 146.733248 
L 569.470406 146.801054 
L 569.470406 146.493227 
L 569.011513 146.552504 
L 569.011513 146.481312 
L 569.011513 146.243676 
L 568.224841 146.345246 
L 568.224841 145.987545 
L 566.454827 146.192432 
L 566.454827 145.303319 
L 566.192603 145.337076 
L 566.192603 145.022913 
L 565.471487 145.115654 
L 565.471487 144.994493 
L 561.407011 145.472122 
L 561.407011 145.423387 
L 561.407011 145.277055 
L 560.489227 145.396649 
L 560.489227 145.24998 
L 557.998097 145.576046 
L 557.998097 144.466862 
L 557.080312 144.586564 
L 557.080312 144.03973 
L 556.228083 144.050893 
L 556.228083 143.675836 
L 552.360276 144.181448 
L 552.360276 143.954834 
L 549.738034 144.300762 
L 549.738034 143.361534 
L 549.14803 143.439169 
L 549.14803 143.132663 
L 548.295801 143.244783 
L 548.295801 143.219178 
L 548.295801 142.988474 
L 547.574685 143.032017 
L 547.574685 142.98062 
L 547.574685 142.671745 
L 546.853568 142.766557 
L 546.853568 142.508302 
L 545.935783 142.629041 
L 545.935783 142.395859 
L 544.952442 142.525385 
L 544.952442 142.369485 
L 539.18351 143.058808 
L 539.18351 142.61261 
L 536.430156 142.877351 
L 536.430156 142.58648 
L 535.184591 142.754617 
L 535.184591 142.276323 
L 532.824573 142.59561 
L 532.824573 142.488746 
L 532.824573 142.274717 
L 528.956766 142.721654 
L 528.956766 142.694727 
L 528.956766 142.317087 
L 527.645645 142.442735 
L 527.645645 142.25305 
L 526.268968 142.442342 
L 526.268968 142.333626 
L 526.268968 142.034118 
L 525.482295 142.14232 
L 525.482295 142.087727 
L 525.482295 141.951129 
L 518.336686 142.891579 
L 518.336686 142.642986 
L 517.746681 142.726154 
L 517.746681 142.56 
L 514.141098 142.960098 
L 514.141098 142.93223 
L 513.61665 143.007117 
L 513.61665 142.951324 
L 513.61665 142.531997 
L 513.092201 142.606719 
L 513.092201 142.157424 
L 510.142179 142.578829 
L 510.142179 142.437533 
L 508.96217 142.607209 
L 508.96217 142.437165 
L 497.162081 144.11667 
L 497.162081 144.030215 
L 497.162081 143.943694 
L 492.704269 144.590579 
L 492.704269 144.27085 
L 492.179821 144.350913 
L 492.179821 143.825395 
L 491.589816 143.915261 
L 491.589816 143.739407 
L 490.934256 143.839354 
L 490.934256 143.191645 
L 490.475364 143.261372 
L 490.475364 143.172706 
L 490.475364 142.817345 
L 489.360911 142.927135 
L 489.360911 142.599748 
L 483.591978 143.484894 
L 483.591978 143.394748 
L 483.591978 143.274442 
L 483.460866 143.294762 
L 483.460866 143.204433 
L 483.460866 142.902811 
L 482.73975 143.014388 
L 482.73975 142.923656 
L 482.73975 142.529643 
L 478.937499 143.029312 
L 478.937499 142.90707 
L 478.609718 142.958379 
L 478.609718 142.682727 
L 476.380813 142.971093 
L 476.380813 142.878727 
L 476.2497 142.899382 
L 476.2497 142.714391 
L 475.725252 142.796991 
L 475.725252 142.518734 
L 471.726333 143.090709 
L 471.726333 142.434765 
L 471.398553 142.486896 
L 471.398553 142.204481 
L 471.005216 142.266977 
L 471.005216 142.17263 
L 471.005216 142.046712 
L 470.808548 142.077937 
L 470.808548 142.046427 
L 470.808548 141.414386 
L 470.677436 141.435094 
L 470.677436 141.149474 
L 469.235203 141.37743 
L 469.235203 141.058573 
L 467.596302 141.222511 
L 467.596302 141.030152 
L 465.105172 141.427816 
L 465.105172 141.298931 
L 463.662939 141.530845 
L 463.662939 140.557494 
L 463.269602 140.620433 
L 463.269602 140.587826 
L 463.269602 140.489949 
L 461.565145 140.763607 
L 461.565145 140.698144 
L 461.565145 140.632644 
L 459.860688 140.842312 
L 459.860688 140.677887 
L 459.467351 140.741593 
L 459.467351 140.014876 
L 458.615123 140.152357 
L 458.615123 139.686893 
L 458.418454 139.718555 
L 458.418454 139.451646 
L 457.50067 139.599394 
L 457.50067 139.297959 
L 454.550647 139.775613 
L 454.550647 139.303008 
L 453.698419 139.441556 
L 453.698419 139.204212 
L 453.108414 139.300224 
L 453.108414 139.266247 
L 453.108414 138.994068 
L 452.911746 139.026036 
L 452.911746 138.889663 
L 446.946145 139.802864 
L 446.946145 139.492372 
L 444.979464 139.82087 
L 444.979464 139.612765 
L 444.586127 139.678693 
L 444.586127 139.365634 
L 444.061679 139.453465 
L 444.061679 139.20918 
L 440.324984 139.804594 
L 440.324984 139.699084 
L 439.144975 139.900237 
L 439.144975 139.476423 
L 438.358303 139.575176 
L 438.358303 139.149122 
L 437.964966 139.216109 
L 437.964966 139.002353 
L 435.277168 139.462508 
L 435.277168 138.96 
L 433.703823 139.230804 
L 433.703823 139.014212 
L 432.523814 139.218235 
L 432.523814 138.746633 
L 431.868253 138.859968 
L 431.868253 138.422449 
L 428.721563 138.969181 
L 428.721563 138.343219 
L 426.885994 138.664094 
L 426.885994 138.627052 
L 426.885994 138.144425 
L 426.558213 138.201739 
L 426.558213 137.978182 
L 424.722644 138.187863 
L 424.722644 138.075462 
L 423.870415 138.225616 
L 423.870415 137.585668 
L 420.13372 138.247457 
L 420.13372 137.714325 
L 419.47816 137.831101 
L 419.47816 137.563305 
L 418.494819 137.738731 
L 418.494819 137.200345 
L 415.544797 137.729087 
L 415.544797 137.49637 
L 415.020348 137.590986 
L 415.020348 137.20172 
L 414.82368 137.23713 
L 414.82368 136.924664 
L 414.102564 137.054403 
L 414.102564 136.031724 
L 413.315891 136.172352 
L 413.250335 134.950993 
L 412.398106 135.10211 
L 412.398106 134.459537 
L 411.086985 134.611007 
L 411.086985 134.530184 
L 407.940295 135.093171 
L 407.940295 134.808175 
L 406.956954 134.98551 
L 406.956954 134.944664 
L 406.956954 134.74022 
L 405.318053 134.954953 
L 405.318053 134.006278 
L 403.941376 134.254949 
L 403.941376 133.296017 
L 402.236918 133.603292 
L 402.236918 133.393096 
L 400.008012 133.798321 
L 400.008012 132.864899 
L 398.762447 133.091213 
L 398.762447 132.877511 
L 396.664654 133.218344 
L 396.664654 132.139086 
L 395.746869 132.306334 
L 395.746869 132.045358 
L 393.649075 132.386029 
L 393.649075 132.210914 
L 392.927959 132.343784 
L 392.927959 132.168151 
L 390.699053 132.537326 
L 390.699053 131.472755 
L 387.355694 132.005176 
L 387.355694 131.870392 
L 387.290138 131.882681 
L 384.799008 132.353135 
L 384.799008 131.854936 
L 384.012336 132.004091 
L 384.012336 131.822105 
L 383.094551 131.996633 
L 383.094551 131.722594 
L 382.897883 131.76 
L 382.832327 131.222189 
L 381.12787 131.546305 
L 381.12787 131.130385 
L 379.882305 131.368192 
L 379.882305 131.18237 
L 379.423412 131.270242 
L 379.423412 130.570116 
L 376.538946 131.123575 
L 376.538946 130.840578 
L 375.817829 130.98 
L 375.817829 130.695876 
L 368.409996 132.159431 
L 368.409996 131.918177 
L 356.151014 134.437157 
L 356.151014 133.939228 
L 355.626565 134.052994 
L 355.626565 133.401729 
L 352.938767 133.986804 
L 352.938767 133.683097 
L 352.479875 133.783692 
L 352.479875 133.377087 
L 349.988745 133.926108 
L 349.988745 133.052227 
L 348.349844 133.414973 
L 348.349844 132.374421 
L 347.497615 132.562477 
L 347.497615 132.352829 
L 346.710942 132.526977 
L 346.710942 132.105754 
L 343.76092 132.657776 
L 343.76092 132.017896 
L 341.138678 132.555634 
L 341.138678 132.340064 
L 338.319768 132.986201 
L 338.319768 132.768696 
L 335.369746 133.347349 
L 335.369746 133.237524 
L 333.7964 133.609696 
L 333.7964 133.388852 
L 333.403064 133.482326 
L 333.403064 132.816632 
L 328.879696 133.90296 
L 328.879696 132.942141 
L 328.289692 133.084994 
L 328.289692 132.229338 
L 325.66745 132.865802 
L 325.66745 132.171932 
L 323.372988 132.734797 
L 323.372988 132.032471 
L 320.881858 132.649888 
L 320.881858 131.76 
L 320.291854 131.906496 
L 320.291854 131.548075 
L 319.505181 131.743649 
L 319.505181 131.623671 
L 314.588477 132.871683 
L 314.588477 132.628006 
L 311.507343 133.432803 
L 311.507343 132.939619 
L 309.737329 133.346312 
L 309.737329 132.785858 
L 308.55732 133.099979 
L 308.55732 132.597832 
L 307.442868 132.895629 
L 307.442868 131.945209 
L 305.148406 132.560433 
L 305.148406 131.660299 
L 303.771729 132.031327 
L 303.771729 131.381468 
L 298.986137 132.695457 
L 298.986137 132.364365 
L 297.675016 132.732425 
L 297.675016 131.8637 
L 293.217204 133.134489 
L 293.217204 132.930259 
L 290.13607 133.836074 
L 290.13607 133.629474 
L 286.989379 134.578505 
L 286.989379 134.020166 
L 282.66268 135.362183 
L 282.66268 135.149135 
L 280.958223 135.691478 
L 280.958223 135.190043 
L 280.695998 135.273812 
L 280.695998 134.769782 
L 278.860429 135.358883 
L 278.860429 134.337999 
L 275.058178 135.578216 
L 275.058178 135.13221 
L 272.304824 136.05494 
L 272.304824 135.678399 
L 265.159214 138.106988 
L 265.159214 138.029568 
L 265.159214 136.940222 
L 263.585869 137.509746 
L 263.585869 136.085896 
L 262.995865 136.298809 
L 262.995865 136.219021 
L 262.995865 135.979328 
L 261.291407 136.599834 
L 261.291407 136.035078 
L 260.504735 136.323592 
L 260.504735 134.936471 
L 258.931389 135.512542 
L 258.931389 135.016051 
L 258.144717 135.306269 
L 258.144717 134.973096 
L 257.358044 135.264789 
L 257.358044 134.34084 
L 251.720224 136.48625 
L 251.720224 135.707697 
L 249.425762 136.613293 
L 249.425762 136.262375 
L 242.47682 139.146572 
L 241.755704 139.459685 
L 241.755704 139.096493 
L 237.363448 140.964545 
L 237.363448 140.500138 
L 235.658991 141.286017 
L 235.658991 141.192237 
L 235.658991 140.627931 
L 234.67565 141.086255 
L 234.67565 140.896737 
L 229.758946 143.272596 
L 229.758946 142.202015 
L 228.841162 142.658224 
L 228.841162 141.672136 
L 225.497803 143.367117 
L 225.497803 143.165877 
L 223.990014 143.954332 
L 223.990014 143.852889 
L 223.990014 143.038049 
L 223.924458 143.072427 
L 222.154444 144.012516 
L 222.154444 143.0809 
L 221.23666 143.573592 
L 221.23666 142.313975 
L 220.515543 142.701308 
L 220.515543 141.744045 
L 220.253319 141.884683 
L 220.253319 140.594043 
L 219.991095 140.733567 
L 219.991095 140.299535 
L 215.008835 143.0439 
L 215.008835 142.148927 
L 209.371014 145.487207 
L 207.928781 146.389347 
L 207.928781 145.336495 
L 206.683216 146.12566 
L 206.683216 145.532582 
L 202.356517 148.388194 
L 200.783172 149.47875 
L 200.783172 149.233073 
L 200.389835 149.509776 
L 200.389835 148.145787 
L 195.735356 151.532503 
L 194.686459 152.335089 
L 194.686459 150.38693 
L 192.850889 151.808691 
L 192.850889 150.342353 
L 189.441975 153.086582 
L 189.441975 151.292355 
L 186.491952 153.785756 
L 186.491952 152.503424 
L 184.459715 154.292794 
L 184.459715 153.856552 
L 183.86971 154.388571 
L 183.86971 154.095695 
L 180.919688 156.851216 
L 180.919688 155.498614 
L 179.936347 156.44792 
L 179.936347 155.069353 
L 179.346343 155.643563 
L 179.346343 155.488696 
L 179.346343 153.770226 
L 175.675204 157.472719 
L 175.675204 156.825241 
L 172.594069 160.006154 
L 172.594069 159.005259 
L 169.447379 162.665717 
L 168.857374 163.384708 
L 168.857374 162.521442 
L 167.546253 164.150793 
L 167.546253 158.580315 
L 167.021805 159.226667 
L 167.021805 159.0412 
L 165.77624 160.611706 
L 165.77624 158.911493 
L 162.62955 163.087152 
L 161.646209 164.47094 
L 161.646209 162.083883 
L 160.728424 163.394646 
L 160.728424 162.580553 
L 159.548415 164.312113 
L 159.548415 162.438579 
L 158.696186 163.715556 
L 158.696186 163.291546 
L 158.433962 163.690435 
L 158.433962 162.620354 
L 157.909514 163.423379 
L 157.843958 160.229584 
L 157.385065 160.931613 
L 157.385065 160.031274 
L 155.81172 162.507672 
L 155.81172 161.817397 
L 152.99281 166.58243 
L 150.436124 171.337968 
L 150.436124 165.858113 
L 148.600555 169.468475 
L 148.600555 166.022069 
L 147.35499 168.582857 
L 147.35499 158.544 
L 146.043869 161.237647 
L 146.043869 160.006154 
L 145.716088 160.699493 
L 145.716088 159.762395 
L 144.536079 162.332308 
L 144.536079 158.107253 
L 142.044949 163.889549 
L 142.044949 162.855302 
L 139.226039 170.311899 
L 138.636035 172.021765 
L 138.636035 170.191169 
L 136.144905 178.021078 
L 136.144905 174.916187 
L 135.423788 177.379917 
L 133.194882 185.76 
L 133.194882 181.13849 
L 132.801546 182.727981 
L 131.228201 189.554595 
L 128.737071 202.179512 
L 128.737071 198 
L 127.819286 203.302197 
L 127.819286 202.82087 
L 127.819286 195.776918 
L 127.360394 198.56 
L 127.360394 194.235949 
L 125.2626 208.576901 
L 124.803708 212.155668 
L 124.803708 197.92063 
L 124.344815 201.632065 
L 124.344815 200.950244 
L 124.344815 194.554937 
L 122.968138 206.96 
L 122.968138 182.772766 
L 121.919242 193.546047 
L 120.673677 209.265882 
L 120.673677 199.26 
L 119.821448 212.389008 
L 118.641439 235.55469 
L 118.641439 218.16 
L 118.510327 221.245714 
L 117.330318 255.96 
L 117.330318 249.991579 
L 116.740313 274.57791 
L 116.215865 302.729492 
L 115.560305 350.845714 
L 115.560305 343.44 
L 115.560305 315.995294 
L 115.363636 369.36 
L 115.363636 369.36 
L 115.363636 66.96 
L 115.363636 66.96 
" clip-path="url(#pdd86479147)" style="fill: none; stroke: #ff7f0e; stroke-width: 1.5; stroke-linecap: square"/>
   </g>
   <g id="patch_3">
    <path d="M 90 384.48 
L 90 51.84 
" style="fill: none; stroke: #000000; stroke-width: 0.8; stroke-linejoin: miter; stroke-linecap: square"/>
   </g>
   <g id="patch_4">
    <path d="M 648 384.48 
L 648 51.84 
" style="fill: none; stroke: #000000; stroke-width: 0.8; stroke-linejoin: miter; stroke-linecap: square"/>
   </g>
   <g id="patch_5">
    <path d="M 90 384.48 
L 648 384.48 
" style="fill: none; stroke: #000000; stroke-width: 0.8; stroke-linejoin: miter; stroke-linecap: square"/>
   </g>
   <g id="patch_6">
    <path d="M 90 51.84 
L 648 51.84 
" style="fill: none; stroke: #000000; stroke-width: 0.8; stroke-linejoin: miter; stroke-linecap: square"/>
   </g>
   <g id="text_15">
    <!-- Precision-Recall Curves -->
    <g transform="translate(299.431875 32.402625) scale(0.12 -0.12)">
     <defs>
      <path id="DejaVuSans-2d" d="M 313 2009 
L 1997 2009 
L 1997 1497 
L 313 1497 
L 313 2009 
z
" transform="scale(0.015625)"/>
      <path id="DejaVuSans-20" transform="scale(0.015625)"/>
      <path id="DejaVuSans-43" d="M 4122 4306 
L 4122 3641 
Q 3803 3938 3442 4084 
Q 3081 4231 2675 4231 
Q 1875 4231 1450 3742 
Q 1025 3253 1025 2328 
Q 1025 1406 1450 917 
Q 1875 428 2675 428 
Q 3081 428 3442 575 
Q 3803 722 4122 1019 
L 4122 359 
Q 3791 134 3420 21 
Q 3050 -91 2638 -91 
Q 1578 -91 968 557 
Q 359 1206 359 2328 
Q 359 3453 968 4101 
Q 1578 4750 2638 4750 
Q 3056 4750 3426 4639 
Q 3797 4528 4122 4306 
z
" transform="scale(0.015625)"/>
      <path id="DejaVuSans-75" d="M 544 1381 
L 544 3500 
L 1119 3500 
L 1119 1403 
Q 1119 906 1312 657 
Q 1506 409 1894 409 
Q 2359 409 2629 706 
Q 2900 1003 2900 1516 
L 2900 3500 
L 3475 3500 
L 3475 0 
L 2900 0 
L 2900 538 
Q 2691 219 2414 64 
Q 2138 -91 1772 -91 
Q 1169 -91 856 284 
Q 544 659 544 1381 
z
M 1991 3584 
L 1991 3584 
z
" transform="scale(0.015625)"/>
      <path id="DejaVuSans-76" d="M 191 3500 
L 800 3500 
L 1894 563 
L 2988 3500 
L 3597 3500 
L 2284 0 
L 1503 0 
L 191 3500 
z
" transform="scale(0.015625)"/>
     </defs>
     <use xlink:href="#DejaVuSans-50"/>
     <use xlink:href="#DejaVuSans-72" transform="translate(58.552734 0)"/>
     <use xlink:href="#DejaVuSans-65" transform="translate(97.416016 0)"/>
     <use xlink:href="#DejaVuSans-63" transform="translate(158.939453 0)"/>
     <use xlink:href="#DejaVuSans-69" transform="translate(213.919922 0)"/>
     <use xlink:href="#DejaVuSans-73" transform="translate(241.703125 0)"/>
     <use xlink:href="#DejaVuSans-69" transform="translate(293.802734 0)"/>
     <use xlink:href="#DejaVuSans-6f" transform="translate(321.585938 0)"/>
     <use xlink:href="#DejaVuSans-6e" transform="translate(382.767578 0)"/>
     <use xlink:href="#DejaVuSans-2d" transform="translate(446.146484 0)"/>
     <use xlink:href="#DejaVuSans-52" transform="translate(482.230469 0)"/>
     <use xlink:href="#DejaVuSans-65" transform="translate(547.212891 0)"/>
     <use xlink:href="#DejaVuSans-63" transform="translate(608.736328 0)"/>
     <use xlink:href="#DejaVuSans-61" transform="translate(663.716797 0)"/>
     <use xlink:href="#DejaVuSans-6c" transform="translate(724.996094 0)"/>
     <use xlink:href="#DejaVuSans-6c" transform="translate(752.779297 0)"/>
     <use xlink:href="#DejaVuSans-20" transform="translate(780.5625 0)"/>
     <use xlink:href="#DejaVuSans-43" transform="translate(812.349609 0)"/>
     <use xlink:href="#DejaVuSans-75" transform="translate(882.173828 0)"/>
     <use xlink:href="#DejaVuSans-72" transform="translate(945.552734 0)"/>
     <use xlink:href="#DejaVuSans-76" transform="translate(986.666016 0)"/>
     <use xlink:href="#DejaVuSans-65" transform="translate(1045.845703 0)"/>
     <use xlink:href="#DejaVuSans-73" transform="translate(1107.369141 0)"/>
    </g>
    <!-- Mean AUPRC: 0.721, Mean Top-k: 0.743 -->
    <g transform="translate(250.53 45.84) scale(0.12 -0.12)">
     <defs>
      <path id="DejaVuSans-4d" d="M 628 4666 
L 1569 4666 
L 2759 1491 
L 3956 4666 
L 4897 4666 
L 4897 0 
L 4281 0 
L 4281 4097 
L 3078 897 
L 2444 897 
L 1241 4097 
L 1241 0 
L 628 0 
L 628 4666 
z
" transform="scale(0.015625)"/>
      <path id="DejaVuSans-41" d="M 2188 4044 
L 1331 1722 
L 3047 1722 
L 2188 4044 
z
M 1831 4666 
L 2547 4666 
L 4325 0 
L 3669 0 
L 3244 1197 
L 1141 1197 
L 716 0 
L 50 0 
L 1831 4666 
z
" transform="scale(0.015625)"/>
      <path id="DejaVuSans-55" d="M 556 4666 
L 1191 4666 
L 1191 1831 
Q 1191 1081 1462 751 
Q 1734 422 2344 422 
Q 2950 422 3222 751 
Q 3494 1081 3494 1831 
L 3494 4666 
L 4128 4666 
L 4128 1753 
Q 4128 841 3676 375 
Q 3225 -91 2344 -91 
Q 1459 -91 1007 375 
Q 556 841 556 1753 
L 556 4666 
z
" transform="scale(0.015625)"/>
      <path id="DejaVuSans-3a" d="M 750 794 
L 1409 794 
L 1409 0 
L 750 0 
L 750 794 
z
M 750 3309 
L 1409 3309 
L 1409 2516 
L 750 2516 
L 750 3309 
z
" transform="scale(0.015625)"/>
      <path id="DejaVuSans-37" d="M 525 4666 
L 3525 4666 
L 3525 4397 
L 1831 0 
L 1172 0 
L 2766 4134 
L 525 4134 
L 525 4666 
z
" transform="scale(0.015625)"/>
      <path id="DejaVuSans-2c" d="M 750 794 
L 1409 794 
L 1409 256 
L 897 -744 
L 494 -744 
L 750 256 
L 750 794 
z
" transform="scale(0.015625)"/>
      <path id="DejaVuSans-54" d="M -19 4666 
L 3928 4666 
L 3928 4134 
L 2272 4134 
L 2272 0 
L 1638 0 
L 1638 4134 
L -19 4134 
L -19 4666 
z
" transform="scale(0.015625)"/>
      <path id="DejaVuSans-70" d="M 1159 525 
L 1159 -1331 
L 581 -1331 
L 581 3500 
L 1159 3500 
L 1159 2969 
Q 1341 3281 1617 3432 
Q 1894 3584 2278 3584 
Q 2916 3584 3314 3078 
Q 3713 2572 3713 1747 
Q 3713 922 3314 415 
Q 2916 -91 2278 -91 
Q 1894 -91 1617 61 
Q 1341 213 1159 525 
z
M 3116 1747 
Q 3116 2381 2855 2742 
Q 2594 3103 2138 3103 
Q 1681 3103 1420 2742 
Q 1159 2381 1159 1747 
Q 1159 1113 1420 752 
Q 1681 391 2138 391 
Q 2594 391 2855 752 
Q 3116 1113 3116 1747 
z
" transform="scale(0.015625)"/>
      <path id="DejaVuSans-6b" d="M 581 4863 
L 1159 4863 
L 1159 1991 
L 2875 3500 
L 3609 3500 
L 1753 1863 
L 3688 0 
L 2938 0 
L 1159 1709 
L 1159 0 
L 581 0 
L 581 4863 
z
" transform="scale(0.015625)"/>
      <path id="DejaVuSans-33" d="M 2597 2516 
Q 3050 2419 3304 2112 
Q 3559 1806 3559 1356 
Q 3559 666 3084 287 
Q 2609 -91 1734 -91 
Q 1441 -91 1130 -33 
Q 819 25 488 141 
L 488 750 
Q 750 597 1062 519 
Q 1375 441 1716 441 
Q 2309 441 2620 675 
Q 2931 909 2931 1356 
Q 2931 1769 2642 2001 
Q 2353 2234 1838 2234 
L 1294 2234 
L 1294 2753 
L 1863 2753 
Q 2328 2753 2575 2939 
Q 2822 3125 2822 3475 
Q 2822 3834 2567 4026 
Q 2313 4219 1838 4219 
Q 1578 4219 1281 4162 
Q 984 4106 628 3988 
L 628 4550 
Q 988 4650 1302 4700 
Q 1616 4750 1894 4750 
Q 2613 4750 3031 4423 
Q 3450 4097 3450 3541 
Q 3450 3153 3228 2886 
Q 3006 2619 2597 2516 
z
" transform="scale(0.015625)"/>
     </defs>
     <use xlink:href="#DejaVuSans-4d"/>
     <use xlink:href="#DejaVuSans-65" transform="translate(86.279297 0)"/>
     <use xlink:href="#DejaVuSans-61" transform="translate(147.802734 0)"/>
     <use xlink:href="#DejaVuSans-6e" transform="translate(209.082031 0)"/>
     <use xlink:href="#DejaVuSans-20" transform="translate(272.460938 0)"/>
     <use xlink:href="#DejaVuSans-41" transform="translate(304.248047 0)"/>
     <use xlink:href="#DejaVuSans-55" transform="translate(372.65625 0)"/>
     <use xlink:href="#DejaVuSans-50" transform="translate(445.849609 0)"/>
     <use xlink:href="#DejaVuSans-52" transform="translate(506.152344 0)"/>
     <use xlink:href="#DejaVuSans-43" transform="translate(570.634766 0)"/>
     <use xlink:href="#DejaVuSans-3a" transform="translate(640.458984 0)"/>
     <use xlink:href="#DejaVuSans-20" transform="translate(674.150391 0)"/>
     <use xlink:href="#DejaVuSans-30" transform="translate(705.9375 0)"/>
     <use xlink:href="#DejaVuSans-2e" transform="translate(769.560547 0)"/>
     <use xlink:href="#DejaVuSans-37" transform="translate(801.347656 0)"/>
     <use xlink:href="#DejaVuSans-32" transform="translate(864.970703 0)"/>
     <use xlink:href="#DejaVuSans-31" transform="translate(928.59375 0)"/>
     <use xlink:href="#DejaVuSans-2c" transform="translate(992.216797 0)"/>
     <use xlink:href="#DejaVuSans-20" transform="translate(1024.003906 0)"/>
     <use xlink:href="#DejaVuSans-4d" transform="translate(1055.791016 0)"/>
     <use xlink:href="#DejaVuSans-65" transform="translate(1142.070312 0)"/>
     <use xlink:href="#DejaVuSans-61" transform="translate(1203.59375 0)"/>
     <use xlink:href="#DejaVuSans-6e" transform="translate(1264.873047 0)"/>
     <use xlink:href="#DejaVuSans-20" transform="translate(1328.251953 0)"/>
     <use xlink:href="#DejaVuSans-54" transform="translate(1360.039062 0)"/>
     <use xlink:href="#DejaVuSans-6f" transform="translate(1404.123047 0)"/>
     <use xlink:href="#DejaVuSans-70" transform="translate(1465.304688 0)"/>
     <use xlink:href="#DejaVuSans-2d" transform="translate(1528.78125 0)"/>
     <use xlink:href="#DejaVuSans-6b" transform="translate(1564.865234 0)"/>
     <use xlink:href="#DejaVuSans-3a" transform="translate(1622.775391 0)"/>
     <use xlink:href="#DejaVuSans-20" transform="translate(1656.466797 0)"/>
     <use xlink:href="#DejaVuSans-30" transform="translate(1688.253906 0)"/>
     <use xlink:href="#DejaVuSans-2e" transform="translate(1751.876953 0)"/>
     <use xlink:href="#DejaVuSans-37" transform="translate(1783.664062 0)"/>
     <use xlink:href="#DejaVuSans-34" transform="translate(1847.287109 0)"/>
     <use xlink:href="#DejaVuSans-33" transform="translate(1910.910156 0)"/>
    </g>
   </g>
   <g id="legend_1">
    <g id="patch_7">
     <path d="M 483.076563 89.19625 
L 641 89.19625 
Q 643 89.19625 643 87.19625 
L 643 58.84 
Q 643 56.84 641 56.84 
L 483.076563 56.84 
Q 481.076563 56.84 481.076563 58.84 
L 481.076563 87.19625 
Q 481.076563 89.19625 483.076563 89.19625 
z
" style="fill: #ffffff; opacity: 0.8; stroke: #cccccc; stroke-linejoin: miter"/>
    </g>
    <g id="line2d_27">
     <path d="M 485.076563 64.938437 
L 495.076563 64.938437 
L 505.076563 64.938437 
" style="fill: none; stroke: #1f77b4; stroke-width: 1.5; stroke-linecap: square"/>
    </g>
    <g id="text_16">
     <!-- Acceptor (AUPRC=0.747) -->
     <g transform="translate(513.076563 68.438437) scale(0.1 -0.1)">
      <defs>
       <path id="DejaVuSans-74" d="M 1172 4494 
L 1172 3500 
L 2356 3500 
L 2356 3053 
L 1172 3053 
L 1172 1153 
Q 1172 725 1289 603 
Q 1406 481 1766 481 
L 2356 481 
L 2356 0 
L 1766 0 
Q 1100 0 847 248 
Q 594 497 594 1153 
L 594 3053 
L 172 3053 
L 172 3500 
L 594 3500 
L 594 4494 
L 1172 4494 
z
" transform="scale(0.015625)"/>
       <path id="DejaVuSans-28" d="M 1984 4856 
Q 1566 4138 1362 3434 
Q 1159 2731 1159 2009 
Q 1159 1288 1364 580 
Q 1569 -128 1984 -844 
L 1484 -844 
Q 1016 -109 783 600 
Q 550 1309 550 2009 
Q 550 2706 781 3412 
Q 1013 4119 1484 4856 
L 1984 4856 
z
" transform="scale(0.015625)"/>
       <path id="DejaVuSans-3d" d="M 678 2906 
L 4684 2906 
L 4684 2381 
L 678 2381 
L 678 2906 
z
M 678 1631 
L 4684 1631 
L 4684 1100 
L 678 1100 
L 678 1631 
z
" transform="scale(0.015625)"/>
       <path id="DejaVuSans-29" d="M 513 4856 
L 1013 4856 
Q 1481 4119 1714 3412 
Q 1947 2706 1947 2009 
Q 1947 1309 1714 600 
Q 1481 -109 1013 -844 
L 513 -844 
Q 928 -128 1133 580 
Q 1338 1288 1338 2009 
Q 1338 2731 1133 3434 
Q 928 4138 513 4856 
z
" transform="scale(0.015625)"/>
      </defs>
      <use xlink:href="#DejaVuSans-41"/>
      <use xlink:href="#DejaVuSans-63" transform="translate(66.658203 0)"/>
      <use xlink:href="#DejaVuSans-63" transform="translate(121.638672 0)"/>
      <use xlink:href="#DejaVuSans-65" transform="translate(176.619141 0)"/>
      <use xlink:href="#DejaVuSans-70" transform="translate(238.142578 0)"/>
      <use xlink:href="#DejaVuSans-74" transform="translate(301.619141 0)"/>
      <use xlink:href="#DejaVuSans-6f" transform="translate(340.828125 0)"/>
      <use xlink:href="#DejaVuSans-72" transform="translate(402.009766 0)"/>
      <use xlink:href="#DejaVuSans-20" transform="translate(443.123047 0)"/>
      <use xlink:href="#DejaVuSans-28" transform="translate(474.910156 0)"/>
      <use xlink:href="#DejaVuSans-41" transform="translate(513.923828 0)"/>
      <use xlink:href="#DejaVuSans-55" transform="translate(582.332031 0)"/>
      <use xlink:href="#DejaVuSans-50" transform="translate(655.525391 0)"/>
      <use xlink:href="#DejaVuSans-52" transform="translate(715.828125 0)"/>
      <use xlink:href="#DejaVuSans-43" transform="translate(780.310547 0)"/>
      <use xlink:href="#DejaVuSans-3d" transform="translate(850.134766 0)"/>
      <use xlink:href="#DejaVuSans-30" transform="translate(933.923828 0)"/>
      <use xlink:href="#DejaVuSans-2e" transform="translate(997.546875 0)"/>
      <use xlink:href="#DejaVuSans-37" transform="translate(1029.333984 0)"/>
      <use xlink:href="#DejaVuSans-34" transform="translate(1092.957031 0)"/>
      <use xlink:href="#DejaVuSans-37" transform="translate(1156.580078 0)"/>
      <use xlink:href="#DejaVuSans-29" transform="translate(1220.203125 0)"/>
     </g>
    </g>
    <g id="line2d_28">
     <path d="M 485.076563 79.616562 
L 495.076563 79.616562 
L 505.076563 79.616562 
" style="fill: none; stroke: #ff7f0e; stroke-width: 1.5; stroke-linecap: square"/>
    </g>
    <g id="text_17">
     <!-- Donor (AUPRC=0.695) -->
     <g transform="translate(513.076563 83.116562) scale(0.1 -0.1)">
      <defs>
       <path id="DejaVuSans-44" d="M 1259 4147 
L 1259 519 
L 2022 519 
Q 2988 519 3436 956 
Q 3884 1394 3884 2338 
Q 3884 3275 3436 3711 
Q 2988 4147 2022 4147 
L 1259 4147 
z
M 628 4666 
L 1925 4666 
Q 3281 4666 3915 4102 
Q 4550 3538 4550 2338 
Q 4550 1131 3912 565 
Q 3275 0 1925 0 
L 628 0 
L 628 4666 
z
" transform="scale(0.015625)"/>
       <path id="DejaVuSans-39" d="M 703 97 
L 703 672 
Q 941 559 1184 500 
Q 1428 441 1663 441 
Q 2288 441 2617 861 
Q 2947 1281 2994 2138 
Q 2813 1869 2534 1725 
Q 2256 1581 1919 1581 
Q 1219 1581 811 2004 
Q 403 2428 403 3163 
Q 403 3881 828 4315 
Q 1253 4750 1959 4750 
Q 2769 4750 3195 4129 
Q 3622 3509 3622 2328 
Q 3622 1225 3098 567 
Q 2575 -91 1691 -91 
Q 1453 -91 1209 -44 
Q 966 3 703 97 
z
M 1959 2075 
Q 2384 2075 2632 2365 
Q 2881 2656 2881 3163 
Q 2881 3666 2632 3958 
Q 2384 4250 1959 4250 
Q 1534 4250 1286 3958 
Q 1038 3666 1038 3163 
Q 1038 2656 1286 2365 
Q 1534 2075 1959 2075 
z
" transform="scale(0.015625)"/>
       <path id="DejaVuSans-35" d="M 691 4666 
L 3169 4666 
L 3169 4134 
L 1269 4134 
L 1269 2991 
Q 1406 3038 1543 3061 
Q 1681 3084 1819 3084 
Q 2600 3084 3056 2656 
Q 3513 2228 3513 1497 
Q 3513 744 3044 326 
Q 2575 -91 1722 -91 
Q 1428 -91 1123 -41 
Q 819 9 494 109 
L 494 744 
Q 775 591 1075 516 
Q 1375 441 1709 441 
Q 2250 441 2565 725 
Q 2881 1009 2881 1497 
Q 2881 1984 2565 2268 
Q 2250 2553 1709 2553 
Q 1456 2553 1204 2497 
Q 953 2441 691 2322 
L 691 4666 
z
" transform="scale(0.015625)"/>
      </defs>
      <use xlink:href="#DejaVuSans-44"/>
      <use xlink:href="#DejaVuSans-6f" transform="translate(77.001953 0)"/>
      <use xlink:href="#DejaVuSans-6e" transform="translate(138.183594 0)"/>
      <use xlink:href="#DejaVuSans-6f" transform="translate(201.5625 0)"/>
      <use xlink:href="#DejaVuSans-72" transform="translate(262.744141 0)"/>
      <use xlink:href="#DejaVuSans-20" transform="translate(303.857422 0)"/>
      <use xlink:href="#DejaVuSans-28" transform="translate(335.644531 0)"/>
      <use xlink:href="#DejaVuSans-41" transform="translate(374.658203 0)"/>
      <use xlink:href="#DejaVuSans-55" transform="translate(443.066406 0)"/>
      <use xlink:href="#DejaVuSans-50" transform="translate(516.259766 0)"/>
      <use xlink:href="#DejaVuSans-52" transform="translate(576.5625 0)"/>
      <use xlink:href="#DejaVuSans-43" transform="translate(641.044922 0)"/>
      <use xlink:href="#DejaVuSans-3d" transform="translate(710.869141 0)"/>
      <use xlink:href="#DejaVuSans-30" transform="translate(794.658203 0)"/>
      <use xlink:href="#DejaVuSans-2e" transform="translate(858.28125 0)"/>
      <use xlink:href="#DejaVuSans-36" transform="translate(890.068359 0)"/>
      <use xlink:href="#DejaVuSans-39" transform="translate(953.691406 0)"/>
      <use xlink:href="#DejaVuSans-35" transform="translate(1017.314453 0)"/>
      <use xlink:href="#DejaVuSans-29" transform="translate(1080.9375 0)"/>
     </g>
    </g>
   </g>
  </g>
 </g>
 <defs>
  <clipPath id="pdd86479147">
   <rect x="90" y="51.84" width="558" height="332.64"/>
  </clipPath>
 </defs>
</svg>
