<?xml version="1.0" encoding="utf-8" standalone="no"?>
<!DOCTYPE svg PUBLIC "-//W3C//DTD SVG 1.1//EN"
  "http://www.w3.org/Graphics/SVG/1.1/DTD/svg11.dtd">
<svg xmlns:xlink="http://www.w3.org/1999/xlink" width="720pt" height="432pt" viewBox="0 0 720 432" xmlns="http://www.w3.org/2000/svg" version="1.1">
 <metadata>
  <rdf:RDF xmlns:dc="http://purl.org/dc/elements/1.1/" xmlns:cc="http://creativecommons.org/ns#" xmlns:rdf="http://www.w3.org/1999/02/22-rdf-syntax-ns#">
   <cc:Work>
    <dc:type rdf:resource="http://purl.org/dc/dcmitype/StillImage"/>
    <dc:date>2025-04-20T23:18:08.623582</dc:date>
    <dc:format>image/svg+xml</dc:format>
    <dc:creator>
     <cc:Agent>
      <dc:title>Matplotlib v3.10.1, https://matplotlib.org/</dc:title>
     </cc:Agent>
    </dc:creator>
   </cc:Work>
  </rdf:RDF>
 </metadata>
 <defs>
  <style type="text/css">*{stroke-linejoin: round; stroke-linecap: butt}</style>
 </defs>
 <g id="figure_1">
  <g id="patch_1">
   <path d="M 0 432 
L 720 432 
L 720 0 
L 0 0 
z
" style="fill: #ffffff"/>
  </g>
  <g id="axes_1">
   <g id="patch_2">
    <path d="M 90 384.48 
L 648 384.48 
L 648 51.84 
L 90 51.84 
z
" style="fill: #ffffff"/>
   </g>
   <g id="matplotlib.axis_1">
    <g id="xtick_1">
     <g id="line2d_1">
      <path d="M 115.363636 384.48 
L 115.363636 51.84 
" clip-path="url(#p66e4930424)" style="fill: none; stroke: #b0b0b0; stroke-width: 0.8; stroke-linecap: square"/>
     </g>
     <g id="line2d_2">
      <defs>
       <path id="mddfcc36b70" d="M 0 0 
L 0 3.5 
" style="stroke: #000000; stroke-width: 0.8"/>
      </defs>
      <g>
       <use xlink:href="#mddfcc36b70" x="115.363636" y="384.48" style="stroke: #000000; stroke-width: 0.8"/>
      </g>
     </g>
     <g id="text_1">
      <!-- 0.0 -->
      <g transform="translate(107.412074 399.078438) scale(0.1 -0.1)">
       <defs>
        <path id="DejaVuSans-30" d="M 2034 4250 
Q 1547 4250 1301 3770 
Q 1056 3291 1056 2328 
Q 1056 1369 1301 889 
Q 1547 409 2034 409 
Q 2525 409 2770 889 
Q 3016 1369 3016 2328 
Q 3016 3291 2770 3770 
Q 2525 4250 2034 4250 
z
M 2034 4750 
Q 2819 4750 3233 4129 
Q 3647 3509 3647 2328 
Q 3647 1150 3233 529 
Q 2819 -91 2034 -91 
Q 1250 -91 836 529 
Q 422 1150 422 2328 
Q 422 3509 836 4129 
Q 1250 4750 2034 4750 
z
" transform="scale(0.015625)"/>
        <path id="DejaVuSans-2e" d="M 684 794 
L 1344 794 
L 1344 0 
L 684 0 
L 684 794 
z
" transform="scale(0.015625)"/>
       </defs>
       <use xlink:href="#DejaVuSans-30"/>
       <use xlink:href="#DejaVuSans-2e" transform="translate(63.623047 0)"/>
       <use xlink:href="#DejaVuSans-30" transform="translate(95.410156 0)"/>
      </g>
     </g>
    </g>
    <g id="xtick_2">
     <g id="line2d_3">
      <path d="M 216.818182 384.48 
L 216.818182 51.84 
" clip-path="url(#p66e4930424)" style="fill: none; stroke: #b0b0b0; stroke-width: 0.8; stroke-linecap: square"/>
     </g>
     <g id="line2d_4">
      <g>
       <use xlink:href="#mddfcc36b70" x="216.818182" y="384.48" style="stroke: #000000; stroke-width: 0.8"/>
      </g>
     </g>
     <g id="text_2">
      <!-- 0.2 -->
      <g transform="translate(208.866619 399.078438) scale(0.1 -0.1)">
       <defs>
        <path id="DejaVuSans-32" d="M 1228 531 
L 3431 531 
L 3431 0 
L 469 0 
L 469 531 
Q 828 903 1448 1529 
Q 2069 2156 2228 2338 
Q 2531 2678 2651 2914 
Q 2772 3150 2772 3378 
Q 2772 3750 2511 3984 
Q 2250 4219 1831 4219 
Q 1534 4219 1204 4116 
Q 875 4013 500 3803 
L 500 4441 
Q 881 4594 1212 4672 
Q 1544 4750 1819 4750 
Q 2544 4750 2975 4387 
Q 3406 4025 3406 3419 
Q 3406 3131 3298 2873 
Q 3191 2616 2906 2266 
Q 2828 2175 2409 1742 
Q 1991 1309 1228 531 
z
" transform="scale(0.015625)"/>
       </defs>
       <use xlink:href="#DejaVuSans-30"/>
       <use xlink:href="#DejaVuSans-2e" transform="translate(63.623047 0)"/>
       <use xlink:href="#DejaVuSans-32" transform="translate(95.410156 0)"/>
      </g>
     </g>
    </g>
    <g id="xtick_3">
     <g id="line2d_5">
      <path d="M 318.272727 384.48 
L 318.272727 51.84 
" clip-path="url(#p66e4930424)" style="fill: none; stroke: #b0b0b0; stroke-width: 0.8; stroke-linecap: square"/>
     </g>
     <g id="line2d_6">
      <g>
       <use xlink:href="#mddfcc36b70" x="318.272727" y="384.48" style="stroke: #000000; stroke-width: 0.8"/>
      </g>
     </g>
     <g id="text_3">
      <!-- 0.4 -->
      <g transform="translate(310.321165 399.078438) scale(0.1 -0.1)">
       <defs>
        <path id="DejaVuSans-34" d="M 2419 4116 
L 825 1625 
L 2419 1625 
L 2419 4116 
z
M 2253 4666 
L 3047 4666 
L 3047 1625 
L 3713 1625 
L 3713 1100 
L 3047 1100 
L 3047 0 
L 2419 0 
L 2419 1100 
L 313 1100 
L 313 1709 
L 2253 4666 
z
" transform="scale(0.015625)"/>
       </defs>
       <use xlink:href="#DejaVuSans-30"/>
       <use xlink:href="#DejaVuSans-2e" transform="translate(63.623047 0)"/>
       <use xlink:href="#DejaVuSans-34" transform="translate(95.410156 0)"/>
      </g>
     </g>
    </g>
    <g id="xtick_4">
     <g id="line2d_7">
      <path d="M 419.727273 384.48 
L 419.727273 51.84 
" clip-path="url(#p66e4930424)" style="fill: none; stroke: #b0b0b0; stroke-width: 0.8; stroke-linecap: square"/>
     </g>
     <g id="line2d_8">
      <g>
       <use xlink:href="#mddfcc36b70" x="419.727273" y="384.48" style="stroke: #000000; stroke-width: 0.8"/>
      </g>
     </g>
     <g id="text_4">
      <!-- 0.6 -->
      <g transform="translate(411.77571 399.078438) scale(0.1 -0.1)">
       <defs>
        <path id="DejaVuSans-36" d="M 2113 2584 
Q 1688 2584 1439 2293 
Q 1191 2003 1191 1497 
Q 1191 994 1439 701 
Q 1688 409 2113 409 
Q 2538 409 2786 701 
Q 3034 994 3034 1497 
Q 3034 2003 2786 2293 
Q 2538 2584 2113 2584 
z
M 3366 4563 
L 3366 3988 
Q 3128 4100 2886 4159 
Q 2644 4219 2406 4219 
Q 1781 4219 1451 3797 
Q 1122 3375 1075 2522 
Q 1259 2794 1537 2939 
Q 1816 3084 2150 3084 
Q 2853 3084 3261 2657 
Q 3669 2231 3669 1497 
Q 3669 778 3244 343 
Q 2819 -91 2113 -91 
Q 1303 -91 875 529 
Q 447 1150 447 2328 
Q 447 3434 972 4092 
Q 1497 4750 2381 4750 
Q 2619 4750 2861 4703 
Q 3103 4656 3366 4563 
z
" transform="scale(0.015625)"/>
       </defs>
       <use xlink:href="#DejaVuSans-30"/>
       <use xlink:href="#DejaVuSans-2e" transform="translate(63.623047 0)"/>
       <use xlink:href="#DejaVuSans-36" transform="translate(95.410156 0)"/>
      </g>
     </g>
    </g>
    <g id="xtick_5">
     <g id="line2d_9">
      <path d="M 521.181818 384.48 
L 521.181818 51.84 
" clip-path="url(#p66e4930424)" style="fill: none; stroke: #b0b0b0; stroke-width: 0.8; stroke-linecap: square"/>
     </g>
     <g id="line2d_10">
      <g>
       <use xlink:href="#mddfcc36b70" x="521.181818" y="384.48" style="stroke: #000000; stroke-width: 0.8"/>
      </g>
     </g>
     <g id="text_5">
      <!-- 0.8 -->
      <g transform="translate(513.230256 399.078438) scale(0.1 -0.1)">
       <defs>
        <path id="DejaVuSans-38" d="M 2034 2216 
Q 1584 2216 1326 1975 
Q 1069 1734 1069 1313 
Q 1069 891 1326 650 
Q 1584 409 2034 409 
Q 2484 409 2743 651 
Q 3003 894 3003 1313 
Q 3003 1734 2745 1975 
Q 2488 2216 2034 2216 
z
M 1403 2484 
Q 997 2584 770 2862 
Q 544 3141 544 3541 
Q 544 4100 942 4425 
Q 1341 4750 2034 4750 
Q 2731 4750 3128 4425 
Q 3525 4100 3525 3541 
Q 3525 3141 3298 2862 
Q 3072 2584 2669 2484 
Q 3125 2378 3379 2068 
Q 3634 1759 3634 1313 
Q 3634 634 3220 271 
Q 2806 -91 2034 -91 
Q 1263 -91 848 271 
Q 434 634 434 1313 
Q 434 1759 690 2068 
Q 947 2378 1403 2484 
z
M 1172 3481 
Q 1172 3119 1398 2916 
Q 1625 2713 2034 2713 
Q 2441 2713 2670 2916 
Q 2900 3119 2900 3481 
Q 2900 3844 2670 4047 
Q 2441 4250 2034 4250 
Q 1625 4250 1398 4047 
Q 1172 3844 1172 3481 
z
" transform="scale(0.015625)"/>
       </defs>
       <use xlink:href="#DejaVuSans-30"/>
       <use xlink:href="#DejaVuSans-2e" transform="translate(63.623047 0)"/>
       <use xlink:href="#DejaVuSans-38" transform="translate(95.410156 0)"/>
      </g>
     </g>
    </g>
    <g id="xtick_6">
     <g id="line2d_11">
      <path d="M 622.636364 384.48 
L 622.636364 51.84 
" clip-path="url(#p66e4930424)" style="fill: none; stroke: #b0b0b0; stroke-width: 0.8; stroke-linecap: square"/>
     </g>
     <g id="line2d_12">
      <g>
       <use xlink:href="#mddfcc36b70" x="622.636364" y="384.48" style="stroke: #000000; stroke-width: 0.8"/>
      </g>
     </g>
     <g id="text_6">
      <!-- 1.0 -->
      <g transform="translate(614.684801 399.078438) scale(0.1 -0.1)">
       <defs>
        <path id="DejaVuSans-31" d="M 794 531 
L 1825 531 
L 1825 4091 
L 703 3866 
L 703 4441 
L 1819 4666 
L 2450 4666 
L 2450 531 
L 3481 531 
L 3481 0 
L 794 0 
L 794 531 
z
" transform="scale(0.015625)"/>
       </defs>
       <use xlink:href="#DejaVuSans-31"/>
       <use xlink:href="#DejaVuSans-2e" transform="translate(63.623047 0)"/>
       <use xlink:href="#DejaVuSans-30" transform="translate(95.410156 0)"/>
      </g>
     </g>
    </g>
    <g id="text_7">
     <!-- Recall -->
     <g transform="translate(354.082812 412.756563) scale(0.1 -0.1)">
      <defs>
       <path id="DejaVuSans-52" d="M 2841 2188 
Q 3044 2119 3236 1894 
Q 3428 1669 3622 1275 
L 4263 0 
L 3584 0 
L 2988 1197 
Q 2756 1666 2539 1819 
Q 2322 1972 1947 1972 
L 1259 1972 
L 1259 0 
L 628 0 
L 628 4666 
L 2053 4666 
Q 2853 4666 3247 4331 
Q 3641 3997 3641 3322 
Q 3641 2881 3436 2590 
Q 3231 2300 2841 2188 
z
M 1259 4147 
L 1259 2491 
L 2053 2491 
Q 2509 2491 2742 2702 
Q 2975 2913 2975 3322 
Q 2975 3731 2742 3939 
Q 2509 4147 2053 4147 
L 1259 4147 
z
" transform="scale(0.015625)"/>
       <path id="DejaVuSans-65" d="M 3597 1894 
L 3597 1613 
L 953 1613 
Q 991 1019 1311 708 
Q 1631 397 2203 397 
Q 2534 397 2845 478 
Q 3156 559 3463 722 
L 3463 178 
Q 3153 47 2828 -22 
Q 2503 -91 2169 -91 
Q 1331 -91 842 396 
Q 353 884 353 1716 
Q 353 2575 817 3079 
Q 1281 3584 2069 3584 
Q 2775 3584 3186 3129 
Q 3597 2675 3597 1894 
z
M 3022 2063 
Q 3016 2534 2758 2815 
Q 2500 3097 2075 3097 
Q 1594 3097 1305 2825 
Q 1016 2553 972 2059 
L 3022 2063 
z
" transform="scale(0.015625)"/>
       <path id="DejaVuSans-63" d="M 3122 3366 
L 3122 2828 
Q 2878 2963 2633 3030 
Q 2388 3097 2138 3097 
Q 1578 3097 1268 2742 
Q 959 2388 959 1747 
Q 959 1106 1268 751 
Q 1578 397 2138 397 
Q 2388 397 2633 464 
Q 2878 531 3122 666 
L 3122 134 
Q 2881 22 2623 -34 
Q 2366 -91 2075 -91 
Q 1284 -91 818 406 
Q 353 903 353 1747 
Q 353 2603 823 3093 
Q 1294 3584 2113 3584 
Q 2378 3584 2631 3529 
Q 2884 3475 3122 3366 
z
" transform="scale(0.015625)"/>
       <path id="DejaVuSans-61" d="M 2194 1759 
Q 1497 1759 1228 1600 
Q 959 1441 959 1056 
Q 959 750 1161 570 
Q 1363 391 1709 391 
Q 2188 391 2477 730 
Q 2766 1069 2766 1631 
L 2766 1759 
L 2194 1759 
z
M 3341 1997 
L 3341 0 
L 2766 0 
L 2766 531 
Q 2569 213 2275 61 
Q 1981 -91 1556 -91 
Q 1019 -91 701 211 
Q 384 513 384 1019 
Q 384 1609 779 1909 
Q 1175 2209 1959 2209 
L 2766 2209 
L 2766 2266 
Q 2766 2663 2505 2880 
Q 2244 3097 1772 3097 
Q 1472 3097 1187 3025 
Q 903 2953 641 2809 
L 641 3341 
Q 956 3463 1253 3523 
Q 1550 3584 1831 3584 
Q 2591 3584 2966 3190 
Q 3341 2797 3341 1997 
z
" transform="scale(0.015625)"/>
       <path id="DejaVuSans-6c" d="M 603 4863 
L 1178 4863 
L 1178 0 
L 603 0 
L 603 4863 
z
" transform="scale(0.015625)"/>
      </defs>
      <use xlink:href="#DejaVuSans-52"/>
      <use xlink:href="#DejaVuSans-65" transform="translate(64.982422 0)"/>
      <use xlink:href="#DejaVuSans-63" transform="translate(126.505859 0)"/>
      <use xlink:href="#DejaVuSans-61" transform="translate(181.486328 0)"/>
      <use xlink:href="#DejaVuSans-6c" transform="translate(242.765625 0)"/>
      <use xlink:href="#DejaVuSans-6c" transform="translate(270.548828 0)"/>
     </g>
    </g>
   </g>
   <g id="matplotlib.axis_2">
    <g id="ytick_1">
     <g id="line2d_13">
      <path d="M 90 369.770295 
L 648 369.770295 
" clip-path="url(#p66e4930424)" style="fill: none; stroke: #b0b0b0; stroke-width: 0.8; stroke-linecap: square"/>
     </g>
     <g id="line2d_14">
      <defs>
       <path id="meb8953f2fb" d="M 0 0 
L -3.5 0 
" style="stroke: #000000; stroke-width: 0.8"/>
      </defs>
      <g>
       <use xlink:href="#meb8953f2fb" x="90" y="369.770295" style="stroke: #000000; stroke-width: 0.8"/>
      </g>
     </g>
     <g id="text_8">
      <!-- 0.0 -->
      <g transform="translate(67.096875 373.569514) scale(0.1 -0.1)">
       <use xlink:href="#DejaVuSans-30"/>
       <use xlink:href="#DejaVuSans-2e" transform="translate(63.623047 0)"/>
       <use xlink:href="#DejaVuSans-30" transform="translate(95.410156 0)"/>
      </g>
     </g>
    </g>
    <g id="ytick_2">
     <g id="line2d_15">
      <path d="M 90 309.208236 
L 648 309.208236 
" clip-path="url(#p66e4930424)" style="fill: none; stroke: #b0b0b0; stroke-width: 0.8; stroke-linecap: square"/>
     </g>
     <g id="line2d_16">
      <g>
       <use xlink:href="#meb8953f2fb" x="90" y="309.208236" style="stroke: #000000; stroke-width: 0.8"/>
      </g>
     </g>
     <g id="text_9">
      <!-- 0.2 -->
      <g transform="translate(67.096875 313.007455) scale(0.1 -0.1)">
       <use xlink:href="#DejaVuSans-30"/>
       <use xlink:href="#DejaVuSans-2e" transform="translate(63.623047 0)"/>
       <use xlink:href="#DejaVuSans-32" transform="translate(95.410156 0)"/>
      </g>
     </g>
    </g>
    <g id="ytick_3">
     <g id="line2d_17">
      <path d="M 90 248.646177 
L 648 248.646177 
" clip-path="url(#p66e4930424)" style="fill: none; stroke: #b0b0b0; stroke-width: 0.8; stroke-linecap: square"/>
     </g>
     <g id="line2d_18">
      <g>
       <use xlink:href="#meb8953f2fb" x="90" y="248.646177" style="stroke: #000000; stroke-width: 0.8"/>
      </g>
     </g>
     <g id="text_10">
      <!-- 0.4 -->
      <g transform="translate(67.096875 252.445396) scale(0.1 -0.1)">
       <use xlink:href="#DejaVuSans-30"/>
       <use xlink:href="#DejaVuSans-2e" transform="translate(63.623047 0)"/>
       <use xlink:href="#DejaVuSans-34" transform="translate(95.410156 0)"/>
      </g>
     </g>
    </g>
    <g id="ytick_4">
     <g id="line2d_19">
      <path d="M 90 188.084118 
L 648 188.084118 
" clip-path="url(#p66e4930424)" style="fill: none; stroke: #b0b0b0; stroke-width: 0.8; stroke-linecap: square"/>
     </g>
     <g id="line2d_20">
      <g>
       <use xlink:href="#meb8953f2fb" x="90" y="188.084118" style="stroke: #000000; stroke-width: 0.8"/>
      </g>
     </g>
     <g id="text_11">
      <!-- 0.6 -->
      <g transform="translate(67.096875 191.883337) scale(0.1 -0.1)">
       <use xlink:href="#DejaVuSans-30"/>
       <use xlink:href="#DejaVuSans-2e" transform="translate(63.623047 0)"/>
       <use xlink:href="#DejaVuSans-36" transform="translate(95.410156 0)"/>
      </g>
     </g>
    </g>
    <g id="ytick_5">
     <g id="line2d_21">
      <path d="M 90 127.522059 
L 648 127.522059 
" clip-path="url(#p66e4930424)" style="fill: none; stroke: #b0b0b0; stroke-width: 0.8; stroke-linecap: square"/>
     </g>
     <g id="line2d_22">
      <g>
       <use xlink:href="#meb8953f2fb" x="90" y="127.522059" style="stroke: #000000; stroke-width: 0.8"/>
      </g>
     </g>
     <g id="text_12">
      <!-- 0.8 -->
      <g transform="translate(67.096875 131.321278) scale(0.1 -0.1)">
       <use xlink:href="#DejaVuSans-30"/>
       <use xlink:href="#DejaVuSans-2e" transform="translate(63.623047 0)"/>
       <use xlink:href="#DejaVuSans-38" transform="translate(95.410156 0)"/>
      </g>
     </g>
    </g>
    <g id="ytick_6">
     <g id="line2d_23">
      <path d="M 90 66.96 
L 648 66.96 
" clip-path="url(#p66e4930424)" style="fill: none; stroke: #b0b0b0; stroke-width: 0.8; stroke-linecap: square"/>
     </g>
     <g id="line2d_24">
      <g>
       <use xlink:href="#meb8953f2fb" x="90" y="66.96" style="stroke: #000000; stroke-width: 0.8"/>
      </g>
     </g>
     <g id="text_13">
      <!-- 1.0 -->
      <g transform="translate(67.096875 70.759219) scale(0.1 -0.1)">
       <use xlink:href="#DejaVuSans-31"/>
       <use xlink:href="#DejaVuSans-2e" transform="translate(63.623047 0)"/>
       <use xlink:href="#DejaVuSans-30" transform="translate(95.410156 0)"/>
      </g>
     </g>
    </g>
    <g id="text_14">
     <!-- Precision -->
     <g transform="translate(61.017187 240.467031) rotate(-90) scale(0.1 -0.1)">
      <defs>
       <path id="DejaVuSans-50" d="M 1259 4147 
L 1259 2394 
L 2053 2394 
Q 2494 2394 2734 2622 
Q 2975 2850 2975 3272 
Q 2975 3691 2734 3919 
Q 2494 4147 2053 4147 
L 1259 4147 
z
M 628 4666 
L 2053 4666 
Q 2838 4666 3239 4311 
Q 3641 3956 3641 3272 
Q 3641 2581 3239 2228 
Q 2838 1875 2053 1875 
L 1259 1875 
L 1259 0 
L 628 0 
L 628 4666 
z
" transform="scale(0.015625)"/>
       <path id="DejaVuSans-72" d="M 2631 2963 
Q 2534 3019 2420 3045 
Q 2306 3072 2169 3072 
Q 1681 3072 1420 2755 
Q 1159 2438 1159 1844 
L 1159 0 
L 581 0 
L 581 3500 
L 1159 3500 
L 1159 2956 
Q 1341 3275 1631 3429 
Q 1922 3584 2338 3584 
Q 2397 3584 2469 3576 
Q 2541 3569 2628 3553 
L 2631 2963 
z
" transform="scale(0.015625)"/>
       <path id="DejaVuSans-69" d="M 603 3500 
L 1178 3500 
L 1178 0 
L 603 0 
L 603 3500 
z
M 603 4863 
L 1178 4863 
L 1178 4134 
L 603 4134 
L 603 4863 
z
" transform="scale(0.015625)"/>
       <path id="DejaVuSans-73" d="M 2834 3397 
L 2834 2853 
Q 2591 2978 2328 3040 
Q 2066 3103 1784 3103 
Q 1356 3103 1142 2972 
Q 928 2841 928 2578 
Q 928 2378 1081 2264 
Q 1234 2150 1697 2047 
L 1894 2003 
Q 2506 1872 2764 1633 
Q 3022 1394 3022 966 
Q 3022 478 2636 193 
Q 2250 -91 1575 -91 
Q 1294 -91 989 -36 
Q 684 19 347 128 
L 347 722 
Q 666 556 975 473 
Q 1284 391 1588 391 
Q 1994 391 2212 530 
Q 2431 669 2431 922 
Q 2431 1156 2273 1281 
Q 2116 1406 1581 1522 
L 1381 1569 
Q 847 1681 609 1914 
Q 372 2147 372 2553 
Q 372 3047 722 3315 
Q 1072 3584 1716 3584 
Q 2034 3584 2315 3537 
Q 2597 3491 2834 3397 
z
" transform="scale(0.015625)"/>
       <path id="DejaVuSans-6f" d="M 1959 3097 
Q 1497 3097 1228 2736 
Q 959 2375 959 1747 
Q 959 1119 1226 758 
Q 1494 397 1959 397 
Q 2419 397 2687 759 
Q 2956 1122 2956 1747 
Q 2956 2369 2687 2733 
Q 2419 3097 1959 3097 
z
M 1959 3584 
Q 2709 3584 3137 3096 
Q 3566 2609 3566 1747 
Q 3566 888 3137 398 
Q 2709 -91 1959 -91 
Q 1206 -91 779 398 
Q 353 888 353 1747 
Q 353 2609 779 3096 
Q 1206 3584 1959 3584 
z
" transform="scale(0.015625)"/>
       <path id="DejaVuSans-6e" d="M 3513 2113 
L 3513 0 
L 2938 0 
L 2938 2094 
Q 2938 2591 2744 2837 
Q 2550 3084 2163 3084 
Q 1697 3084 1428 2787 
Q 1159 2491 1159 1978 
L 1159 0 
L 581 0 
L 581 3500 
L 1159 3500 
L 1159 2956 
Q 1366 3272 1645 3428 
Q 1925 3584 2291 3584 
Q 2894 3584 3203 3211 
Q 3513 2838 3513 2113 
z
" transform="scale(0.015625)"/>
      </defs>
      <use xlink:href="#DejaVuSans-50"/>
      <use xlink:href="#DejaVuSans-72" transform="translate(58.552734 0)"/>
      <use xlink:href="#DejaVuSans-65" transform="translate(97.416016 0)"/>
      <use xlink:href="#DejaVuSans-63" transform="translate(158.939453 0)"/>
      <use xlink:href="#DejaVuSans-69" transform="translate(213.919922 0)"/>
      <use xlink:href="#DejaVuSans-73" transform="translate(241.703125 0)"/>
      <use xlink:href="#DejaVuSans-69" transform="translate(293.802734 0)"/>
      <use xlink:href="#DejaVuSans-6f" transform="translate(321.585938 0)"/>
      <use xlink:href="#DejaVuSans-6e" transform="translate(382.767578 0)"/>
     </g>
    </g>
   </g>
   <g id="line2d_25">
    <path d="M 622.636364 369.36 
L 622.528424 369.330554 
L 621.739638 369.221691 
L 621.739638 369.220126 
L 621.656608 369.200473 
L 620.635337 369.093725 
L 620.635337 369.090509 
L 620.527398 369.085172 
L 618.974734 368.976251 
L 618.974734 368.976162 
L 618.866795 368.966988 
L 617.363949 368.862224 
L 617.363949 368.858268 
L 617.25601 368.851116 
L 616.1268 368.745515 
L 616.1268 368.742067 
L 616.027163 368.731437 
L 614.80662 368.622923 
L 614.80662 368.62285 
L 614.80662 368.622687 
L 613.76044 368.51491 
L 613.76044 368.51397 
L 613.702319 368.496589 
L 612.481776 368.399592 
L 612.481776 368.388583 
L 612.390443 368.375649 
L 611.452202 368.270413 
L 611.452202 368.267159 
L 611.443899 368.245969 
L 610.37281 368.139294 
L 610.37281 368.138132 
L 610.28978 368.099847 
L 609.783296 368.001579 
L 609.783296 367.990435 
L 609.750084 367.972483 
L 608.936388 367.866487 
L 608.936388 367.864314 
L 608.845055 367.838225 
L 608.604268 367.748935 
L 608.604268 367.72805 
L 608.604268 367.719493 
L 608.521237 367.719668 
L 607.940026 367.612675 
L 607.940026 367.610957 
L 607.848693 367.509037 
L 607.607906 367.409658 
L 607.607906 367.399023 
L 607.549785 367.372103 
L 606.976877 367.267084 
L 606.976877 367.263764 
L 606.868937 367.201248 
L 606.445484 367.106633 
L 606.445484 367.092338 
L 606.337544 367.079936 
L 606.030333 366.984867 
L 606.030333 366.970493 
L 605.955606 366.936605 
L 605.407607 366.841467 
L 605.407607 366.82863 
L 605.349486 366.774269 
L 605.216637 366.664001 
L 605.216637 366.663966 
L 605.125304 366.580566 
L 604.859608 366.521804 
L 604.859608 366.471168 
L 604.768274 366.402388 
L 604.685244 366.308942 
L 604.685244 366.29184 
L 604.602214 366.250797 
L 604.469366 366.145958 
L 604.469366 366.140627 
L 604.361427 365.950803 
L 603.946276 365.851243 
L 603.946276 365.842894 
L 603.946276 365.780694 
L 603.805125 365.754366 
L 603.805125 365.670719 
L 603.722095 365.406197 
L 603.497913 365.392842 
L 603.497913 365.29706 
L 603.497913 365.251511 
L 603.331853 365.253026 
L 603.331853 365.141918 
L 603.331853 365.077667 
L 603.124277 365.014154 
L 603.124277 364.968543 
L 603.124277 364.953686 
L 602.925005 364.920485 
L 602.925005 364.844509 
L 602.900096 364.825177 
L 602.592884 364.754867 
L 602.592884 364.717136 
L 602.509854 364.366733 
L 602.451733 364.367366 
L 602.451733 364.256257 
L 602.352097 364.039377 
L 602.235855 363.958926 
L 602.235855 363.929633 
L 602.127916 363.779465 
L 601.820704 363.725061 
L 601.820704 363.672052 
L 601.721068 363.605005 
L 601.58822 363.606655 
L 601.58822 363.495535 
L 601.56331 363.263248 
L 601.438765 363.264879 
L 601.438765 363.153782 
L 601.330826 362.908278 
L 601.297614 362.905512 
L 601.297614 362.797626 
L 601.214584 362.604576 
L 600.982099 362.503407 
L 600.982099 362.496803 
L 600.973796 362.496838 
L 600.899069 362.010665 
L 600.641676 361.915854 
L 600.641676 361.903558 
L 600.533737 361.688071 
L 600.375979 361.670617 
L 600.375979 361.57951 
L 600.35107 361.015704 
L 600.126889 360.959148 
L 600.126889 360.908507 
L 600.126889 360.614441 
L 599.944222 360.617787 
L 599.944222 360.50668 
L 599.861192 359.049655 
L 599.794768 358.997319 
L 599.794768 358.939949 
L 599.794768 358.826782 
L 599.66192 358.829674 
L 599.66192 358.718546 
L 599.570587 357.288636 
L 599.462648 357.291304 
L 599.462648 357.180165 
L 599.462648 356.530711 
L 599.313193 356.489553 
L 599.313193 356.42351 
L 599.313193 355.822099 
L 599.163739 355.826208 
L 599.163739 355.715142 
L 599.064103 352.466255 
L 598.881437 352.472417 
L 598.881437 352.36126 
L 598.7818 344.750504 
L 598.756891 344.751686 
L 598.756891 344.640453 
L 598.648952 341.036907 
L 598.624043 341.038248 
L 598.624043 340.927184 
L 598.624043 340.801837 
L 598.482892 340.809489 
L 598.482892 340.698724 
L 598.482892 336.740614 
L 598.341741 336.749212 
L 598.341741 336.63909 
L 598.341741 332.059365 
L 598.183983 332.070149 
L 598.183983 331.958835 
L 598.100953 321.150185 
L 598.026226 321.156503 
L 598.026226 321.046161 
L 598.026226 318.189358 
L 597.885075 318.201874 
L 597.885075 318.091017 
L 597.826954 316.694093 
L 597.685802 316.7069 
L 597.685802 316.596059 
L 597.619378 304.46354 
L 597.445015 304.482061 
L 597.445015 304.371075 
L 597.445015 302.276462 
L 597.245742 302.298145 
L 597.245742 302.186572 
L 597.245742 300.671117 
L 596.830592 300.641224 
L 596.830592 300.605825 
L 596.830592 299.926574 
L 596.656228 299.946036 
L 596.656228 299.834476 
L 596.656228 286.690415 
L 596.515077 286.708097 
L 596.515077 286.597467 
L 596.465259 281.811157 
L 596.365623 281.824083 
L 596.365623 281.713717 
L 596.265987 280.983652 
L 596.066714 280.968745 
L 596.066714 280.898068 
L 595.967078 278.821461 
L 595.767806 278.847848 
L 595.767806 278.737775 
L 595.767806 278.597554 
L 595.593442 278.620685 
L 595.593442 278.509069 
L 595.593442 278.508594 
L 595.419079 278.531745 
L 595.419079 278.421301 
L 595.419079 278.255132 
L 595.078655 278.192217 
L 595.078655 277.229711 
L 594.912595 277.251957 
L 594.912595 277.149554 
L 594.821262 252.390067 
L 594.630293 252.418701 
L 594.630293 252.308292 
L 594.630293 251.805688 
L 594.464232 251.830642 
L 594.464232 251.719882 
L 594.389505 221.53449 
L 594.206839 221.56335 
L 594.206839 221.453841 
L 594.206839 221.220439 
L 594.057385 221.244062 
L 594.057385 221.135312 
L 594.057385 221.128984 
L 593.874718 221.157868 
L 593.874718 221.054019 
L 593.783385 212.255361 
L 593.74187 212.26192 
L 593.74187 212.155197 
L 593.708658 196.120518 
L 593.600719 196.137234 
L 593.600719 196.033458 
L 593.517689 186.71473 
L 593.442961 186.726045 
L 593.442961 186.616444 
L 593.359931 185.665806 
L 593.285204 185.67709 
L 593.285204 185.566193 
L 593.202174 185.116176 
L 593.05272 185.138716 
L 593.05272 185.058455 
L 592.977993 173.112661 
L 592.919871 173.121051 
L 592.919871 173.00997 
L 592.811932 163.34365 
L 592.753811 163.351649 
L 592.753811 163.246361 
L 592.720599 158.916186 
L 592.521327 158.942924 
L 592.521327 158.850932 
L 592.421691 153.851951 
L 592.33866 153.862736 
L 592.33866 153.771584 
L 592.25563 153.379272 
L 592.1726 153.390025 
L 592.1726 153.279576 
L 592.1726 152.187913 
L 592.014843 152.208179 
L 592.014843 152.096483 
L 592.014843 151.932819 
L 591.774055 151.857172 
L 591.774055 151.851706 
L 591.682722 151.441656 
L 591.350602 151.401771 
L 591.350602 151.388036 
L 591.350602 151.173537 
L 591.192844 151.19369 
L 591.192844 151.111066 
L 591.101511 150.1207 
L 590.96036 150.138602 
L 590.96036 150.032869 
L 590.96036 149.539033 
L 590.819209 149.556862 
L 590.819209 149.450537 
L 590.744481 140.161111 
L 590.503694 140.189236 
L 590.503694 140.085772 
L 590.404058 132.191987 
L 590.337634 132.199144 
L 590.337634 132.107878 
L 590.27121 131.667431 
L 590.221391 131.672769 
L 590.221391 131.584351 
L 590.113452 131.1462 
L 590.047028 131.153278 
L 590.047028 131.054567 
L 589.939089 125.800178 
L 589.864362 125.807644 
L 589.864362 125.711304 
L 589.83115 125.204107 
L 589.731514 125.213987 
L 589.731514 125.110231 
L 589.706604 124.793953 
L 589.532241 124.811157 
L 589.532241 124.703542 
L 589.449211 123.135169 
L 589.133696 123.165636 
L 589.133696 123.063524 
L 589.108787 119.397912 
L 588.826485 119.420132 
L 588.826485 119.35478 
L 588.743455 117.621505 
L 588.660425 117.628905 
L 588.660425 117.558906 
L 588.552485 117.106956 
L 588.519273 117.109893 
L 588.519273 117.009969 
L 588.411334 113.900648 
L 588.353213 113.905522 
L 588.353213 113.897931 
L 588.245274 112.877936 
L 588.220365 112.879988 
L 588.220365 112.776624 
L 588.220365 112.608001 
L 588.170547 112.60825 
L 588.079213 112.61574 
L 588.079213 112.515971 
L 588.004486 110.275922 
L 587.888244 110.187336 
L 587.780305 108.44772 
L 587.73879 108.450867 
L 587.73879 108.339831 
L 587.630851 106.899662 
L 587.473093 106.826947 
L 587.473093 106.8149 
L 587.414972 106.239539 
L 587.38176 106.241944 
L 587.315336 106.246756 
L 587.315336 106.137775 
L 587.224003 105.395117 
L 587.182488 105.337128 
L 587.182488 105.29242 
L 587.124367 104.901607 
L 587.02473 104.908618 
L 587.02473 104.798459 
L 586.974912 104.564991 
L 586.750731 104.490627 
L 586.750731 104.474252 
L 586.750731 104.380056 
L 586.443519 104.307133 
L 586.33558 103.734914 
L 586.25255 103.691149 
L 586.25255 103.629296 
L 586.186126 103.042667 
L 586.119702 103.047152 
L 586.119702 102.960105 
L 586.061581 102.648491 
L 586.020066 102.651268 
L 585.779278 102.646588 
L 585.779278 102.559217 
L 585.746066 102.51148 
L 585.671339 102.512301 
L 585.596612 102.517287 
L 585.596612 102.408958 
L 585.530188 101.148489 
L 585.455461 101.043838 
L 585.380733 100.740771 
L 585.281097 100.747134 
L 585.281097 100.637291 
L 585.256188 100.329978 
L 585.173158 100.335226 
L 585.090128 100.340475 
L 585.090128 100.238736 
L 585.04031 100.097604 
L 584.965583 100.1023 
L 584.965583 99.991856 
L 584.865946 99.252238 
L 584.699886 99.159805 
L 584.699886 99.151248 
L 584.699886 98.90715 
L 584.475705 98.920805 
L 584.475705 98.847892 
L 584.475705 98.624617 
L 584.392675 98.629636 
L 584.317947 98.634155 
L 584.317947 98.530953 
L 584.210008 98.201454 
L 583.969221 98.202905 
L 583.969221 98.120889 
L 583.969221 98.086341 
L 583.902797 98.0903 
L 583.6371 98.075893 
L 583.6371 98.024014 
L 583.537464 97.817866 
L 583.271768 97.75124 
L 583.271768 97.725221 
L 583.255161 97.613391 
L 583.221949 97.615346 
L 582.840011 97.542259 
L 582.732072 97.496427 
L 582.615829 97.39446 
L 582.541102 97.176595 
L 582.491284 97.179495 
L 582.491284 97.08787 
L 582.491284 96.961238 
L 582.458072 96.96316 
L 581.976497 96.947322 
L 581.976497 96.886073 
L 581.976497 96.794149 
L 581.876861 96.799893 
L 581.702498 96.722304 
L 581.702498 96.709152 
L 581.702498 96.669689 
L 581.602861 96.675415 
L 581.46171 96.683531 
L 581.46171 96.586978 
L 581.46171 96.556242 
L 581.395286 96.560048 
L 580.905408 96.513404 
L 580.905408 96.482615 
L 580.85559 96.371036 
L 580.805772 96.373878 
L 580.158137 96.300625 
L 580.124925 96.276043 
L 579.89244 96.20097 
L 579.89244 96.147949 
L 579.278017 96.094366 
L 579.278017 96.07223 
L 579.278017 96.054518 
L 578.837957 96.070623 
L 578.837957 96.008562 
L 578.730018 95.930394 
L 578.464322 95.84772 
L 578.464322 95.843277 
L 578.389594 95.723022 
L 578.314867 95.722776 
L 578.314867 95.682736 
L 578.281655 95.319237 
L 578.215231 95.322926 
L 578.015959 95.244695 
L 578.015959 95.235761 
L 577.924626 94.945644 
L 577.675535 94.91901 
L 577.575899 94.722675 
L 577.492869 94.691293 
L 577.459657 94.351443 
L 577.38493 94.355472 
L 577.376627 94.35592 
L 577.376627 94.247835 
L 577.268687 93.924293 
L 577.218869 93.926942 
L 577.218869 93.922425 
L 577.152445 93.736069 
L 577.094324 93.739142 
L 577.094324 93.657673 
L 577.036203 93.47497 
L 576.978082 93.478016 
L 576.978082 93.409982 
L 576.94487 93.207406 
L 576.903355 93.209562 
L 576.762203 93.216896 
L 576.762203 93.194169 
L 576.654264 92.913032 
L 576.562931 92.808322 
L 576.479901 92.547774 
L 576.313841 92.556213 
L 576.313841 92.473905 
L 576.222507 92.217527 
L 576.180992 92.219613 
L 576.180992 92.146253 
L 576.106265 91.99396 
L 576.081356 91.995201 
L 575.915296 91.902387 
L 575.915296 91.792018 
L 575.840569 91.795717 
L 575.70772 91.691798 
L 575.666205 91.656991 
L 575.599781 91.660265 
L 575.450327 91.635365 
L 575.450327 91.612311 
L 575.358994 91.321331 
L 575.267661 91.32578 
L 575.267661 91.219422 
L 575.159721 91.01166 
L 575.051782 91.016859 
L 575.051782 90.94268 
L 574.977055 90.630528 
L 574.85251 90.59924 
L 574.85251 90.575984 
L 574.85251 90.403768 
L 574.727965 90.409632 
L 574.727965 90.325756 
L 574.694753 90.276029 
L 574.661541 90.277585 
L 574.553601 90.203326 
L 574.553601 90.179989 
L 574.49548 90.065945 
L 574.462268 90.067489 
L 574.229784 89.980103 
L 574.229784 89.975425 
L 574.229784 89.961391 
L 574.138451 89.965622 
L 573.997299 89.972164 
L 573.997299 89.845734 
L 573.706694 89.784132 
L 573.706694 89.7513 
L 573.598755 89.450967 
L 573.416088 89.351045 
L 573.324755 89.23743 
L 573.025846 89.199039 
L 572.959422 89.013225 
L 572.801665 89.006102 
L 572.801665 88.916295 
L 572.702029 88.901814 
L 572.652211 88.904031 
L 572.652211 88.81413 
L 572.652211 88.771525 
L 572.286878 88.692918 
L 572.286878 88.678695 
L 572.286878 88.659727 
L 572.220454 88.662656 
L 571.921545 88.604647 
L 571.921545 88.576157 
L 571.846818 88.408359 
L 571.672455 88.339845 
L 571.672455 88.330326 
L 571.672455 88.263674 
L 571.581122 88.267639 
L 571.041426 88.195713 
L 571.041426 88.190943 
L 570.94179 87.994698 
L 570.50173 87.91315 
L 570.460215 87.809588 
L 570.410397 87.811713 
L 570.260942 87.770165 
L 570.260942 87.741401 
L 570.153003 87.530035 
L 569.862398 87.431725 
L 569.795973 87.391221 
L 569.488762 87.298159 
L 569.488762 87.293341 
L 569.488762 87.259612 
L 569.397429 87.263422 
L 569.281187 87.162172 
L 569.223065 87.014929 
L 569.214762 87.015272 
L 568.484097 86.953533 
L 568.484097 86.914806 
L 568.376158 86.919247 
L 567.936098 86.869506 
L 567.877977 86.760313 
L 567.836462 86.762011 
L 567.620583 86.673698 
L 567.620583 86.668838 
L 567.579068 86.612203 
L 566.997857 86.587172 
L 566.997857 86.533606 
L 566.889918 86.479512 
L 566.250586 86.402894 
L 566.250586 86.398011 
L 566.167556 86.381824 
L 565.79392 86.338229 
L 565.79392 86.333338 
L 565.79392 86.269748 
L 565.727496 86.272414 
L 564.980225 86.194612 
L 564.980225 86.130844 
L 564.066893 86.069056 
L 564.066893 86.064138 
L 563.97556 86.003814 
L 563.792893 86.011083 
L 563.792893 85.932286 
L 563.792893 85.892871 
L 563.303015 85.803728 
L 563.303015 85.774109 
L 563.286409 85.774763 
L 562.73841 85.687599 
L 562.73841 85.667812 
L 562.671986 85.670418 
L 561.509564 85.621897 
L 561.459746 85.49973 
L 561.409928 85.501674 
L 561.243868 85.448513 
L 561.243868 85.443542 
L 561.16914 85.212567 
L 561.135928 85.213845 
L 560.679263 85.121718 
L 560.679263 85.101761 
L 560.596232 85.104941 
L 560.189385 85.050601 
L 560.189385 85.010619 
L 560.189385 84.890606 
L 558.960538 84.882155 
L 558.960538 84.836997 
L 558.877508 84.764838 
L 558.080419 84.694374 
L 558.05551 84.614753 
L 557.499208 84.534792 
L 557.465996 84.364369 
L 557.391268 84.367142 
L 557.366359 84.368067 
L 557.366359 84.292251 
L 557.25842 84.255782 
L 556.594179 84.224604 
L 556.594179 84.072513 
L 556.519452 84.075248 
L 555.954847 84.095939 
L 555.954847 83.984159 
L 555.88012 83.986885 
L 555.340424 83.970966 
L 555.340424 83.909867 
L 555.340424 83.889495 
L 555.24909 83.892814 
L 554.485213 83.915517 
L 554.485213 83.828751 
L 554.485213 83.74704 
L 554.443698 83.748539 
L 553.530366 83.715037 
L 553.530366 83.674066 
L 553.530366 83.663821 
L 553.439033 83.667111 
L 552.841216 83.58605 
L 552.841216 83.565516 
L 552.791398 83.567303 
L 551.371582 83.582357 
L 551.371582 83.525687 
L 551.371582 83.448374 
L 551.33837 83.449562 
L 550.48316 83.454376 
L 550.433342 83.352795 
L 550.37522 83.354867 
L 549.461889 83.304578 
L 549.461889 83.289027 
L 549.370556 83.193728 
L 549.35395 83.194316 
L 549.096556 83.198242 
L 549.096556 83.172281 
L 549.096556 83.026813 
L 549.030132 83.029143 
L 548.839163 82.98383 
L 548.839163 82.942204 
L 548.839163 82.921386 
L 548.756132 82.924283 
L 547.527286 82.86286 
L 547.477468 82.749638 
L 547.419347 82.751651 
L 546.946075 82.710487 
L 546.946075 82.642411 
L 546.439591 82.570717 
L 546.389773 82.498949 
L 545.933107 82.419965 
L 545.933107 82.393671 
L 545.825168 82.397344 
L 544.961654 82.321352 
L 544.961654 82.273879 
L 544.862018 82.277252 
L 543.07687 82.226667 
L 543.035355 82.175055 
L 542.038993 82.134379 
L 542.038993 82.107792 
L 541.931054 81.98372 
L 541.291722 81.909161 
L 541.258509 81.787514 
L 541.192085 81.789714 
L 540.386693 81.746879 
L 540.386693 81.661223 
L 540.278754 81.664776 
L 538.418878 81.62406 
L 538.310939 81.573785 
L 537.256456 81.522169 
L 537.256456 81.414128 
L 537.173426 81.416837 
L 534.549673 81.399665 
L 534.549673 81.383346 
L 534.167734 81.330522 
L 534.167734 81.303284 
L 534.167734 81.183376 
L 534.126219 81.18472 
L 532.000647 81.155221 
L 532.000647 81.111358 
L 531.984041 81.111896 
L 531.452648 81.085194 
L 531.452648 81.079702 
L 531.452648 81.002791 
L 531.353012 81.005999 
L 530.912952 81.003677 
L 530.912952 80.987169 
L 530.912952 80.810971 
L 530.863134 80.812556 
L 529.933196 80.748311 
L 529.933196 80.726209 
L 529.385197 80.682731 
L 529.293864 80.591481 
L 529.185925 80.517284 
L 529.185925 80.43965 
L 529.111198 80.441976 
L 527.749503 80.378744 
L 527.683079 80.34739 
L 526.753142 80.337232 
L 526.753142 80.264628 
L 526.686717 80.266682 
L 524.029752 80.287535 
L 524.029752 80.242546 
L 524.029752 80.186291 
L 523.988237 80.187577 
L 522.842421 80.127205 
L 522.842421 80.053797 
L 522.742785 80.056861 
L 521.322969 79.992957 
L 521.264848 79.841507 
L 521.21503 79.84302 
L 519.604245 79.812345 
L 519.604245 79.743894 
L 519.587639 79.744397 
L 518.582974 79.67765 
L 518.582974 79.660481 
L 518.475035 79.663739 
L 515.452738 79.657622 
L 515.452738 79.651854 
L 515.452738 79.623009 
L 515.444435 79.623261 
L 513.650983 79.585162 
L 513.551347 79.530192 
L 511.55032 79.491927 
L 511.55032 79.4511 
L 509.839899 79.409282 
L 509.740263 79.312615 
L 509.200567 79.223097 
L 509.150749 79.159913 
L 505.970694 79.148521 
L 505.970694 79.124803 
L 505.887664 79.127285 
L 503.903243 79.103469 
L 503.903243 79.073654 
L 503.853425 79.075145 
L 500.432583 79.070155 
L 500.432583 79.052102 
L 500.374462 79.053854 
L 498.365132 79.066362 
L 498.365132 79.060311 
L 498.365132 78.957418 
L 498.315314 78.958917 
L 497.09477 78.886398 
L 497.09477 78.88032 
L 497.053255 78.881566 
L 496.23956 78.820736 
L 496.23956 78.790262 
L 496.139924 78.793236 
L 495.691561 78.696735 
L 495.691561 78.684518 
L 495.658349 78.685502 
L 494.479321 78.610229 
L 494.471018 78.57368 
L 494.387987 78.576127 
L 493.37502 78.50148 
L 493.37502 78.483017 
L 491.216236 78.435255 
L 491.216236 78.416678 
L 491.116599 78.419601 
L 488.492846 78.391085 
L 488.492846 78.378607 
L 487.239091 78.315467 
L 487.139455 78.255734 
L 483.652188 78.270123 
L 483.652188 78.232159 
L 483.544249 78.235341 
L 481.385465 78.191119 
L 481.368859 78.178871 
L 481.335647 78.179851 
L 480.546861 78.101021 
L 480.497043 78.032196 
L 480.472134 78.032924 
L 478.952682 78.006899 
L 478.952682 77.923419 
L 478.91947 77.924384 
L 477.134321 77.886145 
L 477.134321 77.853854 
L 477.0762 77.855542 
L 475.274446 77.804242 
L 475.274446 77.752278 
L 475.249537 77.752998 
L 472.152512 77.745043 
L 472.061179 77.56404 
L 470.350758 77.54739 
L 470.350758 77.455017 
L 470.251122 77.457861 
L 466.780461 77.491271 
L 466.780461 77.444604 
L 466.747249 77.445561 
L 465.393858 77.397669 
L 465.393858 77.370881 
L 461.383501 77.412862 
L 461.383501 77.365442 
L 461.375198 77.365683 
L 459.432292 77.32021 
L 459.432292 77.306577 
L 459.324353 77.309713 
L 457.398054 77.276865 
L 457.398054 77.173952 
L 457.315024 77.176348 
L 455.463451 77.188678 
L 455.463451 77.05058 
L 452.881213 77.013826 
L 452.881213 77.006863 
L 452.773274 77.009971 
L 450.323885 76.996828 
L 450.323885 76.940683 
L 450.290672 76.94164 
L 449.053523 76.949242 
L 448.953887 76.754659 
L 448.538736 76.709934 
L 448.538736 76.653377 
L 446.828315 76.644936 
L 446.828315 76.588063 
L 446.736982 76.590632 
L 443.656563 76.599153 
L 443.656563 76.5058 
L 443.581836 76.507905 
L 440.385175 76.598822 
L 440.385175 76.526294 
L 440.385175 76.439214 
L 440.285539 76.442029 
L 435.777002 76.460825 
L 435.777002 76.4461 
L 435.669062 76.449196 
L 431.318282 76.478701 
L 431.318282 76.448837 
L 430.272102 76.389463 
L 430.272102 76.314498 
L 427.590228 76.301613 
L 427.590228 76.271356 
L 427.515501 76.273517 
L 427.166775 76.283612 
L 427.150169 76.132515 
L 427.10035 76.133937 
L 424.825324 76.092374 
L 424.825324 76.023581 
L 424.725688 76.026413 
L 420.798362 76.054289 
L 420.798362 75.992319 
L 420.698726 75.995179 
L 418.415396 75.967516 
L 418.415396 75.944083 
L 418.324063 75.946711 
L 417.477156 75.861434 
L 417.477156 75.7987 
L 417.385822 75.801294 
L 415.708613 75.738759 
L 415.708613 75.65981 
L 415.692007 75.660277 
L 409.938018 75.720654 
L 409.938018 75.704556 
L 404.408209 75.760366 
L 404.408209 75.69475 
L 404.308573 75.697675 
L 398.02319 75.835965 
L 398.02319 75.760516 
L 397.915251 75.76378 
L 390.932415 75.868529 
L 390.932415 75.816951 
L 390.824476 75.82032 
L 383.791822 75.957335 
L 383.791822 75.904416 
L 383.683883 75.907908 
L 381.408857 75.955455 
L 381.408857 75.866455 
L 381.334129 75.868884 
L 375.322746 75.959475 
L 375.322746 75.92305 
L 375.231413 75.926106 
L 373.894628 75.870349 
L 373.894628 75.778709 
L 373.828203 75.780909 
L 369.294757 75.868446 
L 369.294757 75.70046 
L 369.261545 75.70157 
L 366.68761 75.694165 
L 366.68761 75.618664 
L 366.579671 75.622278 
L 361.307256 75.696535 
L 361.307256 75.686893 
L 357.81999 75.720765 
L 357.81999 75.476099 
L 357.73696 75.478934 
L 351.584425 75.604042 
L 351.584425 75.513613 
L 351.476486 75.517412 
L 349.732853 75.488105 
L 349.732853 75.457706 
L 349.691338 75.45917 
L 348.84443 75.387391 
L 348.84443 75.377213 
L 348.736491 75.380998 
L 346.644131 75.372865 
L 346.644131 75.342036 
L 346.561101 75.344963 
L 345.224315 75.340673 
L 345.132982 75.199012 
L 340.699172 75.272227 
L 340.699172 75.230006 
L 335.144455 75.368308 
L 335.144455 75.303414 
L 330.378524 75.37266 
L 330.378524 75.251031 
L 330.3121 75.253523 
L 329.473495 75.2629 
L 329.473495 75.018329 
L 329.407071 75.020763 
L 326.310046 75.034322 
L 326.310046 75.000443 
L 326.268531 75.001984 
L 324.690958 74.969926 
L 324.690958 74.912995 
L 324.632837 74.915146 
L 321.876236 74.937738 
L 321.876236 74.903109 
L 321.784903 74.906532 
L 320.688905 74.936222 
L 320.688905 74.761991 
L 318.430485 74.787766 
L 318.430485 74.681982 
L 318.380666 74.683829 
L 312.817646 74.83535 
L 312.817646 74.726593 
L 312.726313 74.730095 
L 312.120193 74.668487 
L 312.120193 74.510633 
L 312.045466 74.51343 
L 309.894985 74.521121 
L 309.894985 74.410495 
L 309.787046 74.414529 
L 307.370868 74.418822 
L 307.370868 74.381445 
L 303.725844 74.445315 
L 303.725844 74.356416 
L 303.617905 74.360553 
L 300.803183 74.392713 
L 300.803183 74.328194 
L 300.736759 74.33077 
L 300.653729 74.230625 
L 300.653729 74.204772 
L 300.570698 74.207943 
L 293.886771 74.392192 
L 293.812044 74.355004 
L 288.564538 74.504425 
L 288.564538 74.435399 
L 288.539629 74.436448 
L 285.799634 74.455447 
L 285.799634 74.427383 
L 285.716604 74.430933 
L 284.554182 74.410313 
L 284.554182 74.367893 
L 284.446242 74.372506 
L 278.468071 74.57872 
L 278.468071 74.505457 
L 278.434859 74.506955 
L 275.445774 74.539828 
L 275.445774 74.465162 
L 275.371047 74.46858 
L 271.036873 74.610939 
L 271.036873 74.45741 
L 270.945539 74.461702 
L 270.820994 74.467563 
L 270.820994 74.329068 
L 270.804388 74.329836 
L 267.815303 74.439379 
L 267.815303 74.329526 
L 267.707363 74.334621 
L 261.330648 74.534036 
L 261.330648 74.484906 
L 259.661741 74.56975 
L 259.661741 74.337739 
L 259.578711 74.341883 
L 255.701203 74.438523 
L 255.701203 74.302127 
L 247.223824 74.67148 
L 247.223824 74.47215 
L 247.132491 74.477227 
L 237.982568 74.906624 
L 237.916144 74.638233 
L 237.882932 74.640261 
L 236.454813 74.629926 
L 236.454813 74.6102 
L 236.371783 74.615316 
L 233.357789 74.724899 
L 233.357789 74.684435 
L 233.258152 74.690796 
L 232.718456 74.725437 
L 232.718456 74.073134 
L 225.909984 74.37051 
L 225.909984 74.348864 
L 225.810348 74.355367 
L 224.647925 74.366418 
L 224.548289 73.670103 
L 223.31114 73.745282 
L 223.31114 73.589386 
L 223.244716 73.593378 
L 218.810906 73.755115 
L 218.810906 73.731887 
L 218.736178 73.736673 
L 216.029395 73.819306 
L 216.029395 73.771584 
L 215.946365 73.77708 
L 215.473093 73.808579 
L 215.473093 73.592496 
L 215.406669 73.596803 
L 214.883579 73.630919 
L 214.883579 73.43749 
L 214.792246 73.443313 
L 213.970248 73.422947 
L 213.970248 73.374098 
L 213.887217 73.379388 
L 194.424949 74.586058 
L 194.424949 74.495371 
L 194.375131 74.500004 
L 191.020713 74.762553 
L 190.763319 74.598516 
L 189.393322 74.736245 
L 189.393322 74.704001 
L 189.393322 74.316521 
L 187.392295 74.416201 
L 187.392295 74.382989 
L 187.367386 74.385494 
L 187.010356 74.388197 
L 187.010356 74.154271 
L 186.570297 74.197669 
L 186.570297 73.995683 
L 186.503873 74.0021 
L 186.22157 74.029501 
L 186.22157 73.894058 
L 186.121934 73.903598 
L 181.538669 74.264228 
L 181.538669 74.22804 
L 177.52001 74.685959 
L 177.52001 74.532229 
L 174.813227 74.827877 
L 174.813227 74.70746 
L 174.721894 74.719075 
L 171.193112 75.19616 
L 171.193112 74.982916 
L 171.101779 74.995714 
L 168.743723 75.340866 
L 168.743723 74.894896 
L 168.668995 74.905727 
L 167.481664 75.081889 
L 167.481664 74.94476 
L 167.373725 74.960894 
L 166.64306 75.071842 
L 166.64306 74.746414 
L 166.609848 74.75133 
L 165.214941 74.96358 
L 165.214941 74.724367 
L 165.115305 74.739517 
L 164.451064 74.842047 
L 164.451064 74.598908 
L 164.401245 74.606472 
L 157.83356 75.531188 
L 157.83356 74.521599 
L 157.742227 74.537488 
L 157.22744 74.628306 
L 157.22744 74.113923 
L 156.521684 74.233648 
L 156.521684 73.592191 
L 156.430351 73.606617 
L 153.640537 74.01702 
L 153.640537 73.074129 
L 153.607325 73.079332 
L 148.658728 73.96779 
L 143.452738 75.146416 
L 142.348436 75.383978 
L 142.348436 75.207751 
L 142.282012 75.227548 
L 141.244135 75.549694 
L 141.244135 74.444985 
L 141.210923 74.454365 
L 140.978439 74.520687 
L 140.978439 74.053372 
L 140.895409 74.075898 
L 138.396201 74.724367 
L 138.396201 74.309247 
L 138.329777 74.329986 
L 137.399839 74.524695 
L 137.399839 74.198937 
L 137.350021 74.214946 
L 136.453296 74.402342 
L 136.370265 73.97491 
L 136.345356 73.983045 
L 135.622994 74.227447 
L 135.622994 73.159649 
L 135.573176 73.174618 
L 135.249358 73.273706 
L 135.141419 72.941438 
L 133.10718 73.476522 
L 132.999241 72.144628 
L 130.549852 72.964277 
L 130.234337 73.089092 
L 130.234337 72.601397 
L 130.151307 72.632479 
L 128.158583 73.496857 
L 126.597616 74.382891 
L 125.186104 75.419778 
L 125.186104 73.226769 
L 125.119679 73.268548 
L 123.948954 74.108496 
L 122.819744 75.161796 
L 122.819744 74.522038 
L 121.815079 75.665796 
L 121.516171 76.076017 
L 121.516171 73.75126 
L 120.611142 74.891857 
L 119.772538 76.35375 
L 119.772538 75.278964 
L 119.299266 76.248659 
L 118.460661 78.666584 
L 117.929268 80.978995 
L 117.339754 84.91318 
L 116.658907 91.897318 
L 116.335089 99.321406 
L 115.994666 114.063824 
L 115.95315 66.96 
L 115.363636 66.96 
L 115.363636 66.96 
" clip-path="url(#p66e4930424)" style="fill: none; stroke: #1f77b4; stroke-width: 1.5; stroke-linecap: square"/>
   </g>
   <g id="patch_3">
    <path d="M 90 384.48 
L 90 51.84 
" style="fill: none; stroke: #000000; stroke-width: 0.8; stroke-linejoin: miter; stroke-linecap: square"/>
   </g>
   <g id="patch_4">
    <path d="M 648 384.48 
L 648 51.84 
" style="fill: none; stroke: #000000; stroke-width: 0.8; stroke-linejoin: miter; stroke-linecap: square"/>
   </g>
   <g id="patch_5">
    <path d="M 90 384.48 
L 648 384.48 
" style="fill: none; stroke: #000000; stroke-width: 0.8; stroke-linejoin: miter; stroke-linecap: square"/>
   </g>
   <g id="patch_6">
    <path d="M 90 51.84 
L 648 51.84 
" style="fill: none; stroke: #000000; stroke-width: 0.8; stroke-linejoin: miter; stroke-linecap: square"/>
   </g>
   <g id="text_15">
    <!-- Precision-Recall Curves -->
    <g transform="translate(299.431875 32.402625) scale(0.12 -0.12)">
     <defs>
      <path id="DejaVuSans-2d" d="M 313 2009 
L 1997 2009 
L 1997 1497 
L 313 1497 
L 313 2009 
z
" transform="scale(0.015625)"/>
      <path id="DejaVuSans-20" transform="scale(0.015625)"/>
      <path id="DejaVuSans-43" d="M 4122 4306 
L 4122 3641 
Q 3803 3938 3442 4084 
Q 3081 4231 2675 4231 
Q 1875 4231 1450 3742 
Q 1025 3253 1025 2328 
Q 1025 1406 1450 917 
Q 1875 428 2675 428 
Q 3081 428 3442 575 
Q 3803 722 4122 1019 
L 4122 359 
Q 3791 134 3420 21 
Q 3050 -91 2638 -91 
Q 1578 -91 968 557 
Q 359 1206 359 2328 
Q 359 3453 968 4101 
Q 1578 4750 2638 4750 
Q 3056 4750 3426 4639 
Q 3797 4528 4122 4306 
z
" transform="scale(0.015625)"/>
      <path id="DejaVuSans-75" d="M 544 1381 
L 544 3500 
L 1119 3500 
L 1119 1403 
Q 1119 906 1312 657 
Q 1506 409 1894 409 
Q 2359 409 2629 706 
Q 2900 1003 2900 1516 
L 2900 3500 
L 3475 3500 
L 3475 0 
L 2900 0 
L 2900 538 
Q 2691 219 2414 64 
Q 2138 -91 1772 -91 
Q 1169 -91 856 284 
Q 544 659 544 1381 
z
M 1991 3584 
L 1991 3584 
z
" transform="scale(0.015625)"/>
      <path id="DejaVuSans-76" d="M 191 3500 
L 800 3500 
L 1894 563 
L 2988 3500 
L 3597 3500 
L 2284 0 
L 1503 0 
L 191 3500 
z
" transform="scale(0.015625)"/>
     </defs>
     <use xlink:href="#DejaVuSans-50"/>
     <use xlink:href="#DejaVuSans-72" transform="translate(58.552734 0)"/>
     <use xlink:href="#DejaVuSans-65" transform="translate(97.416016 0)"/>
     <use xlink:href="#DejaVuSans-63" transform="translate(158.939453 0)"/>
     <use xlink:href="#DejaVuSans-69" transform="translate(213.919922 0)"/>
     <use xlink:href="#DejaVuSans-73" transform="translate(241.703125 0)"/>
     <use xlink:href="#DejaVuSans-69" transform="translate(293.802734 0)"/>
     <use xlink:href="#DejaVuSans-6f" transform="translate(321.585938 0)"/>
     <use xlink:href="#DejaVuSans-6e" transform="translate(382.767578 0)"/>
     <use xlink:href="#DejaVuSans-2d" transform="translate(446.146484 0)"/>
     <use xlink:href="#DejaVuSans-52" transform="translate(482.230469 0)"/>
     <use xlink:href="#DejaVuSans-65" transform="translate(547.212891 0)"/>
     <use xlink:href="#DejaVuSans-63" transform="translate(608.736328 0)"/>
     <use xlink:href="#DejaVuSans-61" transform="translate(663.716797 0)"/>
     <use xlink:href="#DejaVuSans-6c" transform="translate(724.996094 0)"/>
     <use xlink:href="#DejaVuSans-6c" transform="translate(752.779297 0)"/>
     <use xlink:href="#DejaVuSans-20" transform="translate(780.5625 0)"/>
     <use xlink:href="#DejaVuSans-43" transform="translate(812.349609 0)"/>
     <use xlink:href="#DejaVuSans-75" transform="translate(882.173828 0)"/>
     <use xlink:href="#DejaVuSans-72" transform="translate(945.552734 0)"/>
     <use xlink:href="#DejaVuSans-76" transform="translate(986.666016 0)"/>
     <use xlink:href="#DejaVuSans-65" transform="translate(1045.845703 0)"/>
     <use xlink:href="#DejaVuSans-73" transform="translate(1107.369141 0)"/>
    </g>
    <!-- AURPC: 0.912, Top-k: 0.911 -->
    <g transform="translate(286.74 45.84) scale(0.12 -0.12)">
     <defs>
      <path id="DejaVuSans-41" d="M 2188 4044 
L 1331 1722 
L 3047 1722 
L 2188 4044 
z
M 1831 4666 
L 2547 4666 
L 4325 0 
L 3669 0 
L 3244 1197 
L 1141 1197 
L 716 0 
L 50 0 
L 1831 4666 
z
" transform="scale(0.015625)"/>
      <path id="DejaVuSans-55" d="M 556 4666 
L 1191 4666 
L 1191 1831 
Q 1191 1081 1462 751 
Q 1734 422 2344 422 
Q 2950 422 3222 751 
Q 3494 1081 3494 1831 
L 3494 4666 
L 4128 4666 
L 4128 1753 
Q 4128 841 3676 375 
Q 3225 -91 2344 -91 
Q 1459 -91 1007 375 
Q 556 841 556 1753 
L 556 4666 
z
" transform="scale(0.015625)"/>
      <path id="DejaVuSans-3a" d="M 750 794 
L 1409 794 
L 1409 0 
L 750 0 
L 750 794 
z
M 750 3309 
L 1409 3309 
L 1409 2516 
L 750 2516 
L 750 3309 
z
" transform="scale(0.015625)"/>
      <path id="DejaVuSans-39" d="M 703 97 
L 703 672 
Q 941 559 1184 500 
Q 1428 441 1663 441 
Q 2288 441 2617 861 
Q 2947 1281 2994 2138 
Q 2813 1869 2534 1725 
Q 2256 1581 1919 1581 
Q 1219 1581 811 2004 
Q 403 2428 403 3163 
Q 403 3881 828 4315 
Q 1253 4750 1959 4750 
Q 2769 4750 3195 4129 
Q 3622 3509 3622 2328 
Q 3622 1225 3098 567 
Q 2575 -91 1691 -91 
Q 1453 -91 1209 -44 
Q 966 3 703 97 
z
M 1959 2075 
Q 2384 2075 2632 2365 
Q 2881 2656 2881 3163 
Q 2881 3666 2632 3958 
Q 2384 4250 1959 4250 
Q 1534 4250 1286 3958 
Q 1038 3666 1038 3163 
Q 1038 2656 1286 2365 
Q 1534 2075 1959 2075 
z
" transform="scale(0.015625)"/>
      <path id="DejaVuSans-2c" d="M 750 794 
L 1409 794 
L 1409 256 
L 897 -744 
L 494 -744 
L 750 256 
L 750 794 
z
" transform="scale(0.015625)"/>
      <path id="DejaVuSans-54" d="M -19 4666 
L 3928 4666 
L 3928 4134 
L 2272 4134 
L 2272 0 
L 1638 0 
L 1638 4134 
L -19 4134 
L -19 4666 
z
" transform="scale(0.015625)"/>
      <path id="DejaVuSans-70" d="M 1159 525 
L 1159 -1331 
L 581 -1331 
L 581 3500 
L 1159 3500 
L 1159 2969 
Q 1341 3281 1617 3432 
Q 1894 3584 2278 3584 
Q 2916 3584 3314 3078 
Q 3713 2572 3713 1747 
Q 3713 922 3314 415 
Q 2916 -91 2278 -91 
Q 1894 -91 1617 61 
Q 1341 213 1159 525 
z
M 3116 1747 
Q 3116 2381 2855 2742 
Q 2594 3103 2138 3103 
Q 1681 3103 1420 2742 
Q 1159 2381 1159 1747 
Q 1159 1113 1420 752 
Q 1681 391 2138 391 
Q 2594 391 2855 752 
Q 3116 1113 3116 1747 
z
" transform="scale(0.015625)"/>
      <path id="DejaVuSans-6b" d="M 581 4863 
L 1159 4863 
L 1159 1991 
L 2875 3500 
L 3609 3500 
L 1753 1863 
L 3688 0 
L 2938 0 
L 1159 1709 
L 1159 0 
L 581 0 
L 581 4863 
z
" transform="scale(0.015625)"/>
     </defs>
     <use xlink:href="#DejaVuSans-41"/>
     <use xlink:href="#DejaVuSans-55" transform="translate(68.408203 0)"/>
     <use xlink:href="#DejaVuSans-52" transform="translate(141.601562 0)"/>
     <use xlink:href="#DejaVuSans-50" transform="translate(211.083984 0)"/>
     <use xlink:href="#DejaVuSans-43" transform="translate(271.386719 0)"/>
     <use xlink:href="#DejaVuSans-3a" transform="translate(341.210938 0)"/>
     <use xlink:href="#DejaVuSans-20" transform="translate(374.902344 0)"/>
     <use xlink:href="#DejaVuSans-30" transform="translate(406.689453 0)"/>
     <use xlink:href="#DejaVuSans-2e" transform="translate(470.3125 0)"/>
     <use xlink:href="#DejaVuSans-39" transform="translate(502.099609 0)"/>
     <use xlink:href="#DejaVuSans-31" transform="translate(565.722656 0)"/>
     <use xlink:href="#DejaVuSans-32" transform="translate(629.345703 0)"/>
     <use xlink:href="#DejaVuSans-2c" transform="translate(692.96875 0)"/>
     <use xlink:href="#DejaVuSans-20" transform="translate(724.755859 0)"/>
     <use xlink:href="#DejaVuSans-54" transform="translate(756.542969 0)"/>
     <use xlink:href="#DejaVuSans-6f" transform="translate(800.626953 0)"/>
     <use xlink:href="#DejaVuSans-70" transform="translate(861.808594 0)"/>
     <use xlink:href="#DejaVuSans-2d" transform="translate(925.285156 0)"/>
     <use xlink:href="#DejaVuSans-6b" transform="translate(961.369141 0)"/>
     <use xlink:href="#DejaVuSans-3a" transform="translate(1019.279297 0)"/>
     <use xlink:href="#DejaVuSans-20" transform="translate(1052.970703 0)"/>
     <use xlink:href="#DejaVuSans-30" transform="translate(1084.757812 0)"/>
     <use xlink:href="#DejaVuSans-2e" transform="translate(1148.380859 0)"/>
     <use xlink:href="#DejaVuSans-39" transform="translate(1180.167969 0)"/>
     <use xlink:href="#DejaVuSans-31" transform="translate(1243.791016 0)"/>
     <use xlink:href="#DejaVuSans-31" transform="translate(1307.414062 0)"/>
    </g>
   </g>
  </g>
 </g>
 <defs>
  <clipPath id="p66e4930424">
   <rect x="90" y="51.84" width="558" height="332.64"/>
  </clipPath>
 </defs>
</svg>
