<?xml version="1.0" encoding="utf-8" standalone="no"?>
<!DOCTYPE svg PUBLIC "-//W3C//DTD SVG 1.1//EN"
  "http://www.w3.org/Graphics/SVG/1.1/DTD/svg11.dtd">
<svg xmlns:xlink="http://www.w3.org/1999/xlink" width="720pt" height="432pt" viewBox="0 0 720 432" xmlns="http://www.w3.org/2000/svg" version="1.1">
 <metadata>
  <rdf:RDF xmlns:dc="http://purl.org/dc/elements/1.1/" xmlns:cc="http://creativecommons.org/ns#" xmlns:rdf="http://www.w3.org/1999/02/22-rdf-syntax-ns#">
   <cc:Work>
    <dc:type rdf:resource="http://purl.org/dc/dcmitype/StillImage"/>
    <dc:date>2025-04-21T00:35:36.095392</dc:date>
    <dc:format>image/svg+xml</dc:format>
    <dc:creator>
     <cc:Agent>
      <dc:title>Matplotlib v3.10.1, https://matplotlib.org/</dc:title>
     </cc:Agent>
    </dc:creator>
   </cc:Work>
  </rdf:RDF>
 </metadata>
 <defs>
  <style type="text/css">*{stroke-linejoin: round; stroke-linecap: butt}</style>
 </defs>
 <g id="figure_1">
  <g id="patch_1">
   <path d="M 0 432 
L 720 432 
L 720 0 
L 0 0 
z
" style="fill: #ffffff"/>
  </g>
  <g id="axes_1">
   <g id="patch_2">
    <path d="M 90 384.48 
L 648 384.48 
L 648 51.84 
L 90 51.84 
z
" style="fill: #ffffff"/>
   </g>
   <g id="matplotlib.axis_1">
    <g id="xtick_1">
     <g id="line2d_1">
      <path d="M 115.363636 384.48 
L 115.363636 51.84 
" clip-path="url(#p1b597637db)" style="fill: none; stroke: #b0b0b0; stroke-width: 0.8; stroke-linecap: square"/>
     </g>
     <g id="line2d_2">
      <defs>
       <path id="mc65905aa56" d="M 0 0 
L 0 3.5 
" style="stroke: #000000; stroke-width: 0.8"/>
      </defs>
      <g>
       <use xlink:href="#mc65905aa56" x="115.363636" y="384.48" style="stroke: #000000; stroke-width: 0.8"/>
      </g>
     </g>
     <g id="text_1">
      <!-- 0.0 -->
      <g transform="translate(107.412074 399.078438) scale(0.1 -0.1)">
       <defs>
        <path id="DejaVuSans-30" d="M 2034 4250 
Q 1547 4250 1301 3770 
Q 1056 3291 1056 2328 
Q 1056 1369 1301 889 
Q 1547 409 2034 409 
Q 2525 409 2770 889 
Q 3016 1369 3016 2328 
Q 3016 3291 2770 3770 
Q 2525 4250 2034 4250 
z
M 2034 4750 
Q 2819 4750 3233 4129 
Q 3647 3509 3647 2328 
Q 3647 1150 3233 529 
Q 2819 -91 2034 -91 
Q 1250 -91 836 529 
Q 422 1150 422 2328 
Q 422 3509 836 4129 
Q 1250 4750 2034 4750 
z
" transform="scale(0.015625)"/>
        <path id="DejaVuSans-2e" d="M 684 794 
L 1344 794 
L 1344 0 
L 684 0 
L 684 794 
z
" transform="scale(0.015625)"/>
       </defs>
       <use xlink:href="#DejaVuSans-30"/>
       <use xlink:href="#DejaVuSans-2e" transform="translate(63.623047 0)"/>
       <use xlink:href="#DejaVuSans-30" transform="translate(95.410156 0)"/>
      </g>
     </g>
    </g>
    <g id="xtick_2">
     <g id="line2d_3">
      <path d="M 216.818182 384.48 
L 216.818182 51.84 
" clip-path="url(#p1b597637db)" style="fill: none; stroke: #b0b0b0; stroke-width: 0.8; stroke-linecap: square"/>
     </g>
     <g id="line2d_4">
      <g>
       <use xlink:href="#mc65905aa56" x="216.818182" y="384.48" style="stroke: #000000; stroke-width: 0.8"/>
      </g>
     </g>
     <g id="text_2">
      <!-- 0.2 -->
      <g transform="translate(208.866619 399.078438) scale(0.1 -0.1)">
       <defs>
        <path id="DejaVuSans-32" d="M 1228 531 
L 3431 531 
L 3431 0 
L 469 0 
L 469 531 
Q 828 903 1448 1529 
Q 2069 2156 2228 2338 
Q 2531 2678 2651 2914 
Q 2772 3150 2772 3378 
Q 2772 3750 2511 3984 
Q 2250 4219 1831 4219 
Q 1534 4219 1204 4116 
Q 875 4013 500 3803 
L 500 4441 
Q 881 4594 1212 4672 
Q 1544 4750 1819 4750 
Q 2544 4750 2975 4387 
Q 3406 4025 3406 3419 
Q 3406 3131 3298 2873 
Q 3191 2616 2906 2266 
Q 2828 2175 2409 1742 
Q 1991 1309 1228 531 
z
" transform="scale(0.015625)"/>
       </defs>
       <use xlink:href="#DejaVuSans-30"/>
       <use xlink:href="#DejaVuSans-2e" transform="translate(63.623047 0)"/>
       <use xlink:href="#DejaVuSans-32" transform="translate(95.410156 0)"/>
      </g>
     </g>
    </g>
    <g id="xtick_3">
     <g id="line2d_5">
      <path d="M 318.272727 384.48 
L 318.272727 51.84 
" clip-path="url(#p1b597637db)" style="fill: none; stroke: #b0b0b0; stroke-width: 0.8; stroke-linecap: square"/>
     </g>
     <g id="line2d_6">
      <g>
       <use xlink:href="#mc65905aa56" x="318.272727" y="384.48" style="stroke: #000000; stroke-width: 0.8"/>
      </g>
     </g>
     <g id="text_3">
      <!-- 0.4 -->
      <g transform="translate(310.321165 399.078438) scale(0.1 -0.1)">
       <defs>
        <path id="DejaVuSans-34" d="M 2419 4116 
L 825 1625 
L 2419 1625 
L 2419 4116 
z
M 2253 4666 
L 3047 4666 
L 3047 1625 
L 3713 1625 
L 3713 1100 
L 3047 1100 
L 3047 0 
L 2419 0 
L 2419 1100 
L 313 1100 
L 313 1709 
L 2253 4666 
z
" transform="scale(0.015625)"/>
       </defs>
       <use xlink:href="#DejaVuSans-30"/>
       <use xlink:href="#DejaVuSans-2e" transform="translate(63.623047 0)"/>
       <use xlink:href="#DejaVuSans-34" transform="translate(95.410156 0)"/>
      </g>
     </g>
    </g>
    <g id="xtick_4">
     <g id="line2d_7">
      <path d="M 419.727273 384.48 
L 419.727273 51.84 
" clip-path="url(#p1b597637db)" style="fill: none; stroke: #b0b0b0; stroke-width: 0.8; stroke-linecap: square"/>
     </g>
     <g id="line2d_8">
      <g>
       <use xlink:href="#mc65905aa56" x="419.727273" y="384.48" style="stroke: #000000; stroke-width: 0.8"/>
      </g>
     </g>
     <g id="text_4">
      <!-- 0.6 -->
      <g transform="translate(411.77571 399.078438) scale(0.1 -0.1)">
       <defs>
        <path id="DejaVuSans-36" d="M 2113 2584 
Q 1688 2584 1439 2293 
Q 1191 2003 1191 1497 
Q 1191 994 1439 701 
Q 1688 409 2113 409 
Q 2538 409 2786 701 
Q 3034 994 3034 1497 
Q 3034 2003 2786 2293 
Q 2538 2584 2113 2584 
z
M 3366 4563 
L 3366 3988 
Q 3128 4100 2886 4159 
Q 2644 4219 2406 4219 
Q 1781 4219 1451 3797 
Q 1122 3375 1075 2522 
Q 1259 2794 1537 2939 
Q 1816 3084 2150 3084 
Q 2853 3084 3261 2657 
Q 3669 2231 3669 1497 
Q 3669 778 3244 343 
Q 2819 -91 2113 -91 
Q 1303 -91 875 529 
Q 447 1150 447 2328 
Q 447 3434 972 4092 
Q 1497 4750 2381 4750 
Q 2619 4750 2861 4703 
Q 3103 4656 3366 4563 
z
" transform="scale(0.015625)"/>
       </defs>
       <use xlink:href="#DejaVuSans-30"/>
       <use xlink:href="#DejaVuSans-2e" transform="translate(63.623047 0)"/>
       <use xlink:href="#DejaVuSans-36" transform="translate(95.410156 0)"/>
      </g>
     </g>
    </g>
    <g id="xtick_5">
     <g id="line2d_9">
      <path d="M 521.181818 384.48 
L 521.181818 51.84 
" clip-path="url(#p1b597637db)" style="fill: none; stroke: #b0b0b0; stroke-width: 0.8; stroke-linecap: square"/>
     </g>
     <g id="line2d_10">
      <g>
       <use xlink:href="#mc65905aa56" x="521.181818" y="384.48" style="stroke: #000000; stroke-width: 0.8"/>
      </g>
     </g>
     <g id="text_5">
      <!-- 0.8 -->
      <g transform="translate(513.230256 399.078438) scale(0.1 -0.1)">
       <defs>
        <path id="DejaVuSans-38" d="M 2034 2216 
Q 1584 2216 1326 1975 
Q 1069 1734 1069 1313 
Q 1069 891 1326 650 
Q 1584 409 2034 409 
Q 2484 409 2743 651 
Q 3003 894 3003 1313 
Q 3003 1734 2745 1975 
Q 2488 2216 2034 2216 
z
M 1403 2484 
Q 997 2584 770 2862 
Q 544 3141 544 3541 
Q 544 4100 942 4425 
Q 1341 4750 2034 4750 
Q 2731 4750 3128 4425 
Q 3525 4100 3525 3541 
Q 3525 3141 3298 2862 
Q 3072 2584 2669 2484 
Q 3125 2378 3379 2068 
Q 3634 1759 3634 1313 
Q 3634 634 3220 271 
Q 2806 -91 2034 -91 
Q 1263 -91 848 271 
Q 434 634 434 1313 
Q 434 1759 690 2068 
Q 947 2378 1403 2484 
z
M 1172 3481 
Q 1172 3119 1398 2916 
Q 1625 2713 2034 2713 
Q 2441 2713 2670 2916 
Q 2900 3119 2900 3481 
Q 2900 3844 2670 4047 
Q 2441 4250 2034 4250 
Q 1625 4250 1398 4047 
Q 1172 3844 1172 3481 
z
" transform="scale(0.015625)"/>
       </defs>
       <use xlink:href="#DejaVuSans-30"/>
       <use xlink:href="#DejaVuSans-2e" transform="translate(63.623047 0)"/>
       <use xlink:href="#DejaVuSans-38" transform="translate(95.410156 0)"/>
      </g>
     </g>
    </g>
    <g id="xtick_6">
     <g id="line2d_11">
      <path d="M 622.636364 384.48 
L 622.636364 51.84 
" clip-path="url(#p1b597637db)" style="fill: none; stroke: #b0b0b0; stroke-width: 0.8; stroke-linecap: square"/>
     </g>
     <g id="line2d_12">
      <g>
       <use xlink:href="#mc65905aa56" x="622.636364" y="384.48" style="stroke: #000000; stroke-width: 0.8"/>
      </g>
     </g>
     <g id="text_6">
      <!-- 1.0 -->
      <g transform="translate(614.684801 399.078438) scale(0.1 -0.1)">
       <defs>
        <path id="DejaVuSans-31" d="M 794 531 
L 1825 531 
L 1825 4091 
L 703 3866 
L 703 4441 
L 1819 4666 
L 2450 4666 
L 2450 531 
L 3481 531 
L 3481 0 
L 794 0 
L 794 531 
z
" transform="scale(0.015625)"/>
       </defs>
       <use xlink:href="#DejaVuSans-31"/>
       <use xlink:href="#DejaVuSans-2e" transform="translate(63.623047 0)"/>
       <use xlink:href="#DejaVuSans-30" transform="translate(95.410156 0)"/>
      </g>
     </g>
    </g>
    <g id="text_7">
     <!-- Recall -->
     <g transform="translate(354.082812 412.756563) scale(0.1 -0.1)">
      <defs>
       <path id="DejaVuSans-52" d="M 2841 2188 
Q 3044 2119 3236 1894 
Q 3428 1669 3622 1275 
L 4263 0 
L 3584 0 
L 2988 1197 
Q 2756 1666 2539 1819 
Q 2322 1972 1947 1972 
L 1259 1972 
L 1259 0 
L 628 0 
L 628 4666 
L 2053 4666 
Q 2853 4666 3247 4331 
Q 3641 3997 3641 3322 
Q 3641 2881 3436 2590 
Q 3231 2300 2841 2188 
z
M 1259 4147 
L 1259 2491 
L 2053 2491 
Q 2509 2491 2742 2702 
Q 2975 2913 2975 3322 
Q 2975 3731 2742 3939 
Q 2509 4147 2053 4147 
L 1259 4147 
z
" transform="scale(0.015625)"/>
       <path id="DejaVuSans-65" d="M 3597 1894 
L 3597 1613 
L 953 1613 
Q 991 1019 1311 708 
Q 1631 397 2203 397 
Q 2534 397 2845 478 
Q 3156 559 3463 722 
L 3463 178 
Q 3153 47 2828 -22 
Q 2503 -91 2169 -91 
Q 1331 -91 842 396 
Q 353 884 353 1716 
Q 353 2575 817 3079 
Q 1281 3584 2069 3584 
Q 2775 3584 3186 3129 
Q 3597 2675 3597 1894 
z
M 3022 2063 
Q 3016 2534 2758 2815 
Q 2500 3097 2075 3097 
Q 1594 3097 1305 2825 
Q 1016 2553 972 2059 
L 3022 2063 
z
" transform="scale(0.015625)"/>
       <path id="DejaVuSans-63" d="M 3122 3366 
L 3122 2828 
Q 2878 2963 2633 3030 
Q 2388 3097 2138 3097 
Q 1578 3097 1268 2742 
Q 959 2388 959 1747 
Q 959 1106 1268 751 
Q 1578 397 2138 397 
Q 2388 397 2633 464 
Q 2878 531 3122 666 
L 3122 134 
Q 2881 22 2623 -34 
Q 2366 -91 2075 -91 
Q 1284 -91 818 406 
Q 353 903 353 1747 
Q 353 2603 823 3093 
Q 1294 3584 2113 3584 
Q 2378 3584 2631 3529 
Q 2884 3475 3122 3366 
z
" transform="scale(0.015625)"/>
       <path id="DejaVuSans-61" d="M 2194 1759 
Q 1497 1759 1228 1600 
Q 959 1441 959 1056 
Q 959 750 1161 570 
Q 1363 391 1709 391 
Q 2188 391 2477 730 
Q 2766 1069 2766 1631 
L 2766 1759 
L 2194 1759 
z
M 3341 1997 
L 3341 0 
L 2766 0 
L 2766 531 
Q 2569 213 2275 61 
Q 1981 -91 1556 -91 
Q 1019 -91 701 211 
Q 384 513 384 1019 
Q 384 1609 779 1909 
Q 1175 2209 1959 2209 
L 2766 2209 
L 2766 2266 
Q 2766 2663 2505 2880 
Q 2244 3097 1772 3097 
Q 1472 3097 1187 3025 
Q 903 2953 641 2809 
L 641 3341 
Q 956 3463 1253 3523 
Q 1550 3584 1831 3584 
Q 2591 3584 2966 3190 
Q 3341 2797 3341 1997 
z
" transform="scale(0.015625)"/>
       <path id="DejaVuSans-6c" d="M 603 4863 
L 1178 4863 
L 1178 0 
L 603 0 
L 603 4863 
z
" transform="scale(0.015625)"/>
      </defs>
      <use xlink:href="#DejaVuSans-52"/>
      <use xlink:href="#DejaVuSans-65" transform="translate(64.982422 0)"/>
      <use xlink:href="#DejaVuSans-63" transform="translate(126.505859 0)"/>
      <use xlink:href="#DejaVuSans-61" transform="translate(181.486328 0)"/>
      <use xlink:href="#DejaVuSans-6c" transform="translate(242.765625 0)"/>
      <use xlink:href="#DejaVuSans-6c" transform="translate(270.548828 0)"/>
     </g>
    </g>
   </g>
   <g id="matplotlib.axis_2">
    <g id="ytick_1">
     <g id="line2d_13">
      <path d="M 90 369.801737 
L 648 369.801737 
" clip-path="url(#p1b597637db)" style="fill: none; stroke: #b0b0b0; stroke-width: 0.8; stroke-linecap: square"/>
     </g>
     <g id="line2d_14">
      <defs>
       <path id="m5ab9f80243" d="M 0 0 
L -3.5 0 
" style="stroke: #000000; stroke-width: 0.8"/>
      </defs>
      <g>
       <use xlink:href="#m5ab9f80243" x="90" y="369.801737" style="stroke: #000000; stroke-width: 0.8"/>
      </g>
     </g>
     <g id="text_8">
      <!-- 0.0 -->
      <g transform="translate(67.096875 373.600955) scale(0.1 -0.1)">
       <use xlink:href="#DejaVuSans-30"/>
       <use xlink:href="#DejaVuSans-2e" transform="translate(63.623047 0)"/>
       <use xlink:href="#DejaVuSans-30" transform="translate(95.410156 0)"/>
      </g>
     </g>
    </g>
    <g id="ytick_2">
     <g id="line2d_15">
      <path d="M 90 309.233389 
L 648 309.233389 
" clip-path="url(#p1b597637db)" style="fill: none; stroke: #b0b0b0; stroke-width: 0.8; stroke-linecap: square"/>
     </g>
     <g id="line2d_16">
      <g>
       <use xlink:href="#m5ab9f80243" x="90" y="309.233389" style="stroke: #000000; stroke-width: 0.8"/>
      </g>
     </g>
     <g id="text_9">
      <!-- 0.2 -->
      <g transform="translate(67.096875 313.032608) scale(0.1 -0.1)">
       <use xlink:href="#DejaVuSans-30"/>
       <use xlink:href="#DejaVuSans-2e" transform="translate(63.623047 0)"/>
       <use xlink:href="#DejaVuSans-32" transform="translate(95.410156 0)"/>
      </g>
     </g>
    </g>
    <g id="ytick_3">
     <g id="line2d_17">
      <path d="M 90 248.665042 
L 648 248.665042 
" clip-path="url(#p1b597637db)" style="fill: none; stroke: #b0b0b0; stroke-width: 0.8; stroke-linecap: square"/>
     </g>
     <g id="line2d_18">
      <g>
       <use xlink:href="#m5ab9f80243" x="90" y="248.665042" style="stroke: #000000; stroke-width: 0.8"/>
      </g>
     </g>
     <g id="text_10">
      <!-- 0.4 -->
      <g transform="translate(67.096875 252.464261) scale(0.1 -0.1)">
       <use xlink:href="#DejaVuSans-30"/>
       <use xlink:href="#DejaVuSans-2e" transform="translate(63.623047 0)"/>
       <use xlink:href="#DejaVuSans-34" transform="translate(95.410156 0)"/>
      </g>
     </g>
    </g>
    <g id="ytick_4">
     <g id="line2d_19">
      <path d="M 90 188.096695 
L 648 188.096695 
" clip-path="url(#p1b597637db)" style="fill: none; stroke: #b0b0b0; stroke-width: 0.8; stroke-linecap: square"/>
     </g>
     <g id="line2d_20">
      <g>
       <use xlink:href="#m5ab9f80243" x="90" y="188.096695" style="stroke: #000000; stroke-width: 0.8"/>
      </g>
     </g>
     <g id="text_11">
      <!-- 0.6 -->
      <g transform="translate(67.096875 191.895913) scale(0.1 -0.1)">
       <use xlink:href="#DejaVuSans-30"/>
       <use xlink:href="#DejaVuSans-2e" transform="translate(63.623047 0)"/>
       <use xlink:href="#DejaVuSans-36" transform="translate(95.410156 0)"/>
      </g>
     </g>
    </g>
    <g id="ytick_5">
     <g id="line2d_21">
      <path d="M 90 127.528347 
L 648 127.528347 
" clip-path="url(#p1b597637db)" style="fill: none; stroke: #b0b0b0; stroke-width: 0.8; stroke-linecap: square"/>
     </g>
     <g id="line2d_22">
      <g>
       <use xlink:href="#m5ab9f80243" x="90" y="127.528347" style="stroke: #000000; stroke-width: 0.8"/>
      </g>
     </g>
     <g id="text_12">
      <!-- 0.8 -->
      <g transform="translate(67.096875 131.327566) scale(0.1 -0.1)">
       <use xlink:href="#DejaVuSans-30"/>
       <use xlink:href="#DejaVuSans-2e" transform="translate(63.623047 0)"/>
       <use xlink:href="#DejaVuSans-38" transform="translate(95.410156 0)"/>
      </g>
     </g>
    </g>
    <g id="ytick_6">
     <g id="line2d_23">
      <path d="M 90 66.96 
L 648 66.96 
" clip-path="url(#p1b597637db)" style="fill: none; stroke: #b0b0b0; stroke-width: 0.8; stroke-linecap: square"/>
     </g>
     <g id="line2d_24">
      <g>
       <use xlink:href="#m5ab9f80243" x="90" y="66.96" style="stroke: #000000; stroke-width: 0.8"/>
      </g>
     </g>
     <g id="text_13">
      <!-- 1.0 -->
      <g transform="translate(67.096875 70.759219) scale(0.1 -0.1)">
       <use xlink:href="#DejaVuSans-31"/>
       <use xlink:href="#DejaVuSans-2e" transform="translate(63.623047 0)"/>
       <use xlink:href="#DejaVuSans-30" transform="translate(95.410156 0)"/>
      </g>
     </g>
    </g>
    <g id="text_14">
     <!-- Precision -->
     <g transform="translate(61.017187 240.467031) rotate(-90) scale(0.1 -0.1)">
      <defs>
       <path id="DejaVuSans-50" d="M 1259 4147 
L 1259 2394 
L 2053 2394 
Q 2494 2394 2734 2622 
Q 2975 2850 2975 3272 
Q 2975 3691 2734 3919 
Q 2494 4147 2053 4147 
L 1259 4147 
z
M 628 4666 
L 2053 4666 
Q 2838 4666 3239 4311 
Q 3641 3956 3641 3272 
Q 3641 2581 3239 2228 
Q 2838 1875 2053 1875 
L 1259 1875 
L 1259 0 
L 628 0 
L 628 4666 
z
" transform="scale(0.015625)"/>
       <path id="DejaVuSans-72" d="M 2631 2963 
Q 2534 3019 2420 3045 
Q 2306 3072 2169 3072 
Q 1681 3072 1420 2755 
Q 1159 2438 1159 1844 
L 1159 0 
L 581 0 
L 581 3500 
L 1159 3500 
L 1159 2956 
Q 1341 3275 1631 3429 
Q 1922 3584 2338 3584 
Q 2397 3584 2469 3576 
Q 2541 3569 2628 3553 
L 2631 2963 
z
" transform="scale(0.015625)"/>
       <path id="DejaVuSans-69" d="M 603 3500 
L 1178 3500 
L 1178 0 
L 603 0 
L 603 3500 
z
M 603 4863 
L 1178 4863 
L 1178 4134 
L 603 4134 
L 603 4863 
z
" transform="scale(0.015625)"/>
       <path id="DejaVuSans-73" d="M 2834 3397 
L 2834 2853 
Q 2591 2978 2328 3040 
Q 2066 3103 1784 3103 
Q 1356 3103 1142 2972 
Q 928 2841 928 2578 
Q 928 2378 1081 2264 
Q 1234 2150 1697 2047 
L 1894 2003 
Q 2506 1872 2764 1633 
Q 3022 1394 3022 966 
Q 3022 478 2636 193 
Q 2250 -91 1575 -91 
Q 1294 -91 989 -36 
Q 684 19 347 128 
L 347 722 
Q 666 556 975 473 
Q 1284 391 1588 391 
Q 1994 391 2212 530 
Q 2431 669 2431 922 
Q 2431 1156 2273 1281 
Q 2116 1406 1581 1522 
L 1381 1569 
Q 847 1681 609 1914 
Q 372 2147 372 2553 
Q 372 3047 722 3315 
Q 1072 3584 1716 3584 
Q 2034 3584 2315 3537 
Q 2597 3491 2834 3397 
z
" transform="scale(0.015625)"/>
       <path id="DejaVuSans-6f" d="M 1959 3097 
Q 1497 3097 1228 2736 
Q 959 2375 959 1747 
Q 959 1119 1226 758 
Q 1494 397 1959 397 
Q 2419 397 2687 759 
Q 2956 1122 2956 1747 
Q 2956 2369 2687 2733 
Q 2419 3097 1959 3097 
z
M 1959 3584 
Q 2709 3584 3137 3096 
Q 3566 2609 3566 1747 
Q 3566 888 3137 398 
Q 2709 -91 1959 -91 
Q 1206 -91 779 398 
Q 353 888 353 1747 
Q 353 2609 779 3096 
Q 1206 3584 1959 3584 
z
" transform="scale(0.015625)"/>
       <path id="DejaVuSans-6e" d="M 3513 2113 
L 3513 0 
L 2938 0 
L 2938 2094 
Q 2938 2591 2744 2837 
Q 2550 3084 2163 3084 
Q 1697 3084 1428 2787 
Q 1159 2491 1159 1978 
L 1159 0 
L 581 0 
L 581 3500 
L 1159 3500 
L 1159 2956 
Q 1366 3272 1645 3428 
Q 1925 3584 2291 3584 
Q 2894 3584 3203 3211 
Q 3513 2838 3513 2113 
z
" transform="scale(0.015625)"/>
      </defs>
      <use xlink:href="#DejaVuSans-50"/>
      <use xlink:href="#DejaVuSans-72" transform="translate(58.552734 0)"/>
      <use xlink:href="#DejaVuSans-65" transform="translate(97.416016 0)"/>
      <use xlink:href="#DejaVuSans-63" transform="translate(158.939453 0)"/>
      <use xlink:href="#DejaVuSans-69" transform="translate(213.919922 0)"/>
      <use xlink:href="#DejaVuSans-73" transform="translate(241.703125 0)"/>
      <use xlink:href="#DejaVuSans-69" transform="translate(293.802734 0)"/>
      <use xlink:href="#DejaVuSans-6f" transform="translate(321.585938 0)"/>
      <use xlink:href="#DejaVuSans-6e" transform="translate(382.767578 0)"/>
     </g>
    </g>
   </g>
   <g id="line2d_25">
    <path d="M 622.636364 369.353015 
L 622.560436 369.349196 
L 619.978895 369.242158 
L 619.978895 369.240385 
L 619.902968 369.23753 
L 616.25844 369.132722 
L 616.25844 369.13048 
L 616.182512 369.12611 
L 611.323142 369.024599 
L 611.323142 369.02154 
L 611.247214 369.019879 
L 607.906397 368.921748 
L 607.906397 368.914022 
L 607.906397 368.913275 
L 605.400784 368.808466 
L 605.400784 368.806671 
L 605.400784 368.803299 
L 602.515533 368.707322 
L 602.515533 368.698047 
L 602.439605 368.688487 
L 600.31363 368.583666 
L 600.31363 368.582219 
L 600.31363 368.568161 
L 598.491366 368.471118 
L 598.491366 368.46167 
L 598.491366 368.445963 
L 596.896885 368.342104 
L 596.896885 368.339308 
L 596.820958 368.333832 
L 595.833898 368.233145 
L 595.833898 368.225716 
L 595.833898 368.216385 
L 594.087562 368.114209 
L 594.087562 368.111005 
L 594.011634 368.091251 
L 592.265298 367.995761 
L 592.265298 367.986347 
L 592.18937 367.949533 
L 591.885659 367.854004 
L 591.885659 367.839597 
L 591.809732 367.79487 
L 590.670817 367.690796 
L 590.670817 367.688525 
L 590.594889 367.640471 
L 590.367106 367.56689 
L 590.367106 367.530387 
L 590.367106 367.512272 
L 589.60783 367.429248 
L 589.60783 367.404794 
L 589.60783 367.363978 
L 589.000408 367.276983 
L 589.000408 367.255963 
L 588.924481 367.24336 
L 588.317059 367.163561 
L 588.317059 367.135502 
L 588.241132 367.075361 
L 587.937421 366.98173 
L 587.937421 366.965994 
L 587.861493 366.937836 
L 587.63371 366.905298 
L 587.63371 366.828093 
L 587.557783 366.800647 
L 587.405927 366.692028 
L 587.405927 366.690496 
L 587.33 366.60568 
L 587.102217 366.568751 
L 587.102217 366.496093 
L 587.026289 366.427098 
L 586.950361 366.427635 
L 586.950361 366.316527 
L 586.950361 366.262677 
L 586.646651 366.20402 
L 586.646651 366.153827 
L 586.570723 366.136104 
L 586.494795 366.136687 
L 586.494795 366.025587 
L 586.418868 365.628664 
L 586.34294 365.629327 
L 586.34294 365.518221 
L 586.267012 365.472025 
L 586.115157 365.473401 
L 586.115157 365.362292 
L 586.115157 364.781553 
L 585.659591 364.728698 
L 585.659591 364.675279 
L 585.583663 363.702553 
L 585.507736 363.703518 
L 585.507736 363.592458 
L 585.507736 362.739357 
L 585.279953 362.742699 
L 585.279953 362.631629 
L 585.279953 361.179169 
L 585.128097 361.181876 
L 585.128097 361.070775 
L 585.05217 359.604146 
L 584.748459 359.587499 
L 584.748459 359.499421 
L 584.672531 358.733473 
L 584.596604 358.735198 
L 584.596604 358.624095 
L 584.520676 350.518954 
L 584.368821 350.524798 
L 584.368821 350.414115 
L 584.368821 350.179429 
L 584.216965 350.185371 
L 584.216965 350.074454 
L 584.141038 344.96486 
L 584.06511 344.968553 
L 584.06511 344.85755 
L 583.989182 330.50769 
L 583.913255 330.513231 
L 583.913255 330.402239 
L 583.913255 325.762799 
L 583.457689 325.799396 
L 583.457689 325.68815 
L 583.381761 318.130785 
L 583.305833 318.137738 
L 583.305833 318.028821 
L 583.305833 310.152851 
L 583.153978 310.168397 
L 583.153978 310.057646 
L 583.07805 285.217511 
L 582.394701 285.306612 
L 582.394701 285.19916 
L 582.394701 284.824796 
L 582.090991 284.864557 
L 582.090991 284.763677 
L 582.090991 259.066613 
L 581.939135 259.089471 
L 581.939135 258.977387 
L 581.863208 216.900132 
L 581.78728 216.912454 
L 581.78728 216.811869 
L 581.78728 191.794198 
L 581.635425 191.818092 
L 581.635425 191.749931 
L 581.635425 166.06038 
L 581.331714 166.103826 
L 581.331714 165.992137 
L 581.255786 134.908942 
L 581.103931 134.926125 
L 581.103931 134.836999 
L 581.028003 124.48033 
L 580.80022 124.503131 
L 580.80022 124.405855 
L 580.724293 117.337509 
L 580.572437 117.351217 
L 580.572437 117.282504 
L 580.49651 112.883238 
L 580.344654 112.895961 
L 580.344654 112.789154 
L 580.268727 107.63576 
L 580.192799 107.641512 
L 580.192799 107.530254 
L 580.192799 107.195913 
L 580.040944 107.207315 
L 580.040944 107.132883 
L 579.965016 105.036972 
L 579.889088 105.042413 
L 579.889088 105.004574 
L 579.813161 99.839203 
L 579.737233 99.843996 
L 579.737233 99.765279 
L 579.737233 99.292015 
L 579.585378 99.301462 
L 579.585378 99.222403 
L 579.50945 97.19512 
L 579.357595 97.204027 
L 579.357595 97.123697 
L 579.281667 96.96732 
L 579.129812 96.976172 
L 579.129812 96.895669 
L 579.129812 96.41165 
L 578.902029 96.424714 
L 578.902029 96.343845 
L 578.902029 96.060427 
L 578.826101 96.064737 
L 578.750173 96.069047 
L 578.750173 96.0285 
L 578.750173 91.326052 
L 578.598318 91.333397 
L 578.598318 91.249432 
L 578.52239 90.916683 
L 578.294608 90.927538 
L 578.294608 90.885412 
L 578.21868 87.993886 
L 577.990897 87.960481 
L 577.990897 87.917425 
L 577.914969 87.489287 
L 577.839042 87.492429 
L 577.839042 87.40599 
L 577.763114 84.702621 
L 577.687186 84.705365 
L 577.687186 84.617181 
L 577.611259 84.310796 
L 577.383476 84.274627 
L 577.383476 84.23038 
L 577.383476 84.141844 
L 577.003837 84.155172 
L 577.003837 84.066516 
L 576.92791 83.847261 
L 576.851982 83.849884 
L 576.851982 83.76101 
L 576.776054 82.782206 
L 576.700127 82.784673 
L 576.700127 82.695107 
L 576.700127 82.560651 
L 576.624199 82.563087 
L 576.548271 82.565524 
L 576.548271 82.520664 
L 576.472344 81.306385 
L 576.092705 81.227042 
L 576.092705 81.091028 
L 575.637139 81.013533 
L 575.637139 80.922648 
L 575.485284 80.927044 
L 575.485284 80.836074 
L 575.485284 80.699512 
L 574.574152 80.634256 
L 574.574152 80.222792 
L 574.498224 80.224889 
L 574.346369 80.229086 
L 574.346369 80.137449 
L 574.346369 79.954001 
L 574.270441 79.956059 
L 573.890803 79.874462 
L 573.814875 79.600434 
L 573.131526 79.572388 
L 573.131526 79.526247 
L 573.131526 79.341535 
L 572.827816 79.349418 
L 572.827816 79.256918 
L 572.827816 79.164358 
L 572.296322 79.085263 
L 572.296322 78.992486 
L 571.537045 78.965235 
L 571.537045 78.918738 
L 571.461118 78.594707 
L 570.929624 78.514398 
L 570.929624 78.467695 
L 570.853696 78.46954 
L 570.777769 78.471386 
L 570.777769 78.377906 
L 570.701841 77.817509 
L 570.246275 77.73399 
L 570.170347 77.547507 
L 569.790709 77.46177 
L 569.790709 77.178586 
L 569.486998 77.185189 
L 569.486998 76.759118 
L 568.803649 76.725922 
L 568.727722 76.394628 
L 568.424011 76.400756 
L 568.424011 76.305449 
L 568.424011 76.257773 
L 568.348083 76.259283 
L 568.044373 76.265331 
L 568.044373 76.122095 
L 566.298036 76.060585 
L 566.298036 76.012603 
L 565.310977 75.93566 
L 565.235049 75.792677 
L 565.083194 75.795573 
L 565.083194 75.699161 
L 565.083194 75.650932 
L 565.007266 75.652358 
L 564.323917 75.568548 
L 564.24799 75.42483 
L 563.944279 75.333504 
L 563.944279 75.13952 
L 563.412785 75.051763 
L 563.412785 75.003141 
L 563.336858 75.004468 
L 563.109075 75.008452 
L 563.109075 74.862394 
L 563.033147 74.863699 
L 562.27387 74.779151 
L 562.27387 74.730314 
L 562.197943 74.731601 
L 560.527534 74.710977 
L 560.527534 74.661926 
L 560.527534 74.612859 
L 560.451606 74.614131 
L 559.99604 74.52348 
L 559.99604 74.474308 
L 559.920113 74.475559 
L 559.388619 74.385811 
L 559.388619 74.188571 
L 559.312691 74.189778 
L 557.71821 74.165685 
L 557.71821 74.11614 
L 557.71821 74.066578 
L 557.642283 74.067769 
L 556.731151 73.982712 
L 556.731151 73.932995 
L 551.87178 73.958552 
L 551.87178 73.757332 
L 551.795853 73.758488 
L 549.214312 73.696726 
L 549.138384 73.596491 
L 546.784627 73.529914 
L 546.784627 73.478894 
L 546.708699 73.480017 
L 545.721639 73.392315 
L 545.721639 73.136171 
L 545.645712 73.137239 
L 543.595665 73.063134 
L 543.519737 72.961036 
L 541.241907 72.888732 
L 541.241907 72.836824 
L 541.16598 72.837852 
L 536.686247 72.794173 
L 536.686247 72.74167 
L 532.434298 72.693385 
L 532.434298 72.640311 
L 532.35837 72.641326 
L 529.77683 72.569189 
L 529.77683 72.51573 
L 529.700902 72.516729 
L 527.802711 72.434363 
L 527.802711 72.380599 
L 522.184063 72.345087 
L 522.184063 72.290548 
L 520.285872 72.315094 
L 520.285872 72.205462 
L 520.285872 72.040862 
L 520.209944 72.041799 
L 514.287586 72.004528 
L 514.287586 71.893015 
L 512.996816 71.852803 
L 512.996816 71.740813 
L 507.681879 71.747784 
L 507.681879 71.57737 
L 507.605952 71.57825 
L 507.302241 71.581774 
L 507.302241 71.46795 
L 507.226313 71.46881 
L 502.291015 71.467793 
L 502.291015 71.352406 
L 502.215088 71.353255 
L 499.709475 71.323374 
L 499.709475 71.265248 
L 499.177981 71.271125 
L 499.177981 71.154648 
L 499.102053 71.155466 
L 489.383312 71.262934 
L 489.383312 71.203179 
L 489.383312 71.143399 
L 489.307385 71.144237 
L 483.005388 71.154142 
L 483.005388 71.093305 
L 472.982937 71.144999 
L 472.982937 71.019881 
L 472.907009 71.020731 
L 457.114055 71.140331 
L 457.114055 71.074878 
L 450.508348 71.088122 
L 450.508348 71.021355 
L 438.891415 71.096033 
L 438.891415 71.026872 
L 438.815488 71.027814 
L 436.613585 70.985648 
L 436.613585 70.915945 
L 436.537658 70.916868 
L 422.642895 71.02053 
L 422.642895 70.947675 
L 422.566967 70.948647 
L 420.896559 70.970165 
L 420.896559 70.823535 
L 409.583337 70.894011 
L 409.583337 70.817857 
L 409.507409 70.81884 
L 403.281341 70.823381 
L 403.281341 70.745522 
L 403.205413 70.746508 
L 396.371923 70.837408 
L 396.371923 70.677833 
L 388.551374 70.78292 
L 388.551374 70.618714 
L 388.475446 70.619719 
L 387.564314 70.549359 
L 387.564314 70.3843 
L 387.488386 70.385244 
L 383.616075 70.434122 
L 383.616075 70.266503 
L 383.540148 70.267429 
L 375.795526 70.364678 
L 375.795526 70.1055 
L 375.188105 70.026086 
L 375.188105 69.939346 
L 371.012083 69.987527 
L 371.012083 69.811114 
L 370.936155 69.811953 
L 363.723027 69.89398 
L 363.723027 69.712273 
L 362.735968 69.631862 
L 362.735968 69.540514 
L 362.66004 69.541299 
L 353.776503 69.541853 
L 353.776503 69.352115 
L 353.700576 69.352871 
L 346.031881 69.333678 
L 346.031881 69.235518 
L 345.955954 69.236261 
L 327.049965 69.331003 
L 327.049965 69.224036 
L 326.974038 69.224842 
L 293.110299 69.525368 
L 293.110299 69.398133 
L 258.790995 69.97572 
L 256.892803 70.015758 
L 256.892803 69.856467 
L 256.816876 69.858007 
L 254.614973 69.903386 
L 254.614973 69.741367 
L 254.539046 69.74287 
L 246.718496 69.906943 
L 246.718496 69.563224 
L 214.221456 70.181721 
L 214.221456 68.809415 
L 214.145528 68.810828 
L 195.695106 69.232733 
L 195.695106 68.950509 
L 195.619178 68.95238 
L 189.013471 69.129797 
L 189.013471 68.821732 
L 188.937543 68.823641 
L 182.028126 69.015487 
L 182.028126 68.674846 
L 180.357717 68.718663 
L 180.357717 68.017654 
L 180.28179 68.018887 
L 177.472466 68.066608 
L 177.472466 67.698638 
L 177.396538 67.69954 
L 158.870188 68.013363 
L 158.870188 67.487599 
L 156.744214 67.514655 
L 156.744214 66.96 
L 115.363636 66.96 
L 115.363636 66.96 
" clip-path="url(#p1b597637db)" style="fill: none; stroke: #1f77b4; stroke-width: 1.5; stroke-linecap: square"/>
   </g>
   <g id="line2d_26">
    <path d="M 622.636364 369.36 
L 622.636364 369.358456 
L 622.559235 369.358474 
L 616.851742 369.257604 
L 616.851742 369.252343 
L 616.774614 369.25 
L 612.224045 369.149094 
L 612.224045 369.143888 
L 612.146917 369.139273 
L 607.05645 369.038212 
L 607.05645 369.034936 
L 606.979322 369.030685 
L 602.891523 368.927749 
L 602.891523 368.925968 
L 602.814395 368.923061 
L 600.037776 368.825442 
L 600.037776 368.816941 
L 600.037776 368.805101 
L 597.492543 368.708431 
L 597.492543 368.699207 
L 597.415415 368.688044 
L 596.489875 368.593449 
L 596.489875 368.579063 
L 596.412747 368.572013 
L 595.178694 368.47396 
L 595.178694 368.464044 
L 595.178694 368.446991 
L 594.330283 368.341053 
L 594.330283 368.338266 
L 594.253155 368.292817 
L 593.559 368.193248 
L 593.559 368.183882 
L 593.481872 368.15077 
L 592.633461 368.047866 
L 592.633461 368.042573 
L 592.556333 368.022774 
L 591.862178 367.921475 
L 591.862178 367.914236 
L 591.78505 367.84934 
L 591.630793 367.821098 
L 591.630793 367.738859 
L 591.553665 367.431617 
L 591.32228 367.370916 
L 591.32228 367.321648 
L 591.245152 367.302678 
L 590.936639 367.283623 
L 590.936639 367.193173 
L 590.85951 367.073138 
L 590.628126 367.0209 
L 590.628126 366.963342 
L 590.550997 366.874456 
L 590.396741 366.778405 
L 590.396741 366.764284 
L 590.396741 366.741976 
L 590.088228 366.666708 
L 590.088228 366.632832 
L 590.011099 366.575889 
L 589.933971 366.576408 
L 589.933971 366.465308 
L 589.856843 366.365044 
L 589.702586 366.366149 
L 589.702586 366.25504 
L 589.702586 366.247222 
L 589.316945 366.227163 
L 589.316945 366.138965 
L 589.239816 366.087912 
L 589.162688 366.088509 
L 589.162688 365.977422 
L 589.08556 365.885306 
L 588.699918 365.820349 
L 588.699918 365.777347 
L 588.699918 365.704824 
L 588.314277 365.680298 
L 588.314277 365.59702 
L 588.237149 365.162435 
L 588.16002 365.16318 
L 588.16002 365.052074 
L 588.082892 364.148789 
L 587.928636 364.150599 
L 587.928636 364.03953 
L 587.851507 363.620016 
L 587.697251 363.547301 
L 587.697251 363.510874 
L 587.697251 363.190857 
L 587.388738 363.125447 
L 587.388738 363.083995 
L 587.311609 362.430778 
L 587.157353 362.433128 
L 587.157353 362.322034 
L 587.157353 362.309601 
L 587.003096 362.31199 
L 587.003096 362.200893 
L 587.003096 361.650761 
L 586.84884 361.653355 
L 586.84884 361.542367 
L 586.771711 359.957782 
L 586.694583 359.95934 
L 586.694583 359.848228 
L 586.694583 357.388991 
L 586.463198 357.394835 
L 586.463198 357.283753 
L 586.463198 356.815151 
L 586.308942 356.819221 
L 586.308942 356.708265 
L 586.231813 353.240185 
L 586.154685 353.24275 
L 586.154685 353.131649 
L 586.077557 349.534357 
L 586.000428 349.537456 
L 586.000428 349.42641 
L 585.9233 333.51307 
L 585.691915 333.528777 
L 585.691915 333.418008 
L 585.691915 314.691951 
L 585.537659 314.706738 
L 585.537659 314.602956 
L 585.46053 300.383896 
L 585.383402 300.392675 
L 585.383402 300.2881 
L 585.306274 208.280842 
L 585.229146 208.293213 
L 585.229146 208.194181 
L 585.229146 194.129307 
L 584.766376 194.202002 
L 584.766376 194.101564 
L 584.766376 192.649217 
L 584.612119 192.673384 
L 584.612119 192.571155 
L 584.534991 163.648392 
L 584.457863 163.659214 
L 584.457863 163.566887 
L 584.457863 138.612651 
L 584.303606 138.630643 
L 584.303606 138.54354 
L 584.226478 135.72991 
L 584.14935 135.738655 
L 584.14935 135.708887 
L 584.072221 124.647982 
L 583.763708 124.678737 
L 583.763708 124.580688 
L 583.68658 122.011004 
L 583.609452 122.018424 
L 583.609452 121.918201 
L 583.532323 116.529576 
L 583.378067 116.543239 
L 583.378067 116.438486 
L 583.300939 114.686378 
L 583.22381 114.693005 
L 583.22381 114.622132 
L 583.22381 114.480267 
L 583.069554 114.49348 
L 583.069554 114.386953 
L 582.992425 107.722169 
L 582.761041 107.739631 
L 582.761041 107.664767 
L 582.761041 106.725343 
L 582.529656 106.742451 
L 582.529656 106.70472 
L 582.529656 106.137456 
L 582.375399 106.148722 
L 582.375399 106.072884 
L 582.375399 100.929784 
L 582.066886 100.94972 
L 582.066886 100.870808 
L 582.066886 99.482317 
L 581.912629 99.491914 
L 581.912629 99.412118 
L 581.835501 98.415335 
L 581.758373 98.419997 
L 581.758373 98.33954 
L 581.681245 93.051262 
L 581.526988 93.059152 
L 581.526988 93.017304 
L 581.44986 91.294262 
L 581.295603 91.216853 
L 581.295603 89.595437 
L 581.141347 89.602373 
L 581.141347 89.516488 
L 581.064218 88.830869 
L 580.832833 88.797757 
L 580.832833 88.754546 
L 580.755705 88.584895 
L 580.292935 88.518225 
L 580.292935 88.040664 
L 580.061551 88.05043 
L 580.061551 88.006916 
L 580.061551 87.745551 
L 579.753037 87.671132 
L 579.675909 84.182552 
L 579.598781 84.185251 
L 579.598781 84.095716 
L 579.521653 82.974294 
L 579.367396 82.979336 
L 579.290268 82.574829 
L 579.213139 82.577292 
L 579.213139 82.486671 
L 579.136011 82.216872 
L 578.981755 82.176254 
L 578.981755 82.130801 
L 578.904626 82.042237 
L 578.596113 82.051781 
L 578.518985 81.415338 
L 578.364728 81.419924 
L 578.364728 81.328404 
L 578.2876 81.009855 
L 577.901959 81.021025 
L 577.901959 80.929159 
L 577.901959 80.837235 
L 577.82483 80.839443 
L 577.747702 80.841652 
L 577.747702 80.795654 
L 577.670574 79.41086 
L 577.053547 79.380296 
L 577.053547 79.333761 
L 577.053547 79.287212 
L 576.822163 79.246555 
L 576.822163 79.199955 
L 576.745034 79.015337 
L 576.436521 78.976371 
L 576.436521 78.929644 
L 576.436521 78.882903 
L 576.359393 78.884819 
L 576.282265 78.886736 
L 576.282265 78.839965 
L 576.205136 78.607759 
L 575.665238 78.620895 
L 575.665238 78.527041 
L 575.58811 78.058656 
L 575.048212 77.976878 
L 574.971084 77.363897 
L 574.276929 77.28415 
L 574.276929 77.046524 
L 573.81416 77.00875 
L 573.81416 76.961118 
L 573.81416 76.913471 
L 573.582775 76.870646 
L 573.582775 76.822945 
L 573.582775 76.775229 
L 572.965748 76.788034 
L 572.965748 76.692434 
L 572.965748 76.596772 
L 572.348722 76.561454 
L 572.348722 76.465577 
L 572.040209 76.471797 
L 572.040209 76.375796 
L 571.963081 76.137022 
L 571.577439 76.144544 
L 571.577439 76.048232 
L 571.577439 76.000052 
L 571.500311 76.001535 
L 570.806156 75.918342 
L 570.806156 75.870038 
L 570.574772 75.874434 
L 570.574772 75.777731 
L 570.574772 75.729356 
L 570.497643 75.730799 
L 570.034874 75.739467 
L 570.034874 75.545591 
L 569.572104 75.505534 
L 569.572104 75.456962 
L 569.572104 75.408375 
L 569.494976 75.409769 
L 569.186462 75.36671 
L 569.109334 75.173336 
L 568.955078 75.176054 
L 568.955078 75.078544 
L 568.955078 74.98097 
L 568.877949 74.982298 
L 567.95241 74.900424 
L 567.95241 74.802515 
L 567.875282 74.803817 
L 567.721025 74.708401 
L 567.721025 74.659366 
L 567.643897 74.660646 
L 566.718357 74.577708 
L 566.718357 74.528521 
L 566.641229 74.529782 
L 565.869946 74.443816 
L 565.869946 74.295792 
L 565.792818 74.297018 
L 564.79015 74.263502 
L 564.79015 74.213998 
L 564.713022 73.619773 
L 563.324713 73.540189 
L 563.324713 73.49028 
L 562.939071 73.395834 
L 562.861943 73.246841 
L 562.399173 73.152978 
L 562.399173 73.002497 
L 562.322045 73.003519 
L 560.702351 72.924285 
L 560.702351 72.873873 
L 560.625223 72.874878 
L 560.548095 72.875882 
L 560.548095 72.724493 
L 558.311374 72.651541 
L 558.311374 72.600764 
L 558.234246 72.601728 
L 557.15445 72.564336 
L 557.077322 72.361396 
L 556.074654 72.271186 
L 556.074654 71.963925 
L 555.997526 71.964787 
L 555.843269 71.915213 
L 555.843269 71.863897 
L 555.843269 71.761213 
L 555.766141 71.762041 
L 554.377832 71.673898 
L 554.377832 71.622327 
L 554.300704 71.623134 
L 550.907059 71.606918 
L 550.907059 71.50289 
L 550.829931 71.503683 
L 549.827263 71.40966 
L 549.827263 71.096168 
L 549.750135 71.096892 
L 548.901724 71.104877 
L 548.901724 70.947558 
L 546.973517 70.912432 
L 546.973517 70.859708 
L 546.973517 70.806966 
L 546.896388 70.807645 
L 544.11977 70.726019 
L 544.11977 70.672878 
L 544.042642 70.673538 
L 542.191563 70.582638 
L 542.114435 70.26235 
L 540.263356 70.168991 
L 540.263356 70.115168 
L 540.186227 70.115735 
L 532.396271 70.064363 
L 532.396271 70.009487 
L 531.470731 69.961184 
L 531.470731 69.851091 
L 526.226008 69.776085 
L 520.132874 69.761443 
L 520.132874 69.704789 
L 518.127538 69.661378 
L 518.127538 69.547408 
L 518.05041 69.547899 
L 516.893486 69.555292 
L 516.893486 69.440891 
L 516.816357 69.441363 
L 512.265788 69.469577 
L 512.265788 69.411687 
L 512.265788 69.353775 
L 512.18866 69.354237 
L 509.720555 69.310799 
L 509.720555 69.252474 
L 507.869476 69.204585 
L 507.869476 69.087279 
L 480.797448 69.180713 
L 480.797448 69.117716 
L 476.478264 69.079571 
L 476.478264 69.015778 
L 467.377127 69.003111 
L 467.377127 68.937634 
L 467.299999 68.938065 
L 463.289328 68.960716 
L 463.289328 68.828158 
L 463.2122 68.82857 
L 454.805217 68.874556 
L 454.805217 68.738605 
L 453.031266 68.679519 
L 453.031266 68.611114 
L 452.954138 68.611489 
L 442.07905 68.595445 
L 442.07905 68.524706 
L 442.001921 68.525074 
L 438.993918 68.468104 
L 438.993918 68.396631 
L 438.91679 68.396971 
L 423.259748 68.394553 
L 423.259748 68.319389 
L 423.18262 68.319728 
L 406.445782 68.318035 
L 406.445782 68.158898 
L 406.368654 68.159215 
L 404.054805 68.168788 
L 404.054805 68.008174 
L 398.424441 68.02895 
L 398.424441 67.946991 
L 398.424441 67.864988 
L 382.921655 67.830485 
L 382.921655 67.743662 
L 382.844527 67.743887 
L 351.761828 67.748394 
L 351.761828 67.650069 
L 318.442409 67.648537 
L 318.442409 67.533999 
L 318.365281 67.534216 
L 295.612437 67.606545 
L 295.612437 67.477457 
L 295.535309 67.477678 
L 287.976737 67.500306 
L 287.976737 67.365411 
L 287.899609 67.365592 
L 274.093646 67.400818 
L 274.093646 67.254021 
L 229.282113 67.369522 
L 229.282113 67.1649 
L 229.204984 67.165038 
L 170.97313 67.379448 
L 148.760184 67.657792 
L 137.885095 67.99359 
L 135.648375 68.107128 
L 135.648375 66.96 
L 135.571247 66.96 
L 115.363636 66.96 
L 115.363636 66.96 
" clip-path="url(#p1b597637db)" style="fill: none; stroke: #ff7f0e; stroke-width: 1.5; stroke-linecap: square"/>
   </g>
   <g id="patch_3">
    <path d="M 90 384.48 
L 90 51.84 
" style="fill: none; stroke: #000000; stroke-width: 0.8; stroke-linejoin: miter; stroke-linecap: square"/>
   </g>
   <g id="patch_4">
    <path d="M 648 384.48 
L 648 51.84 
" style="fill: none; stroke: #000000; stroke-width: 0.8; stroke-linejoin: miter; stroke-linecap: square"/>
   </g>
   <g id="patch_5">
    <path d="M 90 384.48 
L 648 384.48 
" style="fill: none; stroke: #000000; stroke-width: 0.8; stroke-linejoin: miter; stroke-linecap: square"/>
   </g>
   <g id="patch_6">
    <path d="M 90 51.84 
L 648 51.84 
" style="fill: none; stroke: #000000; stroke-width: 0.8; stroke-linejoin: miter; stroke-linecap: square"/>
   </g>
   <g id="text_15">
    <!-- Precision-Recall Curves -->
    <g transform="translate(299.431875 32.402625) scale(0.12 -0.12)">
     <defs>
      <path id="DejaVuSans-2d" d="M 313 2009 
L 1997 2009 
L 1997 1497 
L 313 1497 
L 313 2009 
z
" transform="scale(0.015625)"/>
      <path id="DejaVuSans-20" transform="scale(0.015625)"/>
      <path id="DejaVuSans-43" d="M 4122 4306 
L 4122 3641 
Q 3803 3938 3442 4084 
Q 3081 4231 2675 4231 
Q 1875 4231 1450 3742 
Q 1025 3253 1025 2328 
Q 1025 1406 1450 917 
Q 1875 428 2675 428 
Q 3081 428 3442 575 
Q 3803 722 4122 1019 
L 4122 359 
Q 3791 134 3420 21 
Q 3050 -91 2638 -91 
Q 1578 -91 968 557 
Q 359 1206 359 2328 
Q 359 3453 968 4101 
Q 1578 4750 2638 4750 
Q 3056 4750 3426 4639 
Q 3797 4528 4122 4306 
z
" transform="scale(0.015625)"/>
      <path id="DejaVuSans-75" d="M 544 1381 
L 544 3500 
L 1119 3500 
L 1119 1403 
Q 1119 906 1312 657 
Q 1506 409 1894 409 
Q 2359 409 2629 706 
Q 2900 1003 2900 1516 
L 2900 3500 
L 3475 3500 
L 3475 0 
L 2900 0 
L 2900 538 
Q 2691 219 2414 64 
Q 2138 -91 1772 -91 
Q 1169 -91 856 284 
Q 544 659 544 1381 
z
M 1991 3584 
L 1991 3584 
z
" transform="scale(0.015625)"/>
      <path id="DejaVuSans-76" d="M 191 3500 
L 800 3500 
L 1894 563 
L 2988 3500 
L 3597 3500 
L 2284 0 
L 1503 0 
L 191 3500 
z
" transform="scale(0.015625)"/>
     </defs>
     <use xlink:href="#DejaVuSans-50"/>
     <use xlink:href="#DejaVuSans-72" transform="translate(58.552734 0)"/>
     <use xlink:href="#DejaVuSans-65" transform="translate(97.416016 0)"/>
     <use xlink:href="#DejaVuSans-63" transform="translate(158.939453 0)"/>
     <use xlink:href="#DejaVuSans-69" transform="translate(213.919922 0)"/>
     <use xlink:href="#DejaVuSans-73" transform="translate(241.703125 0)"/>
     <use xlink:href="#DejaVuSans-69" transform="translate(293.802734 0)"/>
     <use xlink:href="#DejaVuSans-6f" transform="translate(321.585938 0)"/>
     <use xlink:href="#DejaVuSans-6e" transform="translate(382.767578 0)"/>
     <use xlink:href="#DejaVuSans-2d" transform="translate(446.146484 0)"/>
     <use xlink:href="#DejaVuSans-52" transform="translate(482.230469 0)"/>
     <use xlink:href="#DejaVuSans-65" transform="translate(547.212891 0)"/>
     <use xlink:href="#DejaVuSans-63" transform="translate(608.736328 0)"/>
     <use xlink:href="#DejaVuSans-61" transform="translate(663.716797 0)"/>
     <use xlink:href="#DejaVuSans-6c" transform="translate(724.996094 0)"/>
     <use xlink:href="#DejaVuSans-6c" transform="translate(752.779297 0)"/>
     <use xlink:href="#DejaVuSans-20" transform="translate(780.5625 0)"/>
     <use xlink:href="#DejaVuSans-43" transform="translate(812.349609 0)"/>
     <use xlink:href="#DejaVuSans-75" transform="translate(882.173828 0)"/>
     <use xlink:href="#DejaVuSans-72" transform="translate(945.552734 0)"/>
     <use xlink:href="#DejaVuSans-76" transform="translate(986.666016 0)"/>
     <use xlink:href="#DejaVuSans-65" transform="translate(1045.845703 0)"/>
     <use xlink:href="#DejaVuSans-73" transform="translate(1107.369141 0)"/>
    </g>
    <!-- Mean AUPRC: 0.915, Mean Top-k: 0.916 -->
    <g transform="translate(250.53 45.84) scale(0.12 -0.12)">
     <defs>
      <path id="DejaVuSans-4d" d="M 628 4666 
L 1569 4666 
L 2759 1491 
L 3956 4666 
L 4897 4666 
L 4897 0 
L 4281 0 
L 4281 4097 
L 3078 897 
L 2444 897 
L 1241 4097 
L 1241 0 
L 628 0 
L 628 4666 
z
" transform="scale(0.015625)"/>
      <path id="DejaVuSans-41" d="M 2188 4044 
L 1331 1722 
L 3047 1722 
L 2188 4044 
z
M 1831 4666 
L 2547 4666 
L 4325 0 
L 3669 0 
L 3244 1197 
L 1141 1197 
L 716 0 
L 50 0 
L 1831 4666 
z
" transform="scale(0.015625)"/>
      <path id="DejaVuSans-55" d="M 556 4666 
L 1191 4666 
L 1191 1831 
Q 1191 1081 1462 751 
Q 1734 422 2344 422 
Q 2950 422 3222 751 
Q 3494 1081 3494 1831 
L 3494 4666 
L 4128 4666 
L 4128 1753 
Q 4128 841 3676 375 
Q 3225 -91 2344 -91 
Q 1459 -91 1007 375 
Q 556 841 556 1753 
L 556 4666 
z
" transform="scale(0.015625)"/>
      <path id="DejaVuSans-3a" d="M 750 794 
L 1409 794 
L 1409 0 
L 750 0 
L 750 794 
z
M 750 3309 
L 1409 3309 
L 1409 2516 
L 750 2516 
L 750 3309 
z
" transform="scale(0.015625)"/>
      <path id="DejaVuSans-39" d="M 703 97 
L 703 672 
Q 941 559 1184 500 
Q 1428 441 1663 441 
Q 2288 441 2617 861 
Q 2947 1281 2994 2138 
Q 2813 1869 2534 1725 
Q 2256 1581 1919 1581 
Q 1219 1581 811 2004 
Q 403 2428 403 3163 
Q 403 3881 828 4315 
Q 1253 4750 1959 4750 
Q 2769 4750 3195 4129 
Q 3622 3509 3622 2328 
Q 3622 1225 3098 567 
Q 2575 -91 1691 -91 
Q 1453 -91 1209 -44 
Q 966 3 703 97 
z
M 1959 2075 
Q 2384 2075 2632 2365 
Q 2881 2656 2881 3163 
Q 2881 3666 2632 3958 
Q 2384 4250 1959 4250 
Q 1534 4250 1286 3958 
Q 1038 3666 1038 3163 
Q 1038 2656 1286 2365 
Q 1534 2075 1959 2075 
z
" transform="scale(0.015625)"/>
      <path id="DejaVuSans-35" d="M 691 4666 
L 3169 4666 
L 3169 4134 
L 1269 4134 
L 1269 2991 
Q 1406 3038 1543 3061 
Q 1681 3084 1819 3084 
Q 2600 3084 3056 2656 
Q 3513 2228 3513 1497 
Q 3513 744 3044 326 
Q 2575 -91 1722 -91 
Q 1428 -91 1123 -41 
Q 819 9 494 109 
L 494 744 
Q 775 591 1075 516 
Q 1375 441 1709 441 
Q 2250 441 2565 725 
Q 2881 1009 2881 1497 
Q 2881 1984 2565 2268 
Q 2250 2553 1709 2553 
Q 1456 2553 1204 2497 
Q 953 2441 691 2322 
L 691 4666 
z
" transform="scale(0.015625)"/>
      <path id="DejaVuSans-2c" d="M 750 794 
L 1409 794 
L 1409 256 
L 897 -744 
L 494 -744 
L 750 256 
L 750 794 
z
" transform="scale(0.015625)"/>
      <path id="DejaVuSans-54" d="M -19 4666 
L 3928 4666 
L 3928 4134 
L 2272 4134 
L 2272 0 
L 1638 0 
L 1638 4134 
L -19 4134 
L -19 4666 
z
" transform="scale(0.015625)"/>
      <path id="DejaVuSans-70" d="M 1159 525 
L 1159 -1331 
L 581 -1331 
L 581 3500 
L 1159 3500 
L 1159 2969 
Q 1341 3281 1617 3432 
Q 1894 3584 2278 3584 
Q 2916 3584 3314 3078 
Q 3713 2572 3713 1747 
Q 3713 922 3314 415 
Q 2916 -91 2278 -91 
Q 1894 -91 1617 61 
Q 1341 213 1159 525 
z
M 3116 1747 
Q 3116 2381 2855 2742 
Q 2594 3103 2138 3103 
Q 1681 3103 1420 2742 
Q 1159 2381 1159 1747 
Q 1159 1113 1420 752 
Q 1681 391 2138 391 
Q 2594 391 2855 752 
Q 3116 1113 3116 1747 
z
" transform="scale(0.015625)"/>
      <path id="DejaVuSans-6b" d="M 581 4863 
L 1159 4863 
L 1159 1991 
L 2875 3500 
L 3609 3500 
L 1753 1863 
L 3688 0 
L 2938 0 
L 1159 1709 
L 1159 0 
L 581 0 
L 581 4863 
z
" transform="scale(0.015625)"/>
     </defs>
     <use xlink:href="#DejaVuSans-4d"/>
     <use xlink:href="#DejaVuSans-65" transform="translate(86.279297 0)"/>
     <use xlink:href="#DejaVuSans-61" transform="translate(147.802734 0)"/>
     <use xlink:href="#DejaVuSans-6e" transform="translate(209.082031 0)"/>
     <use xlink:href="#DejaVuSans-20" transform="translate(272.460938 0)"/>
     <use xlink:href="#DejaVuSans-41" transform="translate(304.248047 0)"/>
     <use xlink:href="#DejaVuSans-55" transform="translate(372.65625 0)"/>
     <use xlink:href="#DejaVuSans-50" transform="translate(445.849609 0)"/>
     <use xlink:href="#DejaVuSans-52" transform="translate(506.152344 0)"/>
     <use xlink:href="#DejaVuSans-43" transform="translate(570.634766 0)"/>
     <use xlink:href="#DejaVuSans-3a" transform="translate(640.458984 0)"/>
     <use xlink:href="#DejaVuSans-20" transform="translate(674.150391 0)"/>
     <use xlink:href="#DejaVuSans-30" transform="translate(705.9375 0)"/>
     <use xlink:href="#DejaVuSans-2e" transform="translate(769.560547 0)"/>
     <use xlink:href="#DejaVuSans-39" transform="translate(801.347656 0)"/>
     <use xlink:href="#DejaVuSans-31" transform="translate(864.970703 0)"/>
     <use xlink:href="#DejaVuSans-35" transform="translate(928.59375 0)"/>
     <use xlink:href="#DejaVuSans-2c" transform="translate(992.216797 0)"/>
     <use xlink:href="#DejaVuSans-20" transform="translate(1024.003906 0)"/>
     <use xlink:href="#DejaVuSans-4d" transform="translate(1055.791016 0)"/>
     <use xlink:href="#DejaVuSans-65" transform="translate(1142.070312 0)"/>
     <use xlink:href="#DejaVuSans-61" transform="translate(1203.59375 0)"/>
     <use xlink:href="#DejaVuSans-6e" transform="translate(1264.873047 0)"/>
     <use xlink:href="#DejaVuSans-20" transform="translate(1328.251953 0)"/>
     <use xlink:href="#DejaVuSans-54" transform="translate(1360.039062 0)"/>
     <use xlink:href="#DejaVuSans-6f" transform="translate(1404.123047 0)"/>
     <use xlink:href="#DejaVuSans-70" transform="translate(1465.304688 0)"/>
     <use xlink:href="#DejaVuSans-2d" transform="translate(1528.78125 0)"/>
     <use xlink:href="#DejaVuSans-6b" transform="translate(1564.865234 0)"/>
     <use xlink:href="#DejaVuSans-3a" transform="translate(1622.775391 0)"/>
     <use xlink:href="#DejaVuSans-20" transform="translate(1656.466797 0)"/>
     <use xlink:href="#DejaVuSans-30" transform="translate(1688.253906 0)"/>
     <use xlink:href="#DejaVuSans-2e" transform="translate(1751.876953 0)"/>
     <use xlink:href="#DejaVuSans-39" transform="translate(1783.664062 0)"/>
     <use xlink:href="#DejaVuSans-31" transform="translate(1847.287109 0)"/>
     <use xlink:href="#DejaVuSans-36" transform="translate(1910.910156 0)"/>
    </g>
   </g>
   <g id="legend_1">
    <g id="patch_7">
     <path d="M 97 379.48 
L 254.923437 379.48 
Q 256.923437 379.48 256.923437 377.48 
L 256.923437 349.12375 
Q 256.923437 347.12375 254.923437 347.12375 
L 97 347.12375 
Q 95 347.12375 95 349.12375 
L 95 377.48 
Q 95 379.48 97 379.48 
z
" style="fill: #ffffff; opacity: 0.8; stroke: #cccccc; stroke-linejoin: miter"/>
    </g>
    <g id="line2d_27">
     <path d="M 99 355.222188 
L 109 355.222188 
L 119 355.222188 
" style="fill: none; stroke: #1f77b4; stroke-width: 1.5; stroke-linecap: square"/>
    </g>
    <g id="text_16">
     <!-- Acceptor (AUPRC=0.910) -->
     <g transform="translate(127 358.722188) scale(0.1 -0.1)">
      <defs>
       <path id="DejaVuSans-74" d="M 1172 4494 
L 1172 3500 
L 2356 3500 
L 2356 3053 
L 1172 3053 
L 1172 1153 
Q 1172 725 1289 603 
Q 1406 481 1766 481 
L 2356 481 
L 2356 0 
L 1766 0 
Q 1100 0 847 248 
Q 594 497 594 1153 
L 594 3053 
L 172 3053 
L 172 3500 
L 594 3500 
L 594 4494 
L 1172 4494 
z
" transform="scale(0.015625)"/>
       <path id="DejaVuSans-28" d="M 1984 4856 
Q 1566 4138 1362 3434 
Q 1159 2731 1159 2009 
Q 1159 1288 1364 580 
Q 1569 -128 1984 -844 
L 1484 -844 
Q 1016 -109 783 600 
Q 550 1309 550 2009 
Q 550 2706 781 3412 
Q 1013 4119 1484 4856 
L 1984 4856 
z
" transform="scale(0.015625)"/>
       <path id="DejaVuSans-3d" d="M 678 2906 
L 4684 2906 
L 4684 2381 
L 678 2381 
L 678 2906 
z
M 678 1631 
L 4684 1631 
L 4684 1100 
L 678 1100 
L 678 1631 
z
" transform="scale(0.015625)"/>
       <path id="DejaVuSans-29" d="M 513 4856 
L 1013 4856 
Q 1481 4119 1714 3412 
Q 1947 2706 1947 2009 
Q 1947 1309 1714 600 
Q 1481 -109 1013 -844 
L 513 -844 
Q 928 -128 1133 580 
Q 1338 1288 1338 2009 
Q 1338 2731 1133 3434 
Q 928 4138 513 4856 
z
" transform="scale(0.015625)"/>
      </defs>
      <use xlink:href="#DejaVuSans-41"/>
      <use xlink:href="#DejaVuSans-63" transform="translate(66.658203 0)"/>
      <use xlink:href="#DejaVuSans-63" transform="translate(121.638672 0)"/>
      <use xlink:href="#DejaVuSans-65" transform="translate(176.619141 0)"/>
      <use xlink:href="#DejaVuSans-70" transform="translate(238.142578 0)"/>
      <use xlink:href="#DejaVuSans-74" transform="translate(301.619141 0)"/>
      <use xlink:href="#DejaVuSans-6f" transform="translate(340.828125 0)"/>
      <use xlink:href="#DejaVuSans-72" transform="translate(402.009766 0)"/>
      <use xlink:href="#DejaVuSans-20" transform="translate(443.123047 0)"/>
      <use xlink:href="#DejaVuSans-28" transform="translate(474.910156 0)"/>
      <use xlink:href="#DejaVuSans-41" transform="translate(513.923828 0)"/>
      <use xlink:href="#DejaVuSans-55" transform="translate(582.332031 0)"/>
      <use xlink:href="#DejaVuSans-50" transform="translate(655.525391 0)"/>
      <use xlink:href="#DejaVuSans-52" transform="translate(715.828125 0)"/>
      <use xlink:href="#DejaVuSans-43" transform="translate(780.310547 0)"/>
      <use xlink:href="#DejaVuSans-3d" transform="translate(850.134766 0)"/>
      <use xlink:href="#DejaVuSans-30" transform="translate(933.923828 0)"/>
      <use xlink:href="#DejaVuSans-2e" transform="translate(997.546875 0)"/>
      <use xlink:href="#DejaVuSans-39" transform="translate(1029.333984 0)"/>
      <use xlink:href="#DejaVuSans-31" transform="translate(1092.957031 0)"/>
      <use xlink:href="#DejaVuSans-30" transform="translate(1156.580078 0)"/>
      <use xlink:href="#DejaVuSans-29" transform="translate(1220.203125 0)"/>
     </g>
    </g>
    <g id="line2d_28">
     <path d="M 99 369.900312 
L 109 369.900312 
L 119 369.900312 
" style="fill: none; stroke: #ff7f0e; stroke-width: 1.5; stroke-linecap: square"/>
    </g>
    <g id="text_17">
     <!-- Donor (AUPRC=0.921) -->
     <g transform="translate(127 373.400312) scale(0.1 -0.1)">
      <defs>
       <path id="DejaVuSans-44" d="M 1259 4147 
L 1259 519 
L 2022 519 
Q 2988 519 3436 956 
Q 3884 1394 3884 2338 
Q 3884 3275 3436 3711 
Q 2988 4147 2022 4147 
L 1259 4147 
z
M 628 4666 
L 1925 4666 
Q 3281 4666 3915 4102 
Q 4550 3538 4550 2338 
Q 4550 1131 3912 565 
Q 3275 0 1925 0 
L 628 0 
L 628 4666 
z
" transform="scale(0.015625)"/>
      </defs>
      <use xlink:href="#DejaVuSans-44"/>
      <use xlink:href="#DejaVuSans-6f" transform="translate(77.001953 0)"/>
      <use xlink:href="#DejaVuSans-6e" transform="translate(138.183594 0)"/>
      <use xlink:href="#DejaVuSans-6f" transform="translate(201.5625 0)"/>
      <use xlink:href="#DejaVuSans-72" transform="translate(262.744141 0)"/>
      <use xlink:href="#DejaVuSans-20" transform="translate(303.857422 0)"/>
      <use xlink:href="#DejaVuSans-28" transform="translate(335.644531 0)"/>
      <use xlink:href="#DejaVuSans-41" transform="translate(374.658203 0)"/>
      <use xlink:href="#DejaVuSans-55" transform="translate(443.066406 0)"/>
      <use xlink:href="#DejaVuSans-50" transform="translate(516.259766 0)"/>
      <use xlink:href="#DejaVuSans-52" transform="translate(576.5625 0)"/>
      <use xlink:href="#DejaVuSans-43" transform="translate(641.044922 0)"/>
      <use xlink:href="#DejaVuSans-3d" transform="translate(710.869141 0)"/>
      <use xlink:href="#DejaVuSans-30" transform="translate(794.658203 0)"/>
      <use xlink:href="#DejaVuSans-2e" transform="translate(858.28125 0)"/>
      <use xlink:href="#DejaVuSans-39" transform="translate(890.068359 0)"/>
      <use xlink:href="#DejaVuSans-32" transform="translate(953.691406 0)"/>
      <use xlink:href="#DejaVuSans-31" transform="translate(1017.314453 0)"/>
      <use xlink:href="#DejaVuSans-29" transform="translate(1080.9375 0)"/>
     </g>
    </g>
   </g>
  </g>
 </g>
 <defs>
  <clipPath id="p1b597637db">
   <rect x="90" y="51.84" width="558" height="332.64"/>
  </clipPath>
 </defs>
</svg>
