<?xml version="1.0" encoding="utf-8" standalone="no"?>
<!DOCTYPE svg PUBLIC "-//W3C//DTD SVG 1.1//EN"
  "http://www.w3.org/Graphics/SVG/1.1/DTD/svg11.dtd">
<svg xmlns:xlink="http://www.w3.org/1999/xlink" width="720pt" height="432pt" viewBox="0 0 720 432" xmlns="http://www.w3.org/2000/svg" version="1.1">
 <metadata>
  <rdf:RDF xmlns:dc="http://purl.org/dc/elements/1.1/" xmlns:cc="http://creativecommons.org/ns#" xmlns:rdf="http://www.w3.org/1999/02/22-rdf-syntax-ns#">
   <cc:Work>
    <dc:type rdf:resource="http://purl.org/dc/dcmitype/StillImage"/>
    <dc:date>2025-04-20T23:15:36.143754</dc:date>
    <dc:format>image/svg+xml</dc:format>
    <dc:creator>
     <cc:Agent>
      <dc:title>Matplotlib v3.10.1, https://matplotlib.org/</dc:title>
     </cc:Agent>
    </dc:creator>
   </cc:Work>
  </rdf:RDF>
 </metadata>
 <defs>
  <style type="text/css">*{stroke-linejoin: round; stroke-linecap: butt}</style>
 </defs>
 <g id="figure_1">
  <g id="patch_1">
   <path d="M 0 432 
L 720 432 
L 720 0 
L 0 0 
z
" style="fill: #ffffff"/>
  </g>
  <g id="axes_1">
   <g id="patch_2">
    <path d="M 90 384.48 
L 648 384.48 
L 648 51.84 
L 90 51.84 
z
" style="fill: #ffffff"/>
   </g>
   <g id="matplotlib.axis_1">
    <g id="xtick_1">
     <g id="line2d_1">
      <path d="M 115.363636 384.48 
L 115.363636 51.84 
" clip-path="url(#p283df92a88)" style="fill: none; stroke: #b0b0b0; stroke-width: 0.8; stroke-linecap: square"/>
     </g>
     <g id="line2d_2">
      <defs>
       <path id="mc9d9ead1c5" d="M 0 0 
L 0 3.5 
" style="stroke: #000000; stroke-width: 0.8"/>
      </defs>
      <g>
       <use xlink:href="#mc9d9ead1c5" x="115.363636" y="384.48" style="stroke: #000000; stroke-width: 0.8"/>
      </g>
     </g>
     <g id="text_1">
      <!-- 0.0 -->
      <g transform="translate(107.412074 399.078438) scale(0.1 -0.1)">
       <defs>
        <path id="DejaVuSans-30" d="M 2034 4250 
Q 1547 4250 1301 3770 
Q 1056 3291 1056 2328 
Q 1056 1369 1301 889 
Q 1547 409 2034 409 
Q 2525 409 2770 889 
Q 3016 1369 3016 2328 
Q 3016 3291 2770 3770 
Q 2525 4250 2034 4250 
z
M 2034 4750 
Q 2819 4750 3233 4129 
Q 3647 3509 3647 2328 
Q 3647 1150 3233 529 
Q 2819 -91 2034 -91 
Q 1250 -91 836 529 
Q 422 1150 422 2328 
Q 422 3509 836 4129 
Q 1250 4750 2034 4750 
z
" transform="scale(0.015625)"/>
        <path id="DejaVuSans-2e" d="M 684 794 
L 1344 794 
L 1344 0 
L 684 0 
L 684 794 
z
" transform="scale(0.015625)"/>
       </defs>
       <use xlink:href="#DejaVuSans-30"/>
       <use xlink:href="#DejaVuSans-2e" transform="translate(63.623047 0)"/>
       <use xlink:href="#DejaVuSans-30" transform="translate(95.410156 0)"/>
      </g>
     </g>
    </g>
    <g id="xtick_2">
     <g id="line2d_3">
      <path d="M 216.818182 384.48 
L 216.818182 51.84 
" clip-path="url(#p283df92a88)" style="fill: none; stroke: #b0b0b0; stroke-width: 0.8; stroke-linecap: square"/>
     </g>
     <g id="line2d_4">
      <g>
       <use xlink:href="#mc9d9ead1c5" x="216.818182" y="384.48" style="stroke: #000000; stroke-width: 0.8"/>
      </g>
     </g>
     <g id="text_2">
      <!-- 0.2 -->
      <g transform="translate(208.866619 399.078438) scale(0.1 -0.1)">
       <defs>
        <path id="DejaVuSans-32" d="M 1228 531 
L 3431 531 
L 3431 0 
L 469 0 
L 469 531 
Q 828 903 1448 1529 
Q 2069 2156 2228 2338 
Q 2531 2678 2651 2914 
Q 2772 3150 2772 3378 
Q 2772 3750 2511 3984 
Q 2250 4219 1831 4219 
Q 1534 4219 1204 4116 
Q 875 4013 500 3803 
L 500 4441 
Q 881 4594 1212 4672 
Q 1544 4750 1819 4750 
Q 2544 4750 2975 4387 
Q 3406 4025 3406 3419 
Q 3406 3131 3298 2873 
Q 3191 2616 2906 2266 
Q 2828 2175 2409 1742 
Q 1991 1309 1228 531 
z
" transform="scale(0.015625)"/>
       </defs>
       <use xlink:href="#DejaVuSans-30"/>
       <use xlink:href="#DejaVuSans-2e" transform="translate(63.623047 0)"/>
       <use xlink:href="#DejaVuSans-32" transform="translate(95.410156 0)"/>
      </g>
     </g>
    </g>
    <g id="xtick_3">
     <g id="line2d_5">
      <path d="M 318.272727 384.48 
L 318.272727 51.84 
" clip-path="url(#p283df92a88)" style="fill: none; stroke: #b0b0b0; stroke-width: 0.8; stroke-linecap: square"/>
     </g>
     <g id="line2d_6">
      <g>
       <use xlink:href="#mc9d9ead1c5" x="318.272727" y="384.48" style="stroke: #000000; stroke-width: 0.8"/>
      </g>
     </g>
     <g id="text_3">
      <!-- 0.4 -->
      <g transform="translate(310.321165 399.078438) scale(0.1 -0.1)">
       <defs>
        <path id="DejaVuSans-34" d="M 2419 4116 
L 825 1625 
L 2419 1625 
L 2419 4116 
z
M 2253 4666 
L 3047 4666 
L 3047 1625 
L 3713 1625 
L 3713 1100 
L 3047 1100 
L 3047 0 
L 2419 0 
L 2419 1100 
L 313 1100 
L 313 1709 
L 2253 4666 
z
" transform="scale(0.015625)"/>
       </defs>
       <use xlink:href="#DejaVuSans-30"/>
       <use xlink:href="#DejaVuSans-2e" transform="translate(63.623047 0)"/>
       <use xlink:href="#DejaVuSans-34" transform="translate(95.410156 0)"/>
      </g>
     </g>
    </g>
    <g id="xtick_4">
     <g id="line2d_7">
      <path d="M 419.727273 384.48 
L 419.727273 51.84 
" clip-path="url(#p283df92a88)" style="fill: none; stroke: #b0b0b0; stroke-width: 0.8; stroke-linecap: square"/>
     </g>
     <g id="line2d_8">
      <g>
       <use xlink:href="#mc9d9ead1c5" x="419.727273" y="384.48" style="stroke: #000000; stroke-width: 0.8"/>
      </g>
     </g>
     <g id="text_4">
      <!-- 0.6 -->
      <g transform="translate(411.77571 399.078438) scale(0.1 -0.1)">
       <defs>
        <path id="DejaVuSans-36" d="M 2113 2584 
Q 1688 2584 1439 2293 
Q 1191 2003 1191 1497 
Q 1191 994 1439 701 
Q 1688 409 2113 409 
Q 2538 409 2786 701 
Q 3034 994 3034 1497 
Q 3034 2003 2786 2293 
Q 2538 2584 2113 2584 
z
M 3366 4563 
L 3366 3988 
Q 3128 4100 2886 4159 
Q 2644 4219 2406 4219 
Q 1781 4219 1451 3797 
Q 1122 3375 1075 2522 
Q 1259 2794 1537 2939 
Q 1816 3084 2150 3084 
Q 2853 3084 3261 2657 
Q 3669 2231 3669 1497 
Q 3669 778 3244 343 
Q 2819 -91 2113 -91 
Q 1303 -91 875 529 
Q 447 1150 447 2328 
Q 447 3434 972 4092 
Q 1497 4750 2381 4750 
Q 2619 4750 2861 4703 
Q 3103 4656 3366 4563 
z
" transform="scale(0.015625)"/>
       </defs>
       <use xlink:href="#DejaVuSans-30"/>
       <use xlink:href="#DejaVuSans-2e" transform="translate(63.623047 0)"/>
       <use xlink:href="#DejaVuSans-36" transform="translate(95.410156 0)"/>
      </g>
     </g>
    </g>
    <g id="xtick_5">
     <g id="line2d_9">
      <path d="M 521.181818 384.48 
L 521.181818 51.84 
" clip-path="url(#p283df92a88)" style="fill: none; stroke: #b0b0b0; stroke-width: 0.8; stroke-linecap: square"/>
     </g>
     <g id="line2d_10">
      <g>
       <use xlink:href="#mc9d9ead1c5" x="521.181818" y="384.48" style="stroke: #000000; stroke-width: 0.8"/>
      </g>
     </g>
     <g id="text_5">
      <!-- 0.8 -->
      <g transform="translate(513.230256 399.078438) scale(0.1 -0.1)">
       <defs>
        <path id="DejaVuSans-38" d="M 2034 2216 
Q 1584 2216 1326 1975 
Q 1069 1734 1069 1313 
Q 1069 891 1326 650 
Q 1584 409 2034 409 
Q 2484 409 2743 651 
Q 3003 894 3003 1313 
Q 3003 1734 2745 1975 
Q 2488 2216 2034 2216 
z
M 1403 2484 
Q 997 2584 770 2862 
Q 544 3141 544 3541 
Q 544 4100 942 4425 
Q 1341 4750 2034 4750 
Q 2731 4750 3128 4425 
Q 3525 4100 3525 3541 
Q 3525 3141 3298 2862 
Q 3072 2584 2669 2484 
Q 3125 2378 3379 2068 
Q 3634 1759 3634 1313 
Q 3634 634 3220 271 
Q 2806 -91 2034 -91 
Q 1263 -91 848 271 
Q 434 634 434 1313 
Q 434 1759 690 2068 
Q 947 2378 1403 2484 
z
M 1172 3481 
Q 1172 3119 1398 2916 
Q 1625 2713 2034 2713 
Q 2441 2713 2670 2916 
Q 2900 3119 2900 3481 
Q 2900 3844 2670 4047 
Q 2441 4250 2034 4250 
Q 1625 4250 1398 4047 
Q 1172 3844 1172 3481 
z
" transform="scale(0.015625)"/>
       </defs>
       <use xlink:href="#DejaVuSans-30"/>
       <use xlink:href="#DejaVuSans-2e" transform="translate(63.623047 0)"/>
       <use xlink:href="#DejaVuSans-38" transform="translate(95.410156 0)"/>
      </g>
     </g>
    </g>
    <g id="xtick_6">
     <g id="line2d_11">
      <path d="M 622.636364 384.48 
L 622.636364 51.84 
" clip-path="url(#p283df92a88)" style="fill: none; stroke: #b0b0b0; stroke-width: 0.8; stroke-linecap: square"/>
     </g>
     <g id="line2d_12">
      <g>
       <use xlink:href="#mc9d9ead1c5" x="622.636364" y="384.48" style="stroke: #000000; stroke-width: 0.8"/>
      </g>
     </g>
     <g id="text_6">
      <!-- 1.0 -->
      <g transform="translate(614.684801 399.078438) scale(0.1 -0.1)">
       <defs>
        <path id="DejaVuSans-31" d="M 794 531 
L 1825 531 
L 1825 4091 
L 703 3866 
L 703 4441 
L 1819 4666 
L 2450 4666 
L 2450 531 
L 3481 531 
L 3481 0 
L 794 0 
L 794 531 
z
" transform="scale(0.015625)"/>
       </defs>
       <use xlink:href="#DejaVuSans-31"/>
       <use xlink:href="#DejaVuSans-2e" transform="translate(63.623047 0)"/>
       <use xlink:href="#DejaVuSans-30" transform="translate(95.410156 0)"/>
      </g>
     </g>
    </g>
    <g id="text_7">
     <!-- Recall -->
     <g transform="translate(354.082812 412.756563) scale(0.1 -0.1)">
      <defs>
       <path id="DejaVuSans-52" d="M 2841 2188 
Q 3044 2119 3236 1894 
Q 3428 1669 3622 1275 
L 4263 0 
L 3584 0 
L 2988 1197 
Q 2756 1666 2539 1819 
Q 2322 1972 1947 1972 
L 1259 1972 
L 1259 0 
L 628 0 
L 628 4666 
L 2053 4666 
Q 2853 4666 3247 4331 
Q 3641 3997 3641 3322 
Q 3641 2881 3436 2590 
Q 3231 2300 2841 2188 
z
M 1259 4147 
L 1259 2491 
L 2053 2491 
Q 2509 2491 2742 2702 
Q 2975 2913 2975 3322 
Q 2975 3731 2742 3939 
Q 2509 4147 2053 4147 
L 1259 4147 
z
" transform="scale(0.015625)"/>
       <path id="DejaVuSans-65" d="M 3597 1894 
L 3597 1613 
L 953 1613 
Q 991 1019 1311 708 
Q 1631 397 2203 397 
Q 2534 397 2845 478 
Q 3156 559 3463 722 
L 3463 178 
Q 3153 47 2828 -22 
Q 2503 -91 2169 -91 
Q 1331 -91 842 396 
Q 353 884 353 1716 
Q 353 2575 817 3079 
Q 1281 3584 2069 3584 
Q 2775 3584 3186 3129 
Q 3597 2675 3597 1894 
z
M 3022 2063 
Q 3016 2534 2758 2815 
Q 2500 3097 2075 3097 
Q 1594 3097 1305 2825 
Q 1016 2553 972 2059 
L 3022 2063 
z
" transform="scale(0.015625)"/>
       <path id="DejaVuSans-63" d="M 3122 3366 
L 3122 2828 
Q 2878 2963 2633 3030 
Q 2388 3097 2138 3097 
Q 1578 3097 1268 2742 
Q 959 2388 959 1747 
Q 959 1106 1268 751 
Q 1578 397 2138 397 
Q 2388 397 2633 464 
Q 2878 531 3122 666 
L 3122 134 
Q 2881 22 2623 -34 
Q 2366 -91 2075 -91 
Q 1284 -91 818 406 
Q 353 903 353 1747 
Q 353 2603 823 3093 
Q 1294 3584 2113 3584 
Q 2378 3584 2631 3529 
Q 2884 3475 3122 3366 
z
" transform="scale(0.015625)"/>
       <path id="DejaVuSans-61" d="M 2194 1759 
Q 1497 1759 1228 1600 
Q 959 1441 959 1056 
Q 959 750 1161 570 
Q 1363 391 1709 391 
Q 2188 391 2477 730 
Q 2766 1069 2766 1631 
L 2766 1759 
L 2194 1759 
z
M 3341 1997 
L 3341 0 
L 2766 0 
L 2766 531 
Q 2569 213 2275 61 
Q 1981 -91 1556 -91 
Q 1019 -91 701 211 
Q 384 513 384 1019 
Q 384 1609 779 1909 
Q 1175 2209 1959 2209 
L 2766 2209 
L 2766 2266 
Q 2766 2663 2505 2880 
Q 2244 3097 1772 3097 
Q 1472 3097 1187 3025 
Q 903 2953 641 2809 
L 641 3341 
Q 956 3463 1253 3523 
Q 1550 3584 1831 3584 
Q 2591 3584 2966 3190 
Q 3341 2797 3341 1997 
z
" transform="scale(0.015625)"/>
       <path id="DejaVuSans-6c" d="M 603 4863 
L 1178 4863 
L 1178 0 
L 603 0 
L 603 4863 
z
" transform="scale(0.015625)"/>
      </defs>
      <use xlink:href="#DejaVuSans-52"/>
      <use xlink:href="#DejaVuSans-65" transform="translate(64.982422 0)"/>
      <use xlink:href="#DejaVuSans-63" transform="translate(126.505859 0)"/>
      <use xlink:href="#DejaVuSans-61" transform="translate(181.486328 0)"/>
      <use xlink:href="#DejaVuSans-6c" transform="translate(242.765625 0)"/>
      <use xlink:href="#DejaVuSans-6c" transform="translate(270.548828 0)"/>
     </g>
    </g>
   </g>
   <g id="matplotlib.axis_2">
    <g id="ytick_1">
     <g id="line2d_13">
      <path d="M 90 369.568571 
L 648 369.568571 
" clip-path="url(#p283df92a88)" style="fill: none; stroke: #b0b0b0; stroke-width: 0.8; stroke-linecap: square"/>
     </g>
     <g id="line2d_14">
      <defs>
       <path id="mf669d868f1" d="M 0 0 
L -3.5 0 
" style="stroke: #000000; stroke-width: 0.8"/>
      </defs>
      <g>
       <use xlink:href="#mf669d868f1" x="90" y="369.568571" style="stroke: #000000; stroke-width: 0.8"/>
      </g>
     </g>
     <g id="text_8">
      <!-- 0.0 -->
      <g transform="translate(67.096875 373.36779) scale(0.1 -0.1)">
       <use xlink:href="#DejaVuSans-30"/>
       <use xlink:href="#DejaVuSans-2e" transform="translate(63.623047 0)"/>
       <use xlink:href="#DejaVuSans-30" transform="translate(95.410156 0)"/>
      </g>
     </g>
    </g>
    <g id="ytick_2">
     <g id="line2d_15">
      <path d="M 90 309.046857 
L 648 309.046857 
" clip-path="url(#p283df92a88)" style="fill: none; stroke: #b0b0b0; stroke-width: 0.8; stroke-linecap: square"/>
     </g>
     <g id="line2d_16">
      <g>
       <use xlink:href="#mf669d868f1" x="90" y="309.046857" style="stroke: #000000; stroke-width: 0.8"/>
      </g>
     </g>
     <g id="text_9">
      <!-- 0.2 -->
      <g transform="translate(67.096875 312.846076) scale(0.1 -0.1)">
       <use xlink:href="#DejaVuSans-30"/>
       <use xlink:href="#DejaVuSans-2e" transform="translate(63.623047 0)"/>
       <use xlink:href="#DejaVuSans-32" transform="translate(95.410156 0)"/>
      </g>
     </g>
    </g>
    <g id="ytick_3">
     <g id="line2d_17">
      <path d="M 90 248.525143 
L 648 248.525143 
" clip-path="url(#p283df92a88)" style="fill: none; stroke: #b0b0b0; stroke-width: 0.8; stroke-linecap: square"/>
     </g>
     <g id="line2d_18">
      <g>
       <use xlink:href="#mf669d868f1" x="90" y="248.525143" style="stroke: #000000; stroke-width: 0.8"/>
      </g>
     </g>
     <g id="text_10">
      <!-- 0.4 -->
      <g transform="translate(67.096875 252.324361) scale(0.1 -0.1)">
       <use xlink:href="#DejaVuSans-30"/>
       <use xlink:href="#DejaVuSans-2e" transform="translate(63.623047 0)"/>
       <use xlink:href="#DejaVuSans-34" transform="translate(95.410156 0)"/>
      </g>
     </g>
    </g>
    <g id="ytick_4">
     <g id="line2d_19">
      <path d="M 90 188.003428 
L 648 188.003428 
" clip-path="url(#p283df92a88)" style="fill: none; stroke: #b0b0b0; stroke-width: 0.8; stroke-linecap: square"/>
     </g>
     <g id="line2d_20">
      <g>
       <use xlink:href="#mf669d868f1" x="90" y="188.003428" style="stroke: #000000; stroke-width: 0.8"/>
      </g>
     </g>
     <g id="text_11">
      <!-- 0.6 -->
      <g transform="translate(67.096875 191.802647) scale(0.1 -0.1)">
       <use xlink:href="#DejaVuSans-30"/>
       <use xlink:href="#DejaVuSans-2e" transform="translate(63.623047 0)"/>
       <use xlink:href="#DejaVuSans-36" transform="translate(95.410156 0)"/>
      </g>
     </g>
    </g>
    <g id="ytick_5">
     <g id="line2d_21">
      <path d="M 90 127.481714 
L 648 127.481714 
" clip-path="url(#p283df92a88)" style="fill: none; stroke: #b0b0b0; stroke-width: 0.8; stroke-linecap: square"/>
     </g>
     <g id="line2d_22">
      <g>
       <use xlink:href="#mf669d868f1" x="90" y="127.481714" style="stroke: #000000; stroke-width: 0.8"/>
      </g>
     </g>
     <g id="text_12">
      <!-- 0.8 -->
      <g transform="translate(67.096875 131.280933) scale(0.1 -0.1)">
       <use xlink:href="#DejaVuSans-30"/>
       <use xlink:href="#DejaVuSans-2e" transform="translate(63.623047 0)"/>
       <use xlink:href="#DejaVuSans-38" transform="translate(95.410156 0)"/>
      </g>
     </g>
    </g>
    <g id="ytick_6">
     <g id="line2d_23">
      <path d="M 90 66.96 
L 648 66.96 
" clip-path="url(#p283df92a88)" style="fill: none; stroke: #b0b0b0; stroke-width: 0.8; stroke-linecap: square"/>
     </g>
     <g id="line2d_24">
      <g>
       <use xlink:href="#mf669d868f1" x="90" y="66.96" style="stroke: #000000; stroke-width: 0.8"/>
      </g>
     </g>
     <g id="text_13">
      <!-- 1.0 -->
      <g transform="translate(67.096875 70.759219) scale(0.1 -0.1)">
       <use xlink:href="#DejaVuSans-31"/>
       <use xlink:href="#DejaVuSans-2e" transform="translate(63.623047 0)"/>
       <use xlink:href="#DejaVuSans-30" transform="translate(95.410156 0)"/>
      </g>
     </g>
    </g>
    <g id="text_14">
     <!-- Precision -->
     <g transform="translate(61.017187 240.467031) rotate(-90) scale(0.1 -0.1)">
      <defs>
       <path id="DejaVuSans-50" d="M 1259 4147 
L 1259 2394 
L 2053 2394 
Q 2494 2394 2734 2622 
Q 2975 2850 2975 3272 
Q 2975 3691 2734 3919 
Q 2494 4147 2053 4147 
L 1259 4147 
z
M 628 4666 
L 2053 4666 
Q 2838 4666 3239 4311 
Q 3641 3956 3641 3272 
Q 3641 2581 3239 2228 
Q 2838 1875 2053 1875 
L 1259 1875 
L 1259 0 
L 628 0 
L 628 4666 
z
" transform="scale(0.015625)"/>
       <path id="DejaVuSans-72" d="M 2631 2963 
Q 2534 3019 2420 3045 
Q 2306 3072 2169 3072 
Q 1681 3072 1420 2755 
Q 1159 2438 1159 1844 
L 1159 0 
L 581 0 
L 581 3500 
L 1159 3500 
L 1159 2956 
Q 1341 3275 1631 3429 
Q 1922 3584 2338 3584 
Q 2397 3584 2469 3576 
Q 2541 3569 2628 3553 
L 2631 2963 
z
" transform="scale(0.015625)"/>
       <path id="DejaVuSans-69" d="M 603 3500 
L 1178 3500 
L 1178 0 
L 603 0 
L 603 3500 
z
M 603 4863 
L 1178 4863 
L 1178 4134 
L 603 4134 
L 603 4863 
z
" transform="scale(0.015625)"/>
       <path id="DejaVuSans-73" d="M 2834 3397 
L 2834 2853 
Q 2591 2978 2328 3040 
Q 2066 3103 1784 3103 
Q 1356 3103 1142 2972 
Q 928 2841 928 2578 
Q 928 2378 1081 2264 
Q 1234 2150 1697 2047 
L 1894 2003 
Q 2506 1872 2764 1633 
Q 3022 1394 3022 966 
Q 3022 478 2636 193 
Q 2250 -91 1575 -91 
Q 1294 -91 989 -36 
Q 684 19 347 128 
L 347 722 
Q 666 556 975 473 
Q 1284 391 1588 391 
Q 1994 391 2212 530 
Q 2431 669 2431 922 
Q 2431 1156 2273 1281 
Q 2116 1406 1581 1522 
L 1381 1569 
Q 847 1681 609 1914 
Q 372 2147 372 2553 
Q 372 3047 722 3315 
Q 1072 3584 1716 3584 
Q 2034 3584 2315 3537 
Q 2597 3491 2834 3397 
z
" transform="scale(0.015625)"/>
       <path id="DejaVuSans-6f" d="M 1959 3097 
Q 1497 3097 1228 2736 
Q 959 2375 959 1747 
Q 959 1119 1226 758 
Q 1494 397 1959 397 
Q 2419 397 2687 759 
Q 2956 1122 2956 1747 
Q 2956 2369 2687 2733 
Q 2419 3097 1959 3097 
z
M 1959 3584 
Q 2709 3584 3137 3096 
Q 3566 2609 3566 1747 
Q 3566 888 3137 398 
Q 2709 -91 1959 -91 
Q 1206 -91 779 398 
Q 353 888 353 1747 
Q 353 2609 779 3096 
Q 1206 3584 1959 3584 
z
" transform="scale(0.015625)"/>
       <path id="DejaVuSans-6e" d="M 3513 2113 
L 3513 0 
L 2938 0 
L 2938 2094 
Q 2938 2591 2744 2837 
Q 2550 3084 2163 3084 
Q 1697 3084 1428 2787 
Q 1159 2491 1159 1978 
L 1159 0 
L 581 0 
L 581 3500 
L 1159 3500 
L 1159 2956 
Q 1366 3272 1645 3428 
Q 1925 3584 2291 3584 
Q 2894 3584 3203 3211 
Q 3513 2838 3513 2113 
z
" transform="scale(0.015625)"/>
      </defs>
      <use xlink:href="#DejaVuSans-50"/>
      <use xlink:href="#DejaVuSans-72" transform="translate(58.552734 0)"/>
      <use xlink:href="#DejaVuSans-65" transform="translate(97.416016 0)"/>
      <use xlink:href="#DejaVuSans-63" transform="translate(158.939453 0)"/>
      <use xlink:href="#DejaVuSans-69" transform="translate(213.919922 0)"/>
      <use xlink:href="#DejaVuSans-73" transform="translate(241.703125 0)"/>
      <use xlink:href="#DejaVuSans-69" transform="translate(293.802734 0)"/>
      <use xlink:href="#DejaVuSans-6f" transform="translate(321.585938 0)"/>
      <use xlink:href="#DejaVuSans-6e" transform="translate(382.767578 0)"/>
     </g>
    </g>
   </g>
   <g id="line2d_25">
    <path d="M 622.636364 369.357557 
L 622.539562 369.346931 
L 620.538995 369.237712 
L 620.538995 369.236693 
L 620.442194 369.228392 
L 617.344542 369.120245 
L 617.344542 369.119365 
L 617.24774 369.109478 
L 614.472761 369.003632 
L 614.472761 369.000901 
L 614.472761 368.997822 
L 611.278308 368.893219 
L 611.278308 368.890357 
L 611.181506 368.879393 
L 609.245474 368.773591 
L 609.245474 368.770968 
L 609.245474 368.77019 
L 607.567579 368.666425 
L 607.567579 368.661785 
L 607.503045 368.661862 
L 607.503045 368.659325 
L 606.728632 368.56195 
L 606.728632 368.549641 
L 606.664097 368.525287 
L 605.115271 368.431281 
L 605.115271 368.417453 
L 605.01847 368.400145 
L 603.824583 368.295761 
L 603.824583 368.291873 
L 603.792316 368.261947 
L 602.437093 368.156101 
L 602.437093 368.154445 
L 602.372559 368.147993 
L 601.43681 368.062907 
L 601.43681 368.039599 
L 601.404543 368.002198 
L 599.855717 367.900964 
L 599.855717 367.896054 
L 599.791183 367.862027 
L 599.468511 367.792012 
L 599.468511 367.752046 
L 599.403976 367.692019 
L 599.145839 367.583989 
L 599.145839 367.581902 
L 599.113571 367.55316 
L 598.629563 367.503918 
L 598.629563 367.444054 
L 598.532762 367.365271 
L 598.21009 367.278444 
L 598.21009 367.25562 
L 598.21009 367.253137 
L 598.048754 367.253905 
L 598.048754 367.142801 
L 598.048754 367.07308 
L 597.85515 367.074072 
L 597.85515 366.962962 
L 597.790616 366.953947 
L 597.274341 366.875886 
L 597.274341 366.84561 
L 597.177539 366.776196 
L 596.661264 366.680533 
L 596.661264 366.668048 
L 596.564462 366.489455 
L 596.403126 366.42288 
L 596.403126 366.379374 
L 596.306324 366.111162 
L 596.274057 366.111391 
L 596.274057 366.000291 
L 596.209523 365.921408 
L 596.112721 365.884576 
L 596.112721 365.811023 
L 596.112721 365.188406 
L 595.919118 365.190145 
L 595.919118 365.079039 
L 595.886851 365.032207 
L 595.790049 365.033107 
L 595.790049 364.922004 
L 595.790049 364.688639 
L 595.467377 364.612089 
L 595.467377 364.580759 
L 595.43511 364.084705 
L 595.338308 364.085791 
L 595.338308 363.974702 
L 595.241507 363.293227 
L 595.176972 363.294053 
L 595.176972 363.182947 
L 595.144705 362.210806 
L 594.983369 362.21322 
L 594.983369 362.102212 
L 594.951102 360.615808 
L 594.822033 360.618146 
L 594.822033 360.507145 
L 594.789766 358.28697 
L 594.467094 358.29428 
L 594.467094 358.183321 
L 594.370292 355.728969 
L 594.208956 355.733417 
L 594.208956 355.62235 
L 594.144422 354.2656 
L 593.983086 354.270496 
L 593.983086 354.159421 
L 593.983086 353.816524 
L 593.854017 353.820551 
L 593.854017 353.709406 
L 593.757215 350.429627 
L 593.46681 350.440511 
L 593.46681 350.32938 
L 593.434543 349.277158 
L 593.111871 349.289936 
L 593.111871 349.17901 
L 593.111871 346.549904 
L 592.853734 346.561395 
L 592.853734 346.450219 
L 592.789199 331.61585 
L 592.692398 331.62258 
L 592.692398 331.5129 
L 592.692398 329.413489 
L 592.43426 329.432324 
L 592.43426 329.321119 
L 592.43426 322.596731 
L 592.111588 322.623573 
L 592.111588 322.513395 
L 592.111588 319.626749 
L 591.788916 319.654975 
L 591.788916 319.548806 
L 591.788916 318.404377 
L 591.401709 318.438934 
L 591.401709 318.327432 
L 591.401709 305.8899 
L 591.014503 305.889923 
L 591.014503 305.821673 
L 591.014503 305.433062 
L 590.691831 305.467354 
L 590.691831 305.359326 
L 590.691831 305.191486 
L 590.369159 305.225896 
L 590.369159 305.115113 
L 590.369159 305.113248 
L 589.981952 305.154605 
L 589.981952 305.045356 
L 589.981952 288.92595 
L 589.756082 288.954104 
L 589.756082 288.842936 
L 589.756082 286.729573 
L 589.465677 286.766408 
L 589.465677 286.661418 
L 589.43341 281.94687 
L 589.304341 281.963819 
L 589.304341 281.853172 
L 589.239807 273.84605 
L 589.175272 273.854963 
L 589.175272 273.745569 
L 589.110738 266.242935 
L 588.949402 266.26611 
L 588.949402 266.16269 
L 588.917135 264.667697 
L 588.562195 264.71908 
L 588.562195 264.627342 
L 588.497661 248.022812 
L 588.400859 248.037693 
L 588.400859 247.934395 
L 588.336325 244.571771 
L 588.27179 244.581782 
L 588.27179 244.490134 
L 588.174989 235.42071 
L 588.013653 235.446197 
L 588.013653 235.340598 
L 588.013653 235.263325 
L 587.852317 235.288826 
L 587.852317 235.178867 
L 587.852317 227.062065 
L 587.658714 227.092965 
L 587.658714 226.992068 
L 587.658714 222.611648 
L 587.46511 222.64264 
L 587.46511 222.530412 
L 587.368309 216.34745 
L 587.336042 216.352621 
L 587.336042 216.288952 
L 587.336042 216.076336 
L 587.206973 216.097023 
L 587.206973 215.995824 
L 587.174706 201.780375 
L 587.013369 201.805942 
L 587.013369 201.697704 
L 587.013369 200.264832 
L 586.368025 200.360476 
L 586.368025 200.295633 
L 586.368025 200.204769 
L 585.62588 200.211891 
L 585.529078 193.012573 
L 585.464544 193.022669 
L 585.464544 192.923637 
L 585.367742 185.557698 
L 585.303208 185.567601 
L 585.303208 185.459989 
L 585.206406 177.41457 
L 585.077337 177.43384 
L 585.077337 177.408696 
L 584.980536 173.505483 
L 584.948268 173.510227 
L 584.948268 173.440374 
L 584.948268 170.424927 
L 584.754665 170.453007 
L 584.754665 170.380929 
L 584.754665 169.357224 
L 584.431993 169.37649 
L 584.431993 169.30358 
L 584.431993 168.295658 
L 584.302924 168.314207 
L 584.302924 168.240501 
L 584.270657 166.806318 
L 584.173855 166.820131 
L 584.173855 166.717232 
L 584.077054 162.965257 
L 583.883451 162.992339 
L 583.883451 162.885451 
L 583.883451 162.710304 
L 583.625313 162.658677 
L 583.560779 160.828359 
L 583.302641 160.864072 
L 583.302641 160.754834 
L 583.238107 159.252496 
L 583.173572 159.261344 
L 583.173572 159.180662 
L 583.173572 155.516119 
L 583.012236 155.537727 
L 583.012236 155.44368 
L 582.979969 153.389758 
L 582.883167 153.402541 
L 582.883167 153.295914 
L 582.786366 150.531557 
L 582.754098 150.535733 
L 582.754098 150.459091 
L 582.657297 147.338484 
L 582.528228 147.275868 
L 582.528228 147.253308 
L 582.463694 145.80795 
L 582.399159 145.816006 
L 582.399159 145.713084 
L 582.399159 145.047531 
L 582.27009 145.063545 
L 582.27009 145.040521 
L 582.173289 144.671921 
L 581.979686 144.695881 
L 581.979686 144.626526 
L 581.979686 143.662704 
L 581.81835 143.682508 
L 581.81835 143.589157 
L 581.753815 141.023045 
L 581.431143 141.061764 
L 581.431143 141.049817 
L 581.431143 139.969464 
L 581.302074 139.984808 
L 581.302074 139.92448 
L 581.302074 139.586057 
L 581.140738 139.605174 
L 581.140738 139.508281 
L 581.140738 139.265691 
L 580.882601 139.284055 
L 580.882601 139.247608 
L 580.785799 136.142932 
L 580.688997 136.054112 
L 580.592196 135.136763 
L 580.527661 135.14409 
L 580.527661 135.043268 
L 580.43086 134.422068 
L 580.237256 134.443898 
L 580.237256 134.342409 
L 580.140455 134.022834 
L 580.043653 134.033708 
L 580.043653 133.944563 
L 580.043653 133.331458 
L 579.914584 133.345853 
L 579.914584 133.294608 
L 579.914584 132.742326 
L 579.62418 132.774525 
L 579.62418 132.671454 
L 579.559645 131.616841 
L 579.495111 131.62391 
L 579.495111 131.532823 
L 579.462844 129.713006 
L 579.366042 129.723383 
L 579.366042 129.644038 
L 579.366042 129.458697 
L 579.301508 129.465595 
L 579.172439 129.479395 
L 579.172439 129.386594 
L 579.172439 129.280448 
L 579.04337 129.294222 
L 579.04337 129.201252 
L 579.04337 127.703886 
L 578.882034 127.720784 
L 578.882034 127.640025 
L 578.882034 127.532261 
L 578.785232 127.542381 
L 578.623896 127.559254 
L 578.623896 127.545773 
L 578.527095 126.281721 
L 578.398026 126.295014 
L 578.398026 126.240487 
L 578.301224 124.920472 
L 577.978552 124.842765 
L 577.978552 123.914357 
L 577.914018 123.920807 
L 577.623613 123.949852 
L 577.623613 123.852401 
L 577.623613 123.699107 
L 577.559078 123.705544 
L 577.43001 123.718421 
L 577.43001 123.620746 
L 577.43001 123.369222 
L 577.333208 123.378839 
L 577.171872 123.394873 
L 577.171872 123.352888 
L 577.139605 122.780831 
L 576.816933 122.728212 
L 576.816933 122.714132 
L 576.816933 122.573241 
L 576.62333 122.592292 
L 576.62333 122.535876 
L 576.558795 122.061601 
L 576.04252 122.112098 
L 576.04252 122.05539 
L 575.945718 121.310927 
L 575.881184 121.317176 
L 575.881184 121.260083 
L 575.848917 121.063167 
L 575.687581 121.078738 
L 575.687581 121.035821 
L 575.687581 120.548389 
L 575.655313 120.55148 
L 575.46171 120.469413 
L 575.46171 120.411878 
L 575.300374 120.427315 
L 575.300374 120.355342 
L 575.300374 120.067034 
L 575.106771 120.085472 
L 575.106771 119.998826 
L 575.106771 119.883204 
L 575.009969 119.8924 
L 574.396892 119.878325 
L 574.396892 119.849357 
L 574.396892 119.718917 
L 573.751548 119.780229 
L 573.751548 119.678589 
L 573.751548 119.620472 
L 572.493127 119.711034 
L 572.493127 119.62363 
L 572.299524 119.642059 
L 572.299524 119.55457 
L 572.299524 119.174743 
L 572.041386 119.199162 
L 572.041386 119.111313 
L 572.009119 118.43877 
L 571.847783 118.453868 
L 571.847783 118.365458 
L 571.783249 117.022802 
L 571.718714 117.02871 
L 571.718714 117.013808 
L 571.718714 116.90944 
L 571.589646 116.921238 
L 571.589646 116.891397 
L 571.492844 115.775942 
L 571.363775 115.78753 
L 571.363775 115.682064 
L 571.363775 114.561754 
L 570.750698 114.615747 
L 570.750698 114.524393 
L 570.718431 114.451052 
L 570.589362 114.462403 
L 570.589362 114.431912 
L 570.589362 113.60588 
L 570.137621 113.614349 
L 570.137621 113.537523 
L 570.04082 112.898651 
L 570.008553 112.901417 
L 570.008553 112.793216 
L 570.008553 112.777752 
L 569.911751 112.786031 
L 569.814949 112.794314 
L 569.814949 112.685977 
L 569.782682 112.176742 
L 569.524544 112.198601 
L 569.524544 112.089691 
L 569.524544 111.465575 
L 569.363208 111.479064 
L 569.363208 111.385162 
L 569.298674 110.967102 
L 569.137338 110.980473 
L 569.137338 110.870435 
L 569.137338 110.823248 
L 568.8792 110.844594 
L 568.8792 110.765877 
L 568.782399 109.999798 
L 568.266123 110.010156 
L 568.169322 109.525333 
L 568.07252 109.533154 
L 568.07252 109.246157 
L 567.84665 109.264314 
L 567.84665 109.184452 
L 567.84665 108.960575 
L 567.782115 108.965735 
L 567.653047 108.976058 
L 567.588512 108.016975 
L 567.298107 108.007497 
L 567.298107 107.959063 
L 567.201306 107.513666 
L 566.943168 107.533739 
L 566.943168 107.517525 
L 566.943168 106.589997 
L 566.265557 106.543618 
L 566.168755 106.321725 
L 565.781549 106.351158 
L 565.781549 106.301943 
L 565.781549 105.495488 
L 565.717014 105.500306 
L 565.65248 105.505126 
L 565.65248 105.406016 
L 565.65248 105.22412 
L 565.523411 105.233703 
L 565.458877 104.940212 
L 564.587662 105.004609 
L 564.587662 104.938136 
L 564.490861 104.795583 
L 564.426326 104.80034 
L 564.426326 104.73374 
L 564.426326 104.23317 
L 564.103654 104.256669 
L 564.103654 104.189747 
L 564.103654 103.904951 
L 564.03912 103.909617 
L 563.619646 103.839224 
L 563.522844 103.745382 
L 563.426043 103.752363 
L 563.426043 103.66826 
L 563.393776 103.266124 
L 563.264707 103.275331 
L 563.264707 103.174001 
L 563.264707 102.971111 
L 562.942035 102.943183 
L 562.942035 102.926245 
L 562.8775 102.761306 
L 562.812966 102.765859 
L 562.812966 102.664039 
L 562.748431 101.320515 
L 562.619363 101.294992 
L 562.619363 101.243507 
L 562.619363 100.985783 
L 562.522561 100.99232 
L 562.425759 100.99886 
L 562.425759 100.912814 
L 562.425759 100.878379 
L 562.296691 100.887076 
L 562.296691 100.611223 
L 562.232156 100.615542 
L 561.780415 100.576694 
L 561.715881 99.713983 
L 561.457743 99.730884 
L 561.457743 99.696071 
L 561.360942 99.039131 
L 560.876934 99.035255 
L 560.876934 98.947641 
L 560.747865 98.955931 
L 560.747865 98.86824 
L 560.747865 98.727817 
L 560.68333 98.731938 
L 560.199322 98.762874 
L 560.199322 98.657359 
L 560.199322 98.446081 
L 560.134788 98.450174 
L 559.65078 98.480906 
L 559.65078 98.039251 
L 559.295841 98.061546 
L 559.295841 97.955267 
L 559.295841 97.440411 
L 558.908634 97.446537 
L 558.908634 97.37531 
L 558.8441 96.825952 
L 558.456893 96.795767 
L 558.456893 96.759951 
L 558.456893 96.670371 
L 558.327824 96.678177 
L 558.327824 96.570578 
L 558.26329 96.394928 
L 558.101954 96.40461 
L 558.101954 95.882446 
L 558.005152 95.888166 
L 557.908351 95.893889 
L 557.908351 95.839739 
L 557.908351 95.659084 
L 557.876084 95.660978 
L 557.68248 95.581894 
L 557.68248 95.201332 
L 557.650213 95.2032 
L 557.359808 95.220023 
L 557.327541 94.603094 
L 556.585395 94.572253 
L 556.585395 94.535696 
L 556.520861 93.953064 
L 556.456327 93.95666 
L 556.456327 93.864814 
L 556.456327 93.791293 
L 556.359525 93.796661 
L 555.714181 93.72199 
L 555.617379 93.598292 
L 555.101104 93.626811 
L 555.101104 93.534461 
L 555.101104 93.460536 
L 554.939768 93.469411 
L 554.939768 93.358416 
L 554.939768 93.265852 
L 554.875233 93.269379 
L 554.810699 93.272907 
L 554.810699 93.180258 
L 554.810699 92.957649 
L 554.778432 92.959394 
L 554.68163 92.96463 
L 554.68163 92.89033 
L 554.584829 92.46747 
L 554.488027 92.472619 
L 554.488027 92.416674 
L 554.423493 92.289458 
L 554.229889 92.224961 
L 554.229889 92.206271 
L 554.197622 91.908568 
L 554.133088 91.911935 
L 553.229606 91.865297 
L 553.229606 91.771364 
L 553.197339 91.773043 
L 553.036003 91.781439 
L 553.036003 91.687408 
L 553.036003 91.630959 
L 552.100254 91.660645 
L 552.100254 91.622927 
L 552.100254 91.358613 
L 551.809849 91.373537 
L 551.809849 91.297884 
L 551.809849 90.93797 
L 551.583979 90.854491 
L 551.583979 90.45516 
L 551.003169 90.40777 
L 551.003169 90.312363 
L 550.906367 90.317153 
L 550.680497 90.271025 
L 550.680497 90.137207 
L 550.486894 90.146729 
L 550.486894 90.127594 
L 550.486894 89.667578 
L 550.390092 89.672251 
L 550.164222 89.683164 
L 550.164222 89.452442 
L 549.680213 89.398577 
L 549.680213 89.18643 
L 549.48661 89.195614 
L 549.48661 89.079717 
L 549.389809 89.08429 
L 548.486327 89.068961 
L 548.486327 89.04959 
L 548.486327 88.797516 
L 548.228189 88.809599 
L 548.228189 88.731907 
L 548.228189 88.67361 
L 548.131388 88.678118 
L 548.002319 88.684132 
L 548.002319 88.60633 
L 548.002319 88.509017 
L 547.937784 88.512003 
L 547.195639 88.5464 
L 547.195639 88.03847 
L 547.034303 88.045799 
L 547.034303 87.575156 
L 547.002035 87.576592 
L 546.388959 87.525221 
L 546.292157 87.253694 
L 545.45321 87.191811 
L 545.356408 86.819881 
L 544.807866 86.803882 
L 544.807866 86.684714 
L 544.711064 86.688871 
L 544.06572 86.617098 
L 544.06572 86.477635 
L 543.613979 86.496894 
L 543.613979 86.377134 
L 543.129971 86.397693 
L 543.129971 86.337716 
L 543.065437 86.240422 
L 542.420092 86.267698 
L 542.420092 86.167464 
L 542.420092 85.986865 
L 542.387825 85.988212 
L 541.193939 85.997932 
L 541.193939 85.836755 
L 539.257906 85.816337 
L 539.161105 85.556782 
L 538.644829 85.578069 
L 538.644829 85.496778 
L 538.644829 85.41544 
L 538.612562 85.416762 
L 538.06402 85.43925 
L 538.06402 85.357768 
L 538.06402 85.296625 
L 537.160538 85.333517 
L 537.128271 85.069065 
L 535.966651 85.095563 
L 535.966651 85.013476 
L 535.966651 84.972415 
L 535.86985 84.976315 
L 534.611429 84.924166 
L 534.514627 84.535917 
L 534.159688 84.508574 
L 534.159688 84.342961 
L 533.966085 84.350539 
L 533.966085 84.267627 
L 533.966085 84.205411 
L 533.869283 84.209173 
L 532.998069 84.18073 
L 532.998069 84.097526 
L 532.933534 84.100025 
L 531.868716 84.037033 
L 531.804182 83.74698 
L 530.868433 83.698821 
L 530.868433 83.530946 
L 530.771631 83.534596 
L 529.642279 83.493065 
L 529.642279 83.471999 
L 529.545478 83.306973 
L 528.964668 83.24417 
L 528.964668 83.159602 
L 528.545194 83.153998 
L 528.512927 82.79482 
L 528.448393 82.797165 
L 525.963818 82.781197 
L 525.963818 82.738473 
L 525.576611 82.709816 
L 525.512077 82.583751 
L 525.47981 82.584917 
L 523.640579 82.544115 
L 523.640579 82.350339 
L 523.576045 82.352648 
L 522.672563 82.385052 
L 522.672563 82.298661 
L 522.672563 82.233834 
L 521.510944 82.16692 
L 521.510944 82.145232 
L 521.446409 82.147525 
L 520.8656 82.168185 
L 520.768798 81.867165 
L 519.897583 81.788577 
L 519.897583 81.744912 
L 519.833049 81.747155 
L 519.671713 81.709066 
L 519.671713 81.534129 
L 517.671146 81.559131 
L 517.671146 81.515153 
L 517.671146 81.471162 
L 517.154871 81.488913 
L 517.154871 81.378749 
L 517.154871 81.24644 
L 517.058069 81.249721 
L 516.541794 81.22305 
L 516.541794 80.979757 
L 516.444993 80.982984 
L 515.122037 80.916154 
L 515.122037 80.470978 
L 515.057503 80.473062 
L 513.799082 80.51383 
L 513.799082 80.42436 
L 513.799082 80.401984 
L 511.249973 80.417126 
L 511.249973 80.37208 
L 511.153171 80.375214 
L 509.120337 80.373458 
L 509.055803 80.284925 
L 508.700863 80.205653 
L 508.700863 80.023949 
L 508.604062 80.027026 
L 505.054669 80.049145 
L 505.054669 79.93442 
L 504.635196 79.947801 
L 504.635196 79.924823 
L 504.635196 79.832873 
L 502.828232 79.821045 
L 502.828232 79.77483 
L 502.73143 79.777897 
L 502.215155 79.724826 
L 502.215155 79.516272 
L 501.989285 79.523303 
L 501.989285 79.407248 
L 500.150054 79.370967 
L 500.150054 79.16078 
L 499.052969 79.123941 
L 499.052969 79.030136 
L 498.956167 79.03306 
L 498.149487 79.033974 
L 498.149487 78.822197 
L 498.052686 78.82508 
L 497.697747 78.835663 
L 497.697747 78.764925 
L 497.697747 78.717747 
L 497.665479 78.718701 
L 496.019852 78.672767 
L 496.019852 78.57792 
L 495.632645 78.565551 
L 495.632645 78.494297 
L 495.632645 78.327901 
L 493.825682 78.332341 
L 493.825682 78.212806 
L 492.889933 78.215684 
L 492.889933 78.167725 
L 492.889933 78.047757 
L 492.244589 78.042003 
L 492.244589 78.017956 
L 492.244589 77.94579 
L 492.212322 77.946696 
L 489.792281 77.966689 
L 489.792281 77.894025 
L 489.727747 77.895842 
L 489.179204 77.887042 
L 489.179204 77.692766 
L 489.082403 77.695447 
L 487.533577 77.640898 
L 487.533577 77.567629 
L 487.469043 77.569404 
L 486.404225 77.500755 
L 486.404225 77.402664 
L 486.33969 77.404417 
L 486.146087 77.409683 
L 486.146087 77.311461 
L 486.146087 77.286896 
L 486.11382 77.287764 
L 484.564994 77.304937 
L 484.564994 77.181536 
L 484.468193 77.184126 
L 482.53216 77.236206 
L 482.53216 76.987814 
L 480.499326 76.966795 
L 480.499326 76.916781 
L 479.595845 76.940665 
L 479.595845 76.714872 
L 479.499043 76.717381 
L 477.692079 76.688753 
L 477.692079 76.486663 
L 477.627545 76.488306 
L 474.368557 76.470028 
L 474.368557 76.44451 
L 474.271756 76.446988 
L 473.110136 76.476824 
L 473.045602 76.299117 
L 473.013335 76.299934 
L 471.238639 76.345066 
L 471.238639 76.190413 
L 471.174104 76.192036 
L 467.786048 76.225994 
L 467.786048 76.147867 
L 467.721513 76.149498 
L 464.914266 76.142269 
L 464.914266 76.08973 
L 463.655845 76.121718 
L 463.655845 76.042608 
L 463.655845 75.963455 
L 463.591311 75.965074 
L 462.55876 75.885138 
L 462.55876 75.83215 
L 462.526493 75.832951 
L 455.395441 75.932372 
L 455.395441 75.688825 
L 455.330907 75.690434 
L 454.298356 75.634742 
L 454.298356 75.444352 
L 452.297789 75.383793 
L 452.297789 75.329005 
L 452.265522 75.329784 
L 448.393458 75.313525 
L 448.393458 75.285799 
L 448.328923 75.287368 
L 446.489692 75.276574 
L 446.489692 75.192881 
L 445.36034 75.220287 
L 445.36034 75.136276 
L 445.36034 75.080241 
L 445.295806 75.081787 
L 444.32779 75.020702 
L 444.32779 74.964447 
L 444.263255 74.965977 
L 435.841515 75.112969 
L 435.841515 74.910892 
L 431.74358 74.95264 
L 431.74358 74.718423 
L 431.646778 74.720737 
L 429.000867 74.754969 
L 429.000867 74.547978 
L 421.57941 74.636319 
L 421.57941 74.606026 
L 417.836415 74.606239 
L 417.836415 74.575565 
L 415.545443 74.539485 
L 415.545443 74.477634 
L 415.513176 74.478422 
L 413.351273 74.500452 
L 413.351273 74.313404 
L 413.286739 74.314958 
L 410.705362 74.314733 
L 410.673095 74.221057 
L 401.735079 74.409645 
L 401.702812 74.248164 
L 394.958966 74.31992 
L 394.958966 74.286671 
L 394.862165 74.289148 
L 392.280788 74.322237 
L 392.280788 74.087088 
L 388.57006 74.181579 
L 388.57006 74.113454 
L 388.57006 73.874772 
L 388.473258 73.877167 
L 382.019817 73.97079 
L 382.019817 73.900892 
L 381.923016 73.903355 
L 379.922449 73.884186 
L 379.922449 73.70789 
L 375.308239 73.753179 
L 375.308239 73.68137 
L 375.243704 73.683002 
L 372.985 73.631919 
L 372.985 73.595665 
L 365.531275 73.714315 
L 365.531275 73.565007 
L 365.434474 73.567508 
L 361.368806 73.674285 
L 361.368806 73.560392 
L 361.336539 73.561239 
L 360.62666 73.579928 
L 360.62666 73.465617 
L 360.594393 73.466454 
L 358.78743 73.513707 
L 358.78743 73.39848 
L 358.690628 73.400987 
L 352.172653 73.495474 
L 352.172653 73.455997 
L 349.042734 73.461116 
L 349.042734 73.421102 
L 349.010467 73.421975 
L 344.299455 73.552052 
L 344.299455 73.38871 
L 340.750062 73.446286 
L 340.750062 73.363292 
L 338.039617 73.439565 
L 338.039617 73.313535 
L 331.166702 73.42486 
L 331.166702 73.38152 
L 331.102168 73.3834 
L 326.584759 73.429282 
L 326.584759 73.34071 
L 323.583909 73.385785 
L 323.583909 73.250952 
L 315.775246 73.397466 
L 315.775246 73.163929 
L 311.322371 73.206395 
L 311.322371 73.110779 
L 311.257837 73.112764 
L 308.999133 73.08628 
L 308.999133 72.844056 
L 308.902331 72.846941 
L 308.740995 72.851757 
L 308.740995 72.754632 
L 308.740995 72.462875 
L 308.708728 72.463777 
L 306.514558 72.476563 
L 306.514558 72.328781 
L 306.417756 72.331453 
L 299.964315 72.41381 
L 299.964315 72.311766 
L 299.932048 72.312685 
L 292.930065 72.413866 
L 292.930065 72.148502 
L 292.833263 72.151284 
L 281.249336 72.393659 
L 281.249336 72.336881 
L 281.152535 72.339965 
L 277.377272 72.46305 
L 277.377272 72.346811 
L 277.28047 72.349975 
L 271.698244 72.478697 
L 271.698244 72.418485 
L 271.601442 72.421805 
L 268.826463 72.518754 
L 268.826463 72.396082 
L 268.729661 72.399452 
L 264.018649 72.505352 
L 264.018649 72.442039 
L 263.921847 72.445547 
L 253.305937 72.791411 
L 253.305937 72.518826 
L 249.208002 72.685801 
L 249.208002 72.545298 
L 243.46444 72.790896 
L 243.46444 72.570789 
L 243.399905 72.573565 
L 240.818529 72.686884 
L 240.818529 72.536982 
L 232.461323 72.92716 
L 232.461323 72.686575 
L 229.170068 72.848963 
L 229.170068 72.68389 
L 229.137801 72.685482 
L 227.87938 72.748293 
L 227.87938 72.581212 
L 227.814845 72.584378 
L 218.037882 73.109066 
L 218.037882 72.834989 
L 214.391688 73.046954 
L 214.391688 72.762657 
L 212.132984 72.895441 
L 212.132984 72.701347 
L 212.068449 72.705105 
L 209.745211 72.843774 
L 209.745211 72.644696 
L 203.808045 72.912601 
L 203.808045 72.806463 
L 203.74351 72.810649 
L 200.226385 73.04825 
L 200.226385 72.383903 
L 200.129583 72.389986 
L 198.838895 72.472414 
L 198.838895 72.246743 
L 187.384038 73.070621 
L 185.060799 73.270061 
L 185.060799 72.731826 
L 175.703309 73.607259 
L 172.34752 73.989624 
L 172.34752 73.826049 
L 170.96003 73.993419 
L 170.96003 73.825765 
L 170.701893 73.857061 
L 170.701893 72.842614 
L 169.056265 73.0193 
L 169.056265 72.844551 
L 168.959464 72.854972 
L 166.11995 73.177984 
L 166.11995 72.623292 
L 166.087682 72.626827 
L 163.764444 72.893501 
L 163.764444 72.699469 
L 163.667642 72.710753 
L 161.505739 72.974838 
L 161.505739 72.771413 
L 161.408938 72.783395 
L 160.473189 72.901823 
L 160.473189 72.276384 
L 160.408654 72.283866 
L 156.278452 72.8109 
L 156.278452 72.581212 
L 156.18165 72.594295 
L 155.439505 72.696655 
L 155.439505 71.28298 
L 154.148817 71.424717 
L 154.148817 70.935154 
L 147.98578 71.674447 
L 143.403837 72.430889 
L 143.403837 71.081797 
L 139.112299 71.814683 
L 135.562907 72.651697 
L 134.820761 72.864557 
L 134.820761 72.381326 
L 134.788494 72.39017 
L 132.110316 73.240555 
L 130.658291 73.823287 
L 130.432421 66.96 
L 115.363636 66.96 
L 115.363636 66.96 
" clip-path="url(#p283df92a88)" style="fill: none; stroke: #1f77b4; stroke-width: 1.5; stroke-linecap: square"/>
   </g>
   <g id="line2d_26">
    <path d="M 622.636364 369.36 
L 622.603719 369.359715 
L 612.124631 369.253345 
L 612.124631 369.252915 
L 612.026695 369.250666 
L 606.770829 369.143441 
L 606.770829 369.142915 
L 606.738184 369.139895 
L 603.114574 369.033933 
L 603.114574 369.031941 
L 603.114574 369.016117 
L 601.971994 368.907376 
L 601.971994 368.906298 
L 601.874059 368.889788 
L 600.666189 368.788383 
L 600.666189 368.780359 
L 600.666189 368.759312 
L 599.882706 368.66035 
L 599.882706 368.649505 
L 599.882706 368.646571 
L 598.44632 368.547081 
L 598.44632 368.538186 
L 598.413675 368.47258 
L 597.695482 368.378423 
L 597.695482 368.363093 
L 597.662837 368.323894 
L 596.552902 368.242816 
L 596.552902 368.215636 
L 596.520257 368.140915 
L 595.932645 368.034483 
L 595.932645 368.031543 
L 595.899999 367.94177 
L 594.333033 367.836931 
L 594.333033 367.835935 
L 594.235098 367.796533 
L 594.104517 367.797014 
L 594.104517 367.685903 
L 594.006582 367.493882 
L 593.908646 367.494304 
L 593.908646 367.383195 
L 593.908646 367.382573 
L 593.68013 367.308749 
L 593.68013 367.2725 
L 593.68013 367.252521 
L 593.418969 367.172216 
L 593.418969 367.142664 
L 593.353679 367.058794 
L 592.831357 367.028367 
L 592.831357 366.950403 
L 592.831357 366.888342 
L 592.635486 366.889432 
L 592.635486 366.778321 
L 592.635486 366.685736 
L 592.439615 366.613615 
L 592.439615 366.575814 
L 592.374325 366.254018 
L 591.982583 366.24635 
L 591.982583 366.145599 
L 591.949938 365.673015 
L 591.852003 365.673805 
L 591.852003 365.562699 
L 591.852003 365.097063 
L 591.656132 365.098874 
L 591.656132 364.987779 
L 591.656132 364.918047 
L 591.427616 364.920244 
L 591.427616 364.809144 
L 591.427616 364.266633 
L 591.231745 364.188389 
L 591.231745 364.157675 
L 591.231745 363.859005 
L 591.101165 363.860542 
L 591.101165 363.749429 
L 591.003229 361.885567 
L 590.905294 361.887109 
L 590.905294 361.775991 
L 590.905294 360.686038 
L 590.774713 360.688406 
L 590.774713 360.577325 
L 590.774713 359.656073 
L 590.480907 359.651625 
L 590.480907 359.550977 
L 590.448262 356.93514 
L 590.187101 356.941795 
L 590.187101 356.830707 
L 590.187101 353.968422 
L 590.056521 353.972491 
L 590.056521 353.861425 
L 589.99123 344.68043 
L 589.893295 344.685143 
L 589.893295 344.574292 
L 589.828005 342.607951 
L 589.697424 342.61471 
L 589.697424 342.503547 
L 589.697424 341.696855 
L 589.468908 341.709047 
L 589.468908 341.597872 
L 589.468908 336.96849 
L 589.240392 336.982511 
L 589.240392 336.87142 
L 589.240392 323.183992 
L 588.946586 323.208345 
L 588.946586 323.096941 
L 588.946586 312.228674 
L 588.522199 312.270328 
L 588.522199 312.15933 
L 588.522199 311.340003 
L 588.097813 311.382188 
L 588.097813 311.271494 
L 587.999877 296.989436 
L 587.804006 297.012303 
L 587.804006 296.902747 
L 587.804006 296.60249 
L 587.608136 296.625449 
L 587.608136 296.515894 
L 587.608136 296.41579 
L 587.412265 296.438799 
L 587.412265 296.32741 
L 587.412265 296.134434 
L 586.30233 296.17901 
L 586.30233 296.164202 
L 586.30233 278.291206 
L 585.910589 278.344245 
L 585.910589 278.233452 
L 585.910589 278.108968 
L 585.780008 278.126679 
L 585.780008 278.023014 
L 585.714718 276.503953 
L 585.649428 276.512899 
L 585.649428 276.405511 
L 585.584137 267.254739 
L 585.518847 267.264143 
L 585.518847 267.155961 
L 585.518847 256.045033 
L 585.159751 256.099227 
L 585.159751 255.989729 
L 585.061815 228.106094 
L 584.931235 228.12704 
L 584.931235 228.016646 
L 584.931235 228.007439 
L 584.474203 228.048567 
L 584.474203 227.974837 
L 584.441558 223.680882 
L 584.343622 223.696659 
L 584.343622 223.667285 
L 584.343622 213.657273 
L 583.951881 213.720434 
L 583.951881 213.608518 
L 583.951881 207.968682 
L 583.788655 207.994917 
L 583.788655 207.886623 
L 583.69072 202.250967 
L 583.592784 202.266612 
L 583.592784 202.15691 
L 583.560139 195.849957 
L 583.396913 195.875758 
L 583.396913 195.771388 
L 583.396913 194.403072 
L 583.103107 194.449398 
L 583.103107 194.357401 
L 583.103107 194.144732 
L 582.809301 194.191061 
L 582.809301 194.148461 
L 582.809301 193.521274 
L 582.352269 193.55037 
L 582.352269 193.514577 
L 582.254334 192.042512 
L 582.221689 192.047643 
L 582.221689 191.938346 
L 582.123753 179.174848 
L 582.058463 179.184725 
L 582.058463 179.075743 
L 581.993173 177.136552 
L 581.797302 177.165969 
L 581.797302 177.054601 
L 581.764657 172.424538 
L 581.372915 172.482279 
L 581.372915 172.383317 
L 581.34027 168.645939 
L 581.242335 168.660131 
L 581.242335 168.547907 
L 581.144399 163.082723 
L 581.079109 163.091917 
L 581.079109 163.012883 
L 581.046464 156.828378 
L 580.817948 156.817437 
L 580.817948 156.76497 
L 580.817948 156.691474 
L 580.524142 156.731337 
L 580.524142 156.626227 
L 580.458851 152.780503 
L 580.328271 152.797768 
L 580.328271 152.721425 
L 580.262981 150.034763 
L 579.871239 150.085578 
L 579.871239 150.040818 
L 579.773304 144.780856 
L 579.675368 144.793048 
L 579.675368 144.687349 
L 579.610078 144.047321 
L 579.544788 144.055402 
L 579.544788 143.972636 
L 579.479497 143.43527 
L 579.348917 143.451352 
L 579.348917 143.344312 
L 579.348917 142.280318 
L 579.153046 142.304207 
L 579.153046 142.292193 
L 579.055111 141.459876 
L 578.98982 141.467784 
L 578.98982 141.383006 
L 578.957175 140.73081 
L 578.826595 140.746527 
L 578.826595 140.636786 
L 578.728659 139.471284 
L 578.532788 139.494598 
L 578.532788 139.408262 
L 578.467498 138.89661 
L 578.402208 138.904342 
L 578.402208 138.842346 
L 578.336918 134.399808 
L 578.238982 134.410897 
L 578.238982 134.307746 
L 578.238982 134.191593 
L 578.075757 134.210039 
L 578.075757 134.184207 
L 578.075757 133.120176 
L 577.749305 133.156668 
L 577.749305 133.091451 
L 577.65137 131.816686 
L 577.357564 131.743475 
L 577.324919 131.071557 
L 577.226983 131.082271 
L 577.226983 131.02912 
L 577.129048 130.693732 
L 576.965822 130.711521 
L 576.965822 130.631493 
L 576.900532 130.237626 
L 576.835242 130.244706 
L 576.835242 130.164342 
L 576.737306 128.188791 
L 576.704661 128.192247 
L 576.704661 128.110476 
L 576.672016 127.922904 
L 576.410855 127.950477 
L 576.410855 127.854819 
L 576.345565 125.347526 
L 576.312919 125.350863 
L 576.182339 125.364215 
L 576.182339 125.26645 
L 576.182339 124.002455 
L 575.888533 123.933085 
L 575.855888 122.614767 
L 575.757952 122.624428 
L 575.757952 122.552962 
L 575.725307 120.973321 
L 575.529436 120.992206 
L 575.529436 120.905261 
L 575.529436 120.207504 
L 575.039759 120.254237 
L 575.039759 120.210467 
L 575.039759 119.640054 
L 574.909179 119.652416 
L 574.909179 119.608422 
L 574.909179 119.446978 
L 574.745953 119.462392 
L 574.745953 119.388922 
L 574.713308 118.802658 
L 574.582727 118.814874 
L 574.582727 118.711433 
L 574.582727 118.459866 
L 574.386857 118.4781 
L 574.386857 118.418818 
L 574.321566 117.382803 
L 574.288921 117.385792 
L 574.223631 117.391772 
L 574.223631 117.302034 
L 574.190986 117.140328 
L 573.929825 117.059209 
L 573.831889 115.831944 
L 573.766599 115.83778 
L 573.766599 115.746843 
L 573.766599 115.016989 
L 573.636018 115.028508 
L 573.636018 114.921699 
L 573.570728 113.823514 
L 573.472793 113.770361 
L 573.407503 112.723803 
L 573.309567 112.73211 
L 573.309567 112.716569 
L 573.309567 112.202678 
L 572.852535 112.147391 
L 572.852535 111.583627 
L 572.624019 111.571234 
L 572.624019 111.492691 
L 572.591374 111.133471 
L 572.362858 111.136568 
L 572.362858 111.041939 
L 572.362858 111.010381 
L 572.330213 111.01307 
L 571.775246 111.058829 
L 571.775246 110.948213 
L 571.67731 110.623814 
L 571.48144 110.560549 
L 571.48144 110.528812 
L 571.48144 110.163273 
L 571.154988 110.189796 
L 571.154988 110.110154 
L 571.057053 109.078127 
L 570.534731 109.103647 
L 570.534731 109.055401 
L 570.534731 108.926657 
L 568.869829 108.978547 
L 568.869829 108.913916 
L 568.641313 108.835092 
L 568.543378 108.128928 
L 568.412797 108.139179 
L 568.412797 108.041497 
L 568.380152 106.849656 
L 568.216926 106.862138 
L 568.216926 106.845696 
L 568.216926 106.252419 
L 568.151636 106.257349 
L 568.053701 106.264746 
L 568.053701 106.182113 
L 568.053701 106.099427 
L 567.890475 106.111718 
L 567.825185 105.469661 
L 567.433443 105.498781 
L 567.433443 105.415552 
L 567.433443 105.215588 
L 567.302863 105.225243 
L 567.302863 105.141817 
L 567.302863 104.94138 
L 567.172282 104.950979 
L 567.172282 104.850625 
L 567.106992 104.234811 
L 567.041702 104.239535 
L 567.041702 104.138611 
L 566.976411 103.417705 
L 566.813186 103.429298 
L 566.813186 103.327705 
L 566.813186 103.226035 
L 566.71525 103.232961 
L 566.029702 103.196619 
L 566.029702 103.094671 
L 565.866477 103.1062 
L 565.866477 103.004146 
L 565.866477 102.98713 
L 565.637961 102.969183 
L 565.637961 102.901051 
L 565.637961 102.798788 
L 565.474735 102.810245 
L 565.474735 102.707875 
L 565.474735 102.554173 
L 565.409445 102.55873 
L 565.311509 102.565566 
L 565.311509 102.480076 
L 565.278864 102.362566 
L 565.180929 102.369372 
L 565.180929 102.266597 
L 565.180929 101.906259 
L 565.017703 101.917479 
L 565.017703 101.831517 
L 564.919768 101.442034 
L 564.789187 101.381871 
L 564.691252 100.59186 
L 564.495381 100.604896 
L 564.495381 100.552758 
L 564.430091 100.24381 
L 564.364801 100.248118 
L 564.29951 99.798503 
L 564.005704 99.817673 
L 564.005704 99.71265 
L 564.005704 99.361983 
L 563.809833 99.37462 
L 563.809833 99.339491 
L 563.744543 98.143721 
L 563.385447 98.130661 
L 563.385447 98.077427 
L 563.287511 97.834788 
L 563.058995 97.848939 
L 562.993705 97.300282 
L 562.96106 97.302273 
L 562.601963 97.324191 
L 562.601963 97.306312 
L 562.601963 97.019927 
L 562.504028 97.025857 
L 562.373447 97.033767 
L 562.373447 96.926173 
L 562.373447 96.746661 
L 562.144932 96.760396 
L 562.144932 96.652531 
L 562.079641 96.350328 
L 561.88377 96.361968 
L 561.88377 96.253725 
L 561.88377 96.109266 
L 561.589964 96.126609 
L 561.589964 96.036197 
L 561.589964 95.891414 
L 560.773836 95.830499 
L 560.773836 95.812349 
L 560.708546 95.816175 
L 560.512675 95.791337 
L 560.512675 95.718659 
L 560.447385 95.649752 
L 560.414739 95.651657 
L 560.022998 95.583504 
L 559.957708 95.423282 
L 559.663901 95.367329 
L 559.663901 95.330813 
L 559.565966 95.299949 
L 559.40274 95.199701 
L 559.40274 95.144824 
L 559.33745 95.148583 
L 558.749838 95.164137 
L 558.749838 95.127491 
L 558.749838 95.017495 
L 558.684547 95.021244 
L 558.390741 94.927969 
L 558.390741 94.762567 
L 558.227516 94.771873 
L 558.227516 94.661461 
L 558.227516 94.569383 
L 558.19487 94.571233 
L 558.031645 94.543623 
L 558.031645 94.506752 
L 557.933709 93.809722 
L 557.639903 93.825975 
L 557.639903 93.751771 
L 557.574613 93.309257 
L 557.248162 93.327027 
L 557.182871 92.751782 
L 556.529969 92.786694 
L 556.529969 92.730484 
L 556.497323 92.563448 
L 556.203517 92.579068 
L 556.203517 92.48516 
L 556.105582 92.245851 
L 555.550615 92.218519 
L 555.550615 91.765332 
L 555.224163 91.725444 
L 555.224163 91.70651 
L 555.224163 91.573897 
L 555.126228 91.578932 
L 554.669196 91.526543 
L 554.669196 91.39359 
L 554.37539 91.408621 
L 554.37539 90.95156 
L 554.277454 90.956489 
L 554.146874 90.9058 
L 554.114229 90.620752 
L 554.048938 90.623999 
L 553.853068 90.538 
L 553.853068 90.365499 
L 553.755132 90.370323 
L 553.16752 90.39931 
L 553.134875 90.170269 
L 553.036939 90.175064 
L 553.036939 90.11733 
L 552.971649 89.619096 
L 552.416682 89.548973 
L 552.416682 89.413426 
L 552.384037 89.414979 
L 551.763779 89.444523 
L 551.763779 89.405722 
L 551.763779 89.192124 
L 551.698489 89.195206 
L 551.600553 89.199831 
L 551.600553 88.946896 
L 551.110876 88.891814 
L 551.078231 88.79578 
L 550.066232 88.764687 
L 550.066232 88.745118 
L 550.066232 88.353153 
L 549.674491 88.331796 
L 549.641845 88.018577 
L 548.40133 88.074693 
L 548.40133 87.89692 
L 548.33604 87.899859 
L 548.20546 87.905739 
L 548.20546 87.351012 
L 548.107524 87.355315 
L 548.042234 87.358185 
L 548.042234 87.298601 
L 548.042234 87.219117 
L 547.06288 87.162379 
L 546.964945 86.727432 
L 546.769074 86.695807 
L 546.769074 86.655782 
L 546.769074 86.615747 
L 546.507913 86.566773 
L 546.507913 86.346163 
L 546.475268 86.347537 
L 545.724429 86.359087 
L 545.724429 86.278641 
L 545.724429 85.694039 
L 545.528559 85.702041 
L 545.528559 85.600964 
L 545.528559 85.52005 
L 545.430623 85.524017 
L 545.397978 85.52534 
L 545.397978 85.505099 
L 545.300043 85.042628 
L 545.234752 85.045211 
L 545.234752 84.902929 
L 545.169462 84.905493 
L 545.071527 84.90934 
L 545.071527 84.848298 
L 545.006237 84.647166 
L 544.614495 84.60115 
L 544.51656 84.523266 
L 543.961592 84.462871 
L 543.896302 84.117097 
L 542.982238 84.069459 
L 542.884303 83.970283 
L 541.970239 83.9428 
L 541.970239 83.860255 
L 541.774368 83.867584 
L 541.774368 83.743627 
L 541.676433 83.747268 
L 541.447917 83.714401 
L 541.382627 83.48904 
L 540.729724 83.450751 
L 540.729724 83.429988 
L 540.729724 83.36768 
L 540.631789 83.371253 
L 539.880951 83.336257 
L 539.848305 83.10823 
L 539.652435 83.115286 
L 539.652435 83.073554 
L 539.652435 82.969169 
L 539.587144 82.971502 
L 538.673081 83.004243 
L 538.673081 82.962382 
L 538.673081 82.857674 
L 537.39992 82.819058 
L 537.367275 82.715084 
L 535.735019 82.667484 
L 535.735019 82.646358 
L 535.702374 82.647514 
L 535.441212 82.572176 
L 535.408567 82.022268 
L 534.168052 81.958158 
L 534.102762 81.747116 
L 533.678375 81.761384 
L 533.678375 81.547608 
L 533.58044 81.550859 
L 533.090763 81.481429 
L 532.992827 81.377441 
L 532.764311 81.384958 
L 532.764311 81.277595 
L 532.666376 81.19483 
L 531.882893 81.177269 
L 531.784957 81.051123 
L 527.834896 81.092692 
L 527.834896 81.005605 
L 527.802251 81.006665 
L 526.888187 80.949093 
L 526.888187 80.927254 
L 526.855542 80.709727 
L 526.39851 80.702421 
L 526.39851 80.351589 
L 525.941479 80.277905 
L 525.941479 79.881556 
L 525.843543 79.884508 
L 525.549737 79.782983 
L 525.549737 79.738805 
L 524.080706 79.738453 
L 523.982771 79.319415 
L 523.72161 79.326997 
L 523.656319 79.106146 
L 522.285224 79.145424 
L 522.285224 79.033576 
L 522.187288 79.036367 
L 522.089353 79.039158 
L 522.089353 78.949579 
L 522.089353 78.747822 
L 521.338515 78.723823 
L 521.338515 78.543887 
L 521.240579 78.546575 
L 520.326516 78.571724 
L 520.326516 78.391149 
L 520.293871 78.392036 
L 518.139292 78.382754 
L 518.139292 78.087226 
L 518.106647 78.088095 
L 517.355809 78.062513 
L 517.355809 77.720048 
L 517.257873 77.722577 
L 516.53968 77.672438 
L 516.53968 77.626608 
L 516.441745 77.62912 
L 514.515682 77.609682 
L 514.515682 77.448328 
L 512.948716 77.418766 
L 512.948716 77.372441 
L 512.524329 77.383184 
L 512.524329 77.197552 
L 512.491684 77.198365 
L 511.218523 77.183588 
L 511.120588 76.976155 
L 510.402395 76.947002 
L 510.402395 76.759814 
L 510.36975 76.760597 
L 508.900719 76.772494 
L 508.900719 76.607896 
L 506.909366 76.631751 
L 506.909366 76.442485 
L 506.81143 76.444783 
L 503.024595 76.438888 
L 503.024595 76.391058 
L 502.404337 76.333817 
L 502.404337 76.285875 
L 502.339047 76.2874 
L 501.522919 76.210369 
L 501.522919 76.186325 
L 501.065887 76.196924 
L 501.065887 76.148771 
L 501.000597 75.78857 
L 499.890662 75.740663 
L 499.890662 75.692212 
L 499.792727 75.694372 
L 499.23776 75.633813 
L 499.23776 75.48806 
L 499.139824 75.490175 
L 498.22576 75.436852 
L 498.22576 75.412473 
L 498.22576 75.363703 
L 496.658794 75.299309 
L 496.658794 74.833072 
L 496.136472 74.818978 
L 496.103827 74.548612 
L 494.993892 74.47129 
L 494.993892 74.397033 
L 494.928602 74.398281 
L 492.741378 74.39052 
L 492.741378 74.191126 
L 492.578152 74.19418 
L 492.578152 73.91946 
L 490.945896 73.898795 
L 490.945896 73.748059 
L 487.975189 73.724954 
L 487.975189 73.5982 
L 487.420221 73.531671 
L 487.420221 73.455419 
L 487.322286 73.457092 
L 484.449514 73.429689 
L 484.449514 73.404054 
L 484.449514 73.224482 
L 482.001129 73.187926 
L 482.001129 73.136224 
L 480.140357 73.11511 
L 480.140357 72.959082 
L 480.042421 72.960661 
L 478.965132 72.899769 
L 478.899841 72.822441 
L 478.344874 72.805059 
L 478.344874 72.752701 
L 478.279584 72.596512 
L 475.929134 72.579797 
L 475.929134 72.527008 
L 475.929134 72.500607 
L 473.937781 72.477711 
L 473.937781 72.344879 
L 469.759204 72.380345 
L 469.759204 72.272766 
L 467.082303 72.231157 
L 467.082303 72.149784 
L 466.135594 72.0547 
L 466.135594 72.027475 
L 455.134184 72.076363 
L 455.134184 71.766944 
L 455.068894 71.767853 
L 454.579217 71.774683 
L 454.579217 71.60537 
L 454.546572 71.60581 
L 452.849025 71.572057 
L 452.849025 71.543668 
L 452.849025 71.458469 
L 452.783735 71.459327 
L 444.198065 71.487588 
L 444.198065 71.400114 
L 444.100129 71.401417 
L 442.206712 71.368078 
L 442.206712 71.28 
L 442.141421 71.280851 
L 437.864909 71.277803 
L 437.766973 70.95124 
L 433.000784 70.949768 
L 433.000784 70.889184 
L 431.988785 70.871183 
L 431.988785 70.68868 
L 431.890849 70.689819 
L 420.432408 70.733413 
L 420.432408 70.543817 
L 420.334472 70.544955 
L 414.85009 70.54541 
L 414.85009 70.480979 
L 414.752154 70.482117 
L 414.295123 70.487439 
L 414.295123 70.325948 
L 414.262477 70.326312 
L 409.528933 70.281354 
L 409.528933 70.215642 
L 409.496288 70.215999 
L 402.379649 70.228499 
L 402.379649 70.026288 
L 402.281713 70.027324 
L 401.987907 69.929093 
L 401.987907 69.861492 
L 400.486231 69.808646 
L 400.486231 69.706617 
L 400.453586 69.706929 
L 388.962499 69.71489 
L 388.962499 69.643969 
L 388.864564 69.644922 
L 369.114258 69.775502 
L 369.114258 69.699063 
L 358.047558 69.742886 
L 358.047558 69.70292 
L 345.740342 69.763898 
L 345.740342 69.721802 
L 341.790281 69.769535 
L 341.790281 69.469479 
L 341.692346 69.470556 
L 334.477771 69.552511 
L 334.477771 69.375144 
L 334.412481 69.375858 
L 331.73558 69.405505 
L 331.73558 69.180731 
L 331.637645 69.181729 
L 325.075973 69.204316 
L 325.075973 69.111467 
L 325.010683 69.112133 
L 307.317021 69.258293 
L 307.317021 69.004653 
L 307.219085 69.005689 
L 279.307496 69.232554 
L 279.307496 69.173188 
L 279.242206 69.174063 
L 271.570599 69.219678 
L 271.570599 69.157365 
L 270.101568 69.115151 
L 270.101568 69.052203 
L 270.036278 69.05308 
L 265.302734 69.053724 
L 265.302734 68.793594 
L 249.861586 68.930203 
L 249.861586 68.85769 
L 249.76365 68.859064 
L 241.928818 68.97584 
L 241.928818 68.821729 
L 216.890001 69.181512 
L 216.890001 68.989633 
L 207.618783 69.086554 
L 207.618783 68.980936 
L 199.4575 69.175631 
L 199.4575 68.711883 
L 180.784484 69.059366 
L 180.784484 68.611957 
L 180.686548 68.614421 
L 165.833013 69.09789 
L 155.549796 69.640108 
L 151.501799 69.937365 
L 151.501799 69.669119 
L 151.403864 69.676414 
L 146.213287 70.128676 
L 146.213287 69.814798 
L 140.63097 70.438259 
L 136.648263 71.080238 
L 135.995361 71.208794 
L 135.995361 70.742607 
L 135.897425 70.760422 
L 134.461039 71.042409 
L 134.461039 70.538142 
L 131.490332 71.188064 
L 129.662205 71.720135 
L 129.662205 69.698539 
L 127.017949 70.313004 
L 125.157176 70.941692 
L 123.720791 71.615516 
L 122.349695 72.512451 
L 121.468276 73.297352 
L 120.488922 74.478225 
L 119.574859 76.06101 
L 119.085182 77.217918 
L 118.366989 79.56869 
L 117.746731 82.679926 
L 117.289699 86.173243 
L 116.734732 93.273789 
L 116.375635 101.543837 
L 116.2777 104.786071 
L 115.820668 134.206349 
L 115.820668 66.96 
L 115.363636 66.96 
L 115.363636 66.96 
" clip-path="url(#p283df92a88)" style="fill: none; stroke: #ff7f0e; stroke-width: 1.5; stroke-linecap: square"/>
   </g>
   <g id="patch_3">
    <path d="M 90 384.48 
L 90 51.84 
" style="fill: none; stroke: #000000; stroke-width: 0.8; stroke-linejoin: miter; stroke-linecap: square"/>
   </g>
   <g id="patch_4">
    <path d="M 648 384.48 
L 648 51.84 
" style="fill: none; stroke: #000000; stroke-width: 0.8; stroke-linejoin: miter; stroke-linecap: square"/>
   </g>
   <g id="patch_5">
    <path d="M 90 384.48 
L 648 384.48 
" style="fill: none; stroke: #000000; stroke-width: 0.8; stroke-linejoin: miter; stroke-linecap: square"/>
   </g>
   <g id="patch_6">
    <path d="M 90 51.84 
L 648 51.84 
" style="fill: none; stroke: #000000; stroke-width: 0.8; stroke-linejoin: miter; stroke-linecap: square"/>
   </g>
   <g id="text_15">
    <!-- Precision-Recall Curves -->
    <g transform="translate(299.431875 32.402625) scale(0.12 -0.12)">
     <defs>
      <path id="DejaVuSans-2d" d="M 313 2009 
L 1997 2009 
L 1997 1497 
L 313 1497 
L 313 2009 
z
" transform="scale(0.015625)"/>
      <path id="DejaVuSans-20" transform="scale(0.015625)"/>
      <path id="DejaVuSans-43" d="M 4122 4306 
L 4122 3641 
Q 3803 3938 3442 4084 
Q 3081 4231 2675 4231 
Q 1875 4231 1450 3742 
Q 1025 3253 1025 2328 
Q 1025 1406 1450 917 
Q 1875 428 2675 428 
Q 3081 428 3442 575 
Q 3803 722 4122 1019 
L 4122 359 
Q 3791 134 3420 21 
Q 3050 -91 2638 -91 
Q 1578 -91 968 557 
Q 359 1206 359 2328 
Q 359 3453 968 4101 
Q 1578 4750 2638 4750 
Q 3056 4750 3426 4639 
Q 3797 4528 4122 4306 
z
" transform="scale(0.015625)"/>
      <path id="DejaVuSans-75" d="M 544 1381 
L 544 3500 
L 1119 3500 
L 1119 1403 
Q 1119 906 1312 657 
Q 1506 409 1894 409 
Q 2359 409 2629 706 
Q 2900 1003 2900 1516 
L 2900 3500 
L 3475 3500 
L 3475 0 
L 2900 0 
L 2900 538 
Q 2691 219 2414 64 
Q 2138 -91 1772 -91 
Q 1169 -91 856 284 
Q 544 659 544 1381 
z
M 1991 3584 
L 1991 3584 
z
" transform="scale(0.015625)"/>
      <path id="DejaVuSans-76" d="M 191 3500 
L 800 3500 
L 1894 563 
L 2988 3500 
L 3597 3500 
L 2284 0 
L 1503 0 
L 191 3500 
z
" transform="scale(0.015625)"/>
     </defs>
     <use xlink:href="#DejaVuSans-50"/>
     <use xlink:href="#DejaVuSans-72" transform="translate(58.552734 0)"/>
     <use xlink:href="#DejaVuSans-65" transform="translate(97.416016 0)"/>
     <use xlink:href="#DejaVuSans-63" transform="translate(158.939453 0)"/>
     <use xlink:href="#DejaVuSans-69" transform="translate(213.919922 0)"/>
     <use xlink:href="#DejaVuSans-73" transform="translate(241.703125 0)"/>
     <use xlink:href="#DejaVuSans-69" transform="translate(293.802734 0)"/>
     <use xlink:href="#DejaVuSans-6f" transform="translate(321.585938 0)"/>
     <use xlink:href="#DejaVuSans-6e" transform="translate(382.767578 0)"/>
     <use xlink:href="#DejaVuSans-2d" transform="translate(446.146484 0)"/>
     <use xlink:href="#DejaVuSans-52" transform="translate(482.230469 0)"/>
     <use xlink:href="#DejaVuSans-65" transform="translate(547.212891 0)"/>
     <use xlink:href="#DejaVuSans-63" transform="translate(608.736328 0)"/>
     <use xlink:href="#DejaVuSans-61" transform="translate(663.716797 0)"/>
     <use xlink:href="#DejaVuSans-6c" transform="translate(724.996094 0)"/>
     <use xlink:href="#DejaVuSans-6c" transform="translate(752.779297 0)"/>
     <use xlink:href="#DejaVuSans-20" transform="translate(780.5625 0)"/>
     <use xlink:href="#DejaVuSans-43" transform="translate(812.349609 0)"/>
     <use xlink:href="#DejaVuSans-75" transform="translate(882.173828 0)"/>
     <use xlink:href="#DejaVuSans-72" transform="translate(945.552734 0)"/>
     <use xlink:href="#DejaVuSans-76" transform="translate(986.666016 0)"/>
     <use xlink:href="#DejaVuSans-65" transform="translate(1045.845703 0)"/>
     <use xlink:href="#DejaVuSans-73" transform="translate(1107.369141 0)"/>
    </g>
    <!-- Mean AUPRC: 0.902, Mean Top-k: 0.884 -->
    <g transform="translate(250.53 45.84) scale(0.12 -0.12)">
     <defs>
      <path id="DejaVuSans-4d" d="M 628 4666 
L 1569 4666 
L 2759 1491 
L 3956 4666 
L 4897 4666 
L 4897 0 
L 4281 0 
L 4281 4097 
L 3078 897 
L 2444 897 
L 1241 4097 
L 1241 0 
L 628 0 
L 628 4666 
z
" transform="scale(0.015625)"/>
      <path id="DejaVuSans-41" d="M 2188 4044 
L 1331 1722 
L 3047 1722 
L 2188 4044 
z
M 1831 4666 
L 2547 4666 
L 4325 0 
L 3669 0 
L 3244 1197 
L 1141 1197 
L 716 0 
L 50 0 
L 1831 4666 
z
" transform="scale(0.015625)"/>
      <path id="DejaVuSans-55" d="M 556 4666 
L 1191 4666 
L 1191 1831 
Q 1191 1081 1462 751 
Q 1734 422 2344 422 
Q 2950 422 3222 751 
Q 3494 1081 3494 1831 
L 3494 4666 
L 4128 4666 
L 4128 1753 
Q 4128 841 3676 375 
Q 3225 -91 2344 -91 
Q 1459 -91 1007 375 
Q 556 841 556 1753 
L 556 4666 
z
" transform="scale(0.015625)"/>
      <path id="DejaVuSans-3a" d="M 750 794 
L 1409 794 
L 1409 0 
L 750 0 
L 750 794 
z
M 750 3309 
L 1409 3309 
L 1409 2516 
L 750 2516 
L 750 3309 
z
" transform="scale(0.015625)"/>
      <path id="DejaVuSans-39" d="M 703 97 
L 703 672 
Q 941 559 1184 500 
Q 1428 441 1663 441 
Q 2288 441 2617 861 
Q 2947 1281 2994 2138 
Q 2813 1869 2534 1725 
Q 2256 1581 1919 1581 
Q 1219 1581 811 2004 
Q 403 2428 403 3163 
Q 403 3881 828 4315 
Q 1253 4750 1959 4750 
Q 2769 4750 3195 4129 
Q 3622 3509 3622 2328 
Q 3622 1225 3098 567 
Q 2575 -91 1691 -91 
Q 1453 -91 1209 -44 
Q 966 3 703 97 
z
M 1959 2075 
Q 2384 2075 2632 2365 
Q 2881 2656 2881 3163 
Q 2881 3666 2632 3958 
Q 2384 4250 1959 4250 
Q 1534 4250 1286 3958 
Q 1038 3666 1038 3163 
Q 1038 2656 1286 2365 
Q 1534 2075 1959 2075 
z
" transform="scale(0.015625)"/>
      <path id="DejaVuSans-2c" d="M 750 794 
L 1409 794 
L 1409 256 
L 897 -744 
L 494 -744 
L 750 256 
L 750 794 
z
" transform="scale(0.015625)"/>
      <path id="DejaVuSans-54" d="M -19 4666 
L 3928 4666 
L 3928 4134 
L 2272 4134 
L 2272 0 
L 1638 0 
L 1638 4134 
L -19 4134 
L -19 4666 
z
" transform="scale(0.015625)"/>
      <path id="DejaVuSans-70" d="M 1159 525 
L 1159 -1331 
L 581 -1331 
L 581 3500 
L 1159 3500 
L 1159 2969 
Q 1341 3281 1617 3432 
Q 1894 3584 2278 3584 
Q 2916 3584 3314 3078 
Q 3713 2572 3713 1747 
Q 3713 922 3314 415 
Q 2916 -91 2278 -91 
Q 1894 -91 1617 61 
Q 1341 213 1159 525 
z
M 3116 1747 
Q 3116 2381 2855 2742 
Q 2594 3103 2138 3103 
Q 1681 3103 1420 2742 
Q 1159 2381 1159 1747 
Q 1159 1113 1420 752 
Q 1681 391 2138 391 
Q 2594 391 2855 752 
Q 3116 1113 3116 1747 
z
" transform="scale(0.015625)"/>
      <path id="DejaVuSans-6b" d="M 581 4863 
L 1159 4863 
L 1159 1991 
L 2875 3500 
L 3609 3500 
L 1753 1863 
L 3688 0 
L 2938 0 
L 1159 1709 
L 1159 0 
L 581 0 
L 581 4863 
z
" transform="scale(0.015625)"/>
     </defs>
     <use xlink:href="#DejaVuSans-4d"/>
     <use xlink:href="#DejaVuSans-65" transform="translate(86.279297 0)"/>
     <use xlink:href="#DejaVuSans-61" transform="translate(147.802734 0)"/>
     <use xlink:href="#DejaVuSans-6e" transform="translate(209.082031 0)"/>
     <use xlink:href="#DejaVuSans-20" transform="translate(272.460938 0)"/>
     <use xlink:href="#DejaVuSans-41" transform="translate(304.248047 0)"/>
     <use xlink:href="#DejaVuSans-55" transform="translate(372.65625 0)"/>
     <use xlink:href="#DejaVuSans-50" transform="translate(445.849609 0)"/>
     <use xlink:href="#DejaVuSans-52" transform="translate(506.152344 0)"/>
     <use xlink:href="#DejaVuSans-43" transform="translate(570.634766 0)"/>
     <use xlink:href="#DejaVuSans-3a" transform="translate(640.458984 0)"/>
     <use xlink:href="#DejaVuSans-20" transform="translate(674.150391 0)"/>
     <use xlink:href="#DejaVuSans-30" transform="translate(705.9375 0)"/>
     <use xlink:href="#DejaVuSans-2e" transform="translate(769.560547 0)"/>
     <use xlink:href="#DejaVuSans-39" transform="translate(801.347656 0)"/>
     <use xlink:href="#DejaVuSans-30" transform="translate(864.970703 0)"/>
     <use xlink:href="#DejaVuSans-32" transform="translate(928.59375 0)"/>
     <use xlink:href="#DejaVuSans-2c" transform="translate(992.216797 0)"/>
     <use xlink:href="#DejaVuSans-20" transform="translate(1024.003906 0)"/>
     <use xlink:href="#DejaVuSans-4d" transform="translate(1055.791016 0)"/>
     <use xlink:href="#DejaVuSans-65" transform="translate(1142.070312 0)"/>
     <use xlink:href="#DejaVuSans-61" transform="translate(1203.59375 0)"/>
     <use xlink:href="#DejaVuSans-6e" transform="translate(1264.873047 0)"/>
     <use xlink:href="#DejaVuSans-20" transform="translate(1328.251953 0)"/>
     <use xlink:href="#DejaVuSans-54" transform="translate(1360.039062 0)"/>
     <use xlink:href="#DejaVuSans-6f" transform="translate(1404.123047 0)"/>
     <use xlink:href="#DejaVuSans-70" transform="translate(1465.304688 0)"/>
     <use xlink:href="#DejaVuSans-2d" transform="translate(1528.78125 0)"/>
     <use xlink:href="#DejaVuSans-6b" transform="translate(1564.865234 0)"/>
     <use xlink:href="#DejaVuSans-3a" transform="translate(1622.775391 0)"/>
     <use xlink:href="#DejaVuSans-20" transform="translate(1656.466797 0)"/>
     <use xlink:href="#DejaVuSans-30" transform="translate(1688.253906 0)"/>
     <use xlink:href="#DejaVuSans-2e" transform="translate(1751.876953 0)"/>
     <use xlink:href="#DejaVuSans-38" transform="translate(1783.664062 0)"/>
     <use xlink:href="#DejaVuSans-38" transform="translate(1847.287109 0)"/>
     <use xlink:href="#DejaVuSans-34" transform="translate(1910.910156 0)"/>
    </g>
   </g>
   <g id="legend_1">
    <g id="patch_7">
     <path d="M 97 379.48 
L 254.923437 379.48 
Q 256.923437 379.48 256.923437 377.48 
L 256.923437 349.12375 
Q 256.923437 347.12375 254.923437 347.12375 
L 97 347.12375 
Q 95 347.12375 95 349.12375 
L 95 377.48 
Q 95 379.48 97 379.48 
z
" style="fill: #ffffff; opacity: 0.8; stroke: #cccccc; stroke-linejoin: miter"/>
    </g>
    <g id="line2d_27">
     <path d="M 99 355.222188 
L 109 355.222188 
L 119 355.222188 
" style="fill: none; stroke: #1f77b4; stroke-width: 1.5; stroke-linecap: square"/>
    </g>
    <g id="text_16">
     <!-- Acceptor (AUPRC=0.900) -->
     <g transform="translate(127 358.722188) scale(0.1 -0.1)">
      <defs>
       <path id="DejaVuSans-74" d="M 1172 4494 
L 1172 3500 
L 2356 3500 
L 2356 3053 
L 1172 3053 
L 1172 1153 
Q 1172 725 1289 603 
Q 1406 481 1766 481 
L 2356 481 
L 2356 0 
L 1766 0 
Q 1100 0 847 248 
Q 594 497 594 1153 
L 594 3053 
L 172 3053 
L 172 3500 
L 594 3500 
L 594 4494 
L 1172 4494 
z
" transform="scale(0.015625)"/>
       <path id="DejaVuSans-28" d="M 1984 4856 
Q 1566 4138 1362 3434 
Q 1159 2731 1159 2009 
Q 1159 1288 1364 580 
Q 1569 -128 1984 -844 
L 1484 -844 
Q 1016 -109 783 600 
Q 550 1309 550 2009 
Q 550 2706 781 3412 
Q 1013 4119 1484 4856 
L 1984 4856 
z
" transform="scale(0.015625)"/>
       <path id="DejaVuSans-3d" d="M 678 2906 
L 4684 2906 
L 4684 2381 
L 678 2381 
L 678 2906 
z
M 678 1631 
L 4684 1631 
L 4684 1100 
L 678 1100 
L 678 1631 
z
" transform="scale(0.015625)"/>
       <path id="DejaVuSans-29" d="M 513 4856 
L 1013 4856 
Q 1481 4119 1714 3412 
Q 1947 2706 1947 2009 
Q 1947 1309 1714 600 
Q 1481 -109 1013 -844 
L 513 -844 
Q 928 -128 1133 580 
Q 1338 1288 1338 2009 
Q 1338 2731 1133 3434 
Q 928 4138 513 4856 
z
" transform="scale(0.015625)"/>
      </defs>
      <use xlink:href="#DejaVuSans-41"/>
      <use xlink:href="#DejaVuSans-63" transform="translate(66.658203 0)"/>
      <use xlink:href="#DejaVuSans-63" transform="translate(121.638672 0)"/>
      <use xlink:href="#DejaVuSans-65" transform="translate(176.619141 0)"/>
      <use xlink:href="#DejaVuSans-70" transform="translate(238.142578 0)"/>
      <use xlink:href="#DejaVuSans-74" transform="translate(301.619141 0)"/>
      <use xlink:href="#DejaVuSans-6f" transform="translate(340.828125 0)"/>
      <use xlink:href="#DejaVuSans-72" transform="translate(402.009766 0)"/>
      <use xlink:href="#DejaVuSans-20" transform="translate(443.123047 0)"/>
      <use xlink:href="#DejaVuSans-28" transform="translate(474.910156 0)"/>
      <use xlink:href="#DejaVuSans-41" transform="translate(513.923828 0)"/>
      <use xlink:href="#DejaVuSans-55" transform="translate(582.332031 0)"/>
      <use xlink:href="#DejaVuSans-50" transform="translate(655.525391 0)"/>
      <use xlink:href="#DejaVuSans-52" transform="translate(715.828125 0)"/>
      <use xlink:href="#DejaVuSans-43" transform="translate(780.310547 0)"/>
      <use xlink:href="#DejaVuSans-3d" transform="translate(850.134766 0)"/>
      <use xlink:href="#DejaVuSans-30" transform="translate(933.923828 0)"/>
      <use xlink:href="#DejaVuSans-2e" transform="translate(997.546875 0)"/>
      <use xlink:href="#DejaVuSans-39" transform="translate(1029.333984 0)"/>
      <use xlink:href="#DejaVuSans-30" transform="translate(1092.957031 0)"/>
      <use xlink:href="#DejaVuSans-30" transform="translate(1156.580078 0)"/>
      <use xlink:href="#DejaVuSans-29" transform="translate(1220.203125 0)"/>
     </g>
    </g>
    <g id="line2d_28">
     <path d="M 99 369.900312 
L 109 369.900312 
L 119 369.900312 
" style="fill: none; stroke: #ff7f0e; stroke-width: 1.5; stroke-linecap: square"/>
    </g>
    <g id="text_17">
     <!-- Donor (AUPRC=0.904) -->
     <g transform="translate(127 373.400312) scale(0.1 -0.1)">
      <defs>
       <path id="DejaVuSans-44" d="M 1259 4147 
L 1259 519 
L 2022 519 
Q 2988 519 3436 956 
Q 3884 1394 3884 2338 
Q 3884 3275 3436 3711 
Q 2988 4147 2022 4147 
L 1259 4147 
z
M 628 4666 
L 1925 4666 
Q 3281 4666 3915 4102 
Q 4550 3538 4550 2338 
Q 4550 1131 3912 565 
Q 3275 0 1925 0 
L 628 0 
L 628 4666 
z
" transform="scale(0.015625)"/>
      </defs>
      <use xlink:href="#DejaVuSans-44"/>
      <use xlink:href="#DejaVuSans-6f" transform="translate(77.001953 0)"/>
      <use xlink:href="#DejaVuSans-6e" transform="translate(138.183594 0)"/>
      <use xlink:href="#DejaVuSans-6f" transform="translate(201.5625 0)"/>
      <use xlink:href="#DejaVuSans-72" transform="translate(262.744141 0)"/>
      <use xlink:href="#DejaVuSans-20" transform="translate(303.857422 0)"/>
      <use xlink:href="#DejaVuSans-28" transform="translate(335.644531 0)"/>
      <use xlink:href="#DejaVuSans-41" transform="translate(374.658203 0)"/>
      <use xlink:href="#DejaVuSans-55" transform="translate(443.066406 0)"/>
      <use xlink:href="#DejaVuSans-50" transform="translate(516.259766 0)"/>
      <use xlink:href="#DejaVuSans-52" transform="translate(576.5625 0)"/>
      <use xlink:href="#DejaVuSans-43" transform="translate(641.044922 0)"/>
      <use xlink:href="#DejaVuSans-3d" transform="translate(710.869141 0)"/>
      <use xlink:href="#DejaVuSans-30" transform="translate(794.658203 0)"/>
      <use xlink:href="#DejaVuSans-2e" transform="translate(858.28125 0)"/>
      <use xlink:href="#DejaVuSans-39" transform="translate(890.068359 0)"/>
      <use xlink:href="#DejaVuSans-30" transform="translate(953.691406 0)"/>
      <use xlink:href="#DejaVuSans-34" transform="translate(1017.314453 0)"/>
      <use xlink:href="#DejaVuSans-29" transform="translate(1080.9375 0)"/>
     </g>
    </g>
   </g>
  </g>
 </g>
 <defs>
  <clipPath id="p283df92a88">
   <rect x="90" y="51.84" width="558" height="332.64"/>
  </clipPath>
 </defs>
</svg>
