<?xml version="1.0" encoding="utf-8" standalone="no"?>
<!DOCTYPE svg PUBLIC "-//W3C//DTD SVG 1.1//EN"
  "http://www.w3.org/Graphics/SVG/1.1/DTD/svg11.dtd">
<svg xmlns:xlink="http://www.w3.org/1999/xlink" width="720pt" height="432pt" viewBox="0 0 720 432" xmlns="http://www.w3.org/2000/svg" version="1.1">
 <metadata>
  <rdf:RDF xmlns:dc="http://purl.org/dc/elements/1.1/" xmlns:cc="http://creativecommons.org/ns#" xmlns:rdf="http://www.w3.org/1999/02/22-rdf-syntax-ns#">
   <cc:Work>
    <dc:type rdf:resource="http://purl.org/dc/dcmitype/StillImage"/>
    <dc:date>2025-04-21T02:11:00.525237</dc:date>
    <dc:format>image/svg+xml</dc:format>
    <dc:creator>
     <cc:Agent>
      <dc:title>Matplotlib v3.10.1, https://matplotlib.org/</dc:title>
     </cc:Agent>
    </dc:creator>
   </cc:Work>
  </rdf:RDF>
 </metadata>
 <defs>
  <style type="text/css">*{stroke-linejoin: round; stroke-linecap: butt}</style>
 </defs>
 <g id="figure_1">
  <g id="patch_1">
   <path d="M 0 432 
L 720 432 
L 720 0 
L 0 0 
z
" style="fill: #ffffff"/>
  </g>
  <g id="axes_1">
   <g id="patch_2">
    <path d="M 90 384.48 
L 648 384.48 
L 648 51.84 
L 90 51.84 
z
" style="fill: #ffffff"/>
   </g>
   <g id="matplotlib.axis_1">
    <g id="xtick_1">
     <g id="line2d_1">
      <path d="M 115.363636 384.48 
L 115.363636 51.84 
" clip-path="url(#pb734ac44c4)" style="fill: none; stroke: #b0b0b0; stroke-width: 0.8; stroke-linecap: square"/>
     </g>
     <g id="line2d_2">
      <defs>
       <path id="m50b6039df2" d="M 0 0 
L 0 3.5 
" style="stroke: #000000; stroke-width: 0.8"/>
      </defs>
      <g>
       <use xlink:href="#m50b6039df2" x="115.363636" y="384.48" style="stroke: #000000; stroke-width: 0.8"/>
      </g>
     </g>
     <g id="text_1">
      <!-- 0.0 -->
      <g transform="translate(107.412074 399.078438) scale(0.1 -0.1)">
       <defs>
        <path id="DejaVuSans-30" d="M 2034 4250 
Q 1547 4250 1301 3770 
Q 1056 3291 1056 2328 
Q 1056 1369 1301 889 
Q 1547 409 2034 409 
Q 2525 409 2770 889 
Q 3016 1369 3016 2328 
Q 3016 3291 2770 3770 
Q 2525 4250 2034 4250 
z
M 2034 4750 
Q 2819 4750 3233 4129 
Q 3647 3509 3647 2328 
Q 3647 1150 3233 529 
Q 2819 -91 2034 -91 
Q 1250 -91 836 529 
Q 422 1150 422 2328 
Q 422 3509 836 4129 
Q 1250 4750 2034 4750 
z
" transform="scale(0.015625)"/>
        <path id="DejaVuSans-2e" d="M 684 794 
L 1344 794 
L 1344 0 
L 684 0 
L 684 794 
z
" transform="scale(0.015625)"/>
       </defs>
       <use xlink:href="#DejaVuSans-30"/>
       <use xlink:href="#DejaVuSans-2e" transform="translate(63.623047 0)"/>
       <use xlink:href="#DejaVuSans-30" transform="translate(95.410156 0)"/>
      </g>
     </g>
    </g>
    <g id="xtick_2">
     <g id="line2d_3">
      <path d="M 216.818182 384.48 
L 216.818182 51.84 
" clip-path="url(#pb734ac44c4)" style="fill: none; stroke: #b0b0b0; stroke-width: 0.8; stroke-linecap: square"/>
     </g>
     <g id="line2d_4">
      <g>
       <use xlink:href="#m50b6039df2" x="216.818182" y="384.48" style="stroke: #000000; stroke-width: 0.8"/>
      </g>
     </g>
     <g id="text_2">
      <!-- 0.2 -->
      <g transform="translate(208.866619 399.078438) scale(0.1 -0.1)">
       <defs>
        <path id="DejaVuSans-32" d="M 1228 531 
L 3431 531 
L 3431 0 
L 469 0 
L 469 531 
Q 828 903 1448 1529 
Q 2069 2156 2228 2338 
Q 2531 2678 2651 2914 
Q 2772 3150 2772 3378 
Q 2772 3750 2511 3984 
Q 2250 4219 1831 4219 
Q 1534 4219 1204 4116 
Q 875 4013 500 3803 
L 500 4441 
Q 881 4594 1212 4672 
Q 1544 4750 1819 4750 
Q 2544 4750 2975 4387 
Q 3406 4025 3406 3419 
Q 3406 3131 3298 2873 
Q 3191 2616 2906 2266 
Q 2828 2175 2409 1742 
Q 1991 1309 1228 531 
z
" transform="scale(0.015625)"/>
       </defs>
       <use xlink:href="#DejaVuSans-30"/>
       <use xlink:href="#DejaVuSans-2e" transform="translate(63.623047 0)"/>
       <use xlink:href="#DejaVuSans-32" transform="translate(95.410156 0)"/>
      </g>
     </g>
    </g>
    <g id="xtick_3">
     <g id="line2d_5">
      <path d="M 318.272727 384.48 
L 318.272727 51.84 
" clip-path="url(#pb734ac44c4)" style="fill: none; stroke: #b0b0b0; stroke-width: 0.8; stroke-linecap: square"/>
     </g>
     <g id="line2d_6">
      <g>
       <use xlink:href="#m50b6039df2" x="318.272727" y="384.48" style="stroke: #000000; stroke-width: 0.8"/>
      </g>
     </g>
     <g id="text_3">
      <!-- 0.4 -->
      <g transform="translate(310.321165 399.078438) scale(0.1 -0.1)">
       <defs>
        <path id="DejaVuSans-34" d="M 2419 4116 
L 825 1625 
L 2419 1625 
L 2419 4116 
z
M 2253 4666 
L 3047 4666 
L 3047 1625 
L 3713 1625 
L 3713 1100 
L 3047 1100 
L 3047 0 
L 2419 0 
L 2419 1100 
L 313 1100 
L 313 1709 
L 2253 4666 
z
" transform="scale(0.015625)"/>
       </defs>
       <use xlink:href="#DejaVuSans-30"/>
       <use xlink:href="#DejaVuSans-2e" transform="translate(63.623047 0)"/>
       <use xlink:href="#DejaVuSans-34" transform="translate(95.410156 0)"/>
      </g>
     </g>
    </g>
    <g id="xtick_4">
     <g id="line2d_7">
      <path d="M 419.727273 384.48 
L 419.727273 51.84 
" clip-path="url(#pb734ac44c4)" style="fill: none; stroke: #b0b0b0; stroke-width: 0.8; stroke-linecap: square"/>
     </g>
     <g id="line2d_8">
      <g>
       <use xlink:href="#m50b6039df2" x="419.727273" y="384.48" style="stroke: #000000; stroke-width: 0.8"/>
      </g>
     </g>
     <g id="text_4">
      <!-- 0.6 -->
      <g transform="translate(411.77571 399.078438) scale(0.1 -0.1)">
       <defs>
        <path id="DejaVuSans-36" d="M 2113 2584 
Q 1688 2584 1439 2293 
Q 1191 2003 1191 1497 
Q 1191 994 1439 701 
Q 1688 409 2113 409 
Q 2538 409 2786 701 
Q 3034 994 3034 1497 
Q 3034 2003 2786 2293 
Q 2538 2584 2113 2584 
z
M 3366 4563 
L 3366 3988 
Q 3128 4100 2886 4159 
Q 2644 4219 2406 4219 
Q 1781 4219 1451 3797 
Q 1122 3375 1075 2522 
Q 1259 2794 1537 2939 
Q 1816 3084 2150 3084 
Q 2853 3084 3261 2657 
Q 3669 2231 3669 1497 
Q 3669 778 3244 343 
Q 2819 -91 2113 -91 
Q 1303 -91 875 529 
Q 447 1150 447 2328 
Q 447 3434 972 4092 
Q 1497 4750 2381 4750 
Q 2619 4750 2861 4703 
Q 3103 4656 3366 4563 
z
" transform="scale(0.015625)"/>
       </defs>
       <use xlink:href="#DejaVuSans-30"/>
       <use xlink:href="#DejaVuSans-2e" transform="translate(63.623047 0)"/>
       <use xlink:href="#DejaVuSans-36" transform="translate(95.410156 0)"/>
      </g>
     </g>
    </g>
    <g id="xtick_5">
     <g id="line2d_9">
      <path d="M 521.181818 384.48 
L 521.181818 51.84 
" clip-path="url(#pb734ac44c4)" style="fill: none; stroke: #b0b0b0; stroke-width: 0.8; stroke-linecap: square"/>
     </g>
     <g id="line2d_10">
      <g>
       <use xlink:href="#m50b6039df2" x="521.181818" y="384.48" style="stroke: #000000; stroke-width: 0.8"/>
      </g>
     </g>
     <g id="text_5">
      <!-- 0.8 -->
      <g transform="translate(513.230256 399.078438) scale(0.1 -0.1)">
       <defs>
        <path id="DejaVuSans-38" d="M 2034 2216 
Q 1584 2216 1326 1975 
Q 1069 1734 1069 1313 
Q 1069 891 1326 650 
Q 1584 409 2034 409 
Q 2484 409 2743 651 
Q 3003 894 3003 1313 
Q 3003 1734 2745 1975 
Q 2488 2216 2034 2216 
z
M 1403 2484 
Q 997 2584 770 2862 
Q 544 3141 544 3541 
Q 544 4100 942 4425 
Q 1341 4750 2034 4750 
Q 2731 4750 3128 4425 
Q 3525 4100 3525 3541 
Q 3525 3141 3298 2862 
Q 3072 2584 2669 2484 
Q 3125 2378 3379 2068 
Q 3634 1759 3634 1313 
Q 3634 634 3220 271 
Q 2806 -91 2034 -91 
Q 1263 -91 848 271 
Q 434 634 434 1313 
Q 434 1759 690 2068 
Q 947 2378 1403 2484 
z
M 1172 3481 
Q 1172 3119 1398 2916 
Q 1625 2713 2034 2713 
Q 2441 2713 2670 2916 
Q 2900 3119 2900 3481 
Q 2900 3844 2670 4047 
Q 2441 4250 2034 4250 
Q 1625 4250 1398 4047 
Q 1172 3844 1172 3481 
z
" transform="scale(0.015625)"/>
       </defs>
       <use xlink:href="#DejaVuSans-30"/>
       <use xlink:href="#DejaVuSans-2e" transform="translate(63.623047 0)"/>
       <use xlink:href="#DejaVuSans-38" transform="translate(95.410156 0)"/>
      </g>
     </g>
    </g>
    <g id="xtick_6">
     <g id="line2d_11">
      <path d="M 622.636364 384.48 
L 622.636364 51.84 
" clip-path="url(#pb734ac44c4)" style="fill: none; stroke: #b0b0b0; stroke-width: 0.8; stroke-linecap: square"/>
     </g>
     <g id="line2d_12">
      <g>
       <use xlink:href="#m50b6039df2" x="622.636364" y="384.48" style="stroke: #000000; stroke-width: 0.8"/>
      </g>
     </g>
     <g id="text_6">
      <!-- 1.0 -->
      <g transform="translate(614.684801 399.078438) scale(0.1 -0.1)">
       <defs>
        <path id="DejaVuSans-31" d="M 794 531 
L 1825 531 
L 1825 4091 
L 703 3866 
L 703 4441 
L 1819 4666 
L 2450 4666 
L 2450 531 
L 3481 531 
L 3481 0 
L 794 0 
L 794 531 
z
" transform="scale(0.015625)"/>
       </defs>
       <use xlink:href="#DejaVuSans-31"/>
       <use xlink:href="#DejaVuSans-2e" transform="translate(63.623047 0)"/>
       <use xlink:href="#DejaVuSans-30" transform="translate(95.410156 0)"/>
      </g>
     </g>
    </g>
    <g id="text_7">
     <!-- Recall -->
     <g transform="translate(354.082812 412.756563) scale(0.1 -0.1)">
      <defs>
       <path id="DejaVuSans-52" d="M 2841 2188 
Q 3044 2119 3236 1894 
Q 3428 1669 3622 1275 
L 4263 0 
L 3584 0 
L 2988 1197 
Q 2756 1666 2539 1819 
Q 2322 1972 1947 1972 
L 1259 1972 
L 1259 0 
L 628 0 
L 628 4666 
L 2053 4666 
Q 2853 4666 3247 4331 
Q 3641 3997 3641 3322 
Q 3641 2881 3436 2590 
Q 3231 2300 2841 2188 
z
M 1259 4147 
L 1259 2491 
L 2053 2491 
Q 2509 2491 2742 2702 
Q 2975 2913 2975 3322 
Q 2975 3731 2742 3939 
Q 2509 4147 2053 4147 
L 1259 4147 
z
" transform="scale(0.015625)"/>
       <path id="DejaVuSans-65" d="M 3597 1894 
L 3597 1613 
L 953 1613 
Q 991 1019 1311 708 
Q 1631 397 2203 397 
Q 2534 397 2845 478 
Q 3156 559 3463 722 
L 3463 178 
Q 3153 47 2828 -22 
Q 2503 -91 2169 -91 
Q 1331 -91 842 396 
Q 353 884 353 1716 
Q 353 2575 817 3079 
Q 1281 3584 2069 3584 
Q 2775 3584 3186 3129 
Q 3597 2675 3597 1894 
z
M 3022 2063 
Q 3016 2534 2758 2815 
Q 2500 3097 2075 3097 
Q 1594 3097 1305 2825 
Q 1016 2553 972 2059 
L 3022 2063 
z
" transform="scale(0.015625)"/>
       <path id="DejaVuSans-63" d="M 3122 3366 
L 3122 2828 
Q 2878 2963 2633 3030 
Q 2388 3097 2138 3097 
Q 1578 3097 1268 2742 
Q 959 2388 959 1747 
Q 959 1106 1268 751 
Q 1578 397 2138 397 
Q 2388 397 2633 464 
Q 2878 531 3122 666 
L 3122 134 
Q 2881 22 2623 -34 
Q 2366 -91 2075 -91 
Q 1284 -91 818 406 
Q 353 903 353 1747 
Q 353 2603 823 3093 
Q 1294 3584 2113 3584 
Q 2378 3584 2631 3529 
Q 2884 3475 3122 3366 
z
" transform="scale(0.015625)"/>
       <path id="DejaVuSans-61" d="M 2194 1759 
Q 1497 1759 1228 1600 
Q 959 1441 959 1056 
Q 959 750 1161 570 
Q 1363 391 1709 391 
Q 2188 391 2477 730 
Q 2766 1069 2766 1631 
L 2766 1759 
L 2194 1759 
z
M 3341 1997 
L 3341 0 
L 2766 0 
L 2766 531 
Q 2569 213 2275 61 
Q 1981 -91 1556 -91 
Q 1019 -91 701 211 
Q 384 513 384 1019 
Q 384 1609 779 1909 
Q 1175 2209 1959 2209 
L 2766 2209 
L 2766 2266 
Q 2766 2663 2505 2880 
Q 2244 3097 1772 3097 
Q 1472 3097 1187 3025 
Q 903 2953 641 2809 
L 641 3341 
Q 956 3463 1253 3523 
Q 1550 3584 1831 3584 
Q 2591 3584 2966 3190 
Q 3341 2797 3341 1997 
z
" transform="scale(0.015625)"/>
       <path id="DejaVuSans-6c" d="M 603 4863 
L 1178 4863 
L 1178 0 
L 603 0 
L 603 4863 
z
" transform="scale(0.015625)"/>
      </defs>
      <use xlink:href="#DejaVuSans-52"/>
      <use xlink:href="#DejaVuSans-65" transform="translate(64.982422 0)"/>
      <use xlink:href="#DejaVuSans-63" transform="translate(126.505859 0)"/>
      <use xlink:href="#DejaVuSans-61" transform="translate(181.486328 0)"/>
      <use xlink:href="#DejaVuSans-6c" transform="translate(242.765625 0)"/>
      <use xlink:href="#DejaVuSans-6c" transform="translate(270.548828 0)"/>
     </g>
    </g>
   </g>
   <g id="matplotlib.axis_2">
    <g id="ytick_1">
     <g id="line2d_13">
      <path d="M 90 369.36 
L 648 369.36 
" clip-path="url(#pb734ac44c4)" style="fill: none; stroke: #b0b0b0; stroke-width: 0.8; stroke-linecap: square"/>
     </g>
     <g id="line2d_14">
      <defs>
       <path id="ma6c37834be" d="M 0 0 
L -3.5 0 
" style="stroke: #000000; stroke-width: 0.8"/>
      </defs>
      <g>
       <use xlink:href="#ma6c37834be" x="90" y="369.36" style="stroke: #000000; stroke-width: 0.8"/>
      </g>
     </g>
     <g id="text_8">
      <!-- 0.0 -->
      <g transform="translate(67.096875 373.159219) scale(0.1 -0.1)">
       <use xlink:href="#DejaVuSans-30"/>
       <use xlink:href="#DejaVuSans-2e" transform="translate(63.623047 0)"/>
       <use xlink:href="#DejaVuSans-30" transform="translate(95.410156 0)"/>
      </g>
     </g>
    </g>
    <g id="ytick_2">
     <g id="line2d_15">
      <path d="M 90 308.88 
L 648 308.88 
" clip-path="url(#pb734ac44c4)" style="fill: none; stroke: #b0b0b0; stroke-width: 0.8; stroke-linecap: square"/>
     </g>
     <g id="line2d_16">
      <g>
       <use xlink:href="#ma6c37834be" x="90" y="308.88" style="stroke: #000000; stroke-width: 0.8"/>
      </g>
     </g>
     <g id="text_9">
      <!-- 0.2 -->
      <g transform="translate(67.096875 312.679219) scale(0.1 -0.1)">
       <use xlink:href="#DejaVuSans-30"/>
       <use xlink:href="#DejaVuSans-2e" transform="translate(63.623047 0)"/>
       <use xlink:href="#DejaVuSans-32" transform="translate(95.410156 0)"/>
      </g>
     </g>
    </g>
    <g id="ytick_3">
     <g id="line2d_17">
      <path d="M 90 248.4 
L 648 248.4 
" clip-path="url(#pb734ac44c4)" style="fill: none; stroke: #b0b0b0; stroke-width: 0.8; stroke-linecap: square"/>
     </g>
     <g id="line2d_18">
      <g>
       <use xlink:href="#ma6c37834be" x="90" y="248.4" style="stroke: #000000; stroke-width: 0.8"/>
      </g>
     </g>
     <g id="text_10">
      <!-- 0.4 -->
      <g transform="translate(67.096875 252.199219) scale(0.1 -0.1)">
       <use xlink:href="#DejaVuSans-30"/>
       <use xlink:href="#DejaVuSans-2e" transform="translate(63.623047 0)"/>
       <use xlink:href="#DejaVuSans-34" transform="translate(95.410156 0)"/>
      </g>
     </g>
    </g>
    <g id="ytick_4">
     <g id="line2d_19">
      <path d="M 90 187.92 
L 648 187.92 
" clip-path="url(#pb734ac44c4)" style="fill: none; stroke: #b0b0b0; stroke-width: 0.8; stroke-linecap: square"/>
     </g>
     <g id="line2d_20">
      <g>
       <use xlink:href="#ma6c37834be" x="90" y="187.92" style="stroke: #000000; stroke-width: 0.8"/>
      </g>
     </g>
     <g id="text_11">
      <!-- 0.6 -->
      <g transform="translate(67.096875 191.719219) scale(0.1 -0.1)">
       <use xlink:href="#DejaVuSans-30"/>
       <use xlink:href="#DejaVuSans-2e" transform="translate(63.623047 0)"/>
       <use xlink:href="#DejaVuSans-36" transform="translate(95.410156 0)"/>
      </g>
     </g>
    </g>
    <g id="ytick_5">
     <g id="line2d_21">
      <path d="M 90 127.44 
L 648 127.44 
" clip-path="url(#pb734ac44c4)" style="fill: none; stroke: #b0b0b0; stroke-width: 0.8; stroke-linecap: square"/>
     </g>
     <g id="line2d_22">
      <g>
       <use xlink:href="#ma6c37834be" x="90" y="127.44" style="stroke: #000000; stroke-width: 0.8"/>
      </g>
     </g>
     <g id="text_12">
      <!-- 0.8 -->
      <g transform="translate(67.096875 131.239219) scale(0.1 -0.1)">
       <use xlink:href="#DejaVuSans-30"/>
       <use xlink:href="#DejaVuSans-2e" transform="translate(63.623047 0)"/>
       <use xlink:href="#DejaVuSans-38" transform="translate(95.410156 0)"/>
      </g>
     </g>
    </g>
    <g id="ytick_6">
     <g id="line2d_23">
      <path d="M 90 66.96 
L 648 66.96 
" clip-path="url(#pb734ac44c4)" style="fill: none; stroke: #b0b0b0; stroke-width: 0.8; stroke-linecap: square"/>
     </g>
     <g id="line2d_24">
      <g>
       <use xlink:href="#ma6c37834be" x="90" y="66.96" style="stroke: #000000; stroke-width: 0.8"/>
      </g>
     </g>
     <g id="text_13">
      <!-- 1.0 -->
      <g transform="translate(67.096875 70.759219) scale(0.1 -0.1)">
       <use xlink:href="#DejaVuSans-31"/>
       <use xlink:href="#DejaVuSans-2e" transform="translate(63.623047 0)"/>
       <use xlink:href="#DejaVuSans-30" transform="translate(95.410156 0)"/>
      </g>
     </g>
    </g>
    <g id="text_14">
     <!-- Precision -->
     <g transform="translate(61.017187 240.467031) rotate(-90) scale(0.1 -0.1)">
      <defs>
       <path id="DejaVuSans-50" d="M 1259 4147 
L 1259 2394 
L 2053 2394 
Q 2494 2394 2734 2622 
Q 2975 2850 2975 3272 
Q 2975 3691 2734 3919 
Q 2494 4147 2053 4147 
L 1259 4147 
z
M 628 4666 
L 2053 4666 
Q 2838 4666 3239 4311 
Q 3641 3956 3641 3272 
Q 3641 2581 3239 2228 
Q 2838 1875 2053 1875 
L 1259 1875 
L 1259 0 
L 628 0 
L 628 4666 
z
" transform="scale(0.015625)"/>
       <path id="DejaVuSans-72" d="M 2631 2963 
Q 2534 3019 2420 3045 
Q 2306 3072 2169 3072 
Q 1681 3072 1420 2755 
Q 1159 2438 1159 1844 
L 1159 0 
L 581 0 
L 581 3500 
L 1159 3500 
L 1159 2956 
Q 1341 3275 1631 3429 
Q 1922 3584 2338 3584 
Q 2397 3584 2469 3576 
Q 2541 3569 2628 3553 
L 2631 2963 
z
" transform="scale(0.015625)"/>
       <path id="DejaVuSans-69" d="M 603 3500 
L 1178 3500 
L 1178 0 
L 603 0 
L 603 3500 
z
M 603 4863 
L 1178 4863 
L 1178 4134 
L 603 4134 
L 603 4863 
z
" transform="scale(0.015625)"/>
       <path id="DejaVuSans-73" d="M 2834 3397 
L 2834 2853 
Q 2591 2978 2328 3040 
Q 2066 3103 1784 3103 
Q 1356 3103 1142 2972 
Q 928 2841 928 2578 
Q 928 2378 1081 2264 
Q 1234 2150 1697 2047 
L 1894 2003 
Q 2506 1872 2764 1633 
Q 3022 1394 3022 966 
Q 3022 478 2636 193 
Q 2250 -91 1575 -91 
Q 1294 -91 989 -36 
Q 684 19 347 128 
L 347 722 
Q 666 556 975 473 
Q 1284 391 1588 391 
Q 1994 391 2212 530 
Q 2431 669 2431 922 
Q 2431 1156 2273 1281 
Q 2116 1406 1581 1522 
L 1381 1569 
Q 847 1681 609 1914 
Q 372 2147 372 2553 
Q 372 3047 722 3315 
Q 1072 3584 1716 3584 
Q 2034 3584 2315 3537 
Q 2597 3491 2834 3397 
z
" transform="scale(0.015625)"/>
       <path id="DejaVuSans-6f" d="M 1959 3097 
Q 1497 3097 1228 2736 
Q 959 2375 959 1747 
Q 959 1119 1226 758 
Q 1494 397 1959 397 
Q 2419 397 2687 759 
Q 2956 1122 2956 1747 
Q 2956 2369 2687 2733 
Q 2419 3097 1959 3097 
z
M 1959 3584 
Q 2709 3584 3137 3096 
Q 3566 2609 3566 1747 
Q 3566 888 3137 398 
Q 2709 -91 1959 -91 
Q 1206 -91 779 398 
Q 353 888 353 1747 
Q 353 2609 779 3096 
Q 1206 3584 1959 3584 
z
" transform="scale(0.015625)"/>
       <path id="DejaVuSans-6e" d="M 3513 2113 
L 3513 0 
L 2938 0 
L 2938 2094 
Q 2938 2591 2744 2837 
Q 2550 3084 2163 3084 
Q 1697 3084 1428 2787 
Q 1159 2491 1159 1978 
L 1159 0 
L 581 0 
L 581 3500 
L 1159 3500 
L 1159 2956 
Q 1366 3272 1645 3428 
Q 1925 3584 2291 3584 
Q 2894 3584 3203 3211 
Q 3513 2838 3513 2113 
z
" transform="scale(0.015625)"/>
      </defs>
      <use xlink:href="#DejaVuSans-50"/>
      <use xlink:href="#DejaVuSans-72" transform="translate(58.552734 0)"/>
      <use xlink:href="#DejaVuSans-65" transform="translate(97.416016 0)"/>
      <use xlink:href="#DejaVuSans-63" transform="translate(158.939453 0)"/>
      <use xlink:href="#DejaVuSans-69" transform="translate(213.919922 0)"/>
      <use xlink:href="#DejaVuSans-73" transform="translate(241.703125 0)"/>
      <use xlink:href="#DejaVuSans-69" transform="translate(293.802734 0)"/>
      <use xlink:href="#DejaVuSans-6f" transform="translate(321.585938 0)"/>
      <use xlink:href="#DejaVuSans-6e" transform="translate(382.767578 0)"/>
     </g>
    </g>
   </g>
   <g id="line2d_25">
    <path d="M 622.636364 369.26976 
L 622.572119 369.257628 
L 618.588975 369.172254 
L 618.588975 369.147321 
L 618.524731 369.085901 
L 613.320945 368.980732 
L 613.320945 368.977622 
L 613.320945 368.977552 
L 611.714838 368.889353 
L 611.714838 368.867674 
L 611.650594 368.807446 
L 606.960763 368.719555 
L 606.960763 368.701548 
L 606.960763 368.674023 
L 606.254076 368.584925 
L 606.254076 368.563896 
L 606.254076 368.549742 
L 605.354656 368.449515 
L 605.354656 368.440113 
L 605.354656 368.37394 
L 605.097679 368.374455 
L 605.097679 368.263346 
L 605.097679 368.19387 
L 601.821221 368.131202 
L 601.821221 368.090534 
L 601.821221 368.063843 
L 601.114534 367.989927 
L 601.114534 367.954608 
L 601.114534 367.938869 
L 600.729069 367.939991 
L 600.729069 367.828886 
L 600.729069 367.817699 
L 599.058718 367.717644 
L 599.058718 367.711875 
L 599.058718 367.670766 
L 598.03081 367.578606 
L 598.03081 367.563236 
L 598.03081 367.484078 
L 597.709588 367.450835 
L 597.709588 367.374222 
L 597.709588 366.948186 
L 597.067146 366.898487 
L 597.067146 366.840274 
L 597.067146 363.5154 
L 596.553191 363.521515 
L 596.553191 363.410418 
L 596.553191 358.889221 
L 595.974993 358.901368 
L 595.974993 358.790891 
L 595.974993 358.282139 
L 595.396795 358.294978 
L 595.396795 358.183932 
L 595.396795 355.683351 
L 595.011329 355.693837 
L 595.011329 355.583008 
L 594.947085 328.429933 
L 594.433131 328.467865 
L 594.433131 328.362294 
L 594.433131 324.611785 
L 593.854932 324.657809 
L 593.854932 324.546629 
L 593.854932 323.591351 
L 593.469467 323.622645 
L 593.469467 323.511761 
L 593.469467 307.30229 
L 593.21249 307.328803 
L 593.21249 307.219123 
L 593.21249 282.593376 
L 592.827024 282.643297 
L 592.827024 282.556215 
L 592.827024 275.884277 
L 592.441558 275.936428 
L 592.441558 275.846949 
L 592.441558 267.977499 
L 591.220917 268.150077 
L 591.220917 268.067692 
L 591.220917 266.039884 
L 589.422078 266.297342 
L 589.422078 266.187742 
L 589.422078 244.922704 
L 589.036612 244.982269 
L 589.036612 244.892005 
L 589.036612 213.017864 
L 588.522658 213.099844 
L 588.522658 213.077915 
L 588.522658 208.981517 
L 587.687483 209.114591 
L 587.687483 209.10304 
L 587.687483 208.929577 
L 587.366261 208.980819 
L 587.366261 208.911325 
L 587.366261 198.128185 
L 587.237773 198.148407 
L 587.237773 198.055974 
L 587.237773 194.633128 
L 586.531086 194.743702 
L 586.531086 194.647411 
L 586.531086 185.797543 
L 586.274109 185.8369 
L 586.274109 185.730475 
L 586.274109 185.288251 
L 585.952888 185.337403 
L 585.952888 185.245629 
L 585.952888 176.206878 
L 585.760155 176.235464 
L 585.760155 172.176564 
L 585.246201 172.251578 
L 585.246201 172.163709 
L 585.246201 169.074425 
L 585.053468 169.102174 
L 585.053468 169.02959 
L 585.053468 168.520029 
L 584.411025 168.612373 
L 584.411025 168.57586 
L 584.411025 167.934729 
L 583.511605 168.063864 
L 583.511605 160.706577 
L 583.12614 160.759867 
L 583.12614 160.581847 
L 582.22672 160.706297 
L 582.22672 160.189926 
L 579.785438 160.528361 
L 579.785438 159.948217 
L 579.078751 160.046306 
L 579.078751 159.945897 
L 579.078751 159.139139 
L 578.886018 159.16578 
L 578.886018 159.044211 
L 578.372064 159.094993 
L 578.372064 156.236902 
L 577.986599 156.289315 
L 577.986599 156.185022 
L 577.986599 155.24177 
L 577.151423 155.354762 
L 577.151423 153.976409 
L 574.260431 154.259104 
L 574.260431 153.700735 
L 572.268859 153.970035 
L 572.204615 152.742049 
L 572.076126 152.759335 
L 572.076126 152.606461 
L 571.176706 152.727528 
L 571.176706 152.683773 
L 571.176706 152.53049 
L 570.148798 152.66908 
L 570.148798 152.207474 
L 568.414203 152.375385 
L 568.414203 151.93292 
L 565.780188 152.267393 
L 565.780188 152.022594 
L 564.045593 152.236365 
L 564.045593 151.587098 
L 562.182509 151.840918 
L 562.182509 151.54807 
L 561.797043 151.600663 
L 561.797043 151.532945 
L 561.797043 151.487776 
L 560.704891 151.546534 
L 560.704891 150.751511 
L 559.676983 150.868734 
L 559.676983 150.181798 
L 556.529014 150.588319 
L 556.529014 150.496088 
L 556.015059 150.566582 
L 556.015059 148.727982 
L 555.372617 148.815053 
L 555.372617 148.791565 
L 555.372617 147.824264 
L 554.280464 147.971573 
L 554.280464 147.82914 
L 553.445289 147.918247 
L 553.445289 147.537108 
L 553.188312 147.571795 
L 553.188312 147.189237 
L 551.582205 147.310038 
L 551.582205 147.213944 
L 550.490053 147.361821 
L 550.490053 147.289611 
L 550.490053 147.193257 
L 549.269411 147.358957 
L 549.269411 147.310685 
L 549.269411 146.754049 
L 547.984526 146.928367 
L 547.984526 146.270429 
L 547.470572 146.266614 
L 547.470572 146.217663 
L 544.515336 146.619676 
L 544.515336 146.275295 
L 543.037718 146.477272 
L 543.037718 146.254957 
L 542.331031 146.351744 
L 542.331031 146.12881 
L 540.981901 146.313908 
L 540.981901 145.890954 
L 539.568527 146.085126 
L 539.568527 145.53451 
L 537.448466 145.826247 
L 537.448466 145.599667 
L 537.191489 145.63511 
L 537.191489 144.825521 
L 536.227825 144.932403 
L 536.227825 144.830656 
L 535.199917 144.972127 
L 535.199917 144.946645 
L 535.199917 144.538157 
L 533.401078 144.786067 
L 533.401078 144.29803 
L 533.144101 144.333429 
L 533.144101 144.204607 
L 531.409505 144.340765 
L 531.409505 144.185526 
L 529.67491 144.426021 
L 529.67491 143.905942 
L 527.233628 144.245462 
L 527.233628 144.009959 
L 523.314728 144.45487 
L 523.314728 144.375817 
L 520.295247 144.725091 
L 520.295247 144.539618 
L 519.909782 144.594561 
L 519.909782 144.488389 
L 519.909782 144.461831 
L 519.331583 144.544299 
L 519.331583 144.411319 
L 518.560652 144.521426 
L 518.560652 144.281442 
L 517.661232 144.356578 
L 517.661232 143.8206 
L 517.083034 143.903079 
L 517.083034 143.7955 
L 517.083034 143.606991 
L 511.622271 144.284195 
L 511.622271 144.121116 
L 510.337386 144.307924 
L 510.337386 144.089771 
L 508.024592 144.345537 
L 507.960348 143.998244 
L 501.600166 144.912 
L 501.600166 144.82884 
L 501.600166 144.551196 
L 500.508013 144.714647 
L 500.508013 144.686806 
L 500.508013 144.072564 
L 499.544349 144.216574 
L 499.544349 143.823457 
L 497.103067 144.189474 
L 497.103067 143.708763 
L 495.111495 144.008714 
L 495.111495 143.838123 
L 493.762365 144.042353 
L 493.762365 143.842654 
L 490.614396 144.236574 
L 490.614396 143.978043 
L 490.036198 144.066592 
L 490.036198 143.083788 
L 488.237358 143.358249 
L 488.237358 143.008491 
L 487.851893 143.067383 
L 487.851893 142.628434 
L 486.75974 142.795148 
L 486.75974 142.471694 
L 484.318458 142.845953 
L 484.318458 141.896582 
L 480.785023 142.410376 
L 480.785023 142.050472 
L 479.949848 142.179698 
L 479.949848 141.818234 
L 479.307405 141.917621 
L 479.307405 141.796769 
L 478.279497 141.956166 
L 478.279497 141.92589 
L 478.279497 141.470779 
L 477.508566 141.590251 
L 477.508566 141.285502 
L 476.416413 141.454944 
L 476.416413 141.026264 
L 474.681818 141.295922 
L 474.681818 141.080448 
L 473.268444 141.301194 
L 473.268444 140.619959 
L 473.075712 140.649976 
L 473.075712 140.370037 
L 472.30478 140.490037 
L 472.30478 140.052726 
L 471.790826 140.132619 
L 471.790826 140.101295 
L 471.790826 139.913173 
L 471.405361 139.973085 
L 471.405361 139.690163 
L 470.505941 139.829971 
L 470.505941 139.735385 
L 470.505941 138.944121 
L 470.248964 138.983831 
L 470.248964 138.250758 
L 469.028323 138.438652 
L 469.028323 137.796222 
L 466.587041 138.140308 
L 466.587041 137.556747 
L 465.430644 137.637654 
L 465.430644 137.409324 
L 462.346919 137.822943 
L 462.346919 137.3625 
L 457.464355 138.064395 
L 457.464355 137.464839 
L 452.517546 138.255413 
L 452.517546 137.952126 
L 451.746615 138.076564 
L 451.746615 137.907522 
L 451.489638 137.94903 
L 451.489638 137.745771 
L 448.148936 138.288751 
L 448.148936 137.913191 
L 447.763471 137.976149 
L 447.763471 136.391328 
L 447.121028 136.494864 
L 447.121028 136.18192 
L 445.964631 136.368474 
L 445.900387 135.784261 
L 445.514921 135.846311 
L 445.514921 135.63559 
L 439.154739 136.566965 
L 439.154739 136.282159 
L 435.621304 136.798445 
L 435.621304 136.511066 
L 435.492816 136.532559 
L 435.492816 136.316511 
L 433.565488 136.639801 
L 433.565488 135.805158 
L 432.409091 135.96244 
L 432.409091 135.852881 
L 430.28903 136.17378 
L 430.28903 136.063683 
L 427.911992 136.468438 
L 427.911992 136.394679 
L 427.911992 135.91411 
L 426.948328 136.078626 
L 426.948328 135.892951 
L 424.699779 136.279161 
L 424.699779 136.092458 
L 423.286405 136.336977 
L 423.286405 136.149509 
L 417.761398 137.120352 
L 417.761398 136.740814 
L 412.36488 137.635286 
L 412.36488 136.244242 
L 409.666621 136.732897 
L 409.602376 136.549107 
L 408.638712 136.725015 
L 408.638712 136.489555 
L 407.610804 136.677727 
L 407.610804 136.362439 
L 406.839873 136.503788 
L 406.839873 136.464261 
L 406.839873 135.909464 
L 406.004697 136.062319 
L 406.004697 135.903072 
L 404.013125 136.269727 
L 404.013125 135.386657 
L 403.113705 135.552025 
L 403.113705 134.701372 
L 402.407019 134.830717 
L 402.407019 134.79 
L 402.407019 134.218475 
L 400.608179 134.547828 
L 400.608179 134.218844 
L 397.845676 134.68778 
L 397.845676 134.604915 
L 396.496546 134.856651 
L 396.496546 134.482045 
L 395.404393 134.686402 
L 395.404393 134.142013 
L 394.247997 134.358496 
L 394.247997 134.147959 
L 393.027356 134.377476 
L 393.027356 133.996629 
L 391.999447 134.190341 
L 391.999447 133.850071 
L 391.549737 133.934864 
L 391.549737 133.764204 
L 391.035783 133.861198 
L 391.035783 133.433018 
L 390.650318 133.505613 
L 390.650318 133.204724 
L 387.695082 133.764779 
L 387.695082 133.591451 
L 383.45496 134.410233 
L 383.45496 133.971975 
L 380.949434 134.463044 
L 380.949434 134.065138 
L 379.793037 134.293258 
L 379.793037 133.848477 
L 378.700884 134.064328 
L 378.700884 133.84079 
L 375.103205 134.560077 
L 375.103205 134.289206 
L 372.726167 134.771619 
L 372.726167 134.270848 
L 369.963664 134.791356 
L 369.963664 134.653537 
L 368.421802 134.973223 
L 368.421802 134.557398 
L 367.907847 134.664166 
L 367.907847 134.571456 
L 367.907847 133.733756 
L 367.201161 133.879666 
L 367.201161 133.081746 
L 366.044764 133.319832 
L 366.044764 133.178094 
L 364.053191 133.591541 
L 364.053191 133.401443 
L 363.28226 133.562546 
L 363.28226 133.132955 
L 362.318596 133.334497 
L 362.318596 132.902392 
L 357.500276 133.924016 
L 357.500276 133.534302 
L 355.251727 134.019942 
L 355.251727 133.725275 
L 354.737773 133.836923 
L 354.737773 131.75089 
L 354.416552 131.819278 
L 354.416552 131.165588 
L 353.64562 131.3291 
L 353.64562 131.177456 
L 353.260155 131.259383 
L 353.260155 130.802863 
L 350.754628 131.235435 
L 350.754628 130.568276 
L 348.955789 130.954449 
L 348.955789 130.072427 
L 348.441835 130.182498 
L 348.441835 129.921502 
L 345.486599 130.56 
L 345.486599 129.820681 
L 344.137469 130.0608 
L 344.137469 129.687977 
L 342.916828 129.954367 
L 342.916828 128.825349 
L 342.595607 128.894892 
L 342.595607 128.461622 
L 339.64037 129.105471 
L 339.64037 128.88656 
L 338.805195 129.070487 
L 338.805195 128.795682 
L 336.942111 129.097941 
L 336.942111 128.709885 
L 331.417104 129.96 
L 331.417104 129.847235 
L 331.417104 129.790813 
L 329.425532 130.253023 
L 329.425532 128.82603 
L 325.827853 129.664283 
L 325.827853 129.432076 
L 323.836281 129.904656 
L 323.836281 129.436284 
L 322.679884 129.712456 
L 322.679884 129.004138 
L 320.559823 129.51257 
L 320.559823 129.214401 
L 318.825228 129.635144 
L 318.825228 128.852516 
L 315.99848 129.544053 
L 315.99848 129.422195 
L 314.713595 129.741205 
L 314.713595 129.496196 
L 312.336557 130.093316 
L 312.336557 129.96976 
L 310.473473 130.44512 
L 310.473473 128.755127 
L 306.490329 129.775446 
L 306.490329 128.557002 
L 299.42346 130.425637 
L 299.42346 129.831109 
L 299.037994 129.935575 
L 299.037994 129.802893 
L 298.07433 130.065175 
L 298.07433 129.129385 
L 297.688864 129.233755 
L 297.688864 128.627546 
L 294.412407 129.52255 
L 294.412407 129.385968 
L 293.70572 129.582108 
L 293.70572 129.5136 
L 293.70572 127.927041 
L 291.392926 128.494884 
L 291.392926 127.227914 
L 290.236529 127.546604 
L 290.236529 127.404444 
L 288.501934 127.888 
L 288.501934 127.242353 
L 286.060652 127.930673 
L 286.060652 127.275999 
L 284.197568 127.80766 
L 284.197568 126.701313 
L 281.563553 127.458701 
L 281.563553 127.30901 
L 272.6336 130.021106 
L 272.183891 130.164148 
L 272.183891 129.931392 
L 272.119646 129.951823 
L 271.155982 130.259902 
L 271.155982 129.163472 
L 270.51354 129.367887 
L 270.51354 128.497203 
L 266.273418 129.866541 
L 266.273418 129.624057 
L 265.502487 129.878875 
L 265.502487 128.901068 
L 264.538823 129.218824 
L 264.538823 128.477393 
L 263.189693 128.923787 
L 263.189693 128.173726 
L 260.748411 128.990769 
L 260.748411 128.737215 
L 260.234457 128.911481 
L 260.234457 128.145992 
L 258.821083 128.625882 
L 258.821083 128.368137 
L 257.921663 128.676499 
L 257.921663 128.07068 
L 254.837939 129.143974 
L 254.837939 129.056047 
L 254.837939 128.88 
L 253.874275 129.222099 
L 253.874275 128.690233 
L 253.231832 128.918948 
L 253.231832 127.485084 
L 252.717878 127.666093 
L 252.717878 126.668108 
L 249.184443 127.926807 
L 249.184443 127.370296 
L 248.285023 127.696964 
L 248.285023 127.510135 
L 247.192871 127.816676 
L 247.192871 127.722617 
L 245.329787 128.416636 
L 245.329787 127.655061 
L 243.852169 128.211675 
L 243.852169 128.019218 
L 237.813208 130.398806 
L 235.371926 131.414254 
L 235.371926 131.213626 
L 233.251865 132.018683 
L 233.251865 131.713747 
L 232.994888 131.824865 
L 232.994888 129.353758 
L 232.673667 129.489279 
L 232.673667 128.96714 
L 232.545178 129.021176 
L 232.545178 128.074961 
L 231.710003 128.424496 
L 231.710003 127.145759 
L 230.16814 127.791471 
L 230.16814 127.141802 
L 226.377729 128.776575 
L 226.377729 127.998707 
L 226.184996 128.083404 
L 226.184996 127.187298 
L 224.064935 128.124356 
L 224.064935 126.63666 
L 222.201851 127.469091 
L 222.201851 127.119538 
L 216.6126 129.75095 
L 214.299807 130.908387 
L 214.299807 130.173559 
L 208.967532 132.861449 
L 208.967532 132.352577 
L 204.341945 134.987308 
L 204.341945 134.724706 
L 201.579442 136.397428 
L 201.579442 135.861266 
L 199.523625 137.153669 
L 199.523625 136.607944 
L 197.403565 137.985045 
L 197.403565 136.449988 
L 195.668969 137.600343 
L 195.668969 135.449109 
L 194.76955 136.04764 
L 194.76955 132.948615 
L 194.31984 133.242084 
L 194.31984 133.091977 
L 192.97071 133.986804 
L 192.97071 133.378605 
L 191.685825 134.247958 
L 191.685825 132.69913 
L 187.381459 135.734638 
L 186.739016 136.211908 
L 186.739016 135.400111 
L 186.353551 135.687273 
L 186.353551 133.709788 
L 185.197154 134.568 
L 185.197154 132.025126 
L 183.78378 133.075334 
L 183.78378 132.379868 
L 182.563139 133.307463 
L 182.563139 132.777801 
L 180.443078 134.443436 
L 180.443078 132.261548 
L 177.295109 134.835784 
L 177.295109 132.933723 
L 176.395689 133.691419 
L 176.395689 132.720791 
L 174.982316 133.934497 
L 174.982316 129.096986 
L 172.990743 130.791135 
L 172.990743 127.386048 
L 172.091324 128.150244 
L 172.091324 127.055826 
L 171.448881 127.606154 
L 171.448881 122.865882 
L 170.67795 123.499377 
L 170.67795 121.392 
L 169.842774 122.074368 
L 169.842774 118.690205 
L 169.457309 118.995398 
L 169.457309 116.76 
L 168.493645 117.512266 
L 168.493645 117.003996 
L 165.024454 119.888068 
L 165.024454 118.5497 
L 164.253523 119.222609 
L 164.253523 116.195644 
L 161.876485 118.284771 
L 157.957585 122.145203 
L 157.957585 119.992836 
L 157.700608 120.258 
L 157.700608 119.633684 
L 156.22299 121.196903 
L 156.22299 119.26065 
L 153.396242 122.434759 
L 150.826471 125.674161 
L 150.826471 120.218507 
L 148.449434 123.331564 
L 148.449434 122.16 
L 146.393617 125.113846 
L 144.594778 127.970526 
L 144.594778 125.834336 
L 142.988671 128.56 
L 142.988671 124.478644 
L 140.804366 128.413521 
L 139.134015 131.80586 
L 137.335175 135.90447 
L 136.94971 136.851076 
L 136.94971 131.961869 
L 135.086626 136.686316 
L 133.544764 141.1488 
L 133.544764 135.537049 
L 133.095054 136.874206 
L 133.095054 136.224804 
L 130.846505 143.730279 
L 130.846505 127.23907 
L 129.111909 133.178978 
L 128.533711 135.427925 
L 128.533711 131.842759 
L 128.21249 133.11 
L 128.21249 120.471111 
L 126.991849 125.01 
L 125.642719 131.015172 
L 123.201437 145.767273 
L 122.430506 151.948235 
L 122.430506 150.517895 
L 121.531086 158.994783 
L 120.246201 174.593898 
L 120.246201 154.571215 
L 119.924979 158.865882 
L 119.924979 156.781782 
L 119.860735 157.68 
L 119.089804 170.050909 
L 118.447361 183.267692 
L 118.447361 170.521644 
L 117.869163 185.085 
L 117.355209 201.96 
L 117.355209 198.916364 
L 116.070323 274.32 
L 116.070323 268.56 
L 116.070323 194.286316 
L 115.813346 228.24 
L 115.363636 369.36 
L 115.363636 369.36 
L 115.363636 66.96 
L 115.363636 66.96 
" clip-path="url(#pb734ac44c4)" style="fill: none; stroke: #1f77b4; stroke-width: 1.5; stroke-linecap: square"/>
   </g>
   <g id="line2d_26">
    <path d="M 622.636364 369.271566 
L 622.636364 369.249883 
L 619.489673 369.174979 
L 619.489673 369.139455 
L 619.489673 369.132724 
L 611.622947 369.039675 
L 611.622947 369.025158 
L 611.622947 369.015898 
L 609.197373 368.909443 
L 609.197373 368.906468 
L 609.197373 368.848833 
L 606.050683 368.81345 
L 606.050683 368.740975 
L 605.985127 368.545049 
L 604.93623 368.512807 
L 604.93623 368.435676 
L 604.93623 368.417328 
L 604.084001 368.402567 
L 604.084001 368.307853 
L 604.084001 368.243883 
L 602.77288 368.215213 
L 602.77288 368.135759 
L 602.77288 368.126347 
L 600.60953 368.063001 
L 600.60953 368.02069 
L 600.60953 367.920301 
L 599.95397 367.822849 
L 599.95397 367.811166 
L 599.95397 367.77386 
L 598.839517 367.768707 
L 598.839517 367.666387 
L 598.839517 367.590511 
L 598.446181 367.591942 
L 598.446181 367.480839 
L 598.446181 367.446917 
L 597.987288 367.357036 
L 597.987288 367.337616 
L 597.987288 367.0798 
L 597.069504 367.084103 
L 597.069504 366.973004 
L 597.003947 364.321463 
L 596.938391 364.322137 
L 596.938391 364.211126 
L 596.938391 363.457341 
L 596.676167 363.460492 
L 596.676167 363.349478 
L 596.676167 360.061658 
L 596.151719 360.071479 
L 596.151719 359.960544 
L 596.151719 358.237123 
L 593.660589 358.292645 
L 593.660589 358.18162 
L 593.660589 353.278903 
L 591.169459 353.358227 
L 591.169459 353.247569 
L 591.169459 344.271764 
L 591.038347 344.278104 
L 591.038347 344.167523 
L 591.038347 336.490829 
L 590.448342 336.527172 
L 590.448342 336.418101 
L 590.448342 265.0032 
L 590.055006 265.0598 
L 590.055006 264.9902 
L 590.055006 244.563556 
L 589.66167 244.62431 
L 589.66167 244.553155 
L 589.66167 190.481413 
L 589.137221 190.562258 
L 589.137221 190.474447 
L 589.137221 184.356631 
L 588.284993 184.485966 
L 588.284993 176.442278 
L 588.088324 176.471331 
L 588.088324 176.403058 
L 588.088324 174.767246 
L 587.236096 174.892458 
L 587.236096 174.822937 
L 587.236096 174.631498 
L 586.711647 174.708612 
L 586.711647 172.327286 
L 586.383867 172.37505 
L 586.383867 171.81986 
L 585.990531 171.877093 
L 585.990531 168.329386 
L 584.876078 168.489215 
L 584.876078 168.377372 
L 584.876078 165.597765 
L 583.499401 165.793032 
L 583.499401 165.716243 
L 583.499401 164.615675 
L 581.663831 164.875619 
L 581.663831 161.81743 
L 581.401607 161.854054 
L 581.401607 161.753858 
L 581.401607 161.251423 
L 581.008271 161.306222 
L 581.008271 161.26591 
L 581.008271 160.456363 
L 580.746047 160.49275 
L 580.746047 157.962895 
L 580.418266 158.007724 
L 580.418266 157.96607 
L 580.418266 157.066522 
L 580.02493 157.120055 
L 580.02493 156.867564 
L 579.69715 156.912152 
L 579.69715 153.812128 
L 578.123805 154.022403 
L 578.123805 153.978949 
L 578.123805 152.182098 
L 577.664912 152.242834 
L 577.664912 150.706786 
L 576.091567 150.913377 
L 576.091567 148.965185 
L 575.173782 149.084416 
L 575.173782 148.763682 
L 573.338213 149.002599 
L 573.338213 148.979612 
L 573.338213 148.472673 
L 572.87932 148.532376 
L 572.87932 148.277913 
L 571.568199 148.355841 
L 571.568199 148.123499 
L 571.502643 148.132032 
L 571.240419 148.166185 
L 571.240419 148.0032 
L 570.650415 148.010084 
L 570.650415 147.472203 
L 569.339294 147.642689 
L 569.339294 147.572243 
L 569.339294 147.454733 
L 568.159285 147.608561 
L 568.159285 147.585016 
L 568.159285 147.325685 
L 566.91372 147.488334 
L 566.91372 146.919675 
L 566.389271 146.988046 
L 566.389271 146.224865 
L 565.012594 146.403792 
L 565.012594 146.019675 
L 564.029254 146.123499 
L 564.029254 144.718124 
L 562.849245 144.870343 
L 562.849245 144.552507 
L 562.25924 144.628636 
L 562.25924 144.432471 
L 557.670317 144.954721 
L 557.670317 144.732366 
L 555.179187 145.059104 
L 555.179187 144.959867 
L 555.179187 144.287712 
L 554.982518 144.313457 
L 554.982518 144.163509 
L 553.868066 144.234391 
L 553.868066 144.109042 
L 552.950281 144.229507 
L 552.950281 144.003296 
L 549.082474 144.514147 
L 549.082474 144.286493 
L 546.591344 144.618479 
L 546.591344 143.802998 
L 544.755774 143.970833 
L 544.755774 143.868197 
L 544.16577 143.947077 
L 544.16577 143.869986 
L 544.16577 143.483741 
L 542.985761 143.615528 
L 542.985761 143.382775 
L 541.871308 143.428167 
L 541.871308 143.350304 
L 539.51129 143.667533 
L 539.51129 143.432979 
L 537.282384 143.734403 
L 537.282384 143.498749 
L 535.053479 143.723077 
L 535.053479 143.486146 
L 531.05456 144.008208 
L 531.05456 143.530486 
L 530.267887 143.638854 
L 530.267887 143.505669 
L 530.071219 143.532778 
L 530.071219 143.452773 
L 530.071219 143.239149 
L 527.580089 143.58332 
L 527.580089 143.368652 
L 525.744519 143.623773 
L 525.744519 143.516049 
L 525.744519 143.462148 
L 525.154515 143.544399 
L 525.154515 143.382427 
L 524.367842 143.492216 
L 524.367842 143.384003 
L 524.367842 143.19438 
L 524.040062 143.240101 
L 524.040062 143.185843 
L 524.040062 143.050084 
L 517.287789 143.920506 
L 517.287789 143.700993 
L 512.633309 144.259398 
L 512.567753 143.936575 
L 512.043305 144.012414 
L 512.043305 143.567502 
L 504.438803 144.623711 
L 504.438803 144.482917 
L 502.603233 144.755851 
L 502.603233 144.699354 
L 502.603233 144.473081 
L 502.406565 144.502368 
L 502.406565 144.332322 
L 501.357668 144.488669 
L 501.357668 144.375011 
L 499.063206 144.718903 
L 499.063206 144.547705 
L 498.800982 144.587144 
L 498.800982 144.387016 
L 495.588736 144.843871 
L 495.588736 144.123067 
L 494.998731 144.212353 
L 494.998731 143.95153 
L 493.097606 144.24 
L 493.097606 143.656788 
L 490.344252 143.988274 
L 490.344252 143.694247 
L 489.623135 143.804526 
L 489.623135 143.538993 
L 483.133086 144.45426 
L 483.133086 144.305078 
L 481.100848 144.624473 
L 481.100848 144.354719 
L 479.265279 144.614733 
L 479.265279 144.343592 
L 478.74083 144.426667 
L 478.74083 144.15468 
L 477.888602 144.289744 
L 477.888602 144.229144 
L 477.888602 144.168511 
L 475.135248 144.607671 
L 475.135248 144.51632 
L 475.135248 144.180733 
L 473.627458 144.422474 
L 473.627458 143.438469 
L 473.496346 143.459385 
L 473.496346 143.18103 
L 472.250781 143.379822 
L 472.250781 142.82008 
L 471.464109 142.945555 
L 471.464109 142.851892 
L 471.464109 142.758151 
L 469.235203 143.021231 
L 469.235203 142.832773 
L 468.710754 142.917099 
L 468.710754 142.444227 
L 468.055194 142.54946 
L 468.055194 142.042409 
L 467.596302 142.115916 
L 467.596302 141.67009 
L 464.97406 142.091229 
L 464.97406 141.995105 
L 464.97406 141.513264 
L 462.155149 141.904291 
L 462.155149 141.871945 
L 462.155149 141.483077 
L 459.205127 141.963871 
L 459.205127 141.637387 
L 458.025118 141.83088 
L 458.025118 141.173945 
L 455.99288 141.408397 
L 455.99288 141.143529 
L 451.076177 141.927132 
L 451.076177 141.626118 
L 449.109495 141.856173 
L 449.109495 141.654276 
L 448.19171 141.809266 
L 448.19171 141.674281 
L 447.470594 141.796364 
L 447.470594 141.220253 
L 447.339482 141.242377 
L 447.339482 140.663226 
L 443.406119 141.260874 
L 443.406119 140.847526 
L 443.20945 140.881015 
L 443.20945 140.846491 
L 443.20945 140.43139 
L 439.603868 141.048231 
L 439.603868 140.419176 
L 437.89941 140.642398 
L 437.89941 140.184399 
L 437.24385 140.297365 
L 437.24385 139.872519 
L 435.211612 140.22355 
L 435.211612 139.93851 
L 434.687164 140.029407 
L 434.687164 139.025301 
L 433.113818 139.296776 
L 433.113818 138.971317 
L 429.836016 139.432468 
L 429.836016 139.286598 
L 429.639348 139.321028 
L 429.639348 138.882162 
L 426.95155 139.243573 
L 426.95155 138.504362 
L 425.574873 138.746495 
L 425.574873 138.224998 
L 424.394864 138.432801 
L 424.394864 137.644525 
L 422.62485 137.956114 
L 422.62485 137.842718 
L 422.62485 137.767059 
L 421.641509 137.941032 
L 421.641509 136.951249 
L 421.444841 136.985806 
L 421.444841 136.679446 
L 420.723725 136.806062 
L 420.723725 136.267298 
L 419.347048 136.508987 
L 419.347048 136.005232 
L 418.494819 136.15493 
L 418.494819 135.999252 
L 417.904814 136.103105 
L 417.904814 135.751697 
L 412.594774 136.578744 
L 412.594774 136.063828 
L 412.463662 136.087353 
L 412.463662 135.530142 
L 411.480321 135.706083 
L 411.480321 135.666108 
L 411.480321 135.586117 
L 407.743626 136.262178 
L 407.743626 135.494212 
L 405.18694 135.960838 
L 405.18694 135.470847 
L 399.483564 136.529728 
L 399.483564 136.322731 
L 397.320214 136.690519 
L 397.320214 135.729247 
L 395.746869 136.027003 
L 395.746869 135.731965 
L 395.222421 135.831491 
L 395.222421 135.365873 
L 392.927959 135.802612 
L 392.927959 134.215537 
L 391.74795 134.438607 
L 391.74795 134.352 
L 391.74795 133.961477 
L 391.485726 134.010998 
L 391.42017 133.237916 
L 388.535703 133.783107 
L 388.535703 133.518563 
L 387.159026 133.736922 
L 387.159026 133.515305 
L 385.913461 133.754034 
L 385.913461 133.620521 
L 384.667896 133.860626 
L 384.667896 133.23394 
L 381.390094 133.869845 
L 381.390094 133.507761 
L 379.2923 133.919582 
L 379.2923 133.646079 
L 377.587843 133.983468 
L 377.587843 133.294426 
L 371.950022 134.426773 
L 371.950022 134.19338 
L 364.804413 135.634223 
L 364.804413 135.539232 
L 364.804413 135.349018 
L 362.903287 135.754763 
L 362.903287 135.56344 
L 359.166592 136.373549 
L 359.166592 135.647282 
L 358.248808 135.847703 
L 358.248808 135.213292 
L 356.21657 135.658359 
L 356.21657 135.363033 
L 355.364341 135.550834 
L 355.364341 134.907141 
L 354.446557 135.109193 
L 354.446557 134.009424 
L 353.200992 134.282391 
L 353.200992 134.03027 
L 353.004323 134.073458 
L 353.004323 133.668751 
L 350.775418 134.109047 
L 350.775418 133.495882 
L 350.119857 133.640714 
L 350.119857 133.486683 
L 348.546512 133.836286 
L 348.546512 132.696238 
L 347.563171 132.913907 
L 347.563171 132.8617 
L 347.563171 132.547973 
L 346.25205 132.83928 
L 346.25205 132.628993 
L 343.695364 133.203229 
L 343.695364 132.938182 
L 342.384243 133.182463 
L 342.384243 133.129186 
L 342.384243 133.075884 
L 340.810898 133.435862 
L 340.810898 132.791847 
L 334.386405 134.238194 
L 334.386405 133.909429 
L 332.354167 134.39662 
L 332.354167 134.231036 
L 331.895275 134.341835 
L 331.895275 133.676376 
L 331.30527 133.818359 
L 331.30527 133.427835 
L 329.141921 133.951454 
L 329.141921 133.501019 
L 328.355248 133.69255 
L 328.355248 133.296185 
L 326.847459 133.664808 
L 326.847459 133.436808 
L 325.274114 133.824899 
L 325.274114 133.480633 
L 323.897436 133.764996 
L 323.897436 133.649537 
L 322.586315 133.977976 
L 322.586315 133.861996 
L 319.636293 134.612018 
L 319.636293 133.849278 
L 316.161822 134.747234 
L 316.161822 133.672672 
L 314.326253 134.151389 
L 314.326253 133.607624 
L 313.408468 133.848167 
L 313.408468 133.787437 
L 313.408468 132.933913 
L 311.507343 133.432803 
L 311.507343 133.063108 
L 303.837285 135.146638 
L 303.837285 133.430556 
L 301.608379 134.049565 
L 301.608379 133.597541 
L 300.952818 133.780914 
L 300.952818 133.586274 
L 297.871684 134.46 
L 297.871684 134.328844 
L 294.659437 135.263198 
L 294.659437 135.064249 
L 293.807209 135.315985 
L 293.807209 135.182817 
L 291.971639 135.730634 
L 291.971639 135.1934 
L 290.79163 135.548269 
L 290.79163 135.480694 
L 290.79163 134.530517 
L 286.530487 135.829565 
L 286.530487 135.483697 
L 278.467093 138.003542 
L 278.467093 137.718621 
L 275.451514 138.735141 
L 275.451514 138.085086 
L 274.664842 138.353398 
L 274.664842 137.332213 
L 273.878169 137.599873 
L 273.878169 137.379289 
L 271.714819 138.124348 
L 271.714819 138.050186 
L 271.714819 136.782122 
L 271.124815 136.985356 
L 271.124815 134.861828 
L 270.731479 134.995056 
L 270.731479 134.30326 
L 268.240349 135.153158 
L 268.240349 134.763593 
L 265.093658 135.863854 
L 265.093658 135.151251 
L 262.799196 135.970295 
L 262.799196 135.247229 
L 261.356963 135.768325 
L 261.356963 135.362502 
L 254.670246 137.87585 
L 250.277991 139.629767 
L 250.277991 139.375078 
L 243.722385 142.15386 
L 243.722385 141.717093 
L 241.362368 142.766316 
L 241.362368 141.968451 
L 236.642332 144.142609 
L 236.642332 143.323636 
L 235.724547 143.75805 
L 235.724547 142.652609 
L 233.167861 143.78391 
L 233.167861 142.275671 
L 227.333372 145.185 
L 227.333372 144.403902 
L 225.366691 145.429197 
L 225.366691 144.83469 
L 221.56444 146.885886 
L 221.56444 145.972859 
L 217.696633 148.157376 
L 214.877723 149.827145 
L 214.877723 148.134361 
L 213.304377 149.084232 
L 213.304377 147.243186 
L 212.321037 147.839643 
L 212.321037 146.847761 
L 211.534364 147.327568 
L 211.534364 146.770537 
L 206.355436 150.064702 
L 206.355436 149.14426 
L 206.158768 149.27382 
L 206.158768 149.158107 
L 206.158768 148.461266 
L 202.880965 150.668776 
L 202.880965 150.193876 
L 201.569844 151.10753 
L 201.569844 150.386432 
L 201.30762 150.570596 
L 201.30762 149.600355 
L 201.176508 149.692075 
L 201.176508 149.325759 
L 197.374257 152.069707 
L 197.374257 151.944828 
L 197.374257 150.814419 
L 195.079795 152.544906 
L 195.079795 149.564184 
L 194.424235 150.060902 
L 194.424235 149.664578 
L 193.83423 150.115421 
L 193.83423 148.779378 
L 190.556428 151.350698 
L 190.556428 149.971765 
L 189.573087 150.766897 
L 189.573087 149.503353 
L 188.983082 149.983256 
L 188.983082 148.700351 
L 184.918607 152.131564 
L 184.525271 152.478967 
L 184.525271 150.695161 
L 182.099697 152.873924 
L 182.099697 149.942181 
L 178.166334 153.649501 
L 175.609648 156.242209 
L 175.609648 155.586462 
L 174.626307 156.621012 
L 174.626307 156.289384 
L 173.118518 157.92 
L 173.118518 157.752057 
L 173.118518 156.738771 
L 172.331845 157.606898 
L 172.331845 156.06 
L 168.791818 160.14438 
L 167.808478 161.346242 
L 167.808478 160.086644 
L 166.890693 161.228301 
L 166.890693 159.575004 
L 165.317348 161.579297 
L 165.317348 159.879273 
L 164.465119 160.990543 
L 164.399563 157.764864 
L 163.350666 159.144615 
L 163.350666 158.141679 
L 162.891774 158.754813 
L 162.891774 157.942449 
L 160.990648 160.56 
L 160.990648 159.09986 
L 158.171738 163.235574 
L 157.64729 164.046316 
L 157.64729 162.302675 
L 156.729505 163.741034 
L 156.729505 156.871804 
L 155.746164 158.399185 
L 155.746164 150.466463 
L 152.99281 154.80178 
L 152.99281 152.929077 
L 151.222797 155.924129 
L 151.222797 142.456296 
L 150.763904 143.188255 
L 150.763904 141.611046 
L 149.911676 142.989545 
L 149.911676 141.043668 
L 148.403886 143.568 
L 148.403886 139.134018 
L 145.912756 143.529231 
L 145.912756 141.705073 
L 143.552739 146.320549 
L 141.061609 151.853945 
L 141.061609 146.956998 
L 140.078268 149.273514 
L 140.078268 147.128421 
L 139.357151 148.8851 
L 139.357151 145.767273 
L 137.128245 151.579523 
L 137.128245 147.243186 
L 136.538241 148.874221 
L 133.457107 158.596364 
L 133.457107 155.901176 
L 133.129326 157.053264 
L 133.129326 156.501818 
L 132.40821 159.135401 
L 132.40821 150.96 
L 131.162645 155.640352 
L 129.392631 163.265732 
L 129.392631 146.976495 
L 128.933739 148.948732 
L 128.933739 140.067692 
L 127.950398 144.31814 
L 127.950398 136.184096 
L 127.163726 139.689114 
L 127.163726 130.623158 
L 126.049273 135.752417 
L 126.049273 125.344158 
L 124.541484 132.846034 
L 123.623699 138.436364 
L 122.378134 147.738082 
L 122.378134 133.178978 
L 121.525905 140.12129 
L 120.870345 146.538947 
L 119.887004 158.596364 
L 119.887004 149.722105 
L 119.755892 151.501935 
L 118.575883 171.792 
L 118.575883 160.661408 
L 117.985878 174.263226 
L 117.46143 190.16 
L 116.805869 218.16 
L 116.805869 147.6 
L 116.346977 172.142609 
L 116.346977 66.96 
L 115.363636 66.96 
L 115.363636 66.96 
" clip-path="url(#pb734ac44c4)" style="fill: none; stroke: #ff7f0e; stroke-width: 1.5; stroke-linecap: square"/>
   </g>
   <g id="patch_3">
    <path d="M 90 384.48 
L 90 51.84 
" style="fill: none; stroke: #000000; stroke-width: 0.8; stroke-linejoin: miter; stroke-linecap: square"/>
   </g>
   <g id="patch_4">
    <path d="M 648 384.48 
L 648 51.84 
" style="fill: none; stroke: #000000; stroke-width: 0.8; stroke-linejoin: miter; stroke-linecap: square"/>
   </g>
   <g id="patch_5">
    <path d="M 90 384.48 
L 648 384.48 
" style="fill: none; stroke: #000000; stroke-width: 0.8; stroke-linejoin: miter; stroke-linecap: square"/>
   </g>
   <g id="patch_6">
    <path d="M 90 51.84 
L 648 51.84 
" style="fill: none; stroke: #000000; stroke-width: 0.8; stroke-linejoin: miter; stroke-linecap: square"/>
   </g>
   <g id="text_15">
    <!-- Precision-Recall Curves -->
    <g transform="translate(299.431875 32.402625) scale(0.12 -0.12)">
     <defs>
      <path id="DejaVuSans-2d" d="M 313 2009 
L 1997 2009 
L 1997 1497 
L 313 1497 
L 313 2009 
z
" transform="scale(0.015625)"/>
      <path id="DejaVuSans-20" transform="scale(0.015625)"/>
      <path id="DejaVuSans-43" d="M 4122 4306 
L 4122 3641 
Q 3803 3938 3442 4084 
Q 3081 4231 2675 4231 
Q 1875 4231 1450 3742 
Q 1025 3253 1025 2328 
Q 1025 1406 1450 917 
Q 1875 428 2675 428 
Q 3081 428 3442 575 
Q 3803 722 4122 1019 
L 4122 359 
Q 3791 134 3420 21 
Q 3050 -91 2638 -91 
Q 1578 -91 968 557 
Q 359 1206 359 2328 
Q 359 3453 968 4101 
Q 1578 4750 2638 4750 
Q 3056 4750 3426 4639 
Q 3797 4528 4122 4306 
z
" transform="scale(0.015625)"/>
      <path id="DejaVuSans-75" d="M 544 1381 
L 544 3500 
L 1119 3500 
L 1119 1403 
Q 1119 906 1312 657 
Q 1506 409 1894 409 
Q 2359 409 2629 706 
Q 2900 1003 2900 1516 
L 2900 3500 
L 3475 3500 
L 3475 0 
L 2900 0 
L 2900 538 
Q 2691 219 2414 64 
Q 2138 -91 1772 -91 
Q 1169 -91 856 284 
Q 544 659 544 1381 
z
M 1991 3584 
L 1991 3584 
z
" transform="scale(0.015625)"/>
      <path id="DejaVuSans-76" d="M 191 3500 
L 800 3500 
L 1894 563 
L 2988 3500 
L 3597 3500 
L 2284 0 
L 1503 0 
L 191 3500 
z
" transform="scale(0.015625)"/>
     </defs>
     <use xlink:href="#DejaVuSans-50"/>
     <use xlink:href="#DejaVuSans-72" transform="translate(58.552734 0)"/>
     <use xlink:href="#DejaVuSans-65" transform="translate(97.416016 0)"/>
     <use xlink:href="#DejaVuSans-63" transform="translate(158.939453 0)"/>
     <use xlink:href="#DejaVuSans-69" transform="translate(213.919922 0)"/>
     <use xlink:href="#DejaVuSans-73" transform="translate(241.703125 0)"/>
     <use xlink:href="#DejaVuSans-69" transform="translate(293.802734 0)"/>
     <use xlink:href="#DejaVuSans-6f" transform="translate(321.585938 0)"/>
     <use xlink:href="#DejaVuSans-6e" transform="translate(382.767578 0)"/>
     <use xlink:href="#DejaVuSans-2d" transform="translate(446.146484 0)"/>
     <use xlink:href="#DejaVuSans-52" transform="translate(482.230469 0)"/>
     <use xlink:href="#DejaVuSans-65" transform="translate(547.212891 0)"/>
     <use xlink:href="#DejaVuSans-63" transform="translate(608.736328 0)"/>
     <use xlink:href="#DejaVuSans-61" transform="translate(663.716797 0)"/>
     <use xlink:href="#DejaVuSans-6c" transform="translate(724.996094 0)"/>
     <use xlink:href="#DejaVuSans-6c" transform="translate(752.779297 0)"/>
     <use xlink:href="#DejaVuSans-20" transform="translate(780.5625 0)"/>
     <use xlink:href="#DejaVuSans-43" transform="translate(812.349609 0)"/>
     <use xlink:href="#DejaVuSans-75" transform="translate(882.173828 0)"/>
     <use xlink:href="#DejaVuSans-72" transform="translate(945.552734 0)"/>
     <use xlink:href="#DejaVuSans-76" transform="translate(986.666016 0)"/>
     <use xlink:href="#DejaVuSans-65" transform="translate(1045.845703 0)"/>
     <use xlink:href="#DejaVuSans-73" transform="translate(1107.369141 0)"/>
    </g>
    <!-- Mean AUPRC: 0.712, Mean Top-k: 0.745 -->
    <g transform="translate(250.53 45.84) scale(0.12 -0.12)">
     <defs>
      <path id="DejaVuSans-4d" d="M 628 4666 
L 1569 4666 
L 2759 1491 
L 3956 4666 
L 4897 4666 
L 4897 0 
L 4281 0 
L 4281 4097 
L 3078 897 
L 2444 897 
L 1241 4097 
L 1241 0 
L 628 0 
L 628 4666 
z
" transform="scale(0.015625)"/>
      <path id="DejaVuSans-41" d="M 2188 4044 
L 1331 1722 
L 3047 1722 
L 2188 4044 
z
M 1831 4666 
L 2547 4666 
L 4325 0 
L 3669 0 
L 3244 1197 
L 1141 1197 
L 716 0 
L 50 0 
L 1831 4666 
z
" transform="scale(0.015625)"/>
      <path id="DejaVuSans-55" d="M 556 4666 
L 1191 4666 
L 1191 1831 
Q 1191 1081 1462 751 
Q 1734 422 2344 422 
Q 2950 422 3222 751 
Q 3494 1081 3494 1831 
L 3494 4666 
L 4128 4666 
L 4128 1753 
Q 4128 841 3676 375 
Q 3225 -91 2344 -91 
Q 1459 -91 1007 375 
Q 556 841 556 1753 
L 556 4666 
z
" transform="scale(0.015625)"/>
      <path id="DejaVuSans-3a" d="M 750 794 
L 1409 794 
L 1409 0 
L 750 0 
L 750 794 
z
M 750 3309 
L 1409 3309 
L 1409 2516 
L 750 2516 
L 750 3309 
z
" transform="scale(0.015625)"/>
      <path id="DejaVuSans-37" d="M 525 4666 
L 3525 4666 
L 3525 4397 
L 1831 0 
L 1172 0 
L 2766 4134 
L 525 4134 
L 525 4666 
z
" transform="scale(0.015625)"/>
      <path id="DejaVuSans-2c" d="M 750 794 
L 1409 794 
L 1409 256 
L 897 -744 
L 494 -744 
L 750 256 
L 750 794 
z
" transform="scale(0.015625)"/>
      <path id="DejaVuSans-54" d="M -19 4666 
L 3928 4666 
L 3928 4134 
L 2272 4134 
L 2272 0 
L 1638 0 
L 1638 4134 
L -19 4134 
L -19 4666 
z
" transform="scale(0.015625)"/>
      <path id="DejaVuSans-70" d="M 1159 525 
L 1159 -1331 
L 581 -1331 
L 581 3500 
L 1159 3500 
L 1159 2969 
Q 1341 3281 1617 3432 
Q 1894 3584 2278 3584 
Q 2916 3584 3314 3078 
Q 3713 2572 3713 1747 
Q 3713 922 3314 415 
Q 2916 -91 2278 -91 
Q 1894 -91 1617 61 
Q 1341 213 1159 525 
z
M 3116 1747 
Q 3116 2381 2855 2742 
Q 2594 3103 2138 3103 
Q 1681 3103 1420 2742 
Q 1159 2381 1159 1747 
Q 1159 1113 1420 752 
Q 1681 391 2138 391 
Q 2594 391 2855 752 
Q 3116 1113 3116 1747 
z
" transform="scale(0.015625)"/>
      <path id="DejaVuSans-6b" d="M 581 4863 
L 1159 4863 
L 1159 1991 
L 2875 3500 
L 3609 3500 
L 1753 1863 
L 3688 0 
L 2938 0 
L 1159 1709 
L 1159 0 
L 581 0 
L 581 4863 
z
" transform="scale(0.015625)"/>
      <path id="DejaVuSans-35" d="M 691 4666 
L 3169 4666 
L 3169 4134 
L 1269 4134 
L 1269 2991 
Q 1406 3038 1543 3061 
Q 1681 3084 1819 3084 
Q 2600 3084 3056 2656 
Q 3513 2228 3513 1497 
Q 3513 744 3044 326 
Q 2575 -91 1722 -91 
Q 1428 -91 1123 -41 
Q 819 9 494 109 
L 494 744 
Q 775 591 1075 516 
Q 1375 441 1709 441 
Q 2250 441 2565 725 
Q 2881 1009 2881 1497 
Q 2881 1984 2565 2268 
Q 2250 2553 1709 2553 
Q 1456 2553 1204 2497 
Q 953 2441 691 2322 
L 691 4666 
z
" transform="scale(0.015625)"/>
     </defs>
     <use xlink:href="#DejaVuSans-4d"/>
     <use xlink:href="#DejaVuSans-65" transform="translate(86.279297 0)"/>
     <use xlink:href="#DejaVuSans-61" transform="translate(147.802734 0)"/>
     <use xlink:href="#DejaVuSans-6e" transform="translate(209.082031 0)"/>
     <use xlink:href="#DejaVuSans-20" transform="translate(272.460938 0)"/>
     <use xlink:href="#DejaVuSans-41" transform="translate(304.248047 0)"/>
     <use xlink:href="#DejaVuSans-55" transform="translate(372.65625 0)"/>
     <use xlink:href="#DejaVuSans-50" transform="translate(445.849609 0)"/>
     <use xlink:href="#DejaVuSans-52" transform="translate(506.152344 0)"/>
     <use xlink:href="#DejaVuSans-43" transform="translate(570.634766 0)"/>
     <use xlink:href="#DejaVuSans-3a" transform="translate(640.458984 0)"/>
     <use xlink:href="#DejaVuSans-20" transform="translate(674.150391 0)"/>
     <use xlink:href="#DejaVuSans-30" transform="translate(705.9375 0)"/>
     <use xlink:href="#DejaVuSans-2e" transform="translate(769.560547 0)"/>
     <use xlink:href="#DejaVuSans-37" transform="translate(801.347656 0)"/>
     <use xlink:href="#DejaVuSans-31" transform="translate(864.970703 0)"/>
     <use xlink:href="#DejaVuSans-32" transform="translate(928.59375 0)"/>
     <use xlink:href="#DejaVuSans-2c" transform="translate(992.216797 0)"/>
     <use xlink:href="#DejaVuSans-20" transform="translate(1024.003906 0)"/>
     <use xlink:href="#DejaVuSans-4d" transform="translate(1055.791016 0)"/>
     <use xlink:href="#DejaVuSans-65" transform="translate(1142.070312 0)"/>
     <use xlink:href="#DejaVuSans-61" transform="translate(1203.59375 0)"/>
     <use xlink:href="#DejaVuSans-6e" transform="translate(1264.873047 0)"/>
     <use xlink:href="#DejaVuSans-20" transform="translate(1328.251953 0)"/>
     <use xlink:href="#DejaVuSans-54" transform="translate(1360.039062 0)"/>
     <use xlink:href="#DejaVuSans-6f" transform="translate(1404.123047 0)"/>
     <use xlink:href="#DejaVuSans-70" transform="translate(1465.304688 0)"/>
     <use xlink:href="#DejaVuSans-2d" transform="translate(1528.78125 0)"/>
     <use xlink:href="#DejaVuSans-6b" transform="translate(1564.865234 0)"/>
     <use xlink:href="#DejaVuSans-3a" transform="translate(1622.775391 0)"/>
     <use xlink:href="#DejaVuSans-20" transform="translate(1656.466797 0)"/>
     <use xlink:href="#DejaVuSans-30" transform="translate(1688.253906 0)"/>
     <use xlink:href="#DejaVuSans-2e" transform="translate(1751.876953 0)"/>
     <use xlink:href="#DejaVuSans-37" transform="translate(1783.664062 0)"/>
     <use xlink:href="#DejaVuSans-34" transform="translate(1847.287109 0)"/>
     <use xlink:href="#DejaVuSans-35" transform="translate(1910.910156 0)"/>
    </g>
   </g>
   <g id="legend_1">
    <g id="patch_7">
     <path d="M 483.076563 89.19625 
L 641 89.19625 
Q 643 89.19625 643 87.19625 
L 643 58.84 
Q 643 56.84 641 56.84 
L 483.076563 56.84 
Q 481.076563 56.84 481.076563 58.84 
L 481.076563 87.19625 
Q 481.076563 89.19625 483.076563 89.19625 
z
" style="fill: #ffffff; opacity: 0.8; stroke: #cccccc; stroke-linejoin: miter"/>
    </g>
    <g id="line2d_27">
     <path d="M 485.076563 64.938437 
L 495.076563 64.938437 
L 505.076563 64.938437 
" style="fill: none; stroke: #1f77b4; stroke-width: 1.5; stroke-linecap: square"/>
    </g>
    <g id="text_16">
     <!-- Acceptor (AUPRC=0.722) -->
     <g transform="translate(513.076563 68.438437) scale(0.1 -0.1)">
      <defs>
       <path id="DejaVuSans-74" d="M 1172 4494 
L 1172 3500 
L 2356 3500 
L 2356 3053 
L 1172 3053 
L 1172 1153 
Q 1172 725 1289 603 
Q 1406 481 1766 481 
L 2356 481 
L 2356 0 
L 1766 0 
Q 1100 0 847 248 
Q 594 497 594 1153 
L 594 3053 
L 172 3053 
L 172 3500 
L 594 3500 
L 594 4494 
L 1172 4494 
z
" transform="scale(0.015625)"/>
       <path id="DejaVuSans-28" d="M 1984 4856 
Q 1566 4138 1362 3434 
Q 1159 2731 1159 2009 
Q 1159 1288 1364 580 
Q 1569 -128 1984 -844 
L 1484 -844 
Q 1016 -109 783 600 
Q 550 1309 550 2009 
Q 550 2706 781 3412 
Q 1013 4119 1484 4856 
L 1984 4856 
z
" transform="scale(0.015625)"/>
       <path id="DejaVuSans-3d" d="M 678 2906 
L 4684 2906 
L 4684 2381 
L 678 2381 
L 678 2906 
z
M 678 1631 
L 4684 1631 
L 4684 1100 
L 678 1100 
L 678 1631 
z
" transform="scale(0.015625)"/>
       <path id="DejaVuSans-29" d="M 513 4856 
L 1013 4856 
Q 1481 4119 1714 3412 
Q 1947 2706 1947 2009 
Q 1947 1309 1714 600 
Q 1481 -109 1013 -844 
L 513 -844 
Q 928 -128 1133 580 
Q 1338 1288 1338 2009 
Q 1338 2731 1133 3434 
Q 928 4138 513 4856 
z
" transform="scale(0.015625)"/>
      </defs>
      <use xlink:href="#DejaVuSans-41"/>
      <use xlink:href="#DejaVuSans-63" transform="translate(66.658203 0)"/>
      <use xlink:href="#DejaVuSans-63" transform="translate(121.638672 0)"/>
      <use xlink:href="#DejaVuSans-65" transform="translate(176.619141 0)"/>
      <use xlink:href="#DejaVuSans-70" transform="translate(238.142578 0)"/>
      <use xlink:href="#DejaVuSans-74" transform="translate(301.619141 0)"/>
      <use xlink:href="#DejaVuSans-6f" transform="translate(340.828125 0)"/>
      <use xlink:href="#DejaVuSans-72" transform="translate(402.009766 0)"/>
      <use xlink:href="#DejaVuSans-20" transform="translate(443.123047 0)"/>
      <use xlink:href="#DejaVuSans-28" transform="translate(474.910156 0)"/>
      <use xlink:href="#DejaVuSans-41" transform="translate(513.923828 0)"/>
      <use xlink:href="#DejaVuSans-55" transform="translate(582.332031 0)"/>
      <use xlink:href="#DejaVuSans-50" transform="translate(655.525391 0)"/>
      <use xlink:href="#DejaVuSans-52" transform="translate(715.828125 0)"/>
      <use xlink:href="#DejaVuSans-43" transform="translate(780.310547 0)"/>
      <use xlink:href="#DejaVuSans-3d" transform="translate(850.134766 0)"/>
      <use xlink:href="#DejaVuSans-30" transform="translate(933.923828 0)"/>
      <use xlink:href="#DejaVuSans-2e" transform="translate(997.546875 0)"/>
      <use xlink:href="#DejaVuSans-37" transform="translate(1029.333984 0)"/>
      <use xlink:href="#DejaVuSans-32" transform="translate(1092.957031 0)"/>
      <use xlink:href="#DejaVuSans-32" transform="translate(1156.580078 0)"/>
      <use xlink:href="#DejaVuSans-29" transform="translate(1220.203125 0)"/>
     </g>
    </g>
    <g id="line2d_28">
     <path d="M 485.076563 79.616562 
L 495.076563 79.616562 
L 505.076563 79.616562 
" style="fill: none; stroke: #ff7f0e; stroke-width: 1.5; stroke-linecap: square"/>
    </g>
    <g id="text_17">
     <!-- Donor (AUPRC=0.703) -->
     <g transform="translate(513.076563 83.116562) scale(0.1 -0.1)">
      <defs>
       <path id="DejaVuSans-44" d="M 1259 4147 
L 1259 519 
L 2022 519 
Q 2988 519 3436 956 
Q 3884 1394 3884 2338 
Q 3884 3275 3436 3711 
Q 2988 4147 2022 4147 
L 1259 4147 
z
M 628 4666 
L 1925 4666 
Q 3281 4666 3915 4102 
Q 4550 3538 4550 2338 
Q 4550 1131 3912 565 
Q 3275 0 1925 0 
L 628 0 
L 628 4666 
z
" transform="scale(0.015625)"/>
       <path id="DejaVuSans-33" d="M 2597 2516 
Q 3050 2419 3304 2112 
Q 3559 1806 3559 1356 
Q 3559 666 3084 287 
Q 2609 -91 1734 -91 
Q 1441 -91 1130 -33 
Q 819 25 488 141 
L 488 750 
Q 750 597 1062 519 
Q 1375 441 1716 441 
Q 2309 441 2620 675 
Q 2931 909 2931 1356 
Q 2931 1769 2642 2001 
Q 2353 2234 1838 2234 
L 1294 2234 
L 1294 2753 
L 1863 2753 
Q 2328 2753 2575 2939 
Q 2822 3125 2822 3475 
Q 2822 3834 2567 4026 
Q 2313 4219 1838 4219 
Q 1578 4219 1281 4162 
Q 984 4106 628 3988 
L 628 4550 
Q 988 4650 1302 4700 
Q 1616 4750 1894 4750 
Q 2613 4750 3031 4423 
Q 3450 4097 3450 3541 
Q 3450 3153 3228 2886 
Q 3006 2619 2597 2516 
z
" transform="scale(0.015625)"/>
      </defs>
      <use xlink:href="#DejaVuSans-44"/>
      <use xlink:href="#DejaVuSans-6f" transform="translate(77.001953 0)"/>
      <use xlink:href="#DejaVuSans-6e" transform="translate(138.183594 0)"/>
      <use xlink:href="#DejaVuSans-6f" transform="translate(201.5625 0)"/>
      <use xlink:href="#DejaVuSans-72" transform="translate(262.744141 0)"/>
      <use xlink:href="#DejaVuSans-20" transform="translate(303.857422 0)"/>
      <use xlink:href="#DejaVuSans-28" transform="translate(335.644531 0)"/>
      <use xlink:href="#DejaVuSans-41" transform="translate(374.658203 0)"/>
      <use xlink:href="#DejaVuSans-55" transform="translate(443.066406 0)"/>
      <use xlink:href="#DejaVuSans-50" transform="translate(516.259766 0)"/>
      <use xlink:href="#DejaVuSans-52" transform="translate(576.5625 0)"/>
      <use xlink:href="#DejaVuSans-43" transform="translate(641.044922 0)"/>
      <use xlink:href="#DejaVuSans-3d" transform="translate(710.869141 0)"/>
      <use xlink:href="#DejaVuSans-30" transform="translate(794.658203 0)"/>
      <use xlink:href="#DejaVuSans-2e" transform="translate(858.28125 0)"/>
      <use xlink:href="#DejaVuSans-37" transform="translate(890.068359 0)"/>
      <use xlink:href="#DejaVuSans-30" transform="translate(953.691406 0)"/>
      <use xlink:href="#DejaVuSans-33" transform="translate(1017.314453 0)"/>
      <use xlink:href="#DejaVuSans-29" transform="translate(1080.9375 0)"/>
     </g>
    </g>
   </g>
  </g>
 </g>
 <defs>
  <clipPath id="pb734ac44c4">
   <rect x="90" y="51.84" width="558" height="332.64"/>
  </clipPath>
 </defs>
</svg>
