<?xml version="1.0" encoding="utf-8" standalone="no"?>
<!DOCTYPE svg PUBLIC "-//W3C//DTD SVG 1.1//EN"
  "http://www.w3.org/Graphics/SVG/1.1/DTD/svg11.dtd">
<svg xmlns:xlink="http://www.w3.org/1999/xlink" width="864pt" height="576pt" viewBox="0 0 864 576" xmlns="http://www.w3.org/2000/svg" version="1.1">
 <metadata>
  <rdf:RDF xmlns:dc="http://purl.org/dc/elements/1.1/" xmlns:cc="http://creativecommons.org/ns#" xmlns:rdf="http://www.w3.org/1999/02/22-rdf-syntax-ns#">
   <cc:Work>
    <dc:type rdf:resource="http://purl.org/dc/dcmitype/StillImage"/>
    <dc:date>2025-05-01T20:54:42.179323</dc:date>
    <dc:format>image/svg+xml</dc:format>
    <dc:creator>
     <cc:Agent>
      <dc:title>Matplotlib v3.10.1, https://matplotlib.org/</dc:title>
     </cc:Agent>
    </dc:creator>
   </cc:Work>
  </rdf:RDF>
 </metadata>
 <defs>
  <style type="text/css">*{stroke-linejoin: round; stroke-linecap: butt}</style>
 </defs>
 <g id="figure_1">
  <g id="patch_1">
   <path d="M 0 576 
L 864 576 
L 864 0 
L 0 0 
z
" style="fill: #ffffff"/>
  </g>
  <g id="axes_1">
   <g id="patch_2">
    <path d="M 47.72 534.04 
L 577.57 534.04 
L 577.57 26.88 
L 47.72 26.88 
z
" style="fill: #ffffff"/>
   </g>
   <g id="matplotlib.axis_1">
    <g id="xtick_1">
     <g id="line2d_1">
      <path d="M 71.804091 534.04 
L 71.804091 26.88 
" clip-path="url(#p8c990482ca)" style="fill: none; stroke: #b0b0b0; stroke-width: 0.8; stroke-linecap: square"/>
     </g>
     <g id="line2d_2">
      <defs>
       <path id="m9956451225" d="M 0 0 
L 0 3.5 
" style="stroke: #000000; stroke-width: 0.8"/>
      </defs>
      <g>
       <use xlink:href="#m9956451225" x="71.804091" y="534.04" style="stroke: #000000; stroke-width: 0.8"/>
      </g>
     </g>
     <g id="text_1">
      <!-- 0.0 -->
      <g transform="translate(63.852528 548.638438) scale(0.1 -0.1)">
       <defs>
        <path id="DejaVuSans-30" d="M 2034 4250 
Q 1547 4250 1301 3770 
Q 1056 3291 1056 2328 
Q 1056 1369 1301 889 
Q 1547 409 2034 409 
Q 2525 409 2770 889 
Q 3016 1369 3016 2328 
Q 3016 3291 2770 3770 
Q 2525 4250 2034 4250 
z
M 2034 4750 
Q 2819 4750 3233 4129 
Q 3647 3509 3647 2328 
Q 3647 1150 3233 529 
Q 2819 -91 2034 -91 
Q 1250 -91 836 529 
Q 422 1150 422 2328 
Q 422 3509 836 4129 
Q 1250 4750 2034 4750 
z
" transform="scale(0.015625)"/>
        <path id="DejaVuSans-2e" d="M 684 794 
L 1344 794 
L 1344 0 
L 684 0 
L 684 794 
z
" transform="scale(0.015625)"/>
       </defs>
       <use xlink:href="#DejaVuSans-30"/>
       <use xlink:href="#DejaVuSans-2e" transform="translate(63.623047 0)"/>
       <use xlink:href="#DejaVuSans-30" transform="translate(95.410156 0)"/>
      </g>
     </g>
    </g>
    <g id="xtick_2">
     <g id="line2d_3">
      <path d="M 168.140455 534.04 
L 168.140455 26.88 
" clip-path="url(#p8c990482ca)" style="fill: none; stroke: #b0b0b0; stroke-width: 0.8; stroke-linecap: square"/>
     </g>
     <g id="line2d_4">
      <g>
       <use xlink:href="#m9956451225" x="168.140455" y="534.04" style="stroke: #000000; stroke-width: 0.8"/>
      </g>
     </g>
     <g id="text_2">
      <!-- 0.2 -->
      <g transform="translate(160.188892 548.638438) scale(0.1 -0.1)">
       <defs>
        <path id="DejaVuSans-32" d="M 1228 531 
L 3431 531 
L 3431 0 
L 469 0 
L 469 531 
Q 828 903 1448 1529 
Q 2069 2156 2228 2338 
Q 2531 2678 2651 2914 
Q 2772 3150 2772 3378 
Q 2772 3750 2511 3984 
Q 2250 4219 1831 4219 
Q 1534 4219 1204 4116 
Q 875 4013 500 3803 
L 500 4441 
Q 881 4594 1212 4672 
Q 1544 4750 1819 4750 
Q 2544 4750 2975 4387 
Q 3406 4025 3406 3419 
Q 3406 3131 3298 2873 
Q 3191 2616 2906 2266 
Q 2828 2175 2409 1742 
Q 1991 1309 1228 531 
z
" transform="scale(0.015625)"/>
       </defs>
       <use xlink:href="#DejaVuSans-30"/>
       <use xlink:href="#DejaVuSans-2e" transform="translate(63.623047 0)"/>
       <use xlink:href="#DejaVuSans-32" transform="translate(95.410156 0)"/>
      </g>
     </g>
    </g>
    <g id="xtick_3">
     <g id="line2d_5">
      <path d="M 264.476818 534.04 
L 264.476818 26.88 
" clip-path="url(#p8c990482ca)" style="fill: none; stroke: #b0b0b0; stroke-width: 0.8; stroke-linecap: square"/>
     </g>
     <g id="line2d_6">
      <g>
       <use xlink:href="#m9956451225" x="264.476818" y="534.04" style="stroke: #000000; stroke-width: 0.8"/>
      </g>
     </g>
     <g id="text_3">
      <!-- 0.4 -->
      <g transform="translate(256.525256 548.638438) scale(0.1 -0.1)">
       <defs>
        <path id="DejaVuSans-34" d="M 2419 4116 
L 825 1625 
L 2419 1625 
L 2419 4116 
z
M 2253 4666 
L 3047 4666 
L 3047 1625 
L 3713 1625 
L 3713 1100 
L 3047 1100 
L 3047 0 
L 2419 0 
L 2419 1100 
L 313 1100 
L 313 1709 
L 2253 4666 
z
" transform="scale(0.015625)"/>
       </defs>
       <use xlink:href="#DejaVuSans-30"/>
       <use xlink:href="#DejaVuSans-2e" transform="translate(63.623047 0)"/>
       <use xlink:href="#DejaVuSans-34" transform="translate(95.410156 0)"/>
      </g>
     </g>
    </g>
    <g id="xtick_4">
     <g id="line2d_7">
      <path d="M 360.813182 534.04 
L 360.813182 26.88 
" clip-path="url(#p8c990482ca)" style="fill: none; stroke: #b0b0b0; stroke-width: 0.8; stroke-linecap: square"/>
     </g>
     <g id="line2d_8">
      <g>
       <use xlink:href="#m9956451225" x="360.813182" y="534.04" style="stroke: #000000; stroke-width: 0.8"/>
      </g>
     </g>
     <g id="text_4">
      <!-- 0.6 -->
      <g transform="translate(352.861619 548.638438) scale(0.1 -0.1)">
       <defs>
        <path id="DejaVuSans-36" d="M 2113 2584 
Q 1688 2584 1439 2293 
Q 1191 2003 1191 1497 
Q 1191 994 1439 701 
Q 1688 409 2113 409 
Q 2538 409 2786 701 
Q 3034 994 3034 1497 
Q 3034 2003 2786 2293 
Q 2538 2584 2113 2584 
z
M 3366 4563 
L 3366 3988 
Q 3128 4100 2886 4159 
Q 2644 4219 2406 4219 
Q 1781 4219 1451 3797 
Q 1122 3375 1075 2522 
Q 1259 2794 1537 2939 
Q 1816 3084 2150 3084 
Q 2853 3084 3261 2657 
Q 3669 2231 3669 1497 
Q 3669 778 3244 343 
Q 2819 -91 2113 -91 
Q 1303 -91 875 529 
Q 447 1150 447 2328 
Q 447 3434 972 4092 
Q 1497 4750 2381 4750 
Q 2619 4750 2861 4703 
Q 3103 4656 3366 4563 
z
" transform="scale(0.015625)"/>
       </defs>
       <use xlink:href="#DejaVuSans-30"/>
       <use xlink:href="#DejaVuSans-2e" transform="translate(63.623047 0)"/>
       <use xlink:href="#DejaVuSans-36" transform="translate(95.410156 0)"/>
      </g>
     </g>
    </g>
    <g id="xtick_5">
     <g id="line2d_9">
      <path d="M 457.149545 534.04 
L 457.149545 26.88 
" clip-path="url(#p8c990482ca)" style="fill: none; stroke: #b0b0b0; stroke-width: 0.8; stroke-linecap: square"/>
     </g>
     <g id="line2d_10">
      <g>
       <use xlink:href="#m9956451225" x="457.149545" y="534.04" style="stroke: #000000; stroke-width: 0.8"/>
      </g>
     </g>
     <g id="text_5">
      <!-- 0.8 -->
      <g transform="translate(449.197983 548.638438) scale(0.1 -0.1)">
       <defs>
        <path id="DejaVuSans-38" d="M 2034 2216 
Q 1584 2216 1326 1975 
Q 1069 1734 1069 1313 
Q 1069 891 1326 650 
Q 1584 409 2034 409 
Q 2484 409 2743 651 
Q 3003 894 3003 1313 
Q 3003 1734 2745 1975 
Q 2488 2216 2034 2216 
z
M 1403 2484 
Q 997 2584 770 2862 
Q 544 3141 544 3541 
Q 544 4100 942 4425 
Q 1341 4750 2034 4750 
Q 2731 4750 3128 4425 
Q 3525 4100 3525 3541 
Q 3525 3141 3298 2862 
Q 3072 2584 2669 2484 
Q 3125 2378 3379 2068 
Q 3634 1759 3634 1313 
Q 3634 634 3220 271 
Q 2806 -91 2034 -91 
Q 1263 -91 848 271 
Q 434 634 434 1313 
Q 434 1759 690 2068 
Q 947 2378 1403 2484 
z
M 1172 3481 
Q 1172 3119 1398 2916 
Q 1625 2713 2034 2713 
Q 2441 2713 2670 2916 
Q 2900 3119 2900 3481 
Q 2900 3844 2670 4047 
Q 2441 4250 2034 4250 
Q 1625 4250 1398 4047 
Q 1172 3844 1172 3481 
z
" transform="scale(0.015625)"/>
       </defs>
       <use xlink:href="#DejaVuSans-30"/>
       <use xlink:href="#DejaVuSans-2e" transform="translate(63.623047 0)"/>
       <use xlink:href="#DejaVuSans-38" transform="translate(95.410156 0)"/>
      </g>
     </g>
    </g>
    <g id="xtick_6">
     <g id="line2d_11">
      <path d="M 553.485909 534.04 
L 553.485909 26.88 
" clip-path="url(#p8c990482ca)" style="fill: none; stroke: #b0b0b0; stroke-width: 0.8; stroke-linecap: square"/>
     </g>
     <g id="line2d_12">
      <g>
       <use xlink:href="#m9956451225" x="553.485909" y="534.04" style="stroke: #000000; stroke-width: 0.8"/>
      </g>
     </g>
     <g id="text_6">
      <!-- 1.0 -->
      <g transform="translate(545.534347 548.638438) scale(0.1 -0.1)">
       <defs>
        <path id="DejaVuSans-31" d="M 794 531 
L 1825 531 
L 1825 4091 
L 703 3866 
L 703 4441 
L 1819 4666 
L 2450 4666 
L 2450 531 
L 3481 531 
L 3481 0 
L 794 0 
L 794 531 
z
" transform="scale(0.015625)"/>
       </defs>
       <use xlink:href="#DejaVuSans-31"/>
       <use xlink:href="#DejaVuSans-2e" transform="translate(63.623047 0)"/>
       <use xlink:href="#DejaVuSans-30" transform="translate(95.410156 0)"/>
      </g>
     </g>
    </g>
    <g id="text_7">
     <!-- Recall -->
     <g transform="translate(297.727812 562.316562) scale(0.1 -0.1)">
      <defs>
       <path id="DejaVuSans-52" d="M 2841 2188 
Q 3044 2119 3236 1894 
Q 3428 1669 3622 1275 
L 4263 0 
L 3584 0 
L 2988 1197 
Q 2756 1666 2539 1819 
Q 2322 1972 1947 1972 
L 1259 1972 
L 1259 0 
L 628 0 
L 628 4666 
L 2053 4666 
Q 2853 4666 3247 4331 
Q 3641 3997 3641 3322 
Q 3641 2881 3436 2590 
Q 3231 2300 2841 2188 
z
M 1259 4147 
L 1259 2491 
L 2053 2491 
Q 2509 2491 2742 2702 
Q 2975 2913 2975 3322 
Q 2975 3731 2742 3939 
Q 2509 4147 2053 4147 
L 1259 4147 
z
" transform="scale(0.015625)"/>
       <path id="DejaVuSans-65" d="M 3597 1894 
L 3597 1613 
L 953 1613 
Q 991 1019 1311 708 
Q 1631 397 2203 397 
Q 2534 397 2845 478 
Q 3156 559 3463 722 
L 3463 178 
Q 3153 47 2828 -22 
Q 2503 -91 2169 -91 
Q 1331 -91 842 396 
Q 353 884 353 1716 
Q 353 2575 817 3079 
Q 1281 3584 2069 3584 
Q 2775 3584 3186 3129 
Q 3597 2675 3597 1894 
z
M 3022 2063 
Q 3016 2534 2758 2815 
Q 2500 3097 2075 3097 
Q 1594 3097 1305 2825 
Q 1016 2553 972 2059 
L 3022 2063 
z
" transform="scale(0.015625)"/>
       <path id="DejaVuSans-63" d="M 3122 3366 
L 3122 2828 
Q 2878 2963 2633 3030 
Q 2388 3097 2138 3097 
Q 1578 3097 1268 2742 
Q 959 2388 959 1747 
Q 959 1106 1268 751 
Q 1578 397 2138 397 
Q 2388 397 2633 464 
Q 2878 531 3122 666 
L 3122 134 
Q 2881 22 2623 -34 
Q 2366 -91 2075 -91 
Q 1284 -91 818 406 
Q 353 903 353 1747 
Q 353 2603 823 3093 
Q 1294 3584 2113 3584 
Q 2378 3584 2631 3529 
Q 2884 3475 3122 3366 
z
" transform="scale(0.015625)"/>
       <path id="DejaVuSans-61" d="M 2194 1759 
Q 1497 1759 1228 1600 
Q 959 1441 959 1056 
Q 959 750 1161 570 
Q 1363 391 1709 391 
Q 2188 391 2477 730 
Q 2766 1069 2766 1631 
L 2766 1759 
L 2194 1759 
z
M 3341 1997 
L 3341 0 
L 2766 0 
L 2766 531 
Q 2569 213 2275 61 
Q 1981 -91 1556 -91 
Q 1019 -91 701 211 
Q 384 513 384 1019 
Q 384 1609 779 1909 
Q 1175 2209 1959 2209 
L 2766 2209 
L 2766 2266 
Q 2766 2663 2505 2880 
Q 2244 3097 1772 3097 
Q 1472 3097 1187 3025 
Q 903 2953 641 2809 
L 641 3341 
Q 956 3463 1253 3523 
Q 1550 3584 1831 3584 
Q 2591 3584 2966 3190 
Q 3341 2797 3341 1997 
z
" transform="scale(0.015625)"/>
       <path id="DejaVuSans-6c" d="M 603 4863 
L 1178 4863 
L 1178 0 
L 603 0 
L 603 4863 
z
" transform="scale(0.015625)"/>
      </defs>
      <use xlink:href="#DejaVuSans-52"/>
      <use xlink:href="#DejaVuSans-65" transform="translate(64.982422 0)"/>
      <use xlink:href="#DejaVuSans-63" transform="translate(126.505859 0)"/>
      <use xlink:href="#DejaVuSans-61" transform="translate(181.486328 0)"/>
      <use xlink:href="#DejaVuSans-6c" transform="translate(242.765625 0)"/>
      <use xlink:href="#DejaVuSans-6c" transform="translate(270.548828 0)"/>
     </g>
    </g>
   </g>
   <g id="matplotlib.axis_2">
    <g id="ytick_1">
     <g id="line2d_13">
      <path d="M 47.72 510.987273 
L 577.57 510.987273 
" clip-path="url(#p8c990482ca)" style="fill: none; stroke: #b0b0b0; stroke-width: 0.8; stroke-linecap: square"/>
     </g>
     <g id="line2d_14">
      <defs>
       <path id="m34e1142d78" d="M 0 0 
L -3.5 0 
" style="stroke: #000000; stroke-width: 0.8"/>
      </defs>
      <g>
       <use xlink:href="#m34e1142d78" x="47.72" y="510.987273" style="stroke: #000000; stroke-width: 0.8"/>
      </g>
     </g>
     <g id="text_8">
      <!-- 0.0 -->
      <g transform="translate(24.816875 514.786491) scale(0.1 -0.1)">
       <use xlink:href="#DejaVuSans-30"/>
       <use xlink:href="#DejaVuSans-2e" transform="translate(63.623047 0)"/>
       <use xlink:href="#DejaVuSans-30" transform="translate(95.410156 0)"/>
      </g>
     </g>
    </g>
    <g id="ytick_2">
     <g id="line2d_15">
      <path d="M 47.72 418.776364 
L 577.57 418.776364 
" clip-path="url(#p8c990482ca)" style="fill: none; stroke: #b0b0b0; stroke-width: 0.8; stroke-linecap: square"/>
     </g>
     <g id="line2d_16">
      <g>
       <use xlink:href="#m34e1142d78" x="47.72" y="418.776364" style="stroke: #000000; stroke-width: 0.8"/>
      </g>
     </g>
     <g id="text_9">
      <!-- 0.2 -->
      <g transform="translate(24.816875 422.575582) scale(0.1 -0.1)">
       <use xlink:href="#DejaVuSans-30"/>
       <use xlink:href="#DejaVuSans-2e" transform="translate(63.623047 0)"/>
       <use xlink:href="#DejaVuSans-32" transform="translate(95.410156 0)"/>
      </g>
     </g>
    </g>
    <g id="ytick_3">
     <g id="line2d_17">
      <path d="M 47.72 326.565455 
L 577.57 326.565455 
" clip-path="url(#p8c990482ca)" style="fill: none; stroke: #b0b0b0; stroke-width: 0.8; stroke-linecap: square"/>
     </g>
     <g id="line2d_18">
      <g>
       <use xlink:href="#m34e1142d78" x="47.72" y="326.565455" style="stroke: #000000; stroke-width: 0.8"/>
      </g>
     </g>
     <g id="text_10">
      <!-- 0.4 -->
      <g transform="translate(24.816875 330.364673) scale(0.1 -0.1)">
       <use xlink:href="#DejaVuSans-30"/>
       <use xlink:href="#DejaVuSans-2e" transform="translate(63.623047 0)"/>
       <use xlink:href="#DejaVuSans-34" transform="translate(95.410156 0)"/>
      </g>
     </g>
    </g>
    <g id="ytick_4">
     <g id="line2d_19">
      <path d="M 47.72 234.354545 
L 577.57 234.354545 
" clip-path="url(#p8c990482ca)" style="fill: none; stroke: #b0b0b0; stroke-width: 0.8; stroke-linecap: square"/>
     </g>
     <g id="line2d_20">
      <g>
       <use xlink:href="#m34e1142d78" x="47.72" y="234.354545" style="stroke: #000000; stroke-width: 0.8"/>
      </g>
     </g>
     <g id="text_11">
      <!-- 0.6 -->
      <g transform="translate(24.816875 238.153764) scale(0.1 -0.1)">
       <use xlink:href="#DejaVuSans-30"/>
       <use xlink:href="#DejaVuSans-2e" transform="translate(63.623047 0)"/>
       <use xlink:href="#DejaVuSans-36" transform="translate(95.410156 0)"/>
      </g>
     </g>
    </g>
    <g id="ytick_5">
     <g id="line2d_21">
      <path d="M 47.72 142.143636 
L 577.57 142.143636 
" clip-path="url(#p8c990482ca)" style="fill: none; stroke: #b0b0b0; stroke-width: 0.8; stroke-linecap: square"/>
     </g>
     <g id="line2d_22">
      <g>
       <use xlink:href="#m34e1142d78" x="47.72" y="142.143636" style="stroke: #000000; stroke-width: 0.8"/>
      </g>
     </g>
     <g id="text_12">
      <!-- 0.8 -->
      <g transform="translate(24.816875 145.942855) scale(0.1 -0.1)">
       <use xlink:href="#DejaVuSans-30"/>
       <use xlink:href="#DejaVuSans-2e" transform="translate(63.623047 0)"/>
       <use xlink:href="#DejaVuSans-38" transform="translate(95.410156 0)"/>
      </g>
     </g>
    </g>
    <g id="ytick_6">
     <g id="line2d_23">
      <path d="M 47.72 49.932727 
L 577.57 49.932727 
" clip-path="url(#p8c990482ca)" style="fill: none; stroke: #b0b0b0; stroke-width: 0.8; stroke-linecap: square"/>
     </g>
     <g id="line2d_24">
      <g>
       <use xlink:href="#m34e1142d78" x="47.72" y="49.932727" style="stroke: #000000; stroke-width: 0.8"/>
      </g>
     </g>
     <g id="text_13">
      <!-- 1.0 -->
      <g transform="translate(24.816875 53.731946) scale(0.1 -0.1)">
       <use xlink:href="#DejaVuSans-31"/>
       <use xlink:href="#DejaVuSans-2e" transform="translate(63.623047 0)"/>
       <use xlink:href="#DejaVuSans-30" transform="translate(95.410156 0)"/>
      </g>
     </g>
    </g>
    <g id="text_14">
     <!-- Precision -->
     <g transform="translate(18.737188 302.767031) rotate(-90) scale(0.1 -0.1)">
      <defs>
       <path id="DejaVuSans-50" d="M 1259 4147 
L 1259 2394 
L 2053 2394 
Q 2494 2394 2734 2622 
Q 2975 2850 2975 3272 
Q 2975 3691 2734 3919 
Q 2494 4147 2053 4147 
L 1259 4147 
z
M 628 4666 
L 2053 4666 
Q 2838 4666 3239 4311 
Q 3641 3956 3641 3272 
Q 3641 2581 3239 2228 
Q 2838 1875 2053 1875 
L 1259 1875 
L 1259 0 
L 628 0 
L 628 4666 
z
" transform="scale(0.015625)"/>
       <path id="DejaVuSans-72" d="M 2631 2963 
Q 2534 3019 2420 3045 
Q 2306 3072 2169 3072 
Q 1681 3072 1420 2755 
Q 1159 2438 1159 1844 
L 1159 0 
L 581 0 
L 581 3500 
L 1159 3500 
L 1159 2956 
Q 1341 3275 1631 3429 
Q 1922 3584 2338 3584 
Q 2397 3584 2469 3576 
Q 2541 3569 2628 3553 
L 2631 2963 
z
" transform="scale(0.015625)"/>
       <path id="DejaVuSans-69" d="M 603 3500 
L 1178 3500 
L 1178 0 
L 603 0 
L 603 3500 
z
M 603 4863 
L 1178 4863 
L 1178 4134 
L 603 4134 
L 603 4863 
z
" transform="scale(0.015625)"/>
       <path id="DejaVuSans-73" d="M 2834 3397 
L 2834 2853 
Q 2591 2978 2328 3040 
Q 2066 3103 1784 3103 
Q 1356 3103 1142 2972 
Q 928 2841 928 2578 
Q 928 2378 1081 2264 
Q 1234 2150 1697 2047 
L 1894 2003 
Q 2506 1872 2764 1633 
Q 3022 1394 3022 966 
Q 3022 478 2636 193 
Q 2250 -91 1575 -91 
Q 1294 -91 989 -36 
Q 684 19 347 128 
L 347 722 
Q 666 556 975 473 
Q 1284 391 1588 391 
Q 1994 391 2212 530 
Q 2431 669 2431 922 
Q 2431 1156 2273 1281 
Q 2116 1406 1581 1522 
L 1381 1569 
Q 847 1681 609 1914 
Q 372 2147 372 2553 
Q 372 3047 722 3315 
Q 1072 3584 1716 3584 
Q 2034 3584 2315 3537 
Q 2597 3491 2834 3397 
z
" transform="scale(0.015625)"/>
       <path id="DejaVuSans-6f" d="M 1959 3097 
Q 1497 3097 1228 2736 
Q 959 2375 959 1747 
Q 959 1119 1226 758 
Q 1494 397 1959 397 
Q 2419 397 2687 759 
Q 2956 1122 2956 1747 
Q 2956 2369 2687 2733 
Q 2419 3097 1959 3097 
z
M 1959 3584 
Q 2709 3584 3137 3096 
Q 3566 2609 3566 1747 
Q 3566 888 3137 398 
Q 2709 -91 1959 -91 
Q 1206 -91 779 398 
Q 353 888 353 1747 
Q 353 2609 779 3096 
Q 1206 3584 1959 3584 
z
" transform="scale(0.015625)"/>
       <path id="DejaVuSans-6e" d="M 3513 2113 
L 3513 0 
L 2938 0 
L 2938 2094 
Q 2938 2591 2744 2837 
Q 2550 3084 2163 3084 
Q 1697 3084 1428 2787 
Q 1159 2491 1159 1978 
L 1159 0 
L 581 0 
L 581 3500 
L 1159 3500 
L 1159 2956 
Q 1366 3272 1645 3428 
Q 1925 3584 2291 3584 
Q 2894 3584 3203 3211 
Q 3513 2838 3513 2113 
z
" transform="scale(0.015625)"/>
      </defs>
      <use xlink:href="#DejaVuSans-50"/>
      <use xlink:href="#DejaVuSans-72" transform="translate(58.552734 0)"/>
      <use xlink:href="#DejaVuSans-65" transform="translate(97.416016 0)"/>
      <use xlink:href="#DejaVuSans-63" transform="translate(158.939453 0)"/>
      <use xlink:href="#DejaVuSans-69" transform="translate(213.919922 0)"/>
      <use xlink:href="#DejaVuSans-73" transform="translate(241.703125 0)"/>
      <use xlink:href="#DejaVuSans-69" transform="translate(293.802734 0)"/>
      <use xlink:href="#DejaVuSans-6f" transform="translate(321.585938 0)"/>
      <use xlink:href="#DejaVuSans-6e" transform="translate(382.767578 0)"/>
     </g>
    </g>
   </g>
   <g id="line2d_25">
    <path d="M 553.485909 510.660762 
L 553.485909 510.64149 
L 552.919891 510.542454 
L 552.919891 510.530785 
L 552.919891 510.498799 
L 552.542545 510.408989 
L 552.542545 510.388071 
L 552.542545 510.328606 
L 552.353872 510.328864 
L 552.353872 510.217755 
L 552.353872 510.16234 
L 551.033162 510.092201 
L 551.033162 510.053493 
L 551.033162 510.050818 
L 550.089798 510.014794 
L 550.089798 509.941552 
L 550.089798 509.838802 
L 548.95776 509.822653 
L 548.95776 509.73041 
L 548.95776 509.707394 
L 548.769088 509.707898 
L 548.769088 509.596791 
L 548.769088 509.548414 
L 548.580415 509.548982 
L 548.580415 509.437877 
L 548.580415 509.434857 
L 548.391742 509.435469 
L 548.391742 509.324358 
L 548.391742 509.245295 
L 547.63705 509.147309 
L 547.63705 509.136936 
L 547.63705 508.432612 
L 547.448377 508.433619 
L 547.448377 508.322566 
L 547.448377 508.240683 
L 547.259705 508.241766 
L 547.259705 508.130656 
L 547.259705 507.843932 
L 547.071032 507.84517 
L 547.071032 507.734071 
L 547.071032 507.593114 
L 546.31634 507.585829 
L 546.31634 507.487414 
L 546.31634 506.999159 
L 545.750322 507.003875 
L 545.750322 506.892777 
L 545.750322 506.236551 
L 545.561649 506.238422 
L 545.561649 506.127487 
L 545.561649 505.905282 
L 545.372976 505.907284 
L 545.372976 505.796312 
L 545.372976 505.593666 
L 544.806957 505.574152 
L 544.806957 505.48892 
L 544.806957 503.91898 
L 544.618285 503.921756 
L 544.618285 503.810636 
L 544.618285 503.165541 
L 544.240939 503.171678 
L 544.240939 503.060707 
L 544.240939 496.927959 
L 543.863593 496.938846 
L 543.863593 496.827795 
L 543.863593 489.274457 
L 543.67492 489.282727 
L 543.67492 489.17227 
L 543.67492 473.911377 
L 543.297575 473.938644 
L 543.297575 473.827519 
L 543.297575 445.519047 
L 542.731556 445.586492 
L 542.731556 445.478526 
L 542.731556 443.587007 
L 542.542883 443.610064 
L 542.542883 443.499382 
L 542.542883 430.284937 
L 541.410846 430.445108 
L 541.410846 430.33756 
L 541.410846 421.66872 
L 541.222173 421.697656 
L 541.222173 421.586313 
L 541.222173 374.735496 
L 540.844827 374.812674 
L 540.844827 374.780309 
L 540.844827 322.625465 
L 539.71279 322.894614 
L 539.71279 298.29842 
L 539.524117 298.344627 
L 539.524117 293.157233 
L 539.146772 293.249978 
L 539.146772 242.337047 
L 538.580753 242.472926 
L 538.580753 212.544325 
L 538.203407 212.629462 
L 538.203407 212.551338 
L 538.203407 162.55351 
L 537.448716 162.691399 
L 537.448716 162.584756 
L 537.448716 146.631647 
L 537.07137 146.693614 
L 537.07137 145.287527 
L 536.505351 145.379628 
L 536.505351 136.456486 
L 536.128006 136.513597 
L 536.128006 132.390264 
L 535.75066 132.445327 
L 535.75066 122.323191 
L 535.561987 122.348016 
L 535.561987 121.010648 
L 534.995969 121.0841 
L 534.995969 118.787374 
L 534.807296 118.81124 
L 534.807296 116.624131 
L 534.618623 116.647384 
L 534.618623 111.352361 
L 533.486586 111.482856 
L 533.486586 106.614343 
L 532.920567 106.675357 
L 532.920567 104.340824 
L 531.411184 104.498358 
L 531.411184 103.465911 
L 530.656493 103.543721 
L 530.656493 102.653458 
L 529.524456 102.768905 
L 529.524456 102.022619 
L 527.8264 102.194596 
L 527.8264 98.258074 
L 526.883035 98.347731 
L 526.883035 97.580743 
L 526.317017 97.633942 
L 526.317017 95.157846 
L 526.128344 95.174784 
L 526.128344 94.081773 
L 525.750998 94.114955 
L 525.750998 93.8014 
L 524.430288 93.917192 
L 524.430288 92.180058 
L 524.052943 92.212076 
L 524.052943 91.257783 
L 523.86427 91.273484 
L 523.86427 90.95431 
L 523.675597 90.969914 
L 523.675597 90.329887 
L 522.732232 90.406981 
L 522.732232 90.085682 
L 521.788868 90.162515 
L 521.788868 89.355719 
L 521.22285 89.40112 
L 521.22285 87.450085 
L 520.845504 87.479045 
L 520.845504 86.33177 
L 520.279485 86.374078 
L 520.279485 84.556668 
L 519.147448 84.637691 
L 519.147448 83.97152 
L 518.770102 83.998133 
L 518.770102 83.496776 
L 518.015411 83.549405 
L 518.015411 83.381783 
L 517.449392 83.421181 
L 517.449392 82.242849 
L 512.355225 82.589993 
L 512.355225 81.56471 
L 507.449731 81.896202 
L 507.449731 81.550022 
L 507.261058 81.562781 
L 507.261058 80.520488 
L 506.317693 80.582482 
L 506.317693 80.233269 
L 502.921582 80.456159 
L 502.921582 80.103986 
L 499.902816 80.302726 
L 499.902816 80.125344 
L 498.582106 80.212642 
L 498.582106 78.963502 
L 498.20476 78.987574 
L 498.20476 78.629068 
L 494.808649 78.845011 
L 494.808649 78.483385 
L 493.676612 78.555241 
L 493.676612 78.192158 
L 491.60121 78.323264 
L 491.60121 77.775126 
L 489.903154 77.88135 
L 489.903154 77.697674 
L 478.39411 78.435011 
L 478.39411 78.058059 
L 471.413214 78.518926 
L 471.413214 77.94358 
L 468.771794 78.11857 
L 468.771794 76.178324 
L 468.017102 76.225465 
L 468.017102 75.639006 
L 467.073738 75.696929 
L 467.073738 75.107637 
L 459.526824 75.570411 
L 459.526824 74.969283 
L 458.960805 75.003896 
L 458.960805 73.79507 
L 454.432656 74.062685 
L 454.432656 72.423193 
L 452.545928 72.52918 
L 452.545928 70.035579 
L 450.281853 70.150562 
L 450.281853 69.94034 
L 449.715835 69.969004 
L 449.715835 69.54738 
L 446.697069 69.698553 
L 446.697069 69.485884 
L 444.055649 69.618705 
L 444.055649 68.760429 
L 441.225556 68.898732 
L 441.225556 68.465312 
L 439.338827 68.556605 
L 439.338827 68.338552 
L 421.226232 69.252654 
L 421.226232 68.56602 
L 409.528515 69.18447 
L 409.528515 68.947832 
L 409.151169 68.968223 
L 409.151169 68.493699 
L 403.490983 68.79748 
L 403.490983 67.830416 
L 397.264779 68.159271 
L 397.264779 67.418343 
L 388.019809 67.909625 
L 388.019809 67.655421 
L 382.925641 67.934274 
L 382.925641 67.675934 
L 376.133418 68.056372 
L 376.133418 67.792409 
L 373.114652 67.964343 
L 373.114652 67.697622 
L 350.662582 69.068584 
L 350.662582 68.494664 
L 328.77653 70.006731 
L 318.588195 70.797969 
L 318.588195 70.476429 
L 308.777206 71.28757 
L 308.777206 69.611885 
L 294.249396 70.838844 
L 294.249396 70.124897 
L 277.834857 71.657811 
L 273.872727 72.063345 
L 273.872727 71.281647 
L 272.174671 71.454124 
L 272.174671 70.663597 
L 268.967232 70.985446 
L 268.967232 70.180319 
L 263.495719 70.73218 
L 263.495719 69.48735 
L 256.892169 70.154418 
L 256.892169 69.293416 
L 243.307723 70.75767 
L 241.987013 70.911929 
L 241.987013 69.978577 
L 229.157258 71.536426 
L 218.025559 73.098458 
L 216.327504 73.356812 
L 216.327504 72.269531 
L 205.761823 73.939573 
L 205.195805 74.036115 
L 205.195805 73.449603 
L 203.875095 73.672663 
L 203.875095 72.484308 
L 193.875433 74.234285 
L 190.856667 74.81723 
L 190.856667 71.522895 
L 189.535957 71.753629 
L 189.535957 68.374909 
L 180.102314 69.911758 
L 172.178054 71.415556 
L 165.574504 72.853221 
L 165.574504 72.013884 
L 160.669009 73.171364 
L 154.065459 74.935685 
L 149.159965 76.430115 
L 149.159965 73.412357 
L 144.443143 74.854595 
L 141.990396 75.67689 
L 141.990396 73.455918 
L 137.839593 74.854595 
L 137.839593 71.289477 
L 137.65092 71.347829 
L 137.65092 70.143337 
L 132.556753 71.757795 
L 128.217277 73.351371 
L 124.632492 74.854595 
L 122.368418 75.907631 
L 122.368418 74.370247 
L 121.802399 74.632078 
L 121.802399 73.068081 
L 118.028942 74.854595 
L 114.255485 76.940107 
L 111.425392 78.748636 
L 110.859373 79.139803 
L 110.859373 73.196947 
L 107.840608 75.039658 
L 105.199188 76.909323 
L 102.557768 79.079854 
L 100.859712 80.669697 
L 100.859712 78.045809 
L 98.029619 80.875985 
L 97.274927 81.729592 
L 97.274927 69.55207 
L 96.331563 70.273369 
L 96.331563 67.008822 
L 95.765544 67.396915 
L 95.765544 64.010729 
L 93.690143 65.301212 
L 92.746779 65.969407 
L 91.048723 67.331012 
L 91.048723 63.105714 
L 88.784649 64.805455 
L 87.275266 66.205241 
L 85.199864 68.624128 
L 84.822518 69.143333 
L 82.747117 72.607541 
L 81.992425 74.198756 
L 81.992425 49.932727 
L 71.804091 49.932727 
L 71.804091 49.932727 
" clip-path="url(#p8c990482ca)" style="fill: none; stroke: #1f77b4; stroke-width: 1.5; stroke-linecap: square"/>
   </g>
   <g id="line2d_26">
    <path d="M 553.485909 510.802851 
L 553.485909 510.801585 
L 487.802025 510.794778 
L 487.802025 510.715787 
L 487.802025 510.681149 
L 465.907397 510.697251 
L 465.907397 510.586143 
L 465.907397 510.585482 
L 422.11814 510.592027 
L 422.11814 510.518989 
L 422.11814 510.479259 
L 268.855744 510.621033 
L 268.855744 510.59023 
L 268.855744 510.443576 
L 246.961116 510.503924 
L 246.961116 510.392843 
L 246.961116 510.297588 
L 225.066488 510.383685 
L 225.066488 510.272618 
L 225.066488 49.932727 
L 71.804091 49.932727 
L 71.804091 49.932727 
" clip-path="url(#p8c990482ca)" style="fill: none; stroke: #ff7f0e; stroke-width: 1.5; stroke-linecap: square"/>
   </g>
   <g id="line2d_27">
    <path d="M 553.485909 510.833588 
L 553.485909 510.794642 
L 457.149545 510.792124 
L 457.149545 510.722045 
L 457.149545 510.57488 
L 328.701061 510.623019 
L 328.701061 510.60113 
L 328.701061 510.523493 
L 264.476818 510.622899 
L 264.476818 510.528284 
L 264.476818 510.363101 
L 232.364697 510.467013 
L 232.364697 510.356037 
L 232.364697 280.46 
L 200.252576 306.074141 
L 200.252576 280.46 
L 168.140455 313.392468 
L 168.140455 49.932727 
L 71.804091 49.932727 
L 71.804091 49.932727 
" clip-path="url(#p8c990482ca)" style="fill: none; stroke: #2ca02c; stroke-width: 1.5; stroke-linecap: square"/>
   </g>
   <g id="line2d_28">
    <path d="M 553.485909 510.802851 
L 553.485909 510.789383 
L 519.080065 510.803512 
L 519.080065 510.692408 
L 519.080065 510.679998 
L 484.674221 510.70362 
L 484.674221 510.592534 
L 484.674221 510.480248 
L 450.268377 510.522457 
L 450.268377 510.411347 
L 450.268377 510.251191 
L 415.862532 510.318011 
L 415.862532 510.207015 
L 415.862532 509.785671 
L 381.456688 509.905549 
L 381.456688 509.794548 
L 381.456688 509.64959 
L 312.645 509.939762 
L 312.645 509.835048 
L 312.645 508.297788 
L 278.239156 508.680077 
L 278.239156 508.569154 
L 278.239156 504.920766 
L 243.833312 505.920739 
L 243.833312 505.8185 
L 243.833312 346.324935 
L 209.427468 369.124336 
L 209.427468 49.932727 
L 71.804091 49.932727 
L 71.804091 49.932727 
" clip-path="url(#p8c990482ca)" style="fill: none; stroke: #d62728; stroke-width: 1.5; stroke-linecap: square"/>
   </g>
   <g id="line2d_29">
    <path d="M 553.485909 510.723813 
L 553.485909 510.707277 
L 481.233636 510.647704 
L 481.233636 510.638145 
L 481.233636 510.326235 
L 457.149545 510.365067 
L 457.149545 510.253985 
L 457.149545 510.044541 
L 408.981364 510.127326 
L 408.981364 510.051121 
L 408.981364 509.637186 
L 384.897273 509.733359 
L 384.897273 509.622274 
L 384.897273 497.487928 
L 360.813182 498.498211 
L 360.813182 498.413058 
L 360.813182 469.073223 
L 336.729091 472.272769 
L 336.729091 347.387273 
L 312.645 357.302424 
L 312.645 126.775152 
L 288.560909 133.760826 
L 264.476818 142.143636 
L 264.476818 101.16101 
L 240.392727 107.564545 
L 216.308636 115.797662 
L 192.224545 126.775152 
L 168.140455 142.143636 
L 144.056364 165.196364 
L 144.056364 49.932727 
L 71.804091 49.932727 
L 71.804091 49.932727 
" clip-path="url(#p8c990482ca)" style="fill: none; stroke: #9467bd; stroke-width: 1.5; stroke-linecap: square"/>
   </g>
   <g id="line2d_30">
    <path d="M 553.485909 510.664535 
L 553.485909 510.122487 
L 519.080065 510.184149 
L 519.080065 510.07304 
L 519.080065 509.951732 
L 450.268377 510.097674 
L 450.268377 509.999619 
L 450.268377 506.124761 
L 415.862532 506.562565 
L 415.862532 506.453796 
L 415.862532 506.077214 
L 381.456688 506.563508 
L 381.456688 506.457261 
L 381.456688 266.899572 
L 347.050844 280.46 
L 347.050844 227.261399 
L 312.645 242.038788 
L 312.645 188.249091 
L 278.239156 203.617576 
L 243.833312 222.828182 
L 243.833312 181.662597 
L 209.427468 203.617576 
L 175.021623 234.354545 
L 140.615779 280.46 
L 140.615779 203.617576 
L 106.209935 280.46 
L 71.804091 510.987273 
L 71.804091 49.932727 
L 71.804091 49.932727 
" clip-path="url(#p8c990482ca)" style="fill: none; stroke: #8c564b; stroke-width: 1.5; stroke-linecap: square"/>
   </g>
   <g id="line2d_31">
    <path d="M 553.485909 510.802851 
L 553.485909 510.559529 
L 493.275682 510.612953 
L 493.275682 510.501879 
L 493.275682 510.485971 
L 433.065455 510.557519 
L 433.065455 510.446446 
L 433.065455 510.286049 
L 372.855227 510.402772 
L 372.855227 510.291866 
L 372.855227 509.940373 
L 252.434773 510.287291 
L 252.434773 510.247613 
L 252.434773 510.030066 
L 192.224545 510.348693 
L 192.224545 510.237591 
L 192.224545 499.460909 
L 132.014318 505.151139 
L 132.014318 505.076317 
L 132.014318 49.932727 
L 71.804091 49.932727 
L 71.804091 49.932727 
" clip-path="url(#p8c990482ca)" style="fill: none; stroke: #e377c2; stroke-width: 1.5; stroke-linecap: square"/>
   </g>
   <g id="line2d_32">
    <path d="M 553.485909 510.864325 
L 553.485909 510.798471 
L 192.224545 510.899016 
L 192.224545 510.828944 
L 192.224545 49.932727 
L 71.804091 49.932727 
L 71.804091 49.932727 
" clip-path="url(#p8c990482ca)" style="fill: none; stroke: #7f7f7f; stroke-width: 1.5; stroke-linecap: square"/>
   </g>
   <g id="line2d_33">
    <path d="M 553.485909 510.802851 
L 553.485909 510.749411 
L 473.205606 510.789038 
L 473.205606 510.677965 
L 473.205606 509.739831 
L 392.925303 509.988779 
L 392.925303 509.878302 
L 392.925303 509.658585 
L 312.645 509.990039 
L 312.645 509.878969 
L 312.645 509.868208 
L 232.364697 510.240626 
L 232.364697 510.130294 
L 232.364697 499.877525 
L 152.084394 505.364656 
L 152.084394 505.295241 
L 152.084394 49.932727 
L 71.804091 49.932727 
L 71.804091 49.932727 
" clip-path="url(#p8c990482ca)" style="fill: none; stroke: #bcbd22; stroke-width: 1.5; stroke-linecap: square"/>
   </g>
   <g id="line2d_34">
    <path d="M 553.485909 510.864325 
L 553.485909 510.78103 
L 433.065455 510.832574 
L 433.065455 510.721484 
L 433.065455 510.224779 
L 192.224545 510.690584 
L 192.224545 510.621647 
L 192.224545 49.932727 
L 71.804091 49.932727 
L 71.804091 49.932727 
" clip-path="url(#p8c990482ca)" style="fill: none; stroke: #17becf; stroke-width: 1.5; stroke-linecap: square"/>
   </g>
   <g id="patch_3">
    <path d="M 47.72 534.04 
L 47.72 26.88 
" style="fill: none; stroke: #000000; stroke-width: 0.8; stroke-linejoin: miter; stroke-linecap: square"/>
   </g>
   <g id="patch_4">
    <path d="M 577.57 534.04 
L 577.57 26.88 
" style="fill: none; stroke: #000000; stroke-width: 0.8; stroke-linejoin: miter; stroke-linecap: square"/>
   </g>
   <g id="patch_5">
    <path d="M 47.72 534.04 
L 577.57 534.04 
" style="fill: none; stroke: #000000; stroke-width: 0.8; stroke-linejoin: miter; stroke-linecap: square"/>
   </g>
   <g id="patch_6">
    <path d="M 47.72 26.88 
L 577.57 26.88 
" style="fill: none; stroke: #000000; stroke-width: 0.8; stroke-linejoin: miter; stroke-linecap: square"/>
   </g>
   <g id="text_15">
    <!-- Acceptor Precision-Recall Curves by Sequence -->
    <g transform="translate(173.809687 20.88) scale(0.12 -0.12)">
     <defs>
      <path id="DejaVuSans-41" d="M 2188 4044 
L 1331 1722 
L 3047 1722 
L 2188 4044 
z
M 1831 4666 
L 2547 4666 
L 4325 0 
L 3669 0 
L 3244 1197 
L 1141 1197 
L 716 0 
L 50 0 
L 1831 4666 
z
" transform="scale(0.015625)"/>
      <path id="DejaVuSans-70" d="M 1159 525 
L 1159 -1331 
L 581 -1331 
L 581 3500 
L 1159 3500 
L 1159 2969 
Q 1341 3281 1617 3432 
Q 1894 3584 2278 3584 
Q 2916 3584 3314 3078 
Q 3713 2572 3713 1747 
Q 3713 922 3314 415 
Q 2916 -91 2278 -91 
Q 1894 -91 1617 61 
Q 1341 213 1159 525 
z
M 3116 1747 
Q 3116 2381 2855 2742 
Q 2594 3103 2138 3103 
Q 1681 3103 1420 2742 
Q 1159 2381 1159 1747 
Q 1159 1113 1420 752 
Q 1681 391 2138 391 
Q 2594 391 2855 752 
Q 3116 1113 3116 1747 
z
" transform="scale(0.015625)"/>
      <path id="DejaVuSans-74" d="M 1172 4494 
L 1172 3500 
L 2356 3500 
L 2356 3053 
L 1172 3053 
L 1172 1153 
Q 1172 725 1289 603 
Q 1406 481 1766 481 
L 2356 481 
L 2356 0 
L 1766 0 
Q 1100 0 847 248 
Q 594 497 594 1153 
L 594 3053 
L 172 3053 
L 172 3500 
L 594 3500 
L 594 4494 
L 1172 4494 
z
" transform="scale(0.015625)"/>
      <path id="DejaVuSans-20" transform="scale(0.015625)"/>
      <path id="DejaVuSans-2d" d="M 313 2009 
L 1997 2009 
L 1997 1497 
L 313 1497 
L 313 2009 
z
" transform="scale(0.015625)"/>
      <path id="DejaVuSans-43" d="M 4122 4306 
L 4122 3641 
Q 3803 3938 3442 4084 
Q 3081 4231 2675 4231 
Q 1875 4231 1450 3742 
Q 1025 3253 1025 2328 
Q 1025 1406 1450 917 
Q 1875 428 2675 428 
Q 3081 428 3442 575 
Q 3803 722 4122 1019 
L 4122 359 
Q 3791 134 3420 21 
Q 3050 -91 2638 -91 
Q 1578 -91 968 557 
Q 359 1206 359 2328 
Q 359 3453 968 4101 
Q 1578 4750 2638 4750 
Q 3056 4750 3426 4639 
Q 3797 4528 4122 4306 
z
" transform="scale(0.015625)"/>
      <path id="DejaVuSans-75" d="M 544 1381 
L 544 3500 
L 1119 3500 
L 1119 1403 
Q 1119 906 1312 657 
Q 1506 409 1894 409 
Q 2359 409 2629 706 
Q 2900 1003 2900 1516 
L 2900 3500 
L 3475 3500 
L 3475 0 
L 2900 0 
L 2900 538 
Q 2691 219 2414 64 
Q 2138 -91 1772 -91 
Q 1169 -91 856 284 
Q 544 659 544 1381 
z
M 1991 3584 
L 1991 3584 
z
" transform="scale(0.015625)"/>
      <path id="DejaVuSans-76" d="M 191 3500 
L 800 3500 
L 1894 563 
L 2988 3500 
L 3597 3500 
L 2284 0 
L 1503 0 
L 191 3500 
z
" transform="scale(0.015625)"/>
      <path id="DejaVuSans-62" d="M 3116 1747 
Q 3116 2381 2855 2742 
Q 2594 3103 2138 3103 
Q 1681 3103 1420 2742 
Q 1159 2381 1159 1747 
Q 1159 1113 1420 752 
Q 1681 391 2138 391 
Q 2594 391 2855 752 
Q 3116 1113 3116 1747 
z
M 1159 2969 
Q 1341 3281 1617 3432 
Q 1894 3584 2278 3584 
Q 2916 3584 3314 3078 
Q 3713 2572 3713 1747 
Q 3713 922 3314 415 
Q 2916 -91 2278 -91 
Q 1894 -91 1617 61 
Q 1341 213 1159 525 
L 1159 0 
L 581 0 
L 581 4863 
L 1159 4863 
L 1159 2969 
z
" transform="scale(0.015625)"/>
      <path id="DejaVuSans-79" d="M 2059 -325 
Q 1816 -950 1584 -1140 
Q 1353 -1331 966 -1331 
L 506 -1331 
L 506 -850 
L 844 -850 
Q 1081 -850 1212 -737 
Q 1344 -625 1503 -206 
L 1606 56 
L 191 3500 
L 800 3500 
L 1894 763 
L 2988 3500 
L 3597 3500 
L 2059 -325 
z
" transform="scale(0.015625)"/>
      <path id="DejaVuSans-53" d="M 3425 4513 
L 3425 3897 
Q 3066 4069 2747 4153 
Q 2428 4238 2131 4238 
Q 1616 4238 1336 4038 
Q 1056 3838 1056 3469 
Q 1056 3159 1242 3001 
Q 1428 2844 1947 2747 
L 2328 2669 
Q 3034 2534 3370 2195 
Q 3706 1856 3706 1288 
Q 3706 609 3251 259 
Q 2797 -91 1919 -91 
Q 1588 -91 1214 -16 
Q 841 59 441 206 
L 441 856 
Q 825 641 1194 531 
Q 1563 422 1919 422 
Q 2459 422 2753 634 
Q 3047 847 3047 1241 
Q 3047 1584 2836 1778 
Q 2625 1972 2144 2069 
L 1759 2144 
Q 1053 2284 737 2584 
Q 422 2884 422 3419 
Q 422 4038 858 4394 
Q 1294 4750 2059 4750 
Q 2388 4750 2728 4690 
Q 3069 4631 3425 4513 
z
" transform="scale(0.015625)"/>
      <path id="DejaVuSans-71" d="M 947 1747 
Q 947 1113 1208 752 
Q 1469 391 1925 391 
Q 2381 391 2643 752 
Q 2906 1113 2906 1747 
Q 2906 2381 2643 2742 
Q 2381 3103 1925 3103 
Q 1469 3103 1208 2742 
Q 947 2381 947 1747 
z
M 2906 525 
Q 2725 213 2448 61 
Q 2172 -91 1784 -91 
Q 1150 -91 751 415 
Q 353 922 353 1747 
Q 353 2572 751 3078 
Q 1150 3584 1784 3584 
Q 2172 3584 2448 3432 
Q 2725 3281 2906 2969 
L 2906 3500 
L 3481 3500 
L 3481 -1331 
L 2906 -1331 
L 2906 525 
z
" transform="scale(0.015625)"/>
     </defs>
     <use xlink:href="#DejaVuSans-41"/>
     <use xlink:href="#DejaVuSans-63" transform="translate(66.658203 0)"/>
     <use xlink:href="#DejaVuSans-63" transform="translate(121.638672 0)"/>
     <use xlink:href="#DejaVuSans-65" transform="translate(176.619141 0)"/>
     <use xlink:href="#DejaVuSans-70" transform="translate(238.142578 0)"/>
     <use xlink:href="#DejaVuSans-74" transform="translate(301.619141 0)"/>
     <use xlink:href="#DejaVuSans-6f" transform="translate(340.828125 0)"/>
     <use xlink:href="#DejaVuSans-72" transform="translate(402.009766 0)"/>
     <use xlink:href="#DejaVuSans-20" transform="translate(443.123047 0)"/>
     <use xlink:href="#DejaVuSans-50" transform="translate(474.910156 0)"/>
     <use xlink:href="#DejaVuSans-72" transform="translate(533.462891 0)"/>
     <use xlink:href="#DejaVuSans-65" transform="translate(572.326172 0)"/>
     <use xlink:href="#DejaVuSans-63" transform="translate(633.849609 0)"/>
     <use xlink:href="#DejaVuSans-69" transform="translate(688.830078 0)"/>
     <use xlink:href="#DejaVuSans-73" transform="translate(716.613281 0)"/>
     <use xlink:href="#DejaVuSans-69" transform="translate(768.712891 0)"/>
     <use xlink:href="#DejaVuSans-6f" transform="translate(796.496094 0)"/>
     <use xlink:href="#DejaVuSans-6e" transform="translate(857.677734 0)"/>
     <use xlink:href="#DejaVuSans-2d" transform="translate(921.056641 0)"/>
     <use xlink:href="#DejaVuSans-52" transform="translate(957.140625 0)"/>
     <use xlink:href="#DejaVuSans-65" transform="translate(1022.123047 0)"/>
     <use xlink:href="#DejaVuSans-63" transform="translate(1083.646484 0)"/>
     <use xlink:href="#DejaVuSans-61" transform="translate(1138.626953 0)"/>
     <use xlink:href="#DejaVuSans-6c" transform="translate(1199.90625 0)"/>
     <use xlink:href="#DejaVuSans-6c" transform="translate(1227.689453 0)"/>
     <use xlink:href="#DejaVuSans-20" transform="translate(1255.472656 0)"/>
     <use xlink:href="#DejaVuSans-43" transform="translate(1287.259766 0)"/>
     <use xlink:href="#DejaVuSans-75" transform="translate(1357.083984 0)"/>
     <use xlink:href="#DejaVuSans-72" transform="translate(1420.462891 0)"/>
     <use xlink:href="#DejaVuSans-76" transform="translate(1461.576172 0)"/>
     <use xlink:href="#DejaVuSans-65" transform="translate(1520.755859 0)"/>
     <use xlink:href="#DejaVuSans-73" transform="translate(1582.279297 0)"/>
     <use xlink:href="#DejaVuSans-20" transform="translate(1634.378906 0)"/>
     <use xlink:href="#DejaVuSans-62" transform="translate(1666.166016 0)"/>
     <use xlink:href="#DejaVuSans-79" transform="translate(1729.642578 0)"/>
     <use xlink:href="#DejaVuSans-20" transform="translate(1788.822266 0)"/>
     <use xlink:href="#DejaVuSans-53" transform="translate(1820.609375 0)"/>
     <use xlink:href="#DejaVuSans-65" transform="translate(1884.085938 0)"/>
     <use xlink:href="#DejaVuSans-71" transform="translate(1945.609375 0)"/>
     <use xlink:href="#DejaVuSans-75" transform="translate(2009.085938 0)"/>
     <use xlink:href="#DejaVuSans-65" transform="translate(2072.464844 0)"/>
     <use xlink:href="#DejaVuSans-6e" transform="translate(2133.988281 0)"/>
     <use xlink:href="#DejaVuSans-63" transform="translate(2197.367188 0)"/>
     <use xlink:href="#DejaVuSans-65" transform="translate(2252.347656 0)"/>
    </g>
   </g>
   <g id="legend_1">
    <g id="patch_7">
     <path d="M 611.0625 181.66125 
L 844.789062 181.66125 
Q 846.789062 181.66125 846.789062 179.66125 
L 846.789062 33.88 
Q 846.789062 31.88 844.789062 31.88 
L 611.0625 31.88 
Q 609.0625 31.88 609.0625 33.88 
L 609.0625 179.66125 
Q 609.0625 181.66125 611.0625 181.66125 
z
" style="fill: #ffffff; opacity: 0.8; stroke: #cccccc; stroke-linejoin: miter"/>
    </g>
    <g id="line2d_35">
     <path d="M 613.0625 39.978438 
L 623.0625 39.978438 
L 633.0625 39.978438 
" style="fill: none; stroke: #1f77b4; stroke-width: 1.5; stroke-linecap: square"/>
    </g>
    <g id="text_16">
     <!-- AG (AUPRC=0.924, n=721, topk=0.927) -->
     <g transform="translate(641.0625 43.478438) scale(0.1 -0.1)">
      <defs>
       <path id="DejaVuSans-47" d="M 3809 666 
L 3809 1919 
L 2778 1919 
L 2778 2438 
L 4434 2438 
L 4434 434 
Q 4069 175 3628 42 
Q 3188 -91 2688 -91 
Q 1594 -91 976 548 
Q 359 1188 359 2328 
Q 359 3472 976 4111 
Q 1594 4750 2688 4750 
Q 3144 4750 3555 4637 
Q 3966 4525 4313 4306 
L 4313 3634 
Q 3963 3931 3569 4081 
Q 3175 4231 2741 4231 
Q 1884 4231 1454 3753 
Q 1025 3275 1025 2328 
Q 1025 1384 1454 906 
Q 1884 428 2741 428 
Q 3075 428 3337 486 
Q 3600 544 3809 666 
z
" transform="scale(0.015625)"/>
       <path id="DejaVuSans-28" d="M 1984 4856 
Q 1566 4138 1362 3434 
Q 1159 2731 1159 2009 
Q 1159 1288 1364 580 
Q 1569 -128 1984 -844 
L 1484 -844 
Q 1016 -109 783 600 
Q 550 1309 550 2009 
Q 550 2706 781 3412 
Q 1013 4119 1484 4856 
L 1984 4856 
z
" transform="scale(0.015625)"/>
       <path id="DejaVuSans-55" d="M 556 4666 
L 1191 4666 
L 1191 1831 
Q 1191 1081 1462 751 
Q 1734 422 2344 422 
Q 2950 422 3222 751 
Q 3494 1081 3494 1831 
L 3494 4666 
L 4128 4666 
L 4128 1753 
Q 4128 841 3676 375 
Q 3225 -91 2344 -91 
Q 1459 -91 1007 375 
Q 556 841 556 1753 
L 556 4666 
z
" transform="scale(0.015625)"/>
       <path id="DejaVuSans-3d" d="M 678 2906 
L 4684 2906 
L 4684 2381 
L 678 2381 
L 678 2906 
z
M 678 1631 
L 4684 1631 
L 4684 1100 
L 678 1100 
L 678 1631 
z
" transform="scale(0.015625)"/>
       <path id="DejaVuSans-39" d="M 703 97 
L 703 672 
Q 941 559 1184 500 
Q 1428 441 1663 441 
Q 2288 441 2617 861 
Q 2947 1281 2994 2138 
Q 2813 1869 2534 1725 
Q 2256 1581 1919 1581 
Q 1219 1581 811 2004 
Q 403 2428 403 3163 
Q 403 3881 828 4315 
Q 1253 4750 1959 4750 
Q 2769 4750 3195 4129 
Q 3622 3509 3622 2328 
Q 3622 1225 3098 567 
Q 2575 -91 1691 -91 
Q 1453 -91 1209 -44 
Q 966 3 703 97 
z
M 1959 2075 
Q 2384 2075 2632 2365 
Q 2881 2656 2881 3163 
Q 2881 3666 2632 3958 
Q 2384 4250 1959 4250 
Q 1534 4250 1286 3958 
Q 1038 3666 1038 3163 
Q 1038 2656 1286 2365 
Q 1534 2075 1959 2075 
z
" transform="scale(0.015625)"/>
       <path id="DejaVuSans-2c" d="M 750 794 
L 1409 794 
L 1409 256 
L 897 -744 
L 494 -744 
L 750 256 
L 750 794 
z
" transform="scale(0.015625)"/>
       <path id="DejaVuSans-37" d="M 525 4666 
L 3525 4666 
L 3525 4397 
L 1831 0 
L 1172 0 
L 2766 4134 
L 525 4134 
L 525 4666 
z
" transform="scale(0.015625)"/>
       <path id="DejaVuSans-6b" d="M 581 4863 
L 1159 4863 
L 1159 1991 
L 2875 3500 
L 3609 3500 
L 1753 1863 
L 3688 0 
L 2938 0 
L 1159 1709 
L 1159 0 
L 581 0 
L 581 4863 
z
" transform="scale(0.015625)"/>
       <path id="DejaVuSans-29" d="M 513 4856 
L 1013 4856 
Q 1481 4119 1714 3412 
Q 1947 2706 1947 2009 
Q 1947 1309 1714 600 
Q 1481 -109 1013 -844 
L 513 -844 
Q 928 -128 1133 580 
Q 1338 1288 1338 2009 
Q 1338 2731 1133 3434 
Q 928 4138 513 4856 
z
" transform="scale(0.015625)"/>
      </defs>
      <use xlink:href="#DejaVuSans-41"/>
      <use xlink:href="#DejaVuSans-47" transform="translate(66.658203 0)"/>
      <use xlink:href="#DejaVuSans-20" transform="translate(144.148438 0)"/>
      <use xlink:href="#DejaVuSans-28" transform="translate(175.935547 0)"/>
      <use xlink:href="#DejaVuSans-41" transform="translate(214.949219 0)"/>
      <use xlink:href="#DejaVuSans-55" transform="translate(283.357422 0)"/>
      <use xlink:href="#DejaVuSans-50" transform="translate(356.550781 0)"/>
      <use xlink:href="#DejaVuSans-52" transform="translate(416.853516 0)"/>
      <use xlink:href="#DejaVuSans-43" transform="translate(481.335938 0)"/>
      <use xlink:href="#DejaVuSans-3d" transform="translate(551.160156 0)"/>
      <use xlink:href="#DejaVuSans-30" transform="translate(634.949219 0)"/>
      <use xlink:href="#DejaVuSans-2e" transform="translate(698.572266 0)"/>
      <use xlink:href="#DejaVuSans-39" transform="translate(730.359375 0)"/>
      <use xlink:href="#DejaVuSans-32" transform="translate(793.982422 0)"/>
      <use xlink:href="#DejaVuSans-34" transform="translate(857.605469 0)"/>
      <use xlink:href="#DejaVuSans-2c" transform="translate(921.228516 0)"/>
      <use xlink:href="#DejaVuSans-20" transform="translate(953.015625 0)"/>
      <use xlink:href="#DejaVuSans-6e" transform="translate(984.802734 0)"/>
      <use xlink:href="#DejaVuSans-3d" transform="translate(1048.181641 0)"/>
      <use xlink:href="#DejaVuSans-37" transform="translate(1131.970703 0)"/>
      <use xlink:href="#DejaVuSans-32" transform="translate(1195.59375 0)"/>
      <use xlink:href="#DejaVuSans-31" transform="translate(1259.216797 0)"/>
      <use xlink:href="#DejaVuSans-2c" transform="translate(1322.839844 0)"/>
      <use xlink:href="#DejaVuSans-20" transform="translate(1354.626953 0)"/>
      <use xlink:href="#DejaVuSans-74" transform="translate(1386.414062 0)"/>
      <use xlink:href="#DejaVuSans-6f" transform="translate(1425.623047 0)"/>
      <use xlink:href="#DejaVuSans-70" transform="translate(1486.804688 0)"/>
      <use xlink:href="#DejaVuSans-6b" transform="translate(1550.28125 0)"/>
      <use xlink:href="#DejaVuSans-3d" transform="translate(1608.191406 0)"/>
      <use xlink:href="#DejaVuSans-30" transform="translate(1691.980469 0)"/>
      <use xlink:href="#DejaVuSans-2e" transform="translate(1755.603516 0)"/>
      <use xlink:href="#DejaVuSans-39" transform="translate(1787.390625 0)"/>
      <use xlink:href="#DejaVuSans-32" transform="translate(1851.013672 0)"/>
      <use xlink:href="#DejaVuSans-37" transform="translate(1914.636719 0)"/>
      <use xlink:href="#DejaVuSans-29" transform="translate(1978.259766 0)"/>
     </g>
    </g>
    <g id="line2d_36">
     <path d="M 613.0625 54.656563 
L 623.0625 54.656563 
L 633.0625 54.656563 
" style="fill: none; stroke: #ff7f0e; stroke-width: 1.5; stroke-linecap: square"/>
    </g>
    <g id="text_17">
     <!-- GT (AUPRC=0.319, n=11, topk=0.318) -->
     <g transform="translate(641.0625 58.156563) scale(0.1 -0.1)">
      <defs>
       <path id="DejaVuSans-54" d="M -19 4666 
L 3928 4666 
L 3928 4134 
L 2272 4134 
L 2272 0 
L 1638 0 
L 1638 4134 
L -19 4134 
L -19 4666 
z
" transform="scale(0.015625)"/>
       <path id="DejaVuSans-33" d="M 2597 2516 
Q 3050 2419 3304 2112 
Q 3559 1806 3559 1356 
Q 3559 666 3084 287 
Q 2609 -91 1734 -91 
Q 1441 -91 1130 -33 
Q 819 25 488 141 
L 488 750 
Q 750 597 1062 519 
Q 1375 441 1716 441 
Q 2309 441 2620 675 
Q 2931 909 2931 1356 
Q 2931 1769 2642 2001 
Q 2353 2234 1838 2234 
L 1294 2234 
L 1294 2753 
L 1863 2753 
Q 2328 2753 2575 2939 
Q 2822 3125 2822 3475 
Q 2822 3834 2567 4026 
Q 2313 4219 1838 4219 
Q 1578 4219 1281 4162 
Q 984 4106 628 3988 
L 628 4550 
Q 988 4650 1302 4700 
Q 1616 4750 1894 4750 
Q 2613 4750 3031 4423 
Q 3450 4097 3450 3541 
Q 3450 3153 3228 2886 
Q 3006 2619 2597 2516 
z
" transform="scale(0.015625)"/>
      </defs>
      <use xlink:href="#DejaVuSans-47"/>
      <use xlink:href="#DejaVuSans-54" transform="translate(73.865234 0)"/>
      <use xlink:href="#DejaVuSans-20" transform="translate(134.949219 0)"/>
      <use xlink:href="#DejaVuSans-28" transform="translate(166.736328 0)"/>
      <use xlink:href="#DejaVuSans-41" transform="translate(205.75 0)"/>
      <use xlink:href="#DejaVuSans-55" transform="translate(274.158203 0)"/>
      <use xlink:href="#DejaVuSans-50" transform="translate(347.351562 0)"/>
      <use xlink:href="#DejaVuSans-52" transform="translate(407.654297 0)"/>
      <use xlink:href="#DejaVuSans-43" transform="translate(472.136719 0)"/>
      <use xlink:href="#DejaVuSans-3d" transform="translate(541.960938 0)"/>
      <use xlink:href="#DejaVuSans-30" transform="translate(625.75 0)"/>
      <use xlink:href="#DejaVuSans-2e" transform="translate(689.373047 0)"/>
      <use xlink:href="#DejaVuSans-33" transform="translate(721.160156 0)"/>
      <use xlink:href="#DejaVuSans-31" transform="translate(784.783203 0)"/>
      <use xlink:href="#DejaVuSans-39" transform="translate(848.40625 0)"/>
      <use xlink:href="#DejaVuSans-2c" transform="translate(912.029297 0)"/>
      <use xlink:href="#DejaVuSans-20" transform="translate(943.816406 0)"/>
      <use xlink:href="#DejaVuSans-6e" transform="translate(975.603516 0)"/>
      <use xlink:href="#DejaVuSans-3d" transform="translate(1038.982422 0)"/>
      <use xlink:href="#DejaVuSans-31" transform="translate(1122.771484 0)"/>
      <use xlink:href="#DejaVuSans-31" transform="translate(1186.394531 0)"/>
      <use xlink:href="#DejaVuSans-2c" transform="translate(1250.017578 0)"/>
      <use xlink:href="#DejaVuSans-20" transform="translate(1281.804688 0)"/>
      <use xlink:href="#DejaVuSans-74" transform="translate(1313.591797 0)"/>
      <use xlink:href="#DejaVuSans-6f" transform="translate(1352.800781 0)"/>
      <use xlink:href="#DejaVuSans-70" transform="translate(1413.982422 0)"/>
      <use xlink:href="#DejaVuSans-6b" transform="translate(1477.458984 0)"/>
      <use xlink:href="#DejaVuSans-3d" transform="translate(1535.369141 0)"/>
      <use xlink:href="#DejaVuSans-30" transform="translate(1619.158203 0)"/>
      <use xlink:href="#DejaVuSans-2e" transform="translate(1682.78125 0)"/>
      <use xlink:href="#DejaVuSans-33" transform="translate(1714.568359 0)"/>
      <use xlink:href="#DejaVuSans-31" transform="translate(1778.191406 0)"/>
      <use xlink:href="#DejaVuSans-38" transform="translate(1841.814453 0)"/>
      <use xlink:href="#DejaVuSans-29" transform="translate(1905.4375 0)"/>
     </g>
    </g>
    <g id="line2d_37">
     <path d="M 613.0625 69.334688 
L 623.0625 69.334688 
L 633.0625 69.334688 
" style="fill: none; stroke: #2ca02c; stroke-width: 1.5; stroke-linecap: square"/>
    </g>
    <g id="text_18">
     <!-- GC (AUPRC=0.263, n=9, topk=0.333) -->
     <g transform="translate(641.0625 72.834688) scale(0.1 -0.1)">
      <use xlink:href="#DejaVuSans-47"/>
      <use xlink:href="#DejaVuSans-43" transform="translate(77.490234 0)"/>
      <use xlink:href="#DejaVuSans-20" transform="translate(147.314453 0)"/>
      <use xlink:href="#DejaVuSans-28" transform="translate(179.101562 0)"/>
      <use xlink:href="#DejaVuSans-41" transform="translate(218.115234 0)"/>
      <use xlink:href="#DejaVuSans-55" transform="translate(286.523438 0)"/>
      <use xlink:href="#DejaVuSans-50" transform="translate(359.716797 0)"/>
      <use xlink:href="#DejaVuSans-52" transform="translate(420.019531 0)"/>
      <use xlink:href="#DejaVuSans-43" transform="translate(484.501953 0)"/>
      <use xlink:href="#DejaVuSans-3d" transform="translate(554.326172 0)"/>
      <use xlink:href="#DejaVuSans-30" transform="translate(638.115234 0)"/>
      <use xlink:href="#DejaVuSans-2e" transform="translate(701.738281 0)"/>
      <use xlink:href="#DejaVuSans-32" transform="translate(733.525391 0)"/>
      <use xlink:href="#DejaVuSans-36" transform="translate(797.148438 0)"/>
      <use xlink:href="#DejaVuSans-33" transform="translate(860.771484 0)"/>
      <use xlink:href="#DejaVuSans-2c" transform="translate(924.394531 0)"/>
      <use xlink:href="#DejaVuSans-20" transform="translate(956.181641 0)"/>
      <use xlink:href="#DejaVuSans-6e" transform="translate(987.96875 0)"/>
      <use xlink:href="#DejaVuSans-3d" transform="translate(1051.347656 0)"/>
      <use xlink:href="#DejaVuSans-39" transform="translate(1135.136719 0)"/>
      <use xlink:href="#DejaVuSans-2c" transform="translate(1198.759766 0)"/>
      <use xlink:href="#DejaVuSans-20" transform="translate(1230.546875 0)"/>
      <use xlink:href="#DejaVuSans-74" transform="translate(1262.333984 0)"/>
      <use xlink:href="#DejaVuSans-6f" transform="translate(1301.542969 0)"/>
      <use xlink:href="#DejaVuSans-70" transform="translate(1362.724609 0)"/>
      <use xlink:href="#DejaVuSans-6b" transform="translate(1426.201172 0)"/>
      <use xlink:href="#DejaVuSans-3d" transform="translate(1484.111328 0)"/>
      <use xlink:href="#DejaVuSans-30" transform="translate(1567.900391 0)"/>
      <use xlink:href="#DejaVuSans-2e" transform="translate(1631.523438 0)"/>
      <use xlink:href="#DejaVuSans-33" transform="translate(1663.310547 0)"/>
      <use xlink:href="#DejaVuSans-33" transform="translate(1726.933594 0)"/>
      <use xlink:href="#DejaVuSans-33" transform="translate(1790.556641 0)"/>
      <use xlink:href="#DejaVuSans-29" transform="translate(1854.179688 0)"/>
     </g>
    </g>
    <g id="line2d_38">
     <path d="M 613.0625 84.012813 
L 623.0625 84.012813 
L 633.0625 84.012813 
" style="fill: none; stroke: #d62728; stroke-width: 1.5; stroke-linecap: square"/>
    </g>
    <g id="text_19">
     <!-- GG (AUPRC=0.312, n=7, topk=0.357) -->
     <g transform="translate(641.0625 87.512813) scale(0.1 -0.1)">
      <defs>
       <path id="DejaVuSans-35" d="M 691 4666 
L 3169 4666 
L 3169 4134 
L 1269 4134 
L 1269 2991 
Q 1406 3038 1543 3061 
Q 1681 3084 1819 3084 
Q 2600 3084 3056 2656 
Q 3513 2228 3513 1497 
Q 3513 744 3044 326 
Q 2575 -91 1722 -91 
Q 1428 -91 1123 -41 
Q 819 9 494 109 
L 494 744 
Q 775 591 1075 516 
Q 1375 441 1709 441 
Q 2250 441 2565 725 
Q 2881 1009 2881 1497 
Q 2881 1984 2565 2268 
Q 2250 2553 1709 2553 
Q 1456 2553 1204 2497 
Q 953 2441 691 2322 
L 691 4666 
z
" transform="scale(0.015625)"/>
      </defs>
      <use xlink:href="#DejaVuSans-47"/>
      <use xlink:href="#DejaVuSans-47" transform="translate(77.490234 0)"/>
      <use xlink:href="#DejaVuSans-20" transform="translate(154.980469 0)"/>
      <use xlink:href="#DejaVuSans-28" transform="translate(186.767578 0)"/>
      <use xlink:href="#DejaVuSans-41" transform="translate(225.78125 0)"/>
      <use xlink:href="#DejaVuSans-55" transform="translate(294.189453 0)"/>
      <use xlink:href="#DejaVuSans-50" transform="translate(367.382812 0)"/>
      <use xlink:href="#DejaVuSans-52" transform="translate(427.685547 0)"/>
      <use xlink:href="#DejaVuSans-43" transform="translate(492.167969 0)"/>
      <use xlink:href="#DejaVuSans-3d" transform="translate(561.992188 0)"/>
      <use xlink:href="#DejaVuSans-30" transform="translate(645.78125 0)"/>
      <use xlink:href="#DejaVuSans-2e" transform="translate(709.404297 0)"/>
      <use xlink:href="#DejaVuSans-33" transform="translate(741.191406 0)"/>
      <use xlink:href="#DejaVuSans-31" transform="translate(804.814453 0)"/>
      <use xlink:href="#DejaVuSans-32" transform="translate(868.4375 0)"/>
      <use xlink:href="#DejaVuSans-2c" transform="translate(932.060547 0)"/>
      <use xlink:href="#DejaVuSans-20" transform="translate(963.847656 0)"/>
      <use xlink:href="#DejaVuSans-6e" transform="translate(995.634766 0)"/>
      <use xlink:href="#DejaVuSans-3d" transform="translate(1059.013672 0)"/>
      <use xlink:href="#DejaVuSans-37" transform="translate(1142.802734 0)"/>
      <use xlink:href="#DejaVuSans-2c" transform="translate(1206.425781 0)"/>
      <use xlink:href="#DejaVuSans-20" transform="translate(1238.212891 0)"/>
      <use xlink:href="#DejaVuSans-74" transform="translate(1270 0)"/>
      <use xlink:href="#DejaVuSans-6f" transform="translate(1309.208984 0)"/>
      <use xlink:href="#DejaVuSans-70" transform="translate(1370.390625 0)"/>
      <use xlink:href="#DejaVuSans-6b" transform="translate(1433.867188 0)"/>
      <use xlink:href="#DejaVuSans-3d" transform="translate(1491.777344 0)"/>
      <use xlink:href="#DejaVuSans-30" transform="translate(1575.566406 0)"/>
      <use xlink:href="#DejaVuSans-2e" transform="translate(1639.189453 0)"/>
      <use xlink:href="#DejaVuSans-33" transform="translate(1670.976562 0)"/>
      <use xlink:href="#DejaVuSans-35" transform="translate(1734.599609 0)"/>
      <use xlink:href="#DejaVuSans-37" transform="translate(1798.222656 0)"/>
      <use xlink:href="#DejaVuSans-29" transform="translate(1861.845703 0)"/>
     </g>
    </g>
    <g id="line2d_39">
     <path d="M 613.0625 98.690938 
L 623.0625 98.690938 
L 633.0625 98.690938 
" style="fill: none; stroke: #9467bd; stroke-width: 1.5; stroke-linecap: square"/>
    </g>
    <g id="text_20">
     <!-- AC (AUPRC=0.464, n=7, topk=0.500) -->
     <g transform="translate(641.0625 102.190938) scale(0.1 -0.1)">
      <use xlink:href="#DejaVuSans-41"/>
      <use xlink:href="#DejaVuSans-43" transform="translate(66.658203 0)"/>
      <use xlink:href="#DejaVuSans-20" transform="translate(136.482422 0)"/>
      <use xlink:href="#DejaVuSans-28" transform="translate(168.269531 0)"/>
      <use xlink:href="#DejaVuSans-41" transform="translate(207.283203 0)"/>
      <use xlink:href="#DejaVuSans-55" transform="translate(275.691406 0)"/>
      <use xlink:href="#DejaVuSans-50" transform="translate(348.884766 0)"/>
      <use xlink:href="#DejaVuSans-52" transform="translate(409.1875 0)"/>
      <use xlink:href="#DejaVuSans-43" transform="translate(473.669922 0)"/>
      <use xlink:href="#DejaVuSans-3d" transform="translate(543.494141 0)"/>
      <use xlink:href="#DejaVuSans-30" transform="translate(627.283203 0)"/>
      <use xlink:href="#DejaVuSans-2e" transform="translate(690.90625 0)"/>
      <use xlink:href="#DejaVuSans-34" transform="translate(722.693359 0)"/>
      <use xlink:href="#DejaVuSans-36" transform="translate(786.316406 0)"/>
      <use xlink:href="#DejaVuSans-34" transform="translate(849.939453 0)"/>
      <use xlink:href="#DejaVuSans-2c" transform="translate(913.5625 0)"/>
      <use xlink:href="#DejaVuSans-20" transform="translate(945.349609 0)"/>
      <use xlink:href="#DejaVuSans-6e" transform="translate(977.136719 0)"/>
      <use xlink:href="#DejaVuSans-3d" transform="translate(1040.515625 0)"/>
      <use xlink:href="#DejaVuSans-37" transform="translate(1124.304688 0)"/>
      <use xlink:href="#DejaVuSans-2c" transform="translate(1187.927734 0)"/>
      <use xlink:href="#DejaVuSans-20" transform="translate(1219.714844 0)"/>
      <use xlink:href="#DejaVuSans-74" transform="translate(1251.501953 0)"/>
      <use xlink:href="#DejaVuSans-6f" transform="translate(1290.710938 0)"/>
      <use xlink:href="#DejaVuSans-70" transform="translate(1351.892578 0)"/>
      <use xlink:href="#DejaVuSans-6b" transform="translate(1415.369141 0)"/>
      <use xlink:href="#DejaVuSans-3d" transform="translate(1473.279297 0)"/>
      <use xlink:href="#DejaVuSans-30" transform="translate(1557.068359 0)"/>
      <use xlink:href="#DejaVuSans-2e" transform="translate(1620.691406 0)"/>
      <use xlink:href="#DejaVuSans-35" transform="translate(1652.478516 0)"/>
      <use xlink:href="#DejaVuSans-30" transform="translate(1716.101562 0)"/>
      <use xlink:href="#DejaVuSans-30" transform="translate(1779.724609 0)"/>
      <use xlink:href="#DejaVuSans-29" transform="translate(1843.347656 0)"/>
     </g>
    </g>
    <g id="line2d_40">
     <path d="M 613.0625 113.369063 
L 623.0625 113.369063 
L 633.0625 113.369063 
" style="fill: none; stroke: #8c564b; stroke-width: 1.5; stroke-linecap: square"/>
    </g>
    <g id="text_21">
     <!-- AA (AUPRC=0.370, n=4, topk=0.571) -->
     <g transform="translate(641.0625 116.869063) scale(0.1 -0.1)">
      <use xlink:href="#DejaVuSans-41"/>
      <use xlink:href="#DejaVuSans-41" transform="translate(71.158203 0)"/>
      <use xlink:href="#DejaVuSans-20" transform="translate(139.566406 0)"/>
      <use xlink:href="#DejaVuSans-28" transform="translate(171.353516 0)"/>
      <use xlink:href="#DejaVuSans-41" transform="translate(210.367188 0)"/>
      <use xlink:href="#DejaVuSans-55" transform="translate(278.775391 0)"/>
      <use xlink:href="#DejaVuSans-50" transform="translate(351.96875 0)"/>
      <use xlink:href="#DejaVuSans-52" transform="translate(412.271484 0)"/>
      <use xlink:href="#DejaVuSans-43" transform="translate(476.753906 0)"/>
      <use xlink:href="#DejaVuSans-3d" transform="translate(546.578125 0)"/>
      <use xlink:href="#DejaVuSans-30" transform="translate(630.367188 0)"/>
      <use xlink:href="#DejaVuSans-2e" transform="translate(693.990234 0)"/>
      <use xlink:href="#DejaVuSans-33" transform="translate(725.777344 0)"/>
      <use xlink:href="#DejaVuSans-37" transform="translate(789.400391 0)"/>
      <use xlink:href="#DejaVuSans-30" transform="translate(853.023438 0)"/>
      <use xlink:href="#DejaVuSans-2c" transform="translate(916.646484 0)"/>
      <use xlink:href="#DejaVuSans-20" transform="translate(948.433594 0)"/>
      <use xlink:href="#DejaVuSans-6e" transform="translate(980.220703 0)"/>
      <use xlink:href="#DejaVuSans-3d" transform="translate(1043.599609 0)"/>
      <use xlink:href="#DejaVuSans-34" transform="translate(1127.388672 0)"/>
      <use xlink:href="#DejaVuSans-2c" transform="translate(1191.011719 0)"/>
      <use xlink:href="#DejaVuSans-20" transform="translate(1222.798828 0)"/>
      <use xlink:href="#DejaVuSans-74" transform="translate(1254.585938 0)"/>
      <use xlink:href="#DejaVuSans-6f" transform="translate(1293.794922 0)"/>
      <use xlink:href="#DejaVuSans-70" transform="translate(1354.976562 0)"/>
      <use xlink:href="#DejaVuSans-6b" transform="translate(1418.453125 0)"/>
      <use xlink:href="#DejaVuSans-3d" transform="translate(1476.363281 0)"/>
      <use xlink:href="#DejaVuSans-30" transform="translate(1560.152344 0)"/>
      <use xlink:href="#DejaVuSans-2e" transform="translate(1623.775391 0)"/>
      <use xlink:href="#DejaVuSans-35" transform="translate(1655.5625 0)"/>
      <use xlink:href="#DejaVuSans-37" transform="translate(1719.185547 0)"/>
      <use xlink:href="#DejaVuSans-31" transform="translate(1782.808594 0)"/>
      <use xlink:href="#DejaVuSans-29" transform="translate(1846.431641 0)"/>
     </g>
    </g>
    <g id="line2d_41">
     <path d="M 613.0625 128.047188 
L 623.0625 128.047188 
L 633.0625 128.047188 
" style="fill: none; stroke: #e377c2; stroke-width: 1.5; stroke-linecap: square"/>
    </g>
    <g id="text_22">
     <!-- CC (AUPRC=0.128, n=4, topk=0.125) -->
     <g transform="translate(641.0625 131.547188) scale(0.1 -0.1)">
      <use xlink:href="#DejaVuSans-43"/>
      <use xlink:href="#DejaVuSans-43" transform="translate(69.824219 0)"/>
      <use xlink:href="#DejaVuSans-20" transform="translate(139.648438 0)"/>
      <use xlink:href="#DejaVuSans-28" transform="translate(171.435547 0)"/>
      <use xlink:href="#DejaVuSans-41" transform="translate(210.449219 0)"/>
      <use xlink:href="#DejaVuSans-55" transform="translate(278.857422 0)"/>
      <use xlink:href="#DejaVuSans-50" transform="translate(352.050781 0)"/>
      <use xlink:href="#DejaVuSans-52" transform="translate(412.353516 0)"/>
      <use xlink:href="#DejaVuSans-43" transform="translate(476.835938 0)"/>
      <use xlink:href="#DejaVuSans-3d" transform="translate(546.660156 0)"/>
      <use xlink:href="#DejaVuSans-30" transform="translate(630.449219 0)"/>
      <use xlink:href="#DejaVuSans-2e" transform="translate(694.072266 0)"/>
      <use xlink:href="#DejaVuSans-31" transform="translate(725.859375 0)"/>
      <use xlink:href="#DejaVuSans-32" transform="translate(789.482422 0)"/>
      <use xlink:href="#DejaVuSans-38" transform="translate(853.105469 0)"/>
      <use xlink:href="#DejaVuSans-2c" transform="translate(916.728516 0)"/>
      <use xlink:href="#DejaVuSans-20" transform="translate(948.515625 0)"/>
      <use xlink:href="#DejaVuSans-6e" transform="translate(980.302734 0)"/>
      <use xlink:href="#DejaVuSans-3d" transform="translate(1043.681641 0)"/>
      <use xlink:href="#DejaVuSans-34" transform="translate(1127.470703 0)"/>
      <use xlink:href="#DejaVuSans-2c" transform="translate(1191.09375 0)"/>
      <use xlink:href="#DejaVuSans-20" transform="translate(1222.880859 0)"/>
      <use xlink:href="#DejaVuSans-74" transform="translate(1254.667969 0)"/>
      <use xlink:href="#DejaVuSans-6f" transform="translate(1293.876953 0)"/>
      <use xlink:href="#DejaVuSans-70" transform="translate(1355.058594 0)"/>
      <use xlink:href="#DejaVuSans-6b" transform="translate(1418.535156 0)"/>
      <use xlink:href="#DejaVuSans-3d" transform="translate(1476.445312 0)"/>
      <use xlink:href="#DejaVuSans-30" transform="translate(1560.234375 0)"/>
      <use xlink:href="#DejaVuSans-2e" transform="translate(1623.857422 0)"/>
      <use xlink:href="#DejaVuSans-31" transform="translate(1655.644531 0)"/>
      <use xlink:href="#DejaVuSans-32" transform="translate(1719.267578 0)"/>
      <use xlink:href="#DejaVuSans-35" transform="translate(1782.890625 0)"/>
      <use xlink:href="#DejaVuSans-29" transform="translate(1846.513672 0)"/>
     </g>
    </g>
    <g id="line2d_42">
     <path d="M 613.0625 142.725313 
L 623.0625 142.725313 
L 633.0625 142.725313 
" style="fill: none; stroke: #7f7f7f; stroke-width: 1.5; stroke-linecap: square"/>
    </g>
    <g id="text_23">
     <!-- CG (AUPRC=0.250, n=3, topk=0.250) -->
     <g transform="translate(641.0625 146.225313) scale(0.1 -0.1)">
      <use xlink:href="#DejaVuSans-43"/>
      <use xlink:href="#DejaVuSans-47" transform="translate(69.824219 0)"/>
      <use xlink:href="#DejaVuSans-20" transform="translate(147.314453 0)"/>
      <use xlink:href="#DejaVuSans-28" transform="translate(179.101562 0)"/>
      <use xlink:href="#DejaVuSans-41" transform="translate(218.115234 0)"/>
      <use xlink:href="#DejaVuSans-55" transform="translate(286.523438 0)"/>
      <use xlink:href="#DejaVuSans-50" transform="translate(359.716797 0)"/>
      <use xlink:href="#DejaVuSans-52" transform="translate(420.019531 0)"/>
      <use xlink:href="#DejaVuSans-43" transform="translate(484.501953 0)"/>
      <use xlink:href="#DejaVuSans-3d" transform="translate(554.326172 0)"/>
      <use xlink:href="#DejaVuSans-30" transform="translate(638.115234 0)"/>
      <use xlink:href="#DejaVuSans-2e" transform="translate(701.738281 0)"/>
      <use xlink:href="#DejaVuSans-32" transform="translate(733.525391 0)"/>
      <use xlink:href="#DejaVuSans-35" transform="translate(797.148438 0)"/>
      <use xlink:href="#DejaVuSans-30" transform="translate(860.771484 0)"/>
      <use xlink:href="#DejaVuSans-2c" transform="translate(924.394531 0)"/>
      <use xlink:href="#DejaVuSans-20" transform="translate(956.181641 0)"/>
      <use xlink:href="#DejaVuSans-6e" transform="translate(987.96875 0)"/>
      <use xlink:href="#DejaVuSans-3d" transform="translate(1051.347656 0)"/>
      <use xlink:href="#DejaVuSans-33" transform="translate(1135.136719 0)"/>
      <use xlink:href="#DejaVuSans-2c" transform="translate(1198.759766 0)"/>
      <use xlink:href="#DejaVuSans-20" transform="translate(1230.546875 0)"/>
      <use xlink:href="#DejaVuSans-74" transform="translate(1262.333984 0)"/>
      <use xlink:href="#DejaVuSans-6f" transform="translate(1301.542969 0)"/>
      <use xlink:href="#DejaVuSans-70" transform="translate(1362.724609 0)"/>
      <use xlink:href="#DejaVuSans-6b" transform="translate(1426.201172 0)"/>
      <use xlink:href="#DejaVuSans-3d" transform="translate(1484.111328 0)"/>
      <use xlink:href="#DejaVuSans-30" transform="translate(1567.900391 0)"/>
      <use xlink:href="#DejaVuSans-2e" transform="translate(1631.523438 0)"/>
      <use xlink:href="#DejaVuSans-32" transform="translate(1663.310547 0)"/>
      <use xlink:href="#DejaVuSans-35" transform="translate(1726.933594 0)"/>
      <use xlink:href="#DejaVuSans-30" transform="translate(1790.556641 0)"/>
      <use xlink:href="#DejaVuSans-29" transform="translate(1854.179688 0)"/>
     </g>
    </g>
    <g id="line2d_43">
     <path d="M 613.0625 157.403438 
L 623.0625 157.403438 
L 633.0625 157.403438 
" style="fill: none; stroke: #bcbd22; stroke-width: 1.5; stroke-linecap: square"/>
    </g>
    <g id="text_24">
     <!-- TC (AUPRC=0.171, n=3, topk=0.167) -->
     <g transform="translate(641.0625 160.903438) scale(0.1 -0.1)">
      <use xlink:href="#DejaVuSans-54"/>
      <use xlink:href="#DejaVuSans-43" transform="translate(55.208984 0)"/>
      <use xlink:href="#DejaVuSans-20" transform="translate(125.033203 0)"/>
      <use xlink:href="#DejaVuSans-28" transform="translate(156.820312 0)"/>
      <use xlink:href="#DejaVuSans-41" transform="translate(195.833984 0)"/>
      <use xlink:href="#DejaVuSans-55" transform="translate(264.242188 0)"/>
      <use xlink:href="#DejaVuSans-50" transform="translate(337.435547 0)"/>
      <use xlink:href="#DejaVuSans-52" transform="translate(397.738281 0)"/>
      <use xlink:href="#DejaVuSans-43" transform="translate(462.220703 0)"/>
      <use xlink:href="#DejaVuSans-3d" transform="translate(532.044922 0)"/>
      <use xlink:href="#DejaVuSans-30" transform="translate(615.833984 0)"/>
      <use xlink:href="#DejaVuSans-2e" transform="translate(679.457031 0)"/>
      <use xlink:href="#DejaVuSans-31" transform="translate(711.244141 0)"/>
      <use xlink:href="#DejaVuSans-37" transform="translate(774.867188 0)"/>
      <use xlink:href="#DejaVuSans-31" transform="translate(838.490234 0)"/>
      <use xlink:href="#DejaVuSans-2c" transform="translate(902.113281 0)"/>
      <use xlink:href="#DejaVuSans-20" transform="translate(933.900391 0)"/>
      <use xlink:href="#DejaVuSans-6e" transform="translate(965.6875 0)"/>
      <use xlink:href="#DejaVuSans-3d" transform="translate(1029.066406 0)"/>
      <use xlink:href="#DejaVuSans-33" transform="translate(1112.855469 0)"/>
      <use xlink:href="#DejaVuSans-2c" transform="translate(1176.478516 0)"/>
      <use xlink:href="#DejaVuSans-20" transform="translate(1208.265625 0)"/>
      <use xlink:href="#DejaVuSans-74" transform="translate(1240.052734 0)"/>
      <use xlink:href="#DejaVuSans-6f" transform="translate(1279.261719 0)"/>
      <use xlink:href="#DejaVuSans-70" transform="translate(1340.443359 0)"/>
      <use xlink:href="#DejaVuSans-6b" transform="translate(1403.919922 0)"/>
      <use xlink:href="#DejaVuSans-3d" transform="translate(1461.830078 0)"/>
      <use xlink:href="#DejaVuSans-30" transform="translate(1545.619141 0)"/>
      <use xlink:href="#DejaVuSans-2e" transform="translate(1609.242188 0)"/>
      <use xlink:href="#DejaVuSans-31" transform="translate(1641.029297 0)"/>
      <use xlink:href="#DejaVuSans-36" transform="translate(1704.652344 0)"/>
      <use xlink:href="#DejaVuSans-37" transform="translate(1768.275391 0)"/>
      <use xlink:href="#DejaVuSans-29" transform="translate(1831.898438 0)"/>
     </g>
    </g>
    <g id="line2d_44">
     <path d="M 613.0625 172.081563 
L 623.0625 172.081563 
L 633.0625 172.081563 
" style="fill: none; stroke: #17becf; stroke-width: 1.5; stroke-linecap: square"/>
    </g>
    <g id="text_25">
     <!-- TT (AUPRC=0.251, n=3, topk=0.250) -->
     <g transform="translate(641.0625 175.581563) scale(0.1 -0.1)">
      <use xlink:href="#DejaVuSans-54"/>
      <use xlink:href="#DejaVuSans-54" transform="translate(59.333984 0)"/>
      <use xlink:href="#DejaVuSans-20" transform="translate(120.417969 0)"/>
      <use xlink:href="#DejaVuSans-28" transform="translate(152.205078 0)"/>
      <use xlink:href="#DejaVuSans-41" transform="translate(191.21875 0)"/>
      <use xlink:href="#DejaVuSans-55" transform="translate(259.626953 0)"/>
      <use xlink:href="#DejaVuSans-50" transform="translate(332.820312 0)"/>
      <use xlink:href="#DejaVuSans-52" transform="translate(393.123047 0)"/>
      <use xlink:href="#DejaVuSans-43" transform="translate(457.605469 0)"/>
      <use xlink:href="#DejaVuSans-3d" transform="translate(527.429688 0)"/>
      <use xlink:href="#DejaVuSans-30" transform="translate(611.21875 0)"/>
      <use xlink:href="#DejaVuSans-2e" transform="translate(674.841797 0)"/>
      <use xlink:href="#DejaVuSans-32" transform="translate(706.628906 0)"/>
      <use xlink:href="#DejaVuSans-35" transform="translate(770.251953 0)"/>
      <use xlink:href="#DejaVuSans-31" transform="translate(833.875 0)"/>
      <use xlink:href="#DejaVuSans-2c" transform="translate(897.498047 0)"/>
      <use xlink:href="#DejaVuSans-20" transform="translate(929.285156 0)"/>
      <use xlink:href="#DejaVuSans-6e" transform="translate(961.072266 0)"/>
      <use xlink:href="#DejaVuSans-3d" transform="translate(1024.451172 0)"/>
      <use xlink:href="#DejaVuSans-33" transform="translate(1108.240234 0)"/>
      <use xlink:href="#DejaVuSans-2c" transform="translate(1171.863281 0)"/>
      <use xlink:href="#DejaVuSans-20" transform="translate(1203.650391 0)"/>
      <use xlink:href="#DejaVuSans-74" transform="translate(1235.4375 0)"/>
      <use xlink:href="#DejaVuSans-6f" transform="translate(1274.646484 0)"/>
      <use xlink:href="#DejaVuSans-70" transform="translate(1335.828125 0)"/>
      <use xlink:href="#DejaVuSans-6b" transform="translate(1399.304688 0)"/>
      <use xlink:href="#DejaVuSans-3d" transform="translate(1457.214844 0)"/>
      <use xlink:href="#DejaVuSans-30" transform="translate(1541.003906 0)"/>
      <use xlink:href="#DejaVuSans-2e" transform="translate(1604.626953 0)"/>
      <use xlink:href="#DejaVuSans-32" transform="translate(1636.414062 0)"/>
      <use xlink:href="#DejaVuSans-35" transform="translate(1700.037109 0)"/>
      <use xlink:href="#DejaVuSans-30" transform="translate(1763.660156 0)"/>
      <use xlink:href="#DejaVuSans-29" transform="translate(1827.283203 0)"/>
     </g>
    </g>
   </g>
  </g>
 </g>
 <defs>
  <clipPath id="p8c990482ca">
   <rect x="47.72" y="26.88" width="529.85" height="507.16"/>
  </clipPath>
 </defs>
</svg>
