<?xml version="1.0" encoding="utf-8" standalone="no"?>
<!DOCTYPE svg PUBLIC "-//W3C//DTD SVG 1.1//EN"
  "http://www.w3.org/Graphics/SVG/1.1/DTD/svg11.dtd">
<svg xmlns:xlink="http://www.w3.org/1999/xlink" width="864pt" height="576pt" viewBox="0 0 864 576" xmlns="http://www.w3.org/2000/svg" version="1.1">
 <metadata>
  <rdf:RDF xmlns:dc="http://purl.org/dc/elements/1.1/" xmlns:cc="http://creativecommons.org/ns#" xmlns:rdf="http://www.w3.org/1999/02/22-rdf-syntax-ns#">
   <cc:Work>
    <dc:type rdf:resource="http://purl.org/dc/dcmitype/StillImage"/>
    <dc:date>2025-05-01T20:54:42.729506</dc:date>
    <dc:format>image/svg+xml</dc:format>
    <dc:creator>
     <cc:Agent>
      <dc:title>Matplotlib v3.10.1, https://matplotlib.org/</dc:title>
     </cc:Agent>
    </dc:creator>
   </cc:Work>
  </rdf:RDF>
 </metadata>
 <defs>
  <style type="text/css">*{stroke-linejoin: round; stroke-linecap: butt}</style>
 </defs>
 <g id="figure_1">
  <g id="patch_1">
   <path d="M 0 576 
L 864 576 
L 864 0 
L 0 0 
z
" style="fill: #ffffff"/>
  </g>
  <g id="axes_1">
   <g id="patch_2">
    <path d="M 47.72 534.04 
L 574.42 534.04 
L 574.42 26.88 
L 47.72 26.88 
z
" style="fill: #ffffff"/>
   </g>
   <g id="matplotlib.axis_1">
    <g id="xtick_1">
     <g id="line2d_1">
      <path d="M 71.660909 534.04 
L 71.660909 26.88 
" clip-path="url(#pebd33ec2eb)" style="fill: none; stroke: #b0b0b0; stroke-width: 0.8; stroke-linecap: square"/>
     </g>
     <g id="line2d_2">
      <defs>
       <path id="m433a412b92" d="M 0 0 
L 0 3.5 
" style="stroke: #000000; stroke-width: 0.8"/>
      </defs>
      <g>
       <use xlink:href="#m433a412b92" x="71.660909" y="534.04" style="stroke: #000000; stroke-width: 0.8"/>
      </g>
     </g>
     <g id="text_1">
      <!-- 0.0 -->
      <g transform="translate(63.709347 548.638438) scale(0.1 -0.1)">
       <defs>
        <path id="DejaVuSans-30" d="M 2034 4250 
Q 1547 4250 1301 3770 
Q 1056 3291 1056 2328 
Q 1056 1369 1301 889 
Q 1547 409 2034 409 
Q 2525 409 2770 889 
Q 3016 1369 3016 2328 
Q 3016 3291 2770 3770 
Q 2525 4250 2034 4250 
z
M 2034 4750 
Q 2819 4750 3233 4129 
Q 3647 3509 3647 2328 
Q 3647 1150 3233 529 
Q 2819 -91 2034 -91 
Q 1250 -91 836 529 
Q 422 1150 422 2328 
Q 422 3509 836 4129 
Q 1250 4750 2034 4750 
z
" transform="scale(0.015625)"/>
        <path id="DejaVuSans-2e" d="M 684 794 
L 1344 794 
L 1344 0 
L 684 0 
L 684 794 
z
" transform="scale(0.015625)"/>
       </defs>
       <use xlink:href="#DejaVuSans-30"/>
       <use xlink:href="#DejaVuSans-2e" transform="translate(63.623047 0)"/>
       <use xlink:href="#DejaVuSans-30" transform="translate(95.410156 0)"/>
      </g>
     </g>
    </g>
    <g id="xtick_2">
     <g id="line2d_3">
      <path d="M 167.424545 534.04 
L 167.424545 26.88 
" clip-path="url(#pebd33ec2eb)" style="fill: none; stroke: #b0b0b0; stroke-width: 0.8; stroke-linecap: square"/>
     </g>
     <g id="line2d_4">
      <g>
       <use xlink:href="#m433a412b92" x="167.424545" y="534.04" style="stroke: #000000; stroke-width: 0.8"/>
      </g>
     </g>
     <g id="text_2">
      <!-- 0.2 -->
      <g transform="translate(159.472983 548.638438) scale(0.1 -0.1)">
       <defs>
        <path id="DejaVuSans-32" d="M 1228 531 
L 3431 531 
L 3431 0 
L 469 0 
L 469 531 
Q 828 903 1448 1529 
Q 2069 2156 2228 2338 
Q 2531 2678 2651 2914 
Q 2772 3150 2772 3378 
Q 2772 3750 2511 3984 
Q 2250 4219 1831 4219 
Q 1534 4219 1204 4116 
Q 875 4013 500 3803 
L 500 4441 
Q 881 4594 1212 4672 
Q 1544 4750 1819 4750 
Q 2544 4750 2975 4387 
Q 3406 4025 3406 3419 
Q 3406 3131 3298 2873 
Q 3191 2616 2906 2266 
Q 2828 2175 2409 1742 
Q 1991 1309 1228 531 
z
" transform="scale(0.015625)"/>
       </defs>
       <use xlink:href="#DejaVuSans-30"/>
       <use xlink:href="#DejaVuSans-2e" transform="translate(63.623047 0)"/>
       <use xlink:href="#DejaVuSans-32" transform="translate(95.410156 0)"/>
      </g>
     </g>
    </g>
    <g id="xtick_3">
     <g id="line2d_5">
      <path d="M 263.188182 534.04 
L 263.188182 26.88 
" clip-path="url(#pebd33ec2eb)" style="fill: none; stroke: #b0b0b0; stroke-width: 0.8; stroke-linecap: square"/>
     </g>
     <g id="line2d_6">
      <g>
       <use xlink:href="#m433a412b92" x="263.188182" y="534.04" style="stroke: #000000; stroke-width: 0.8"/>
      </g>
     </g>
     <g id="text_3">
      <!-- 0.4 -->
      <g transform="translate(255.236619 548.638438) scale(0.1 -0.1)">
       <defs>
        <path id="DejaVuSans-34" d="M 2419 4116 
L 825 1625 
L 2419 1625 
L 2419 4116 
z
M 2253 4666 
L 3047 4666 
L 3047 1625 
L 3713 1625 
L 3713 1100 
L 3047 1100 
L 3047 0 
L 2419 0 
L 2419 1100 
L 313 1100 
L 313 1709 
L 2253 4666 
z
" transform="scale(0.015625)"/>
       </defs>
       <use xlink:href="#DejaVuSans-30"/>
       <use xlink:href="#DejaVuSans-2e" transform="translate(63.623047 0)"/>
       <use xlink:href="#DejaVuSans-34" transform="translate(95.410156 0)"/>
      </g>
     </g>
    </g>
    <g id="xtick_4">
     <g id="line2d_7">
      <path d="M 358.951818 534.04 
L 358.951818 26.88 
" clip-path="url(#pebd33ec2eb)" style="fill: none; stroke: #b0b0b0; stroke-width: 0.8; stroke-linecap: square"/>
     </g>
     <g id="line2d_8">
      <g>
       <use xlink:href="#m433a412b92" x="358.951818" y="534.04" style="stroke: #000000; stroke-width: 0.8"/>
      </g>
     </g>
     <g id="text_4">
      <!-- 0.6 -->
      <g transform="translate(351.000256 548.638438) scale(0.1 -0.1)">
       <defs>
        <path id="DejaVuSans-36" d="M 2113 2584 
Q 1688 2584 1439 2293 
Q 1191 2003 1191 1497 
Q 1191 994 1439 701 
Q 1688 409 2113 409 
Q 2538 409 2786 701 
Q 3034 994 3034 1497 
Q 3034 2003 2786 2293 
Q 2538 2584 2113 2584 
z
M 3366 4563 
L 3366 3988 
Q 3128 4100 2886 4159 
Q 2644 4219 2406 4219 
Q 1781 4219 1451 3797 
Q 1122 3375 1075 2522 
Q 1259 2794 1537 2939 
Q 1816 3084 2150 3084 
Q 2853 3084 3261 2657 
Q 3669 2231 3669 1497 
Q 3669 778 3244 343 
Q 2819 -91 2113 -91 
Q 1303 -91 875 529 
Q 447 1150 447 2328 
Q 447 3434 972 4092 
Q 1497 4750 2381 4750 
Q 2619 4750 2861 4703 
Q 3103 4656 3366 4563 
z
" transform="scale(0.015625)"/>
       </defs>
       <use xlink:href="#DejaVuSans-30"/>
       <use xlink:href="#DejaVuSans-2e" transform="translate(63.623047 0)"/>
       <use xlink:href="#DejaVuSans-36" transform="translate(95.410156 0)"/>
      </g>
     </g>
    </g>
    <g id="xtick_5">
     <g id="line2d_9">
      <path d="M 454.715455 534.04 
L 454.715455 26.88 
" clip-path="url(#pebd33ec2eb)" style="fill: none; stroke: #b0b0b0; stroke-width: 0.8; stroke-linecap: square"/>
     </g>
     <g id="line2d_10">
      <g>
       <use xlink:href="#m433a412b92" x="454.715455" y="534.04" style="stroke: #000000; stroke-width: 0.8"/>
      </g>
     </g>
     <g id="text_5">
      <!-- 0.8 -->
      <g transform="translate(446.763892 548.638438) scale(0.1 -0.1)">
       <defs>
        <path id="DejaVuSans-38" d="M 2034 2216 
Q 1584 2216 1326 1975 
Q 1069 1734 1069 1313 
Q 1069 891 1326 650 
Q 1584 409 2034 409 
Q 2484 409 2743 651 
Q 3003 894 3003 1313 
Q 3003 1734 2745 1975 
Q 2488 2216 2034 2216 
z
M 1403 2484 
Q 997 2584 770 2862 
Q 544 3141 544 3541 
Q 544 4100 942 4425 
Q 1341 4750 2034 4750 
Q 2731 4750 3128 4425 
Q 3525 4100 3525 3541 
Q 3525 3141 3298 2862 
Q 3072 2584 2669 2484 
Q 3125 2378 3379 2068 
Q 3634 1759 3634 1313 
Q 3634 634 3220 271 
Q 2806 -91 2034 -91 
Q 1263 -91 848 271 
Q 434 634 434 1313 
Q 434 1759 690 2068 
Q 947 2378 1403 2484 
z
M 1172 3481 
Q 1172 3119 1398 2916 
Q 1625 2713 2034 2713 
Q 2441 2713 2670 2916 
Q 2900 3119 2900 3481 
Q 2900 3844 2670 4047 
Q 2441 4250 2034 4250 
Q 1625 4250 1398 4047 
Q 1172 3844 1172 3481 
z
" transform="scale(0.015625)"/>
       </defs>
       <use xlink:href="#DejaVuSans-30"/>
       <use xlink:href="#DejaVuSans-2e" transform="translate(63.623047 0)"/>
       <use xlink:href="#DejaVuSans-38" transform="translate(95.410156 0)"/>
      </g>
     </g>
    </g>
    <g id="xtick_6">
     <g id="line2d_11">
      <path d="M 550.479091 534.04 
L 550.479091 26.88 
" clip-path="url(#pebd33ec2eb)" style="fill: none; stroke: #b0b0b0; stroke-width: 0.8; stroke-linecap: square"/>
     </g>
     <g id="line2d_12">
      <g>
       <use xlink:href="#m433a412b92" x="550.479091" y="534.04" style="stroke: #000000; stroke-width: 0.8"/>
      </g>
     </g>
     <g id="text_6">
      <!-- 1.0 -->
      <g transform="translate(542.527528 548.638438) scale(0.1 -0.1)">
       <defs>
        <path id="DejaVuSans-31" d="M 794 531 
L 1825 531 
L 1825 4091 
L 703 3866 
L 703 4441 
L 1819 4666 
L 2450 4666 
L 2450 531 
L 3481 531 
L 3481 0 
L 794 0 
L 794 531 
z
" transform="scale(0.015625)"/>
       </defs>
       <use xlink:href="#DejaVuSans-31"/>
       <use xlink:href="#DejaVuSans-2e" transform="translate(63.623047 0)"/>
       <use xlink:href="#DejaVuSans-30" transform="translate(95.410156 0)"/>
      </g>
     </g>
    </g>
    <g id="text_7">
     <!-- Recall -->
     <g transform="translate(296.152812 562.316562) scale(0.1 -0.1)">
      <defs>
       <path id="DejaVuSans-52" d="M 2841 2188 
Q 3044 2119 3236 1894 
Q 3428 1669 3622 1275 
L 4263 0 
L 3584 0 
L 2988 1197 
Q 2756 1666 2539 1819 
Q 2322 1972 1947 1972 
L 1259 1972 
L 1259 0 
L 628 0 
L 628 4666 
L 2053 4666 
Q 2853 4666 3247 4331 
Q 3641 3997 3641 3322 
Q 3641 2881 3436 2590 
Q 3231 2300 2841 2188 
z
M 1259 4147 
L 1259 2491 
L 2053 2491 
Q 2509 2491 2742 2702 
Q 2975 2913 2975 3322 
Q 2975 3731 2742 3939 
Q 2509 4147 2053 4147 
L 1259 4147 
z
" transform="scale(0.015625)"/>
       <path id="DejaVuSans-65" d="M 3597 1894 
L 3597 1613 
L 953 1613 
Q 991 1019 1311 708 
Q 1631 397 2203 397 
Q 2534 397 2845 478 
Q 3156 559 3463 722 
L 3463 178 
Q 3153 47 2828 -22 
Q 2503 -91 2169 -91 
Q 1331 -91 842 396 
Q 353 884 353 1716 
Q 353 2575 817 3079 
Q 1281 3584 2069 3584 
Q 2775 3584 3186 3129 
Q 3597 2675 3597 1894 
z
M 3022 2063 
Q 3016 2534 2758 2815 
Q 2500 3097 2075 3097 
Q 1594 3097 1305 2825 
Q 1016 2553 972 2059 
L 3022 2063 
z
" transform="scale(0.015625)"/>
       <path id="DejaVuSans-63" d="M 3122 3366 
L 3122 2828 
Q 2878 2963 2633 3030 
Q 2388 3097 2138 3097 
Q 1578 3097 1268 2742 
Q 959 2388 959 1747 
Q 959 1106 1268 751 
Q 1578 397 2138 397 
Q 2388 397 2633 464 
Q 2878 531 3122 666 
L 3122 134 
Q 2881 22 2623 -34 
Q 2366 -91 2075 -91 
Q 1284 -91 818 406 
Q 353 903 353 1747 
Q 353 2603 823 3093 
Q 1294 3584 2113 3584 
Q 2378 3584 2631 3529 
Q 2884 3475 3122 3366 
z
" transform="scale(0.015625)"/>
       <path id="DejaVuSans-61" d="M 2194 1759 
Q 1497 1759 1228 1600 
Q 959 1441 959 1056 
Q 959 750 1161 570 
Q 1363 391 1709 391 
Q 2188 391 2477 730 
Q 2766 1069 2766 1631 
L 2766 1759 
L 2194 1759 
z
M 3341 1997 
L 3341 0 
L 2766 0 
L 2766 531 
Q 2569 213 2275 61 
Q 1981 -91 1556 -91 
Q 1019 -91 701 211 
Q 384 513 384 1019 
Q 384 1609 779 1909 
Q 1175 2209 1959 2209 
L 2766 2209 
L 2766 2266 
Q 2766 2663 2505 2880 
Q 2244 3097 1772 3097 
Q 1472 3097 1187 3025 
Q 903 2953 641 2809 
L 641 3341 
Q 956 3463 1253 3523 
Q 1550 3584 1831 3584 
Q 2591 3584 2966 3190 
Q 3341 2797 3341 1997 
z
" transform="scale(0.015625)"/>
       <path id="DejaVuSans-6c" d="M 603 4863 
L 1178 4863 
L 1178 0 
L 603 0 
L 603 4863 
z
" transform="scale(0.015625)"/>
      </defs>
      <use xlink:href="#DejaVuSans-52"/>
      <use xlink:href="#DejaVuSans-65" transform="translate(64.982422 0)"/>
      <use xlink:href="#DejaVuSans-63" transform="translate(126.505859 0)"/>
      <use xlink:href="#DejaVuSans-61" transform="translate(181.486328 0)"/>
      <use xlink:href="#DejaVuSans-6c" transform="translate(242.765625 0)"/>
      <use xlink:href="#DejaVuSans-6c" transform="translate(270.548828 0)"/>
     </g>
    </g>
   </g>
   <g id="matplotlib.axis_2">
    <g id="ytick_1">
     <g id="line2d_13">
      <path d="M 47.72 511.07516 
L 574.42 511.07516 
" clip-path="url(#pebd33ec2eb)" style="fill: none; stroke: #b0b0b0; stroke-width: 0.8; stroke-linecap: square"/>
     </g>
     <g id="line2d_14">
      <defs>
       <path id="m0e311ea5e2" d="M 0 0 
L -3.5 0 
" style="stroke: #000000; stroke-width: 0.8"/>
      </defs>
      <g>
       <use xlink:href="#m0e311ea5e2" x="47.72" y="511.07516" style="stroke: #000000; stroke-width: 0.8"/>
      </g>
     </g>
     <g id="text_8">
      <!-- 0.0 -->
      <g transform="translate(24.816875 514.874378) scale(0.1 -0.1)">
       <use xlink:href="#DejaVuSans-30"/>
       <use xlink:href="#DejaVuSans-2e" transform="translate(63.623047 0)"/>
       <use xlink:href="#DejaVuSans-30" transform="translate(95.410156 0)"/>
      </g>
     </g>
    </g>
    <g id="ytick_2">
     <g id="line2d_15">
      <path d="M 47.72 418.846673 
L 574.42 418.846673 
" clip-path="url(#pebd33ec2eb)" style="fill: none; stroke: #b0b0b0; stroke-width: 0.8; stroke-linecap: square"/>
     </g>
     <g id="line2d_16">
      <g>
       <use xlink:href="#m0e311ea5e2" x="47.72" y="418.846673" style="stroke: #000000; stroke-width: 0.8"/>
      </g>
     </g>
     <g id="text_9">
      <!-- 0.2 -->
      <g transform="translate(24.816875 422.645892) scale(0.1 -0.1)">
       <use xlink:href="#DejaVuSans-30"/>
       <use xlink:href="#DejaVuSans-2e" transform="translate(63.623047 0)"/>
       <use xlink:href="#DejaVuSans-32" transform="translate(95.410156 0)"/>
      </g>
     </g>
    </g>
    <g id="ytick_3">
     <g id="line2d_17">
      <path d="M 47.72 326.618187 
L 574.42 326.618187 
" clip-path="url(#pebd33ec2eb)" style="fill: none; stroke: #b0b0b0; stroke-width: 0.8; stroke-linecap: square"/>
     </g>
     <g id="line2d_18">
      <g>
       <use xlink:href="#m0e311ea5e2" x="47.72" y="326.618187" style="stroke: #000000; stroke-width: 0.8"/>
      </g>
     </g>
     <g id="text_10">
      <!-- 0.4 -->
      <g transform="translate(24.816875 330.417405) scale(0.1 -0.1)">
       <use xlink:href="#DejaVuSans-30"/>
       <use xlink:href="#DejaVuSans-2e" transform="translate(63.623047 0)"/>
       <use xlink:href="#DejaVuSans-34" transform="translate(95.410156 0)"/>
      </g>
     </g>
    </g>
    <g id="ytick_4">
     <g id="line2d_19">
      <path d="M 47.72 234.3897 
L 574.42 234.3897 
" clip-path="url(#pebd33ec2eb)" style="fill: none; stroke: #b0b0b0; stroke-width: 0.8; stroke-linecap: square"/>
     </g>
     <g id="line2d_20">
      <g>
       <use xlink:href="#m0e311ea5e2" x="47.72" y="234.3897" style="stroke: #000000; stroke-width: 0.8"/>
      </g>
     </g>
     <g id="text_11">
      <!-- 0.6 -->
      <g transform="translate(24.816875 238.188919) scale(0.1 -0.1)">
       <use xlink:href="#DejaVuSans-30"/>
       <use xlink:href="#DejaVuSans-2e" transform="translate(63.623047 0)"/>
       <use xlink:href="#DejaVuSans-36" transform="translate(95.410156 0)"/>
      </g>
     </g>
    </g>
    <g id="ytick_5">
     <g id="line2d_21">
      <path d="M 47.72 142.161214 
L 574.42 142.161214 
" clip-path="url(#pebd33ec2eb)" style="fill: none; stroke: #b0b0b0; stroke-width: 0.8; stroke-linecap: square"/>
     </g>
     <g id="line2d_22">
      <g>
       <use xlink:href="#m0e311ea5e2" x="47.72" y="142.161214" style="stroke: #000000; stroke-width: 0.8"/>
      </g>
     </g>
     <g id="text_12">
      <!-- 0.8 -->
      <g transform="translate(24.816875 145.960432) scale(0.1 -0.1)">
       <use xlink:href="#DejaVuSans-30"/>
       <use xlink:href="#DejaVuSans-2e" transform="translate(63.623047 0)"/>
       <use xlink:href="#DejaVuSans-38" transform="translate(95.410156 0)"/>
      </g>
     </g>
    </g>
    <g id="ytick_6">
     <g id="line2d_23">
      <path d="M 47.72 49.932727 
L 574.42 49.932727 
" clip-path="url(#pebd33ec2eb)" style="fill: none; stroke: #b0b0b0; stroke-width: 0.8; stroke-linecap: square"/>
     </g>
     <g id="line2d_24">
      <g>
       <use xlink:href="#m0e311ea5e2" x="47.72" y="49.932727" style="stroke: #000000; stroke-width: 0.8"/>
      </g>
     </g>
     <g id="text_13">
      <!-- 1.0 -->
      <g transform="translate(24.816875 53.731946) scale(0.1 -0.1)">
       <use xlink:href="#DejaVuSans-31"/>
       <use xlink:href="#DejaVuSans-2e" transform="translate(63.623047 0)"/>
       <use xlink:href="#DejaVuSans-30" transform="translate(95.410156 0)"/>
      </g>
     </g>
    </g>
    <g id="text_14">
     <!-- Precision -->
     <g transform="translate(18.737188 302.767031) rotate(-90) scale(0.1 -0.1)">
      <defs>
       <path id="DejaVuSans-50" d="M 1259 4147 
L 1259 2394 
L 2053 2394 
Q 2494 2394 2734 2622 
Q 2975 2850 2975 3272 
Q 2975 3691 2734 3919 
Q 2494 4147 2053 4147 
L 1259 4147 
z
M 628 4666 
L 2053 4666 
Q 2838 4666 3239 4311 
Q 3641 3956 3641 3272 
Q 3641 2581 3239 2228 
Q 2838 1875 2053 1875 
L 1259 1875 
L 1259 0 
L 628 0 
L 628 4666 
z
" transform="scale(0.015625)"/>
       <path id="DejaVuSans-72" d="M 2631 2963 
Q 2534 3019 2420 3045 
Q 2306 3072 2169 3072 
Q 1681 3072 1420 2755 
Q 1159 2438 1159 1844 
L 1159 0 
L 581 0 
L 581 3500 
L 1159 3500 
L 1159 2956 
Q 1341 3275 1631 3429 
Q 1922 3584 2338 3584 
Q 2397 3584 2469 3576 
Q 2541 3569 2628 3553 
L 2631 2963 
z
" transform="scale(0.015625)"/>
       <path id="DejaVuSans-69" d="M 603 3500 
L 1178 3500 
L 1178 0 
L 603 0 
L 603 3500 
z
M 603 4863 
L 1178 4863 
L 1178 4134 
L 603 4134 
L 603 4863 
z
" transform="scale(0.015625)"/>
       <path id="DejaVuSans-73" d="M 2834 3397 
L 2834 2853 
Q 2591 2978 2328 3040 
Q 2066 3103 1784 3103 
Q 1356 3103 1142 2972 
Q 928 2841 928 2578 
Q 928 2378 1081 2264 
Q 1234 2150 1697 2047 
L 1894 2003 
Q 2506 1872 2764 1633 
Q 3022 1394 3022 966 
Q 3022 478 2636 193 
Q 2250 -91 1575 -91 
Q 1294 -91 989 -36 
Q 684 19 347 128 
L 347 722 
Q 666 556 975 473 
Q 1284 391 1588 391 
Q 1994 391 2212 530 
Q 2431 669 2431 922 
Q 2431 1156 2273 1281 
Q 2116 1406 1581 1522 
L 1381 1569 
Q 847 1681 609 1914 
Q 372 2147 372 2553 
Q 372 3047 722 3315 
Q 1072 3584 1716 3584 
Q 2034 3584 2315 3537 
Q 2597 3491 2834 3397 
z
" transform="scale(0.015625)"/>
       <path id="DejaVuSans-6f" d="M 1959 3097 
Q 1497 3097 1228 2736 
Q 959 2375 959 1747 
Q 959 1119 1226 758 
Q 1494 397 1959 397 
Q 2419 397 2687 759 
Q 2956 1122 2956 1747 
Q 2956 2369 2687 2733 
Q 2419 3097 1959 3097 
z
M 1959 3584 
Q 2709 3584 3137 3096 
Q 3566 2609 3566 1747 
Q 3566 888 3137 398 
Q 2709 -91 1959 -91 
Q 1206 -91 779 398 
Q 353 888 353 1747 
Q 353 2609 779 3096 
Q 1206 3584 1959 3584 
z
" transform="scale(0.015625)"/>
       <path id="DejaVuSans-6e" d="M 3513 2113 
L 3513 0 
L 2938 0 
L 2938 2094 
Q 2938 2591 2744 2837 
Q 2550 3084 2163 3084 
Q 1697 3084 1428 2787 
Q 1159 2491 1159 1978 
L 1159 0 
L 581 0 
L 581 3500 
L 1159 3500 
L 1159 2956 
Q 1366 3272 1645 3428 
Q 1925 3584 2291 3584 
Q 2894 3584 3203 3211 
Q 3513 2838 3513 2113 
z
" transform="scale(0.015625)"/>
      </defs>
      <use xlink:href="#DejaVuSans-50"/>
      <use xlink:href="#DejaVuSans-72" transform="translate(58.552734 0)"/>
      <use xlink:href="#DejaVuSans-65" transform="translate(97.416016 0)"/>
      <use xlink:href="#DejaVuSans-63" transform="translate(158.939453 0)"/>
      <use xlink:href="#DejaVuSans-69" transform="translate(213.919922 0)"/>
      <use xlink:href="#DejaVuSans-73" transform="translate(241.703125 0)"/>
      <use xlink:href="#DejaVuSans-69" transform="translate(293.802734 0)"/>
      <use xlink:href="#DejaVuSans-6f" transform="translate(321.585938 0)"/>
      <use xlink:href="#DejaVuSans-6e" transform="translate(382.767578 0)"/>
     </g>
    </g>
   </g>
   <g id="line2d_25">
    <path d="M 550.479091 510.757398 
L 550.479091 510.652695 
L 548.921959 510.590953 
L 548.921959 510.542958 
L 548.921959 510.368344 
L 547.948751 510.265698 
L 547.948751 510.258673 
L 547.948751 510.234802 
L 546.196977 510.140129 
L 546.196977 510.126777 
L 546.196977 510.105762 
L 545.223769 510.042537 
L 545.223769 509.996638 
L 545.223769 509.615349 
L 545.029128 509.615947 
L 545.029128 509.504845 
L 545.029128 509.476493 
L 544.445203 509.461108 
L 544.445203 509.367347 
L 544.445203 509.113783 
L 542.304146 509.122627 
L 542.304146 509.011516 
L 542.304146 508.48597 
L 541.52558 508.465976 
L 541.52558 508.379126 
L 541.52558 508.235065 
L 541.330939 508.236234 
L 541.330939 508.125129 
L 541.330939 508.026307 
L 540.357731 507.926903 
L 540.357731 507.921521 
L 540.357731 507.745332 
L 539.773806 507.74945 
L 539.773806 507.638373 
L 539.773806 507.490441 
L 539.384523 507.493398 
L 539.384523 507.382307 
L 539.384523 507.307026 
L 538.99524 507.310136 
L 538.99524 507.199036 
L 538.99524 506.424707 
L 538.800599 506.426624 
L 538.800599 506.315553 
L 538.800599 505.99223 
L 538.216674 505.998514 
L 538.216674 505.88751 
L 538.216674 505.655355 
L 537.632749 505.662058 
L 537.632749 505.550948 
L 537.632749 505.514273 
L 537.438108 505.516568 
L 537.438108 505.405473 
L 537.438108 505.361202 
L 536.4649 505.310668 
L 536.4649 505.261888 
L 536.4649 491.390693 
L 534.713126 491.461725 
L 534.713126 491.350644 
L 534.713126 490.198305 
L 532.766711 490.282103 
L 532.766711 490.171495 
L 532.766711 489.323678 
L 532.572069 489.332427 
L 532.572069 489.22278 
L 532.572069 478.014751 
L 532.377428 478.027712 
L 532.377428 477.917283 
L 532.377428 394.906137 
L 531.40422 395.089809 
L 531.40422 394.978546 
L 531.40422 203.820315 
L 531.209579 203.863737 
L 531.209579 197.492993 
L 531.014937 197.535505 
L 531.014937 155.190222 
L 530.236371 155.328083 
L 530.236371 137.338809 
L 529.847088 137.398986 
L 529.847088 114.31738 
L 529.457805 114.364479 
L 529.457805 106.672848 
L 529.263163 106.694011 
L 529.263163 104.266207 
L 528.679239 104.327439 
L 528.679239 98.122287 
L 528.095314 98.177487 
L 528.095314 94.198134 
L 527.706031 94.23229 
L 527.706031 93.910403 
L 527.122106 93.961402 
L 527.122106 90.383818 
L 526.34354 90.446998 
L 526.34354 89.294141 
L 525.175691 89.386829 
L 525.175691 87.55846 
L 524.397125 87.617877 
L 524.397125 86.780343 
L 524.202483 86.794924 
L 524.202483 85.785134 
L 524.007842 85.799361 
L 524.007842 84.105035 
L 523.423917 84.145927 
L 523.423917 83.292751 
L 523.229276 83.30609 
L 523.229276 77.586325 
L 522.645351 77.619981 
L 522.645351 76.385568 
L 521.28286 76.461117 
L 521.28286 75.750673 
L 518.947162 75.877907 
L 518.947162 75.341069 
L 514.470407 75.583655 
L 514.470407 73.768351 
L 513.302557 73.828114 
L 513.302557 73.279269 
L 512.32935 73.328213 
L 512.32935 73.144595 
L 511.1615 73.203161 
L 511.1615 73.018949 
L 508.436519 73.155727 
L 508.436519 72.59905 
L 507.074028 72.666481 
L 507.074028 71.358356 
L 505.322254 71.440868 
L 505.322254 70.687102 
L 505.127613 70.696001 
L 505.127613 69.370129 
L 502.013348 69.504818 
L 502.013348 69.313497 
L 501.818707 69.321898 
L 501.818707 68.554632 
L 499.67765 68.644004 
L 499.67765 68.450887 
L 490.140214 68.85561 
L 490.140214 68.460771 
L 480.408137 68.883786 
L 480.408137 68.68178 
L 477.293873 68.819831 
L 477.293873 68.208418 
L 474.179608 68.344171 
L 474.179608 68.138536 
L 465.420739 68.52718 
L 465.420739 68.317143 
L 463.279682 68.413626 
L 463.279682 68.202332 
L 460.165418 68.342935 
L 460.165418 68.129878 
L 452.574398 68.477935 
L 452.574398 67.607965 
L 451.211907 67.668975 
L 451.211907 67.450225 
L 448.486925 67.572055 
L 448.486925 67.130978 
L 446.151227 67.234219 
L 446.151227 67.012077 
L 445.567302 67.03776 
L 445.567302 66.815073 
L 444.983378 66.840511 
L 444.983378 66.617278 
L 444.204812 66.650882 
L 444.204812 65.978531 
L 438.94949 66.200022 
L 438.94949 65.972464 
L 431.163829 66.307498 
L 431.163829 65.842503 
L 427.465639 66.002105 
L 427.465639 65.766989 
L 426.881715 65.792123 
L 426.881715 65.084201 
L 421.23711 65.320688 
L 421.23711 64.840349 
L 404.887221 65.547031 
L 404.887221 65.295462 
L 399.047975 65.560185 
L 399.047975 64.534244 
L 387.758766 65.038644 
L 387.758766 64.772829 
L 383.476652 64.969981 
L 383.476652 64.700431 
L 368.878537 65.401429 
L 368.878537 64.83657 
L 364.596423 65.047293 
L 364.596423 64.760458 
L 353.307214 65.334946 
L 353.307214 64.439885 
L 348.635817 64.676737 
L 348.635817 64.372858 
L 334.037701 65.149766 
L 334.037701 64.509069 
L 325.473474 64.984854 
L 325.473474 64.653681 
L 318.66102 65.046389 
L 318.66102 63.682387 
L 300.170074 64.759236 
L 300.170074 63.652667 
L 297.055809 63.836519 
L 297.055809 62.709974 
L 291.216563 63.040135 
L 291.216563 62.653898 
L 270.389919 63.946552 
L 254.623954 65.114371 
L 254.623954 64.655091 
L 238.663348 66.01306 
L 233.602668 66.497519 
L 233.602668 65.981768 
L 228.347347 66.500719 
L 228.347347 65.433313 
L 227.374139 65.526916 
L 227.374139 63.90674 
L 213.943873 65.182146 
L 202.070739 66.520585 
L 191.560096 67.918002 
L 182.606585 69.30846 
L 182.606585 68.564745 
L 173.847716 70.091959 
L 171.512018 70.542445 
L 171.512018 69.720556 
L 167.619187 70.487526 
L 167.619187 69.632016 
L 160.612092 71.112547 
L 160.612092 69.26784 
L 153.604996 70.846216 
L 147.571109 72.42748 
L 143.094353 73.764378 
L 137.64439 75.623113 
L 135.892616 76.283723 
L 135.892616 73.784922 
L 135.697975 73.85366 
L 135.697975 72.590014 
L 134.919409 72.855012 
L 134.919409 71.569909 
L 130.248012 73.208055 
L 127.133747 74.445282 
L 127.133747 72.989849 
L 124.019483 74.288842 
L 119.542727 76.435166 
L 115.844538 78.515936 
L 112.535632 80.675556 
L 109.616009 82.871472 
L 109.616009 78.754129 
L 106.696386 80.994135 
L 103.776763 83.611669 
L 102.21963 85.19656 
L 99.883932 87.874826 
L 97.15895 91.563641 
L 96.964309 91.854767 
L 96.964309 82.871472 
L 93.655403 87.423982 
L 91.708987 90.741792 
L 89.373289 95.590394 
L 88.400081 97.968397 
L 86.453666 103.55394 
L 85.285817 107.575531 
L 83.728684 113.980287 
L 81.003703 129.440043 
L 80.030495 136.940733 
L 79.446571 142.161214 
L 79.446571 134.632358 
L 78.668004 142.161214 
L 78.08408 148.748963 
L 75.55374 193.045896 
L 74.775174 215.944003 
L 74.191249 238.581904 
L 74.191249 158.436829 
L 73.412683 191.822706 
L 73.412683 133.776806 
L 72.244834 234.3897 
L 72.244834 49.932727 
L 71.660909 49.932727 
L 71.660909 49.932727 
" clip-path="url(#pebd33ec2eb)" style="fill: none; stroke: #1f77b4; stroke-width: 1.5; stroke-linecap: square"/>
   </g>
   <g id="line2d_26">
    <path d="M 550.479091 510.844588 
L 550.479091 510.772105 
L 502.597273 510.72949 
L 502.597273 510.691283 
L 502.597273 510.482516 
L 478.656364 510.515401 
L 478.656364 510.404321 
L 478.656364 510.301278 
L 430.774545 510.362861 
L 430.774545 510.28109 
L 430.774545 509.748004 
L 382.892727 509.859905 
L 382.892727 509.813617 
L 382.892727 508.936433 
L 358.951818 509.100246 
L 358.951818 508.989329 
L 358.951818 508.472286 
L 335.010909 508.688069 
L 335.010909 508.577589 
L 335.010909 148.748963 
L 311.07 156.350212 
L 287.129091 165.218335 
L 287.129091 133.776806 
L 263.188182 142.161214 
L 263.188182 101.170775 
L 239.247273 107.575531 
L 215.306364 115.810218 
L 191.365455 126.789799 
L 167.424545 142.161214 
L 167.424545 49.932727 
L 71.660909 49.932727 
L 71.660909 49.932727 
" clip-path="url(#pebd33ec2eb)" style="fill: none; stroke: #ff7f0e; stroke-width: 1.5; stroke-linecap: square"/>
   </g>
   <g id="line2d_27">
    <path d="M 550.479091 510.864352 
L 550.479091 510.831362 
L 490.626818 510.856045 
L 490.626818 510.750721 
L 490.626818 510.538189 
L 460.700682 510.576503 
L 460.700682 510.465431 
L 460.700682 510.252708 
L 430.774545 510.315869 
L 430.774545 510.204806 
L 430.774545 509.346416 
L 370.922273 509.559739 
L 370.922273 509.522491 
L 370.922273 509.465025 
L 340.996136 509.625533 
L 340.996136 509.514903 
L 340.996136 508.673376 
L 311.07 508.939005 
L 311.07 508.828424 
L 311.07 49.932727 
L 71.660909 49.932727 
L 71.660909 49.932727 
" clip-path="url(#pebd33ec2eb)" style="fill: none; stroke: #2ca02c; stroke-width: 1.5; stroke-linecap: square"/>
   </g>
   <g id="line2d_28">
    <path d="M 550.479091 510.921445 
L 550.479091 510.816367 
L 502.597273 510.842233 
L 502.597273 510.731138 
L 502.597273 510.616159 
L 454.715455 510.667114 
L 454.715455 510.556074 
L 454.715455 510.376591 
L 406.833636 510.463797 
L 406.833636 510.352689 
L 406.833636 510.092811 
L 358.951818 510.23289 
L 358.951818 510.122058 
L 358.951818 509.751939 
L 311.07 509.971948 
L 311.07 509.860988 
L 311.07 49.932727 
L 71.660909 49.932727 
L 71.660909 49.932727 
" clip-path="url(#pebd33ec2eb)" style="fill: none; stroke: #d62728; stroke-width: 1.5; stroke-linecap: square"/>
   </g>
   <g id="line2d_29">
    <path d="M 550.479091 510.660131 
L 550.479091 510.44563 
L 515.011077 510.47906 
L 515.011077 510.381128 
L 515.011077 510.321117 
L 497.277071 510.351231 
L 497.277071 510.240135 
L 497.277071 509.869427 
L 479.543064 509.91954 
L 479.543064 509.808436 
L 479.543064 501.537142 
L 444.075051 502.279527 
L 444.075051 502.239401 
L 444.075051 498.498548 
L 426.341044 499.081858 
L 426.341044 498.971684 
L 426.341044 498.030112 
L 408.607037 498.664811 
L 408.607037 498.558436 
L 408.607037 208.947359 
L 390.87303 214.626453 
L 390.87303 191.822706 
L 373.139024 197.498306 
L 355.405017 203.646871 
L 337.67101 210.330095 
L 319.937003 217.620884 
L 302.202997 225.606035 
L 302.202997 211.332579 
L 284.46899 219.827308 
L 284.46899 203.646871 
L 266.734983 212.68888 
L 249.000976 222.861139 
L 249.000976 203.646871 
L 231.26697 214.626453 
L 213.532963 227.295201 
L 213.532963 175.698845 
L 195.798956 188.275457 
L 178.064949 203.646871 
L 178.064949 115.810218 
L 160.330943 126.789799 
L 160.330943 49.932727 
L 71.660909 49.932727 
L 71.660909 49.932727 
" clip-path="url(#pebd33ec2eb)" style="fill: none; stroke: #9467bd; stroke-width: 1.5; stroke-linecap: square"/>
   </g>
   <g id="line2d_30">
    <path d="M 550.479091 510.964485 
L 550.479091 510.952873 
L 311.07 510.987273 
L 311.07 510.902899 
L 311.07 510.744117 
L 231.26697 510.854412 
L 231.26697 510.743402 
L 231.26697 509.501295 
L 151.463939 510.286882 
L 151.463939 510.176246 
L 151.463939 49.932727 
L 71.660909 49.932727 
L 71.660909 49.932727 
" clip-path="url(#pebd33ec2eb)" style="fill: none; stroke: #8c564b; stroke-width: 1.5; stroke-linecap: square"/>
   </g>
   <g id="line2d_31">
    <path d="M 550.479091 510.867646 
L 550.479091 510.626529 
L 390.87303 510.698101 
L 390.87303 510.664891 
L 390.87303 507.812359 
L 337.67101 508.352949 
L 337.67101 508.242589 
L 337.67101 49.932727 
L 71.660909 49.932727 
L 71.660909 49.932727 
" clip-path="url(#pebd33ec2eb)" style="fill: none; stroke: #e377c2; stroke-width: 1.5; stroke-linecap: square"/>
   </g>
   <g id="line2d_32">
    <path d="M 550.479091 510.75236 
L 550.479091 510.146507 
L 516.277792 510.212715 
L 516.277792 510.101653 
L 516.277792 510.018053 
L 482.076494 510.099197 
L 482.076494 509.9882 
L 482.076494 437.29237 
L 447.875195 442.52696 
L 447.875195 120.877717 
L 413.673896 126.789799 
L 413.673896 91.854767 
L 379.472597 96.046971 
L 379.472597 49.932727 
L 71.660909 49.932727 
L 71.660909 49.932727 
" clip-path="url(#pebd33ec2eb)" style="fill: none; stroke: #7f7f7f; stroke-width: 1.5; stroke-linecap: square"/>
   </g>
   <g id="line2d_33">
    <path d="M 550.479091 510.85996 
L 550.479091 510.758534 
L 482.076494 510.80374 
L 482.076494 510.69268 
L 482.076494 510.307016 
L 413.673896 510.434862 
L 413.673896 510.323869 
L 413.673896 509.30833 
L 345.271299 509.660612 
L 345.271299 509.550722 
L 345.271299 508.330264 
L 276.868701 509.01342 
L 276.868701 508.903374 
L 276.868701 49.932727 
L 71.660909 49.932727 
L 71.660909 49.932727 
" clip-path="url(#pebd33ec2eb)" style="fill: none; stroke: #bcbd22; stroke-width: 1.5; stroke-linecap: square"/>
   </g>
   <g id="line2d_34">
    <path d="M 550.479091 510.583274 
L 550.479091 510.311125 
L 520.552955 510.358803 
L 520.552955 510.247751 
L 520.552955 509.920572 
L 490.626818 509.997364 
L 490.626818 509.886429 
L 490.626818 509.03083 
L 460.700682 509.176252 
L 460.700682 509.065488 
L 460.700682 492.629462 
L 430.774545 493.99581 
L 430.774545 493.889727 
L 430.774545 49.932727 
L 71.660909 49.932727 
L 71.660909 49.932727 
" clip-path="url(#pebd33ec2eb)" style="fill: none; stroke: #17becf; stroke-width: 1.5; stroke-linecap: square"/>
   </g>
   <g id="patch_3">
    <path d="M 47.72 534.04 
L 47.72 26.88 
" style="fill: none; stroke: #000000; stroke-width: 0.8; stroke-linejoin: miter; stroke-linecap: square"/>
   </g>
   <g id="patch_4">
    <path d="M 574.42 534.04 
L 574.42 26.88 
" style="fill: none; stroke: #000000; stroke-width: 0.8; stroke-linejoin: miter; stroke-linecap: square"/>
   </g>
   <g id="patch_5">
    <path d="M 47.72 534.04 
L 574.42 534.04 
" style="fill: none; stroke: #000000; stroke-width: 0.8; stroke-linejoin: miter; stroke-linecap: square"/>
   </g>
   <g id="patch_6">
    <path d="M 47.72 26.88 
L 574.42 26.88 
" style="fill: none; stroke: #000000; stroke-width: 0.8; stroke-linejoin: miter; stroke-linecap: square"/>
   </g>
   <g id="text_15">
    <!-- Donor Precision-Recall Curves by Sequence -->
    <g transform="translate(180.591562 20.88) scale(0.12 -0.12)">
     <defs>
      <path id="DejaVuSans-44" d="M 1259 4147 
L 1259 519 
L 2022 519 
Q 2988 519 3436 956 
Q 3884 1394 3884 2338 
Q 3884 3275 3436 3711 
Q 2988 4147 2022 4147 
L 1259 4147 
z
M 628 4666 
L 1925 4666 
Q 3281 4666 3915 4102 
Q 4550 3538 4550 2338 
Q 4550 1131 3912 565 
Q 3275 0 1925 0 
L 628 0 
L 628 4666 
z
" transform="scale(0.015625)"/>
      <path id="DejaVuSans-20" transform="scale(0.015625)"/>
      <path id="DejaVuSans-2d" d="M 313 2009 
L 1997 2009 
L 1997 1497 
L 313 1497 
L 313 2009 
z
" transform="scale(0.015625)"/>
      <path id="DejaVuSans-43" d="M 4122 4306 
L 4122 3641 
Q 3803 3938 3442 4084 
Q 3081 4231 2675 4231 
Q 1875 4231 1450 3742 
Q 1025 3253 1025 2328 
Q 1025 1406 1450 917 
Q 1875 428 2675 428 
Q 3081 428 3442 575 
Q 3803 722 4122 1019 
L 4122 359 
Q 3791 134 3420 21 
Q 3050 -91 2638 -91 
Q 1578 -91 968 557 
Q 359 1206 359 2328 
Q 359 3453 968 4101 
Q 1578 4750 2638 4750 
Q 3056 4750 3426 4639 
Q 3797 4528 4122 4306 
z
" transform="scale(0.015625)"/>
      <path id="DejaVuSans-75" d="M 544 1381 
L 544 3500 
L 1119 3500 
L 1119 1403 
Q 1119 906 1312 657 
Q 1506 409 1894 409 
Q 2359 409 2629 706 
Q 2900 1003 2900 1516 
L 2900 3500 
L 3475 3500 
L 3475 0 
L 2900 0 
L 2900 538 
Q 2691 219 2414 64 
Q 2138 -91 1772 -91 
Q 1169 -91 856 284 
Q 544 659 544 1381 
z
M 1991 3584 
L 1991 3584 
z
" transform="scale(0.015625)"/>
      <path id="DejaVuSans-76" d="M 191 3500 
L 800 3500 
L 1894 563 
L 2988 3500 
L 3597 3500 
L 2284 0 
L 1503 0 
L 191 3500 
z
" transform="scale(0.015625)"/>
      <path id="DejaVuSans-62" d="M 3116 1747 
Q 3116 2381 2855 2742 
Q 2594 3103 2138 3103 
Q 1681 3103 1420 2742 
Q 1159 2381 1159 1747 
Q 1159 1113 1420 752 
Q 1681 391 2138 391 
Q 2594 391 2855 752 
Q 3116 1113 3116 1747 
z
M 1159 2969 
Q 1341 3281 1617 3432 
Q 1894 3584 2278 3584 
Q 2916 3584 3314 3078 
Q 3713 2572 3713 1747 
Q 3713 922 3314 415 
Q 2916 -91 2278 -91 
Q 1894 -91 1617 61 
Q 1341 213 1159 525 
L 1159 0 
L 581 0 
L 581 4863 
L 1159 4863 
L 1159 2969 
z
" transform="scale(0.015625)"/>
      <path id="DejaVuSans-79" d="M 2059 -325 
Q 1816 -950 1584 -1140 
Q 1353 -1331 966 -1331 
L 506 -1331 
L 506 -850 
L 844 -850 
Q 1081 -850 1212 -737 
Q 1344 -625 1503 -206 
L 1606 56 
L 191 3500 
L 800 3500 
L 1894 763 
L 2988 3500 
L 3597 3500 
L 2059 -325 
z
" transform="scale(0.015625)"/>
      <path id="DejaVuSans-53" d="M 3425 4513 
L 3425 3897 
Q 3066 4069 2747 4153 
Q 2428 4238 2131 4238 
Q 1616 4238 1336 4038 
Q 1056 3838 1056 3469 
Q 1056 3159 1242 3001 
Q 1428 2844 1947 2747 
L 2328 2669 
Q 3034 2534 3370 2195 
Q 3706 1856 3706 1288 
Q 3706 609 3251 259 
Q 2797 -91 1919 -91 
Q 1588 -91 1214 -16 
Q 841 59 441 206 
L 441 856 
Q 825 641 1194 531 
Q 1563 422 1919 422 
Q 2459 422 2753 634 
Q 3047 847 3047 1241 
Q 3047 1584 2836 1778 
Q 2625 1972 2144 2069 
L 1759 2144 
Q 1053 2284 737 2584 
Q 422 2884 422 3419 
Q 422 4038 858 4394 
Q 1294 4750 2059 4750 
Q 2388 4750 2728 4690 
Q 3069 4631 3425 4513 
z
" transform="scale(0.015625)"/>
      <path id="DejaVuSans-71" d="M 947 1747 
Q 947 1113 1208 752 
Q 1469 391 1925 391 
Q 2381 391 2643 752 
Q 2906 1113 2906 1747 
Q 2906 2381 2643 2742 
Q 2381 3103 1925 3103 
Q 1469 3103 1208 2742 
Q 947 2381 947 1747 
z
M 2906 525 
Q 2725 213 2448 61 
Q 2172 -91 1784 -91 
Q 1150 -91 751 415 
Q 353 922 353 1747 
Q 353 2572 751 3078 
Q 1150 3584 1784 3584 
Q 2172 3584 2448 3432 
Q 2725 3281 2906 2969 
L 2906 3500 
L 3481 3500 
L 3481 -1331 
L 2906 -1331 
L 2906 525 
z
" transform="scale(0.015625)"/>
     </defs>
     <use xlink:href="#DejaVuSans-44"/>
     <use xlink:href="#DejaVuSans-6f" transform="translate(77.001953 0)"/>
     <use xlink:href="#DejaVuSans-6e" transform="translate(138.183594 0)"/>
     <use xlink:href="#DejaVuSans-6f" transform="translate(201.5625 0)"/>
     <use xlink:href="#DejaVuSans-72" transform="translate(262.744141 0)"/>
     <use xlink:href="#DejaVuSans-20" transform="translate(303.857422 0)"/>
     <use xlink:href="#DejaVuSans-50" transform="translate(335.644531 0)"/>
     <use xlink:href="#DejaVuSans-72" transform="translate(394.197266 0)"/>
     <use xlink:href="#DejaVuSans-65" transform="translate(433.060547 0)"/>
     <use xlink:href="#DejaVuSans-63" transform="translate(494.583984 0)"/>
     <use xlink:href="#DejaVuSans-69" transform="translate(549.564453 0)"/>
     <use xlink:href="#DejaVuSans-73" transform="translate(577.347656 0)"/>
     <use xlink:href="#DejaVuSans-69" transform="translate(629.447266 0)"/>
     <use xlink:href="#DejaVuSans-6f" transform="translate(657.230469 0)"/>
     <use xlink:href="#DejaVuSans-6e" transform="translate(718.412109 0)"/>
     <use xlink:href="#DejaVuSans-2d" transform="translate(781.791016 0)"/>
     <use xlink:href="#DejaVuSans-52" transform="translate(817.875 0)"/>
     <use xlink:href="#DejaVuSans-65" transform="translate(882.857422 0)"/>
     <use xlink:href="#DejaVuSans-63" transform="translate(944.380859 0)"/>
     <use xlink:href="#DejaVuSans-61" transform="translate(999.361328 0)"/>
     <use xlink:href="#DejaVuSans-6c" transform="translate(1060.640625 0)"/>
     <use xlink:href="#DejaVuSans-6c" transform="translate(1088.423828 0)"/>
     <use xlink:href="#DejaVuSans-20" transform="translate(1116.207031 0)"/>
     <use xlink:href="#DejaVuSans-43" transform="translate(1147.994141 0)"/>
     <use xlink:href="#DejaVuSans-75" transform="translate(1217.818359 0)"/>
     <use xlink:href="#DejaVuSans-72" transform="translate(1281.197266 0)"/>
     <use xlink:href="#DejaVuSans-76" transform="translate(1322.310547 0)"/>
     <use xlink:href="#DejaVuSans-65" transform="translate(1381.490234 0)"/>
     <use xlink:href="#DejaVuSans-73" transform="translate(1443.013672 0)"/>
     <use xlink:href="#DejaVuSans-20" transform="translate(1495.113281 0)"/>
     <use xlink:href="#DejaVuSans-62" transform="translate(1526.900391 0)"/>
     <use xlink:href="#DejaVuSans-79" transform="translate(1590.376953 0)"/>
     <use xlink:href="#DejaVuSans-20" transform="translate(1649.556641 0)"/>
     <use xlink:href="#DejaVuSans-53" transform="translate(1681.34375 0)"/>
     <use xlink:href="#DejaVuSans-65" transform="translate(1744.820312 0)"/>
     <use xlink:href="#DejaVuSans-71" transform="translate(1806.34375 0)"/>
     <use xlink:href="#DejaVuSans-75" transform="translate(1869.820312 0)"/>
     <use xlink:href="#DejaVuSans-65" transform="translate(1933.199219 0)"/>
     <use xlink:href="#DejaVuSans-6e" transform="translate(1994.722656 0)"/>
     <use xlink:href="#DejaVuSans-63" transform="translate(2058.101562 0)"/>
     <use xlink:href="#DejaVuSans-65" transform="translate(2113.082031 0)"/>
    </g>
   </g>
   <g id="legend_1">
    <g id="patch_7">
     <path d="M 607.755 181.66125 
L 844.462812 181.66125 
Q 846.462812 181.66125 846.462812 179.66125 
L 846.462812 33.88 
Q 846.462812 31.88 844.462812 31.88 
L 607.755 31.88 
Q 605.755 31.88 605.755 33.88 
L 605.755 179.66125 
Q 605.755 181.66125 607.755 181.66125 
z
" style="fill: #ffffff; opacity: 0.8; stroke: #cccccc; stroke-linejoin: miter"/>
    </g>
    <g id="line2d_35">
     <path d="M 609.755 39.978438 
L 619.755 39.978438 
L 629.755 39.978438 
" style="fill: none; stroke: #1f77b4; stroke-width: 1.5; stroke-linecap: square"/>
    </g>
    <g id="text_16">
     <!-- GT (AUPRC=0.916, n=714), topk=0.942) -->
     <g transform="translate(637.755 43.478438) scale(0.1 -0.1)">
      <defs>
       <path id="DejaVuSans-47" d="M 3809 666 
L 3809 1919 
L 2778 1919 
L 2778 2438 
L 4434 2438 
L 4434 434 
Q 4069 175 3628 42 
Q 3188 -91 2688 -91 
Q 1594 -91 976 548 
Q 359 1188 359 2328 
Q 359 3472 976 4111 
Q 1594 4750 2688 4750 
Q 3144 4750 3555 4637 
Q 3966 4525 4313 4306 
L 4313 3634 
Q 3963 3931 3569 4081 
Q 3175 4231 2741 4231 
Q 1884 4231 1454 3753 
Q 1025 3275 1025 2328 
Q 1025 1384 1454 906 
Q 1884 428 2741 428 
Q 3075 428 3337 486 
Q 3600 544 3809 666 
z
" transform="scale(0.015625)"/>
       <path id="DejaVuSans-54" d="M -19 4666 
L 3928 4666 
L 3928 4134 
L 2272 4134 
L 2272 0 
L 1638 0 
L 1638 4134 
L -19 4134 
L -19 4666 
z
" transform="scale(0.015625)"/>
       <path id="DejaVuSans-28" d="M 1984 4856 
Q 1566 4138 1362 3434 
Q 1159 2731 1159 2009 
Q 1159 1288 1364 580 
Q 1569 -128 1984 -844 
L 1484 -844 
Q 1016 -109 783 600 
Q 550 1309 550 2009 
Q 550 2706 781 3412 
Q 1013 4119 1484 4856 
L 1984 4856 
z
" transform="scale(0.015625)"/>
       <path id="DejaVuSans-41" d="M 2188 4044 
L 1331 1722 
L 3047 1722 
L 2188 4044 
z
M 1831 4666 
L 2547 4666 
L 4325 0 
L 3669 0 
L 3244 1197 
L 1141 1197 
L 716 0 
L 50 0 
L 1831 4666 
z
" transform="scale(0.015625)"/>
       <path id="DejaVuSans-55" d="M 556 4666 
L 1191 4666 
L 1191 1831 
Q 1191 1081 1462 751 
Q 1734 422 2344 422 
Q 2950 422 3222 751 
Q 3494 1081 3494 1831 
L 3494 4666 
L 4128 4666 
L 4128 1753 
Q 4128 841 3676 375 
Q 3225 -91 2344 -91 
Q 1459 -91 1007 375 
Q 556 841 556 1753 
L 556 4666 
z
" transform="scale(0.015625)"/>
       <path id="DejaVuSans-3d" d="M 678 2906 
L 4684 2906 
L 4684 2381 
L 678 2381 
L 678 2906 
z
M 678 1631 
L 4684 1631 
L 4684 1100 
L 678 1100 
L 678 1631 
z
" transform="scale(0.015625)"/>
       <path id="DejaVuSans-39" d="M 703 97 
L 703 672 
Q 941 559 1184 500 
Q 1428 441 1663 441 
Q 2288 441 2617 861 
Q 2947 1281 2994 2138 
Q 2813 1869 2534 1725 
Q 2256 1581 1919 1581 
Q 1219 1581 811 2004 
Q 403 2428 403 3163 
Q 403 3881 828 4315 
Q 1253 4750 1959 4750 
Q 2769 4750 3195 4129 
Q 3622 3509 3622 2328 
Q 3622 1225 3098 567 
Q 2575 -91 1691 -91 
Q 1453 -91 1209 -44 
Q 966 3 703 97 
z
M 1959 2075 
Q 2384 2075 2632 2365 
Q 2881 2656 2881 3163 
Q 2881 3666 2632 3958 
Q 2384 4250 1959 4250 
Q 1534 4250 1286 3958 
Q 1038 3666 1038 3163 
Q 1038 2656 1286 2365 
Q 1534 2075 1959 2075 
z
" transform="scale(0.015625)"/>
       <path id="DejaVuSans-2c" d="M 750 794 
L 1409 794 
L 1409 256 
L 897 -744 
L 494 -744 
L 750 256 
L 750 794 
z
" transform="scale(0.015625)"/>
       <path id="DejaVuSans-37" d="M 525 4666 
L 3525 4666 
L 3525 4397 
L 1831 0 
L 1172 0 
L 2766 4134 
L 525 4134 
L 525 4666 
z
" transform="scale(0.015625)"/>
       <path id="DejaVuSans-29" d="M 513 4856 
L 1013 4856 
Q 1481 4119 1714 3412 
Q 1947 2706 1947 2009 
Q 1947 1309 1714 600 
Q 1481 -109 1013 -844 
L 513 -844 
Q 928 -128 1133 580 
Q 1338 1288 1338 2009 
Q 1338 2731 1133 3434 
Q 928 4138 513 4856 
z
" transform="scale(0.015625)"/>
       <path id="DejaVuSans-74" d="M 1172 4494 
L 1172 3500 
L 2356 3500 
L 2356 3053 
L 1172 3053 
L 1172 1153 
Q 1172 725 1289 603 
Q 1406 481 1766 481 
L 2356 481 
L 2356 0 
L 1766 0 
Q 1100 0 847 248 
Q 594 497 594 1153 
L 594 3053 
L 172 3053 
L 172 3500 
L 594 3500 
L 594 4494 
L 1172 4494 
z
" transform="scale(0.015625)"/>
       <path id="DejaVuSans-70" d="M 1159 525 
L 1159 -1331 
L 581 -1331 
L 581 3500 
L 1159 3500 
L 1159 2969 
Q 1341 3281 1617 3432 
Q 1894 3584 2278 3584 
Q 2916 3584 3314 3078 
Q 3713 2572 3713 1747 
Q 3713 922 3314 415 
Q 2916 -91 2278 -91 
Q 1894 -91 1617 61 
Q 1341 213 1159 525 
z
M 3116 1747 
Q 3116 2381 2855 2742 
Q 2594 3103 2138 3103 
Q 1681 3103 1420 2742 
Q 1159 2381 1159 1747 
Q 1159 1113 1420 752 
Q 1681 391 2138 391 
Q 2594 391 2855 752 
Q 3116 1113 3116 1747 
z
" transform="scale(0.015625)"/>
       <path id="DejaVuSans-6b" d="M 581 4863 
L 1159 4863 
L 1159 1991 
L 2875 3500 
L 3609 3500 
L 1753 1863 
L 3688 0 
L 2938 0 
L 1159 1709 
L 1159 0 
L 581 0 
L 581 4863 
z
" transform="scale(0.015625)"/>
      </defs>
      <use xlink:href="#DejaVuSans-47"/>
      <use xlink:href="#DejaVuSans-54" transform="translate(73.865234 0)"/>
      <use xlink:href="#DejaVuSans-20" transform="translate(134.949219 0)"/>
      <use xlink:href="#DejaVuSans-28" transform="translate(166.736328 0)"/>
      <use xlink:href="#DejaVuSans-41" transform="translate(205.75 0)"/>
      <use xlink:href="#DejaVuSans-55" transform="translate(274.158203 0)"/>
      <use xlink:href="#DejaVuSans-50" transform="translate(347.351562 0)"/>
      <use xlink:href="#DejaVuSans-52" transform="translate(407.654297 0)"/>
      <use xlink:href="#DejaVuSans-43" transform="translate(472.136719 0)"/>
      <use xlink:href="#DejaVuSans-3d" transform="translate(541.960938 0)"/>
      <use xlink:href="#DejaVuSans-30" transform="translate(625.75 0)"/>
      <use xlink:href="#DejaVuSans-2e" transform="translate(689.373047 0)"/>
      <use xlink:href="#DejaVuSans-39" transform="translate(721.160156 0)"/>
      <use xlink:href="#DejaVuSans-31" transform="translate(784.783203 0)"/>
      <use xlink:href="#DejaVuSans-36" transform="translate(848.40625 0)"/>
      <use xlink:href="#DejaVuSans-2c" transform="translate(912.029297 0)"/>
      <use xlink:href="#DejaVuSans-20" transform="translate(943.816406 0)"/>
      <use xlink:href="#DejaVuSans-6e" transform="translate(975.603516 0)"/>
      <use xlink:href="#DejaVuSans-3d" transform="translate(1038.982422 0)"/>
      <use xlink:href="#DejaVuSans-37" transform="translate(1122.771484 0)"/>
      <use xlink:href="#DejaVuSans-31" transform="translate(1186.394531 0)"/>
      <use xlink:href="#DejaVuSans-34" transform="translate(1250.017578 0)"/>
      <use xlink:href="#DejaVuSans-29" transform="translate(1313.640625 0)"/>
      <use xlink:href="#DejaVuSans-2c" transform="translate(1352.654297 0)"/>
      <use xlink:href="#DejaVuSans-20" transform="translate(1384.441406 0)"/>
      <use xlink:href="#DejaVuSans-74" transform="translate(1416.228516 0)"/>
      <use xlink:href="#DejaVuSans-6f" transform="translate(1455.4375 0)"/>
      <use xlink:href="#DejaVuSans-70" transform="translate(1516.619141 0)"/>
      <use xlink:href="#DejaVuSans-6b" transform="translate(1580.095703 0)"/>
      <use xlink:href="#DejaVuSans-3d" transform="translate(1638.005859 0)"/>
      <use xlink:href="#DejaVuSans-30" transform="translate(1721.794922 0)"/>
      <use xlink:href="#DejaVuSans-2e" transform="translate(1785.417969 0)"/>
      <use xlink:href="#DejaVuSans-39" transform="translate(1817.205078 0)"/>
      <use xlink:href="#DejaVuSans-34" transform="translate(1880.828125 0)"/>
      <use xlink:href="#DejaVuSans-32" transform="translate(1944.451172 0)"/>
      <use xlink:href="#DejaVuSans-29" transform="translate(2008.074219 0)"/>
     </g>
    </g>
    <g id="line2d_36">
     <path d="M 609.755 54.656563 
L 619.755 54.656563 
L 629.755 54.656563 
" style="fill: none; stroke: #ff7f0e; stroke-width: 1.5; stroke-linecap: square"/>
    </g>
    <g id="text_17">
     <!-- TG (AUPRC=0.489, n=8), topk=0.550) -->
     <g transform="translate(637.755 58.156563) scale(0.1 -0.1)">
      <defs>
       <path id="DejaVuSans-35" d="M 691 4666 
L 3169 4666 
L 3169 4134 
L 1269 4134 
L 1269 2991 
Q 1406 3038 1543 3061 
Q 1681 3084 1819 3084 
Q 2600 3084 3056 2656 
Q 3513 2228 3513 1497 
Q 3513 744 3044 326 
Q 2575 -91 1722 -91 
Q 1428 -91 1123 -41 
Q 819 9 494 109 
L 494 744 
Q 775 591 1075 516 
Q 1375 441 1709 441 
Q 2250 441 2565 725 
Q 2881 1009 2881 1497 
Q 2881 1984 2565 2268 
Q 2250 2553 1709 2553 
Q 1456 2553 1204 2497 
Q 953 2441 691 2322 
L 691 4666 
z
" transform="scale(0.015625)"/>
      </defs>
      <use xlink:href="#DejaVuSans-54"/>
      <use xlink:href="#DejaVuSans-47" transform="translate(61.083984 0)"/>
      <use xlink:href="#DejaVuSans-20" transform="translate(138.574219 0)"/>
      <use xlink:href="#DejaVuSans-28" transform="translate(170.361328 0)"/>
      <use xlink:href="#DejaVuSans-41" transform="translate(209.375 0)"/>
      <use xlink:href="#DejaVuSans-55" transform="translate(277.783203 0)"/>
      <use xlink:href="#DejaVuSans-50" transform="translate(350.976562 0)"/>
      <use xlink:href="#DejaVuSans-52" transform="translate(411.279297 0)"/>
      <use xlink:href="#DejaVuSans-43" transform="translate(475.761719 0)"/>
      <use xlink:href="#DejaVuSans-3d" transform="translate(545.585938 0)"/>
      <use xlink:href="#DejaVuSans-30" transform="translate(629.375 0)"/>
      <use xlink:href="#DejaVuSans-2e" transform="translate(692.998047 0)"/>
      <use xlink:href="#DejaVuSans-34" transform="translate(724.785156 0)"/>
      <use xlink:href="#DejaVuSans-38" transform="translate(788.408203 0)"/>
      <use xlink:href="#DejaVuSans-39" transform="translate(852.03125 0)"/>
      <use xlink:href="#DejaVuSans-2c" transform="translate(915.654297 0)"/>
      <use xlink:href="#DejaVuSans-20" transform="translate(947.441406 0)"/>
      <use xlink:href="#DejaVuSans-6e" transform="translate(979.228516 0)"/>
      <use xlink:href="#DejaVuSans-3d" transform="translate(1042.607422 0)"/>
      <use xlink:href="#DejaVuSans-38" transform="translate(1126.396484 0)"/>
      <use xlink:href="#DejaVuSans-29" transform="translate(1190.019531 0)"/>
      <use xlink:href="#DejaVuSans-2c" transform="translate(1229.033203 0)"/>
      <use xlink:href="#DejaVuSans-20" transform="translate(1260.820312 0)"/>
      <use xlink:href="#DejaVuSans-74" transform="translate(1292.607422 0)"/>
      <use xlink:href="#DejaVuSans-6f" transform="translate(1331.816406 0)"/>
      <use xlink:href="#DejaVuSans-70" transform="translate(1392.998047 0)"/>
      <use xlink:href="#DejaVuSans-6b" transform="translate(1456.474609 0)"/>
      <use xlink:href="#DejaVuSans-3d" transform="translate(1514.384766 0)"/>
      <use xlink:href="#DejaVuSans-30" transform="translate(1598.173828 0)"/>
      <use xlink:href="#DejaVuSans-2e" transform="translate(1661.796875 0)"/>
      <use xlink:href="#DejaVuSans-35" transform="translate(1693.583984 0)"/>
      <use xlink:href="#DejaVuSans-35" transform="translate(1757.207031 0)"/>
      <use xlink:href="#DejaVuSans-30" transform="translate(1820.830078 0)"/>
      <use xlink:href="#DejaVuSans-29" transform="translate(1884.453125 0)"/>
     </g>
    </g>
    <g id="line2d_37">
     <path d="M 609.755 69.334688 
L 619.755 69.334688 
L 629.755 69.334688 
" style="fill: none; stroke: #2ca02c; stroke-width: 1.5; stroke-linecap: square"/>
    </g>
    <g id="text_18">
     <!-- TT (AUPRC=0.501, n=7), topk=0.500) -->
     <g transform="translate(637.755 72.834688) scale(0.1 -0.1)">
      <use xlink:href="#DejaVuSans-54"/>
      <use xlink:href="#DejaVuSans-54" transform="translate(59.333984 0)"/>
      <use xlink:href="#DejaVuSans-20" transform="translate(120.417969 0)"/>
      <use xlink:href="#DejaVuSans-28" transform="translate(152.205078 0)"/>
      <use xlink:href="#DejaVuSans-41" transform="translate(191.21875 0)"/>
      <use xlink:href="#DejaVuSans-55" transform="translate(259.626953 0)"/>
      <use xlink:href="#DejaVuSans-50" transform="translate(332.820312 0)"/>
      <use xlink:href="#DejaVuSans-52" transform="translate(393.123047 0)"/>
      <use xlink:href="#DejaVuSans-43" transform="translate(457.605469 0)"/>
      <use xlink:href="#DejaVuSans-3d" transform="translate(527.429688 0)"/>
      <use xlink:href="#DejaVuSans-30" transform="translate(611.21875 0)"/>
      <use xlink:href="#DejaVuSans-2e" transform="translate(674.841797 0)"/>
      <use xlink:href="#DejaVuSans-35" transform="translate(706.628906 0)"/>
      <use xlink:href="#DejaVuSans-30" transform="translate(770.251953 0)"/>
      <use xlink:href="#DejaVuSans-31" transform="translate(833.875 0)"/>
      <use xlink:href="#DejaVuSans-2c" transform="translate(897.498047 0)"/>
      <use xlink:href="#DejaVuSans-20" transform="translate(929.285156 0)"/>
      <use xlink:href="#DejaVuSans-6e" transform="translate(961.072266 0)"/>
      <use xlink:href="#DejaVuSans-3d" transform="translate(1024.451172 0)"/>
      <use xlink:href="#DejaVuSans-37" transform="translate(1108.240234 0)"/>
      <use xlink:href="#DejaVuSans-29" transform="translate(1171.863281 0)"/>
      <use xlink:href="#DejaVuSans-2c" transform="translate(1210.876953 0)"/>
      <use xlink:href="#DejaVuSans-20" transform="translate(1242.664062 0)"/>
      <use xlink:href="#DejaVuSans-74" transform="translate(1274.451172 0)"/>
      <use xlink:href="#DejaVuSans-6f" transform="translate(1313.660156 0)"/>
      <use xlink:href="#DejaVuSans-70" transform="translate(1374.841797 0)"/>
      <use xlink:href="#DejaVuSans-6b" transform="translate(1438.318359 0)"/>
      <use xlink:href="#DejaVuSans-3d" transform="translate(1496.228516 0)"/>
      <use xlink:href="#DejaVuSans-30" transform="translate(1580.017578 0)"/>
      <use xlink:href="#DejaVuSans-2e" transform="translate(1643.640625 0)"/>
      <use xlink:href="#DejaVuSans-35" transform="translate(1675.427734 0)"/>
      <use xlink:href="#DejaVuSans-30" transform="translate(1739.050781 0)"/>
      <use xlink:href="#DejaVuSans-30" transform="translate(1802.673828 0)"/>
      <use xlink:href="#DejaVuSans-29" transform="translate(1866.296875 0)"/>
     </g>
    </g>
    <g id="line2d_38">
     <path d="M 609.755 84.012813 
L 619.755 84.012813 
L 629.755 84.012813 
" style="fill: none; stroke: #d62728; stroke-width: 1.5; stroke-linecap: square"/>
    </g>
    <g id="text_19">
     <!-- GC (AUPRC=0.501, n=6), topk=0.500) -->
     <g transform="translate(637.755 87.512813) scale(0.1 -0.1)">
      <use xlink:href="#DejaVuSans-47"/>
      <use xlink:href="#DejaVuSans-43" transform="translate(77.490234 0)"/>
      <use xlink:href="#DejaVuSans-20" transform="translate(147.314453 0)"/>
      <use xlink:href="#DejaVuSans-28" transform="translate(179.101562 0)"/>
      <use xlink:href="#DejaVuSans-41" transform="translate(218.115234 0)"/>
      <use xlink:href="#DejaVuSans-55" transform="translate(286.523438 0)"/>
      <use xlink:href="#DejaVuSans-50" transform="translate(359.716797 0)"/>
      <use xlink:href="#DejaVuSans-52" transform="translate(420.019531 0)"/>
      <use xlink:href="#DejaVuSans-43" transform="translate(484.501953 0)"/>
      <use xlink:href="#DejaVuSans-3d" transform="translate(554.326172 0)"/>
      <use xlink:href="#DejaVuSans-30" transform="translate(638.115234 0)"/>
      <use xlink:href="#DejaVuSans-2e" transform="translate(701.738281 0)"/>
      <use xlink:href="#DejaVuSans-35" transform="translate(733.525391 0)"/>
      <use xlink:href="#DejaVuSans-30" transform="translate(797.148438 0)"/>
      <use xlink:href="#DejaVuSans-31" transform="translate(860.771484 0)"/>
      <use xlink:href="#DejaVuSans-2c" transform="translate(924.394531 0)"/>
      <use xlink:href="#DejaVuSans-20" transform="translate(956.181641 0)"/>
      <use xlink:href="#DejaVuSans-6e" transform="translate(987.96875 0)"/>
      <use xlink:href="#DejaVuSans-3d" transform="translate(1051.347656 0)"/>
      <use xlink:href="#DejaVuSans-36" transform="translate(1135.136719 0)"/>
      <use xlink:href="#DejaVuSans-29" transform="translate(1198.759766 0)"/>
      <use xlink:href="#DejaVuSans-2c" transform="translate(1237.773438 0)"/>
      <use xlink:href="#DejaVuSans-20" transform="translate(1269.560547 0)"/>
      <use xlink:href="#DejaVuSans-74" transform="translate(1301.347656 0)"/>
      <use xlink:href="#DejaVuSans-6f" transform="translate(1340.556641 0)"/>
      <use xlink:href="#DejaVuSans-70" transform="translate(1401.738281 0)"/>
      <use xlink:href="#DejaVuSans-6b" transform="translate(1465.214844 0)"/>
      <use xlink:href="#DejaVuSans-3d" transform="translate(1523.125 0)"/>
      <use xlink:href="#DejaVuSans-30" transform="translate(1606.914062 0)"/>
      <use xlink:href="#DejaVuSans-2e" transform="translate(1670.537109 0)"/>
      <use xlink:href="#DejaVuSans-35" transform="translate(1702.324219 0)"/>
      <use xlink:href="#DejaVuSans-30" transform="translate(1765.947266 0)"/>
      <use xlink:href="#DejaVuSans-30" transform="translate(1829.570312 0)"/>
      <use xlink:href="#DejaVuSans-29" transform="translate(1893.193359 0)"/>
     </g>
    </g>
    <g id="line2d_39">
     <path d="M 609.755 98.690938 
L 619.755 98.690938 
L 629.755 98.690938 
" style="fill: none; stroke: #9467bd; stroke-width: 1.5; stroke-linecap: square"/>
    </g>
    <g id="text_20">
     <!-- CT (AUPRC=0.537, n=6), topk=0.667) -->
     <g transform="translate(637.755 102.190938) scale(0.1 -0.1)">
      <defs>
       <path id="DejaVuSans-33" d="M 2597 2516 
Q 3050 2419 3304 2112 
Q 3559 1806 3559 1356 
Q 3559 666 3084 287 
Q 2609 -91 1734 -91 
Q 1441 -91 1130 -33 
Q 819 25 488 141 
L 488 750 
Q 750 597 1062 519 
Q 1375 441 1716 441 
Q 2309 441 2620 675 
Q 2931 909 2931 1356 
Q 2931 1769 2642 2001 
Q 2353 2234 1838 2234 
L 1294 2234 
L 1294 2753 
L 1863 2753 
Q 2328 2753 2575 2939 
Q 2822 3125 2822 3475 
Q 2822 3834 2567 4026 
Q 2313 4219 1838 4219 
Q 1578 4219 1281 4162 
Q 984 4106 628 3988 
L 628 4550 
Q 988 4650 1302 4700 
Q 1616 4750 1894 4750 
Q 2613 4750 3031 4423 
Q 3450 4097 3450 3541 
Q 3450 3153 3228 2886 
Q 3006 2619 2597 2516 
z
" transform="scale(0.015625)"/>
      </defs>
      <use xlink:href="#DejaVuSans-43"/>
      <use xlink:href="#DejaVuSans-54" transform="translate(69.824219 0)"/>
      <use xlink:href="#DejaVuSans-20" transform="translate(130.908203 0)"/>
      <use xlink:href="#DejaVuSans-28" transform="translate(162.695312 0)"/>
      <use xlink:href="#DejaVuSans-41" transform="translate(201.708984 0)"/>
      <use xlink:href="#DejaVuSans-55" transform="translate(270.117188 0)"/>
      <use xlink:href="#DejaVuSans-50" transform="translate(343.310547 0)"/>
      <use xlink:href="#DejaVuSans-52" transform="translate(403.613281 0)"/>
      <use xlink:href="#DejaVuSans-43" transform="translate(468.095703 0)"/>
      <use xlink:href="#DejaVuSans-3d" transform="translate(537.919922 0)"/>
      <use xlink:href="#DejaVuSans-30" transform="translate(621.708984 0)"/>
      <use xlink:href="#DejaVuSans-2e" transform="translate(685.332031 0)"/>
      <use xlink:href="#DejaVuSans-35" transform="translate(717.119141 0)"/>
      <use xlink:href="#DejaVuSans-33" transform="translate(780.742188 0)"/>
      <use xlink:href="#DejaVuSans-37" transform="translate(844.365234 0)"/>
      <use xlink:href="#DejaVuSans-2c" transform="translate(907.988281 0)"/>
      <use xlink:href="#DejaVuSans-20" transform="translate(939.775391 0)"/>
      <use xlink:href="#DejaVuSans-6e" transform="translate(971.5625 0)"/>
      <use xlink:href="#DejaVuSans-3d" transform="translate(1034.941406 0)"/>
      <use xlink:href="#DejaVuSans-36" transform="translate(1118.730469 0)"/>
      <use xlink:href="#DejaVuSans-29" transform="translate(1182.353516 0)"/>
      <use xlink:href="#DejaVuSans-2c" transform="translate(1221.367188 0)"/>
      <use xlink:href="#DejaVuSans-20" transform="translate(1253.154297 0)"/>
      <use xlink:href="#DejaVuSans-74" transform="translate(1284.941406 0)"/>
      <use xlink:href="#DejaVuSans-6f" transform="translate(1324.150391 0)"/>
      <use xlink:href="#DejaVuSans-70" transform="translate(1385.332031 0)"/>
      <use xlink:href="#DejaVuSans-6b" transform="translate(1448.808594 0)"/>
      <use xlink:href="#DejaVuSans-3d" transform="translate(1506.71875 0)"/>
      <use xlink:href="#DejaVuSans-30" transform="translate(1590.507812 0)"/>
      <use xlink:href="#DejaVuSans-2e" transform="translate(1654.130859 0)"/>
      <use xlink:href="#DejaVuSans-36" transform="translate(1685.917969 0)"/>
      <use xlink:href="#DejaVuSans-36" transform="translate(1749.541016 0)"/>
      <use xlink:href="#DejaVuSans-37" transform="translate(1813.164062 0)"/>
      <use xlink:href="#DejaVuSans-29" transform="translate(1876.787109 0)"/>
     </g>
    </g>
    <g id="line2d_40">
     <path d="M 609.755 113.369063 
L 619.755 113.369063 
L 629.755 113.369063 
" style="fill: none; stroke: #8c564b; stroke-width: 1.5; stroke-linecap: square"/>
    </g>
    <g id="text_21">
     <!-- CA (AUPRC=0.167, n=5), topk=0.167) -->
     <g transform="translate(637.755 116.869063) scale(0.1 -0.1)">
      <use xlink:href="#DejaVuSans-43"/>
      <use xlink:href="#DejaVuSans-41" transform="translate(69.824219 0)"/>
      <use xlink:href="#DejaVuSans-20" transform="translate(138.232422 0)"/>
      <use xlink:href="#DejaVuSans-28" transform="translate(170.019531 0)"/>
      <use xlink:href="#DejaVuSans-41" transform="translate(209.033203 0)"/>
      <use xlink:href="#DejaVuSans-55" transform="translate(277.441406 0)"/>
      <use xlink:href="#DejaVuSans-50" transform="translate(350.634766 0)"/>
      <use xlink:href="#DejaVuSans-52" transform="translate(410.9375 0)"/>
      <use xlink:href="#DejaVuSans-43" transform="translate(475.419922 0)"/>
      <use xlink:href="#DejaVuSans-3d" transform="translate(545.244141 0)"/>
      <use xlink:href="#DejaVuSans-30" transform="translate(629.033203 0)"/>
      <use xlink:href="#DejaVuSans-2e" transform="translate(692.65625 0)"/>
      <use xlink:href="#DejaVuSans-31" transform="translate(724.443359 0)"/>
      <use xlink:href="#DejaVuSans-36" transform="translate(788.066406 0)"/>
      <use xlink:href="#DejaVuSans-37" transform="translate(851.689453 0)"/>
      <use xlink:href="#DejaVuSans-2c" transform="translate(915.3125 0)"/>
      <use xlink:href="#DejaVuSans-20" transform="translate(947.099609 0)"/>
      <use xlink:href="#DejaVuSans-6e" transform="translate(978.886719 0)"/>
      <use xlink:href="#DejaVuSans-3d" transform="translate(1042.265625 0)"/>
      <use xlink:href="#DejaVuSans-35" transform="translate(1126.054688 0)"/>
      <use xlink:href="#DejaVuSans-29" transform="translate(1189.677734 0)"/>
      <use xlink:href="#DejaVuSans-2c" transform="translate(1228.691406 0)"/>
      <use xlink:href="#DejaVuSans-20" transform="translate(1260.478516 0)"/>
      <use xlink:href="#DejaVuSans-74" transform="translate(1292.265625 0)"/>
      <use xlink:href="#DejaVuSans-6f" transform="translate(1331.474609 0)"/>
      <use xlink:href="#DejaVuSans-70" transform="translate(1392.65625 0)"/>
      <use xlink:href="#DejaVuSans-6b" transform="translate(1456.132812 0)"/>
      <use xlink:href="#DejaVuSans-3d" transform="translate(1514.042969 0)"/>
      <use xlink:href="#DejaVuSans-30" transform="translate(1597.832031 0)"/>
      <use xlink:href="#DejaVuSans-2e" transform="translate(1661.455078 0)"/>
      <use xlink:href="#DejaVuSans-31" transform="translate(1693.242188 0)"/>
      <use xlink:href="#DejaVuSans-36" transform="translate(1756.865234 0)"/>
      <use xlink:href="#DejaVuSans-37" transform="translate(1820.488281 0)"/>
      <use xlink:href="#DejaVuSans-29" transform="translate(1884.111328 0)"/>
     </g>
    </g>
    <g id="line2d_41">
     <path d="M 609.755 128.047188 
L 619.755 128.047188 
L 629.755 128.047188 
" style="fill: none; stroke: #e377c2; stroke-width: 1.5; stroke-linecap: square"/>
    </g>
    <g id="text_22">
     <!-- CC (AUPRC=0.557, n=4), topk=0.556) -->
     <g transform="translate(637.755 131.547188) scale(0.1 -0.1)">
      <use xlink:href="#DejaVuSans-43"/>
      <use xlink:href="#DejaVuSans-43" transform="translate(69.824219 0)"/>
      <use xlink:href="#DejaVuSans-20" transform="translate(139.648438 0)"/>
      <use xlink:href="#DejaVuSans-28" transform="translate(171.435547 0)"/>
      <use xlink:href="#DejaVuSans-41" transform="translate(210.449219 0)"/>
      <use xlink:href="#DejaVuSans-55" transform="translate(278.857422 0)"/>
      <use xlink:href="#DejaVuSans-50" transform="translate(352.050781 0)"/>
      <use xlink:href="#DejaVuSans-52" transform="translate(412.353516 0)"/>
      <use xlink:href="#DejaVuSans-43" transform="translate(476.835938 0)"/>
      <use xlink:href="#DejaVuSans-3d" transform="translate(546.660156 0)"/>
      <use xlink:href="#DejaVuSans-30" transform="translate(630.449219 0)"/>
      <use xlink:href="#DejaVuSans-2e" transform="translate(694.072266 0)"/>
      <use xlink:href="#DejaVuSans-35" transform="translate(725.859375 0)"/>
      <use xlink:href="#DejaVuSans-35" transform="translate(789.482422 0)"/>
      <use xlink:href="#DejaVuSans-37" transform="translate(853.105469 0)"/>
      <use xlink:href="#DejaVuSans-2c" transform="translate(916.728516 0)"/>
      <use xlink:href="#DejaVuSans-20" transform="translate(948.515625 0)"/>
      <use xlink:href="#DejaVuSans-6e" transform="translate(980.302734 0)"/>
      <use xlink:href="#DejaVuSans-3d" transform="translate(1043.681641 0)"/>
      <use xlink:href="#DejaVuSans-34" transform="translate(1127.470703 0)"/>
      <use xlink:href="#DejaVuSans-29" transform="translate(1191.09375 0)"/>
      <use xlink:href="#DejaVuSans-2c" transform="translate(1230.107422 0)"/>
      <use xlink:href="#DejaVuSans-20" transform="translate(1261.894531 0)"/>
      <use xlink:href="#DejaVuSans-74" transform="translate(1293.681641 0)"/>
      <use xlink:href="#DejaVuSans-6f" transform="translate(1332.890625 0)"/>
      <use xlink:href="#DejaVuSans-70" transform="translate(1394.072266 0)"/>
      <use xlink:href="#DejaVuSans-6b" transform="translate(1457.548828 0)"/>
      <use xlink:href="#DejaVuSans-3d" transform="translate(1515.458984 0)"/>
      <use xlink:href="#DejaVuSans-30" transform="translate(1599.248047 0)"/>
      <use xlink:href="#DejaVuSans-2e" transform="translate(1662.871094 0)"/>
      <use xlink:href="#DejaVuSans-35" transform="translate(1694.658203 0)"/>
      <use xlink:href="#DejaVuSans-35" transform="translate(1758.28125 0)"/>
      <use xlink:href="#DejaVuSans-36" transform="translate(1821.904297 0)"/>
      <use xlink:href="#DejaVuSans-29" transform="translate(1885.527344 0)"/>
     </g>
    </g>
    <g id="line2d_42">
     <path d="M 609.755 142.725313 
L 619.755 142.725313 
L 629.755 142.725313 
" style="fill: none; stroke: #7f7f7f; stroke-width: 1.5; stroke-linecap: square"/>
    </g>
    <g id="text_23">
     <!-- AT (AUPRC=0.779, n=4), topk=0.786) -->
     <g transform="translate(637.755 146.225313) scale(0.1 -0.1)">
      <use xlink:href="#DejaVuSans-41"/>
      <use xlink:href="#DejaVuSans-54" transform="translate(60.658203 0)"/>
      <use xlink:href="#DejaVuSans-20" transform="translate(121.742188 0)"/>
      <use xlink:href="#DejaVuSans-28" transform="translate(153.529297 0)"/>
      <use xlink:href="#DejaVuSans-41" transform="translate(192.542969 0)"/>
      <use xlink:href="#DejaVuSans-55" transform="translate(260.951172 0)"/>
      <use xlink:href="#DejaVuSans-50" transform="translate(334.144531 0)"/>
      <use xlink:href="#DejaVuSans-52" transform="translate(394.447266 0)"/>
      <use xlink:href="#DejaVuSans-43" transform="translate(458.929688 0)"/>
      <use xlink:href="#DejaVuSans-3d" transform="translate(528.753906 0)"/>
      <use xlink:href="#DejaVuSans-30" transform="translate(612.542969 0)"/>
      <use xlink:href="#DejaVuSans-2e" transform="translate(676.166016 0)"/>
      <use xlink:href="#DejaVuSans-37" transform="translate(707.953125 0)"/>
      <use xlink:href="#DejaVuSans-37" transform="translate(771.576172 0)"/>
      <use xlink:href="#DejaVuSans-39" transform="translate(835.199219 0)"/>
      <use xlink:href="#DejaVuSans-2c" transform="translate(898.822266 0)"/>
      <use xlink:href="#DejaVuSans-20" transform="translate(930.609375 0)"/>
      <use xlink:href="#DejaVuSans-6e" transform="translate(962.396484 0)"/>
      <use xlink:href="#DejaVuSans-3d" transform="translate(1025.775391 0)"/>
      <use xlink:href="#DejaVuSans-34" transform="translate(1109.564453 0)"/>
      <use xlink:href="#DejaVuSans-29" transform="translate(1173.1875 0)"/>
      <use xlink:href="#DejaVuSans-2c" transform="translate(1212.201172 0)"/>
      <use xlink:href="#DejaVuSans-20" transform="translate(1243.988281 0)"/>
      <use xlink:href="#DejaVuSans-74" transform="translate(1275.775391 0)"/>
      <use xlink:href="#DejaVuSans-6f" transform="translate(1314.984375 0)"/>
      <use xlink:href="#DejaVuSans-70" transform="translate(1376.166016 0)"/>
      <use xlink:href="#DejaVuSans-6b" transform="translate(1439.642578 0)"/>
      <use xlink:href="#DejaVuSans-3d" transform="translate(1497.552734 0)"/>
      <use xlink:href="#DejaVuSans-30" transform="translate(1581.341797 0)"/>
      <use xlink:href="#DejaVuSans-2e" transform="translate(1644.964844 0)"/>
      <use xlink:href="#DejaVuSans-37" transform="translate(1676.751953 0)"/>
      <use xlink:href="#DejaVuSans-38" transform="translate(1740.375 0)"/>
      <use xlink:href="#DejaVuSans-36" transform="translate(1803.998047 0)"/>
      <use xlink:href="#DejaVuSans-29" transform="translate(1867.621094 0)"/>
     </g>
    </g>
    <g id="line2d_43">
     <path d="M 609.755 157.403438 
L 619.755 157.403438 
L 629.755 157.403438 
" style="fill: none; stroke: #bcbd22; stroke-width: 1.5; stroke-linecap: square"/>
    </g>
    <g id="text_24">
     <!-- TC (AUPRC=0.430, n=3), topk=0.429) -->
     <g transform="translate(637.755 160.903438) scale(0.1 -0.1)">
      <use xlink:href="#DejaVuSans-54"/>
      <use xlink:href="#DejaVuSans-43" transform="translate(55.208984 0)"/>
      <use xlink:href="#DejaVuSans-20" transform="translate(125.033203 0)"/>
      <use xlink:href="#DejaVuSans-28" transform="translate(156.820312 0)"/>
      <use xlink:href="#DejaVuSans-41" transform="translate(195.833984 0)"/>
      <use xlink:href="#DejaVuSans-55" transform="translate(264.242188 0)"/>
      <use xlink:href="#DejaVuSans-50" transform="translate(337.435547 0)"/>
      <use xlink:href="#DejaVuSans-52" transform="translate(397.738281 0)"/>
      <use xlink:href="#DejaVuSans-43" transform="translate(462.220703 0)"/>
      <use xlink:href="#DejaVuSans-3d" transform="translate(532.044922 0)"/>
      <use xlink:href="#DejaVuSans-30" transform="translate(615.833984 0)"/>
      <use xlink:href="#DejaVuSans-2e" transform="translate(679.457031 0)"/>
      <use xlink:href="#DejaVuSans-34" transform="translate(711.244141 0)"/>
      <use xlink:href="#DejaVuSans-33" transform="translate(774.867188 0)"/>
      <use xlink:href="#DejaVuSans-30" transform="translate(838.490234 0)"/>
      <use xlink:href="#DejaVuSans-2c" transform="translate(902.113281 0)"/>
      <use xlink:href="#DejaVuSans-20" transform="translate(933.900391 0)"/>
      <use xlink:href="#DejaVuSans-6e" transform="translate(965.6875 0)"/>
      <use xlink:href="#DejaVuSans-3d" transform="translate(1029.066406 0)"/>
      <use xlink:href="#DejaVuSans-33" transform="translate(1112.855469 0)"/>
      <use xlink:href="#DejaVuSans-29" transform="translate(1176.478516 0)"/>
      <use xlink:href="#DejaVuSans-2c" transform="translate(1215.492188 0)"/>
      <use xlink:href="#DejaVuSans-20" transform="translate(1247.279297 0)"/>
      <use xlink:href="#DejaVuSans-74" transform="translate(1279.066406 0)"/>
      <use xlink:href="#DejaVuSans-6f" transform="translate(1318.275391 0)"/>
      <use xlink:href="#DejaVuSans-70" transform="translate(1379.457031 0)"/>
      <use xlink:href="#DejaVuSans-6b" transform="translate(1442.933594 0)"/>
      <use xlink:href="#DejaVuSans-3d" transform="translate(1500.84375 0)"/>
      <use xlink:href="#DejaVuSans-30" transform="translate(1584.632812 0)"/>
      <use xlink:href="#DejaVuSans-2e" transform="translate(1648.255859 0)"/>
      <use xlink:href="#DejaVuSans-34" transform="translate(1680.042969 0)"/>
      <use xlink:href="#DejaVuSans-32" transform="translate(1743.666016 0)"/>
      <use xlink:href="#DejaVuSans-39" transform="translate(1807.289062 0)"/>
      <use xlink:href="#DejaVuSans-29" transform="translate(1870.912109 0)"/>
     </g>
    </g>
    <g id="line2d_44">
     <path d="M 609.755 172.081563 
L 619.755 172.081563 
L 629.755 172.081563 
" style="fill: none; stroke: #17becf; stroke-width: 1.5; stroke-linecap: square"/>
    </g>
    <g id="text_25">
     <!-- GG (AUPRC=0.753, n=3), topk=0.750) -->
     <g transform="translate(637.755 175.581563) scale(0.1 -0.1)">
      <use xlink:href="#DejaVuSans-47"/>
      <use xlink:href="#DejaVuSans-47" transform="translate(77.490234 0)"/>
      <use xlink:href="#DejaVuSans-20" transform="translate(154.980469 0)"/>
      <use xlink:href="#DejaVuSans-28" transform="translate(186.767578 0)"/>
      <use xlink:href="#DejaVuSans-41" transform="translate(225.78125 0)"/>
      <use xlink:href="#DejaVuSans-55" transform="translate(294.189453 0)"/>
      <use xlink:href="#DejaVuSans-50" transform="translate(367.382812 0)"/>
      <use xlink:href="#DejaVuSans-52" transform="translate(427.685547 0)"/>
      <use xlink:href="#DejaVuSans-43" transform="translate(492.167969 0)"/>
      <use xlink:href="#DejaVuSans-3d" transform="translate(561.992188 0)"/>
      <use xlink:href="#DejaVuSans-30" transform="translate(645.78125 0)"/>
      <use xlink:href="#DejaVuSans-2e" transform="translate(709.404297 0)"/>
      <use xlink:href="#DejaVuSans-37" transform="translate(741.191406 0)"/>
      <use xlink:href="#DejaVuSans-35" transform="translate(804.814453 0)"/>
      <use xlink:href="#DejaVuSans-33" transform="translate(868.4375 0)"/>
      <use xlink:href="#DejaVuSans-2c" transform="translate(932.060547 0)"/>
      <use xlink:href="#DejaVuSans-20" transform="translate(963.847656 0)"/>
      <use xlink:href="#DejaVuSans-6e" transform="translate(995.634766 0)"/>
      <use xlink:href="#DejaVuSans-3d" transform="translate(1059.013672 0)"/>
      <use xlink:href="#DejaVuSans-33" transform="translate(1142.802734 0)"/>
      <use xlink:href="#DejaVuSans-29" transform="translate(1206.425781 0)"/>
      <use xlink:href="#DejaVuSans-2c" transform="translate(1245.439453 0)"/>
      <use xlink:href="#DejaVuSans-20" transform="translate(1277.226562 0)"/>
      <use xlink:href="#DejaVuSans-74" transform="translate(1309.013672 0)"/>
      <use xlink:href="#DejaVuSans-6f" transform="translate(1348.222656 0)"/>
      <use xlink:href="#DejaVuSans-70" transform="translate(1409.404297 0)"/>
      <use xlink:href="#DejaVuSans-6b" transform="translate(1472.880859 0)"/>
      <use xlink:href="#DejaVuSans-3d" transform="translate(1530.791016 0)"/>
      <use xlink:href="#DejaVuSans-30" transform="translate(1614.580078 0)"/>
      <use xlink:href="#DejaVuSans-2e" transform="translate(1678.203125 0)"/>
      <use xlink:href="#DejaVuSans-37" transform="translate(1709.990234 0)"/>
      <use xlink:href="#DejaVuSans-35" transform="translate(1773.613281 0)"/>
      <use xlink:href="#DejaVuSans-30" transform="translate(1837.236328 0)"/>
      <use xlink:href="#DejaVuSans-29" transform="translate(1900.859375 0)"/>
     </g>
    </g>
   </g>
  </g>
 </g>
 <defs>
  <clipPath id="pebd33ec2eb">
   <rect x="47.72" y="26.88" width="526.7" height="507.16"/>
  </clipPath>
 </defs>
</svg>
