<?xml version="1.0" encoding="utf-8" standalone="no"?>
<!DOCTYPE svg PUBLIC "-//W3C//DTD SVG 1.1//EN"
  "http://www.w3.org/Graphics/SVG/1.1/DTD/svg11.dtd">
<svg xmlns:xlink="http://www.w3.org/1999/xlink" width="864pt" height="576pt" viewBox="0 0 864 576" xmlns="http://www.w3.org/2000/svg" version="1.1">
 <metadata>
  <rdf:RDF xmlns:dc="http://purl.org/dc/elements/1.1/" xmlns:cc="http://creativecommons.org/ns#" xmlns:rdf="http://www.w3.org/1999/02/22-rdf-syntax-ns#">
   <cc:Work>
    <dc:type rdf:resource="http://purl.org/dc/dcmitype/StillImage"/>
    <dc:date>2025-05-01T13:37:07.566766</dc:date>
    <dc:format>image/svg+xml</dc:format>
    <dc:creator>
     <cc:Agent>
      <dc:title>Matplotlib v3.10.1, https://matplotlib.org/</dc:title>
     </cc:Agent>
    </dc:creator>
   </cc:Work>
  </rdf:RDF>
 </metadata>
 <defs>
  <style type="text/css">*{stroke-linejoin: round; stroke-linecap: butt}</style>
 </defs>
 <g id="figure_1">
  <g id="patch_1">
   <path d="M 0 576 
L 864 576 
L 864 0 
L 0 0 
z
" style="fill: #ffffff"/>
  </g>
  <g id="axes_1">
   <g id="patch_2">
    <path d="M 47.72 534.04 
L 568.03 534.04 
L 568.03 26.88 
L 47.72 26.88 
z
" style="fill: #ffffff"/>
   </g>
   <g id="matplotlib.axis_1">
    <g id="xtick_1">
     <g id="line2d_1">
      <path d="M 71.370455 534.04 
L 71.370455 26.88 
" clip-path="url(#p9f8a1ea17f)" style="fill: none; stroke: #b0b0b0; stroke-width: 0.8; stroke-linecap: square"/>
     </g>
     <g id="line2d_2">
      <defs>
       <path id="me985266139" d="M 0 0 
L 0 3.5 
" style="stroke: #000000; stroke-width: 0.8"/>
      </defs>
      <g>
       <use xlink:href="#me985266139" x="71.370455" y="534.04" style="stroke: #000000; stroke-width: 0.8"/>
      </g>
     </g>
     <g id="text_1">
      <!-- 0.0 -->
      <g transform="translate(63.418892 548.638438) scale(0.1 -0.1)">
       <defs>
        <path id="DejaVuSans-30" d="M 2034 4250 
Q 1547 4250 1301 3770 
Q 1056 3291 1056 2328 
Q 1056 1369 1301 889 
Q 1547 409 2034 409 
Q 2525 409 2770 889 
Q 3016 1369 3016 2328 
Q 3016 3291 2770 3770 
Q 2525 4250 2034 4250 
z
M 2034 4750 
Q 2819 4750 3233 4129 
Q 3647 3509 3647 2328 
Q 3647 1150 3233 529 
Q 2819 -91 2034 -91 
Q 1250 -91 836 529 
Q 422 1150 422 2328 
Q 422 3509 836 4129 
Q 1250 4750 2034 4750 
z
" transform="scale(0.015625)"/>
        <path id="DejaVuSans-2e" d="M 684 794 
L 1344 794 
L 1344 0 
L 684 0 
L 684 794 
z
" transform="scale(0.015625)"/>
       </defs>
       <use xlink:href="#DejaVuSans-30"/>
       <use xlink:href="#DejaVuSans-2e" transform="translate(63.623047 0)"/>
       <use xlink:href="#DejaVuSans-30" transform="translate(95.410156 0)"/>
      </g>
     </g>
    </g>
    <g id="xtick_2">
     <g id="line2d_3">
      <path d="M 165.972273 534.04 
L 165.972273 26.88 
" clip-path="url(#p9f8a1ea17f)" style="fill: none; stroke: #b0b0b0; stroke-width: 0.8; stroke-linecap: square"/>
     </g>
     <g id="line2d_4">
      <g>
       <use xlink:href="#me985266139" x="165.972273" y="534.04" style="stroke: #000000; stroke-width: 0.8"/>
      </g>
     </g>
     <g id="text_2">
      <!-- 0.2 -->
      <g transform="translate(158.02071 548.638438) scale(0.1 -0.1)">
       <defs>
        <path id="DejaVuSans-32" d="M 1228 531 
L 3431 531 
L 3431 0 
L 469 0 
L 469 531 
Q 828 903 1448 1529 
Q 2069 2156 2228 2338 
Q 2531 2678 2651 2914 
Q 2772 3150 2772 3378 
Q 2772 3750 2511 3984 
Q 2250 4219 1831 4219 
Q 1534 4219 1204 4116 
Q 875 4013 500 3803 
L 500 4441 
Q 881 4594 1212 4672 
Q 1544 4750 1819 4750 
Q 2544 4750 2975 4387 
Q 3406 4025 3406 3419 
Q 3406 3131 3298 2873 
Q 3191 2616 2906 2266 
Q 2828 2175 2409 1742 
Q 1991 1309 1228 531 
z
" transform="scale(0.015625)"/>
       </defs>
       <use xlink:href="#DejaVuSans-30"/>
       <use xlink:href="#DejaVuSans-2e" transform="translate(63.623047 0)"/>
       <use xlink:href="#DejaVuSans-32" transform="translate(95.410156 0)"/>
      </g>
     </g>
    </g>
    <g id="xtick_3">
     <g id="line2d_5">
      <path d="M 260.574091 534.04 
L 260.574091 26.88 
" clip-path="url(#p9f8a1ea17f)" style="fill: none; stroke: #b0b0b0; stroke-width: 0.8; stroke-linecap: square"/>
     </g>
     <g id="line2d_6">
      <g>
       <use xlink:href="#me985266139" x="260.574091" y="534.04" style="stroke: #000000; stroke-width: 0.8"/>
      </g>
     </g>
     <g id="text_3">
      <!-- 0.4 -->
      <g transform="translate(252.622528 548.638438) scale(0.1 -0.1)">
       <defs>
        <path id="DejaVuSans-34" d="M 2419 4116 
L 825 1625 
L 2419 1625 
L 2419 4116 
z
M 2253 4666 
L 3047 4666 
L 3047 1625 
L 3713 1625 
L 3713 1100 
L 3047 1100 
L 3047 0 
L 2419 0 
L 2419 1100 
L 313 1100 
L 313 1709 
L 2253 4666 
z
" transform="scale(0.015625)"/>
       </defs>
       <use xlink:href="#DejaVuSans-30"/>
       <use xlink:href="#DejaVuSans-2e" transform="translate(63.623047 0)"/>
       <use xlink:href="#DejaVuSans-34" transform="translate(95.410156 0)"/>
      </g>
     </g>
    </g>
    <g id="xtick_4">
     <g id="line2d_7">
      <path d="M 355.175909 534.04 
L 355.175909 26.88 
" clip-path="url(#p9f8a1ea17f)" style="fill: none; stroke: #b0b0b0; stroke-width: 0.8; stroke-linecap: square"/>
     </g>
     <g id="line2d_8">
      <g>
       <use xlink:href="#me985266139" x="355.175909" y="534.04" style="stroke: #000000; stroke-width: 0.8"/>
      </g>
     </g>
     <g id="text_4">
      <!-- 0.6 -->
      <g transform="translate(347.224347 548.638438) scale(0.1 -0.1)">
       <defs>
        <path id="DejaVuSans-36" d="M 2113 2584 
Q 1688 2584 1439 2293 
Q 1191 2003 1191 1497 
Q 1191 994 1439 701 
Q 1688 409 2113 409 
Q 2538 409 2786 701 
Q 3034 994 3034 1497 
Q 3034 2003 2786 2293 
Q 2538 2584 2113 2584 
z
M 3366 4563 
L 3366 3988 
Q 3128 4100 2886 4159 
Q 2644 4219 2406 4219 
Q 1781 4219 1451 3797 
Q 1122 3375 1075 2522 
Q 1259 2794 1537 2939 
Q 1816 3084 2150 3084 
Q 2853 3084 3261 2657 
Q 3669 2231 3669 1497 
Q 3669 778 3244 343 
Q 2819 -91 2113 -91 
Q 1303 -91 875 529 
Q 447 1150 447 2328 
Q 447 3434 972 4092 
Q 1497 4750 2381 4750 
Q 2619 4750 2861 4703 
Q 3103 4656 3366 4563 
z
" transform="scale(0.015625)"/>
       </defs>
       <use xlink:href="#DejaVuSans-30"/>
       <use xlink:href="#DejaVuSans-2e" transform="translate(63.623047 0)"/>
       <use xlink:href="#DejaVuSans-36" transform="translate(95.410156 0)"/>
      </g>
     </g>
    </g>
    <g id="xtick_5">
     <g id="line2d_9">
      <path d="M 449.777727 534.04 
L 449.777727 26.88 
" clip-path="url(#p9f8a1ea17f)" style="fill: none; stroke: #b0b0b0; stroke-width: 0.8; stroke-linecap: square"/>
     </g>
     <g id="line2d_10">
      <g>
       <use xlink:href="#me985266139" x="449.777727" y="534.04" style="stroke: #000000; stroke-width: 0.8"/>
      </g>
     </g>
     <g id="text_5">
      <!-- 0.8 -->
      <g transform="translate(441.826165 548.638438) scale(0.1 -0.1)">
       <defs>
        <path id="DejaVuSans-38" d="M 2034 2216 
Q 1584 2216 1326 1975 
Q 1069 1734 1069 1313 
Q 1069 891 1326 650 
Q 1584 409 2034 409 
Q 2484 409 2743 651 
Q 3003 894 3003 1313 
Q 3003 1734 2745 1975 
Q 2488 2216 2034 2216 
z
M 1403 2484 
Q 997 2584 770 2862 
Q 544 3141 544 3541 
Q 544 4100 942 4425 
Q 1341 4750 2034 4750 
Q 2731 4750 3128 4425 
Q 3525 4100 3525 3541 
Q 3525 3141 3298 2862 
Q 3072 2584 2669 2484 
Q 3125 2378 3379 2068 
Q 3634 1759 3634 1313 
Q 3634 634 3220 271 
Q 2806 -91 2034 -91 
Q 1263 -91 848 271 
Q 434 634 434 1313 
Q 434 1759 690 2068 
Q 947 2378 1403 2484 
z
M 1172 3481 
Q 1172 3119 1398 2916 
Q 1625 2713 2034 2713 
Q 2441 2713 2670 2916 
Q 2900 3119 2900 3481 
Q 2900 3844 2670 4047 
Q 2441 4250 2034 4250 
Q 1625 4250 1398 4047 
Q 1172 3844 1172 3481 
z
" transform="scale(0.015625)"/>
       </defs>
       <use xlink:href="#DejaVuSans-30"/>
       <use xlink:href="#DejaVuSans-2e" transform="translate(63.623047 0)"/>
       <use xlink:href="#DejaVuSans-38" transform="translate(95.410156 0)"/>
      </g>
     </g>
    </g>
    <g id="xtick_6">
     <g id="line2d_11">
      <path d="M 544.379545 534.04 
L 544.379545 26.88 
" clip-path="url(#p9f8a1ea17f)" style="fill: none; stroke: #b0b0b0; stroke-width: 0.8; stroke-linecap: square"/>
     </g>
     <g id="line2d_12">
      <g>
       <use xlink:href="#me985266139" x="544.379545" y="534.04" style="stroke: #000000; stroke-width: 0.8"/>
      </g>
     </g>
     <g id="text_6">
      <!-- 1.0 -->
      <g transform="translate(536.427983 548.638438) scale(0.1 -0.1)">
       <defs>
        <path id="DejaVuSans-31" d="M 794 531 
L 1825 531 
L 1825 4091 
L 703 3866 
L 703 4441 
L 1819 4666 
L 2450 4666 
L 2450 531 
L 3481 531 
L 3481 0 
L 794 0 
L 794 531 
z
" transform="scale(0.015625)"/>
       </defs>
       <use xlink:href="#DejaVuSans-31"/>
       <use xlink:href="#DejaVuSans-2e" transform="translate(63.623047 0)"/>
       <use xlink:href="#DejaVuSans-30" transform="translate(95.410156 0)"/>
      </g>
     </g>
    </g>
    <g id="text_7">
     <!-- Recall -->
     <g transform="translate(292.957812 562.316562) scale(0.1 -0.1)">
      <defs>
       <path id="DejaVuSans-52" d="M 2841 2188 
Q 3044 2119 3236 1894 
Q 3428 1669 3622 1275 
L 4263 0 
L 3584 0 
L 2988 1197 
Q 2756 1666 2539 1819 
Q 2322 1972 1947 1972 
L 1259 1972 
L 1259 0 
L 628 0 
L 628 4666 
L 2053 4666 
Q 2853 4666 3247 4331 
Q 3641 3997 3641 3322 
Q 3641 2881 3436 2590 
Q 3231 2300 2841 2188 
z
M 1259 4147 
L 1259 2491 
L 2053 2491 
Q 2509 2491 2742 2702 
Q 2975 2913 2975 3322 
Q 2975 3731 2742 3939 
Q 2509 4147 2053 4147 
L 1259 4147 
z
" transform="scale(0.015625)"/>
       <path id="DejaVuSans-65" d="M 3597 1894 
L 3597 1613 
L 953 1613 
Q 991 1019 1311 708 
Q 1631 397 2203 397 
Q 2534 397 2845 478 
Q 3156 559 3463 722 
L 3463 178 
Q 3153 47 2828 -22 
Q 2503 -91 2169 -91 
Q 1331 -91 842 396 
Q 353 884 353 1716 
Q 353 2575 817 3079 
Q 1281 3584 2069 3584 
Q 2775 3584 3186 3129 
Q 3597 2675 3597 1894 
z
M 3022 2063 
Q 3016 2534 2758 2815 
Q 2500 3097 2075 3097 
Q 1594 3097 1305 2825 
Q 1016 2553 972 2059 
L 3022 2063 
z
" transform="scale(0.015625)"/>
       <path id="DejaVuSans-63" d="M 3122 3366 
L 3122 2828 
Q 2878 2963 2633 3030 
Q 2388 3097 2138 3097 
Q 1578 3097 1268 2742 
Q 959 2388 959 1747 
Q 959 1106 1268 751 
Q 1578 397 2138 397 
Q 2388 397 2633 464 
Q 2878 531 3122 666 
L 3122 134 
Q 2881 22 2623 -34 
Q 2366 -91 2075 -91 
Q 1284 -91 818 406 
Q 353 903 353 1747 
Q 353 2603 823 3093 
Q 1294 3584 2113 3584 
Q 2378 3584 2631 3529 
Q 2884 3475 3122 3366 
z
" transform="scale(0.015625)"/>
       <path id="DejaVuSans-61" d="M 2194 1759 
Q 1497 1759 1228 1600 
Q 959 1441 959 1056 
Q 959 750 1161 570 
Q 1363 391 1709 391 
Q 2188 391 2477 730 
Q 2766 1069 2766 1631 
L 2766 1759 
L 2194 1759 
z
M 3341 1997 
L 3341 0 
L 2766 0 
L 2766 531 
Q 2569 213 2275 61 
Q 1981 -91 1556 -91 
Q 1019 -91 701 211 
Q 384 513 384 1019 
Q 384 1609 779 1909 
Q 1175 2209 1959 2209 
L 2766 2209 
L 2766 2266 
Q 2766 2663 2505 2880 
Q 2244 3097 1772 3097 
Q 1472 3097 1187 3025 
Q 903 2953 641 2809 
L 641 3341 
Q 956 3463 1253 3523 
Q 1550 3584 1831 3584 
Q 2591 3584 2966 3190 
Q 3341 2797 3341 1997 
z
" transform="scale(0.015625)"/>
       <path id="DejaVuSans-6c" d="M 603 4863 
L 1178 4863 
L 1178 0 
L 603 0 
L 603 4863 
z
" transform="scale(0.015625)"/>
      </defs>
      <use xlink:href="#DejaVuSans-52"/>
      <use xlink:href="#DejaVuSans-65" transform="translate(64.982422 0)"/>
      <use xlink:href="#DejaVuSans-63" transform="translate(126.505859 0)"/>
      <use xlink:href="#DejaVuSans-61" transform="translate(181.486328 0)"/>
      <use xlink:href="#DejaVuSans-6c" transform="translate(242.765625 0)"/>
      <use xlink:href="#DejaVuSans-6c" transform="translate(270.548828 0)"/>
     </g>
    </g>
   </g>
   <g id="matplotlib.axis_2">
    <g id="ytick_1">
     <g id="line2d_13">
      <path d="M 47.72 511.151707 
L 568.03 511.151707 
" clip-path="url(#p9f8a1ea17f)" style="fill: none; stroke: #b0b0b0; stroke-width: 0.8; stroke-linecap: square"/>
     </g>
     <g id="line2d_14">
      <defs>
       <path id="mef9a38e8d1" d="M 0 0 
L -3.5 0 
" style="stroke: #000000; stroke-width: 0.8"/>
      </defs>
      <g>
       <use xlink:href="#mef9a38e8d1" x="47.72" y="511.151707" style="stroke: #000000; stroke-width: 0.8"/>
      </g>
     </g>
     <g id="text_8">
      <!-- 0.0 -->
      <g transform="translate(24.816875 514.950926) scale(0.1 -0.1)">
       <use xlink:href="#DejaVuSans-30"/>
       <use xlink:href="#DejaVuSans-2e" transform="translate(63.623047 0)"/>
       <use xlink:href="#DejaVuSans-30" transform="translate(95.410156 0)"/>
      </g>
     </g>
    </g>
    <g id="ytick_2">
     <g id="line2d_15">
      <path d="M 47.72 418.907911 
L 568.03 418.907911 
" clip-path="url(#p9f8a1ea17f)" style="fill: none; stroke: #b0b0b0; stroke-width: 0.8; stroke-linecap: square"/>
     </g>
     <g id="line2d_16">
      <g>
       <use xlink:href="#mef9a38e8d1" x="47.72" y="418.907911" style="stroke: #000000; stroke-width: 0.8"/>
      </g>
     </g>
     <g id="text_9">
      <!-- 0.2 -->
      <g transform="translate(24.816875 422.70713) scale(0.1 -0.1)">
       <use xlink:href="#DejaVuSans-30"/>
       <use xlink:href="#DejaVuSans-2e" transform="translate(63.623047 0)"/>
       <use xlink:href="#DejaVuSans-32" transform="translate(95.410156 0)"/>
      </g>
     </g>
    </g>
    <g id="ytick_3">
     <g id="line2d_17">
      <path d="M 47.72 326.664115 
L 568.03 326.664115 
" clip-path="url(#p9f8a1ea17f)" style="fill: none; stroke: #b0b0b0; stroke-width: 0.8; stroke-linecap: square"/>
     </g>
     <g id="line2d_18">
      <g>
       <use xlink:href="#mef9a38e8d1" x="47.72" y="326.664115" style="stroke: #000000; stroke-width: 0.8"/>
      </g>
     </g>
     <g id="text_10">
      <!-- 0.4 -->
      <g transform="translate(24.816875 330.463334) scale(0.1 -0.1)">
       <use xlink:href="#DejaVuSans-30"/>
       <use xlink:href="#DejaVuSans-2e" transform="translate(63.623047 0)"/>
       <use xlink:href="#DejaVuSans-34" transform="translate(95.410156 0)"/>
      </g>
     </g>
    </g>
    <g id="ytick_4">
     <g id="line2d_19">
      <path d="M 47.72 234.420319 
L 568.03 234.420319 
" clip-path="url(#p9f8a1ea17f)" style="fill: none; stroke: #b0b0b0; stroke-width: 0.8; stroke-linecap: square"/>
     </g>
     <g id="line2d_20">
      <g>
       <use xlink:href="#mef9a38e8d1" x="47.72" y="234.420319" style="stroke: #000000; stroke-width: 0.8"/>
      </g>
     </g>
     <g id="text_11">
      <!-- 0.6 -->
      <g transform="translate(24.816875 238.219538) scale(0.1 -0.1)">
       <use xlink:href="#DejaVuSans-30"/>
       <use xlink:href="#DejaVuSans-2e" transform="translate(63.623047 0)"/>
       <use xlink:href="#DejaVuSans-36" transform="translate(95.410156 0)"/>
      </g>
     </g>
    </g>
    <g id="ytick_5">
     <g id="line2d_21">
      <path d="M 47.72 142.176523 
L 568.03 142.176523 
" clip-path="url(#p9f8a1ea17f)" style="fill: none; stroke: #b0b0b0; stroke-width: 0.8; stroke-linecap: square"/>
     </g>
     <g id="line2d_22">
      <g>
       <use xlink:href="#mef9a38e8d1" x="47.72" y="142.176523" style="stroke: #000000; stroke-width: 0.8"/>
      </g>
     </g>
     <g id="text_12">
      <!-- 0.8 -->
      <g transform="translate(24.816875 145.975742) scale(0.1 -0.1)">
       <use xlink:href="#DejaVuSans-30"/>
       <use xlink:href="#DejaVuSans-2e" transform="translate(63.623047 0)"/>
       <use xlink:href="#DejaVuSans-38" transform="translate(95.410156 0)"/>
      </g>
     </g>
    </g>
    <g id="ytick_6">
     <g id="line2d_23">
      <path d="M 47.72 49.932727 
L 568.03 49.932727 
" clip-path="url(#p9f8a1ea17f)" style="fill: none; stroke: #b0b0b0; stroke-width: 0.8; stroke-linecap: square"/>
     </g>
     <g id="line2d_24">
      <g>
       <use xlink:href="#mef9a38e8d1" x="47.72" y="49.932727" style="stroke: #000000; stroke-width: 0.8"/>
      </g>
     </g>
     <g id="text_13">
      <!-- 1.0 -->
      <g transform="translate(24.816875 53.731946) scale(0.1 -0.1)">
       <use xlink:href="#DejaVuSans-31"/>
       <use xlink:href="#DejaVuSans-2e" transform="translate(63.623047 0)"/>
       <use xlink:href="#DejaVuSans-30" transform="translate(95.410156 0)"/>
      </g>
     </g>
    </g>
    <g id="text_14">
     <!-- Precision -->
     <g transform="translate(18.737188 302.767031) rotate(-90) scale(0.1 -0.1)">
      <defs>
       <path id="DejaVuSans-50" d="M 1259 4147 
L 1259 2394 
L 2053 2394 
Q 2494 2394 2734 2622 
Q 2975 2850 2975 3272 
Q 2975 3691 2734 3919 
Q 2494 4147 2053 4147 
L 1259 4147 
z
M 628 4666 
L 2053 4666 
Q 2838 4666 3239 4311 
Q 3641 3956 3641 3272 
Q 3641 2581 3239 2228 
Q 2838 1875 2053 1875 
L 1259 1875 
L 1259 0 
L 628 0 
L 628 4666 
z
" transform="scale(0.015625)"/>
       <path id="DejaVuSans-72" d="M 2631 2963 
Q 2534 3019 2420 3045 
Q 2306 3072 2169 3072 
Q 1681 3072 1420 2755 
Q 1159 2438 1159 1844 
L 1159 0 
L 581 0 
L 581 3500 
L 1159 3500 
L 1159 2956 
Q 1341 3275 1631 3429 
Q 1922 3584 2338 3584 
Q 2397 3584 2469 3576 
Q 2541 3569 2628 3553 
L 2631 2963 
z
" transform="scale(0.015625)"/>
       <path id="DejaVuSans-69" d="M 603 3500 
L 1178 3500 
L 1178 0 
L 603 0 
L 603 3500 
z
M 603 4863 
L 1178 4863 
L 1178 4134 
L 603 4134 
L 603 4863 
z
" transform="scale(0.015625)"/>
       <path id="DejaVuSans-73" d="M 2834 3397 
L 2834 2853 
Q 2591 2978 2328 3040 
Q 2066 3103 1784 3103 
Q 1356 3103 1142 2972 
Q 928 2841 928 2578 
Q 928 2378 1081 2264 
Q 1234 2150 1697 2047 
L 1894 2003 
Q 2506 1872 2764 1633 
Q 3022 1394 3022 966 
Q 3022 478 2636 193 
Q 2250 -91 1575 -91 
Q 1294 -91 989 -36 
Q 684 19 347 128 
L 347 722 
Q 666 556 975 473 
Q 1284 391 1588 391 
Q 1994 391 2212 530 
Q 2431 669 2431 922 
Q 2431 1156 2273 1281 
Q 2116 1406 1581 1522 
L 1381 1569 
Q 847 1681 609 1914 
Q 372 2147 372 2553 
Q 372 3047 722 3315 
Q 1072 3584 1716 3584 
Q 2034 3584 2315 3537 
Q 2597 3491 2834 3397 
z
" transform="scale(0.015625)"/>
       <path id="DejaVuSans-6f" d="M 1959 3097 
Q 1497 3097 1228 2736 
Q 959 2375 959 1747 
Q 959 1119 1226 758 
Q 1494 397 1959 397 
Q 2419 397 2687 759 
Q 2956 1122 2956 1747 
Q 2956 2369 2687 2733 
Q 2419 3097 1959 3097 
z
M 1959 3584 
Q 2709 3584 3137 3096 
Q 3566 2609 3566 1747 
Q 3566 888 3137 398 
Q 2709 -91 1959 -91 
Q 1206 -91 779 398 
Q 353 888 353 1747 
Q 353 2609 779 3096 
Q 1206 3584 1959 3584 
z
" transform="scale(0.015625)"/>
       <path id="DejaVuSans-6e" d="M 3513 2113 
L 3513 0 
L 2938 0 
L 2938 2094 
Q 2938 2591 2744 2837 
Q 2550 3084 2163 3084 
Q 1697 3084 1428 2787 
Q 1159 2491 1159 1978 
L 1159 0 
L 581 0 
L 581 3500 
L 1159 3500 
L 1159 2956 
Q 1366 3272 1645 3428 
Q 1925 3584 2291 3584 
Q 2894 3584 3203 3211 
Q 3513 2838 3513 2113 
z
" transform="scale(0.015625)"/>
      </defs>
      <use xlink:href="#DejaVuSans-50"/>
      <use xlink:href="#DejaVuSans-72" transform="translate(58.552734 0)"/>
      <use xlink:href="#DejaVuSans-65" transform="translate(97.416016 0)"/>
      <use xlink:href="#DejaVuSans-63" transform="translate(158.939453 0)"/>
      <use xlink:href="#DejaVuSans-69" transform="translate(213.919922 0)"/>
      <use xlink:href="#DejaVuSans-73" transform="translate(241.703125 0)"/>
      <use xlink:href="#DejaVuSans-69" transform="translate(293.802734 0)"/>
      <use xlink:href="#DejaVuSans-6f" transform="translate(321.585938 0)"/>
      <use xlink:href="#DejaVuSans-6e" transform="translate(382.767578 0)"/>
     </g>
    </g>
   </g>
   <g id="line2d_25">
    <path d="M 544.379545 510.831628 
L 544.272125 510.819496 
L 541.335959 510.711523 
L 541.335959 510.710446 
L 541.335959 510.710189 
L 538.471408 510.604451 
L 538.471408 510.601766 
L 538.363987 510.584649 
L 537.218166 510.492144 
L 537.218166 510.474927 
L 537.110746 510.450621 
L 535.67847 510.351798 
L 535.67847 510.341663 
L 535.606856 510.299704 
L 534.819104 510.223909 
L 534.819104 510.190036 
L 534.747491 510.104984 
L 534.210387 510.000021 
L 534.210387 509.995084 
L 534.17458 509.902604 
L 533.780704 509.82933 
L 533.780704 509.792554 
L 533.673284 509.72772 
L 533.351022 509.673673 
L 533.351022 509.617599 
L 533.351022 509.616733 
L 533.13618 509.550183 
L 533.13618 509.506333 
L 533.02876 509.417789 
L 532.742304 509.309307 
L 532.742304 509.307751 
L 532.742304 509.224594 
L 532.276815 509.18194 
L 532.276815 509.115418 
L 532.169394 508.828603 
L 531.918746 508.771205 
L 531.918746 508.718748 
L 531.847132 508.60392 
L 531.381642 508.501513 
L 531.381642 508.495371 
L 531.310029 508.421489 
L 531.202608 508.396838 
L 531.202608 508.311011 
L 531.130994 507.925769 
L 531.023573 507.926517 
L 531.023573 507.815407 
L 531.023573 507.753589 
L 530.880346 507.75464 
L 530.880346 507.643527 
L 530.844539 507.551229 
L 530.701311 507.552343 
L 530.701311 507.441229 
L 530.593891 507.379633 
L 530.558084 507.379924 
L 530.558084 507.268814 
L 530.450663 505.997832 
L 530.271629 505.978062 
L 530.271629 505.888715 
L 530.164208 504.308298 
L 530.02098 504.310403 
L 530.02098 504.199307 
L 529.949367 503.914442 
L 529.734525 503.91778 
L 529.734525 503.806681 
L 529.734525 502.904921 
L 529.591298 502.907452 
L 529.591298 502.796369 
L 529.591298 502.267131 
L 529.44807 502.269855 
L 529.44807 502.158742 
L 529.376456 497.303294 
L 529.269036 497.306444 
L 529.269036 497.195449 
L 529.161615 495.685724 
L 529.054194 495.689231 
L 529.054194 495.578168 
L 529.018387 491.45069 
L 528.910967 491.455117 
L 528.910967 491.344234 
L 528.910967 486.798784 
L 528.767739 486.806005 
L 528.767739 486.694837 
L 528.696125 472.17537 
L 528.588704 472.183751 
L 528.588704 472.072823 
L 528.517091 468.910495 
L 528.373863 468.922518 
L 528.373863 468.811043 
L 528.373863 460.072798 
L 528.230636 460.087034 
L 528.230636 459.976904 
L 528.230636 454.220512 
L 527.908373 454.255717 
L 527.908373 454.144854 
L 527.908373 446.91087 
L 527.729339 446.932555 
L 527.729339 446.820808 
L 527.729339 438.499272 
L 527.442884 438.537696 
L 527.442884 438.429828 
L 527.442884 424.243709 
L 527.084815 424.299093 
L 527.084815 424.188434 
L 527.084815 421.266799 
L 526.619325 421.340733 
L 526.619325 421.230556 
L 526.619325 419.875664 
L 526.153836 419.950539 
L 526.153836 419.841076 
L 526.046415 411.496136 
L 525.86738 411.526901 
L 525.86738 411.414881 
L 525.86738 406.998339 
L 525.545118 407.055522 
L 525.545118 406.96097 
L 525.545118 397.872046 
L 525.330277 397.912475 
L 525.330277 397.818098 
L 525.330277 397.221884 
L 525.151243 397.255721 
L 525.151243 397.151315 
L 525.151243 396.953084 
L 524.936401 396.993769 
L 524.936401 396.882127 
L 524.864787 383.989169 
L 524.757367 384.010987 
L 524.757367 383.905717 
L 524.685753 368.764069 
L 524.25607 368.857394 
L 524.25607 368.746238 
L 524.148649 366.268863 
L 524.112843 366.276722 
L 524.112843 366.165064 
L 524.005422 350.263437 
L 523.862194 350.296592 
L 523.862194 350.185532 
L 523.862194 344.061969 
L 523.718967 344.095701 
L 523.718967 343.990261 
L 523.718967 334.513759 
L 523.181863 334.552172 
L 523.181863 334.546813 
L 523.074443 298.976176 
L 523.038636 298.985258 
L 523.038636 298.876879 
L 522.931215 269.354469 
L 522.752181 269.400087 
L 522.752181 269.319644 
L 522.64476 251.399147 
L 522.537339 251.426159 
L 522.537339 251.356493 
L 522.501532 239.715892 
L 522.250884 239.777968 
L 522.250884 239.689176 
L 522.250884 239.295255 
L 522.000236 239.357323 
L 522.000236 239.280941 
L 522.000236 238.296874 
L 521.821201 238.341158 
L 521.821201 238.289839 
L 521.713781 236.260649 
L 521.677974 236.269479 
L 521.677974 236.230393 
L 521.570553 216.790985 
L 521.427325 216.824871 
L 521.427325 216.735183 
L 521.355712 213.639187 
L 521.14087 213.68962 
L 521.14087 213.597952 
L 521.105063 206.51822 
L 520.961836 206.551165 
L 520.961836 206.438973 
L 520.926029 200.829934 
L 520.818608 200.854198 
L 520.818608 200.771017 
L 520.746994 197.762525 
L 520.675381 197.778534 
L 520.675381 197.67669 
L 520.56796 183.333458 
L 520.353119 183.304497 
L 520.353119 183.118537 
L 520.10247 183.17144 
L 520.10247 183.115597 
L 520.066663 177.13246 
L 519.923436 177.161872 
L 519.923436 177.084626 
L 519.851822 172.715494 
L 519.672787 172.751471 
L 519.672787 172.672128 
L 519.601174 164.559128 
L 519.493753 164.579775 
L 519.493753 164.538152 
L 519.422139 163.298468 
L 519.350525 163.312135 
L 519.350525 163.228243 
L 519.278912 162.337425 
L 519.171491 162.357817 
L 519.171491 162.29453 
L 519.06407 159.313946 
L 518.992456 159.327295 
L 518.992456 159.21992 
L 518.95665 158.235617 
L 518.813422 158.262142 
L 518.813422 158.154073 
L 518.706001 155.603841 
L 518.634388 155.616884 
L 518.526967 150.177615 
L 518.49116 150.183898 
L 518.49116 150.138644 
L 518.383739 146.661124 
L 518.02567 146.722395 
L 517.91825 144.744401 
L 517.667601 144.786698 
L 517.667601 144.739994 
L 517.560181 143.609998 
L 517.45276 143.627974 
L 517.45276 143.533918 
L 517.345339 143.104398 
L 517.237919 143.12231 
L 517.237919 143.02795 
L 517.202112 140.084408 
L 517.094691 140.101887 
L 517.094691 140.005941 
L 517.023077 138.789783 
L 516.736622 138.835919 
L 516.736622 138.739238 
L 516.665008 134.890934 
L 516.629201 134.896507 
L 516.521781 134.913232 
L 516.41436 131.214625 
L 516.306939 131.230789 
L 516.306939 131.130021 
L 516.271132 128.726227 
L 516.056291 128.757788 
L 516.056291 128.655646 
L 516.056291 127.47708 
L 515.877257 127.50306 
L 515.877257 127.451639 
L 515.877257 126.523707 
L 515.734029 126.544293 
L 515.734029 126.466746 
L 515.734029 126.233917 
L 515.554994 126.259582 
L 515.554994 126.155984 
L 515.519188 125.434324 
L 515.37596 125.454691 
L 515.37596 125.350618 
L 515.37596 124.8555 
L 515.161119 124.885876 
L 515.161119 124.781444 
L 515.089505 123.060066 
L 515.053698 123.065032 
L 514.838857 122.989362 
L 514.80305 122.756777 
L 514.588208 122.786501 
L 514.552401 122.050261 
L 514.301753 122.005075 
L 514.301753 121.97853 
L 514.230139 118.451973 
L 514.158526 118.461408 
L 514.158526 118.434369 
L 514.086912 117.603642 
L 514.051105 117.608312 
L 513.836264 117.636349 
L 513.76465 115.404746 
L 513.334967 115.376828 
L 513.263353 114.03293 
L 513.048512 114.032056 
L 513.048512 113.83792 
L 513.012705 113.842383 
L 512.368181 113.867265 
L 512.26076 113.212579 
L 512.189146 113.221448 
L 512.189146 113.137768 
L 512.189146 112.411057 
L 511.831077 112.454963 
L 511.831077 112.370891 
L 511.723657 111.033831 
L 511.22236 111.094233 
L 511.22236 111.009469 
L 511.22236 110.783256 
L 510.255574 110.814547 
L 510.255574 110.644372 
L 510.076539 110.665886 
L 510.076539 110.580718 
L 510.076539 110.552321 
L 509.61105 110.608239 
L 509.61105 110.551388 
L 509.503629 109.709437 
L 509.360402 109.72645 
L 509.324595 107.692306 
L 509.14556 107.712969 
L 509.14556 107.684102 
L 509.14556 106.729183 
L 509.073946 106.737332 
L 508.966526 106.749558 
L 508.966526 106.662496 
L 508.966526 106.459206 
L 508.787491 106.479506 
L 508.715877 105.613688 
L 508.286195 105.661831 
L 508.286195 105.281666 
L 508.142967 105.297637 
L 508.142967 105.239072 
L 508.142967 105.063277 
L 507.99974 105.079199 
L 507.99974 105.020552 
L 507.928126 104.117194 
L 507.856512 104.125039 
L 507.784898 102.920994 
L 507.641671 102.93639 
L 507.641671 102.906734 
L 507.641671 102.609937 
L 507.53425 102.621428 
L 507.319409 102.555252 
L 507.211988 102.090397 
L 507.104567 102.101801 
L 507.104567 102.012345 
L 506.997146 101.90438 
L 506.96134 101.90817 
L 506.96134 101.878318 
L 506.96134 101.669231 
L 506.782305 101.688117 
L 506.782305 101.269167 
L 506.710691 101.276672 
L 506.603271 101.287933 
L 506.567464 100.931767 
L 506.460043 100.942966 
L 506.460043 100.912938 
L 506.352622 99.29577 
L 506.209395 99.310289 
L 506.101974 98.34967 
L 505.92294 98.367523 
L 505.92294 98.276179 
L 505.815519 97.737856 
L 505.779712 97.741388 
L 505.779712 97.649737 
L 505.743905 97.316837 
L 505.421643 97.348401 
L 505.421643 97.256499 
L 505.350029 96.003246 
L 505.278415 96.01009 
L 505.278415 94.866023 
L 505.170995 94.876065 
L 504.956153 94.834105 
L 504.956153 94.803069 
L 504.956153 94.616756 
L 504.741312 94.636761 
L 504.633891 94.366819 
L 504.383243 94.39006 
L 504.311629 93.522808 
L 504.275822 93.526073 
L 503.95356 93.555477 
L 503.95356 93.524178 
L 503.95356 93.054124 
L 503.84614 93.063833 
L 503.702912 93.076785 
L 503.702912 93.045396 
L 503.702912 92.605449 
L 503.452264 92.627912 
L 503.452264 92.564957 
L 503.416457 92.032246 
L 503.237422 92.048105 
L 503.237422 91.953356 
L 503.237422 91.605579 
L 502.91516 91.633885 
L 502.91516 91.602221 
L 502.843547 91.196387 
L 501.984181 91.207775 
L 501.984181 91.144176 
L 501.840953 91.156663 
L 501.76934 90.908216 
L 501.733533 90.911322 
L 501.626112 90.888777 
L 501.626112 90.856905 
L 501.626112 90.793147 
L 501.518691 90.802446 
L 501.339657 90.817956 
L 501.339657 90.754143 
L 501.268043 90.568761 
L 501.053202 90.587288 
L 501.053202 90.491393 
L 500.981588 90.401607 
L 500.73094 90.359134 
L 500.695133 90.202056 
L 500.623519 90.208188 
L 500.193836 90.21294 
L 500.193836 90.148772 
L 500.193836 89.988268 
L 500.122222 89.994377 
L 499.943188 90.009659 
L 499.943188 89.977528 
L 499.943188 89.527177 
L 499.764154 89.542303 
L 499.764154 89.219923 
L 499.728347 89.222927 
L 499.549312 89.205677 
L 499.549312 89.141105 
L 499.441891 87.919215 
L 499.119629 87.945475 
L 499.119629 87.880452 
L 499.048016 87.136968 
L 498.689947 87.165626 
L 498.618333 86.385972 
L 497.902195 86.442331 
L 497.902195 86.343814 
L 497.866388 86.083673 
L 497.544126 86.108866 
L 497.436705 85.589933 
L 496.827988 85.537858 
L 496.827988 84.842573 
L 496.469919 84.770168 
L 496.362498 84.479215 
L 496.040236 84.403611 
L 496.040236 84.20376 
L 495.932816 84.211786 
L 495.789588 84.222494 
L 495.789588 83.420812 
L 495.682167 83.428674 
L 495.53894 83.338691 
L 495.503133 83.073129 
L 495.431519 83.078323 
L 495.288292 83.088717 
L 495.288292 83.055157 
L 495.252485 82.721836 
L 494.50054 82.775956 
L 494.393119 81.940126 
L 494.214085 81.851247 
L 494.214085 81.681992 
L 494.070857 81.692009 
L 494.070857 81.590361 
L 494.070857 81.488666 
L 493.963436 81.496138 
L 493.390526 81.536051 
L 493.390526 81.468133 
L 493.390526 81.26425 
L 493.318912 81.269206 
L 493.211492 81.276644 
L 493.211492 81.140564 
L 493.032457 81.152918 
L 493.032457 81.050764 
L 493.032457 81.016702 
L 492.88923 81.026552 
L 492.88923 80.924304 
L 492.88923 80.89021 
L 492.817616 80.895117 
L 492.459547 80.885548 
L 492.459547 80.783128 
L 491.85083 80.756405 
L 491.85083 80.687991 
L 491.743409 80.695326 
L 491.564374 80.707558 
L 491.564374 80.673323 
L 491.564374 80.090483 
L 491.134692 80.050599 
L 491.098885 79.777824 
L 489.953064 79.854221 
L 489.953064 79.543488 
L 489.88145 79.548229 
L 489.738223 79.557717 
L 489.738223 78.65712 
L 489.630802 78.664037 
L 489.559188 78.668651 
L 489.559188 78.564455 
L 489.559188 78.529712 
L 489.201119 78.517923 
L 489.201119 78.448356 
L 489.201119 78.378768 
L 489.093699 78.385631 
L 488.73563 78.408535 
L 488.73563 78.304008 
L 488.628209 77.752403 
L 488.413368 77.730902 
L 488.413368 77.66095 
L 488.413368 77.590976 
L 488.162719 77.571597 
L 488.162719 77.256215 
L 488.126912 77.258423 
L 487.124319 77.285259 
L 487.124319 77.214946 
L 487.124319 76.581101 
L 486.909478 76.594083 
L 486.909478 76.488213 
L 486.802057 76.141334 
L 486.694637 76.147727 
L 486.694637 76.041585 
L 486.623023 75.478781 
L 486.587216 75.480862 
L 486.443988 75.48919 
L 486.443988 75.382662 
L 486.372375 75.102439 
L 485.942692 75.020267 
L 485.835271 74.919505 
L 485.62043 74.824748 
L 485.62043 74.789066 
L 485.548816 74.793132 
L 485.262361 74.80941 
L 485.190747 74.348646 
L 484.223961 74.295153 
L 484.11654 74.085678 
L 483.400402 74.017468 
L 483.400402 73.873401 
L 482.863299 73.794787 
L 482.755878 73.330931 
L 482.03974 73.297185 
L 482.03974 73.260939 
L 482.03974 73.188428 
L 481.93232 73.194206 
L 481.144568 73.200329 
L 481.108761 72.838545 
L 480.965533 72.846157 
L 480.965533 72.80974 
L 480.965533 72.664015 
L 480.89392 72.667794 
L 480.285202 72.699967 
L 480.285202 72.626959 
L 480.285202 72.444332 
L 479.103575 72.396442 
L 479.103575 72.359784 
L 478.996154 72.365407 
L 478.888733 72.371033 
L 478.888733 72.297664 
L 478.852927 72.079264 
L 477.850333 72.131259 
L 477.850333 72.020796 
L 477.850333 71.947122 
L 477.814527 71.948969 
L 476.919354 71.958318 
L 476.84774 71.40735 
L 476.704513 71.414585 
L 476.704513 71.340499 
L 476.704513 71.266388 
L 476.632899 71.269984 
L 475.845147 71.272477 
L 475.845147 71.235335 
L 475.845147 70.937969 
L 475.737727 70.943294 
L 475.379658 70.961067 
L 475.379658 70.588403 
L 475.272237 70.59365 
L 474.735134 70.545211 
L 474.627713 70.363507 
L 474.377065 70.375651 
L 474.269644 70.156129 
L 473.660927 70.110322 
L 473.553506 69.927656 
L 470.438306 70.001215 
L 470.438306 69.963352 
L 470.116044 69.978837 
L 470.116044 69.940938 
L 470.116044 69.865122 
L 470.080237 69.866835 
L 469.364099 69.901151 
L 469.364099 69.749179 
L 469.077644 69.686763 
L 469.077644 69.49646 
L 468.647961 69.478603 
L 468.647961 68.867819 
L 468.146665 68.814204 
L 468.146665 68.392674 
L 468.039244 68.397473 
L 468.003437 68.399073 
L 468.003437 68.20714 
L 467.896016 68.211894 
L 467.323106 68.160351 
L 467.323106 68.121871 
L 467.287299 68.123451 
L 466.320513 68.127641 
L 466.213092 67.823457 
L 465.855023 67.839065 
L 465.78341 67.609969 
L 465.747603 67.611513 
L 464.351134 67.671919 
L 464.351134 67.477564 
L 464.243713 67.482178 
L 464.136292 67.486795 
L 464.136292 66.980417 
L 463.348541 66.935257 
L 463.348541 66.622373 
L 463.24112 66.626783 
L 462.632403 66.651814 
L 462.632403 66.337957 
L 462.596596 66.339405 
L 461.021092 66.324539 
L 461.021092 66.285111 
L 460.627217 66.30107 
L 460.627217 66.261598 
L 460.627217 65.826942 
L 460.59141 65.828354 
L 459.767851 65.781612 
L 459.767851 65.186092 
L 459.66043 65.190172 
L 458.872679 65.140466 
L 458.872679 65.060743 
L 458.765258 65.0648 
L 457.905893 65.097336 
L 457.905893 64.977418 
L 457.834279 64.980115 
L 457.153948 65.005784 
L 457.153948 64.725215 
L 455.578444 64.743656 
L 455.578444 64.663106 
L 455.184569 64.677739 
L 455.184569 64.354938 
L 455.148762 64.356242 
L 453.752293 64.326207 
L 453.644872 64.04612 
L 452.892927 63.991723 
L 452.892927 63.665982 
L 452.85712 63.667233 
L 451.424844 63.676547 
L 451.424844 63.512876 
L 451.317424 63.516603 
L 449.6345 63.534132 
L 449.6345 63.204911 
L 449.527079 63.208572 
L 445.910583 63.249885 
L 445.910583 63.166701 
L 445.230252 63.106734 
L 445.230252 63.023346 
L 445.158638 63.025783 
L 444.263465 62.972697 
L 444.227658 62.848409 
L 443.762169 62.864101 
L 443.762169 62.822201 
L 443.690555 62.237081 
L 442.401507 62.19435 
L 442.401507 62.15217 
L 442.294086 62.155615 
L 441.756983 62.088348 
L 441.649562 61.88028 
L 440.75439 61.908482 
L 440.75439 61.866061 
L 440.75439 61.781194 
L 439.214693 61.744273 
L 439.214693 61.317607 
L 438.641783 61.292153 
L 438.605976 60.564752 
L 437.63919 60.549134 
L 437.63919 60.419984 
L 437.531769 60.422991 
L 436.529176 60.407945 
L 436.529176 60.321538 
L 436.421755 60.324526 
L 434.917866 60.366541 
L 434.917866 60.019115 
L 434.738831 60.023976 
L 434.738831 59.936995 
L 434.738831 59.719395 
L 433.306555 59.713589 
L 433.306555 59.626143 
L 433.270748 59.627082 
L 430.800073 59.648282 
L 430.800073 59.472086 
L 430.262969 59.39779 
L 430.262969 59.265311 
L 430.155548 59.268048 
L 428.938114 59.254853 
L 428.938114 59.07743 
L 427.362611 59.117096 
L 427.362611 58.804948 
L 424.999356 58.773254 
L 424.999356 58.728322 
L 423.065783 58.730573 
L 423.065783 58.45931 
L 422.958362 58.461867 
L 422.385452 58.47553 
L 422.385452 58.339523 
L 422.313838 58.341207 
L 421.561894 58.26801 
L 421.49028 58.042174 
L 418.840569 58.011181 
L 418.840569 57.965298 
L 418.733149 57.967738 
L 417.229259 58.002066 
L 417.229259 57.771479 
L 413.004045 57.866758 
L 413.004045 57.679913 
L 411.464349 57.667456 
L 411.464349 57.573547 
L 410.998859 57.583846 
L 410.998859 57.442723 
L 410.246915 57.459115 
L 410.246915 57.270411 
L 410.175301 57.271937 
L 402.118749 57.351141 
L 402.118749 57.302797 
L 402.082942 57.303582 
L 399.504846 57.360561 
L 399.504846 56.823992 
L 399.433232 56.825474 
L 398.896129 56.836608 
L 398.896129 56.689787 
L 398.860322 56.690515 
L 397.320625 56.623573 
L 397.320625 56.426659 
L 397.249011 56.428066 
L 391.627329 56.440226 
L 391.627329 56.390098 
L 391.519908 56.392234 
L 388.798584 56.345672 
L 388.798584 56.041928 
L 388.762777 56.042608 
L 387.545343 56.014962 
L 387.545343 55.91321 
L 387.473729 55.914548 
L 383.212708 55.943627 
L 383.105288 55.429038 
L 378.414584 55.45949 
L 378.414584 55.354456 
L 377.411991 55.372008 
L 377.411991 55.055604 
L 377.304571 55.057383 
L 368.209619 55.158226 
L 368.209619 55.049436 
L 368.102198 55.051267 
L 366.168626 55.084465 
L 366.168626 54.920077 
L 366.061205 54.921875 
L 360.403716 54.906657 
L 360.403716 54.682898 
L 360.367909 54.683481 
L 355.85624 54.758035 
L 355.85624 54.64432 
L 355.784626 54.645494 
L 355.641399 54.647845 
L 355.641399 54.533989 
L 355.605592 54.534563 
L 348.444213 54.593889 
L 348.444213 54.418604 
L 348.372599 54.419753 
L 348.086144 54.424352 
L 348.050337 54.132079 
L 346.653868 54.09428 
L 346.653868 53.917469 
L 346.618061 53.917983 
L 342.536075 53.917601 
L 342.536075 53.857738 
L 316.1822 54.210081 
L 316.1822 54.077614 
L 304.509152 54.21367 
L 304.509152 54.144132 
L 290.078973 54.345233 
L 290.078973 53.900363 
L 289.971552 53.902296 
L 282.523718 54.041064 
L 282.523718 53.733556 
L 282.452104 53.734835 
L 279.659166 53.785392 
L 279.659166 53.395214 
L 279.551746 53.396987 
L 272.855856 53.430508 
L 272.855856 53.268997 
L 272.784242 53.270175 
L 255.203057 53.498394 
L 255.203057 53.055704 
L 255.095636 53.057517 
L 227.416906 53.503184 
L 227.416906 53.39896 
L 227.345292 53.400539 
L 218.751637 53.490829 
L 218.751637 53.38047 
L 218.680023 53.382133 
L 217.820658 53.291118 
L 217.820658 53.17996 
L 213.488023 53.278238 
L 213.488023 52.819676 
L 211.411223 52.862218 
L 211.411223 52.745753 
L 211.303803 52.747899 
L 191.072907 53.084253 
L 191.072907 52.811918 
L 165.900659 53.400539 
L 165.900659 53.056106 
L 162.105128 53.185839 
L 162.105128 53.006315 
L 161.997707 53.009934 
L 149.894977 53.480566 
L 149.894977 52.6507 
L 135.32157 53.265605 
L 132.850894 53.398535 
L 132.850894 52.603364 
L 132.743474 52.608011 
L 121.607529 53.196839 
L 112.94226 53.871403 
L 106.353792 54.605665 
L 101.340826 55.378052 
L 99.872743 55.655047 
L 99.872743 55.089213 
L 95.826564 55.93124 
L 92.603944 56.828028 
L 91.637157 57.151807 
L 91.637157 56.360866 
L 91.529737 56.394639 
L 89.99004 56.920894 
L 89.99004 56.058976 
L 87.519364 56.981926 
L 85.442565 58.004059 
L 85.442565 54.57977 
L 83.329958 55.39094 
L 81.718647 56.229232 
L 80.680247 56.920894 
L 79.212165 58.205713 
L 78.173765 59.442397 
L 77.206979 60.979888 
L 76.38342 62.744366 
L 75.524054 65.306693 
L 74.915337 67.844144 
L 74.30662 71.384773 
L 73.84113 75.205 
L 73.375641 80.680659 
L 72.838537 90.92997 
L 72.444661 104.193784 
L 72.337241 109.444854 
L 71.871751 152.425834 
L 71.871751 49.932727 
L 71.370455 49.932727 
L 71.370455 49.932727 
" clip-path="url(#p9f8a1ea17f)" style="fill: none; stroke: #1f77b4; stroke-width: 1.5; stroke-linecap: square"/>
   </g>
   <g id="line2d_26">
    <path d="M 544.379545 510.959533 
L 544.379545 510.958086 
L 457.345873 510.890231 
L 457.345873 510.882587 
L 457.345873 510.879872 
L 411.937 510.806618 
L 411.937 510.800724 
L 411.937 510.799162 
L 381.664418 510.741228 
L 381.664418 510.719366 
L 381.664418 510.683424 
L 362.744055 510.621246 
L 362.744055 510.60084 
L 362.744055 510.552974 
L 343.823691 510.492457 
L 343.823691 510.480694 
L 343.823691 510.47076 
L 321.119255 510.434499 
L 321.119255 510.416324 
L 321.119255 510.338422 
L 313.551109 510.357444 
L 313.551109 510.251932 
L 313.551109 510.134756 
L 305.982964 510.073646 
L 305.982964 510.055377 
L 305.982964 509.78094 
L 302.198891 509.802985 
L 302.198891 509.691926 
L 302.198891 509.062574 
L 298.414818 509.09667 
L 298.414818 508.985682 
L 298.414818 508.723387 
L 294.630745 508.763649 
L 294.630745 508.652679 
L 294.630745 505.620829 
L 290.846673 505.713468 
L 290.846673 505.602921 
L 290.846673 505.100882 
L 283.278527 505.306887 
L 283.278527 505.196378 
L 283.278527 188.298421 
L 279.494455 190.049886 
L 279.494455 185.933196 
L 275.710382 187.699436 
L 275.710382 179.074042 
L 271.926309 180.819195 
L 271.926309 156.882056 
L 264.358164 160.074573 
L 264.358164 137.783962 
L 260.574091 139.200917 
L 253.005945 142.176523 
L 253.005945 135.922707 
L 249.221873 137.405292 
L 249.221873 124.057206 
L 241.653727 126.802557 
L 234.085582 129.759089 
L 226.517436 132.952144 
L 218.949291 136.411286 
L 218.949291 128.438086 
L 211.381145 131.927213 
L 211.381145 84.524151 
L 203.813 86.344752 
L 196.244855 88.367642 
L 192.460782 89.465783 
L 192.460782 77.063256 
L 184.892636 78.758914 
L 181.108564 79.688791 
L 181.108564 65.306693 
L 173.540418 66.404834 
L 165.972273 67.671919 
L 158.404127 69.150185 
L 150.835982 70.897226 
L 147.051909 71.895536 
L 147.051909 49.932727 
L 71.370455 49.932727 
L 71.370455 49.932727 
" clip-path="url(#p9f8a1ea17f)" style="fill: none; stroke: #ff7f0e; stroke-width: 1.5; stroke-linecap: square"/>
   </g>
   <g id="line2d_27">
    <path d="M 544.379545 510.909824 
L 544.379545 510.908957 
L 508.302581 510.827088 
L 508.302581 510.816351 
L 508.302581 510.809508 
L 452.182858 510.74904 
L 452.182858 510.742317 
L 452.182858 510.741266 
L 408.08879 510.691759 
L 408.08879 510.677643 
L 408.08879 510.650901 
L 388.046032 510.615225 
L 388.046032 510.569574 
L 388.046032 510.517591 
L 380.028929 510.437746 
L 380.028929 510.422515 
L 380.028929 510.334545 
L 372.011826 510.324992 
L 372.011826 510.244629 
L 372.011826 510.185277 
L 368.003274 510.198137 
L 368.003274 510.087035 
L 368.003274 509.949686 
L 363.994723 509.965887 
L 363.994723 509.854801 
L 363.994723 509.843869 
L 351.969068 509.793869 
L 351.969068 509.786404 
L 351.969068 509.614823 
L 335.934861 509.664776 
L 335.934861 509.591299 
L 335.934861 509.569728 
L 323.909206 509.624813 
L 323.909206 509.530325 
L 323.909206 509.500753 
L 319.900655 509.526866 
L 319.900655 509.415801 
L 319.900655 508.096624 
L 315.892103 508.145579 
L 315.892103 508.034672 
L 315.892103 479.397353 
L 311.883552 479.882624 
L 311.883552 479.776267 
L 311.883552 462.172701 
L 307.875 462.903623 
L 307.875 462.817924 
L 307.875 452.882072 
L 303.866448 453.74677 
L 303.866448 207.16647 
L 299.857897 208.973755 
L 299.857897 178.373456 
L 295.849345 180.020132 
L 295.849345 157.339887 
L 291.840794 158.831653 
L 291.840794 148.765366 
L 287.832242 150.197723 
L 287.832242 144.889576 
L 283.82369 146.306843 
L 283.82369 123.142089 
L 279.815139 124.322885 
L 279.815139 97.645036 
L 275.806587 98.482094 
L 275.806587 83.475926 
L 263.780932 85.41111 
L 263.780932 68.381486 
L 255.763829 69.150185 
L 255.763829 59.745897 
L 235.721071 60.914132 
L 219.686864 62.070069 
L 207.66121 63.110412 
L 199.644106 63.90906 
L 187.618451 65.306693 
L 179.601348 66.404834 
L 171.584245 67.671919 
L 171.584245 49.932727 
L 71.370455 49.932727 
L 71.370455 49.932727 
" clip-path="url(#p9f8a1ea17f)" style="fill: none; stroke: #2ca02c; stroke-width: 1.5; stroke-linecap: square"/>
   </g>
   <g id="line2d_28">
    <path d="M 544.379545 510.960301 
L 544.379545 510.950183 
L 441.799261 510.891288 
L 441.799261 510.882758 
L 441.799261 510.87904 
L 401.906928 510.81829 
L 401.906928 510.797276 
L 401.906928 510.775509 
L 379.111309 510.738778 
L 379.111309 510.690326 
L 379.111309 510.683562 
L 344.917881 510.655628 
L 344.917881 510.624424 
L 344.917881 510.561079 
L 322.122262 510.505166 
L 322.122262 510.499137 
L 322.122262 510.420458 
L 316.423357 510.437051 
L 316.423357 510.325942 
L 316.423357 510.143091 
L 310.724452 510.166497 
L 310.724452 510.055431 
L 310.724452 509.320608 
L 305.025548 509.364037 
L 305.025548 509.252924 
L 305.025548 502.202357 
L 299.326643 502.416499 
L 299.326643 502.307623 
L 299.326643 433.635912 
L 293.627738 435.254913 
L 293.627738 82.87694 
L 282.229929 84.524151 
L 282.229929 73.584983 
L 265.133215 75.556004 
L 265.133215 49.932727 
L 71.370455 49.932727 
L 71.370455 49.932727 
" clip-path="url(#p9f8a1ea17f)" style="fill: none; stroke: #d62728; stroke-width: 1.5; stroke-linecap: square"/>
   </g>
   <g id="line2d_29">
    <path d="M 544.379545 510.872483 
L 544.379545 510.845268 
L 497.923295 510.792284 
L 497.923295 510.764235 
L 497.923295 510.760647 
L 476.806818 510.687942 
L 476.806818 510.668882 
L 476.806818 510.648096 
L 468.360227 510.588463 
L 468.360227 510.547471 
L 468.360227 510.519163 
L 451.467045 510.498741 
L 451.467045 510.434935 
L 451.467045 510.198206 
L 443.020455 510.15826 
L 443.020455 510.108252 
L 443.020455 510.089519 
L 438.797159 510.101562 
L 438.797159 509.990451 
L 438.797159 509.826759 
L 434.573864 509.841945 
L 434.573864 509.730844 
L 434.573864 509.414232 
L 426.127273 509.43204 
L 426.127273 509.343428 
L 426.127273 508.615712 
L 417.680682 508.583987 
L 417.680682 508.564666 
L 417.680682 507.727537 
L 409.234091 507.798607 
L 409.234091 507.699469 
L 409.234091 505.225347 
L 405.010795 505.298487 
L 405.010795 505.18832 
L 405.010795 503.552896 
L 400.7875 503.647519 
L 400.7875 503.537934 
L 400.7875 381.744943 
L 396.564205 382.942821 
L 396.564205 274.392631 
L 392.340909 275.899073 
L 392.340909 249.564823 
L 388.117614 251.065816 
L 388.117614 181.709579 
L 379.671023 184.268353 
L 379.671023 181.063614 
L 375.447727 182.361939 
L 375.447727 179.074042 
L 371.224432 180.378499 
L 371.224432 143.21297 
L 367.001136 144.272973 
L 367.001136 107.5851 
L 362.777841 108.314877 
L 362.777841 92.413423 
L 354.33125 93.56155 
L 354.33125 87.841137 
L 350.107955 88.367642 
L 350.107955 82.412937 
L 341.661364 83.354392 
L 341.661364 70.584323 
L 333.214773 71.219757 
L 333.214773 64.34582 
L 316.321591 65.306693 
L 295.205114 66.704327 
L 278.311932 68.019746 
L 274.088636 68.381486 
L 274.088636 59.34536 
L 252.972159 60.414977 
L 236.078977 61.463202 
L 231.855682 61.758855 
L 231.855682 49.932727 
L 71.370455 49.932727 
L 71.370455 49.932727 
" clip-path="url(#p9f8a1ea17f)" style="fill: none; stroke: #9467bd; stroke-width: 1.5; stroke-linecap: square"/>
   </g>
   <g id="line2d_30">
    <path d="M 544.379545 510.974907 
L 544.379545 510.95142 
L 410.703063 510.902783 
L 410.703063 510.89689 
L 410.703063 510.878758 
L 349.006225 510.864065 
L 349.006225 510.817248 
L 349.006225 510.770173 
L 307.875 510.767581 
L 307.875 510.715557 
L 307.875 510.660685 
L 297.592194 510.682012 
L 297.592194 510.570927 
L 297.592194 510.039849 
L 287.309387 510.090272 
L 287.309387 509.979259 
L 287.309387 509.480912 
L 277.026581 509.560199 
L 277.026581 509.449164 
L 277.026581 509.292328 
L 266.743775 509.384941 
L 266.743775 509.274021 
L 266.743775 509.165497 
L 256.460968 509.269608 
L 256.460968 509.158922 
L 256.460968 133.790724 
L 246.178162 137.783962 
L 246.178162 119.115574 
L 235.895356 122.756777 
L 225.612549 126.802557 
L 225.612549 104.193784 
L 215.329743 107.5851 
L 205.046937 111.428591 
L 194.76413 115.821153 
L 184.481324 120.889493 
L 174.198518 126.802557 
L 174.198518 91.861725 
L 163.915711 96.054625 
L 153.632905 101.179281 
L 143.350099 107.5851 
L 143.350099 49.932727 
L 71.370455 49.932727 
L 71.370455 49.932727 
" clip-path="url(#p9f8a1ea17f)" style="fill: none; stroke: #8c564b; stroke-width: 1.5; stroke-linecap: square"/>
   </g>
   <g id="line2d_31">
    <path d="M 544.379545 510.987273 
L 544.379545 510.978618 
L 394.401053 510.926456 
L 394.401053 510.922371 
L 394.401053 510.911775 
L 336.717018 510.908688 
L 336.717018 510.843495 
L 336.717018 510.602011 
L 302.106596 510.639924 
L 302.106596 510.562554 
L 302.106596 510.442849 
L 290.569789 510.47824 
L 290.569789 510.367181 
L 290.569789 508.432762 
L 279.032982 508.575065 
L 279.032982 508.464125 
L 279.032982 468.794862 
L 267.496175 470.942873 
L 267.496175 299.240284 
L 255.959368 306.165494 
L 255.959368 256.686063 
L 244.422561 264.070111 
L 244.422561 196.684221 
L 232.885754 203.672387 
L 232.885754 188.298421 
L 221.348947 195.580826 
L 221.348947 178.049111 
L 209.81214 185.585368 
L 209.81214 165.237472 
L 198.275333 172.924455 
L 186.738525 181.709579 
L 175.201718 191.84626 
L 175.201718 165.237472 
L 163.664911 175.719722 
L 163.664911 142.176523 
L 152.128104 152.425834 
L 140.591297 165.237472 
L 140.591297 49.932727 
L 71.370455 49.932727 
L 71.370455 49.932727 
" clip-path="url(#p9f8a1ea17f)" style="fill: none; stroke: #e377c2; stroke-width: 1.5; stroke-linecap: square"/>
   </g>
   <g id="line2d_32">
    <path d="M 544.379545 510.879588 
L 544.379545 510.843448 
L 488.259823 510.808691 
L 488.259823 510.768886 
L 488.259823 510.744145 
L 472.225616 510.751816 
L 472.225616 510.648698 
L 472.225616 510.611309 
L 424.122997 510.593193 
L 424.122997 510.564983 
L 424.122997 510.564575 
L 416.105894 510.577902 
L 416.105894 510.466792 
L 416.105894 510.349393 
L 408.08879 510.368019 
L 408.08879 510.256922 
L 408.08879 510.064781 
L 392.054584 510.039264 
L 392.054584 510.005323 
L 392.054584 509.856967 
L 384.037481 509.889247 
L 384.037481 509.778193 
L 384.037481 509.558762 
L 376.020378 509.599469 
L 376.020378 509.488395 
L 376.020378 508.19118 
L 368.003274 508.268602 
L 368.003274 508.15783 
L 368.003274 506.415348 
L 351.969068 506.567026 
L 351.969068 506.557893 
L 351.969068 505.710971 
L 343.951965 505.864639 
L 343.951965 505.753619 
L 343.951965 319.914569 
L 327.917758 326.664115 
L 327.917758 273.103201 
L 319.900655 276.761734 
L 319.900655 213.281116 
L 311.883552 216.756614 
L 303.866448 220.38322 
L 303.866448 176.767947 
L 295.849345 180.020132 
L 287.832242 183.443485 
L 287.832242 133.790724 
L 279.815139 136.411286 
L 279.815139 124.322885 
L 271.798035 126.802557 
L 263.780932 129.453241 
L 255.763829 132.293259 
L 247.746726 135.34365 
L 247.746726 88.367642 
L 239.729622 90.038726 
L 231.712519 91.861725 
L 223.695416 93.858344 
L 215.678313 96.054625 
L 207.66121 98.482094 
L 199.644106 101.179281 
L 191.627003 104.193784 
L 183.6099 107.5851 
L 175.592797 111.428591 
L 167.575693 115.821153 
L 159.55859 120.889493 
L 151.541487 126.802557 
L 143.524384 133.790724 
L 135.50728 142.176523 
L 127.490177 152.425834 
L 119.473074 165.237472 
L 111.455971 181.709579 
L 103.438867 203.672387 
L 103.438867 142.176523 
L 95.421764 165.237472 
L 87.404661 203.672387 
L 87.404661 49.932727 
L 71.370455 49.932727 
L 71.370455 49.932727 
" clip-path="url(#p9f8a1ea17f)" style="fill: none; stroke: #7f7f7f; stroke-width: 1.5; stroke-linecap: square"/>
   </g>
   <g id="line2d_33">
    <path d="M 544.379545 510.870121 
L 544.379545 510.868948 
L 479.136912 510.802119 
L 479.136912 510.79682 
L 479.136912 510.780481 
L 438.360266 510.75646 
L 438.360266 510.706468 
L 438.360266 510.668531 
L 422.049608 510.616737 
L 422.049608 510.57888 
L 422.049608 510.555692 
L 405.73895 510.547728 
L 405.73895 510.472274 
L 405.73895 510.390804 
L 381.272962 510.357619 
L 381.272962 510.335314 
L 381.272962 510.160904 
L 373.117633 510.186923 
L 373.117633 510.075859 
L 373.117633 509.836275 
L 356.806975 509.898492 
L 356.806975 509.796092 
L 356.806975 509.647966 
L 348.651646 509.690794 
L 348.651646 509.57979 
L 348.651646 509.564356 
L 332.340987 509.55769 
L 332.340987 509.54642 
L 332.340987 506.726218 
L 324.185658 506.863229 
L 324.185658 506.752388 
L 324.185658 49.932727 
L 71.370455 49.932727 
L 71.370455 49.932727 
" clip-path="url(#p9f8a1ea17f)" style="fill: none; stroke: #bcbd22; stroke-width: 1.5; stroke-linecap: square"/>
   </g>
   <g id="line2d_34">
    <path d="M 544.379545 510.96722 
L 544.379545 510.964988 
L 433.083289 510.947029 
L 433.083289 510.897797 
L 433.083289 510.877336 
L 377.43516 510.825841 
L 377.43516 510.808422 
L 377.43516 510.801853 
L 321.787032 510.784884 
L 321.787032 510.754314 
L 321.787032 510.727251 
L 307.875 510.750811 
L 307.875 510.63971 
L 307.875 510.616869 
L 293.962968 510.648296 
L 293.962968 510.53721 
L 293.962968 509.57489 
L 280.050936 509.673125 
L 280.050936 509.562028 
L 280.050936 78.758914 
L 266.138904 80.680659 
L 252.226872 82.87694 
L 238.31484 85.41111 
L 238.31484 49.932727 
L 71.370455 49.932727 
L 71.370455 49.932727 
" clip-path="url(#p9f8a1ea17f)" style="fill: none; stroke: #17becf; stroke-width: 1.5; stroke-linecap: square"/>
   </g>
   <g id="patch_3">
    <path d="M 47.72 534.04 
L 47.72 26.88 
" style="fill: none; stroke: #000000; stroke-width: 0.8; stroke-linejoin: miter; stroke-linecap: square"/>
   </g>
   <g id="patch_4">
    <path d="M 568.03 534.04 
L 568.03 26.88 
" style="fill: none; stroke: #000000; stroke-width: 0.8; stroke-linejoin: miter; stroke-linecap: square"/>
   </g>
   <g id="patch_5">
    <path d="M 47.72 534.04 
L 568.03 534.04 
" style="fill: none; stroke: #000000; stroke-width: 0.8; stroke-linejoin: miter; stroke-linecap: square"/>
   </g>
   <g id="patch_6">
    <path d="M 47.72 26.88 
L 568.03 26.88 
" style="fill: none; stroke: #000000; stroke-width: 0.8; stroke-linejoin: miter; stroke-linecap: square"/>
   </g>
   <g id="text_15">
    <!-- Donor Precision-Recall Curves by Sequence -->
    <g transform="translate(177.396563 20.88) scale(0.12 -0.12)">
     <defs>
      <path id="DejaVuSans-44" d="M 1259 4147 
L 1259 519 
L 2022 519 
Q 2988 519 3436 956 
Q 3884 1394 3884 2338 
Q 3884 3275 3436 3711 
Q 2988 4147 2022 4147 
L 1259 4147 
z
M 628 4666 
L 1925 4666 
Q 3281 4666 3915 4102 
Q 4550 3538 4550 2338 
Q 4550 1131 3912 565 
Q 3275 0 1925 0 
L 628 0 
L 628 4666 
z
" transform="scale(0.015625)"/>
      <path id="DejaVuSans-20" transform="scale(0.015625)"/>
      <path id="DejaVuSans-2d" d="M 313 2009 
L 1997 2009 
L 1997 1497 
L 313 1497 
L 313 2009 
z
" transform="scale(0.015625)"/>
      <path id="DejaVuSans-43" d="M 4122 4306 
L 4122 3641 
Q 3803 3938 3442 4084 
Q 3081 4231 2675 4231 
Q 1875 4231 1450 3742 
Q 1025 3253 1025 2328 
Q 1025 1406 1450 917 
Q 1875 428 2675 428 
Q 3081 428 3442 575 
Q 3803 722 4122 1019 
L 4122 359 
Q 3791 134 3420 21 
Q 3050 -91 2638 -91 
Q 1578 -91 968 557 
Q 359 1206 359 2328 
Q 359 3453 968 4101 
Q 1578 4750 2638 4750 
Q 3056 4750 3426 4639 
Q 3797 4528 4122 4306 
z
" transform="scale(0.015625)"/>
      <path id="DejaVuSans-75" d="M 544 1381 
L 544 3500 
L 1119 3500 
L 1119 1403 
Q 1119 906 1312 657 
Q 1506 409 1894 409 
Q 2359 409 2629 706 
Q 2900 1003 2900 1516 
L 2900 3500 
L 3475 3500 
L 3475 0 
L 2900 0 
L 2900 538 
Q 2691 219 2414 64 
Q 2138 -91 1772 -91 
Q 1169 -91 856 284 
Q 544 659 544 1381 
z
M 1991 3584 
L 1991 3584 
z
" transform="scale(0.015625)"/>
      <path id="DejaVuSans-76" d="M 191 3500 
L 800 3500 
L 1894 563 
L 2988 3500 
L 3597 3500 
L 2284 0 
L 1503 0 
L 191 3500 
z
" transform="scale(0.015625)"/>
      <path id="DejaVuSans-62" d="M 3116 1747 
Q 3116 2381 2855 2742 
Q 2594 3103 2138 3103 
Q 1681 3103 1420 2742 
Q 1159 2381 1159 1747 
Q 1159 1113 1420 752 
Q 1681 391 2138 391 
Q 2594 391 2855 752 
Q 3116 1113 3116 1747 
z
M 1159 2969 
Q 1341 3281 1617 3432 
Q 1894 3584 2278 3584 
Q 2916 3584 3314 3078 
Q 3713 2572 3713 1747 
Q 3713 922 3314 415 
Q 2916 -91 2278 -91 
Q 1894 -91 1617 61 
Q 1341 213 1159 525 
L 1159 0 
L 581 0 
L 581 4863 
L 1159 4863 
L 1159 2969 
z
" transform="scale(0.015625)"/>
      <path id="DejaVuSans-79" d="M 2059 -325 
Q 1816 -950 1584 -1140 
Q 1353 -1331 966 -1331 
L 506 -1331 
L 506 -850 
L 844 -850 
Q 1081 -850 1212 -737 
Q 1344 -625 1503 -206 
L 1606 56 
L 191 3500 
L 800 3500 
L 1894 763 
L 2988 3500 
L 3597 3500 
L 2059 -325 
z
" transform="scale(0.015625)"/>
      <path id="DejaVuSans-53" d="M 3425 4513 
L 3425 3897 
Q 3066 4069 2747 4153 
Q 2428 4238 2131 4238 
Q 1616 4238 1336 4038 
Q 1056 3838 1056 3469 
Q 1056 3159 1242 3001 
Q 1428 2844 1947 2747 
L 2328 2669 
Q 3034 2534 3370 2195 
Q 3706 1856 3706 1288 
Q 3706 609 3251 259 
Q 2797 -91 1919 -91 
Q 1588 -91 1214 -16 
Q 841 59 441 206 
L 441 856 
Q 825 641 1194 531 
Q 1563 422 1919 422 
Q 2459 422 2753 634 
Q 3047 847 3047 1241 
Q 3047 1584 2836 1778 
Q 2625 1972 2144 2069 
L 1759 2144 
Q 1053 2284 737 2584 
Q 422 2884 422 3419 
Q 422 4038 858 4394 
Q 1294 4750 2059 4750 
Q 2388 4750 2728 4690 
Q 3069 4631 3425 4513 
z
" transform="scale(0.015625)"/>
      <path id="DejaVuSans-71" d="M 947 1747 
Q 947 1113 1208 752 
Q 1469 391 1925 391 
Q 2381 391 2643 752 
Q 2906 1113 2906 1747 
Q 2906 2381 2643 2742 
Q 2381 3103 1925 3103 
Q 1469 3103 1208 2742 
Q 947 2381 947 1747 
z
M 2906 525 
Q 2725 213 2448 61 
Q 2172 -91 1784 -91 
Q 1150 -91 751 415 
Q 353 922 353 1747 
Q 353 2572 751 3078 
Q 1150 3584 1784 3584 
Q 2172 3584 2448 3432 
Q 2725 3281 2906 2969 
L 2906 3500 
L 3481 3500 
L 3481 -1331 
L 2906 -1331 
L 2906 525 
z
" transform="scale(0.015625)"/>
     </defs>
     <use xlink:href="#DejaVuSans-44"/>
     <use xlink:href="#DejaVuSans-6f" transform="translate(77.001953 0)"/>
     <use xlink:href="#DejaVuSans-6e" transform="translate(138.183594 0)"/>
     <use xlink:href="#DejaVuSans-6f" transform="translate(201.5625 0)"/>
     <use xlink:href="#DejaVuSans-72" transform="translate(262.744141 0)"/>
     <use xlink:href="#DejaVuSans-20" transform="translate(303.857422 0)"/>
     <use xlink:href="#DejaVuSans-50" transform="translate(335.644531 0)"/>
     <use xlink:href="#DejaVuSans-72" transform="translate(394.197266 0)"/>
     <use xlink:href="#DejaVuSans-65" transform="translate(433.060547 0)"/>
     <use xlink:href="#DejaVuSans-63" transform="translate(494.583984 0)"/>
     <use xlink:href="#DejaVuSans-69" transform="translate(549.564453 0)"/>
     <use xlink:href="#DejaVuSans-73" transform="translate(577.347656 0)"/>
     <use xlink:href="#DejaVuSans-69" transform="translate(629.447266 0)"/>
     <use xlink:href="#DejaVuSans-6f" transform="translate(657.230469 0)"/>
     <use xlink:href="#DejaVuSans-6e" transform="translate(718.412109 0)"/>
     <use xlink:href="#DejaVuSans-2d" transform="translate(781.791016 0)"/>
     <use xlink:href="#DejaVuSans-52" transform="translate(817.875 0)"/>
     <use xlink:href="#DejaVuSans-65" transform="translate(882.857422 0)"/>
     <use xlink:href="#DejaVuSans-63" transform="translate(944.380859 0)"/>
     <use xlink:href="#DejaVuSans-61" transform="translate(999.361328 0)"/>
     <use xlink:href="#DejaVuSans-6c" transform="translate(1060.640625 0)"/>
     <use xlink:href="#DejaVuSans-6c" transform="translate(1088.423828 0)"/>
     <use xlink:href="#DejaVuSans-20" transform="translate(1116.207031 0)"/>
     <use xlink:href="#DejaVuSans-43" transform="translate(1147.994141 0)"/>
     <use xlink:href="#DejaVuSans-75" transform="translate(1217.818359 0)"/>
     <use xlink:href="#DejaVuSans-72" transform="translate(1281.197266 0)"/>
     <use xlink:href="#DejaVuSans-76" transform="translate(1322.310547 0)"/>
     <use xlink:href="#DejaVuSans-65" transform="translate(1381.490234 0)"/>
     <use xlink:href="#DejaVuSans-73" transform="translate(1443.013672 0)"/>
     <use xlink:href="#DejaVuSans-20" transform="translate(1495.113281 0)"/>
     <use xlink:href="#DejaVuSans-62" transform="translate(1526.900391 0)"/>
     <use xlink:href="#DejaVuSans-79" transform="translate(1590.376953 0)"/>
     <use xlink:href="#DejaVuSans-20" transform="translate(1649.556641 0)"/>
     <use xlink:href="#DejaVuSans-53" transform="translate(1681.34375 0)"/>
     <use xlink:href="#DejaVuSans-65" transform="translate(1744.820312 0)"/>
     <use xlink:href="#DejaVuSans-71" transform="translate(1806.34375 0)"/>
     <use xlink:href="#DejaVuSans-75" transform="translate(1869.820312 0)"/>
     <use xlink:href="#DejaVuSans-65" transform="translate(1933.199219 0)"/>
     <use xlink:href="#DejaVuSans-6e" transform="translate(1994.722656 0)"/>
     <use xlink:href="#DejaVuSans-63" transform="translate(2058.101562 0)"/>
     <use xlink:href="#DejaVuSans-65" transform="translate(2113.082031 0)"/>
    </g>
   </g>
   <g id="legend_1">
    <g id="patch_7">
     <path d="M 601.0455 181.66125 
L 844.115812 181.66125 
Q 846.115812 181.66125 846.115812 179.66125 
L 846.115812 33.88 
Q 846.115812 31.88 844.115812 31.88 
L 601.0455 31.88 
Q 599.0455 31.88 599.0455 33.88 
L 599.0455 179.66125 
Q 599.0455 181.66125 601.0455 181.66125 
z
" style="fill: #ffffff; opacity: 0.8; stroke: #cccccc; stroke-linejoin: miter"/>
    </g>
    <g id="line2d_35">
     <path d="M 603.0455 39.978438 
L 613.0455 39.978438 
L 623.0455 39.978438 
" style="fill: none; stroke: #1f77b4; stroke-width: 1.5; stroke-linecap: square"/>
    </g>
    <g id="text_16">
     <!-- GT (AUPRC=0.936, n=3807), topk=0.911) -->
     <g transform="translate(631.0455 43.478438) scale(0.1 -0.1)">
      <defs>
       <path id="DejaVuSans-47" d="M 3809 666 
L 3809 1919 
L 2778 1919 
L 2778 2438 
L 4434 2438 
L 4434 434 
Q 4069 175 3628 42 
Q 3188 -91 2688 -91 
Q 1594 -91 976 548 
Q 359 1188 359 2328 
Q 359 3472 976 4111 
Q 1594 4750 2688 4750 
Q 3144 4750 3555 4637 
Q 3966 4525 4313 4306 
L 4313 3634 
Q 3963 3931 3569 4081 
Q 3175 4231 2741 4231 
Q 1884 4231 1454 3753 
Q 1025 3275 1025 2328 
Q 1025 1384 1454 906 
Q 1884 428 2741 428 
Q 3075 428 3337 486 
Q 3600 544 3809 666 
z
" transform="scale(0.015625)"/>
       <path id="DejaVuSans-54" d="M -19 4666 
L 3928 4666 
L 3928 4134 
L 2272 4134 
L 2272 0 
L 1638 0 
L 1638 4134 
L -19 4134 
L -19 4666 
z
" transform="scale(0.015625)"/>
       <path id="DejaVuSans-28" d="M 1984 4856 
Q 1566 4138 1362 3434 
Q 1159 2731 1159 2009 
Q 1159 1288 1364 580 
Q 1569 -128 1984 -844 
L 1484 -844 
Q 1016 -109 783 600 
Q 550 1309 550 2009 
Q 550 2706 781 3412 
Q 1013 4119 1484 4856 
L 1984 4856 
z
" transform="scale(0.015625)"/>
       <path id="DejaVuSans-41" d="M 2188 4044 
L 1331 1722 
L 3047 1722 
L 2188 4044 
z
M 1831 4666 
L 2547 4666 
L 4325 0 
L 3669 0 
L 3244 1197 
L 1141 1197 
L 716 0 
L 50 0 
L 1831 4666 
z
" transform="scale(0.015625)"/>
       <path id="DejaVuSans-55" d="M 556 4666 
L 1191 4666 
L 1191 1831 
Q 1191 1081 1462 751 
Q 1734 422 2344 422 
Q 2950 422 3222 751 
Q 3494 1081 3494 1831 
L 3494 4666 
L 4128 4666 
L 4128 1753 
Q 4128 841 3676 375 
Q 3225 -91 2344 -91 
Q 1459 -91 1007 375 
Q 556 841 556 1753 
L 556 4666 
z
" transform="scale(0.015625)"/>
       <path id="DejaVuSans-3d" d="M 678 2906 
L 4684 2906 
L 4684 2381 
L 678 2381 
L 678 2906 
z
M 678 1631 
L 4684 1631 
L 4684 1100 
L 678 1100 
L 678 1631 
z
" transform="scale(0.015625)"/>
       <path id="DejaVuSans-39" d="M 703 97 
L 703 672 
Q 941 559 1184 500 
Q 1428 441 1663 441 
Q 2288 441 2617 861 
Q 2947 1281 2994 2138 
Q 2813 1869 2534 1725 
Q 2256 1581 1919 1581 
Q 1219 1581 811 2004 
Q 403 2428 403 3163 
Q 403 3881 828 4315 
Q 1253 4750 1959 4750 
Q 2769 4750 3195 4129 
Q 3622 3509 3622 2328 
Q 3622 1225 3098 567 
Q 2575 -91 1691 -91 
Q 1453 -91 1209 -44 
Q 966 3 703 97 
z
M 1959 2075 
Q 2384 2075 2632 2365 
Q 2881 2656 2881 3163 
Q 2881 3666 2632 3958 
Q 2384 4250 1959 4250 
Q 1534 4250 1286 3958 
Q 1038 3666 1038 3163 
Q 1038 2656 1286 2365 
Q 1534 2075 1959 2075 
z
" transform="scale(0.015625)"/>
       <path id="DejaVuSans-33" d="M 2597 2516 
Q 3050 2419 3304 2112 
Q 3559 1806 3559 1356 
Q 3559 666 3084 287 
Q 2609 -91 1734 -91 
Q 1441 -91 1130 -33 
Q 819 25 488 141 
L 488 750 
Q 750 597 1062 519 
Q 1375 441 1716 441 
Q 2309 441 2620 675 
Q 2931 909 2931 1356 
Q 2931 1769 2642 2001 
Q 2353 2234 1838 2234 
L 1294 2234 
L 1294 2753 
L 1863 2753 
Q 2328 2753 2575 2939 
Q 2822 3125 2822 3475 
Q 2822 3834 2567 4026 
Q 2313 4219 1838 4219 
Q 1578 4219 1281 4162 
Q 984 4106 628 3988 
L 628 4550 
Q 988 4650 1302 4700 
Q 1616 4750 1894 4750 
Q 2613 4750 3031 4423 
Q 3450 4097 3450 3541 
Q 3450 3153 3228 2886 
Q 3006 2619 2597 2516 
z
" transform="scale(0.015625)"/>
       <path id="DejaVuSans-2c" d="M 750 794 
L 1409 794 
L 1409 256 
L 897 -744 
L 494 -744 
L 750 256 
L 750 794 
z
" transform="scale(0.015625)"/>
       <path id="DejaVuSans-37" d="M 525 4666 
L 3525 4666 
L 3525 4397 
L 1831 0 
L 1172 0 
L 2766 4134 
L 525 4134 
L 525 4666 
z
" transform="scale(0.015625)"/>
       <path id="DejaVuSans-29" d="M 513 4856 
L 1013 4856 
Q 1481 4119 1714 3412 
Q 1947 2706 1947 2009 
Q 1947 1309 1714 600 
Q 1481 -109 1013 -844 
L 513 -844 
Q 928 -128 1133 580 
Q 1338 1288 1338 2009 
Q 1338 2731 1133 3434 
Q 928 4138 513 4856 
z
" transform="scale(0.015625)"/>
       <path id="DejaVuSans-74" d="M 1172 4494 
L 1172 3500 
L 2356 3500 
L 2356 3053 
L 1172 3053 
L 1172 1153 
Q 1172 725 1289 603 
Q 1406 481 1766 481 
L 2356 481 
L 2356 0 
L 1766 0 
Q 1100 0 847 248 
Q 594 497 594 1153 
L 594 3053 
L 172 3053 
L 172 3500 
L 594 3500 
L 594 4494 
L 1172 4494 
z
" transform="scale(0.015625)"/>
       <path id="DejaVuSans-70" d="M 1159 525 
L 1159 -1331 
L 581 -1331 
L 581 3500 
L 1159 3500 
L 1159 2969 
Q 1341 3281 1617 3432 
Q 1894 3584 2278 3584 
Q 2916 3584 3314 3078 
Q 3713 2572 3713 1747 
Q 3713 922 3314 415 
Q 2916 -91 2278 -91 
Q 1894 -91 1617 61 
Q 1341 213 1159 525 
z
M 3116 1747 
Q 3116 2381 2855 2742 
Q 2594 3103 2138 3103 
Q 1681 3103 1420 2742 
Q 1159 2381 1159 1747 
Q 1159 1113 1420 752 
Q 1681 391 2138 391 
Q 2594 391 2855 752 
Q 3116 1113 3116 1747 
z
" transform="scale(0.015625)"/>
       <path id="DejaVuSans-6b" d="M 581 4863 
L 1159 4863 
L 1159 1991 
L 2875 3500 
L 3609 3500 
L 1753 1863 
L 3688 0 
L 2938 0 
L 1159 1709 
L 1159 0 
L 581 0 
L 581 4863 
z
" transform="scale(0.015625)"/>
      </defs>
      <use xlink:href="#DejaVuSans-47"/>
      <use xlink:href="#DejaVuSans-54" transform="translate(73.865234 0)"/>
      <use xlink:href="#DejaVuSans-20" transform="translate(134.949219 0)"/>
      <use xlink:href="#DejaVuSans-28" transform="translate(166.736328 0)"/>
      <use xlink:href="#DejaVuSans-41" transform="translate(205.75 0)"/>
      <use xlink:href="#DejaVuSans-55" transform="translate(274.158203 0)"/>
      <use xlink:href="#DejaVuSans-50" transform="translate(347.351562 0)"/>
      <use xlink:href="#DejaVuSans-52" transform="translate(407.654297 0)"/>
      <use xlink:href="#DejaVuSans-43" transform="translate(472.136719 0)"/>
      <use xlink:href="#DejaVuSans-3d" transform="translate(541.960938 0)"/>
      <use xlink:href="#DejaVuSans-30" transform="translate(625.75 0)"/>
      <use xlink:href="#DejaVuSans-2e" transform="translate(689.373047 0)"/>
      <use xlink:href="#DejaVuSans-39" transform="translate(721.160156 0)"/>
      <use xlink:href="#DejaVuSans-33" transform="translate(784.783203 0)"/>
      <use xlink:href="#DejaVuSans-36" transform="translate(848.40625 0)"/>
      <use xlink:href="#DejaVuSans-2c" transform="translate(912.029297 0)"/>
      <use xlink:href="#DejaVuSans-20" transform="translate(943.816406 0)"/>
      <use xlink:href="#DejaVuSans-6e" transform="translate(975.603516 0)"/>
      <use xlink:href="#DejaVuSans-3d" transform="translate(1038.982422 0)"/>
      <use xlink:href="#DejaVuSans-33" transform="translate(1122.771484 0)"/>
      <use xlink:href="#DejaVuSans-38" transform="translate(1186.394531 0)"/>
      <use xlink:href="#DejaVuSans-30" transform="translate(1250.017578 0)"/>
      <use xlink:href="#DejaVuSans-37" transform="translate(1313.640625 0)"/>
      <use xlink:href="#DejaVuSans-29" transform="translate(1377.263672 0)"/>
      <use xlink:href="#DejaVuSans-2c" transform="translate(1416.277344 0)"/>
      <use xlink:href="#DejaVuSans-20" transform="translate(1448.064453 0)"/>
      <use xlink:href="#DejaVuSans-74" transform="translate(1479.851562 0)"/>
      <use xlink:href="#DejaVuSans-6f" transform="translate(1519.060547 0)"/>
      <use xlink:href="#DejaVuSans-70" transform="translate(1580.242188 0)"/>
      <use xlink:href="#DejaVuSans-6b" transform="translate(1643.71875 0)"/>
      <use xlink:href="#DejaVuSans-3d" transform="translate(1701.628906 0)"/>
      <use xlink:href="#DejaVuSans-30" transform="translate(1785.417969 0)"/>
      <use xlink:href="#DejaVuSans-2e" transform="translate(1849.041016 0)"/>
      <use xlink:href="#DejaVuSans-39" transform="translate(1880.828125 0)"/>
      <use xlink:href="#DejaVuSans-31" transform="translate(1944.451172 0)"/>
      <use xlink:href="#DejaVuSans-31" transform="translate(2008.074219 0)"/>
      <use xlink:href="#DejaVuSans-29" transform="translate(2071.697266 0)"/>
     </g>
    </g>
    <g id="line2d_36">
     <path d="M 603.0455 54.656563 
L 613.0455 54.656563 
L 623.0455 54.656563 
" style="fill: none; stroke: #ff7f0e; stroke-width: 1.5; stroke-linecap: square"/>
    </g>
    <g id="text_17">
     <!-- TT (AUPRC=0.410, n=60), topk=0.448) -->
     <g transform="translate(631.0455 58.156563) scale(0.1 -0.1)">
      <use xlink:href="#DejaVuSans-54"/>
      <use xlink:href="#DejaVuSans-54" transform="translate(59.333984 0)"/>
      <use xlink:href="#DejaVuSans-20" transform="translate(120.417969 0)"/>
      <use xlink:href="#DejaVuSans-28" transform="translate(152.205078 0)"/>
      <use xlink:href="#DejaVuSans-41" transform="translate(191.21875 0)"/>
      <use xlink:href="#DejaVuSans-55" transform="translate(259.626953 0)"/>
      <use xlink:href="#DejaVuSans-50" transform="translate(332.820312 0)"/>
      <use xlink:href="#DejaVuSans-52" transform="translate(393.123047 0)"/>
      <use xlink:href="#DejaVuSans-43" transform="translate(457.605469 0)"/>
      <use xlink:href="#DejaVuSans-3d" transform="translate(527.429688 0)"/>
      <use xlink:href="#DejaVuSans-30" transform="translate(611.21875 0)"/>
      <use xlink:href="#DejaVuSans-2e" transform="translate(674.841797 0)"/>
      <use xlink:href="#DejaVuSans-34" transform="translate(706.628906 0)"/>
      <use xlink:href="#DejaVuSans-31" transform="translate(770.251953 0)"/>
      <use xlink:href="#DejaVuSans-30" transform="translate(833.875 0)"/>
      <use xlink:href="#DejaVuSans-2c" transform="translate(897.498047 0)"/>
      <use xlink:href="#DejaVuSans-20" transform="translate(929.285156 0)"/>
      <use xlink:href="#DejaVuSans-6e" transform="translate(961.072266 0)"/>
      <use xlink:href="#DejaVuSans-3d" transform="translate(1024.451172 0)"/>
      <use xlink:href="#DejaVuSans-36" transform="translate(1108.240234 0)"/>
      <use xlink:href="#DejaVuSans-30" transform="translate(1171.863281 0)"/>
      <use xlink:href="#DejaVuSans-29" transform="translate(1235.486328 0)"/>
      <use xlink:href="#DejaVuSans-2c" transform="translate(1274.5 0)"/>
      <use xlink:href="#DejaVuSans-20" transform="translate(1306.287109 0)"/>
      <use xlink:href="#DejaVuSans-74" transform="translate(1338.074219 0)"/>
      <use xlink:href="#DejaVuSans-6f" transform="translate(1377.283203 0)"/>
      <use xlink:href="#DejaVuSans-70" transform="translate(1438.464844 0)"/>
      <use xlink:href="#DejaVuSans-6b" transform="translate(1501.941406 0)"/>
      <use xlink:href="#DejaVuSans-3d" transform="translate(1559.851562 0)"/>
      <use xlink:href="#DejaVuSans-30" transform="translate(1643.640625 0)"/>
      <use xlink:href="#DejaVuSans-2e" transform="translate(1707.263672 0)"/>
      <use xlink:href="#DejaVuSans-34" transform="translate(1739.050781 0)"/>
      <use xlink:href="#DejaVuSans-34" transform="translate(1802.673828 0)"/>
      <use xlink:href="#DejaVuSans-38" transform="translate(1866.296875 0)"/>
      <use xlink:href="#DejaVuSans-29" transform="translate(1929.919922 0)"/>
     </g>
    </g>
    <g id="line2d_37">
     <path d="M 603.0455 69.334688 
L 613.0455 69.334688 
L 623.0455 69.334688 
" style="fill: none; stroke: #2ca02c; stroke-width: 1.5; stroke-linecap: square"/>
    </g>
    <g id="text_18">
     <!-- CT (AUPRC=0.474, n=45), topk=0.492) -->
     <g transform="translate(631.0455 72.834688) scale(0.1 -0.1)">
      <defs>
       <path id="DejaVuSans-35" d="M 691 4666 
L 3169 4666 
L 3169 4134 
L 1269 4134 
L 1269 2991 
Q 1406 3038 1543 3061 
Q 1681 3084 1819 3084 
Q 2600 3084 3056 2656 
Q 3513 2228 3513 1497 
Q 3513 744 3044 326 
Q 2575 -91 1722 -91 
Q 1428 -91 1123 -41 
Q 819 9 494 109 
L 494 744 
Q 775 591 1075 516 
Q 1375 441 1709 441 
Q 2250 441 2565 725 
Q 2881 1009 2881 1497 
Q 2881 1984 2565 2268 
Q 2250 2553 1709 2553 
Q 1456 2553 1204 2497 
Q 953 2441 691 2322 
L 691 4666 
z
" transform="scale(0.015625)"/>
      </defs>
      <use xlink:href="#DejaVuSans-43"/>
      <use xlink:href="#DejaVuSans-54" transform="translate(69.824219 0)"/>
      <use xlink:href="#DejaVuSans-20" transform="translate(130.908203 0)"/>
      <use xlink:href="#DejaVuSans-28" transform="translate(162.695312 0)"/>
      <use xlink:href="#DejaVuSans-41" transform="translate(201.708984 0)"/>
      <use xlink:href="#DejaVuSans-55" transform="translate(270.117188 0)"/>
      <use xlink:href="#DejaVuSans-50" transform="translate(343.310547 0)"/>
      <use xlink:href="#DejaVuSans-52" transform="translate(403.613281 0)"/>
      <use xlink:href="#DejaVuSans-43" transform="translate(468.095703 0)"/>
      <use xlink:href="#DejaVuSans-3d" transform="translate(537.919922 0)"/>
      <use xlink:href="#DejaVuSans-30" transform="translate(621.708984 0)"/>
      <use xlink:href="#DejaVuSans-2e" transform="translate(685.332031 0)"/>
      <use xlink:href="#DejaVuSans-34" transform="translate(717.119141 0)"/>
      <use xlink:href="#DejaVuSans-37" transform="translate(780.742188 0)"/>
      <use xlink:href="#DejaVuSans-34" transform="translate(844.365234 0)"/>
      <use xlink:href="#DejaVuSans-2c" transform="translate(907.988281 0)"/>
      <use xlink:href="#DejaVuSans-20" transform="translate(939.775391 0)"/>
      <use xlink:href="#DejaVuSans-6e" transform="translate(971.5625 0)"/>
      <use xlink:href="#DejaVuSans-3d" transform="translate(1034.941406 0)"/>
      <use xlink:href="#DejaVuSans-34" transform="translate(1118.730469 0)"/>
      <use xlink:href="#DejaVuSans-35" transform="translate(1182.353516 0)"/>
      <use xlink:href="#DejaVuSans-29" transform="translate(1245.976562 0)"/>
      <use xlink:href="#DejaVuSans-2c" transform="translate(1284.990234 0)"/>
      <use xlink:href="#DejaVuSans-20" transform="translate(1316.777344 0)"/>
      <use xlink:href="#DejaVuSans-74" transform="translate(1348.564453 0)"/>
      <use xlink:href="#DejaVuSans-6f" transform="translate(1387.773438 0)"/>
      <use xlink:href="#DejaVuSans-70" transform="translate(1448.955078 0)"/>
      <use xlink:href="#DejaVuSans-6b" transform="translate(1512.431641 0)"/>
      <use xlink:href="#DejaVuSans-3d" transform="translate(1570.341797 0)"/>
      <use xlink:href="#DejaVuSans-30" transform="translate(1654.130859 0)"/>
      <use xlink:href="#DejaVuSans-2e" transform="translate(1717.753906 0)"/>
      <use xlink:href="#DejaVuSans-34" transform="translate(1749.541016 0)"/>
      <use xlink:href="#DejaVuSans-39" transform="translate(1813.164062 0)"/>
      <use xlink:href="#DejaVuSans-32" transform="translate(1876.787109 0)"/>
      <use xlink:href="#DejaVuSans-29" transform="translate(1940.410156 0)"/>
     </g>
    </g>
    <g id="line2d_38">
     <path d="M 603.0455 84.012813 
L 613.0455 84.012813 
L 623.0455 84.012813 
" style="fill: none; stroke: #d62728; stroke-width: 1.5; stroke-linecap: square"/>
    </g>
    <g id="text_19">
     <!-- TG (AUPRC=0.469, n=40), topk=0.470) -->
     <g transform="translate(631.0455 87.512813) scale(0.1 -0.1)">
      <use xlink:href="#DejaVuSans-54"/>
      <use xlink:href="#DejaVuSans-47" transform="translate(61.083984 0)"/>
      <use xlink:href="#DejaVuSans-20" transform="translate(138.574219 0)"/>
      <use xlink:href="#DejaVuSans-28" transform="translate(170.361328 0)"/>
      <use xlink:href="#DejaVuSans-41" transform="translate(209.375 0)"/>
      <use xlink:href="#DejaVuSans-55" transform="translate(277.783203 0)"/>
      <use xlink:href="#DejaVuSans-50" transform="translate(350.976562 0)"/>
      <use xlink:href="#DejaVuSans-52" transform="translate(411.279297 0)"/>
      <use xlink:href="#DejaVuSans-43" transform="translate(475.761719 0)"/>
      <use xlink:href="#DejaVuSans-3d" transform="translate(545.585938 0)"/>
      <use xlink:href="#DejaVuSans-30" transform="translate(629.375 0)"/>
      <use xlink:href="#DejaVuSans-2e" transform="translate(692.998047 0)"/>
      <use xlink:href="#DejaVuSans-34" transform="translate(724.785156 0)"/>
      <use xlink:href="#DejaVuSans-36" transform="translate(788.408203 0)"/>
      <use xlink:href="#DejaVuSans-39" transform="translate(852.03125 0)"/>
      <use xlink:href="#DejaVuSans-2c" transform="translate(915.654297 0)"/>
      <use xlink:href="#DejaVuSans-20" transform="translate(947.441406 0)"/>
      <use xlink:href="#DejaVuSans-6e" transform="translate(979.228516 0)"/>
      <use xlink:href="#DejaVuSans-3d" transform="translate(1042.607422 0)"/>
      <use xlink:href="#DejaVuSans-34" transform="translate(1126.396484 0)"/>
      <use xlink:href="#DejaVuSans-30" transform="translate(1190.019531 0)"/>
      <use xlink:href="#DejaVuSans-29" transform="translate(1253.642578 0)"/>
      <use xlink:href="#DejaVuSans-2c" transform="translate(1292.65625 0)"/>
      <use xlink:href="#DejaVuSans-20" transform="translate(1324.443359 0)"/>
      <use xlink:href="#DejaVuSans-74" transform="translate(1356.230469 0)"/>
      <use xlink:href="#DejaVuSans-6f" transform="translate(1395.439453 0)"/>
      <use xlink:href="#DejaVuSans-70" transform="translate(1456.621094 0)"/>
      <use xlink:href="#DejaVuSans-6b" transform="translate(1520.097656 0)"/>
      <use xlink:href="#DejaVuSans-3d" transform="translate(1578.007812 0)"/>
      <use xlink:href="#DejaVuSans-30" transform="translate(1661.796875 0)"/>
      <use xlink:href="#DejaVuSans-2e" transform="translate(1725.419922 0)"/>
      <use xlink:href="#DejaVuSans-34" transform="translate(1757.207031 0)"/>
      <use xlink:href="#DejaVuSans-37" transform="translate(1820.830078 0)"/>
      <use xlink:href="#DejaVuSans-30" transform="translate(1884.453125 0)"/>
      <use xlink:href="#DejaVuSans-29" transform="translate(1948.076172 0)"/>
     </g>
    </g>
    <g id="line2d_39">
     <path d="M 603.0455 98.690938 
L 613.0455 98.690938 
L 623.0455 98.690938 
" style="fill: none; stroke: #9467bd; stroke-width: 1.5; stroke-linecap: square"/>
    </g>
    <g id="text_20">
     <!-- GC (AUPRC=0.658, n=37), topk=0.670) -->
     <g transform="translate(631.0455 102.190938) scale(0.1 -0.1)">
      <use xlink:href="#DejaVuSans-47"/>
      <use xlink:href="#DejaVuSans-43" transform="translate(77.490234 0)"/>
      <use xlink:href="#DejaVuSans-20" transform="translate(147.314453 0)"/>
      <use xlink:href="#DejaVuSans-28" transform="translate(179.101562 0)"/>
      <use xlink:href="#DejaVuSans-41" transform="translate(218.115234 0)"/>
      <use xlink:href="#DejaVuSans-55" transform="translate(286.523438 0)"/>
      <use xlink:href="#DejaVuSans-50" transform="translate(359.716797 0)"/>
      <use xlink:href="#DejaVuSans-52" transform="translate(420.019531 0)"/>
      <use xlink:href="#DejaVuSans-43" transform="translate(484.501953 0)"/>
      <use xlink:href="#DejaVuSans-3d" transform="translate(554.326172 0)"/>
      <use xlink:href="#DejaVuSans-30" transform="translate(638.115234 0)"/>
      <use xlink:href="#DejaVuSans-2e" transform="translate(701.738281 0)"/>
      <use xlink:href="#DejaVuSans-36" transform="translate(733.525391 0)"/>
      <use xlink:href="#DejaVuSans-35" transform="translate(797.148438 0)"/>
      <use xlink:href="#DejaVuSans-38" transform="translate(860.771484 0)"/>
      <use xlink:href="#DejaVuSans-2c" transform="translate(924.394531 0)"/>
      <use xlink:href="#DejaVuSans-20" transform="translate(956.181641 0)"/>
      <use xlink:href="#DejaVuSans-6e" transform="translate(987.96875 0)"/>
      <use xlink:href="#DejaVuSans-3d" transform="translate(1051.347656 0)"/>
      <use xlink:href="#DejaVuSans-33" transform="translate(1135.136719 0)"/>
      <use xlink:href="#DejaVuSans-37" transform="translate(1198.759766 0)"/>
      <use xlink:href="#DejaVuSans-29" transform="translate(1262.382812 0)"/>
      <use xlink:href="#DejaVuSans-2c" transform="translate(1301.396484 0)"/>
      <use xlink:href="#DejaVuSans-20" transform="translate(1333.183594 0)"/>
      <use xlink:href="#DejaVuSans-74" transform="translate(1364.970703 0)"/>
      <use xlink:href="#DejaVuSans-6f" transform="translate(1404.179688 0)"/>
      <use xlink:href="#DejaVuSans-70" transform="translate(1465.361328 0)"/>
      <use xlink:href="#DejaVuSans-6b" transform="translate(1528.837891 0)"/>
      <use xlink:href="#DejaVuSans-3d" transform="translate(1586.748047 0)"/>
      <use xlink:href="#DejaVuSans-30" transform="translate(1670.537109 0)"/>
      <use xlink:href="#DejaVuSans-2e" transform="translate(1734.160156 0)"/>
      <use xlink:href="#DejaVuSans-36" transform="translate(1765.947266 0)"/>
      <use xlink:href="#DejaVuSans-37" transform="translate(1829.570312 0)"/>
      <use xlink:href="#DejaVuSans-30" transform="translate(1893.193359 0)"/>
      <use xlink:href="#DejaVuSans-29" transform="translate(1956.816406 0)"/>
     </g>
    </g>
    <g id="line2d_40">
     <path d="M 603.0455 113.369063 
L 613.0455 113.369063 
L 623.0455 113.369063 
" style="fill: none; stroke: #8c564b; stroke-width: 1.5; stroke-linecap: square"/>
    </g>
    <g id="text_21">
     <!-- TC (AUPRC=0.359, n=24), topk=0.391) -->
     <g transform="translate(631.0455 116.869063) scale(0.1 -0.1)">
      <use xlink:href="#DejaVuSans-54"/>
      <use xlink:href="#DejaVuSans-43" transform="translate(55.208984 0)"/>
      <use xlink:href="#DejaVuSans-20" transform="translate(125.033203 0)"/>
      <use xlink:href="#DejaVuSans-28" transform="translate(156.820312 0)"/>
      <use xlink:href="#DejaVuSans-41" transform="translate(195.833984 0)"/>
      <use xlink:href="#DejaVuSans-55" transform="translate(264.242188 0)"/>
      <use xlink:href="#DejaVuSans-50" transform="translate(337.435547 0)"/>
      <use xlink:href="#DejaVuSans-52" transform="translate(397.738281 0)"/>
      <use xlink:href="#DejaVuSans-43" transform="translate(462.220703 0)"/>
      <use xlink:href="#DejaVuSans-3d" transform="translate(532.044922 0)"/>
      <use xlink:href="#DejaVuSans-30" transform="translate(615.833984 0)"/>
      <use xlink:href="#DejaVuSans-2e" transform="translate(679.457031 0)"/>
      <use xlink:href="#DejaVuSans-33" transform="translate(711.244141 0)"/>
      <use xlink:href="#DejaVuSans-35" transform="translate(774.867188 0)"/>
      <use xlink:href="#DejaVuSans-39" transform="translate(838.490234 0)"/>
      <use xlink:href="#DejaVuSans-2c" transform="translate(902.113281 0)"/>
      <use xlink:href="#DejaVuSans-20" transform="translate(933.900391 0)"/>
      <use xlink:href="#DejaVuSans-6e" transform="translate(965.6875 0)"/>
      <use xlink:href="#DejaVuSans-3d" transform="translate(1029.066406 0)"/>
      <use xlink:href="#DejaVuSans-32" transform="translate(1112.855469 0)"/>
      <use xlink:href="#DejaVuSans-34" transform="translate(1176.478516 0)"/>
      <use xlink:href="#DejaVuSans-29" transform="translate(1240.101562 0)"/>
      <use xlink:href="#DejaVuSans-2c" transform="translate(1279.115234 0)"/>
      <use xlink:href="#DejaVuSans-20" transform="translate(1310.902344 0)"/>
      <use xlink:href="#DejaVuSans-74" transform="translate(1342.689453 0)"/>
      <use xlink:href="#DejaVuSans-6f" transform="translate(1381.898438 0)"/>
      <use xlink:href="#DejaVuSans-70" transform="translate(1443.080078 0)"/>
      <use xlink:href="#DejaVuSans-6b" transform="translate(1506.556641 0)"/>
      <use xlink:href="#DejaVuSans-3d" transform="translate(1564.466797 0)"/>
      <use xlink:href="#DejaVuSans-30" transform="translate(1648.255859 0)"/>
      <use xlink:href="#DejaVuSans-2e" transform="translate(1711.878906 0)"/>
      <use xlink:href="#DejaVuSans-33" transform="translate(1743.666016 0)"/>
      <use xlink:href="#DejaVuSans-39" transform="translate(1807.289062 0)"/>
      <use xlink:href="#DejaVuSans-31" transform="translate(1870.912109 0)"/>
      <use xlink:href="#DejaVuSans-29" transform="translate(1934.535156 0)"/>
     </g>
    </g>
    <g id="line2d_41">
     <path d="M 603.0455 128.047188 
L 613.0455 128.047188 
L 623.0455 128.047188 
" style="fill: none; stroke: #e377c2; stroke-width: 1.5; stroke-linecap: square"/>
    </g>
    <g id="text_22">
     <!-- CA (AUPRC=0.333, n=23), topk=0.415) -->
     <g transform="translate(631.0455 131.547188) scale(0.1 -0.1)">
      <use xlink:href="#DejaVuSans-43"/>
      <use xlink:href="#DejaVuSans-41" transform="translate(69.824219 0)"/>
      <use xlink:href="#DejaVuSans-20" transform="translate(138.232422 0)"/>
      <use xlink:href="#DejaVuSans-28" transform="translate(170.019531 0)"/>
      <use xlink:href="#DejaVuSans-41" transform="translate(209.033203 0)"/>
      <use xlink:href="#DejaVuSans-55" transform="translate(277.441406 0)"/>
      <use xlink:href="#DejaVuSans-50" transform="translate(350.634766 0)"/>
      <use xlink:href="#DejaVuSans-52" transform="translate(410.9375 0)"/>
      <use xlink:href="#DejaVuSans-43" transform="translate(475.419922 0)"/>
      <use xlink:href="#DejaVuSans-3d" transform="translate(545.244141 0)"/>
      <use xlink:href="#DejaVuSans-30" transform="translate(629.033203 0)"/>
      <use xlink:href="#DejaVuSans-2e" transform="translate(692.65625 0)"/>
      <use xlink:href="#DejaVuSans-33" transform="translate(724.443359 0)"/>
      <use xlink:href="#DejaVuSans-33" transform="translate(788.066406 0)"/>
      <use xlink:href="#DejaVuSans-33" transform="translate(851.689453 0)"/>
      <use xlink:href="#DejaVuSans-2c" transform="translate(915.3125 0)"/>
      <use xlink:href="#DejaVuSans-20" transform="translate(947.099609 0)"/>
      <use xlink:href="#DejaVuSans-6e" transform="translate(978.886719 0)"/>
      <use xlink:href="#DejaVuSans-3d" transform="translate(1042.265625 0)"/>
      <use xlink:href="#DejaVuSans-32" transform="translate(1126.054688 0)"/>
      <use xlink:href="#DejaVuSans-33" transform="translate(1189.677734 0)"/>
      <use xlink:href="#DejaVuSans-29" transform="translate(1253.300781 0)"/>
      <use xlink:href="#DejaVuSans-2c" transform="translate(1292.314453 0)"/>
      <use xlink:href="#DejaVuSans-20" transform="translate(1324.101562 0)"/>
      <use xlink:href="#DejaVuSans-74" transform="translate(1355.888672 0)"/>
      <use xlink:href="#DejaVuSans-6f" transform="translate(1395.097656 0)"/>
      <use xlink:href="#DejaVuSans-70" transform="translate(1456.279297 0)"/>
      <use xlink:href="#DejaVuSans-6b" transform="translate(1519.755859 0)"/>
      <use xlink:href="#DejaVuSans-3d" transform="translate(1577.666016 0)"/>
      <use xlink:href="#DejaVuSans-30" transform="translate(1661.455078 0)"/>
      <use xlink:href="#DejaVuSans-2e" transform="translate(1725.078125 0)"/>
      <use xlink:href="#DejaVuSans-34" transform="translate(1756.865234 0)"/>
      <use xlink:href="#DejaVuSans-31" transform="translate(1820.488281 0)"/>
      <use xlink:href="#DejaVuSans-35" transform="translate(1884.111328 0)"/>
      <use xlink:href="#DejaVuSans-29" transform="translate(1947.734375 0)"/>
     </g>
    </g>
    <g id="line2d_42">
     <path d="M 603.0455 142.725313 
L 613.0455 142.725313 
L 623.0455 142.725313 
" style="fill: none; stroke: #7f7f7f; stroke-width: 1.5; stroke-linecap: square"/>
    </g>
    <g id="text_23">
     <!-- GG (AUPRC=0.457, n=20), topk=0.525) -->
     <g transform="translate(631.0455 146.225313) scale(0.1 -0.1)">
      <use xlink:href="#DejaVuSans-47"/>
      <use xlink:href="#DejaVuSans-47" transform="translate(77.490234 0)"/>
      <use xlink:href="#DejaVuSans-20" transform="translate(154.980469 0)"/>
      <use xlink:href="#DejaVuSans-28" transform="translate(186.767578 0)"/>
      <use xlink:href="#DejaVuSans-41" transform="translate(225.78125 0)"/>
      <use xlink:href="#DejaVuSans-55" transform="translate(294.189453 0)"/>
      <use xlink:href="#DejaVuSans-50" transform="translate(367.382812 0)"/>
      <use xlink:href="#DejaVuSans-52" transform="translate(427.685547 0)"/>
      <use xlink:href="#DejaVuSans-43" transform="translate(492.167969 0)"/>
      <use xlink:href="#DejaVuSans-3d" transform="translate(561.992188 0)"/>
      <use xlink:href="#DejaVuSans-30" transform="translate(645.78125 0)"/>
      <use xlink:href="#DejaVuSans-2e" transform="translate(709.404297 0)"/>
      <use xlink:href="#DejaVuSans-34" transform="translate(741.191406 0)"/>
      <use xlink:href="#DejaVuSans-35" transform="translate(804.814453 0)"/>
      <use xlink:href="#DejaVuSans-37" transform="translate(868.4375 0)"/>
      <use xlink:href="#DejaVuSans-2c" transform="translate(932.060547 0)"/>
      <use xlink:href="#DejaVuSans-20" transform="translate(963.847656 0)"/>
      <use xlink:href="#DejaVuSans-6e" transform="translate(995.634766 0)"/>
      <use xlink:href="#DejaVuSans-3d" transform="translate(1059.013672 0)"/>
      <use xlink:href="#DejaVuSans-32" transform="translate(1142.802734 0)"/>
      <use xlink:href="#DejaVuSans-30" transform="translate(1206.425781 0)"/>
      <use xlink:href="#DejaVuSans-29" transform="translate(1270.048828 0)"/>
      <use xlink:href="#DejaVuSans-2c" transform="translate(1309.0625 0)"/>
      <use xlink:href="#DejaVuSans-20" transform="translate(1340.849609 0)"/>
      <use xlink:href="#DejaVuSans-74" transform="translate(1372.636719 0)"/>
      <use xlink:href="#DejaVuSans-6f" transform="translate(1411.845703 0)"/>
      <use xlink:href="#DejaVuSans-70" transform="translate(1473.027344 0)"/>
      <use xlink:href="#DejaVuSans-6b" transform="translate(1536.503906 0)"/>
      <use xlink:href="#DejaVuSans-3d" transform="translate(1594.414062 0)"/>
      <use xlink:href="#DejaVuSans-30" transform="translate(1678.203125 0)"/>
      <use xlink:href="#DejaVuSans-2e" transform="translate(1741.826172 0)"/>
      <use xlink:href="#DejaVuSans-35" transform="translate(1773.613281 0)"/>
      <use xlink:href="#DejaVuSans-32" transform="translate(1837.236328 0)"/>
      <use xlink:href="#DejaVuSans-35" transform="translate(1900.859375 0)"/>
      <use xlink:href="#DejaVuSans-29" transform="translate(1964.482422 0)"/>
     </g>
    </g>
    <g id="line2d_43">
     <path d="M 603.0455 157.403438 
L 613.0455 157.403438 
L 623.0455 157.403438 
" style="fill: none; stroke: #bcbd22; stroke-width: 1.5; stroke-linecap: square"/>
    </g>
    <g id="text_24">
     <!-- CC (AUPRC=0.535, n=19), topk=0.534) -->
     <g transform="translate(631.0455 160.903438) scale(0.1 -0.1)">
      <use xlink:href="#DejaVuSans-43"/>
      <use xlink:href="#DejaVuSans-43" transform="translate(69.824219 0)"/>
      <use xlink:href="#DejaVuSans-20" transform="translate(139.648438 0)"/>
      <use xlink:href="#DejaVuSans-28" transform="translate(171.435547 0)"/>
      <use xlink:href="#DejaVuSans-41" transform="translate(210.449219 0)"/>
      <use xlink:href="#DejaVuSans-55" transform="translate(278.857422 0)"/>
      <use xlink:href="#DejaVuSans-50" transform="translate(352.050781 0)"/>
      <use xlink:href="#DejaVuSans-52" transform="translate(412.353516 0)"/>
      <use xlink:href="#DejaVuSans-43" transform="translate(476.835938 0)"/>
      <use xlink:href="#DejaVuSans-3d" transform="translate(546.660156 0)"/>
      <use xlink:href="#DejaVuSans-30" transform="translate(630.449219 0)"/>
      <use xlink:href="#DejaVuSans-2e" transform="translate(694.072266 0)"/>
      <use xlink:href="#DejaVuSans-35" transform="translate(725.859375 0)"/>
      <use xlink:href="#DejaVuSans-33" transform="translate(789.482422 0)"/>
      <use xlink:href="#DejaVuSans-35" transform="translate(853.105469 0)"/>
      <use xlink:href="#DejaVuSans-2c" transform="translate(916.728516 0)"/>
      <use xlink:href="#DejaVuSans-20" transform="translate(948.515625 0)"/>
      <use xlink:href="#DejaVuSans-6e" transform="translate(980.302734 0)"/>
      <use xlink:href="#DejaVuSans-3d" transform="translate(1043.681641 0)"/>
      <use xlink:href="#DejaVuSans-31" transform="translate(1127.470703 0)"/>
      <use xlink:href="#DejaVuSans-39" transform="translate(1191.09375 0)"/>
      <use xlink:href="#DejaVuSans-29" transform="translate(1254.716797 0)"/>
      <use xlink:href="#DejaVuSans-2c" transform="translate(1293.730469 0)"/>
      <use xlink:href="#DejaVuSans-20" transform="translate(1325.517578 0)"/>
      <use xlink:href="#DejaVuSans-74" transform="translate(1357.304688 0)"/>
      <use xlink:href="#DejaVuSans-6f" transform="translate(1396.513672 0)"/>
      <use xlink:href="#DejaVuSans-70" transform="translate(1457.695312 0)"/>
      <use xlink:href="#DejaVuSans-6b" transform="translate(1521.171875 0)"/>
      <use xlink:href="#DejaVuSans-3d" transform="translate(1579.082031 0)"/>
      <use xlink:href="#DejaVuSans-30" transform="translate(1662.871094 0)"/>
      <use xlink:href="#DejaVuSans-2e" transform="translate(1726.494141 0)"/>
      <use xlink:href="#DejaVuSans-35" transform="translate(1758.28125 0)"/>
      <use xlink:href="#DejaVuSans-33" transform="translate(1821.904297 0)"/>
      <use xlink:href="#DejaVuSans-34" transform="translate(1885.527344 0)"/>
      <use xlink:href="#DejaVuSans-29" transform="translate(1949.150391 0)"/>
     </g>
    </g>
    <g id="line2d_44">
     <path d="M 603.0455 172.081563 
L 613.0455 172.081563 
L 623.0455 172.081563 
" style="fill: none; stroke: #17becf; stroke-width: 1.5; stroke-linecap: square"/>
    </g>
    <g id="text_25">
     <!-- TA (AUPRC=0.435, n=17), topk=0.441) -->
     <g transform="translate(631.0455 175.581563) scale(0.1 -0.1)">
      <use xlink:href="#DejaVuSans-54"/>
      <use xlink:href="#DejaVuSans-41" transform="translate(53.333984 0)"/>
      <use xlink:href="#DejaVuSans-20" transform="translate(121.742188 0)"/>
      <use xlink:href="#DejaVuSans-28" transform="translate(153.529297 0)"/>
      <use xlink:href="#DejaVuSans-41" transform="translate(192.542969 0)"/>
      <use xlink:href="#DejaVuSans-55" transform="translate(260.951172 0)"/>
      <use xlink:href="#DejaVuSans-50" transform="translate(334.144531 0)"/>
      <use xlink:href="#DejaVuSans-52" transform="translate(394.447266 0)"/>
      <use xlink:href="#DejaVuSans-43" transform="translate(458.929688 0)"/>
      <use xlink:href="#DejaVuSans-3d" transform="translate(528.753906 0)"/>
      <use xlink:href="#DejaVuSans-30" transform="translate(612.542969 0)"/>
      <use xlink:href="#DejaVuSans-2e" transform="translate(676.166016 0)"/>
      <use xlink:href="#DejaVuSans-34" transform="translate(707.953125 0)"/>
      <use xlink:href="#DejaVuSans-33" transform="translate(771.576172 0)"/>
      <use xlink:href="#DejaVuSans-35" transform="translate(835.199219 0)"/>
      <use xlink:href="#DejaVuSans-2c" transform="translate(898.822266 0)"/>
      <use xlink:href="#DejaVuSans-20" transform="translate(930.609375 0)"/>
      <use xlink:href="#DejaVuSans-6e" transform="translate(962.396484 0)"/>
      <use xlink:href="#DejaVuSans-3d" transform="translate(1025.775391 0)"/>
      <use xlink:href="#DejaVuSans-31" transform="translate(1109.564453 0)"/>
      <use xlink:href="#DejaVuSans-37" transform="translate(1173.1875 0)"/>
      <use xlink:href="#DejaVuSans-29" transform="translate(1236.810547 0)"/>
      <use xlink:href="#DejaVuSans-2c" transform="translate(1275.824219 0)"/>
      <use xlink:href="#DejaVuSans-20" transform="translate(1307.611328 0)"/>
      <use xlink:href="#DejaVuSans-74" transform="translate(1339.398438 0)"/>
      <use xlink:href="#DejaVuSans-6f" transform="translate(1378.607422 0)"/>
      <use xlink:href="#DejaVuSans-70" transform="translate(1439.789062 0)"/>
      <use xlink:href="#DejaVuSans-6b" transform="translate(1503.265625 0)"/>
      <use xlink:href="#DejaVuSans-3d" transform="translate(1561.175781 0)"/>
      <use xlink:href="#DejaVuSans-30" transform="translate(1644.964844 0)"/>
      <use xlink:href="#DejaVuSans-2e" transform="translate(1708.587891 0)"/>
      <use xlink:href="#DejaVuSans-34" transform="translate(1740.375 0)"/>
      <use xlink:href="#DejaVuSans-34" transform="translate(1803.998047 0)"/>
      <use xlink:href="#DejaVuSans-31" transform="translate(1867.621094 0)"/>
      <use xlink:href="#DejaVuSans-29" transform="translate(1931.244141 0)"/>
     </g>
    </g>
   </g>
  </g>
 </g>
 <defs>
  <clipPath id="p9f8a1ea17f">
   <rect x="47.72" y="26.88" width="520.31" height="507.16"/>
  </clipPath>
 </defs>
</svg>
