<?xml version="1.0" encoding="utf-8" standalone="no"?>
<!DOCTYPE svg PUBLIC "-//W3C//DTD SVG 1.1//EN"
  "http://www.w3.org/Graphics/SVG/1.1/DTD/svg11.dtd">
<svg xmlns:xlink="http://www.w3.org/1999/xlink" width="864pt" height="576pt" viewBox="0 0 864 576" xmlns="http://www.w3.org/2000/svg" version="1.1">
 <metadata>
  <rdf:RDF xmlns:dc="http://purl.org/dc/elements/1.1/" xmlns:cc="http://creativecommons.org/ns#" xmlns:rdf="http://www.w3.org/1999/02/22-rdf-syntax-ns#">
   <cc:Work>
    <dc:type rdf:resource="http://purl.org/dc/dcmitype/StillImage"/>
    <dc:date>2025-05-01T14:12:27.581826</dc:date>
    <dc:format>image/svg+xml</dc:format>
    <dc:creator>
     <cc:Agent>
      <dc:title>Matplotlib v3.10.1, https://matplotlib.org/</dc:title>
     </cc:Agent>
    </dc:creator>
   </cc:Work>
  </rdf:RDF>
 </metadata>
 <defs>
  <style type="text/css">*{stroke-linejoin: round; stroke-linecap: butt}</style>
 </defs>
 <g id="figure_1">
  <g id="patch_1">
   <path d="M 0 576 
L 864 576 
L 864 0 
L 0 0 
z
" style="fill: #ffffff"/>
  </g>
  <g id="axes_1">
   <g id="patch_2">
    <path d="M 47.72 534.04 
L 571.18 534.04 
L 571.18 26.88 
L 47.72 26.88 
z
" style="fill: #ffffff"/>
   </g>
   <g id="matplotlib.axis_1">
    <g id="xtick_1">
     <g id="line2d_1">
      <path d="M 71.513636 534.04 
L 71.513636 26.88 
" clip-path="url(#p09f94e1b8d)" style="fill: none; stroke: #b0b0b0; stroke-width: 0.8; stroke-linecap: square"/>
     </g>
     <g id="line2d_2">
      <defs>
       <path id="m9d7828e36a" d="M 0 0 
L 0 3.5 
" style="stroke: #000000; stroke-width: 0.8"/>
      </defs>
      <g>
       <use xlink:href="#m9d7828e36a" x="71.513636" y="534.04" style="stroke: #000000; stroke-width: 0.8"/>
      </g>
     </g>
     <g id="text_1">
      <!-- 0.0 -->
      <g transform="translate(63.562074 548.638438) scale(0.1 -0.1)">
       <defs>
        <path id="DejaVuSans-30" d="M 2034 4250 
Q 1547 4250 1301 3770 
Q 1056 3291 1056 2328 
Q 1056 1369 1301 889 
Q 1547 409 2034 409 
Q 2525 409 2770 889 
Q 3016 1369 3016 2328 
Q 3016 3291 2770 3770 
Q 2525 4250 2034 4250 
z
M 2034 4750 
Q 2819 4750 3233 4129 
Q 3647 3509 3647 2328 
Q 3647 1150 3233 529 
Q 2819 -91 2034 -91 
Q 1250 -91 836 529 
Q 422 1150 422 2328 
Q 422 3509 836 4129 
Q 1250 4750 2034 4750 
z
" transform="scale(0.015625)"/>
        <path id="DejaVuSans-2e" d="M 684 794 
L 1344 794 
L 1344 0 
L 684 0 
L 684 794 
z
" transform="scale(0.015625)"/>
       </defs>
       <use xlink:href="#DejaVuSans-30"/>
       <use xlink:href="#DejaVuSans-2e" transform="translate(63.623047 0)"/>
       <use xlink:href="#DejaVuSans-30" transform="translate(95.410156 0)"/>
      </g>
     </g>
    </g>
    <g id="xtick_2">
     <g id="line2d_3">
      <path d="M 166.688182 534.04 
L 166.688182 26.88 
" clip-path="url(#p09f94e1b8d)" style="fill: none; stroke: #b0b0b0; stroke-width: 0.8; stroke-linecap: square"/>
     </g>
     <g id="line2d_4">
      <g>
       <use xlink:href="#m9d7828e36a" x="166.688182" y="534.04" style="stroke: #000000; stroke-width: 0.8"/>
      </g>
     </g>
     <g id="text_2">
      <!-- 0.2 -->
      <g transform="translate(158.736619 548.638438) scale(0.1 -0.1)">
       <defs>
        <path id="DejaVuSans-32" d="M 1228 531 
L 3431 531 
L 3431 0 
L 469 0 
L 469 531 
Q 828 903 1448 1529 
Q 2069 2156 2228 2338 
Q 2531 2678 2651 2914 
Q 2772 3150 2772 3378 
Q 2772 3750 2511 3984 
Q 2250 4219 1831 4219 
Q 1534 4219 1204 4116 
Q 875 4013 500 3803 
L 500 4441 
Q 881 4594 1212 4672 
Q 1544 4750 1819 4750 
Q 2544 4750 2975 4387 
Q 3406 4025 3406 3419 
Q 3406 3131 3298 2873 
Q 3191 2616 2906 2266 
Q 2828 2175 2409 1742 
Q 1991 1309 1228 531 
z
" transform="scale(0.015625)"/>
       </defs>
       <use xlink:href="#DejaVuSans-30"/>
       <use xlink:href="#DejaVuSans-2e" transform="translate(63.623047 0)"/>
       <use xlink:href="#DejaVuSans-32" transform="translate(95.410156 0)"/>
      </g>
     </g>
    </g>
    <g id="xtick_3">
     <g id="line2d_5">
      <path d="M 261.862727 534.04 
L 261.862727 26.88 
" clip-path="url(#p09f94e1b8d)" style="fill: none; stroke: #b0b0b0; stroke-width: 0.8; stroke-linecap: square"/>
     </g>
     <g id="line2d_6">
      <g>
       <use xlink:href="#m9d7828e36a" x="261.862727" y="534.04" style="stroke: #000000; stroke-width: 0.8"/>
      </g>
     </g>
     <g id="text_3">
      <!-- 0.4 -->
      <g transform="translate(253.911165 548.638438) scale(0.1 -0.1)">
       <defs>
        <path id="DejaVuSans-34" d="M 2419 4116 
L 825 1625 
L 2419 1625 
L 2419 4116 
z
M 2253 4666 
L 3047 4666 
L 3047 1625 
L 3713 1625 
L 3713 1100 
L 3047 1100 
L 3047 0 
L 2419 0 
L 2419 1100 
L 313 1100 
L 313 1709 
L 2253 4666 
z
" transform="scale(0.015625)"/>
       </defs>
       <use xlink:href="#DejaVuSans-30"/>
       <use xlink:href="#DejaVuSans-2e" transform="translate(63.623047 0)"/>
       <use xlink:href="#DejaVuSans-34" transform="translate(95.410156 0)"/>
      </g>
     </g>
    </g>
    <g id="xtick_4">
     <g id="line2d_7">
      <path d="M 357.037273 534.04 
L 357.037273 26.88 
" clip-path="url(#p09f94e1b8d)" style="fill: none; stroke: #b0b0b0; stroke-width: 0.8; stroke-linecap: square"/>
     </g>
     <g id="line2d_8">
      <g>
       <use xlink:href="#m9d7828e36a" x="357.037273" y="534.04" style="stroke: #000000; stroke-width: 0.8"/>
      </g>
     </g>
     <g id="text_4">
      <!-- 0.6 -->
      <g transform="translate(349.08571 548.638438) scale(0.1 -0.1)">
       <defs>
        <path id="DejaVuSans-36" d="M 2113 2584 
Q 1688 2584 1439 2293 
Q 1191 2003 1191 1497 
Q 1191 994 1439 701 
Q 1688 409 2113 409 
Q 2538 409 2786 701 
Q 3034 994 3034 1497 
Q 3034 2003 2786 2293 
Q 2538 2584 2113 2584 
z
M 3366 4563 
L 3366 3988 
Q 3128 4100 2886 4159 
Q 2644 4219 2406 4219 
Q 1781 4219 1451 3797 
Q 1122 3375 1075 2522 
Q 1259 2794 1537 2939 
Q 1816 3084 2150 3084 
Q 2853 3084 3261 2657 
Q 3669 2231 3669 1497 
Q 3669 778 3244 343 
Q 2819 -91 2113 -91 
Q 1303 -91 875 529 
Q 447 1150 447 2328 
Q 447 3434 972 4092 
Q 1497 4750 2381 4750 
Q 2619 4750 2861 4703 
Q 3103 4656 3366 4563 
z
" transform="scale(0.015625)"/>
       </defs>
       <use xlink:href="#DejaVuSans-30"/>
       <use xlink:href="#DejaVuSans-2e" transform="translate(63.623047 0)"/>
       <use xlink:href="#DejaVuSans-36" transform="translate(95.410156 0)"/>
      </g>
     </g>
    </g>
    <g id="xtick_5">
     <g id="line2d_9">
      <path d="M 452.211818 534.04 
L 452.211818 26.88 
" clip-path="url(#p09f94e1b8d)" style="fill: none; stroke: #b0b0b0; stroke-width: 0.8; stroke-linecap: square"/>
     </g>
     <g id="line2d_10">
      <g>
       <use xlink:href="#m9d7828e36a" x="452.211818" y="534.04" style="stroke: #000000; stroke-width: 0.8"/>
      </g>
     </g>
     <g id="text_5">
      <!-- 0.8 -->
      <g transform="translate(444.260256 548.638438) scale(0.1 -0.1)">
       <defs>
        <path id="DejaVuSans-38" d="M 2034 2216 
Q 1584 2216 1326 1975 
Q 1069 1734 1069 1313 
Q 1069 891 1326 650 
Q 1584 409 2034 409 
Q 2484 409 2743 651 
Q 3003 894 3003 1313 
Q 3003 1734 2745 1975 
Q 2488 2216 2034 2216 
z
M 1403 2484 
Q 997 2584 770 2862 
Q 544 3141 544 3541 
Q 544 4100 942 4425 
Q 1341 4750 2034 4750 
Q 2731 4750 3128 4425 
Q 3525 4100 3525 3541 
Q 3525 3141 3298 2862 
Q 3072 2584 2669 2484 
Q 3125 2378 3379 2068 
Q 3634 1759 3634 1313 
Q 3634 634 3220 271 
Q 2806 -91 2034 -91 
Q 1263 -91 848 271 
Q 434 634 434 1313 
Q 434 1759 690 2068 
Q 947 2378 1403 2484 
z
M 1172 3481 
Q 1172 3119 1398 2916 
Q 1625 2713 2034 2713 
Q 2441 2713 2670 2916 
Q 2900 3119 2900 3481 
Q 2900 3844 2670 4047 
Q 2441 4250 2034 4250 
Q 1625 4250 1398 4047 
Q 1172 3844 1172 3481 
z
" transform="scale(0.015625)"/>
       </defs>
       <use xlink:href="#DejaVuSans-30"/>
       <use xlink:href="#DejaVuSans-2e" transform="translate(63.623047 0)"/>
       <use xlink:href="#DejaVuSans-38" transform="translate(95.410156 0)"/>
      </g>
     </g>
    </g>
    <g id="xtick_6">
     <g id="line2d_11">
      <path d="M 547.386364 534.04 
L 547.386364 26.88 
" clip-path="url(#p09f94e1b8d)" style="fill: none; stroke: #b0b0b0; stroke-width: 0.8; stroke-linecap: square"/>
     </g>
     <g id="line2d_12">
      <g>
       <use xlink:href="#m9d7828e36a" x="547.386364" y="534.04" style="stroke: #000000; stroke-width: 0.8"/>
      </g>
     </g>
     <g id="text_6">
      <!-- 1.0 -->
      <g transform="translate(539.434801 548.638438) scale(0.1 -0.1)">
       <defs>
        <path id="DejaVuSans-31" d="M 794 531 
L 1825 531 
L 1825 4091 
L 703 3866 
L 703 4441 
L 1819 4666 
L 2450 4666 
L 2450 531 
L 3481 531 
L 3481 0 
L 794 0 
L 794 531 
z
" transform="scale(0.015625)"/>
       </defs>
       <use xlink:href="#DejaVuSans-31"/>
       <use xlink:href="#DejaVuSans-2e" transform="translate(63.623047 0)"/>
       <use xlink:href="#DejaVuSans-30" transform="translate(95.410156 0)"/>
      </g>
     </g>
    </g>
    <g id="text_7">
     <!-- Recall -->
     <g transform="translate(294.532812 562.316562) scale(0.1 -0.1)">
      <defs>
       <path id="DejaVuSans-52" d="M 2841 2188 
Q 3044 2119 3236 1894 
Q 3428 1669 3622 1275 
L 4263 0 
L 3584 0 
L 2988 1197 
Q 2756 1666 2539 1819 
Q 2322 1972 1947 1972 
L 1259 1972 
L 1259 0 
L 628 0 
L 628 4666 
L 2053 4666 
Q 2853 4666 3247 4331 
Q 3641 3997 3641 3322 
Q 3641 2881 3436 2590 
Q 3231 2300 2841 2188 
z
M 1259 4147 
L 1259 2491 
L 2053 2491 
Q 2509 2491 2742 2702 
Q 2975 2913 2975 3322 
Q 2975 3731 2742 3939 
Q 2509 4147 2053 4147 
L 1259 4147 
z
" transform="scale(0.015625)"/>
       <path id="DejaVuSans-65" d="M 3597 1894 
L 3597 1613 
L 953 1613 
Q 991 1019 1311 708 
Q 1631 397 2203 397 
Q 2534 397 2845 478 
Q 3156 559 3463 722 
L 3463 178 
Q 3153 47 2828 -22 
Q 2503 -91 2169 -91 
Q 1331 -91 842 396 
Q 353 884 353 1716 
Q 353 2575 817 3079 
Q 1281 3584 2069 3584 
Q 2775 3584 3186 3129 
Q 3597 2675 3597 1894 
z
M 3022 2063 
Q 3016 2534 2758 2815 
Q 2500 3097 2075 3097 
Q 1594 3097 1305 2825 
Q 1016 2553 972 2059 
L 3022 2063 
z
" transform="scale(0.015625)"/>
       <path id="DejaVuSans-63" d="M 3122 3366 
L 3122 2828 
Q 2878 2963 2633 3030 
Q 2388 3097 2138 3097 
Q 1578 3097 1268 2742 
Q 959 2388 959 1747 
Q 959 1106 1268 751 
Q 1578 397 2138 397 
Q 2388 397 2633 464 
Q 2878 531 3122 666 
L 3122 134 
Q 2881 22 2623 -34 
Q 2366 -91 2075 -91 
Q 1284 -91 818 406 
Q 353 903 353 1747 
Q 353 2603 823 3093 
Q 1294 3584 2113 3584 
Q 2378 3584 2631 3529 
Q 2884 3475 3122 3366 
z
" transform="scale(0.015625)"/>
       <path id="DejaVuSans-61" d="M 2194 1759 
Q 1497 1759 1228 1600 
Q 959 1441 959 1056 
Q 959 750 1161 570 
Q 1363 391 1709 391 
Q 2188 391 2477 730 
Q 2766 1069 2766 1631 
L 2766 1759 
L 2194 1759 
z
M 3341 1997 
L 3341 0 
L 2766 0 
L 2766 531 
Q 2569 213 2275 61 
Q 1981 -91 1556 -91 
Q 1019 -91 701 211 
Q 384 513 384 1019 
Q 384 1609 779 1909 
Q 1175 2209 1959 2209 
L 2766 2209 
L 2766 2266 
Q 2766 2663 2505 2880 
Q 2244 3097 1772 3097 
Q 1472 3097 1187 3025 
Q 903 2953 641 2809 
L 641 3341 
Q 956 3463 1253 3523 
Q 1550 3584 1831 3584 
Q 2591 3584 2966 3190 
Q 3341 2797 3341 1997 
z
" transform="scale(0.015625)"/>
       <path id="DejaVuSans-6c" d="M 603 4863 
L 1178 4863 
L 1178 0 
L 603 0 
L 603 4863 
z
" transform="scale(0.015625)"/>
      </defs>
      <use xlink:href="#DejaVuSans-52"/>
      <use xlink:href="#DejaVuSans-65" transform="translate(64.982422 0)"/>
      <use xlink:href="#DejaVuSans-63" transform="translate(126.505859 0)"/>
      <use xlink:href="#DejaVuSans-61" transform="translate(181.486328 0)"/>
      <use xlink:href="#DejaVuSans-6c" transform="translate(242.765625 0)"/>
      <use xlink:href="#DejaVuSans-6c" transform="translate(270.548828 0)"/>
     </g>
    </g>
   </g>
   <g id="matplotlib.axis_2">
    <g id="ytick_1">
     <g id="line2d_13">
      <path d="M 47.72 511.155858 
L 571.18 511.155858 
" clip-path="url(#p09f94e1b8d)" style="fill: none; stroke: #b0b0b0; stroke-width: 0.8; stroke-linecap: square"/>
     </g>
     <g id="line2d_14">
      <defs>
       <path id="mc0921f9e43" d="M 0 0 
L -3.5 0 
" style="stroke: #000000; stroke-width: 0.8"/>
      </defs>
      <g>
       <use xlink:href="#mc0921f9e43" x="47.72" y="511.155858" style="stroke: #000000; stroke-width: 0.8"/>
      </g>
     </g>
     <g id="text_8">
      <!-- 0.0 -->
      <g transform="translate(24.816875 514.955076) scale(0.1 -0.1)">
       <use xlink:href="#DejaVuSans-30"/>
       <use xlink:href="#DejaVuSans-2e" transform="translate(63.623047 0)"/>
       <use xlink:href="#DejaVuSans-30" transform="translate(95.410156 0)"/>
      </g>
     </g>
    </g>
    <g id="ytick_2">
     <g id="line2d_15">
      <path d="M 47.72 418.911232 
L 571.18 418.911232 
" clip-path="url(#p09f94e1b8d)" style="fill: none; stroke: #b0b0b0; stroke-width: 0.8; stroke-linecap: square"/>
     </g>
     <g id="line2d_16">
      <g>
       <use xlink:href="#mc0921f9e43" x="47.72" y="418.911232" style="stroke: #000000; stroke-width: 0.8"/>
      </g>
     </g>
     <g id="text_9">
      <!-- 0.2 -->
      <g transform="translate(24.816875 422.71045) scale(0.1 -0.1)">
       <use xlink:href="#DejaVuSans-30"/>
       <use xlink:href="#DejaVuSans-2e" transform="translate(63.623047 0)"/>
       <use xlink:href="#DejaVuSans-32" transform="translate(95.410156 0)"/>
      </g>
     </g>
    </g>
    <g id="ytick_3">
     <g id="line2d_17">
      <path d="M 47.72 326.666606 
L 571.18 326.666606 
" clip-path="url(#p09f94e1b8d)" style="fill: none; stroke: #b0b0b0; stroke-width: 0.8; stroke-linecap: square"/>
     </g>
     <g id="line2d_18">
      <g>
       <use xlink:href="#mc0921f9e43" x="47.72" y="326.666606" style="stroke: #000000; stroke-width: 0.8"/>
      </g>
     </g>
     <g id="text_10">
      <!-- 0.4 -->
      <g transform="translate(24.816875 330.465824) scale(0.1 -0.1)">
       <use xlink:href="#DejaVuSans-30"/>
       <use xlink:href="#DejaVuSans-2e" transform="translate(63.623047 0)"/>
       <use xlink:href="#DejaVuSans-34" transform="translate(95.410156 0)"/>
      </g>
     </g>
    </g>
    <g id="ytick_4">
     <g id="line2d_19">
      <path d="M 47.72 234.421979 
L 571.18 234.421979 
" clip-path="url(#p09f94e1b8d)" style="fill: none; stroke: #b0b0b0; stroke-width: 0.8; stroke-linecap: square"/>
     </g>
     <g id="line2d_20">
      <g>
       <use xlink:href="#mc0921f9e43" x="47.72" y="234.421979" style="stroke: #000000; stroke-width: 0.8"/>
      </g>
     </g>
     <g id="text_11">
      <!-- 0.6 -->
      <g transform="translate(24.816875 238.221198) scale(0.1 -0.1)">
       <use xlink:href="#DejaVuSans-30"/>
       <use xlink:href="#DejaVuSans-2e" transform="translate(63.623047 0)"/>
       <use xlink:href="#DejaVuSans-36" transform="translate(95.410156 0)"/>
      </g>
     </g>
    </g>
    <g id="ytick_5">
     <g id="line2d_21">
      <path d="M 47.72 142.177353 
L 571.18 142.177353 
" clip-path="url(#p09f94e1b8d)" style="fill: none; stroke: #b0b0b0; stroke-width: 0.8; stroke-linecap: square"/>
     </g>
     <g id="line2d_22">
      <g>
       <use xlink:href="#mc0921f9e43" x="47.72" y="142.177353" style="stroke: #000000; stroke-width: 0.8"/>
      </g>
     </g>
     <g id="text_12">
      <!-- 0.8 -->
      <g transform="translate(24.816875 145.976572) scale(0.1 -0.1)">
       <use xlink:href="#DejaVuSans-30"/>
       <use xlink:href="#DejaVuSans-2e" transform="translate(63.623047 0)"/>
       <use xlink:href="#DejaVuSans-38" transform="translate(95.410156 0)"/>
      </g>
     </g>
    </g>
    <g id="ytick_6">
     <g id="line2d_23">
      <path d="M 47.72 49.932727 
L 571.18 49.932727 
" clip-path="url(#p09f94e1b8d)" style="fill: none; stroke: #b0b0b0; stroke-width: 0.8; stroke-linecap: square"/>
     </g>
     <g id="line2d_24">
      <g>
       <use xlink:href="#mc0921f9e43" x="47.72" y="49.932727" style="stroke: #000000; stroke-width: 0.8"/>
      </g>
     </g>
     <g id="text_13">
      <!-- 1.0 -->
      <g transform="translate(24.816875 53.731946) scale(0.1 -0.1)">
       <use xlink:href="#DejaVuSans-31"/>
       <use xlink:href="#DejaVuSans-2e" transform="translate(63.623047 0)"/>
       <use xlink:href="#DejaVuSans-30" transform="translate(95.410156 0)"/>
      </g>
     </g>
    </g>
    <g id="text_14">
     <!-- Precision -->
     <g transform="translate(18.737188 302.767031) rotate(-90) scale(0.1 -0.1)">
      <defs>
       <path id="DejaVuSans-50" d="M 1259 4147 
L 1259 2394 
L 2053 2394 
Q 2494 2394 2734 2622 
Q 2975 2850 2975 3272 
Q 2975 3691 2734 3919 
Q 2494 4147 2053 4147 
L 1259 4147 
z
M 628 4666 
L 2053 4666 
Q 2838 4666 3239 4311 
Q 3641 3956 3641 3272 
Q 3641 2581 3239 2228 
Q 2838 1875 2053 1875 
L 1259 1875 
L 1259 0 
L 628 0 
L 628 4666 
z
" transform="scale(0.015625)"/>
       <path id="DejaVuSans-72" d="M 2631 2963 
Q 2534 3019 2420 3045 
Q 2306 3072 2169 3072 
Q 1681 3072 1420 2755 
Q 1159 2438 1159 1844 
L 1159 0 
L 581 0 
L 581 3500 
L 1159 3500 
L 1159 2956 
Q 1341 3275 1631 3429 
Q 1922 3584 2338 3584 
Q 2397 3584 2469 3576 
Q 2541 3569 2628 3553 
L 2631 2963 
z
" transform="scale(0.015625)"/>
       <path id="DejaVuSans-69" d="M 603 3500 
L 1178 3500 
L 1178 0 
L 603 0 
L 603 3500 
z
M 603 4863 
L 1178 4863 
L 1178 4134 
L 603 4134 
L 603 4863 
z
" transform="scale(0.015625)"/>
       <path id="DejaVuSans-73" d="M 2834 3397 
L 2834 2853 
Q 2591 2978 2328 3040 
Q 2066 3103 1784 3103 
Q 1356 3103 1142 2972 
Q 928 2841 928 2578 
Q 928 2378 1081 2264 
Q 1234 2150 1697 2047 
L 1894 2003 
Q 2506 1872 2764 1633 
Q 3022 1394 3022 966 
Q 3022 478 2636 193 
Q 2250 -91 1575 -91 
Q 1294 -91 989 -36 
Q 684 19 347 128 
L 347 722 
Q 666 556 975 473 
Q 1284 391 1588 391 
Q 1994 391 2212 530 
Q 2431 669 2431 922 
Q 2431 1156 2273 1281 
Q 2116 1406 1581 1522 
L 1381 1569 
Q 847 1681 609 1914 
Q 372 2147 372 2553 
Q 372 3047 722 3315 
Q 1072 3584 1716 3584 
Q 2034 3584 2315 3537 
Q 2597 3491 2834 3397 
z
" transform="scale(0.015625)"/>
       <path id="DejaVuSans-6f" d="M 1959 3097 
Q 1497 3097 1228 2736 
Q 959 2375 959 1747 
Q 959 1119 1226 758 
Q 1494 397 1959 397 
Q 2419 397 2687 759 
Q 2956 1122 2956 1747 
Q 2956 2369 2687 2733 
Q 2419 3097 1959 3097 
z
M 1959 3584 
Q 2709 3584 3137 3096 
Q 3566 2609 3566 1747 
Q 3566 888 3137 398 
Q 2709 -91 1959 -91 
Q 1206 -91 779 398 
Q 353 888 353 1747 
Q 353 2609 779 3096 
Q 1206 3584 1959 3584 
z
" transform="scale(0.015625)"/>
       <path id="DejaVuSans-6e" d="M 3513 2113 
L 3513 0 
L 2938 0 
L 2938 2094 
Q 2938 2591 2744 2837 
Q 2550 3084 2163 3084 
Q 1697 3084 1428 2787 
Q 1159 2491 1159 1978 
L 1159 0 
L 581 0 
L 581 3500 
L 1159 3500 
L 1159 2956 
Q 1366 3272 1645 3428 
Q 1925 3584 2291 3584 
Q 2894 3584 3203 3211 
Q 3513 2838 3513 2113 
z
" transform="scale(0.015625)"/>
      </defs>
      <use xlink:href="#DejaVuSans-50"/>
      <use xlink:href="#DejaVuSans-72" transform="translate(58.552734 0)"/>
      <use xlink:href="#DejaVuSans-65" transform="translate(97.416016 0)"/>
      <use xlink:href="#DejaVuSans-63" transform="translate(158.939453 0)"/>
      <use xlink:href="#DejaVuSans-69" transform="translate(213.919922 0)"/>
      <use xlink:href="#DejaVuSans-73" transform="translate(241.703125 0)"/>
      <use xlink:href="#DejaVuSans-69" transform="translate(293.802734 0)"/>
      <use xlink:href="#DejaVuSans-6f" transform="translate(321.585938 0)"/>
      <use xlink:href="#DejaVuSans-6e" transform="translate(382.767578 0)"/>
     </g>
    </g>
   </g>
   <g id="line2d_25">
    <path d="M 547.386364 510.827947 
L 547.351182 510.513715 
L 546.295719 510.412982 
L 546.295719 510.404027 
L 546.225355 510.398821 
L 545.697624 510.294024 
L 545.697624 510.28855 
L 545.62726 510.280128 
L 544.571798 510.176069 
L 544.571798 510.170963 
L 544.501434 510.156451 
L 543.551518 510.051682 
L 543.551518 510.047343 
L 543.445971 509.997962 
L 543.094151 509.901801 
L 543.094151 509.887712 
L 542.988604 509.848074 
L 542.460873 509.753538 
L 542.460873 509.738423 
L 542.355327 509.701938 
L 541.757232 509.605363 
L 541.757232 509.592669 
L 541.686868 509.58133 
L 541.05359 509.488158 
L 541.05359 509.472333 
L 540.948044 509.440047 
L 540.736952 509.366345 
L 540.736952 509.329705 
L 540.70177 509.290653 
L 540.103674 509.188105 
L 540.103674 509.181912 
L 540.068492 509.167282 
L 539.892582 509.107906 
L 539.892582 509.056915 
L 539.787036 509.044985 
L 539.118576 508.96972 
L 539.118576 508.936873 
L 539.01303 508.897522 
L 538.83712 508.815634 
L 538.83712 508.787257 
L 538.731574 508.718754 
L 538.309389 508.656869 
L 538.309389 508.609833 
L 538.203842 508.499308 
L 537.781658 508.422436 
L 537.781658 508.390585 
L 537.711293 508.35982 
L 537.394655 508.261899 
L 537.394655 508.250602 
L 537.289109 507.961918 
L 537.078016 507.889621 
L 537.078016 507.852243 
L 537.007652 507.842385 
L 536.902106 507.843131 
L 536.902106 507.732024 
L 536.796559 507.665258 
L 536.726195 507.665782 
L 536.726195 507.554669 
L 536.726195 507.461681 
L 536.515103 507.390258 
L 536.515103 507.352235 
L 536.479921 507.340926 
L 536.30401 507.342357 
L 536.30401 507.231246 
L 536.198464 506.954143 
L 536.163282 506.954458 
L 536.163282 506.843344 
L 536.057736 506.520033 
L 536.022554 506.520381 
L 536.022554 506.409271 
L 535.917008 505.138453 
L 535.811461 505.09637 
L 535.811461 505.028694 
L 535.741097 503.875771 
L 535.600369 503.877943 
L 535.600369 503.766837 
L 535.494823 501.805073 
L 535.459641 501.805768 
L 535.459641 501.694646 
L 535.354094 496.435982 
L 535.318912 496.437063 
L 535.318912 496.325919 
L 535.213366 493.577781 
L 535.178184 493.579064 
L 535.178184 493.468075 
L 535.178184 485.399018 
L 535.002274 485.408244 
L 535.002274 485.297134 
L 534.967092 483.499602 
L 534.791181 483.50947 
L 534.791181 483.398278 
L 534.720817 451.049713 
L 534.580089 451.065595 
L 534.580089 450.955354 
L 534.474543 426.026181 
L 534.333814 426.047283 
L 534.333814 425.939702 
L 534.228268 387.294082 
L 534.052358 387.328528 
L 534.052358 387.219699 
L 533.946812 358.360293 
L 533.700537 358.414718 
L 533.700537 358.326108 
L 533.665355 288.79644 
L 533.559809 288.822743 
L 533.559809 288.708433 
L 533.559809 252.487225 
L 533.41908 252.52183 
L 533.41908 252.411317 
L 533.313534 160.27984 
L 533.24317 160.292632 
L 533.24317 160.190915 
L 533.137624 142.95747 
L 532.926531 142.924205 
L 532.856167 128.853777 
L 532.785803 128.863756 
L 532.785803 128.791238 
L 532.680257 119.999492 
L 532.469164 120.026702 
L 532.469164 119.95074 
L 532.363618 114.883932 
L 532.187708 114.90524 
L 532.187708 114.853235 
L 532.152526 107.196098 
L 532.04698 107.207592 
L 532.04698 107.099454 
L 532.011797 101.649037 
L 531.800705 101.670094 
L 531.800705 101.586713 
L 531.730341 101.5103 
L 531.272974 101.444494 
L 531.272974 100.103285 
L 531.20261 100.110129 
L 531.097064 100.120399 
L 531.097064 100.036257 
L 531.097064 96.784623 
L 530.921153 96.80074 
L 530.921153 96.7152 
L 530.815607 92.605325 
L 530.710061 92.614225 
L 530.710061 92.526908 
L 530.710061 91.739408 
L 530.569332 91.751063 
L 530.569332 91.692597 
L 530.569332 90.901709 
L 530.428604 90.913156 
L 530.428604 89.588027 
L 529.971237 89.535471 
L 529.971237 89.298722 
L 529.830509 89.309778 
L 529.830509 89.220905 
L 529.760145 87.739501 
L 529.584234 87.752829 
L 529.584234 87.663251 
L 529.51387 83.414694 
L 529.16205 83.438564 
L 529.091685 83.107618 
L 528.950957 83.11709 
L 528.950957 82.933697 
L 528.845411 82.940768 
L 528.352862 82.912572 
L 528.352862 82.881948 
L 528.247316 81.937314 
L 528.071405 81.94879 
L 528.071405 81.856434 
L 527.965859 80.100614 
L 527.825131 80.109309 
L 527.825131 80.047181 
L 527.825131 79.487219 
L 527.754767 79.491484 
L 527.64922 79.497886 
L 527.578856 77.309588 
L 527.156671 77.270424 
L 527.156671 77.238906 
L 527.086307 77.148277 
L 526.945579 77.15619 
L 526.945579 76.714075 
L 526.593758 76.638655 
L 526.593758 76.575351 
L 526.277119 76.592829 
L 526.277119 76.529468 
L 526.277119 76.053669 
L 525.60866 75.994531 
L 525.60866 75.867254 
L 525.43275 75.876739 
L 525.43275 75.844897 
L 525.43275 75.685618 
L 525.256839 75.695044 
L 525.256839 75.312165 
L 525.151293 75.317745 
L 524.869837 75.332637 
L 524.76429 74.890249 
L 524.377288 74.846301 
L 524.271741 73.919728 
L 523.990285 73.933872 
L 523.990285 73.83717 
L 523.990285 73.675905 
L 523.708828 73.689922 
L 523.708828 73.334521 
L 523.321825 73.353549 
L 523.216279 72.645507 
L 523.005187 72.655603 
L 523.005187 72.52562 
L 522.583002 72.545729 
L 522.583002 72.513194 
L 522.54782 71.960988 
L 522.055271 71.983919 
L 521.949724 71.367391 
L 521.87936 71.370585 
L 521.87936 71.108359 
L 521.773814 71.113095 
L 521.351629 71.132059 
L 521.316447 70.50889 
L 521.246083 70.511966 
L 521.175719 70.515042 
L 521.175719 70.416207 
L 521.175719 70.185419 
L 521.070173 70.189965 
L 520.85908 70.133037 
L 520.788716 69.540849 
L 519.592526 69.524568 
L 519.592526 69.491362 
L 519.592526 69.358491 
L 519.557343 69.359952 
L 519.064794 69.313894 
L 519.064794 69.247336 
L 518.15006 69.185172 
L 518.15006 69.051687 
L 518.079696 69.054574 
L 517.235327 68.988938 
L 517.12978 68.490694 
L 517.059416 68.39284 
L 516.95387 68.027458 
L 516.426139 68.048078 
L 516.426139 67.778609 
L 516.320593 67.78268 
L 516.285411 67.784037 
L 516.285411 67.514161 
L 516.179864 67.518175 
L 515.581769 67.473337 
L 515.581769 67.134932 
L 514.631853 67.102553 
L 514.631853 67.000698 
L 514.561489 67.003309 
L 514.491125 67.00592 
L 514.385579 66.635778 
L 513.435663 66.602164 
L 513.435663 66.499803 
L 513.330116 66.503618 
L 512.978296 66.516349 
L 512.978296 66.379663 
L 510.761825 66.356631 
L 510.761825 66.322271 
L 510.656279 66.32607 
L 509.811909 66.253205 
L 509.811909 66.218754 
L 509.49527 66.161147 
L 509.49527 65.712355 
L 509.073086 65.727059 
L 509.073086 65.588662 
L 509.037903 65.589879 
L 506.61034 65.639459 
L 506.61034 65.535041 
L 506.504794 65.538699 
L 503.162497 65.550173 
L 503.162497 65.163851 
L 503.092133 65.166252 
L 502.845858 65.174662 
L 502.845858 65.033919 
L 502.740312 65.037494 
L 500.594206 65.004422 
L 500.594206 64.933638 
L 500.523842 64.936019 
L 499.925746 64.849909 
L 499.925746 64.81444 
L 499.8202 64.817989 
L 499.433197 64.724461 
L 499.433197 64.653395 
L 499.327651 64.656911 
L 498.940648 64.598652 
L 498.940648 64.491863 
L 497.744458 64.424308 
L 497.674094 64.319436 
L 497.638912 64.320587 
L 497.463001 64.326343 
L 497.463001 64.040121 
L 497.357455 64.04351 
L 495.281713 64.002557 
L 495.281713 63.786506 
L 491.798687 63.89784 
L 491.798687 63.752568 
L 491.693141 63.755935 
L 488.491572 63.858865 
L 488.491572 63.492559 
L 486.943561 63.431201 
L 486.943561 63.283923 
L 486.908379 63.285021 
L 485.57146 63.326881 
L 485.57146 62.957111 
L 485.501096 62.959262 
L 484.410452 62.955588 
L 484.410452 62.844225 
L 484.340088 62.846364 
L 481.279247 62.865296 
L 481.279247 62.715604 
L 480.751516 62.731631 
L 480.751516 62.619159 
L 480.64597 62.622342 
L 477.303673 62.723961 
L 477.303673 62.61053 
L 477.268491 62.611599 
L 475.755662 62.581813 
L 475.755662 62.50586 
L 475.650116 62.509054 
L 474.383561 62.509403 
L 474.383561 62.39504 
L 474.313197 62.397158 
L 473.750284 62.337741 
L 473.750284 62.146657 
L 472.413365 62.109585 
L 472.378183 61.841874 
L 472.307819 61.843911 
L 470.548715 61.856472 
L 470.548715 61.77928 
L 468.050788 61.774296 
L 468.050788 61.541094 
L 467.980424 61.543102 
L 464.708491 61.558849 
L 464.708491 61.36269 
L 464.638127 61.364685 
L 461.084737 61.387146 
L 461.084737 61.268285 
L 460.979191 61.271282 
L 460.697734 61.27928 
L 460.697734 61.001431 
L 457.285073 61.096979 
L 457.285073 60.696107 
L 457.214709 60.698024 
L 456.475885 60.718202 
L 456.475885 60.59756 
L 456.405521 60.599465 
L 448.982104 60.722309 
L 448.982104 60.558246 
L 448.876558 60.56115 
L 448.700647 60.565992 
L 448.700647 60.3606 
L 448.665465 60.361551 
L 444.51398 60.47497 
L 444.51398 60.267187 
L 444.443616 60.269094 
L 443.388154 60.297771 
L 443.388154 60.130926 
L 443.282608 60.133757 
L 440.960591 60.112452 
L 440.960591 59.986403 
L 440.890227 59.988277 
L 439.518126 60.024948 
L 439.518126 59.856144 
L 439.41258 59.858929 
L 437.407202 59.912155 
L 437.407202 59.572299 
L 431.039246 59.696167 
L 431.039246 59.609664 
L 430.968882 59.611519 
L 426.324848 59.647872 
L 426.324848 59.60404 
L 423.756557 59.584766 
L 423.756557 59.540603 
L 423.651011 59.543423 
L 415.840591 59.711636 
L 415.840591 59.485778 
L 415.735044 59.488646 
L 404.898966 59.699357 
L 404.898966 59.512747 
L 402.576949 59.578534 
L 402.576949 59.343484 
L 401.978854 59.360168 
L 401.978854 59.030115 
L 401.873307 59.032964 
L 397.370002 59.060542 
L 397.370002 58.916959 
L 384.247088 59.236501 
L 384.247088 59.136849 
L 384.176724 59.138879 
L 382.206528 59.196086 
L 382.206528 58.794522 
L 382.136164 58.796491 
L 372.637004 58.966995 
L 372.637004 58.759711 
L 372.601822 58.760723 
L 371.264903 58.79934 
L 371.264903 58.643067 
L 371.159357 58.646078 
L 367.183783 58.655369 
L 367.183783 58.443969 
L 363.73594 58.435541 
L 363.73594 58.328515 
L 363.665575 58.3305 
L 353.990505 58.502085 
L 353.990505 58.336034 
L 353.884959 58.339118 
L 349.698292 58.407094 
L 349.698292 58.23841 
L 349.627928 58.240473 
L 347.974371 58.289263 
L 347.974371 58.17606 
L 346.004174 58.234163 
L 346.004174 57.948948 
L 345.93381 57.950968 
L 343.04888 58.034661 
L 343.04888 57.746086 
L 342.943334 57.749072 
L 338.932578 57.864286 
L 338.932578 57.688387 
L 338.862214 57.690394 
L 338.686303 57.695416 
L 338.686303 57.460462 
L 338.580757 57.463389 
L 333.866359 57.596464 
L 333.866359 57.416955 
L 333.760813 57.419918 
L 333.092353 57.43874 
L 333.092353 57.018131 
L 333.057171 57.019069 
L 331.931345 57.049232 
L 331.931345 56.807493 
L 329.961149 56.859114 
L 329.961149 56.676298 
L 329.890785 56.678108 
L 323.382101 56.787289 
L 323.382101 56.411829 
L 319.96944 56.499556 
L 319.96944 56.182014 
L 317.401149 56.182187 
L 317.330784 55.733866 
L 316.134594 55.697198 
L 316.134594 55.567788 
L 309.133361 55.731732 
L 309.133361 55.331886 
L 309.027815 55.334257 
L 304.102325 55.447277 
L 304.102325 54.901763 
L 296.502997 55.06773 
L 296.502997 54.926636 
L 296.397451 54.928954 
L 295.940084 54.939026 
L 295.940084 54.797497 
L 292.034874 54.882723 
L 292.034874 54.738652 
L 288.58703 54.740988 
L 288.58703 54.594537 
L 288.551848 54.595285 
L 283.48563 54.630581 
L 283.48563 54.40547 
L 283.450448 54.406205 
L 254.601147 55.016525 
L 254.601147 54.669519 
L 254.495601 54.672223 
L 246.438906 54.888169 
L 246.438906 54.342829 
L 243.835433 54.408811 
L 243.835433 54.224043 
L 217.624788 54.876758 
L 217.624788 54.441585 
L 208.794087 54.61282 
L 208.794087 54.033009 
L 208.758905 54.034051 
L 187.720025 54.7688 
L 185.855376 54.846825 
L 185.855376 54.568842 
L 184.025908 54.643456 
L 184.025908 53.510319 
L 181.422434 53.594391 
L 181.422434 53.449041 
L 181.387252 53.450158 
L 173.436104 53.722305 
L 173.436104 53.565649 
L 173.400921 53.566894 
L 168.088428 53.765145 
L 168.088428 53.599843 
L 168.053246 53.601169 
L 155.493246 54.144811 
L 155.493246 53.955022 
L 155.422882 53.958366 
L 146.662546 54.423078 
L 146.662546 53.999196 
L 146.556999 54.004865 
L 143.636887 54.168222 
L 143.636887 53.947242 
L 143.531341 53.953074 
L 140.540865 54.125665 
L 140.540865 53.663551 
L 129.388147 54.375575 
L 126.503217 54.606299 
L 126.503217 52.864851 
L 122.8091 53.074574 
L 122.8091 52.449634 
L 122.738735 52.453072 
L 113.063665 53.035995 
L 105.780976 53.690146 
L 100.644393 54.346346 
L 100.644393 52.150146 
L 94.698623 52.715371 
L 90.441592 53.336588 
L 89.702768 53.473788 
L 89.702768 52.59363 
L 89.597222 52.60907 
L 87.732572 52.914773 
L 87.732572 50.931046 
L 87.662208 50.935386 
L 84.706914 51.159385 
L 84.706914 49.932727 
L 84.63655 49.932727 
L 71.513636 49.932727 
L 71.513636 49.932727 
" clip-path="url(#p09f94e1b8d)" style="fill: none; stroke: #1f77b4; stroke-width: 1.5; stroke-linecap: square"/>
   </g>
   <g id="line2d_26">
    <path d="M 547.386364 510.967821 
L 547.386364 510.556823 
L 506.982075 510.510614 
L 506.982075 510.496511 
L 506.982075 510.489251 
L 466.577787 510.446482 
L 466.577787 510.439913 
L 466.577787 510.430145 
L 430.662864 510.404129 
L 430.662864 510.38492 
L 430.662864 510.38371 
L 390.258576 510.368371 
L 390.258576 510.35933 
L 390.258576 510.337166 
L 367.81175 510.29801 
L 367.81175 510.283631 
L 367.81175 510.276576 
L 340.875557 510.2581 
L 340.875557 510.245249 
L 340.875557 510.214938 
L 313.939365 510.199881 
L 313.939365 510.197749 
L 313.939365 510.113894 
L 304.960635 510.117786 
L 304.960635 510.041326 
L 304.960635 510.028385 
L 291.492539 510.003505 
L 291.492539 509.982201 
L 291.492539 509.957876 
L 287.003173 509.982262 
L 287.003173 509.871188 
L 287.003173 509.815093 
L 278.024443 509.816616 
L 278.024443 509.759775 
L 278.024443 509.73614 
L 273.535077 509.76691 
L 273.535077 509.655891 
L 273.535077 509.371552 
L 269.045712 509.411054 
L 269.045712 509.300168 
L 269.045712 508.949048 
L 264.556346 508.998969 
L 264.556346 508.88798 
L 264.556346 508.20414 
L 260.066981 508.272355 
L 260.066981 508.161365 
L 260.066981 507.452671 
L 255.577616 507.540151 
L 255.577616 507.42972 
L 255.577616 100.065676 
L 246.598885 102.344447 
L 246.598885 92.837205 
L 242.10952 93.85874 
L 242.10952 83.680761 
L 237.620154 84.524462 
L 237.620154 73.585196 
L 224.152058 75.556235 
L 215.173328 77.0635 
L 206.194597 78.759173 
L 197.215866 80.680936 
L 188.237136 82.877237 
L 183.74777 84.097404 
L 183.74777 67.672078 
L 174.769039 69.150358 
L 170.279674 69.985907 
L 161.300943 71.895733 
L 156.811578 72.993884 
L 152.322213 74.207629 
L 147.832847 75.556235 
L 143.343482 77.0635 
L 138.854117 78.759173 
L 134.364751 80.680936 
L 129.875386 82.877237 
L 125.386021 85.41143 
L 120.896655 88.367988 
L 116.40729 91.862103 
L 111.917925 96.05504 
L 107.428559 101.179742 
L 102.939194 107.585619 
L 98.449828 115.821746 
L 93.960463 126.803249 
L 89.471098 142.177353 
L 84.981732 165.23851 
L 80.492367 203.673771 
L 80.492367 49.932727 
L 71.513636 49.932727 
L 71.513636 49.932727 
" clip-path="url(#p09f94e1b8d)" style="fill: none; stroke: #ff7f0e; stroke-width: 1.5; stroke-linecap: square"/>
   </g>
   <g id="line2d_27">
    <path d="M 547.386364 510.938424 
L 547.386364 510.559363 
L 532.965978 510.505799 
L 532.965978 510.466307 
L 532.965978 510.452852 
L 504.125207 510.402006 
L 504.125207 510.385626 
L 504.125207 510.382916 
L 484.898026 510.349163 
L 484.898026 510.306114 
L 484.898026 510.288726 
L 460.86405 510.282104 
L 460.86405 510.227959 
L 460.86405 510.192374 
L 446.443664 510.134178 
L 446.443664 510.116887 
L 446.443664 510.110426 
L 403.182507 510.126608 
L 403.182507 510.119671 
L 403.182507 510.030645 
L 383.955326 510.022717 
L 383.955326 509.984646 
L 383.955326 509.907076 
L 369.53494 509.905985 
L 369.53494 509.853502 
L 369.53494 509.853027 
L 350.307759 509.847167 
L 350.307759 509.825759 
L 350.307759 509.812872 
L 340.694169 509.79632 
L 340.694169 509.748003 
L 340.694169 509.710017 
L 335.887374 509.735756 
L 335.887374 509.624665 
L 335.887374 509.573962 
L 321.466988 509.563321 
L 321.466988 509.548916 
L 321.466988 504.12048 
L 316.660193 504.253751 
L 316.660193 504.142626 
L 316.660193 407.53304 
L 311.853398 409.115342 
L 311.853398 106.574164 
L 302.239807 108.633853 
L 302.239807 85.41143 
L 287.819421 87.583595 
L 273.399036 90.039086 
L 273.399036 80.680936 
L 258.97865 82.877237 
L 249.36506 84.524462 
L 239.751469 86.34508 
L 230.137879 88.367988 
L 230.137879 76.288335 
L 220.524288 77.885644 
L 210.910698 79.689058 
L 206.103903 80.680936 
L 206.103903 65.836973 
L 196.490312 67.015065 
L 186.876722 68.381652 
L 177.263131 69.985907 
L 167.649541 71.895733 
L 162.842746 72.993884 
L 158.03595 74.207629 
L 153.229155 75.556235 
L 148.42236 77.0635 
L 143.615565 78.759173 
L 138.80877 80.680936 
L 134.001974 82.877237 
L 129.195179 85.41143 
L 124.388384 88.367988 
L 119.581589 91.862103 
L 114.774793 96.05504 
L 109.967998 101.179742 
L 105.161203 107.585619 
L 105.161203 49.932727 
L 71.513636 49.932727 
L 71.513636 49.932727 
" clip-path="url(#p09f94e1b8d)" style="fill: none; stroke: #2ca02c; stroke-width: 1.5; stroke-linecap: square"/>
   </g>
   <g id="line2d_28">
    <path d="M 547.386364 510.963229 
L 547.386364 510.509339 
L 533.981498 510.458795 
L 533.981498 510.416426 
L 533.981498 510.40484 
L 473.659603 510.395892 
L 473.659603 510.391547 
L 473.659603 510.378952 
L 446.849872 510.369674 
L 446.849872 510.319551 
L 446.849872 510.317978 
L 440.147439 510.332913 
L 440.147439 510.22183 
L 440.147439 510.202165 
L 393.23041 510.222877 
L 393.23041 510.212219 
L 393.23041 510.18601 
L 379.825544 510.150633 
L 379.825544 510.115233 
L 379.825544 510.087835 
L 373.123111 510.111001 
L 373.123111 509.99991 
L 373.123111 509.962902 
L 359.718246 509.950156 
L 359.718246 509.904748 
L 359.718246 509.802651 
L 353.015813 509.834031 
L 353.015813 509.722958 
L 353.015813 509.696401 
L 339.610948 509.729247 
L 339.610948 509.654603 
L 339.610948 509.589868 
L 326.206082 509.6526 
L 326.206082 509.556872 
L 326.206082 509.550428 
L 319.503649 509.592533 
L 319.503649 509.48148 
L 319.503649 509.275182 
L 306.098784 509.371925 
L 306.098784 509.265378 
L 306.098784 509.258712 
L 299.396351 509.3127 
L 299.396351 509.201766 
L 299.396351 509.184571 
L 285.991485 509.255621 
L 285.991485 509.189021 
L 285.991485 509.182183 
L 279.289052 509.243605 
L 279.289052 509.132663 
L 279.289052 508.885987 
L 272.58662 508.95886 
L 272.58662 508.847819 
L 272.58662 505.623393 
L 265.884187 505.805669 
L 265.884187 505.696482 
L 265.884187 93.172396 
L 259.181754 94.567224 
L 259.181754 80.680936 
L 252.479321 81.741219 
L 252.479321 66.404982 
L 239.074456 67.672078 
L 225.66959 69.150358 
L 212.264725 70.897415 
L 198.859859 72.993884 
L 192.157426 74.207629 
L 185.454994 75.556235 
L 178.752561 77.0635 
L 172.050128 78.759173 
L 165.347695 80.680936 
L 158.645262 82.877237 
L 151.94283 85.41143 
L 145.240397 88.367988 
L 138.537964 91.862103 
L 131.835531 96.05504 
L 131.835531 49.932727 
L 71.513636 49.932727 
L 71.513636 49.932727 
" clip-path="url(#p09f94e1b8d)" style="fill: none; stroke: #d62728; stroke-width: 1.5; stroke-linecap: square"/>
   </g>
   <g id="line2d_29">
    <path d="M 547.386364 510.974251 
L 547.386364 510.530544 
L 486.958081 510.531924 
L 486.958081 510.498743 
L 486.958081 510.462801 
L 441.636869 510.450932 
L 441.636869 510.427204 
L 441.636869 510.424303 
L 373.655051 510.45825 
L 373.655051 510.447374 
L 373.655051 510.430265 
L 335.887374 510.416413 
L 335.887374 510.409714 
L 335.887374 510.230662 
L 320.780303 510.257848 
L 320.780303 510.172376 
L 320.780303 510.135726 
L 305.673232 510.1188 
L 305.673232 510.086375 
L 305.673232 510.052964 
L 298.119697 510.088459 
L 298.119697 509.977364 
L 298.119697 509.876578 
L 275.459091 509.937481 
L 275.459091 509.89313 
L 275.459091 509.787995 
L 267.905556 509.838512 
L 267.905556 509.727412 
L 267.905556 486.015813 
L 260.35202 486.931954 
L 260.35202 486.829743 
L 260.35202 161.744395 
L 252.798485 165.23851 
L 252.798485 85.41143 
L 245.244949 86.830578 
L 245.244949 69.150358 
L 230.137879 70.897415 
L 222.584343 71.895733 
L 222.584343 49.932727 
L 71.513636 49.932727 
L 71.513636 49.932727 
" clip-path="url(#p09f94e1b8d)" style="fill: none; stroke: #9467bd; stroke-width: 1.5; stroke-linecap: square"/>
   </g>
   <g id="line2d_30">
    <path d="M 547.386364 510.987273 
L 547.386364 510.551476 
L 529.428902 510.572914 
L 529.428902 510.463147 
L 529.428902 510.446476 
L 466.577787 510.44668 
L 466.577787 510.432603 
L 466.577787 510.421453 
L 439.641595 510.428936 
L 439.641595 510.360344 
L 439.641595 510.298527 
L 403.726672 510.321003 
L 403.726672 510.270914 
L 403.726672 510.251163 
L 385.769211 510.213267 
L 385.769211 510.188875 
L 385.769211 510.086868 
L 358.833019 510.152312 
L 358.833019 510.067185 
L 358.833019 510.008804 
L 322.918096 510.058734 
L 322.918096 510.040734 
L 322.918096 510.030531 
L 313.939365 510.070627 
L 313.939365 509.959602 
L 313.939365 509.946826 
L 295.981904 510.008993 
L 295.981904 509.925142 
L 295.981904 509.846458 
L 287.003173 509.898691 
L 287.003173 509.787581 
L 287.003173 509.70528 
L 278.024443 509.765539 
L 278.024443 509.654565 
L 278.024443 509.562327 
L 269.045712 509.631382 
L 269.045712 509.520315 
L 269.045712 509.438371 
L 251.08825 509.571443 
L 251.08825 509.482941 
L 251.08825 509.274082 
L 242.10952 509.367806 
L 242.10952 509.256998 
L 242.10952 508.893793 
L 233.130789 509.012296 
L 233.130789 508.901713 
L 233.130789 508.676904 
L 215.173328 508.897727 
L 215.173328 508.840335 
L 215.173328 142.177353 
L 206.194597 147.032334 
L 197.215866 152.426756 
L 188.237136 158.455817 
L 179.258405 165.23851 
L 170.279674 172.925562 
L 170.279674 88.367988 
L 161.300943 91.862103 
L 161.300943 49.932727 
L 71.513636 49.932727 
L 71.513636 49.932727 
" clip-path="url(#p09f94e1b8d)" style="fill: none; stroke: #8c564b; stroke-width: 1.5; stroke-linecap: square"/>
   </g>
   <g id="line2d_31">
    <path d="M 547.386364 510.980911 
L 547.386364 510.600593 
L 512.777438 510.542465 
L 512.777438 510.52983 
L 512.777438 510.511568 
L 443.559587 510.526252 
L 443.559587 510.501403 
L 443.559587 510.4902 
L 408.950661 510.451948 
L 408.950661 510.440925 
L 408.950661 510.417477 
L 365.689504 510.430698 
L 365.689504 510.400883 
L 365.689504 510.382604 
L 339.73281 510.363027 
L 339.73281 510.339627 
L 339.73281 510.324583 
L 296.471653 510.354052 
L 296.471653 510.347349 
L 296.471653 510.153031 
L 287.819421 510.191521 
L 287.819421 510.080445 
L 287.819421 509.751231 
L 279.16719 509.807252 
L 279.16719 509.696291 
L 279.16719 509.632203 
L 270.514959 509.695487 
L 270.514959 509.584515 
L 270.514959 509.380438 
L 261.862727 509.457346 
L 261.862727 509.346495 
L 261.862727 509.028623 
L 253.210496 509.12489 
L 253.210496 509.013955 
L 253.210496 501.372337 
L 244.558264 501.828797 
L 244.558264 501.723892 
L 244.558264 181.710765 
L 235.906033 186.591433 
L 235.906033 160.626279 
L 227.253802 165.23851 
L 227.253802 96.05504 
L 218.60157 98.48253 
L 218.60157 75.556235 
L 209.949339 77.0635 
L 209.949339 49.932727 
L 71.513636 49.932727 
L 71.513636 49.932727 
" clip-path="url(#p09f94e1b8d)" style="fill: none; stroke: #e377c2; stroke-width: 1.5; stroke-linecap: square"/>
   </g>
   <g id="line2d_32">
    <path d="M 547.386364 510.953629 
L 547.386364 510.59699 
L 488.945853 510.560869 
L 488.945853 510.55443 
L 488.945853 510.545354 
L 455.551276 510.510084 
L 455.551276 510.48303 
L 455.551276 510.467554 
L 397.110766 510.521371 
L 397.110766 510.461057 
L 397.110766 510.408798 
L 372.064833 510.428313 
L 372.064833 510.355085 
L 372.064833 510.096724 
L 355.367544 510.05082 
L 355.367544 510.044398 
L 355.367544 509.960068 
L 338.670255 509.960786 
L 338.670255 509.919127 
L 338.670255 509.889305 
L 321.972967 509.879998 
L 321.972967 509.857247 
L 321.972967 509.789271 
L 313.624322 509.834693 
L 313.624322 509.723641 
L 313.624322 509.609024 
L 305.275678 509.66219 
L 305.275678 509.551205 
L 305.275678 509.393542 
L 296.927033 509.45625 
L 296.927033 509.345299 
L 296.927033 484.37516 
L 288.578389 485.311458 
L 288.578389 485.255639 
L 288.578389 244.671382 
L 280.229745 249.097261 
L 280.229745 207.719588 
L 271.8811 211.984097 
L 271.8811 142.177353 
L 263.532456 145.358203 
L 263.532456 132.294001 
L 255.183812 135.344418 
L 246.835167 138.629483 
L 246.835167 123.728428 
L 238.486523 126.803249 
L 230.137879 130.145446 
L 221.789234 133.791478 
L 213.44059 137.784752 
L 205.091946 142.177353 
L 205.091946 122.757432 
L 196.743301 126.803249 
L 188.394657 131.325044 
L 180.046013 136.412064 
L 171.697368 142.177353 
L 163.348724 148.766255 
L 155.00008 156.368834 
L 146.651435 165.23851 
L 138.302791 175.720854 
L 129.954147 188.299666 
L 129.954147 152.426756 
L 121.605502 165.23851 
L 113.256858 181.710765 
L 104.908214 203.673771 
L 104.908214 49.932727 
L 71.513636 49.932727 
L 71.513636 49.932727 
" clip-path="url(#p09f94e1b8d)" style="fill: none; stroke: #7f7f7f; stroke-width: 1.5; stroke-linecap: square"/>
   </g>
   <g id="line2d_33">
    <path d="M 547.386364 510.943695 
L 547.386364 510.555086 
L 506.006126 510.499045 
L 506.006126 510.49616 
L 506.006126 510.479955 
L 433.590711 510.497209 
L 433.590711 510.481358 
L 433.590711 510.461125 
L 423.245652 510.480945 
L 423.245652 510.369853 
L 423.245652 510.316687 
L 402.555534 510.322949 
L 402.555534 510.254866 
L 402.555534 510.225679 
L 371.520356 510.235633 
L 371.520356 510.201626 
L 371.520356 510.043275 
L 350.830237 510.040095 
L 350.830237 510.008748 
L 350.830237 509.784379 
L 330.140119 509.803139 
L 330.140119 509.774619 
L 330.140119 509.77097 
L 309.45 509.878693 
L 309.45 509.770442 
L 309.45 509.529592 
L 299.104941 509.600061 
L 299.104941 509.489151 
L 299.104941 509.466396 
L 288.759881 509.542921 
L 288.759881 509.431813 
L 288.759881 508.732012 
L 278.414822 508.846856 
L 278.414822 508.736009 
L 278.414822 460.191976 
L 268.069763 462.471194 
L 268.069763 219.047875 
L 257.724704 224.879432 
L 257.724704 74.207629 
L 247.379644 75.556235 
L 237.034585 77.0635 
L 237.034585 49.932727 
L 71.513636 49.932727 
L 71.513636 49.932727 
" clip-path="url(#p09f94e1b8d)" style="fill: none; stroke: #bcbd22; stroke-width: 1.5; stroke-linecap: square"/>
   </g>
   <g id="line2d_34">
    <path d="M 547.386364 510.937384 
L 547.386364 510.543705 
L 536.811414 510.557291 
L 536.811414 510.446184 
L 536.811414 510.422037 
L 483.936667 510.411272 
L 483.936667 510.394216 
L 483.936667 510.387481 
L 441.636869 510.394045 
L 441.636869 510.355083 
L 441.636869 510.284686 
L 420.48697 510.228861 
L 420.48697 510.223295 
L 420.48697 510.070395 
L 409.91202 510.103212 
L 409.91202 509.992163 
L 409.91202 509.948171 
L 388.762121 509.940727 
L 388.762121 509.912445 
L 388.762121 509.85968 
L 378.187172 509.902769 
L 378.187172 509.79171 
L 378.187172 509.773666 
L 367.612222 509.82119 
L 367.612222 509.710179 
L 367.612222 509.683981 
L 346.462323 509.782384 
L 346.462323 509.677761 
L 346.462323 509.422437 
L 335.887374 509.488867 
L 335.887374 509.377819 
L 335.887374 509.34059 
L 325.312424 509.412927 
L 325.312424 509.302005 
L 325.312424 509.254887 
L 314.737475 509.333781 
L 314.737475 509.222889 
L 314.737475 508.700272 
L 304.162525 508.806492 
L 304.162525 508.695405 
L 304.162525 250.978707 
L 293.587576 256.269391 
L 293.587576 90.039086 
L 283.012626 91.862103 
L 272.437677 93.85874 
L 261.862727 96.05504 
L 251.287778 98.48253 
L 240.712828 101.179742 
L 230.137879 104.194272 
L 230.137879 49.932727 
L 71.513636 49.932727 
L 71.513636 49.932727 
" clip-path="url(#p09f94e1b8d)" style="fill: none; stroke: #17becf; stroke-width: 1.5; stroke-linecap: square"/>
   </g>
   <g id="patch_3">
    <path d="M 47.72 534.04 
L 47.72 26.88 
" style="fill: none; stroke: #000000; stroke-width: 0.8; stroke-linejoin: miter; stroke-linecap: square"/>
   </g>
   <g id="patch_4">
    <path d="M 571.18 534.04 
L 571.18 26.88 
" style="fill: none; stroke: #000000; stroke-width: 0.8; stroke-linejoin: miter; stroke-linecap: square"/>
   </g>
   <g id="patch_5">
    <path d="M 47.72 534.04 
L 571.18 534.04 
" style="fill: none; stroke: #000000; stroke-width: 0.8; stroke-linejoin: miter; stroke-linecap: square"/>
   </g>
   <g id="patch_6">
    <path d="M 47.72 26.88 
L 571.18 26.88 
" style="fill: none; stroke: #000000; stroke-width: 0.8; stroke-linejoin: miter; stroke-linecap: square"/>
   </g>
   <g id="text_15">
    <!-- Acceptor Precision-Recall Curves by Sequence -->
    <g transform="translate(170.614688 20.88) scale(0.12 -0.12)">
     <defs>
      <path id="DejaVuSans-41" d="M 2188 4044 
L 1331 1722 
L 3047 1722 
L 2188 4044 
z
M 1831 4666 
L 2547 4666 
L 4325 0 
L 3669 0 
L 3244 1197 
L 1141 1197 
L 716 0 
L 50 0 
L 1831 4666 
z
" transform="scale(0.015625)"/>
      <path id="DejaVuSans-70" d="M 1159 525 
L 1159 -1331 
L 581 -1331 
L 581 3500 
L 1159 3500 
L 1159 2969 
Q 1341 3281 1617 3432 
Q 1894 3584 2278 3584 
Q 2916 3584 3314 3078 
Q 3713 2572 3713 1747 
Q 3713 922 3314 415 
Q 2916 -91 2278 -91 
Q 1894 -91 1617 61 
Q 1341 213 1159 525 
z
M 3116 1747 
Q 3116 2381 2855 2742 
Q 2594 3103 2138 3103 
Q 1681 3103 1420 2742 
Q 1159 2381 1159 1747 
Q 1159 1113 1420 752 
Q 1681 391 2138 391 
Q 2594 391 2855 752 
Q 3116 1113 3116 1747 
z
" transform="scale(0.015625)"/>
      <path id="DejaVuSans-74" d="M 1172 4494 
L 1172 3500 
L 2356 3500 
L 2356 3053 
L 1172 3053 
L 1172 1153 
Q 1172 725 1289 603 
Q 1406 481 1766 481 
L 2356 481 
L 2356 0 
L 1766 0 
Q 1100 0 847 248 
Q 594 497 594 1153 
L 594 3053 
L 172 3053 
L 172 3500 
L 594 3500 
L 594 4494 
L 1172 4494 
z
" transform="scale(0.015625)"/>
      <path id="DejaVuSans-20" transform="scale(0.015625)"/>
      <path id="DejaVuSans-2d" d="M 313 2009 
L 1997 2009 
L 1997 1497 
L 313 1497 
L 313 2009 
z
" transform="scale(0.015625)"/>
      <path id="DejaVuSans-43" d="M 4122 4306 
L 4122 3641 
Q 3803 3938 3442 4084 
Q 3081 4231 2675 4231 
Q 1875 4231 1450 3742 
Q 1025 3253 1025 2328 
Q 1025 1406 1450 917 
Q 1875 428 2675 428 
Q 3081 428 3442 575 
Q 3803 722 4122 1019 
L 4122 359 
Q 3791 134 3420 21 
Q 3050 -91 2638 -91 
Q 1578 -91 968 557 
Q 359 1206 359 2328 
Q 359 3453 968 4101 
Q 1578 4750 2638 4750 
Q 3056 4750 3426 4639 
Q 3797 4528 4122 4306 
z
" transform="scale(0.015625)"/>
      <path id="DejaVuSans-75" d="M 544 1381 
L 544 3500 
L 1119 3500 
L 1119 1403 
Q 1119 906 1312 657 
Q 1506 409 1894 409 
Q 2359 409 2629 706 
Q 2900 1003 2900 1516 
L 2900 3500 
L 3475 3500 
L 3475 0 
L 2900 0 
L 2900 538 
Q 2691 219 2414 64 
Q 2138 -91 1772 -91 
Q 1169 -91 856 284 
Q 544 659 544 1381 
z
M 1991 3584 
L 1991 3584 
z
" transform="scale(0.015625)"/>
      <path id="DejaVuSans-76" d="M 191 3500 
L 800 3500 
L 1894 563 
L 2988 3500 
L 3597 3500 
L 2284 0 
L 1503 0 
L 191 3500 
z
" transform="scale(0.015625)"/>
      <path id="DejaVuSans-62" d="M 3116 1747 
Q 3116 2381 2855 2742 
Q 2594 3103 2138 3103 
Q 1681 3103 1420 2742 
Q 1159 2381 1159 1747 
Q 1159 1113 1420 752 
Q 1681 391 2138 391 
Q 2594 391 2855 752 
Q 3116 1113 3116 1747 
z
M 1159 2969 
Q 1341 3281 1617 3432 
Q 1894 3584 2278 3584 
Q 2916 3584 3314 3078 
Q 3713 2572 3713 1747 
Q 3713 922 3314 415 
Q 2916 -91 2278 -91 
Q 1894 -91 1617 61 
Q 1341 213 1159 525 
L 1159 0 
L 581 0 
L 581 4863 
L 1159 4863 
L 1159 2969 
z
" transform="scale(0.015625)"/>
      <path id="DejaVuSans-79" d="M 2059 -325 
Q 1816 -950 1584 -1140 
Q 1353 -1331 966 -1331 
L 506 -1331 
L 506 -850 
L 844 -850 
Q 1081 -850 1212 -737 
Q 1344 -625 1503 -206 
L 1606 56 
L 191 3500 
L 800 3500 
L 1894 763 
L 2988 3500 
L 3597 3500 
L 2059 -325 
z
" transform="scale(0.015625)"/>
      <path id="DejaVuSans-53" d="M 3425 4513 
L 3425 3897 
Q 3066 4069 2747 4153 
Q 2428 4238 2131 4238 
Q 1616 4238 1336 4038 
Q 1056 3838 1056 3469 
Q 1056 3159 1242 3001 
Q 1428 2844 1947 2747 
L 2328 2669 
Q 3034 2534 3370 2195 
Q 3706 1856 3706 1288 
Q 3706 609 3251 259 
Q 2797 -91 1919 -91 
Q 1588 -91 1214 -16 
Q 841 59 441 206 
L 441 856 
Q 825 641 1194 531 
Q 1563 422 1919 422 
Q 2459 422 2753 634 
Q 3047 847 3047 1241 
Q 3047 1584 2836 1778 
Q 2625 1972 2144 2069 
L 1759 2144 
Q 1053 2284 737 2584 
Q 422 2884 422 3419 
Q 422 4038 858 4394 
Q 1294 4750 2059 4750 
Q 2388 4750 2728 4690 
Q 3069 4631 3425 4513 
z
" transform="scale(0.015625)"/>
      <path id="DejaVuSans-71" d="M 947 1747 
Q 947 1113 1208 752 
Q 1469 391 1925 391 
Q 2381 391 2643 752 
Q 2906 1113 2906 1747 
Q 2906 2381 2643 2742 
Q 2381 3103 1925 3103 
Q 1469 3103 1208 2742 
Q 947 2381 947 1747 
z
M 2906 525 
Q 2725 213 2448 61 
Q 2172 -91 1784 -91 
Q 1150 -91 751 415 
Q 353 922 353 1747 
Q 353 2572 751 3078 
Q 1150 3584 1784 3584 
Q 2172 3584 2448 3432 
Q 2725 3281 2906 2969 
L 2906 3500 
L 3481 3500 
L 3481 -1331 
L 2906 -1331 
L 2906 525 
z
" transform="scale(0.015625)"/>
     </defs>
     <use xlink:href="#DejaVuSans-41"/>
     <use xlink:href="#DejaVuSans-63" transform="translate(66.658203 0)"/>
     <use xlink:href="#DejaVuSans-63" transform="translate(121.638672 0)"/>
     <use xlink:href="#DejaVuSans-65" transform="translate(176.619141 0)"/>
     <use xlink:href="#DejaVuSans-70" transform="translate(238.142578 0)"/>
     <use xlink:href="#DejaVuSans-74" transform="translate(301.619141 0)"/>
     <use xlink:href="#DejaVuSans-6f" transform="translate(340.828125 0)"/>
     <use xlink:href="#DejaVuSans-72" transform="translate(402.009766 0)"/>
     <use xlink:href="#DejaVuSans-20" transform="translate(443.123047 0)"/>
     <use xlink:href="#DejaVuSans-50" transform="translate(474.910156 0)"/>
     <use xlink:href="#DejaVuSans-72" transform="translate(533.462891 0)"/>
     <use xlink:href="#DejaVuSans-65" transform="translate(572.326172 0)"/>
     <use xlink:href="#DejaVuSans-63" transform="translate(633.849609 0)"/>
     <use xlink:href="#DejaVuSans-69" transform="translate(688.830078 0)"/>
     <use xlink:href="#DejaVuSans-73" transform="translate(716.613281 0)"/>
     <use xlink:href="#DejaVuSans-69" transform="translate(768.712891 0)"/>
     <use xlink:href="#DejaVuSans-6f" transform="translate(796.496094 0)"/>
     <use xlink:href="#DejaVuSans-6e" transform="translate(857.677734 0)"/>
     <use xlink:href="#DejaVuSans-2d" transform="translate(921.056641 0)"/>
     <use xlink:href="#DejaVuSans-52" transform="translate(957.140625 0)"/>
     <use xlink:href="#DejaVuSans-65" transform="translate(1022.123047 0)"/>
     <use xlink:href="#DejaVuSans-63" transform="translate(1083.646484 0)"/>
     <use xlink:href="#DejaVuSans-61" transform="translate(1138.626953 0)"/>
     <use xlink:href="#DejaVuSans-6c" transform="translate(1199.90625 0)"/>
     <use xlink:href="#DejaVuSans-6c" transform="translate(1227.689453 0)"/>
     <use xlink:href="#DejaVuSans-20" transform="translate(1255.472656 0)"/>
     <use xlink:href="#DejaVuSans-43" transform="translate(1287.259766 0)"/>
     <use xlink:href="#DejaVuSans-75" transform="translate(1357.083984 0)"/>
     <use xlink:href="#DejaVuSans-72" transform="translate(1420.462891 0)"/>
     <use xlink:href="#DejaVuSans-76" transform="translate(1461.576172 0)"/>
     <use xlink:href="#DejaVuSans-65" transform="translate(1520.755859 0)"/>
     <use xlink:href="#DejaVuSans-73" transform="translate(1582.279297 0)"/>
     <use xlink:href="#DejaVuSans-20" transform="translate(1634.378906 0)"/>
     <use xlink:href="#DejaVuSans-62" transform="translate(1666.166016 0)"/>
     <use xlink:href="#DejaVuSans-79" transform="translate(1729.642578 0)"/>
     <use xlink:href="#DejaVuSans-20" transform="translate(1788.822266 0)"/>
     <use xlink:href="#DejaVuSans-53" transform="translate(1820.609375 0)"/>
     <use xlink:href="#DejaVuSans-65" transform="translate(1884.085938 0)"/>
     <use xlink:href="#DejaVuSans-71" transform="translate(1945.609375 0)"/>
     <use xlink:href="#DejaVuSans-75" transform="translate(2009.085938 0)"/>
     <use xlink:href="#DejaVuSans-65" transform="translate(2072.464844 0)"/>
     <use xlink:href="#DejaVuSans-6e" transform="translate(2133.988281 0)"/>
     <use xlink:href="#DejaVuSans-63" transform="translate(2197.367188 0)"/>
     <use xlink:href="#DejaVuSans-65" transform="translate(2252.347656 0)"/>
    </g>
   </g>
   <g id="legend_1">
    <g id="patch_7">
     <path d="M 604.353 181.66125 
L 844.442063 181.66125 
Q 846.442063 181.66125 846.442063 179.66125 
L 846.442063 33.88 
Q 846.442063 31.88 844.442063 31.88 
L 604.353 31.88 
Q 602.353 31.88 602.353 33.88 
L 602.353 179.66125 
Q 602.353 181.66125 604.353 181.66125 
z
" style="fill: #ffffff; opacity: 0.8; stroke: #cccccc; stroke-linejoin: miter"/>
    </g>
    <g id="line2d_35">
     <path d="M 606.353 39.978438 
L 616.353 39.978438 
L 626.353 39.978438 
" style="fill: none; stroke: #1f77b4; stroke-width: 1.5; stroke-linecap: square"/>
    </g>
    <g id="text_16">
     <!-- AG (AUPRC=0.955, n=3805, topk=0.949) -->
     <g transform="translate(634.353 43.478438) scale(0.1 -0.1)">
      <defs>
       <path id="DejaVuSans-47" d="M 3809 666 
L 3809 1919 
L 2778 1919 
L 2778 2438 
L 4434 2438 
L 4434 434 
Q 4069 175 3628 42 
Q 3188 -91 2688 -91 
Q 1594 -91 976 548 
Q 359 1188 359 2328 
Q 359 3472 976 4111 
Q 1594 4750 2688 4750 
Q 3144 4750 3555 4637 
Q 3966 4525 4313 4306 
L 4313 3634 
Q 3963 3931 3569 4081 
Q 3175 4231 2741 4231 
Q 1884 4231 1454 3753 
Q 1025 3275 1025 2328 
Q 1025 1384 1454 906 
Q 1884 428 2741 428 
Q 3075 428 3337 486 
Q 3600 544 3809 666 
z
" transform="scale(0.015625)"/>
       <path id="DejaVuSans-28" d="M 1984 4856 
Q 1566 4138 1362 3434 
Q 1159 2731 1159 2009 
Q 1159 1288 1364 580 
Q 1569 -128 1984 -844 
L 1484 -844 
Q 1016 -109 783 600 
Q 550 1309 550 2009 
Q 550 2706 781 3412 
Q 1013 4119 1484 4856 
L 1984 4856 
z
" transform="scale(0.015625)"/>
       <path id="DejaVuSans-55" d="M 556 4666 
L 1191 4666 
L 1191 1831 
Q 1191 1081 1462 751 
Q 1734 422 2344 422 
Q 2950 422 3222 751 
Q 3494 1081 3494 1831 
L 3494 4666 
L 4128 4666 
L 4128 1753 
Q 4128 841 3676 375 
Q 3225 -91 2344 -91 
Q 1459 -91 1007 375 
Q 556 841 556 1753 
L 556 4666 
z
" transform="scale(0.015625)"/>
       <path id="DejaVuSans-3d" d="M 678 2906 
L 4684 2906 
L 4684 2381 
L 678 2381 
L 678 2906 
z
M 678 1631 
L 4684 1631 
L 4684 1100 
L 678 1100 
L 678 1631 
z
" transform="scale(0.015625)"/>
       <path id="DejaVuSans-39" d="M 703 97 
L 703 672 
Q 941 559 1184 500 
Q 1428 441 1663 441 
Q 2288 441 2617 861 
Q 2947 1281 2994 2138 
Q 2813 1869 2534 1725 
Q 2256 1581 1919 1581 
Q 1219 1581 811 2004 
Q 403 2428 403 3163 
Q 403 3881 828 4315 
Q 1253 4750 1959 4750 
Q 2769 4750 3195 4129 
Q 3622 3509 3622 2328 
Q 3622 1225 3098 567 
Q 2575 -91 1691 -91 
Q 1453 -91 1209 -44 
Q 966 3 703 97 
z
M 1959 2075 
Q 2384 2075 2632 2365 
Q 2881 2656 2881 3163 
Q 2881 3666 2632 3958 
Q 2384 4250 1959 4250 
Q 1534 4250 1286 3958 
Q 1038 3666 1038 3163 
Q 1038 2656 1286 2365 
Q 1534 2075 1959 2075 
z
" transform="scale(0.015625)"/>
       <path id="DejaVuSans-35" d="M 691 4666 
L 3169 4666 
L 3169 4134 
L 1269 4134 
L 1269 2991 
Q 1406 3038 1543 3061 
Q 1681 3084 1819 3084 
Q 2600 3084 3056 2656 
Q 3513 2228 3513 1497 
Q 3513 744 3044 326 
Q 2575 -91 1722 -91 
Q 1428 -91 1123 -41 
Q 819 9 494 109 
L 494 744 
Q 775 591 1075 516 
Q 1375 441 1709 441 
Q 2250 441 2565 725 
Q 2881 1009 2881 1497 
Q 2881 1984 2565 2268 
Q 2250 2553 1709 2553 
Q 1456 2553 1204 2497 
Q 953 2441 691 2322 
L 691 4666 
z
" transform="scale(0.015625)"/>
       <path id="DejaVuSans-2c" d="M 750 794 
L 1409 794 
L 1409 256 
L 897 -744 
L 494 -744 
L 750 256 
L 750 794 
z
" transform="scale(0.015625)"/>
       <path id="DejaVuSans-33" d="M 2597 2516 
Q 3050 2419 3304 2112 
Q 3559 1806 3559 1356 
Q 3559 666 3084 287 
Q 2609 -91 1734 -91 
Q 1441 -91 1130 -33 
Q 819 25 488 141 
L 488 750 
Q 750 597 1062 519 
Q 1375 441 1716 441 
Q 2309 441 2620 675 
Q 2931 909 2931 1356 
Q 2931 1769 2642 2001 
Q 2353 2234 1838 2234 
L 1294 2234 
L 1294 2753 
L 1863 2753 
Q 2328 2753 2575 2939 
Q 2822 3125 2822 3475 
Q 2822 3834 2567 4026 
Q 2313 4219 1838 4219 
Q 1578 4219 1281 4162 
Q 984 4106 628 3988 
L 628 4550 
Q 988 4650 1302 4700 
Q 1616 4750 1894 4750 
Q 2613 4750 3031 4423 
Q 3450 4097 3450 3541 
Q 3450 3153 3228 2886 
Q 3006 2619 2597 2516 
z
" transform="scale(0.015625)"/>
       <path id="DejaVuSans-6b" d="M 581 4863 
L 1159 4863 
L 1159 1991 
L 2875 3500 
L 3609 3500 
L 1753 1863 
L 3688 0 
L 2938 0 
L 1159 1709 
L 1159 0 
L 581 0 
L 581 4863 
z
" transform="scale(0.015625)"/>
       <path id="DejaVuSans-29" d="M 513 4856 
L 1013 4856 
Q 1481 4119 1714 3412 
Q 1947 2706 1947 2009 
Q 1947 1309 1714 600 
Q 1481 -109 1013 -844 
L 513 -844 
Q 928 -128 1133 580 
Q 1338 1288 1338 2009 
Q 1338 2731 1133 3434 
Q 928 4138 513 4856 
z
" transform="scale(0.015625)"/>
      </defs>
      <use xlink:href="#DejaVuSans-41"/>
      <use xlink:href="#DejaVuSans-47" transform="translate(66.658203 0)"/>
      <use xlink:href="#DejaVuSans-20" transform="translate(144.148438 0)"/>
      <use xlink:href="#DejaVuSans-28" transform="translate(175.935547 0)"/>
      <use xlink:href="#DejaVuSans-41" transform="translate(214.949219 0)"/>
      <use xlink:href="#DejaVuSans-55" transform="translate(283.357422 0)"/>
      <use xlink:href="#DejaVuSans-50" transform="translate(356.550781 0)"/>
      <use xlink:href="#DejaVuSans-52" transform="translate(416.853516 0)"/>
      <use xlink:href="#DejaVuSans-43" transform="translate(481.335938 0)"/>
      <use xlink:href="#DejaVuSans-3d" transform="translate(551.160156 0)"/>
      <use xlink:href="#DejaVuSans-30" transform="translate(634.949219 0)"/>
      <use xlink:href="#DejaVuSans-2e" transform="translate(698.572266 0)"/>
      <use xlink:href="#DejaVuSans-39" transform="translate(730.359375 0)"/>
      <use xlink:href="#DejaVuSans-35" transform="translate(793.982422 0)"/>
      <use xlink:href="#DejaVuSans-35" transform="translate(857.605469 0)"/>
      <use xlink:href="#DejaVuSans-2c" transform="translate(921.228516 0)"/>
      <use xlink:href="#DejaVuSans-20" transform="translate(953.015625 0)"/>
      <use xlink:href="#DejaVuSans-6e" transform="translate(984.802734 0)"/>
      <use xlink:href="#DejaVuSans-3d" transform="translate(1048.181641 0)"/>
      <use xlink:href="#DejaVuSans-33" transform="translate(1131.970703 0)"/>
      <use xlink:href="#DejaVuSans-38" transform="translate(1195.59375 0)"/>
      <use xlink:href="#DejaVuSans-30" transform="translate(1259.216797 0)"/>
      <use xlink:href="#DejaVuSans-35" transform="translate(1322.839844 0)"/>
      <use xlink:href="#DejaVuSans-2c" transform="translate(1386.462891 0)"/>
      <use xlink:href="#DejaVuSans-20" transform="translate(1418.25 0)"/>
      <use xlink:href="#DejaVuSans-74" transform="translate(1450.037109 0)"/>
      <use xlink:href="#DejaVuSans-6f" transform="translate(1489.246094 0)"/>
      <use xlink:href="#DejaVuSans-70" transform="translate(1550.427734 0)"/>
      <use xlink:href="#DejaVuSans-6b" transform="translate(1613.904297 0)"/>
      <use xlink:href="#DejaVuSans-3d" transform="translate(1671.814453 0)"/>
      <use xlink:href="#DejaVuSans-30" transform="translate(1755.603516 0)"/>
      <use xlink:href="#DejaVuSans-2e" transform="translate(1819.226562 0)"/>
      <use xlink:href="#DejaVuSans-39" transform="translate(1851.013672 0)"/>
      <use xlink:href="#DejaVuSans-34" transform="translate(1914.636719 0)"/>
      <use xlink:href="#DejaVuSans-39" transform="translate(1978.259766 0)"/>
      <use xlink:href="#DejaVuSans-29" transform="translate(2041.882812 0)"/>
     </g>
    </g>
    <g id="line2d_36">
     <path d="M 606.353 54.656563 
L 616.353 54.656563 
L 626.353 54.656563 
" style="fill: none; stroke: #ff7f0e; stroke-width: 1.5; stroke-linecap: square"/>
    </g>
    <g id="text_17">
     <!-- CC (AUPRC=0.357, n=52, topk=0.387) -->
     <g transform="translate(634.353 58.156563) scale(0.1 -0.1)">
      <defs>
       <path id="DejaVuSans-37" d="M 525 4666 
L 3525 4666 
L 3525 4397 
L 1831 0 
L 1172 0 
L 2766 4134 
L 525 4134 
L 525 4666 
z
" transform="scale(0.015625)"/>
      </defs>
      <use xlink:href="#DejaVuSans-43"/>
      <use xlink:href="#DejaVuSans-43" transform="translate(69.824219 0)"/>
      <use xlink:href="#DejaVuSans-20" transform="translate(139.648438 0)"/>
      <use xlink:href="#DejaVuSans-28" transform="translate(171.435547 0)"/>
      <use xlink:href="#DejaVuSans-41" transform="translate(210.449219 0)"/>
      <use xlink:href="#DejaVuSans-55" transform="translate(278.857422 0)"/>
      <use xlink:href="#DejaVuSans-50" transform="translate(352.050781 0)"/>
      <use xlink:href="#DejaVuSans-52" transform="translate(412.353516 0)"/>
      <use xlink:href="#DejaVuSans-43" transform="translate(476.835938 0)"/>
      <use xlink:href="#DejaVuSans-3d" transform="translate(546.660156 0)"/>
      <use xlink:href="#DejaVuSans-30" transform="translate(630.449219 0)"/>
      <use xlink:href="#DejaVuSans-2e" transform="translate(694.072266 0)"/>
      <use xlink:href="#DejaVuSans-33" transform="translate(725.859375 0)"/>
      <use xlink:href="#DejaVuSans-35" transform="translate(789.482422 0)"/>
      <use xlink:href="#DejaVuSans-37" transform="translate(853.105469 0)"/>
      <use xlink:href="#DejaVuSans-2c" transform="translate(916.728516 0)"/>
      <use xlink:href="#DejaVuSans-20" transform="translate(948.515625 0)"/>
      <use xlink:href="#DejaVuSans-6e" transform="translate(980.302734 0)"/>
      <use xlink:href="#DejaVuSans-3d" transform="translate(1043.681641 0)"/>
      <use xlink:href="#DejaVuSans-35" transform="translate(1127.470703 0)"/>
      <use xlink:href="#DejaVuSans-32" transform="translate(1191.09375 0)"/>
      <use xlink:href="#DejaVuSans-2c" transform="translate(1254.716797 0)"/>
      <use xlink:href="#DejaVuSans-20" transform="translate(1286.503906 0)"/>
      <use xlink:href="#DejaVuSans-74" transform="translate(1318.291016 0)"/>
      <use xlink:href="#DejaVuSans-6f" transform="translate(1357.5 0)"/>
      <use xlink:href="#DejaVuSans-70" transform="translate(1418.681641 0)"/>
      <use xlink:href="#DejaVuSans-6b" transform="translate(1482.158203 0)"/>
      <use xlink:href="#DejaVuSans-3d" transform="translate(1540.068359 0)"/>
      <use xlink:href="#DejaVuSans-30" transform="translate(1623.857422 0)"/>
      <use xlink:href="#DejaVuSans-2e" transform="translate(1687.480469 0)"/>
      <use xlink:href="#DejaVuSans-33" transform="translate(1719.267578 0)"/>
      <use xlink:href="#DejaVuSans-38" transform="translate(1782.890625 0)"/>
      <use xlink:href="#DejaVuSans-37" transform="translate(1846.513672 0)"/>
      <use xlink:href="#DejaVuSans-29" transform="translate(1910.136719 0)"/>
     </g>
    </g>
    <g id="line2d_37">
     <path d="M 606.353 69.334688 
L 616.353 69.334688 
L 626.353 69.334688 
" style="fill: none; stroke: #2ca02c; stroke-width: 1.5; stroke-linecap: square"/>
    </g>
    <g id="text_18">
     <!-- GC (AUPRC=0.478, n=42, topk=0.505) -->
     <g transform="translate(634.353 72.834688) scale(0.1 -0.1)">
      <use xlink:href="#DejaVuSans-47"/>
      <use xlink:href="#DejaVuSans-43" transform="translate(77.490234 0)"/>
      <use xlink:href="#DejaVuSans-20" transform="translate(147.314453 0)"/>
      <use xlink:href="#DejaVuSans-28" transform="translate(179.101562 0)"/>
      <use xlink:href="#DejaVuSans-41" transform="translate(218.115234 0)"/>
      <use xlink:href="#DejaVuSans-55" transform="translate(286.523438 0)"/>
      <use xlink:href="#DejaVuSans-50" transform="translate(359.716797 0)"/>
      <use xlink:href="#DejaVuSans-52" transform="translate(420.019531 0)"/>
      <use xlink:href="#DejaVuSans-43" transform="translate(484.501953 0)"/>
      <use xlink:href="#DejaVuSans-3d" transform="translate(554.326172 0)"/>
      <use xlink:href="#DejaVuSans-30" transform="translate(638.115234 0)"/>
      <use xlink:href="#DejaVuSans-2e" transform="translate(701.738281 0)"/>
      <use xlink:href="#DejaVuSans-34" transform="translate(733.525391 0)"/>
      <use xlink:href="#DejaVuSans-37" transform="translate(797.148438 0)"/>
      <use xlink:href="#DejaVuSans-38" transform="translate(860.771484 0)"/>
      <use xlink:href="#DejaVuSans-2c" transform="translate(924.394531 0)"/>
      <use xlink:href="#DejaVuSans-20" transform="translate(956.181641 0)"/>
      <use xlink:href="#DejaVuSans-6e" transform="translate(987.96875 0)"/>
      <use xlink:href="#DejaVuSans-3d" transform="translate(1051.347656 0)"/>
      <use xlink:href="#DejaVuSans-34" transform="translate(1135.136719 0)"/>
      <use xlink:href="#DejaVuSans-32" transform="translate(1198.759766 0)"/>
      <use xlink:href="#DejaVuSans-2c" transform="translate(1262.382812 0)"/>
      <use xlink:href="#DejaVuSans-20" transform="translate(1294.169922 0)"/>
      <use xlink:href="#DejaVuSans-74" transform="translate(1325.957031 0)"/>
      <use xlink:href="#DejaVuSans-6f" transform="translate(1365.166016 0)"/>
      <use xlink:href="#DejaVuSans-70" transform="translate(1426.347656 0)"/>
      <use xlink:href="#DejaVuSans-6b" transform="translate(1489.824219 0)"/>
      <use xlink:href="#DejaVuSans-3d" transform="translate(1547.734375 0)"/>
      <use xlink:href="#DejaVuSans-30" transform="translate(1631.523438 0)"/>
      <use xlink:href="#DejaVuSans-2e" transform="translate(1695.146484 0)"/>
      <use xlink:href="#DejaVuSans-35" transform="translate(1726.933594 0)"/>
      <use xlink:href="#DejaVuSans-30" transform="translate(1790.556641 0)"/>
      <use xlink:href="#DejaVuSans-35" transform="translate(1854.179688 0)"/>
      <use xlink:href="#DejaVuSans-29" transform="translate(1917.802734 0)"/>
     </g>
    </g>
    <g id="line2d_38">
     <path d="M 606.353 84.012813 
L 616.353 84.012813 
L 626.353 84.012813 
" style="fill: none; stroke: #d62728; stroke-width: 1.5; stroke-linecap: square"/>
    </g>
    <g id="text_19">
     <!-- GG (AUPRC=0.393, n=34, topk=0.408) -->
     <g transform="translate(634.353 87.512813) scale(0.1 -0.1)">
      <use xlink:href="#DejaVuSans-47"/>
      <use xlink:href="#DejaVuSans-47" transform="translate(77.490234 0)"/>
      <use xlink:href="#DejaVuSans-20" transform="translate(154.980469 0)"/>
      <use xlink:href="#DejaVuSans-28" transform="translate(186.767578 0)"/>
      <use xlink:href="#DejaVuSans-41" transform="translate(225.78125 0)"/>
      <use xlink:href="#DejaVuSans-55" transform="translate(294.189453 0)"/>
      <use xlink:href="#DejaVuSans-50" transform="translate(367.382812 0)"/>
      <use xlink:href="#DejaVuSans-52" transform="translate(427.685547 0)"/>
      <use xlink:href="#DejaVuSans-43" transform="translate(492.167969 0)"/>
      <use xlink:href="#DejaVuSans-3d" transform="translate(561.992188 0)"/>
      <use xlink:href="#DejaVuSans-30" transform="translate(645.78125 0)"/>
      <use xlink:href="#DejaVuSans-2e" transform="translate(709.404297 0)"/>
      <use xlink:href="#DejaVuSans-33" transform="translate(741.191406 0)"/>
      <use xlink:href="#DejaVuSans-39" transform="translate(804.814453 0)"/>
      <use xlink:href="#DejaVuSans-33" transform="translate(868.4375 0)"/>
      <use xlink:href="#DejaVuSans-2c" transform="translate(932.060547 0)"/>
      <use xlink:href="#DejaVuSans-20" transform="translate(963.847656 0)"/>
      <use xlink:href="#DejaVuSans-6e" transform="translate(995.634766 0)"/>
      <use xlink:href="#DejaVuSans-3d" transform="translate(1059.013672 0)"/>
      <use xlink:href="#DejaVuSans-33" transform="translate(1142.802734 0)"/>
      <use xlink:href="#DejaVuSans-34" transform="translate(1206.425781 0)"/>
      <use xlink:href="#DejaVuSans-2c" transform="translate(1270.048828 0)"/>
      <use xlink:href="#DejaVuSans-20" transform="translate(1301.835938 0)"/>
      <use xlink:href="#DejaVuSans-74" transform="translate(1333.623047 0)"/>
      <use xlink:href="#DejaVuSans-6f" transform="translate(1372.832031 0)"/>
      <use xlink:href="#DejaVuSans-70" transform="translate(1434.013672 0)"/>
      <use xlink:href="#DejaVuSans-6b" transform="translate(1497.490234 0)"/>
      <use xlink:href="#DejaVuSans-3d" transform="translate(1555.400391 0)"/>
      <use xlink:href="#DejaVuSans-30" transform="translate(1639.189453 0)"/>
      <use xlink:href="#DejaVuSans-2e" transform="translate(1702.8125 0)"/>
      <use xlink:href="#DejaVuSans-34" transform="translate(1734.599609 0)"/>
      <use xlink:href="#DejaVuSans-30" transform="translate(1798.222656 0)"/>
      <use xlink:href="#DejaVuSans-38" transform="translate(1861.845703 0)"/>
      <use xlink:href="#DejaVuSans-29" transform="translate(1925.46875 0)"/>
     </g>
    </g>
    <g id="line2d_39">
     <path d="M 606.353 98.690938 
L 616.353 98.690938 
L 626.353 98.690938 
" style="fill: none; stroke: #9467bd; stroke-width: 1.5; stroke-linecap: square"/>
    </g>
    <g id="text_20">
     <!-- TC (AUPRC=0.391, n=32, topk=0.397) -->
     <g transform="translate(634.353 102.190938) scale(0.1 -0.1)">
      <defs>
       <path id="DejaVuSans-54" d="M -19 4666 
L 3928 4666 
L 3928 4134 
L 2272 4134 
L 2272 0 
L 1638 0 
L 1638 4134 
L -19 4134 
L -19 4666 
z
" transform="scale(0.015625)"/>
      </defs>
      <use xlink:href="#DejaVuSans-54"/>
      <use xlink:href="#DejaVuSans-43" transform="translate(55.208984 0)"/>
      <use xlink:href="#DejaVuSans-20" transform="translate(125.033203 0)"/>
      <use xlink:href="#DejaVuSans-28" transform="translate(156.820312 0)"/>
      <use xlink:href="#DejaVuSans-41" transform="translate(195.833984 0)"/>
      <use xlink:href="#DejaVuSans-55" transform="translate(264.242188 0)"/>
      <use xlink:href="#DejaVuSans-50" transform="translate(337.435547 0)"/>
      <use xlink:href="#DejaVuSans-52" transform="translate(397.738281 0)"/>
      <use xlink:href="#DejaVuSans-43" transform="translate(462.220703 0)"/>
      <use xlink:href="#DejaVuSans-3d" transform="translate(532.044922 0)"/>
      <use xlink:href="#DejaVuSans-30" transform="translate(615.833984 0)"/>
      <use xlink:href="#DejaVuSans-2e" transform="translate(679.457031 0)"/>
      <use xlink:href="#DejaVuSans-33" transform="translate(711.244141 0)"/>
      <use xlink:href="#DejaVuSans-39" transform="translate(774.867188 0)"/>
      <use xlink:href="#DejaVuSans-31" transform="translate(838.490234 0)"/>
      <use xlink:href="#DejaVuSans-2c" transform="translate(902.113281 0)"/>
      <use xlink:href="#DejaVuSans-20" transform="translate(933.900391 0)"/>
      <use xlink:href="#DejaVuSans-6e" transform="translate(965.6875 0)"/>
      <use xlink:href="#DejaVuSans-3d" transform="translate(1029.066406 0)"/>
      <use xlink:href="#DejaVuSans-33" transform="translate(1112.855469 0)"/>
      <use xlink:href="#DejaVuSans-32" transform="translate(1176.478516 0)"/>
      <use xlink:href="#DejaVuSans-2c" transform="translate(1240.101562 0)"/>
      <use xlink:href="#DejaVuSans-20" transform="translate(1271.888672 0)"/>
      <use xlink:href="#DejaVuSans-74" transform="translate(1303.675781 0)"/>
      <use xlink:href="#DejaVuSans-6f" transform="translate(1342.884766 0)"/>
      <use xlink:href="#DejaVuSans-70" transform="translate(1404.066406 0)"/>
      <use xlink:href="#DejaVuSans-6b" transform="translate(1467.542969 0)"/>
      <use xlink:href="#DejaVuSans-3d" transform="translate(1525.453125 0)"/>
      <use xlink:href="#DejaVuSans-30" transform="translate(1609.242188 0)"/>
      <use xlink:href="#DejaVuSans-2e" transform="translate(1672.865234 0)"/>
      <use xlink:href="#DejaVuSans-33" transform="translate(1704.652344 0)"/>
      <use xlink:href="#DejaVuSans-39" transform="translate(1768.275391 0)"/>
      <use xlink:href="#DejaVuSans-37" transform="translate(1831.898438 0)"/>
      <use xlink:href="#DejaVuSans-29" transform="translate(1895.521484 0)"/>
     </g>
    </g>
    <g id="line2d_40">
     <path d="M 606.353 113.369063 
L 616.353 113.369063 
L 626.353 113.369063 
" style="fill: none; stroke: #8c564b; stroke-width: 1.5; stroke-linecap: square"/>
    </g>
    <g id="text_21">
     <!-- CG (AUPRC=0.280, n=29, topk=0.302) -->
     <g transform="translate(634.353 116.869063) scale(0.1 -0.1)">
      <use xlink:href="#DejaVuSans-43"/>
      <use xlink:href="#DejaVuSans-47" transform="translate(69.824219 0)"/>
      <use xlink:href="#DejaVuSans-20" transform="translate(147.314453 0)"/>
      <use xlink:href="#DejaVuSans-28" transform="translate(179.101562 0)"/>
      <use xlink:href="#DejaVuSans-41" transform="translate(218.115234 0)"/>
      <use xlink:href="#DejaVuSans-55" transform="translate(286.523438 0)"/>
      <use xlink:href="#DejaVuSans-50" transform="translate(359.716797 0)"/>
      <use xlink:href="#DejaVuSans-52" transform="translate(420.019531 0)"/>
      <use xlink:href="#DejaVuSans-43" transform="translate(484.501953 0)"/>
      <use xlink:href="#DejaVuSans-3d" transform="translate(554.326172 0)"/>
      <use xlink:href="#DejaVuSans-30" transform="translate(638.115234 0)"/>
      <use xlink:href="#DejaVuSans-2e" transform="translate(701.738281 0)"/>
      <use xlink:href="#DejaVuSans-32" transform="translate(733.525391 0)"/>
      <use xlink:href="#DejaVuSans-38" transform="translate(797.148438 0)"/>
      <use xlink:href="#DejaVuSans-30" transform="translate(860.771484 0)"/>
      <use xlink:href="#DejaVuSans-2c" transform="translate(924.394531 0)"/>
      <use xlink:href="#DejaVuSans-20" transform="translate(956.181641 0)"/>
      <use xlink:href="#DejaVuSans-6e" transform="translate(987.96875 0)"/>
      <use xlink:href="#DejaVuSans-3d" transform="translate(1051.347656 0)"/>
      <use xlink:href="#DejaVuSans-32" transform="translate(1135.136719 0)"/>
      <use xlink:href="#DejaVuSans-39" transform="translate(1198.759766 0)"/>
      <use xlink:href="#DejaVuSans-2c" transform="translate(1262.382812 0)"/>
      <use xlink:href="#DejaVuSans-20" transform="translate(1294.169922 0)"/>
      <use xlink:href="#DejaVuSans-74" transform="translate(1325.957031 0)"/>
      <use xlink:href="#DejaVuSans-6f" transform="translate(1365.166016 0)"/>
      <use xlink:href="#DejaVuSans-70" transform="translate(1426.347656 0)"/>
      <use xlink:href="#DejaVuSans-6b" transform="translate(1489.824219 0)"/>
      <use xlink:href="#DejaVuSans-3d" transform="translate(1547.734375 0)"/>
      <use xlink:href="#DejaVuSans-30" transform="translate(1631.523438 0)"/>
      <use xlink:href="#DejaVuSans-2e" transform="translate(1695.146484 0)"/>
      <use xlink:href="#DejaVuSans-33" transform="translate(1726.933594 0)"/>
      <use xlink:href="#DejaVuSans-30" transform="translate(1790.556641 0)"/>
      <use xlink:href="#DejaVuSans-32" transform="translate(1854.179688 0)"/>
      <use xlink:href="#DejaVuSans-29" transform="translate(1917.802734 0)"/>
     </g>
    </g>
    <g id="line2d_41">
     <path d="M 606.353 128.047188 
L 616.353 128.047188 
L 626.353 128.047188 
" style="fill: none; stroke: #e377c2; stroke-width: 1.5; stroke-linecap: square"/>
    </g>
    <g id="text_22">
     <!-- CT (AUPRC=0.352, n=29, topk=0.364) -->
     <g transform="translate(634.353 131.547188) scale(0.1 -0.1)">
      <use xlink:href="#DejaVuSans-43"/>
      <use xlink:href="#DejaVuSans-54" transform="translate(69.824219 0)"/>
      <use xlink:href="#DejaVuSans-20" transform="translate(130.908203 0)"/>
      <use xlink:href="#DejaVuSans-28" transform="translate(162.695312 0)"/>
      <use xlink:href="#DejaVuSans-41" transform="translate(201.708984 0)"/>
      <use xlink:href="#DejaVuSans-55" transform="translate(270.117188 0)"/>
      <use xlink:href="#DejaVuSans-50" transform="translate(343.310547 0)"/>
      <use xlink:href="#DejaVuSans-52" transform="translate(403.613281 0)"/>
      <use xlink:href="#DejaVuSans-43" transform="translate(468.095703 0)"/>
      <use xlink:href="#DejaVuSans-3d" transform="translate(537.919922 0)"/>
      <use xlink:href="#DejaVuSans-30" transform="translate(621.708984 0)"/>
      <use xlink:href="#DejaVuSans-2e" transform="translate(685.332031 0)"/>
      <use xlink:href="#DejaVuSans-33" transform="translate(717.119141 0)"/>
      <use xlink:href="#DejaVuSans-35" transform="translate(780.742188 0)"/>
      <use xlink:href="#DejaVuSans-32" transform="translate(844.365234 0)"/>
      <use xlink:href="#DejaVuSans-2c" transform="translate(907.988281 0)"/>
      <use xlink:href="#DejaVuSans-20" transform="translate(939.775391 0)"/>
      <use xlink:href="#DejaVuSans-6e" transform="translate(971.5625 0)"/>
      <use xlink:href="#DejaVuSans-3d" transform="translate(1034.941406 0)"/>
      <use xlink:href="#DejaVuSans-32" transform="translate(1118.730469 0)"/>
      <use xlink:href="#DejaVuSans-39" transform="translate(1182.353516 0)"/>
      <use xlink:href="#DejaVuSans-2c" transform="translate(1245.976562 0)"/>
      <use xlink:href="#DejaVuSans-20" transform="translate(1277.763672 0)"/>
      <use xlink:href="#DejaVuSans-74" transform="translate(1309.550781 0)"/>
      <use xlink:href="#DejaVuSans-6f" transform="translate(1348.759766 0)"/>
      <use xlink:href="#DejaVuSans-70" transform="translate(1409.941406 0)"/>
      <use xlink:href="#DejaVuSans-6b" transform="translate(1473.417969 0)"/>
      <use xlink:href="#DejaVuSans-3d" transform="translate(1531.328125 0)"/>
      <use xlink:href="#DejaVuSans-30" transform="translate(1615.117188 0)"/>
      <use xlink:href="#DejaVuSans-2e" transform="translate(1678.740234 0)"/>
      <use xlink:href="#DejaVuSans-33" transform="translate(1710.527344 0)"/>
      <use xlink:href="#DejaVuSans-36" transform="translate(1774.150391 0)"/>
      <use xlink:href="#DejaVuSans-34" transform="translate(1837.773438 0)"/>
      <use xlink:href="#DejaVuSans-29" transform="translate(1901.396484 0)"/>
     </g>
    </g>
    <g id="line2d_42">
     <path d="M 606.353 142.725313 
L 616.353 142.725313 
L 626.353 142.725313 
" style="fill: none; stroke: #7f7f7f; stroke-width: 1.5; stroke-linecap: square"/>
    </g>
    <g id="text_23">
     <!-- TT (AUPRC=0.371, n=26, topk=0.456) -->
     <g transform="translate(634.353 146.225313) scale(0.1 -0.1)">
      <use xlink:href="#DejaVuSans-54"/>
      <use xlink:href="#DejaVuSans-54" transform="translate(59.333984 0)"/>
      <use xlink:href="#DejaVuSans-20" transform="translate(120.417969 0)"/>
      <use xlink:href="#DejaVuSans-28" transform="translate(152.205078 0)"/>
      <use xlink:href="#DejaVuSans-41" transform="translate(191.21875 0)"/>
      <use xlink:href="#DejaVuSans-55" transform="translate(259.626953 0)"/>
      <use xlink:href="#DejaVuSans-50" transform="translate(332.820312 0)"/>
      <use xlink:href="#DejaVuSans-52" transform="translate(393.123047 0)"/>
      <use xlink:href="#DejaVuSans-43" transform="translate(457.605469 0)"/>
      <use xlink:href="#DejaVuSans-3d" transform="translate(527.429688 0)"/>
      <use xlink:href="#DejaVuSans-30" transform="translate(611.21875 0)"/>
      <use xlink:href="#DejaVuSans-2e" transform="translate(674.841797 0)"/>
      <use xlink:href="#DejaVuSans-33" transform="translate(706.628906 0)"/>
      <use xlink:href="#DejaVuSans-37" transform="translate(770.251953 0)"/>
      <use xlink:href="#DejaVuSans-31" transform="translate(833.875 0)"/>
      <use xlink:href="#DejaVuSans-2c" transform="translate(897.498047 0)"/>
      <use xlink:href="#DejaVuSans-20" transform="translate(929.285156 0)"/>
      <use xlink:href="#DejaVuSans-6e" transform="translate(961.072266 0)"/>
      <use xlink:href="#DejaVuSans-3d" transform="translate(1024.451172 0)"/>
      <use xlink:href="#DejaVuSans-32" transform="translate(1108.240234 0)"/>
      <use xlink:href="#DejaVuSans-36" transform="translate(1171.863281 0)"/>
      <use xlink:href="#DejaVuSans-2c" transform="translate(1235.486328 0)"/>
      <use xlink:href="#DejaVuSans-20" transform="translate(1267.273438 0)"/>
      <use xlink:href="#DejaVuSans-74" transform="translate(1299.060547 0)"/>
      <use xlink:href="#DejaVuSans-6f" transform="translate(1338.269531 0)"/>
      <use xlink:href="#DejaVuSans-70" transform="translate(1399.451172 0)"/>
      <use xlink:href="#DejaVuSans-6b" transform="translate(1462.927734 0)"/>
      <use xlink:href="#DejaVuSans-3d" transform="translate(1520.837891 0)"/>
      <use xlink:href="#DejaVuSans-30" transform="translate(1604.626953 0)"/>
      <use xlink:href="#DejaVuSans-2e" transform="translate(1668.25 0)"/>
      <use xlink:href="#DejaVuSans-34" transform="translate(1700.037109 0)"/>
      <use xlink:href="#DejaVuSans-35" transform="translate(1763.660156 0)"/>
      <use xlink:href="#DejaVuSans-36" transform="translate(1827.283203 0)"/>
      <use xlink:href="#DejaVuSans-29" transform="translate(1890.90625 0)"/>
     </g>
    </g>
    <g id="line2d_43">
     <path d="M 606.353 157.403438 
L 616.353 157.403438 
L 626.353 157.403438 
" style="fill: none; stroke: #bcbd22; stroke-width: 1.5; stroke-linecap: square"/>
    </g>
    <g id="text_24">
     <!-- GT (AUPRC=0.406, n=20, topk=0.413) -->
     <g transform="translate(634.353 160.903438) scale(0.1 -0.1)">
      <use xlink:href="#DejaVuSans-47"/>
      <use xlink:href="#DejaVuSans-54" transform="translate(73.865234 0)"/>
      <use xlink:href="#DejaVuSans-20" transform="translate(134.949219 0)"/>
      <use xlink:href="#DejaVuSans-28" transform="translate(166.736328 0)"/>
      <use xlink:href="#DejaVuSans-41" transform="translate(205.75 0)"/>
      <use xlink:href="#DejaVuSans-55" transform="translate(274.158203 0)"/>
      <use xlink:href="#DejaVuSans-50" transform="translate(347.351562 0)"/>
      <use xlink:href="#DejaVuSans-52" transform="translate(407.654297 0)"/>
      <use xlink:href="#DejaVuSans-43" transform="translate(472.136719 0)"/>
      <use xlink:href="#DejaVuSans-3d" transform="translate(541.960938 0)"/>
      <use xlink:href="#DejaVuSans-30" transform="translate(625.75 0)"/>
      <use xlink:href="#DejaVuSans-2e" transform="translate(689.373047 0)"/>
      <use xlink:href="#DejaVuSans-34" transform="translate(721.160156 0)"/>
      <use xlink:href="#DejaVuSans-30" transform="translate(784.783203 0)"/>
      <use xlink:href="#DejaVuSans-36" transform="translate(848.40625 0)"/>
      <use xlink:href="#DejaVuSans-2c" transform="translate(912.029297 0)"/>
      <use xlink:href="#DejaVuSans-20" transform="translate(943.816406 0)"/>
      <use xlink:href="#DejaVuSans-6e" transform="translate(975.603516 0)"/>
      <use xlink:href="#DejaVuSans-3d" transform="translate(1038.982422 0)"/>
      <use xlink:href="#DejaVuSans-32" transform="translate(1122.771484 0)"/>
      <use xlink:href="#DejaVuSans-30" transform="translate(1186.394531 0)"/>
      <use xlink:href="#DejaVuSans-2c" transform="translate(1250.017578 0)"/>
      <use xlink:href="#DejaVuSans-20" transform="translate(1281.804688 0)"/>
      <use xlink:href="#DejaVuSans-74" transform="translate(1313.591797 0)"/>
      <use xlink:href="#DejaVuSans-6f" transform="translate(1352.800781 0)"/>
      <use xlink:href="#DejaVuSans-70" transform="translate(1413.982422 0)"/>
      <use xlink:href="#DejaVuSans-6b" transform="translate(1477.458984 0)"/>
      <use xlink:href="#DejaVuSans-3d" transform="translate(1535.369141 0)"/>
      <use xlink:href="#DejaVuSans-30" transform="translate(1619.158203 0)"/>
      <use xlink:href="#DejaVuSans-2e" transform="translate(1682.78125 0)"/>
      <use xlink:href="#DejaVuSans-34" transform="translate(1714.568359 0)"/>
      <use xlink:href="#DejaVuSans-31" transform="translate(1778.191406 0)"/>
      <use xlink:href="#DejaVuSans-33" transform="translate(1841.814453 0)"/>
      <use xlink:href="#DejaVuSans-29" transform="translate(1905.4375 0)"/>
     </g>
    </g>
    <g id="line2d_44">
     <path d="M 606.353 172.081563 
L 616.353 172.081563 
L 626.353 172.081563 
" style="fill: none; stroke: #17becf; stroke-width: 1.5; stroke-linecap: square"/>
    </g>
    <g id="text_25">
     <!-- GA (AUPRC=0.467, n=19, topk=0.489) -->
     <g transform="translate(634.353 175.581563) scale(0.1 -0.1)">
      <use xlink:href="#DejaVuSans-47"/>
      <use xlink:href="#DejaVuSans-41" transform="translate(77.490234 0)"/>
      <use xlink:href="#DejaVuSans-20" transform="translate(145.898438 0)"/>
      <use xlink:href="#DejaVuSans-28" transform="translate(177.685547 0)"/>
      <use xlink:href="#DejaVuSans-41" transform="translate(216.699219 0)"/>
      <use xlink:href="#DejaVuSans-55" transform="translate(285.107422 0)"/>
      <use xlink:href="#DejaVuSans-50" transform="translate(358.300781 0)"/>
      <use xlink:href="#DejaVuSans-52" transform="translate(418.603516 0)"/>
      <use xlink:href="#DejaVuSans-43" transform="translate(483.085938 0)"/>
      <use xlink:href="#DejaVuSans-3d" transform="translate(552.910156 0)"/>
      <use xlink:href="#DejaVuSans-30" transform="translate(636.699219 0)"/>
      <use xlink:href="#DejaVuSans-2e" transform="translate(700.322266 0)"/>
      <use xlink:href="#DejaVuSans-34" transform="translate(732.109375 0)"/>
      <use xlink:href="#DejaVuSans-36" transform="translate(795.732422 0)"/>
      <use xlink:href="#DejaVuSans-37" transform="translate(859.355469 0)"/>
      <use xlink:href="#DejaVuSans-2c" transform="translate(922.978516 0)"/>
      <use xlink:href="#DejaVuSans-20" transform="translate(954.765625 0)"/>
      <use xlink:href="#DejaVuSans-6e" transform="translate(986.552734 0)"/>
      <use xlink:href="#DejaVuSans-3d" transform="translate(1049.931641 0)"/>
      <use xlink:href="#DejaVuSans-31" transform="translate(1133.720703 0)"/>
      <use xlink:href="#DejaVuSans-39" transform="translate(1197.34375 0)"/>
      <use xlink:href="#DejaVuSans-2c" transform="translate(1260.966797 0)"/>
      <use xlink:href="#DejaVuSans-20" transform="translate(1292.753906 0)"/>
      <use xlink:href="#DejaVuSans-74" transform="translate(1324.541016 0)"/>
      <use xlink:href="#DejaVuSans-6f" transform="translate(1363.75 0)"/>
      <use xlink:href="#DejaVuSans-70" transform="translate(1424.931641 0)"/>
      <use xlink:href="#DejaVuSans-6b" transform="translate(1488.408203 0)"/>
      <use xlink:href="#DejaVuSans-3d" transform="translate(1546.318359 0)"/>
      <use xlink:href="#DejaVuSans-30" transform="translate(1630.107422 0)"/>
      <use xlink:href="#DejaVuSans-2e" transform="translate(1693.730469 0)"/>
      <use xlink:href="#DejaVuSans-34" transform="translate(1725.517578 0)"/>
      <use xlink:href="#DejaVuSans-38" transform="translate(1789.140625 0)"/>
      <use xlink:href="#DejaVuSans-39" transform="translate(1852.763672 0)"/>
      <use xlink:href="#DejaVuSans-29" transform="translate(1916.386719 0)"/>
     </g>
    </g>
   </g>
  </g>
 </g>
 <defs>
  <clipPath id="p09f94e1b8d">
   <rect x="47.72" y="26.88" width="523.46" height="507.16"/>
  </clipPath>
 </defs>
</svg>
