<?xml version="1.0" encoding="utf-8" standalone="no"?>
<!DOCTYPE svg PUBLIC "-//W3C//DTD SVG 1.1//EN"
  "http://www.w3.org/Graphics/SVG/1.1/DTD/svg11.dtd">
<svg xmlns:xlink="http://www.w3.org/1999/xlink" width="864pt" height="576pt" viewBox="0 0 864 576" xmlns="http://www.w3.org/2000/svg" version="1.1">
 <metadata>
  <rdf:RDF xmlns:dc="http://purl.org/dc/elements/1.1/" xmlns:cc="http://creativecommons.org/ns#" xmlns:rdf="http://www.w3.org/1999/02/22-rdf-syntax-ns#">
   <cc:Work>
    <dc:type rdf:resource="http://purl.org/dc/dcmitype/StillImage"/>
    <dc:date>2025-05-01T14:12:28.396190</dc:date>
    <dc:format>image/svg+xml</dc:format>
    <dc:creator>
     <cc:Agent>
      <dc:title>Matplotlib v3.10.1, https://matplotlib.org/</dc:title>
     </cc:Agent>
    </dc:creator>
   </cc:Work>
  </rdf:RDF>
 </metadata>
 <defs>
  <style type="text/css">*{stroke-linejoin: round; stroke-linecap: butt}</style>
 </defs>
 <g id="figure_1">
  <g id="patch_1">
   <path d="M 0 576 
L 864 576 
L 864 0 
L 0 0 
z
" style="fill: #ffffff"/>
  </g>
  <g id="axes_1">
   <g id="patch_2">
    <path d="M 47.72 534.04 
L 568.21 534.04 
L 568.21 26.88 
L 47.72 26.88 
z
" style="fill: #ffffff"/>
   </g>
   <g id="matplotlib.axis_1">
    <g id="xtick_1">
     <g id="line2d_1">
      <path d="M 71.378636 534.04 
L 71.378636 26.88 
" clip-path="url(#p1323de24a9)" style="fill: none; stroke: #b0b0b0; stroke-width: 0.8; stroke-linecap: square"/>
     </g>
     <g id="line2d_2">
      <defs>
       <path id="mf709812cab" d="M 0 0 
L 0 3.5 
" style="stroke: #000000; stroke-width: 0.8"/>
      </defs>
      <g>
       <use xlink:href="#mf709812cab" x="71.378636" y="534.04" style="stroke: #000000; stroke-width: 0.8"/>
      </g>
     </g>
     <g id="text_1">
      <!-- 0.0 -->
      <g transform="translate(63.427074 548.638438) scale(0.1 -0.1)">
       <defs>
        <path id="DejaVuSans-30" d="M 2034 4250 
Q 1547 4250 1301 3770 
Q 1056 3291 1056 2328 
Q 1056 1369 1301 889 
Q 1547 409 2034 409 
Q 2525 409 2770 889 
Q 3016 1369 3016 2328 
Q 3016 3291 2770 3770 
Q 2525 4250 2034 4250 
z
M 2034 4750 
Q 2819 4750 3233 4129 
Q 3647 3509 3647 2328 
Q 3647 1150 3233 529 
Q 2819 -91 2034 -91 
Q 1250 -91 836 529 
Q 422 1150 422 2328 
Q 422 3509 836 4129 
Q 1250 4750 2034 4750 
z
" transform="scale(0.015625)"/>
        <path id="DejaVuSans-2e" d="M 684 794 
L 1344 794 
L 1344 0 
L 684 0 
L 684 794 
z
" transform="scale(0.015625)"/>
       </defs>
       <use xlink:href="#DejaVuSans-30"/>
       <use xlink:href="#DejaVuSans-2e" transform="translate(63.623047 0)"/>
       <use xlink:href="#DejaVuSans-30" transform="translate(95.410156 0)"/>
      </g>
     </g>
    </g>
    <g id="xtick_2">
     <g id="line2d_3">
      <path d="M 166.013182 534.04 
L 166.013182 26.88 
" clip-path="url(#p1323de24a9)" style="fill: none; stroke: #b0b0b0; stroke-width: 0.8; stroke-linecap: square"/>
     </g>
     <g id="line2d_4">
      <g>
       <use xlink:href="#mf709812cab" x="166.013182" y="534.04" style="stroke: #000000; stroke-width: 0.8"/>
      </g>
     </g>
     <g id="text_2">
      <!-- 0.2 -->
      <g transform="translate(158.061619 548.638438) scale(0.1 -0.1)">
       <defs>
        <path id="DejaVuSans-32" d="M 1228 531 
L 3431 531 
L 3431 0 
L 469 0 
L 469 531 
Q 828 903 1448 1529 
Q 2069 2156 2228 2338 
Q 2531 2678 2651 2914 
Q 2772 3150 2772 3378 
Q 2772 3750 2511 3984 
Q 2250 4219 1831 4219 
Q 1534 4219 1204 4116 
Q 875 4013 500 3803 
L 500 4441 
Q 881 4594 1212 4672 
Q 1544 4750 1819 4750 
Q 2544 4750 2975 4387 
Q 3406 4025 3406 3419 
Q 3406 3131 3298 2873 
Q 3191 2616 2906 2266 
Q 2828 2175 2409 1742 
Q 1991 1309 1228 531 
z
" transform="scale(0.015625)"/>
       </defs>
       <use xlink:href="#DejaVuSans-30"/>
       <use xlink:href="#DejaVuSans-2e" transform="translate(63.623047 0)"/>
       <use xlink:href="#DejaVuSans-32" transform="translate(95.410156 0)"/>
      </g>
     </g>
    </g>
    <g id="xtick_3">
     <g id="line2d_5">
      <path d="M 260.647727 534.04 
L 260.647727 26.88 
" clip-path="url(#p1323de24a9)" style="fill: none; stroke: #b0b0b0; stroke-width: 0.8; stroke-linecap: square"/>
     </g>
     <g id="line2d_6">
      <g>
       <use xlink:href="#mf709812cab" x="260.647727" y="534.04" style="stroke: #000000; stroke-width: 0.8"/>
      </g>
     </g>
     <g id="text_3">
      <!-- 0.4 -->
      <g transform="translate(252.696165 548.638438) scale(0.1 -0.1)">
       <defs>
        <path id="DejaVuSans-34" d="M 2419 4116 
L 825 1625 
L 2419 1625 
L 2419 4116 
z
M 2253 4666 
L 3047 4666 
L 3047 1625 
L 3713 1625 
L 3713 1100 
L 3047 1100 
L 3047 0 
L 2419 0 
L 2419 1100 
L 313 1100 
L 313 1709 
L 2253 4666 
z
" transform="scale(0.015625)"/>
       </defs>
       <use xlink:href="#DejaVuSans-30"/>
       <use xlink:href="#DejaVuSans-2e" transform="translate(63.623047 0)"/>
       <use xlink:href="#DejaVuSans-34" transform="translate(95.410156 0)"/>
      </g>
     </g>
    </g>
    <g id="xtick_4">
     <g id="line2d_7">
      <path d="M 355.282273 534.04 
L 355.282273 26.88 
" clip-path="url(#p1323de24a9)" style="fill: none; stroke: #b0b0b0; stroke-width: 0.8; stroke-linecap: square"/>
     </g>
     <g id="line2d_8">
      <g>
       <use xlink:href="#mf709812cab" x="355.282273" y="534.04" style="stroke: #000000; stroke-width: 0.8"/>
      </g>
     </g>
     <g id="text_4">
      <!-- 0.6 -->
      <g transform="translate(347.33071 548.638438) scale(0.1 -0.1)">
       <defs>
        <path id="DejaVuSans-36" d="M 2113 2584 
Q 1688 2584 1439 2293 
Q 1191 2003 1191 1497 
Q 1191 994 1439 701 
Q 1688 409 2113 409 
Q 2538 409 2786 701 
Q 3034 994 3034 1497 
Q 3034 2003 2786 2293 
Q 2538 2584 2113 2584 
z
M 3366 4563 
L 3366 3988 
Q 3128 4100 2886 4159 
Q 2644 4219 2406 4219 
Q 1781 4219 1451 3797 
Q 1122 3375 1075 2522 
Q 1259 2794 1537 2939 
Q 1816 3084 2150 3084 
Q 2853 3084 3261 2657 
Q 3669 2231 3669 1497 
Q 3669 778 3244 343 
Q 2819 -91 2113 -91 
Q 1303 -91 875 529 
Q 447 1150 447 2328 
Q 447 3434 972 4092 
Q 1497 4750 2381 4750 
Q 2619 4750 2861 4703 
Q 3103 4656 3366 4563 
z
" transform="scale(0.015625)"/>
       </defs>
       <use xlink:href="#DejaVuSans-30"/>
       <use xlink:href="#DejaVuSans-2e" transform="translate(63.623047 0)"/>
       <use xlink:href="#DejaVuSans-36" transform="translate(95.410156 0)"/>
      </g>
     </g>
    </g>
    <g id="xtick_5">
     <g id="line2d_9">
      <path d="M 449.916818 534.04 
L 449.916818 26.88 
" clip-path="url(#p1323de24a9)" style="fill: none; stroke: #b0b0b0; stroke-width: 0.8; stroke-linecap: square"/>
     </g>
     <g id="line2d_10">
      <g>
       <use xlink:href="#mf709812cab" x="449.916818" y="534.04" style="stroke: #000000; stroke-width: 0.8"/>
      </g>
     </g>
     <g id="text_5">
      <!-- 0.8 -->
      <g transform="translate(441.965256 548.638438) scale(0.1 -0.1)">
       <defs>
        <path id="DejaVuSans-38" d="M 2034 2216 
Q 1584 2216 1326 1975 
Q 1069 1734 1069 1313 
Q 1069 891 1326 650 
Q 1584 409 2034 409 
Q 2484 409 2743 651 
Q 3003 894 3003 1313 
Q 3003 1734 2745 1975 
Q 2488 2216 2034 2216 
z
M 1403 2484 
Q 997 2584 770 2862 
Q 544 3141 544 3541 
Q 544 4100 942 4425 
Q 1341 4750 2034 4750 
Q 2731 4750 3128 4425 
Q 3525 4100 3525 3541 
Q 3525 3141 3298 2862 
Q 3072 2584 2669 2484 
Q 3125 2378 3379 2068 
Q 3634 1759 3634 1313 
Q 3634 634 3220 271 
Q 2806 -91 2034 -91 
Q 1263 -91 848 271 
Q 434 634 434 1313 
Q 434 1759 690 2068 
Q 947 2378 1403 2484 
z
M 1172 3481 
Q 1172 3119 1398 2916 
Q 1625 2713 2034 2713 
Q 2441 2713 2670 2916 
Q 2900 3119 2900 3481 
Q 2900 3844 2670 4047 
Q 2441 4250 2034 4250 
Q 1625 4250 1398 4047 
Q 1172 3844 1172 3481 
z
" transform="scale(0.015625)"/>
       </defs>
       <use xlink:href="#DejaVuSans-30"/>
       <use xlink:href="#DejaVuSans-2e" transform="translate(63.623047 0)"/>
       <use xlink:href="#DejaVuSans-38" transform="translate(95.410156 0)"/>
      </g>
     </g>
    </g>
    <g id="xtick_6">
     <g id="line2d_11">
      <path d="M 544.551364 534.04 
L 544.551364 26.88 
" clip-path="url(#p1323de24a9)" style="fill: none; stroke: #b0b0b0; stroke-width: 0.8; stroke-linecap: square"/>
     </g>
     <g id="line2d_12">
      <g>
       <use xlink:href="#mf709812cab" x="544.551364" y="534.04" style="stroke: #000000; stroke-width: 0.8"/>
      </g>
     </g>
     <g id="text_6">
      <!-- 1.0 -->
      <g transform="translate(536.599801 548.638438) scale(0.1 -0.1)">
       <defs>
        <path id="DejaVuSans-31" d="M 794 531 
L 1825 531 
L 1825 4091 
L 703 3866 
L 703 4441 
L 1819 4666 
L 2450 4666 
L 2450 531 
L 3481 531 
L 3481 0 
L 794 0 
L 794 531 
z
" transform="scale(0.015625)"/>
       </defs>
       <use xlink:href="#DejaVuSans-31"/>
       <use xlink:href="#DejaVuSans-2e" transform="translate(63.623047 0)"/>
       <use xlink:href="#DejaVuSans-30" transform="translate(95.410156 0)"/>
      </g>
     </g>
    </g>
    <g id="text_7">
     <!-- Recall -->
     <g transform="translate(293.047812 562.316562) scale(0.1 -0.1)">
      <defs>
       <path id="DejaVuSans-52" d="M 2841 2188 
Q 3044 2119 3236 1894 
Q 3428 1669 3622 1275 
L 4263 0 
L 3584 0 
L 2988 1197 
Q 2756 1666 2539 1819 
Q 2322 1972 1947 1972 
L 1259 1972 
L 1259 0 
L 628 0 
L 628 4666 
L 2053 4666 
Q 2853 4666 3247 4331 
Q 3641 3997 3641 3322 
Q 3641 2881 3436 2590 
Q 3231 2300 2841 2188 
z
M 1259 4147 
L 1259 2491 
L 2053 2491 
Q 2509 2491 2742 2702 
Q 2975 2913 2975 3322 
Q 2975 3731 2742 3939 
Q 2509 4147 2053 4147 
L 1259 4147 
z
" transform="scale(0.015625)"/>
       <path id="DejaVuSans-65" d="M 3597 1894 
L 3597 1613 
L 953 1613 
Q 991 1019 1311 708 
Q 1631 397 2203 397 
Q 2534 397 2845 478 
Q 3156 559 3463 722 
L 3463 178 
Q 3153 47 2828 -22 
Q 2503 -91 2169 -91 
Q 1331 -91 842 396 
Q 353 884 353 1716 
Q 353 2575 817 3079 
Q 1281 3584 2069 3584 
Q 2775 3584 3186 3129 
Q 3597 2675 3597 1894 
z
M 3022 2063 
Q 3016 2534 2758 2815 
Q 2500 3097 2075 3097 
Q 1594 3097 1305 2825 
Q 1016 2553 972 2059 
L 3022 2063 
z
" transform="scale(0.015625)"/>
       <path id="DejaVuSans-63" d="M 3122 3366 
L 3122 2828 
Q 2878 2963 2633 3030 
Q 2388 3097 2138 3097 
Q 1578 3097 1268 2742 
Q 959 2388 959 1747 
Q 959 1106 1268 751 
Q 1578 397 2138 397 
Q 2388 397 2633 464 
Q 2878 531 3122 666 
L 3122 134 
Q 2881 22 2623 -34 
Q 2366 -91 2075 -91 
Q 1284 -91 818 406 
Q 353 903 353 1747 
Q 353 2603 823 3093 
Q 1294 3584 2113 3584 
Q 2378 3584 2631 3529 
Q 2884 3475 3122 3366 
z
" transform="scale(0.015625)"/>
       <path id="DejaVuSans-61" d="M 2194 1759 
Q 1497 1759 1228 1600 
Q 959 1441 959 1056 
Q 959 750 1161 570 
Q 1363 391 1709 391 
Q 2188 391 2477 730 
Q 2766 1069 2766 1631 
L 2766 1759 
L 2194 1759 
z
M 3341 1997 
L 3341 0 
L 2766 0 
L 2766 531 
Q 2569 213 2275 61 
Q 1981 -91 1556 -91 
Q 1019 -91 701 211 
Q 384 513 384 1019 
Q 384 1609 779 1909 
Q 1175 2209 1959 2209 
L 2766 2209 
L 2766 2266 
Q 2766 2663 2505 2880 
Q 2244 3097 1772 3097 
Q 1472 3097 1187 3025 
Q 903 2953 641 2809 
L 641 3341 
Q 956 3463 1253 3523 
Q 1550 3584 1831 3584 
Q 2591 3584 2966 3190 
Q 3341 2797 3341 1997 
z
" transform="scale(0.015625)"/>
       <path id="DejaVuSans-6c" d="M 603 4863 
L 1178 4863 
L 1178 0 
L 603 0 
L 603 4863 
z
" transform="scale(0.015625)"/>
      </defs>
      <use xlink:href="#DejaVuSans-52"/>
      <use xlink:href="#DejaVuSans-65" transform="translate(64.982422 0)"/>
      <use xlink:href="#DejaVuSans-63" transform="translate(126.505859 0)"/>
      <use xlink:href="#DejaVuSans-61" transform="translate(181.486328 0)"/>
      <use xlink:href="#DejaVuSans-6c" transform="translate(242.765625 0)"/>
      <use xlink:href="#DejaVuSans-6c" transform="translate(270.548828 0)"/>
     </g>
    </g>
   </g>
   <g id="matplotlib.axis_2">
    <g id="ytick_1">
     <g id="line2d_13">
      <path d="M 47.72 511.151707 
L 568.21 511.151707 
" clip-path="url(#p1323de24a9)" style="fill: none; stroke: #b0b0b0; stroke-width: 0.8; stroke-linecap: square"/>
     </g>
     <g id="line2d_14">
      <defs>
       <path id="md692f49d28" d="M 0 0 
L -3.5 0 
" style="stroke: #000000; stroke-width: 0.8"/>
      </defs>
      <g>
       <use xlink:href="#md692f49d28" x="47.72" y="511.151707" style="stroke: #000000; stroke-width: 0.8"/>
      </g>
     </g>
     <g id="text_8">
      <!-- 0.0 -->
      <g transform="translate(24.816875 514.950926) scale(0.1 -0.1)">
       <use xlink:href="#DejaVuSans-30"/>
       <use xlink:href="#DejaVuSans-2e" transform="translate(63.623047 0)"/>
       <use xlink:href="#DejaVuSans-30" transform="translate(95.410156 0)"/>
      </g>
     </g>
    </g>
    <g id="ytick_2">
     <g id="line2d_15">
      <path d="M 47.72 418.907911 
L 568.21 418.907911 
" clip-path="url(#p1323de24a9)" style="fill: none; stroke: #b0b0b0; stroke-width: 0.8; stroke-linecap: square"/>
     </g>
     <g id="line2d_16">
      <g>
       <use xlink:href="#md692f49d28" x="47.72" y="418.907911" style="stroke: #000000; stroke-width: 0.8"/>
      </g>
     </g>
     <g id="text_9">
      <!-- 0.2 -->
      <g transform="translate(24.816875 422.70713) scale(0.1 -0.1)">
       <use xlink:href="#DejaVuSans-30"/>
       <use xlink:href="#DejaVuSans-2e" transform="translate(63.623047 0)"/>
       <use xlink:href="#DejaVuSans-32" transform="translate(95.410156 0)"/>
      </g>
     </g>
    </g>
    <g id="ytick_3">
     <g id="line2d_17">
      <path d="M 47.72 326.664115 
L 568.21 326.664115 
" clip-path="url(#p1323de24a9)" style="fill: none; stroke: #b0b0b0; stroke-width: 0.8; stroke-linecap: square"/>
     </g>
     <g id="line2d_18">
      <g>
       <use xlink:href="#md692f49d28" x="47.72" y="326.664115" style="stroke: #000000; stroke-width: 0.8"/>
      </g>
     </g>
     <g id="text_10">
      <!-- 0.4 -->
      <g transform="translate(24.816875 330.463334) scale(0.1 -0.1)">
       <use xlink:href="#DejaVuSans-30"/>
       <use xlink:href="#DejaVuSans-2e" transform="translate(63.623047 0)"/>
       <use xlink:href="#DejaVuSans-34" transform="translate(95.410156 0)"/>
      </g>
     </g>
    </g>
    <g id="ytick_4">
     <g id="line2d_19">
      <path d="M 47.72 234.420319 
L 568.21 234.420319 
" clip-path="url(#p1323de24a9)" style="fill: none; stroke: #b0b0b0; stroke-width: 0.8; stroke-linecap: square"/>
     </g>
     <g id="line2d_20">
      <g>
       <use xlink:href="#md692f49d28" x="47.72" y="234.420319" style="stroke: #000000; stroke-width: 0.8"/>
      </g>
     </g>
     <g id="text_11">
      <!-- 0.6 -->
      <g transform="translate(24.816875 238.219538) scale(0.1 -0.1)">
       <use xlink:href="#DejaVuSans-30"/>
       <use xlink:href="#DejaVuSans-2e" transform="translate(63.623047 0)"/>
       <use xlink:href="#DejaVuSans-36" transform="translate(95.410156 0)"/>
      </g>
     </g>
    </g>
    <g id="ytick_5">
     <g id="line2d_21">
      <path d="M 47.72 142.176523 
L 568.21 142.176523 
" clip-path="url(#p1323de24a9)" style="fill: none; stroke: #b0b0b0; stroke-width: 0.8; stroke-linecap: square"/>
     </g>
     <g id="line2d_22">
      <g>
       <use xlink:href="#md692f49d28" x="47.72" y="142.176523" style="stroke: #000000; stroke-width: 0.8"/>
      </g>
     </g>
     <g id="text_12">
      <!-- 0.8 -->
      <g transform="translate(24.816875 145.975742) scale(0.1 -0.1)">
       <use xlink:href="#DejaVuSans-30"/>
       <use xlink:href="#DejaVuSans-2e" transform="translate(63.623047 0)"/>
       <use xlink:href="#DejaVuSans-38" transform="translate(95.410156 0)"/>
      </g>
     </g>
    </g>
    <g id="ytick_6">
     <g id="line2d_23">
      <path d="M 47.72 49.932727 
L 568.21 49.932727 
" clip-path="url(#p1323de24a9)" style="fill: none; stroke: #b0b0b0; stroke-width: 0.8; stroke-linecap: square"/>
     </g>
     <g id="line2d_24">
      <g>
       <use xlink:href="#md692f49d28" x="47.72" y="49.932727" style="stroke: #000000; stroke-width: 0.8"/>
      </g>
     </g>
     <g id="text_13">
      <!-- 1.0 -->
      <g transform="translate(24.816875 53.731946) scale(0.1 -0.1)">
       <use xlink:href="#DejaVuSans-31"/>
       <use xlink:href="#DejaVuSans-2e" transform="translate(63.623047 0)"/>
       <use xlink:href="#DejaVuSans-30" transform="translate(95.410156 0)"/>
      </g>
     </g>
    </g>
    <g id="text_14">
     <!-- Precision -->
     <g transform="translate(18.737188 302.767031) rotate(-90) scale(0.1 -0.1)">
      <defs>
       <path id="DejaVuSans-50" d="M 1259 4147 
L 1259 2394 
L 2053 2394 
Q 2494 2394 2734 2622 
Q 2975 2850 2975 3272 
Q 2975 3691 2734 3919 
Q 2494 4147 2053 4147 
L 1259 4147 
z
M 628 4666 
L 2053 4666 
Q 2838 4666 3239 4311 
Q 3641 3956 3641 3272 
Q 3641 2581 3239 2228 
Q 2838 1875 2053 1875 
L 1259 1875 
L 1259 0 
L 628 0 
L 628 4666 
z
" transform="scale(0.015625)"/>
       <path id="DejaVuSans-72" d="M 2631 2963 
Q 2534 3019 2420 3045 
Q 2306 3072 2169 3072 
Q 1681 3072 1420 2755 
Q 1159 2438 1159 1844 
L 1159 0 
L 581 0 
L 581 3500 
L 1159 3500 
L 1159 2956 
Q 1341 3275 1631 3429 
Q 1922 3584 2338 3584 
Q 2397 3584 2469 3576 
Q 2541 3569 2628 3553 
L 2631 2963 
z
" transform="scale(0.015625)"/>
       <path id="DejaVuSans-69" d="M 603 3500 
L 1178 3500 
L 1178 0 
L 603 0 
L 603 3500 
z
M 603 4863 
L 1178 4863 
L 1178 4134 
L 603 4134 
L 603 4863 
z
" transform="scale(0.015625)"/>
       <path id="DejaVuSans-73" d="M 2834 3397 
L 2834 2853 
Q 2591 2978 2328 3040 
Q 2066 3103 1784 3103 
Q 1356 3103 1142 2972 
Q 928 2841 928 2578 
Q 928 2378 1081 2264 
Q 1234 2150 1697 2047 
L 1894 2003 
Q 2506 1872 2764 1633 
Q 3022 1394 3022 966 
Q 3022 478 2636 193 
Q 2250 -91 1575 -91 
Q 1294 -91 989 -36 
Q 684 19 347 128 
L 347 722 
Q 666 556 975 473 
Q 1284 391 1588 391 
Q 1994 391 2212 530 
Q 2431 669 2431 922 
Q 2431 1156 2273 1281 
Q 2116 1406 1581 1522 
L 1381 1569 
Q 847 1681 609 1914 
Q 372 2147 372 2553 
Q 372 3047 722 3315 
Q 1072 3584 1716 3584 
Q 2034 3584 2315 3537 
Q 2597 3491 2834 3397 
z
" transform="scale(0.015625)"/>
       <path id="DejaVuSans-6f" d="M 1959 3097 
Q 1497 3097 1228 2736 
Q 959 2375 959 1747 
Q 959 1119 1226 758 
Q 1494 397 1959 397 
Q 2419 397 2687 759 
Q 2956 1122 2956 1747 
Q 2956 2369 2687 2733 
Q 2419 3097 1959 3097 
z
M 1959 3584 
Q 2709 3584 3137 3096 
Q 3566 2609 3566 1747 
Q 3566 888 3137 398 
Q 2709 -91 1959 -91 
Q 1206 -91 779 398 
Q 353 888 353 1747 
Q 353 2609 779 3096 
Q 1206 3584 1959 3584 
z
" transform="scale(0.015625)"/>
       <path id="DejaVuSans-6e" d="M 3513 2113 
L 3513 0 
L 2938 0 
L 2938 2094 
Q 2938 2591 2744 2837 
Q 2550 3084 2163 3084 
Q 1697 3084 1428 2787 
Q 1159 2491 1159 1978 
L 1159 0 
L 581 0 
L 581 3500 
L 1159 3500 
L 1159 2956 
Q 1366 3272 1645 3428 
Q 1925 3584 2291 3584 
Q 2894 3584 3203 3211 
Q 3513 2838 3513 2113 
z
" transform="scale(0.015625)"/>
      </defs>
      <use xlink:href="#DejaVuSans-50"/>
      <use xlink:href="#DejaVuSans-72" transform="translate(58.552734 0)"/>
      <use xlink:href="#DejaVuSans-65" transform="translate(97.416016 0)"/>
      <use xlink:href="#DejaVuSans-63" transform="translate(158.939453 0)"/>
      <use xlink:href="#DejaVuSans-69" transform="translate(213.919922 0)"/>
      <use xlink:href="#DejaVuSans-73" transform="translate(241.703125 0)"/>
      <use xlink:href="#DejaVuSans-69" transform="translate(293.802734 0)"/>
      <use xlink:href="#DejaVuSans-6f" transform="translate(321.585938 0)"/>
      <use xlink:href="#DejaVuSans-6e" transform="translate(382.767578 0)"/>
     </g>
    </g>
   </g>
   <g id="line2d_25">
    <path d="M 544.551364 510.831628 
L 544.443906 510.528573 
L 542.22311 510.432788 
L 542.22311 510.420383 
L 542.115652 510.403903 
L 541.076893 510.314278 
L 541.076893 510.294439 
L 541.041074 510.258138 
L 539.142652 510.157269 
L 539.142652 510.150632 
L 539.035194 510.138581 
L 538.354628 510.029977 
L 538.354628 510.028941 
L 538.282989 510.018466 
L 536.993495 509.912031 
L 536.993495 509.910477 
L 536.886037 509.883558 
L 536.24129 509.783179 
L 536.24129 509.774199 
L 536.133832 509.75977 
L 535.23835 509.670899 
L 535.23835 509.651333 
L 535.166712 509.589842 
L 534.73688 509.482525 
L 534.73688 509.480174 
L 534.701061 509.44988 
L 534.092133 509.362799 
L 534.092133 509.340997 
L 534.056314 509.273392 
L 533.841398 509.179115 
L 533.841398 509.163151 
L 533.769759 509.053099 
L 533.483205 508.953522 
L 533.483205 508.943282 
L 533.411567 508.824422 
L 533.160832 508.722701 
L 533.160832 508.714566 
L 533.053374 508.667511 
L 532.802639 508.571941 
L 532.802639 508.557741 
L 532.695181 508.381031 
L 532.659362 508.381245 
L 532.659362 508.270139 
L 532.587723 507.832595 
L 532.408627 507.762457 
L 532.408627 507.722765 
L 532.372807 507.453689 
L 532.157892 507.4554 
L 532.157892 507.344288 
L 532.050434 507.041334 
L 531.942976 507.042284 
L 531.942976 506.931179 
L 531.907157 506.856977 
L 531.76388 506.749529 
L 531.76388 506.747201 
L 531.656422 506.062664 
L 531.513145 506.064231 
L 531.513145 505.95313 
L 531.477325 505.906824 
L 531.369868 505.908035 
L 531.369868 505.796924 
L 531.334048 505.545444 
L 531.190771 505.547169 
L 531.190771 505.43606 
L 531.119133 505.162463 
L 530.975855 505.164305 
L 530.975855 505.053199 
L 530.975855 504.630324 
L 530.72512 504.633832 
L 530.72512 504.522737 
L 530.653482 502.726746 
L 530.510205 502.729327 
L 530.510205 502.61821 
L 530.402747 501.861123 
L 530.22365 501.768152 
L 530.22365 501.753733 
L 530.152012 500.627871 
L 530.080373 500.629476 
L 530.080373 500.518393 
L 530.080373 499.704677 
L 529.865458 499.709907 
L 529.865458 499.598804 
L 529.793819 494.530993 
L 529.363988 494.546016 
L 529.363988 494.434925 
L 529.363988 493.000779 
L 529.220711 493.006234 
L 529.220711 492.895141 
L 529.113253 488.041297 
L 528.969976 488.048168 
L 528.969976 487.937389 
L 528.934156 481.628405 
L 528.790879 481.637058 
L 528.790879 481.525861 
L 528.790879 460.133765 
L 528.647602 460.147978 
L 528.647602 460.037284 
L 528.540144 432.094268 
L 528.504325 432.099401 
L 528.504325 431.987765 
L 528.396867 279.407015 
L 528.361048 279.416052 
L 528.361048 279.324753 
L 528.361048 257.247425 
L 528.217771 257.283213 
L 528.217771 257.173603 
L 528.146132 231.161969 
L 528.038674 231.187856 
L 528.038674 231.107855 
L 527.967036 171.806349 
L 527.859578 171.827456 
L 527.859578 171.729482 
L 527.75212 149.215823 
L 527.644662 149.234171 
L 527.644662 149.122661 
L 527.644662 148.317754 
L 527.429746 148.354225 
L 527.429746 148.242119 
L 527.322289 138.824437 
L 527.286469 138.830075 
L 527.286469 138.806459 
L 527.179011 134.764128 
L 527.107373 134.77501 
L 527.107373 134.678423 
L 527.035734 129.000555 
L 526.928276 129.016008 
L 526.928276 128.916402 
L 526.928276 123.945754 
L 526.784999 123.965302 
L 526.784999 121.547155 
L 526.605903 121.570954 
L 526.605903 121.519162 
L 526.605903 120.219867 
L 526.355168 120.252696 
L 526.24771 117.561234 
L 526.176072 117.570325 
L 526.176072 109.746718 
L 525.889517 109.779535 
L 525.889517 109.669397 
L 525.889517 107.453864 
L 525.674602 107.47768 
L 525.674602 107.366222 
L 525.567144 97.027882 
L 525.388047 97.044562 
L 525.388047 97.015226 
L 525.280589 93.921059 
L 525.24477 93.9242 
L 525.24477 91.979014 
L 525.101493 91.99108 
L 525.101493 91.900841 
L 525.101493 91.328423 
L 524.958216 91.340325 
L 524.958216 91.279964 
L 524.958216 90.190489 
L 524.814939 90.202099 
L 524.814939 90.171747 
L 524.814939 90.080665 
L 524.671662 90.09225 
L 524.671662 90.001105 
L 524.635842 89.912806 
L 524.600023 89.915692 
L 523.991095 89.873477 
L 523.991095 89.812564 
L 523.77618 89.82987 
L 523.77618 89.738431 
L 523.77618 89.402814 
L 523.632902 89.414248 
L 523.632902 89.353153 
L 523.632902 87.419564 
L 523.453806 87.433208 
L 523.453806 87.402363 
L 523.453806 86.598812 
L 523.131432 86.622896 
L 523.131432 86.59191 
L 523.023975 81.89941 
L 522.916517 81.90649 
L 522.916517 81.874798 
L 522.916517 80.762599 
L 522.701601 80.776298 
L 522.701601 80.712544 
L 522.594143 79.311698 
L 522.164312 79.241531 
L 522.128493 78.954251 
L 521.7703 78.975878 
L 521.7703 78.653575 
L 521.412107 78.67501 
L 521.412107 78.610447 
L 521.376288 77.317173 
L 521.23301 77.325376 
L 521.23301 77.260384 
L 521.23301 76.217846 
L 521.018095 76.229693 
L 521.018095 76.131656 
L 520.910637 75.088863 
L 520.73154 75.098342 
L 520.73154 75.032607 
L 520.695721 74.870063 
L 520.158432 74.865365 
L 520.158432 74.733567 
L 519.871878 74.74856 
L 519.871878 74.35246 
L 519.692781 74.361699 
L 519.692781 74.262526 
L 519.692781 74.064045 
L 519.012215 74.065669 
L 518.976396 73.303772 
L 518.833119 73.310876 
L 518.833119 73.2776 
L 518.833119 72.944566 
L 518.725661 72.949817 
L 518.618203 72.855019 
L 518.618203 72.454352 
L 518.546564 72.457784 
L 517.973456 72.384864 
L 517.973456 72.351384 
L 517.901817 72.354805 
L 517.543624 72.371931 
L 517.543624 72.103666 
L 517.507805 72.105361 
L 517.292889 72.115533 
L 517.292889 72.014799 
L 517.185431 71.952669 
L 517.042154 71.959411 
L 517.042154 71.858547 
L 516.934697 71.324745 
L 516.612323 71.339515 
L 516.612323 71.305772 
L 516.612323 71.20451 
L 516.182492 71.190324 
L 516.110853 70.923013 
L 515.716841 70.906905 
L 515.716841 70.839144 
L 515.609383 70.233046 
L 515.537744 70.236176 
L 515.537744 70.134176 
L 515.537744 70.100165 
L 515.430287 70.104832 
L 514.821359 70.063181 
L 514.713901 69.419345 
L 513.74678 69.460144 
L 513.74678 69.425891 
L 513.74678 69.014441 
L 513.531865 69.023332 
L 513.531865 68.920304 
L 513.424407 68.787253 
L 512.708021 68.713288 
L 512.600563 68.579814 
L 512.027455 68.534039 
L 511.955816 68.018333 
L 511.7409 67.922899 
L 511.7409 67.853596 
L 511.561804 67.860604 
L 511.561804 67.652486 
L 511.27525 67.663585 
L 511.27525 67.628859 
L 511.167792 67.354949 
L 511.131973 67.356314 
L 511.060334 67.185037 
L 511.024515 67.18639 
L 510.952876 67.084602 
L 510.952876 67.04976 
L 510.558864 67.064546 
L 510.558864 67.029669 
L 510.487226 66.857862 
L 509.77084 66.884503 
L 509.77084 66.744598 
L 509.627563 66.749894 
L 509.555924 66.016261 
L 509.161912 66.030231 
L 509.161912 65.537607 
L 508.552984 65.452764 
L 508.552984 65.382175 
L 508.517165 65.383399 
L 507.979876 65.366429 
L 507.944056 65.08466 
L 507.585864 65.096693 
L 507.585864 65.061267 
L 507.585864 64.88405 
L 507.478406 64.887614 
L 506.905297 64.906655 
L 506.905297 64.871142 
L 506.833659 64.624739 
L 506.797839 64.625909 
L 505.902357 64.548303 
L 505.902357 64.36999 
L 505.7949 64.373449 
L 504.648682 64.338894 
L 504.648682 64.195708 
L 504.039755 64.143438 
L 504.039755 64.071693 
L 502.320429 64.090351 
L 502.28461 63.730989 
L 502.248791 63.732102 
L 501.245851 63.654822 
L 501.245851 63.510059 
L 501.210031 63.511157 
L 500.422007 63.499091 
L 500.422007 63.317649 
L 500.350369 63.319819 
L 500.207091 63.324162 
L 500.207091 63.215175 
L 500.207091 62.887896 
L 498.953416 62.888317 
L 498.953416 62.742279 
L 498.845959 62.745409 
L 497.090814 62.723404 
L 497.054994 62.283772 
L 496.052055 62.238463 
L 495.980416 61.908504 
L 495.156573 61.820206 
L 495.156573 61.783203 
L 495.049115 61.786131 
L 494.29691 61.806671 
L 494.29691 61.658311 
L 493.723801 61.599505 
L 493.723801 61.450806 
L 493.616343 61.453665 
L 492.828319 61.474667 
L 492.828319 61.32557 
L 491.538825 61.322271 
L 491.467186 61.024704 
L 491.431367 61.025627 
L 490.607524 61.046901 
L 490.607524 60.896728 
L 490.535885 60.898558 
L 489.532945 60.924232 
L 489.497126 60.397424 
L 488.350909 60.387695 
L 488.350909 60.236267 
L 488.27927 60.237998 
L 486.953957 60.194131 
L 486.882318 59.891572 
L 486.703222 59.895773 
L 486.703222 59.781512 
L 486.631583 59.783175 
L 486.094294 59.71935 
L 486.094294 59.604832 
L 485.234631 59.6245 
L 485.234631 59.318225 
L 485.198812 59.31902 
L 482.727281 59.374262 
L 482.727281 59.220072 
L 482.619823 59.22245 
L 480.399028 59.271867 
L 480.399028 59.155524 
L 480.327389 59.157107 
L 479.969197 59.165032 
L 479.969197 59.126198 
L 479.969197 59.04851 
L 479.109534 59.067349 
L 479.109534 58.87262 
L 479.002076 58.874931 
L 478.464787 58.886504 
L 478.464787 58.769407 
L 476.351449 58.775392 
L 476.351449 58.461214 
L 476.243991 58.463436 
L 468.29211 58.550971 
L 468.29211 58.510886 
L 468.220472 58.512405 
L 467.933917 58.438228 
L 467.933917 58.357939 
L 465.462387 58.329004 
L 465.462387 58.288591 
L 462.990856 58.259026 
L 462.990856 58.218346 
L 462.919218 58.219835 
L 461.343169 58.252723 
L 461.343169 58.130141 
L 461.235712 58.132361 
L 459.874579 58.160577 
L 459.874579 58.07852 
L 459.874579 57.996434 
L 459.373109 57.965569 
L 459.33729 57.719487 
L 459.265651 57.720901 
L 458.011976 57.704429 
L 458.011976 57.580491 
L 457.940338 57.581885 
L 457.223952 57.595851 
L 457.223952 57.430168 
L 456.471747 57.444575 
L 456.471747 57.278457 
L 453.498746 57.292831 
L 453.498746 57.209085 
L 453.391289 57.2111 
L 440.85454 57.367486 
L 440.85454 57.324198 
L 440.747082 57.326314 
L 436.090575 57.375337 
L 436.090575 57.287625 
L 436.018936 57.289047 
L 429.750562 57.326383 
L 429.750562 57.2371 
L 428.962538 57.252942 
L 428.962538 57.208192 
L 428.962538 57.118665 
L 424.485127 57.117684 
L 424.377669 56.983737 
L 419.183873 57.041355 
L 419.183873 56.903173 
L 419.148054 56.90388 
L 416.389969 56.912319 
L 416.389969 56.819409 
L 416.35415 56.820113 
L 412.84386 56.84291 
L 412.84386 56.702039 
L 412.163294 56.668292 
L 412.055836 56.43483 
L 411.33945 56.353854 
L 411.33945 56.164768 
L 411.267812 56.166064 
L 399.304171 56.292312 
L 399.304171 56.194293 
L 399.196714 56.196318 
L 398.659424 56.206461 
L 398.659424 56.157341 
L 398.659424 56.05907 
L 398.623605 56.059732 
L 395.686424 56.015288 
L 395.686424 55.965677 
L 395.578966 55.96765 
L 392.641785 56.022097 
L 392.641785 55.671303 
L 392.570146 55.672567 
L 390.671724 55.706267 
L 390.671724 55.403344 
L 382.684024 55.542006 
L 382.684024 55.386596 
L 382.648205 55.387216 
L 378.206614 55.360085 
L 378.099156 55.098806 
L 373.263553 55.127122 
L 373.263553 55.020099 
L 373.156095 55.021891 
L 368.571227 55.099523 
L 368.571227 54.936414 
L 368.535407 54.937011 
L 366.314612 54.97428 
L 366.314612 54.809833 
L 362.338671 54.764599 
L 362.338671 54.708996 
L 362.302852 54.709578 
L 361.514828 54.722417 
L 361.514828 54.443426 
L 361.443189 54.444529 
L 360.547707 54.402342 
L 360.547707 54.346306 
L 360.476069 54.347389 
L 350.876501 54.381597 
L 350.876501 54.207611 
L 349.837742 54.22341 
L 349.837742 54.048654 
L 349.801922 54.049179 
L 349.336272 54.056013 
L 349.336272 53.70548 
L 339.808343 53.777745 
L 339.808343 53.717213 
L 332.680305 53.81958 
L 332.680305 53.695221 
L 332.572847 53.696756 
L 325.874641 53.731153 
L 325.874641 53.47561 
L 325.767184 53.477096 
L 319.96446 53.559181 
L 319.96446 53.362846 
L 305.171096 53.508612 
L 305.171096 52.95136 
L 305.063638 52.952739 
L 300.872782 53.00752 
L 300.872782 52.865416 
L 291.416491 52.916515 
L 291.416491 52.842391 
L 283.392972 52.874866 
L 283.392972 52.797922 
L 283.321333 52.798885 
L 281.709466 52.820712 
L 281.709466 52.66553 
L 275.656007 52.746018 
L 275.656007 52.346223 
L 275.548549 52.347486 
L 251.979461 52.570343 
L 251.979461 52.208329 
L 245.675267 52.290215 
L 245.675267 52.00859 
L 245.567809 52.009865 
L 237.795025 52.106424 
L 237.795025 51.712732 
L 232.995241 51.765385 
L 232.995241 51.257776 
L 207.957562 51.379689 
L 207.957562 51.139159 
L 187.254017 51.354049 
L 187.254017 50.928573 
L 187.146559 50.929496 
L 182.346775 50.972512 
L 182.346775 50.824259 
L 182.275136 50.824834 
L 179.051401 50.85149 
L 179.051401 50.545643 
L 177.905184 50.552229 
L 177.905184 50.39751 
L 177.797726 50.397978 
L 171.815906 50.425658 
L 171.815906 50.261465 
L 164.258037 50.288195 
L 164.258037 50.11053 
L 114.325957 50.317076 
L 96.66705 50.585088 
L 88.392796 50.901675 
L 84.66759 51.172563 
L 84.66759 49.932727 
L 84.595952 49.932727 
L 71.378636 49.932727 
L 71.378636 49.932727 
" clip-path="url(#p1323de24a9)" style="fill: none; stroke: #1f77b4; stroke-width: 1.5; stroke-linecap: square"/>
   </g>
   <g id="line2d_26">
    <path d="M 544.551364 510.959533 
L 544.551364 510.601941 
L 502.912164 510.549745 
L 502.912164 510.539156 
L 502.912164 510.531138 
L 472.629109 510.4797 
L 472.629109 510.463524 
L 472.629109 510.436723 
L 442.346055 510.430524 
L 442.346055 510.379503 
L 442.346055 510.364329 
L 408.277618 510.328119 
L 408.277618 510.325416 
L 408.277618 510.321657 
L 362.853036 510.325015 
L 362.853036 510.322274 
L 362.853036 510.303372 
L 343.926127 510.302773 
L 343.926127 510.247258 
L 343.926127 510.212972 
L 332.569982 510.163565 
L 332.569982 510.140905 
L 332.569982 510.129213 
L 328.7846 510.143999 
L 328.7846 510.032923 
L 328.7846 510.028877 
L 321.213836 509.978846 
L 321.213836 509.950711 
L 321.213836 509.900713 
L 313.643073 509.930188 
L 313.643073 509.827436 
L 313.643073 509.746422 
L 302.286927 509.710398 
L 302.286927 509.701034 
L 302.286927 509.254071 
L 298.501545 509.285054 
L 298.501545 509.174066 
L 298.501545 508.977172 
L 294.716164 509.013246 
L 294.716164 508.902231 
L 294.716164 508.309731 
L 290.930782 508.357609 
L 290.930782 508.246549 
L 290.930782 477.074381 
L 283.360018 478.16542 
L 283.360018 478.080948 
L 283.360018 119.814391 
L 279.574636 120.889493 
L 279.574636 88.367642 
L 268.218491 90.390533 
L 268.218491 82.87694 
L 256.862345 84.741707 
L 245.5062 86.830246 
L 237.935436 88.367642 
L 237.935436 79.372237 
L 226.579291 81.379476 
L 215.223145 83.680458 
L 215.223145 72.993676 
L 203.867 74.863483 
L 196.296236 76.288098 
L 188.725473 77.885393 
L 181.154709 79.688791 
L 181.154709 65.306693 
L 169.798564 67.014912 
L 166.013182 67.671919 
L 154.657036 69.985726 
L 147.086273 71.895536 
L 139.515509 74.20741 
L 135.730127 75.556004 
L 131.944745 77.063256 
L 128.159364 78.758914 
L 124.373982 80.680659 
L 124.373982 49.932727 
L 71.378636 49.932727 
L 71.378636 49.932727 
" clip-path="url(#p1323de24a9)" style="fill: none; stroke: #ff7f0e; stroke-width: 1.5; stroke-linecap: square"/>
   </g>
   <g id="line2d_27">
    <path d="M 544.551364 510.909824 
L 544.551364 510.527158 
L 508.461918 510.484958 
L 508.461918 510.463622 
L 508.461918 510.45532 
L 476.382411 510.432555 
L 476.382411 510.395255 
L 476.382411 510.381089 
L 464.352596 510.379845 
L 464.352596 510.292843 
L 464.352596 510.242993 
L 432.273089 510.20794 
L 432.273089 510.205919 
L 432.273089 510.205272 
L 420.243274 510.181917 
L 420.243274 510.125649 
L 420.243274 510.120189 
L 404.203521 510.085082 
L 404.203521 510.056426 
L 404.203521 509.88567 
L 392.173706 509.867958 
L 392.173706 509.820196 
L 392.173706 509.769001 
L 380.143891 509.771939 
L 380.143891 509.709637 
L 380.143891 509.678225 
L 376.133952 509.697301 
L 376.133952 509.586228 
L 376.133952 509.558043 
L 364.104137 509.597276 
L 364.104137 509.509638 
L 364.104137 509.491828 
L 360.094199 509.514486 
L 360.094199 509.403378 
L 360.094199 509.282216 
L 356.08426 509.308078 
L 356.08426 509.19704 
L 356.08426 508.777565 
L 348.064384 508.752061 
L 348.064384 508.733094 
L 348.064384 508.37328 
L 344.054445 508.413308 
L 344.054445 508.302349 
L 344.054445 508.252836 
L 340.044507 508.295202 
L 340.044507 508.184102 
L 340.044507 507.556818 
L 336.034569 507.610061 
L 336.034569 507.499145 
L 336.034569 507.45209 
L 332.02463 507.507702 
L 332.02463 507.396793 
L 332.02463 507.218973 
L 328.014692 507.278969 
L 328.014692 507.16817 
L 328.014692 505.746467 
L 319.994815 505.913463 
L 319.994815 505.80274 
L 319.994815 504.440706 
L 315.984877 504.547398 
L 315.984877 504.437063 
L 315.984877 114.893147 
L 311.974938 115.821153 
L 311.974938 98.119785 
L 307.965 98.849892 
L 307.965 92.506787 
L 303.955062 93.172007 
L 303.955062 79.688791 
L 299.945123 80.176595 
L 299.945123 72.993676 
L 283.90537 74.640887 
L 279.895431 75.090126 
L 279.895431 58.634972 
L 255.835801 59.745897 
L 251.825863 59.959227 
L 251.825863 49.932727 
L 71.378636 49.932727 
L 71.378636 49.932727 
" clip-path="url(#p1323de24a9)" style="fill: none; stroke: #2ca02c; stroke-width: 1.5; stroke-linecap: square"/>
   </g>
   <g id="line2d_28">
    <path d="M 544.551364 510.960301 
L 544.551364 510.606298 
L 504.64523 510.581829 
L 504.64523 510.54114 
L 504.64523 510.501609 
L 476.140849 510.4428 
L 476.140849 510.433219 
L 476.140849 510.431496 
L 436.234715 510.395242 
L 436.234715 510.391287 
L 436.234715 510.356374 
L 379.225953 510.375922 
L 379.225953 510.369342 
L 379.225953 510.354874 
L 367.8242 510.372545 
L 367.8242 510.273227 
L 367.8242 510.072541 
L 356.422448 510.103721 
L 356.422448 510.002853 
L 356.422448 509.973746 
L 339.319819 509.986199 
L 339.319819 509.933197 
L 339.319819 509.875146 
L 322.217191 509.853164 
L 322.217191 509.845306 
L 322.217191 509.833682 
L 310.815438 509.82564 
L 310.815438 509.782331 
L 310.815438 508.720278 
L 305.114562 508.777871 
L 305.114562 508.666822 
L 305.114562 507.756738 
L 299.413686 507.838948 
L 299.413686 507.728297 
L 299.413686 389.778292 
L 293.712809 392.028924 
L 293.712809 102.343975 
L 288.011933 103.562841 
L 288.011933 61.758855 
L 282.311057 62.070069 
L 282.311057 49.932727 
L 71.378636 49.932727 
L 71.378636 49.932727 
" clip-path="url(#p1323de24a9)" style="fill: none; stroke: #d62728; stroke-width: 1.5; stroke-linecap: square"/>
   </g>
   <g id="line2d_29">
    <path d="M 544.551364 510.872483 
L 544.551364 510.459817 
L 531.877094 510.449896 
L 531.877094 510.367211 
L 531.877094 510.294145 
L 502.303799 510.246469 
L 502.303799 510.238012 
L 502.303799 510.23102 
L 493.854286 510.144921 
L 493.854286 510.137928 
L 493.854286 510.129729 
L 476.95526 510.100421 
L 476.95526 510.059418 
L 476.95526 509.973657 
L 468.505747 509.919343 
L 468.505747 509.887062 
L 468.505747 509.885954 
L 455.831477 509.854948 
L 455.831477 509.815139 
L 455.831477 509.69007 
L 451.606721 509.706081 
L 451.606721 509.594996 
L 451.606721 509.585835 
L 447.381964 509.603175 
L 447.381964 509.49211 
L 447.381964 509.317384 
L 438.932451 509.292384 
L 438.932451 509.247381 
L 438.932451 509.224794 
L 430.482938 509.26265 
L 430.482938 509.15783 
L 430.482938 508.417843 
L 422.033425 508.393499 
L 422.033425 508.370858 
L 422.033425 508.08283 
L 417.808669 508.119561 
L 417.808669 508.008688 
L 417.808669 507.700037 
L 413.583912 507.741819 
L 413.583912 507.630952 
L 413.583912 507.5849 
L 409.359156 507.628599 
L 409.359156 507.517558 
L 409.359156 506.59983 
L 405.134399 506.656174 
L 405.134399 506.545348 
L 405.134399 498.447279 
L 400.909643 498.60372 
L 400.909643 498.49334 
L 400.909643 316.691813 
L 396.684886 318.141591 
L 396.684886 231.515003 
L 392.46013 232.956132 
L 392.46013 83.680458 
L 388.235373 84.097096 
L 388.235373 67.671919 
L 375.561104 68.381486 
L 375.561104 62.398105 
L 371.336347 62.568864 
L 371.336347 56.338546 
L 367.111591 56.428769 
L 367.111591 49.932727 
L 71.378636 49.932727 
L 71.378636 49.932727 
" clip-path="url(#p1323de24a9)" style="fill: none; stroke: #9467bd; stroke-width: 1.5; stroke-linecap: square"/>
   </g>
   <g id="line2d_30">
    <path d="M 544.551364 510.974907 
L 544.551364 510.572429 
L 493.119545 510.533107 
L 493.119545 510.524219 
L 493.119545 510.516675 
L 472.546818 510.45608 
L 472.546818 510.436525 
L 472.546818 510.37049 
L 441.687727 510.354325 
L 441.687727 510.319391 
L 441.687727 510.316208 
L 421.115 510.354359 
L 421.115 510.251458 
L 421.115 510.246782 
L 359.396818 510.346938 
L 359.396818 510.295105 
L 359.396818 510.286149 
L 328.537727 510.28168 
L 328.537727 510.267672 
L 328.537727 510.266382 
L 318.251364 510.30173 
L 318.251364 510.190668 
L 318.251364 510.043896 
L 307.965 510.089948 
L 307.965 509.978901 
L 307.965 509.69556 
L 277.105909 509.796178 
L 277.105909 509.773906 
L 277.105909 509.395686 
L 266.819545 509.48317 
L 266.819545 509.372385 
L 266.819545 508.58788 
L 256.533182 508.722108 
L 256.533182 508.611334 
L 256.533182 49.932727 
L 71.378636 49.932727 
L 71.378636 49.932727 
" clip-path="url(#p1323de24a9)" style="fill: none; stroke: #8c564b; stroke-width: 1.5; stroke-linecap: square"/>
   </g>
   <g id="line2d_31">
    <path d="M 544.551364 510.987273 
L 544.551364 510.607817 
L 417.602583 510.679872 
L 417.602583 510.642467 
L 417.602583 510.639981 
L 371.43939 510.608187 
L 371.43939 510.59705 
L 371.43939 510.587552 
L 348.357794 510.54749 
L 348.357794 510.519792 
L 348.357794 510.402113 
L 325.276197 510.42324 
L 325.276197 510.353374 
L 325.276197 510.282079 
L 302.194601 510.343968 
L 302.194601 510.24992 
L 302.194601 510.124608 
L 290.653803 510.175854 
L 290.653803 510.064871 
L 290.653803 508.904743 
L 279.113004 509.022458 
L 279.113004 508.911572 
L 279.113004 96.054625 
L 267.572206 98.482094 
L 256.031408 101.179281 
L 256.031408 77.063256 
L 244.49061 78.758914 
L 232.949812 80.680659 
L 232.949812 49.932727 
L 71.378636 49.932727 
L 71.378636 49.932727 
" clip-path="url(#p1323de24a9)" style="fill: none; stroke: #e377c2; stroke-width: 1.5; stroke-linecap: square"/>
   </g>
   <g id="line2d_32">
    <path d="M 544.551364 510.879588 
L 544.551364 510.481133 
L 496.432103 510.506135 
L 496.432103 510.438121 
L 496.432103 510.428002 
L 488.412227 510.441635 
L 488.412227 510.330527 
L 488.412227 510.263795 
L 464.352596 510.234585 
L 464.352596 510.203851 
L 464.352596 510.088991 
L 448.312843 510.129483 
L 448.312843 510.02121 
L 448.312843 509.790239 
L 432.273089 509.772097 
L 432.273089 509.736925 
L 432.273089 509.533521 
L 416.233336 509.525566 
L 416.233336 509.494171 
L 416.233336 509.262366 
L 400.193582 509.246804 
L 400.193582 509.238904 
L 400.193582 509.179247 
L 392.173706 509.227155 
L 392.173706 509.116094 
L 392.173706 506.828117 
L 384.153829 506.935219 
L 384.153829 506.824659 
L 384.153829 504.617911 
L 376.133952 504.783131 
L 376.133952 504.672476 
L 376.133952 503.977609 
L 368.114076 504.163541 
L 368.114076 504.053079 
L 368.114076 502.732811 
L 360.094199 502.956306 
L 360.094199 502.845613 
L 360.094199 499.645205 
L 352.074322 499.957072 
L 352.074322 499.847321 
L 352.074322 495.168871 
L 344.054445 495.610136 
L 344.054445 495.501562 
L 344.054445 75.556004 
L 336.034569 76.288098 
L 336.034569 63.497991 
L 311.974938 64.810759 
L 287.915308 66.404834 
L 271.875555 67.671919 
L 255.835801 69.150185 
L 239.796048 70.897226 
L 223.756294 72.993676 
L 223.756294 49.932727 
L 71.378636 49.932727 
L 71.378636 49.932727 
" clip-path="url(#p1323de24a9)" style="fill: none; stroke: #7f7f7f; stroke-width: 1.5; stroke-linecap: square"/>
   </g>
   <g id="line2d_33">
    <path d="M 544.551364 510.870121 
L 544.551364 510.425497 
L 495.602461 510.403092 
L 495.602461 510.38941 
L 495.602461 510.368602 
L 446.653558 510.377822 
L 446.653558 510.347703 
L 446.653558 510.264451 
L 405.862806 510.304752 
L 405.862806 510.2496 
L 405.862806 510.232766 
L 381.388354 510.19409 
L 381.388354 510.188776 
L 381.388354 510.176343 
L 373.230204 510.201958 
L 373.230204 510.090907 
L 373.230204 509.983585 
L 365.072053 510.015078 
L 365.072053 509.904046 
L 365.072053 509.541243 
L 348.755752 509.617169 
L 348.755752 509.519414 
L 348.755752 509.204911 
L 340.597602 509.261935 
L 340.597602 509.150889 
L 340.597602 506.623226 
L 332.439451 506.759146 
L 332.439451 506.649265 
L 332.439451 504.773571 
L 324.281301 504.970216 
L 324.281301 504.861435 
L 324.281301 77.885393 
L 316.12315 78.758914 
L 316.12315 64.810759 
L 291.648699 66.404834 
L 275.332398 67.671919 
L 275.332398 49.932727 
L 71.378636 49.932727 
L 71.378636 49.932727 
" clip-path="url(#p1323de24a9)" style="fill: none; stroke: #bcbd22; stroke-width: 1.5; stroke-linecap: square"/>
   </g>
   <g id="line2d_34">
    <path d="M 544.551364 510.96722 
L 544.551364 510.564189 
L 419.299759 510.620447 
L 419.299759 510.608406 
L 419.299759 510.582357 
L 349.715535 510.611986 
L 349.715535 510.584995 
L 349.715535 510.526707 
L 321.881845 510.56805 
L 321.881845 510.478067 
L 321.881845 510.148452 
L 294.048155 510.22661 
L 294.048155 510.148649 
L 294.048155 510.035967 
L 280.13131 510.105543 
L 280.13131 509.99461 
L 280.13131 49.932727 
L 71.378636 49.932727 
L 71.378636 49.932727 
" clip-path="url(#p1323de24a9)" style="fill: none; stroke: #17becf; stroke-width: 1.5; stroke-linecap: square"/>
   </g>
   <g id="patch_3">
    <path d="M 47.72 534.04 
L 47.72 26.88 
" style="fill: none; stroke: #000000; stroke-width: 0.8; stroke-linejoin: miter; stroke-linecap: square"/>
   </g>
   <g id="patch_4">
    <path d="M 568.21 534.04 
L 568.21 26.88 
" style="fill: none; stroke: #000000; stroke-width: 0.8; stroke-linejoin: miter; stroke-linecap: square"/>
   </g>
   <g id="patch_5">
    <path d="M 47.72 534.04 
L 568.21 534.04 
" style="fill: none; stroke: #000000; stroke-width: 0.8; stroke-linejoin: miter; stroke-linecap: square"/>
   </g>
   <g id="patch_6">
    <path d="M 47.72 26.88 
L 568.21 26.88 
" style="fill: none; stroke: #000000; stroke-width: 0.8; stroke-linejoin: miter; stroke-linecap: square"/>
   </g>
   <g id="text_15">
    <!-- Donor Precision-Recall Curves by Sequence -->
    <g transform="translate(177.486562 20.88) scale(0.12 -0.12)">
     <defs>
      <path id="DejaVuSans-44" d="M 1259 4147 
L 1259 519 
L 2022 519 
Q 2988 519 3436 956 
Q 3884 1394 3884 2338 
Q 3884 3275 3436 3711 
Q 2988 4147 2022 4147 
L 1259 4147 
z
M 628 4666 
L 1925 4666 
Q 3281 4666 3915 4102 
Q 4550 3538 4550 2338 
Q 4550 1131 3912 565 
Q 3275 0 1925 0 
L 628 0 
L 628 4666 
z
" transform="scale(0.015625)"/>
      <path id="DejaVuSans-20" transform="scale(0.015625)"/>
      <path id="DejaVuSans-2d" d="M 313 2009 
L 1997 2009 
L 1997 1497 
L 313 1497 
L 313 2009 
z
" transform="scale(0.015625)"/>
      <path id="DejaVuSans-43" d="M 4122 4306 
L 4122 3641 
Q 3803 3938 3442 4084 
Q 3081 4231 2675 4231 
Q 1875 4231 1450 3742 
Q 1025 3253 1025 2328 
Q 1025 1406 1450 917 
Q 1875 428 2675 428 
Q 3081 428 3442 575 
Q 3803 722 4122 1019 
L 4122 359 
Q 3791 134 3420 21 
Q 3050 -91 2638 -91 
Q 1578 -91 968 557 
Q 359 1206 359 2328 
Q 359 3453 968 4101 
Q 1578 4750 2638 4750 
Q 3056 4750 3426 4639 
Q 3797 4528 4122 4306 
z
" transform="scale(0.015625)"/>
      <path id="DejaVuSans-75" d="M 544 1381 
L 544 3500 
L 1119 3500 
L 1119 1403 
Q 1119 906 1312 657 
Q 1506 409 1894 409 
Q 2359 409 2629 706 
Q 2900 1003 2900 1516 
L 2900 3500 
L 3475 3500 
L 3475 0 
L 2900 0 
L 2900 538 
Q 2691 219 2414 64 
Q 2138 -91 1772 -91 
Q 1169 -91 856 284 
Q 544 659 544 1381 
z
M 1991 3584 
L 1991 3584 
z
" transform="scale(0.015625)"/>
      <path id="DejaVuSans-76" d="M 191 3500 
L 800 3500 
L 1894 563 
L 2988 3500 
L 3597 3500 
L 2284 0 
L 1503 0 
L 191 3500 
z
" transform="scale(0.015625)"/>
      <path id="DejaVuSans-62" d="M 3116 1747 
Q 3116 2381 2855 2742 
Q 2594 3103 2138 3103 
Q 1681 3103 1420 2742 
Q 1159 2381 1159 1747 
Q 1159 1113 1420 752 
Q 1681 391 2138 391 
Q 2594 391 2855 752 
Q 3116 1113 3116 1747 
z
M 1159 2969 
Q 1341 3281 1617 3432 
Q 1894 3584 2278 3584 
Q 2916 3584 3314 3078 
Q 3713 2572 3713 1747 
Q 3713 922 3314 415 
Q 2916 -91 2278 -91 
Q 1894 -91 1617 61 
Q 1341 213 1159 525 
L 1159 0 
L 581 0 
L 581 4863 
L 1159 4863 
L 1159 2969 
z
" transform="scale(0.015625)"/>
      <path id="DejaVuSans-79" d="M 2059 -325 
Q 1816 -950 1584 -1140 
Q 1353 -1331 966 -1331 
L 506 -1331 
L 506 -850 
L 844 -850 
Q 1081 -850 1212 -737 
Q 1344 -625 1503 -206 
L 1606 56 
L 191 3500 
L 800 3500 
L 1894 763 
L 2988 3500 
L 3597 3500 
L 2059 -325 
z
" transform="scale(0.015625)"/>
      <path id="DejaVuSans-53" d="M 3425 4513 
L 3425 3897 
Q 3066 4069 2747 4153 
Q 2428 4238 2131 4238 
Q 1616 4238 1336 4038 
Q 1056 3838 1056 3469 
Q 1056 3159 1242 3001 
Q 1428 2844 1947 2747 
L 2328 2669 
Q 3034 2534 3370 2195 
Q 3706 1856 3706 1288 
Q 3706 609 3251 259 
Q 2797 -91 1919 -91 
Q 1588 -91 1214 -16 
Q 841 59 441 206 
L 441 856 
Q 825 641 1194 531 
Q 1563 422 1919 422 
Q 2459 422 2753 634 
Q 3047 847 3047 1241 
Q 3047 1584 2836 1778 
Q 2625 1972 2144 2069 
L 1759 2144 
Q 1053 2284 737 2584 
Q 422 2884 422 3419 
Q 422 4038 858 4394 
Q 1294 4750 2059 4750 
Q 2388 4750 2728 4690 
Q 3069 4631 3425 4513 
z
" transform="scale(0.015625)"/>
      <path id="DejaVuSans-71" d="M 947 1747 
Q 947 1113 1208 752 
Q 1469 391 1925 391 
Q 2381 391 2643 752 
Q 2906 1113 2906 1747 
Q 2906 2381 2643 2742 
Q 2381 3103 1925 3103 
Q 1469 3103 1208 2742 
Q 947 2381 947 1747 
z
M 2906 525 
Q 2725 213 2448 61 
Q 2172 -91 1784 -91 
Q 1150 -91 751 415 
Q 353 922 353 1747 
Q 353 2572 751 3078 
Q 1150 3584 1784 3584 
Q 2172 3584 2448 3432 
Q 2725 3281 2906 2969 
L 2906 3500 
L 3481 3500 
L 3481 -1331 
L 2906 -1331 
L 2906 525 
z
" transform="scale(0.015625)"/>
     </defs>
     <use xlink:href="#DejaVuSans-44"/>
     <use xlink:href="#DejaVuSans-6f" transform="translate(77.001953 0)"/>
     <use xlink:href="#DejaVuSans-6e" transform="translate(138.183594 0)"/>
     <use xlink:href="#DejaVuSans-6f" transform="translate(201.5625 0)"/>
     <use xlink:href="#DejaVuSans-72" transform="translate(262.744141 0)"/>
     <use xlink:href="#DejaVuSans-20" transform="translate(303.857422 0)"/>
     <use xlink:href="#DejaVuSans-50" transform="translate(335.644531 0)"/>
     <use xlink:href="#DejaVuSans-72" transform="translate(394.197266 0)"/>
     <use xlink:href="#DejaVuSans-65" transform="translate(433.060547 0)"/>
     <use xlink:href="#DejaVuSans-63" transform="translate(494.583984 0)"/>
     <use xlink:href="#DejaVuSans-69" transform="translate(549.564453 0)"/>
     <use xlink:href="#DejaVuSans-73" transform="translate(577.347656 0)"/>
     <use xlink:href="#DejaVuSans-69" transform="translate(629.447266 0)"/>
     <use xlink:href="#DejaVuSans-6f" transform="translate(657.230469 0)"/>
     <use xlink:href="#DejaVuSans-6e" transform="translate(718.412109 0)"/>
     <use xlink:href="#DejaVuSans-2d" transform="translate(781.791016 0)"/>
     <use xlink:href="#DejaVuSans-52" transform="translate(817.875 0)"/>
     <use xlink:href="#DejaVuSans-65" transform="translate(882.857422 0)"/>
     <use xlink:href="#DejaVuSans-63" transform="translate(944.380859 0)"/>
     <use xlink:href="#DejaVuSans-61" transform="translate(999.361328 0)"/>
     <use xlink:href="#DejaVuSans-6c" transform="translate(1060.640625 0)"/>
     <use xlink:href="#DejaVuSans-6c" transform="translate(1088.423828 0)"/>
     <use xlink:href="#DejaVuSans-20" transform="translate(1116.207031 0)"/>
     <use xlink:href="#DejaVuSans-43" transform="translate(1147.994141 0)"/>
     <use xlink:href="#DejaVuSans-75" transform="translate(1217.818359 0)"/>
     <use xlink:href="#DejaVuSans-72" transform="translate(1281.197266 0)"/>
     <use xlink:href="#DejaVuSans-76" transform="translate(1322.310547 0)"/>
     <use xlink:href="#DejaVuSans-65" transform="translate(1381.490234 0)"/>
     <use xlink:href="#DejaVuSans-73" transform="translate(1443.013672 0)"/>
     <use xlink:href="#DejaVuSans-20" transform="translate(1495.113281 0)"/>
     <use xlink:href="#DejaVuSans-62" transform="translate(1526.900391 0)"/>
     <use xlink:href="#DejaVuSans-79" transform="translate(1590.376953 0)"/>
     <use xlink:href="#DejaVuSans-20" transform="translate(1649.556641 0)"/>
     <use xlink:href="#DejaVuSans-53" transform="translate(1681.34375 0)"/>
     <use xlink:href="#DejaVuSans-65" transform="translate(1744.820312 0)"/>
     <use xlink:href="#DejaVuSans-71" transform="translate(1806.34375 0)"/>
     <use xlink:href="#DejaVuSans-75" transform="translate(1869.820312 0)"/>
     <use xlink:href="#DejaVuSans-65" transform="translate(1933.199219 0)"/>
     <use xlink:href="#DejaVuSans-6e" transform="translate(1994.722656 0)"/>
     <use xlink:href="#DejaVuSans-63" transform="translate(2058.101562 0)"/>
     <use xlink:href="#DejaVuSans-65" transform="translate(2113.082031 0)"/>
    </g>
   </g>
   <g id="legend_1">
    <g id="patch_7">
     <path d="M 601.2345 181.66125 
L 844.304812 181.66125 
Q 846.304812 181.66125 846.304812 179.66125 
L 846.304812 33.88 
Q 846.304812 31.88 844.304812 31.88 
L 601.2345 31.88 
Q 599.2345 31.88 599.2345 33.88 
L 599.2345 179.66125 
Q 599.2345 181.66125 601.2345 181.66125 
z
" style="fill: #ffffff; opacity: 0.8; stroke: #cccccc; stroke-linejoin: miter"/>
    </g>
    <g id="line2d_35">
     <path d="M 603.2345 39.978438 
L 613.2345 39.978438 
L 623.2345 39.978438 
" style="fill: none; stroke: #1f77b4; stroke-width: 1.5; stroke-linecap: square"/>
    </g>
    <g id="text_16">
     <!-- GT (AUPRC=0.956, n=3807), topk=0.947) -->
     <g transform="translate(631.2345 43.478438) scale(0.1 -0.1)">
      <defs>
       <path id="DejaVuSans-47" d="M 3809 666 
L 3809 1919 
L 2778 1919 
L 2778 2438 
L 4434 2438 
L 4434 434 
Q 4069 175 3628 42 
Q 3188 -91 2688 -91 
Q 1594 -91 976 548 
Q 359 1188 359 2328 
Q 359 3472 976 4111 
Q 1594 4750 2688 4750 
Q 3144 4750 3555 4637 
Q 3966 4525 4313 4306 
L 4313 3634 
Q 3963 3931 3569 4081 
Q 3175 4231 2741 4231 
Q 1884 4231 1454 3753 
Q 1025 3275 1025 2328 
Q 1025 1384 1454 906 
Q 1884 428 2741 428 
Q 3075 428 3337 486 
Q 3600 544 3809 666 
z
" transform="scale(0.015625)"/>
       <path id="DejaVuSans-54" d="M -19 4666 
L 3928 4666 
L 3928 4134 
L 2272 4134 
L 2272 0 
L 1638 0 
L 1638 4134 
L -19 4134 
L -19 4666 
z
" transform="scale(0.015625)"/>
       <path id="DejaVuSans-28" d="M 1984 4856 
Q 1566 4138 1362 3434 
Q 1159 2731 1159 2009 
Q 1159 1288 1364 580 
Q 1569 -128 1984 -844 
L 1484 -844 
Q 1016 -109 783 600 
Q 550 1309 550 2009 
Q 550 2706 781 3412 
Q 1013 4119 1484 4856 
L 1984 4856 
z
" transform="scale(0.015625)"/>
       <path id="DejaVuSans-41" d="M 2188 4044 
L 1331 1722 
L 3047 1722 
L 2188 4044 
z
M 1831 4666 
L 2547 4666 
L 4325 0 
L 3669 0 
L 3244 1197 
L 1141 1197 
L 716 0 
L 50 0 
L 1831 4666 
z
" transform="scale(0.015625)"/>
       <path id="DejaVuSans-55" d="M 556 4666 
L 1191 4666 
L 1191 1831 
Q 1191 1081 1462 751 
Q 1734 422 2344 422 
Q 2950 422 3222 751 
Q 3494 1081 3494 1831 
L 3494 4666 
L 4128 4666 
L 4128 1753 
Q 4128 841 3676 375 
Q 3225 -91 2344 -91 
Q 1459 -91 1007 375 
Q 556 841 556 1753 
L 556 4666 
z
" transform="scale(0.015625)"/>
       <path id="DejaVuSans-3d" d="M 678 2906 
L 4684 2906 
L 4684 2381 
L 678 2381 
L 678 2906 
z
M 678 1631 
L 4684 1631 
L 4684 1100 
L 678 1100 
L 678 1631 
z
" transform="scale(0.015625)"/>
       <path id="DejaVuSans-39" d="M 703 97 
L 703 672 
Q 941 559 1184 500 
Q 1428 441 1663 441 
Q 2288 441 2617 861 
Q 2947 1281 2994 2138 
Q 2813 1869 2534 1725 
Q 2256 1581 1919 1581 
Q 1219 1581 811 2004 
Q 403 2428 403 3163 
Q 403 3881 828 4315 
Q 1253 4750 1959 4750 
Q 2769 4750 3195 4129 
Q 3622 3509 3622 2328 
Q 3622 1225 3098 567 
Q 2575 -91 1691 -91 
Q 1453 -91 1209 -44 
Q 966 3 703 97 
z
M 1959 2075 
Q 2384 2075 2632 2365 
Q 2881 2656 2881 3163 
Q 2881 3666 2632 3958 
Q 2384 4250 1959 4250 
Q 1534 4250 1286 3958 
Q 1038 3666 1038 3163 
Q 1038 2656 1286 2365 
Q 1534 2075 1959 2075 
z
" transform="scale(0.015625)"/>
       <path id="DejaVuSans-35" d="M 691 4666 
L 3169 4666 
L 3169 4134 
L 1269 4134 
L 1269 2991 
Q 1406 3038 1543 3061 
Q 1681 3084 1819 3084 
Q 2600 3084 3056 2656 
Q 3513 2228 3513 1497 
Q 3513 744 3044 326 
Q 2575 -91 1722 -91 
Q 1428 -91 1123 -41 
Q 819 9 494 109 
L 494 744 
Q 775 591 1075 516 
Q 1375 441 1709 441 
Q 2250 441 2565 725 
Q 2881 1009 2881 1497 
Q 2881 1984 2565 2268 
Q 2250 2553 1709 2553 
Q 1456 2553 1204 2497 
Q 953 2441 691 2322 
L 691 4666 
z
" transform="scale(0.015625)"/>
       <path id="DejaVuSans-2c" d="M 750 794 
L 1409 794 
L 1409 256 
L 897 -744 
L 494 -744 
L 750 256 
L 750 794 
z
" transform="scale(0.015625)"/>
       <path id="DejaVuSans-33" d="M 2597 2516 
Q 3050 2419 3304 2112 
Q 3559 1806 3559 1356 
Q 3559 666 3084 287 
Q 2609 -91 1734 -91 
Q 1441 -91 1130 -33 
Q 819 25 488 141 
L 488 750 
Q 750 597 1062 519 
Q 1375 441 1716 441 
Q 2309 441 2620 675 
Q 2931 909 2931 1356 
Q 2931 1769 2642 2001 
Q 2353 2234 1838 2234 
L 1294 2234 
L 1294 2753 
L 1863 2753 
Q 2328 2753 2575 2939 
Q 2822 3125 2822 3475 
Q 2822 3834 2567 4026 
Q 2313 4219 1838 4219 
Q 1578 4219 1281 4162 
Q 984 4106 628 3988 
L 628 4550 
Q 988 4650 1302 4700 
Q 1616 4750 1894 4750 
Q 2613 4750 3031 4423 
Q 3450 4097 3450 3541 
Q 3450 3153 3228 2886 
Q 3006 2619 2597 2516 
z
" transform="scale(0.015625)"/>
       <path id="DejaVuSans-37" d="M 525 4666 
L 3525 4666 
L 3525 4397 
L 1831 0 
L 1172 0 
L 2766 4134 
L 525 4134 
L 525 4666 
z
" transform="scale(0.015625)"/>
       <path id="DejaVuSans-29" d="M 513 4856 
L 1013 4856 
Q 1481 4119 1714 3412 
Q 1947 2706 1947 2009 
Q 1947 1309 1714 600 
Q 1481 -109 1013 -844 
L 513 -844 
Q 928 -128 1133 580 
Q 1338 1288 1338 2009 
Q 1338 2731 1133 3434 
Q 928 4138 513 4856 
z
" transform="scale(0.015625)"/>
       <path id="DejaVuSans-74" d="M 1172 4494 
L 1172 3500 
L 2356 3500 
L 2356 3053 
L 1172 3053 
L 1172 1153 
Q 1172 725 1289 603 
Q 1406 481 1766 481 
L 2356 481 
L 2356 0 
L 1766 0 
Q 1100 0 847 248 
Q 594 497 594 1153 
L 594 3053 
L 172 3053 
L 172 3500 
L 594 3500 
L 594 4494 
L 1172 4494 
z
" transform="scale(0.015625)"/>
       <path id="DejaVuSans-70" d="M 1159 525 
L 1159 -1331 
L 581 -1331 
L 581 3500 
L 1159 3500 
L 1159 2969 
Q 1341 3281 1617 3432 
Q 1894 3584 2278 3584 
Q 2916 3584 3314 3078 
Q 3713 2572 3713 1747 
Q 3713 922 3314 415 
Q 2916 -91 2278 -91 
Q 1894 -91 1617 61 
Q 1341 213 1159 525 
z
M 3116 1747 
Q 3116 2381 2855 2742 
Q 2594 3103 2138 3103 
Q 1681 3103 1420 2742 
Q 1159 2381 1159 1747 
Q 1159 1113 1420 752 
Q 1681 391 2138 391 
Q 2594 391 2855 752 
Q 3116 1113 3116 1747 
z
" transform="scale(0.015625)"/>
       <path id="DejaVuSans-6b" d="M 581 4863 
L 1159 4863 
L 1159 1991 
L 2875 3500 
L 3609 3500 
L 1753 1863 
L 3688 0 
L 2938 0 
L 1159 1709 
L 1159 0 
L 581 0 
L 581 4863 
z
" transform="scale(0.015625)"/>
      </defs>
      <use xlink:href="#DejaVuSans-47"/>
      <use xlink:href="#DejaVuSans-54" transform="translate(73.865234 0)"/>
      <use xlink:href="#DejaVuSans-20" transform="translate(134.949219 0)"/>
      <use xlink:href="#DejaVuSans-28" transform="translate(166.736328 0)"/>
      <use xlink:href="#DejaVuSans-41" transform="translate(205.75 0)"/>
      <use xlink:href="#DejaVuSans-55" transform="translate(274.158203 0)"/>
      <use xlink:href="#DejaVuSans-50" transform="translate(347.351562 0)"/>
      <use xlink:href="#DejaVuSans-52" transform="translate(407.654297 0)"/>
      <use xlink:href="#DejaVuSans-43" transform="translate(472.136719 0)"/>
      <use xlink:href="#DejaVuSans-3d" transform="translate(541.960938 0)"/>
      <use xlink:href="#DejaVuSans-30" transform="translate(625.75 0)"/>
      <use xlink:href="#DejaVuSans-2e" transform="translate(689.373047 0)"/>
      <use xlink:href="#DejaVuSans-39" transform="translate(721.160156 0)"/>
      <use xlink:href="#DejaVuSans-35" transform="translate(784.783203 0)"/>
      <use xlink:href="#DejaVuSans-36" transform="translate(848.40625 0)"/>
      <use xlink:href="#DejaVuSans-2c" transform="translate(912.029297 0)"/>
      <use xlink:href="#DejaVuSans-20" transform="translate(943.816406 0)"/>
      <use xlink:href="#DejaVuSans-6e" transform="translate(975.603516 0)"/>
      <use xlink:href="#DejaVuSans-3d" transform="translate(1038.982422 0)"/>
      <use xlink:href="#DejaVuSans-33" transform="translate(1122.771484 0)"/>
      <use xlink:href="#DejaVuSans-38" transform="translate(1186.394531 0)"/>
      <use xlink:href="#DejaVuSans-30" transform="translate(1250.017578 0)"/>
      <use xlink:href="#DejaVuSans-37" transform="translate(1313.640625 0)"/>
      <use xlink:href="#DejaVuSans-29" transform="translate(1377.263672 0)"/>
      <use xlink:href="#DejaVuSans-2c" transform="translate(1416.277344 0)"/>
      <use xlink:href="#DejaVuSans-20" transform="translate(1448.064453 0)"/>
      <use xlink:href="#DejaVuSans-74" transform="translate(1479.851562 0)"/>
      <use xlink:href="#DejaVuSans-6f" transform="translate(1519.060547 0)"/>
      <use xlink:href="#DejaVuSans-70" transform="translate(1580.242188 0)"/>
      <use xlink:href="#DejaVuSans-6b" transform="translate(1643.71875 0)"/>
      <use xlink:href="#DejaVuSans-3d" transform="translate(1701.628906 0)"/>
      <use xlink:href="#DejaVuSans-30" transform="translate(1785.417969 0)"/>
      <use xlink:href="#DejaVuSans-2e" transform="translate(1849.041016 0)"/>
      <use xlink:href="#DejaVuSans-39" transform="translate(1880.828125 0)"/>
      <use xlink:href="#DejaVuSans-34" transform="translate(1944.451172 0)"/>
      <use xlink:href="#DejaVuSans-37" transform="translate(2008.074219 0)"/>
      <use xlink:href="#DejaVuSans-29" transform="translate(2071.697266 0)"/>
     </g>
    </g>
    <g id="line2d_36">
     <path d="M 603.2345 54.656563 
L 613.2345 54.656563 
L 623.2345 54.656563 
" style="fill: none; stroke: #ff7f0e; stroke-width: 1.5; stroke-linecap: square"/>
    </g>
    <g id="text_17">
     <!-- TT (AUPRC=0.429, n=60), topk=0.448) -->
     <g transform="translate(631.2345 58.156563) scale(0.1 -0.1)">
      <use xlink:href="#DejaVuSans-54"/>
      <use xlink:href="#DejaVuSans-54" transform="translate(59.333984 0)"/>
      <use xlink:href="#DejaVuSans-20" transform="translate(120.417969 0)"/>
      <use xlink:href="#DejaVuSans-28" transform="translate(152.205078 0)"/>
      <use xlink:href="#DejaVuSans-41" transform="translate(191.21875 0)"/>
      <use xlink:href="#DejaVuSans-55" transform="translate(259.626953 0)"/>
      <use xlink:href="#DejaVuSans-50" transform="translate(332.820312 0)"/>
      <use xlink:href="#DejaVuSans-52" transform="translate(393.123047 0)"/>
      <use xlink:href="#DejaVuSans-43" transform="translate(457.605469 0)"/>
      <use xlink:href="#DejaVuSans-3d" transform="translate(527.429688 0)"/>
      <use xlink:href="#DejaVuSans-30" transform="translate(611.21875 0)"/>
      <use xlink:href="#DejaVuSans-2e" transform="translate(674.841797 0)"/>
      <use xlink:href="#DejaVuSans-34" transform="translate(706.628906 0)"/>
      <use xlink:href="#DejaVuSans-32" transform="translate(770.251953 0)"/>
      <use xlink:href="#DejaVuSans-39" transform="translate(833.875 0)"/>
      <use xlink:href="#DejaVuSans-2c" transform="translate(897.498047 0)"/>
      <use xlink:href="#DejaVuSans-20" transform="translate(929.285156 0)"/>
      <use xlink:href="#DejaVuSans-6e" transform="translate(961.072266 0)"/>
      <use xlink:href="#DejaVuSans-3d" transform="translate(1024.451172 0)"/>
      <use xlink:href="#DejaVuSans-36" transform="translate(1108.240234 0)"/>
      <use xlink:href="#DejaVuSans-30" transform="translate(1171.863281 0)"/>
      <use xlink:href="#DejaVuSans-29" transform="translate(1235.486328 0)"/>
      <use xlink:href="#DejaVuSans-2c" transform="translate(1274.5 0)"/>
      <use xlink:href="#DejaVuSans-20" transform="translate(1306.287109 0)"/>
      <use xlink:href="#DejaVuSans-74" transform="translate(1338.074219 0)"/>
      <use xlink:href="#DejaVuSans-6f" transform="translate(1377.283203 0)"/>
      <use xlink:href="#DejaVuSans-70" transform="translate(1438.464844 0)"/>
      <use xlink:href="#DejaVuSans-6b" transform="translate(1501.941406 0)"/>
      <use xlink:href="#DejaVuSans-3d" transform="translate(1559.851562 0)"/>
      <use xlink:href="#DejaVuSans-30" transform="translate(1643.640625 0)"/>
      <use xlink:href="#DejaVuSans-2e" transform="translate(1707.263672 0)"/>
      <use xlink:href="#DejaVuSans-34" transform="translate(1739.050781 0)"/>
      <use xlink:href="#DejaVuSans-34" transform="translate(1802.673828 0)"/>
      <use xlink:href="#DejaVuSans-38" transform="translate(1866.296875 0)"/>
      <use xlink:href="#DejaVuSans-29" transform="translate(1929.919922 0)"/>
     </g>
    </g>
    <g id="line2d_37">
     <path d="M 603.2345 69.334688 
L 613.2345 69.334688 
L 623.2345 69.334688 
" style="fill: none; stroke: #2ca02c; stroke-width: 1.5; stroke-linecap: square"/>
    </g>
    <g id="text_18">
     <!-- CT (AUPRC=0.512, n=45), topk=0.517) -->
     <g transform="translate(631.2345 72.834688) scale(0.1 -0.1)">
      <use xlink:href="#DejaVuSans-43"/>
      <use xlink:href="#DejaVuSans-54" transform="translate(69.824219 0)"/>
      <use xlink:href="#DejaVuSans-20" transform="translate(130.908203 0)"/>
      <use xlink:href="#DejaVuSans-28" transform="translate(162.695312 0)"/>
      <use xlink:href="#DejaVuSans-41" transform="translate(201.708984 0)"/>
      <use xlink:href="#DejaVuSans-55" transform="translate(270.117188 0)"/>
      <use xlink:href="#DejaVuSans-50" transform="translate(343.310547 0)"/>
      <use xlink:href="#DejaVuSans-52" transform="translate(403.613281 0)"/>
      <use xlink:href="#DejaVuSans-43" transform="translate(468.095703 0)"/>
      <use xlink:href="#DejaVuSans-3d" transform="translate(537.919922 0)"/>
      <use xlink:href="#DejaVuSans-30" transform="translate(621.708984 0)"/>
      <use xlink:href="#DejaVuSans-2e" transform="translate(685.332031 0)"/>
      <use xlink:href="#DejaVuSans-35" transform="translate(717.119141 0)"/>
      <use xlink:href="#DejaVuSans-31" transform="translate(780.742188 0)"/>
      <use xlink:href="#DejaVuSans-32" transform="translate(844.365234 0)"/>
      <use xlink:href="#DejaVuSans-2c" transform="translate(907.988281 0)"/>
      <use xlink:href="#DejaVuSans-20" transform="translate(939.775391 0)"/>
      <use xlink:href="#DejaVuSans-6e" transform="translate(971.5625 0)"/>
      <use xlink:href="#DejaVuSans-3d" transform="translate(1034.941406 0)"/>
      <use xlink:href="#DejaVuSans-34" transform="translate(1118.730469 0)"/>
      <use xlink:href="#DejaVuSans-35" transform="translate(1182.353516 0)"/>
      <use xlink:href="#DejaVuSans-29" transform="translate(1245.976562 0)"/>
      <use xlink:href="#DejaVuSans-2c" transform="translate(1284.990234 0)"/>
      <use xlink:href="#DejaVuSans-20" transform="translate(1316.777344 0)"/>
      <use xlink:href="#DejaVuSans-74" transform="translate(1348.564453 0)"/>
      <use xlink:href="#DejaVuSans-6f" transform="translate(1387.773438 0)"/>
      <use xlink:href="#DejaVuSans-70" transform="translate(1448.955078 0)"/>
      <use xlink:href="#DejaVuSans-6b" transform="translate(1512.431641 0)"/>
      <use xlink:href="#DejaVuSans-3d" transform="translate(1570.341797 0)"/>
      <use xlink:href="#DejaVuSans-30" transform="translate(1654.130859 0)"/>
      <use xlink:href="#DejaVuSans-2e" transform="translate(1717.753906 0)"/>
      <use xlink:href="#DejaVuSans-35" transform="translate(1749.541016 0)"/>
      <use xlink:href="#DejaVuSans-31" transform="translate(1813.164062 0)"/>
      <use xlink:href="#DejaVuSans-37" transform="translate(1876.787109 0)"/>
      <use xlink:href="#DejaVuSans-29" transform="translate(1940.410156 0)"/>
     </g>
    </g>
    <g id="line2d_38">
     <path d="M 603.2345 84.012813 
L 613.2345 84.012813 
L 623.2345 84.012813 
" style="fill: none; stroke: #d62728; stroke-width: 1.5; stroke-linecap: square"/>
    </g>
    <g id="text_19">
     <!-- TG (AUPRC=0.472, n=40), topk=0.470) -->
     <g transform="translate(631.2345 87.512813) scale(0.1 -0.1)">
      <use xlink:href="#DejaVuSans-54"/>
      <use xlink:href="#DejaVuSans-47" transform="translate(61.083984 0)"/>
      <use xlink:href="#DejaVuSans-20" transform="translate(138.574219 0)"/>
      <use xlink:href="#DejaVuSans-28" transform="translate(170.361328 0)"/>
      <use xlink:href="#DejaVuSans-41" transform="translate(209.375 0)"/>
      <use xlink:href="#DejaVuSans-55" transform="translate(277.783203 0)"/>
      <use xlink:href="#DejaVuSans-50" transform="translate(350.976562 0)"/>
      <use xlink:href="#DejaVuSans-52" transform="translate(411.279297 0)"/>
      <use xlink:href="#DejaVuSans-43" transform="translate(475.761719 0)"/>
      <use xlink:href="#DejaVuSans-3d" transform="translate(545.585938 0)"/>
      <use xlink:href="#DejaVuSans-30" transform="translate(629.375 0)"/>
      <use xlink:href="#DejaVuSans-2e" transform="translate(692.998047 0)"/>
      <use xlink:href="#DejaVuSans-34" transform="translate(724.785156 0)"/>
      <use xlink:href="#DejaVuSans-37" transform="translate(788.408203 0)"/>
      <use xlink:href="#DejaVuSans-32" transform="translate(852.03125 0)"/>
      <use xlink:href="#DejaVuSans-2c" transform="translate(915.654297 0)"/>
      <use xlink:href="#DejaVuSans-20" transform="translate(947.441406 0)"/>
      <use xlink:href="#DejaVuSans-6e" transform="translate(979.228516 0)"/>
      <use xlink:href="#DejaVuSans-3d" transform="translate(1042.607422 0)"/>
      <use xlink:href="#DejaVuSans-34" transform="translate(1126.396484 0)"/>
      <use xlink:href="#DejaVuSans-30" transform="translate(1190.019531 0)"/>
      <use xlink:href="#DejaVuSans-29" transform="translate(1253.642578 0)"/>
      <use xlink:href="#DejaVuSans-2c" transform="translate(1292.65625 0)"/>
      <use xlink:href="#DejaVuSans-20" transform="translate(1324.443359 0)"/>
      <use xlink:href="#DejaVuSans-74" transform="translate(1356.230469 0)"/>
      <use xlink:href="#DejaVuSans-6f" transform="translate(1395.439453 0)"/>
      <use xlink:href="#DejaVuSans-70" transform="translate(1456.621094 0)"/>
      <use xlink:href="#DejaVuSans-6b" transform="translate(1520.097656 0)"/>
      <use xlink:href="#DejaVuSans-3d" transform="translate(1578.007812 0)"/>
      <use xlink:href="#DejaVuSans-30" transform="translate(1661.796875 0)"/>
      <use xlink:href="#DejaVuSans-2e" transform="translate(1725.419922 0)"/>
      <use xlink:href="#DejaVuSans-34" transform="translate(1757.207031 0)"/>
      <use xlink:href="#DejaVuSans-37" transform="translate(1820.830078 0)"/>
      <use xlink:href="#DejaVuSans-30" transform="translate(1884.453125 0)"/>
      <use xlink:href="#DejaVuSans-29" transform="translate(1948.076172 0)"/>
     </g>
    </g>
    <g id="line2d_39">
     <path d="M 603.2345 98.690938 
L 613.2345 98.690938 
L 623.2345 98.690938 
" style="fill: none; stroke: #9467bd; stroke-width: 1.5; stroke-linecap: square"/>
    </g>
    <g id="text_20">
     <!-- GC (AUPRC=0.687, n=37), topk=0.679) -->
     <g transform="translate(631.2345 102.190938) scale(0.1 -0.1)">
      <use xlink:href="#DejaVuSans-47"/>
      <use xlink:href="#DejaVuSans-43" transform="translate(77.490234 0)"/>
      <use xlink:href="#DejaVuSans-20" transform="translate(147.314453 0)"/>
      <use xlink:href="#DejaVuSans-28" transform="translate(179.101562 0)"/>
      <use xlink:href="#DejaVuSans-41" transform="translate(218.115234 0)"/>
      <use xlink:href="#DejaVuSans-55" transform="translate(286.523438 0)"/>
      <use xlink:href="#DejaVuSans-50" transform="translate(359.716797 0)"/>
      <use xlink:href="#DejaVuSans-52" transform="translate(420.019531 0)"/>
      <use xlink:href="#DejaVuSans-43" transform="translate(484.501953 0)"/>
      <use xlink:href="#DejaVuSans-3d" transform="translate(554.326172 0)"/>
      <use xlink:href="#DejaVuSans-30" transform="translate(638.115234 0)"/>
      <use xlink:href="#DejaVuSans-2e" transform="translate(701.738281 0)"/>
      <use xlink:href="#DejaVuSans-36" transform="translate(733.525391 0)"/>
      <use xlink:href="#DejaVuSans-38" transform="translate(797.148438 0)"/>
      <use xlink:href="#DejaVuSans-37" transform="translate(860.771484 0)"/>
      <use xlink:href="#DejaVuSans-2c" transform="translate(924.394531 0)"/>
      <use xlink:href="#DejaVuSans-20" transform="translate(956.181641 0)"/>
      <use xlink:href="#DejaVuSans-6e" transform="translate(987.96875 0)"/>
      <use xlink:href="#DejaVuSans-3d" transform="translate(1051.347656 0)"/>
      <use xlink:href="#DejaVuSans-33" transform="translate(1135.136719 0)"/>
      <use xlink:href="#DejaVuSans-37" transform="translate(1198.759766 0)"/>
      <use xlink:href="#DejaVuSans-29" transform="translate(1262.382812 0)"/>
      <use xlink:href="#DejaVuSans-2c" transform="translate(1301.396484 0)"/>
      <use xlink:href="#DejaVuSans-20" transform="translate(1333.183594 0)"/>
      <use xlink:href="#DejaVuSans-74" transform="translate(1364.970703 0)"/>
      <use xlink:href="#DejaVuSans-6f" transform="translate(1404.179688 0)"/>
      <use xlink:href="#DejaVuSans-70" transform="translate(1465.361328 0)"/>
      <use xlink:href="#DejaVuSans-6b" transform="translate(1528.837891 0)"/>
      <use xlink:href="#DejaVuSans-3d" transform="translate(1586.748047 0)"/>
      <use xlink:href="#DejaVuSans-30" transform="translate(1670.537109 0)"/>
      <use xlink:href="#DejaVuSans-2e" transform="translate(1734.160156 0)"/>
      <use xlink:href="#DejaVuSans-36" transform="translate(1765.947266 0)"/>
      <use xlink:href="#DejaVuSans-37" transform="translate(1829.570312 0)"/>
      <use xlink:href="#DejaVuSans-39" transform="translate(1893.193359 0)"/>
      <use xlink:href="#DejaVuSans-29" transform="translate(1956.816406 0)"/>
     </g>
    </g>
    <g id="line2d_40">
     <path d="M 603.2345 113.369063 
L 613.2345 113.369063 
L 623.2345 113.369063 
" style="fill: none; stroke: #8c564b; stroke-width: 1.5; stroke-linecap: square"/>
    </g>
    <g id="text_21">
     <!-- TC (AUPRC=0.393, n=24), topk=0.391) -->
     <g transform="translate(631.2345 116.869063) scale(0.1 -0.1)">
      <use xlink:href="#DejaVuSans-54"/>
      <use xlink:href="#DejaVuSans-43" transform="translate(55.208984 0)"/>
      <use xlink:href="#DejaVuSans-20" transform="translate(125.033203 0)"/>
      <use xlink:href="#DejaVuSans-28" transform="translate(156.820312 0)"/>
      <use xlink:href="#DejaVuSans-41" transform="translate(195.833984 0)"/>
      <use xlink:href="#DejaVuSans-55" transform="translate(264.242188 0)"/>
      <use xlink:href="#DejaVuSans-50" transform="translate(337.435547 0)"/>
      <use xlink:href="#DejaVuSans-52" transform="translate(397.738281 0)"/>
      <use xlink:href="#DejaVuSans-43" transform="translate(462.220703 0)"/>
      <use xlink:href="#DejaVuSans-3d" transform="translate(532.044922 0)"/>
      <use xlink:href="#DejaVuSans-30" transform="translate(615.833984 0)"/>
      <use xlink:href="#DejaVuSans-2e" transform="translate(679.457031 0)"/>
      <use xlink:href="#DejaVuSans-33" transform="translate(711.244141 0)"/>
      <use xlink:href="#DejaVuSans-39" transform="translate(774.867188 0)"/>
      <use xlink:href="#DejaVuSans-33" transform="translate(838.490234 0)"/>
      <use xlink:href="#DejaVuSans-2c" transform="translate(902.113281 0)"/>
      <use xlink:href="#DejaVuSans-20" transform="translate(933.900391 0)"/>
      <use xlink:href="#DejaVuSans-6e" transform="translate(965.6875 0)"/>
      <use xlink:href="#DejaVuSans-3d" transform="translate(1029.066406 0)"/>
      <use xlink:href="#DejaVuSans-32" transform="translate(1112.855469 0)"/>
      <use xlink:href="#DejaVuSans-34" transform="translate(1176.478516 0)"/>
      <use xlink:href="#DejaVuSans-29" transform="translate(1240.101562 0)"/>
      <use xlink:href="#DejaVuSans-2c" transform="translate(1279.115234 0)"/>
      <use xlink:href="#DejaVuSans-20" transform="translate(1310.902344 0)"/>
      <use xlink:href="#DejaVuSans-74" transform="translate(1342.689453 0)"/>
      <use xlink:href="#DejaVuSans-6f" transform="translate(1381.898438 0)"/>
      <use xlink:href="#DejaVuSans-70" transform="translate(1443.080078 0)"/>
      <use xlink:href="#DejaVuSans-6b" transform="translate(1506.556641 0)"/>
      <use xlink:href="#DejaVuSans-3d" transform="translate(1564.466797 0)"/>
      <use xlink:href="#DejaVuSans-30" transform="translate(1648.255859 0)"/>
      <use xlink:href="#DejaVuSans-2e" transform="translate(1711.878906 0)"/>
      <use xlink:href="#DejaVuSans-33" transform="translate(1743.666016 0)"/>
      <use xlink:href="#DejaVuSans-39" transform="translate(1807.289062 0)"/>
      <use xlink:href="#DejaVuSans-31" transform="translate(1870.912109 0)"/>
      <use xlink:href="#DejaVuSans-29" transform="translate(1934.535156 0)"/>
     </g>
    </g>
    <g id="line2d_41">
     <path d="M 603.2345 128.047188 
L 613.2345 128.047188 
L 623.2345 128.047188 
" style="fill: none; stroke: #e377c2; stroke-width: 1.5; stroke-linecap: square"/>
    </g>
    <g id="text_22">
     <!-- CA (AUPRC=0.432, n=23), topk=0.439) -->
     <g transform="translate(631.2345 131.547188) scale(0.1 -0.1)">
      <use xlink:href="#DejaVuSans-43"/>
      <use xlink:href="#DejaVuSans-41" transform="translate(69.824219 0)"/>
      <use xlink:href="#DejaVuSans-20" transform="translate(138.232422 0)"/>
      <use xlink:href="#DejaVuSans-28" transform="translate(170.019531 0)"/>
      <use xlink:href="#DejaVuSans-41" transform="translate(209.033203 0)"/>
      <use xlink:href="#DejaVuSans-55" transform="translate(277.441406 0)"/>
      <use xlink:href="#DejaVuSans-50" transform="translate(350.634766 0)"/>
      <use xlink:href="#DejaVuSans-52" transform="translate(410.9375 0)"/>
      <use xlink:href="#DejaVuSans-43" transform="translate(475.419922 0)"/>
      <use xlink:href="#DejaVuSans-3d" transform="translate(545.244141 0)"/>
      <use xlink:href="#DejaVuSans-30" transform="translate(629.033203 0)"/>
      <use xlink:href="#DejaVuSans-2e" transform="translate(692.65625 0)"/>
      <use xlink:href="#DejaVuSans-34" transform="translate(724.443359 0)"/>
      <use xlink:href="#DejaVuSans-33" transform="translate(788.066406 0)"/>
      <use xlink:href="#DejaVuSans-32" transform="translate(851.689453 0)"/>
      <use xlink:href="#DejaVuSans-2c" transform="translate(915.3125 0)"/>
      <use xlink:href="#DejaVuSans-20" transform="translate(947.099609 0)"/>
      <use xlink:href="#DejaVuSans-6e" transform="translate(978.886719 0)"/>
      <use xlink:href="#DejaVuSans-3d" transform="translate(1042.265625 0)"/>
      <use xlink:href="#DejaVuSans-32" transform="translate(1126.054688 0)"/>
      <use xlink:href="#DejaVuSans-33" transform="translate(1189.677734 0)"/>
      <use xlink:href="#DejaVuSans-29" transform="translate(1253.300781 0)"/>
      <use xlink:href="#DejaVuSans-2c" transform="translate(1292.314453 0)"/>
      <use xlink:href="#DejaVuSans-20" transform="translate(1324.101562 0)"/>
      <use xlink:href="#DejaVuSans-74" transform="translate(1355.888672 0)"/>
      <use xlink:href="#DejaVuSans-6f" transform="translate(1395.097656 0)"/>
      <use xlink:href="#DejaVuSans-70" transform="translate(1456.279297 0)"/>
      <use xlink:href="#DejaVuSans-6b" transform="translate(1519.755859 0)"/>
      <use xlink:href="#DejaVuSans-3d" transform="translate(1577.666016 0)"/>
      <use xlink:href="#DejaVuSans-30" transform="translate(1661.455078 0)"/>
      <use xlink:href="#DejaVuSans-2e" transform="translate(1725.078125 0)"/>
      <use xlink:href="#DejaVuSans-34" transform="translate(1756.865234 0)"/>
      <use xlink:href="#DejaVuSans-33" transform="translate(1820.488281 0)"/>
      <use xlink:href="#DejaVuSans-39" transform="translate(1884.111328 0)"/>
      <use xlink:href="#DejaVuSans-29" transform="translate(1947.734375 0)"/>
     </g>
    </g>
    <g id="line2d_42">
     <path d="M 603.2345 142.725313 
L 613.2345 142.725313 
L 623.2345 142.725313 
" style="fill: none; stroke: #7f7f7f; stroke-width: 1.5; stroke-linecap: square"/>
    </g>
    <g id="text_23">
     <!-- GG (AUPRC=0.569, n=20), topk=0.576) -->
     <g transform="translate(631.2345 146.225313) scale(0.1 -0.1)">
      <use xlink:href="#DejaVuSans-47"/>
      <use xlink:href="#DejaVuSans-47" transform="translate(77.490234 0)"/>
      <use xlink:href="#DejaVuSans-20" transform="translate(154.980469 0)"/>
      <use xlink:href="#DejaVuSans-28" transform="translate(186.767578 0)"/>
      <use xlink:href="#DejaVuSans-41" transform="translate(225.78125 0)"/>
      <use xlink:href="#DejaVuSans-55" transform="translate(294.189453 0)"/>
      <use xlink:href="#DejaVuSans-50" transform="translate(367.382812 0)"/>
      <use xlink:href="#DejaVuSans-52" transform="translate(427.685547 0)"/>
      <use xlink:href="#DejaVuSans-43" transform="translate(492.167969 0)"/>
      <use xlink:href="#DejaVuSans-3d" transform="translate(561.992188 0)"/>
      <use xlink:href="#DejaVuSans-30" transform="translate(645.78125 0)"/>
      <use xlink:href="#DejaVuSans-2e" transform="translate(709.404297 0)"/>
      <use xlink:href="#DejaVuSans-35" transform="translate(741.191406 0)"/>
      <use xlink:href="#DejaVuSans-36" transform="translate(804.814453 0)"/>
      <use xlink:href="#DejaVuSans-39" transform="translate(868.4375 0)"/>
      <use xlink:href="#DejaVuSans-2c" transform="translate(932.060547 0)"/>
      <use xlink:href="#DejaVuSans-20" transform="translate(963.847656 0)"/>
      <use xlink:href="#DejaVuSans-6e" transform="translate(995.634766 0)"/>
      <use xlink:href="#DejaVuSans-3d" transform="translate(1059.013672 0)"/>
      <use xlink:href="#DejaVuSans-32" transform="translate(1142.802734 0)"/>
      <use xlink:href="#DejaVuSans-30" transform="translate(1206.425781 0)"/>
      <use xlink:href="#DejaVuSans-29" transform="translate(1270.048828 0)"/>
      <use xlink:href="#DejaVuSans-2c" transform="translate(1309.0625 0)"/>
      <use xlink:href="#DejaVuSans-20" transform="translate(1340.849609 0)"/>
      <use xlink:href="#DejaVuSans-74" transform="translate(1372.636719 0)"/>
      <use xlink:href="#DejaVuSans-6f" transform="translate(1411.845703 0)"/>
      <use xlink:href="#DejaVuSans-70" transform="translate(1473.027344 0)"/>
      <use xlink:href="#DejaVuSans-6b" transform="translate(1536.503906 0)"/>
      <use xlink:href="#DejaVuSans-3d" transform="translate(1594.414062 0)"/>
      <use xlink:href="#DejaVuSans-30" transform="translate(1678.203125 0)"/>
      <use xlink:href="#DejaVuSans-2e" transform="translate(1741.826172 0)"/>
      <use xlink:href="#DejaVuSans-35" transform="translate(1773.613281 0)"/>
      <use xlink:href="#DejaVuSans-37" transform="translate(1837.236328 0)"/>
      <use xlink:href="#DejaVuSans-36" transform="translate(1900.859375 0)"/>
      <use xlink:href="#DejaVuSans-29" transform="translate(1964.482422 0)"/>
     </g>
    </g>
    <g id="line2d_43">
     <path d="M 603.2345 157.403438 
L 613.2345 157.403438 
L 623.2345 157.403438 
" style="fill: none; stroke: #bcbd22; stroke-width: 1.5; stroke-linecap: square"/>
    </g>
    <g id="text_24">
     <!-- CC (AUPRC=0.532, n=19), topk=0.534) -->
     <g transform="translate(631.2345 160.903438) scale(0.1 -0.1)">
      <use xlink:href="#DejaVuSans-43"/>
      <use xlink:href="#DejaVuSans-43" transform="translate(69.824219 0)"/>
      <use xlink:href="#DejaVuSans-20" transform="translate(139.648438 0)"/>
      <use xlink:href="#DejaVuSans-28" transform="translate(171.435547 0)"/>
      <use xlink:href="#DejaVuSans-41" transform="translate(210.449219 0)"/>
      <use xlink:href="#DejaVuSans-55" transform="translate(278.857422 0)"/>
      <use xlink:href="#DejaVuSans-50" transform="translate(352.050781 0)"/>
      <use xlink:href="#DejaVuSans-52" transform="translate(412.353516 0)"/>
      <use xlink:href="#DejaVuSans-43" transform="translate(476.835938 0)"/>
      <use xlink:href="#DejaVuSans-3d" transform="translate(546.660156 0)"/>
      <use xlink:href="#DejaVuSans-30" transform="translate(630.449219 0)"/>
      <use xlink:href="#DejaVuSans-2e" transform="translate(694.072266 0)"/>
      <use xlink:href="#DejaVuSans-35" transform="translate(725.859375 0)"/>
      <use xlink:href="#DejaVuSans-33" transform="translate(789.482422 0)"/>
      <use xlink:href="#DejaVuSans-32" transform="translate(853.105469 0)"/>
      <use xlink:href="#DejaVuSans-2c" transform="translate(916.728516 0)"/>
      <use xlink:href="#DejaVuSans-20" transform="translate(948.515625 0)"/>
      <use xlink:href="#DejaVuSans-6e" transform="translate(980.302734 0)"/>
      <use xlink:href="#DejaVuSans-3d" transform="translate(1043.681641 0)"/>
      <use xlink:href="#DejaVuSans-31" transform="translate(1127.470703 0)"/>
      <use xlink:href="#DejaVuSans-39" transform="translate(1191.09375 0)"/>
      <use xlink:href="#DejaVuSans-29" transform="translate(1254.716797 0)"/>
      <use xlink:href="#DejaVuSans-2c" transform="translate(1293.730469 0)"/>
      <use xlink:href="#DejaVuSans-20" transform="translate(1325.517578 0)"/>
      <use xlink:href="#DejaVuSans-74" transform="translate(1357.304688 0)"/>
      <use xlink:href="#DejaVuSans-6f" transform="translate(1396.513672 0)"/>
      <use xlink:href="#DejaVuSans-70" transform="translate(1457.695312 0)"/>
      <use xlink:href="#DejaVuSans-6b" transform="translate(1521.171875 0)"/>
      <use xlink:href="#DejaVuSans-3d" transform="translate(1579.082031 0)"/>
      <use xlink:href="#DejaVuSans-30" transform="translate(1662.871094 0)"/>
      <use xlink:href="#DejaVuSans-2e" transform="translate(1726.494141 0)"/>
      <use xlink:href="#DejaVuSans-35" transform="translate(1758.28125 0)"/>
      <use xlink:href="#DejaVuSans-33" transform="translate(1821.904297 0)"/>
      <use xlink:href="#DejaVuSans-34" transform="translate(1885.527344 0)"/>
      <use xlink:href="#DejaVuSans-29" transform="translate(1949.150391 0)"/>
     </g>
    </g>
    <g id="line2d_44">
     <path d="M 603.2345 172.081563 
L 613.2345 172.081563 
L 623.2345 172.081563 
" style="fill: none; stroke: #17becf; stroke-width: 1.5; stroke-linecap: square"/>
    </g>
    <g id="text_25">
     <!-- TA (AUPRC=0.442, n=17), topk=0.441) -->
     <g transform="translate(631.2345 175.581563) scale(0.1 -0.1)">
      <use xlink:href="#DejaVuSans-54"/>
      <use xlink:href="#DejaVuSans-41" transform="translate(53.333984 0)"/>
      <use xlink:href="#DejaVuSans-20" transform="translate(121.742188 0)"/>
      <use xlink:href="#DejaVuSans-28" transform="translate(153.529297 0)"/>
      <use xlink:href="#DejaVuSans-41" transform="translate(192.542969 0)"/>
      <use xlink:href="#DejaVuSans-55" transform="translate(260.951172 0)"/>
      <use xlink:href="#DejaVuSans-50" transform="translate(334.144531 0)"/>
      <use xlink:href="#DejaVuSans-52" transform="translate(394.447266 0)"/>
      <use xlink:href="#DejaVuSans-43" transform="translate(458.929688 0)"/>
      <use xlink:href="#DejaVuSans-3d" transform="translate(528.753906 0)"/>
      <use xlink:href="#DejaVuSans-30" transform="translate(612.542969 0)"/>
      <use xlink:href="#DejaVuSans-2e" transform="translate(676.166016 0)"/>
      <use xlink:href="#DejaVuSans-34" transform="translate(707.953125 0)"/>
      <use xlink:href="#DejaVuSans-34" transform="translate(771.576172 0)"/>
      <use xlink:href="#DejaVuSans-32" transform="translate(835.199219 0)"/>
      <use xlink:href="#DejaVuSans-2c" transform="translate(898.822266 0)"/>
      <use xlink:href="#DejaVuSans-20" transform="translate(930.609375 0)"/>
      <use xlink:href="#DejaVuSans-6e" transform="translate(962.396484 0)"/>
      <use xlink:href="#DejaVuSans-3d" transform="translate(1025.775391 0)"/>
      <use xlink:href="#DejaVuSans-31" transform="translate(1109.564453 0)"/>
      <use xlink:href="#DejaVuSans-37" transform="translate(1173.1875 0)"/>
      <use xlink:href="#DejaVuSans-29" transform="translate(1236.810547 0)"/>
      <use xlink:href="#DejaVuSans-2c" transform="translate(1275.824219 0)"/>
      <use xlink:href="#DejaVuSans-20" transform="translate(1307.611328 0)"/>
      <use xlink:href="#DejaVuSans-74" transform="translate(1339.398438 0)"/>
      <use xlink:href="#DejaVuSans-6f" transform="translate(1378.607422 0)"/>
      <use xlink:href="#DejaVuSans-70" transform="translate(1439.789062 0)"/>
      <use xlink:href="#DejaVuSans-6b" transform="translate(1503.265625 0)"/>
      <use xlink:href="#DejaVuSans-3d" transform="translate(1561.175781 0)"/>
      <use xlink:href="#DejaVuSans-30" transform="translate(1644.964844 0)"/>
      <use xlink:href="#DejaVuSans-2e" transform="translate(1708.587891 0)"/>
      <use xlink:href="#DejaVuSans-34" transform="translate(1740.375 0)"/>
      <use xlink:href="#DejaVuSans-34" transform="translate(1803.998047 0)"/>
      <use xlink:href="#DejaVuSans-31" transform="translate(1867.621094 0)"/>
      <use xlink:href="#DejaVuSans-29" transform="translate(1931.244141 0)"/>
     </g>
    </g>
   </g>
  </g>
 </g>
 <defs>
  <clipPath id="p1323de24a9">
   <rect x="47.72" y="26.88" width="520.49" height="507.16"/>
  </clipPath>
 </defs>
</svg>
