<?xml version="1.0" encoding="utf-8" standalone="no"?>
<!DOCTYPE svg PUBLIC "-//W3C//DTD SVG 1.1//EN"
  "http://www.w3.org/Graphics/SVG/1.1/DTD/svg11.dtd">
<svg xmlns:xlink="http://www.w3.org/1999/xlink" width="720pt" height="432pt" viewBox="0 0 720 432" xmlns="http://www.w3.org/2000/svg" version="1.1">
 <metadata>
  <rdf:RDF xmlns:dc="http://purl.org/dc/elements/1.1/" xmlns:cc="http://creativecommons.org/ns#" xmlns:rdf="http://www.w3.org/1999/02/22-rdf-syntax-ns#">
   <cc:Work>
    <dc:type rdf:resource="http://purl.org/dc/dcmitype/StillImage"/>
    <dc:date>2025-04-21T11:23:11.475390</dc:date>
    <dc:format>image/svg+xml</dc:format>
    <dc:creator>
     <cc:Agent>
      <dc:title>Matplotlib v3.10.1, https://matplotlib.org/</dc:title>
     </cc:Agent>
    </dc:creator>
   </cc:Work>
  </rdf:RDF>
 </metadata>
 <defs>
  <style type="text/css">*{stroke-linejoin: round; stroke-linecap: butt}</style>
 </defs>
 <g id="figure_1">
  <g id="patch_1">
   <path d="M 0 432 
L 720 432 
L 720 0 
L 0 0 
z
" style="fill: #ffffff"/>
  </g>
  <g id="axes_1">
   <g id="patch_2">
    <path d="M 90 384.48 
L 648 384.48 
L 648 51.84 
L 90 51.84 
z
" style="fill: #ffffff"/>
   </g>
   <g id="matplotlib.axis_1">
    <g id="xtick_1">
     <g id="line2d_1">
      <path d="M 115.363636 384.48 
L 115.363636 51.84 
" clip-path="url(#p9986c9c117)" style="fill: none; stroke: #b0b0b0; stroke-width: 0.8; stroke-linecap: square"/>
     </g>
     <g id="line2d_2">
      <defs>
       <path id="m50ef9127f3" d="M 0 0 
L 0 3.5 
" style="stroke: #000000; stroke-width: 0.8"/>
      </defs>
      <g>
       <use xlink:href="#m50ef9127f3" x="115.363636" y="384.48" style="stroke: #000000; stroke-width: 0.8"/>
      </g>
     </g>
     <g id="text_1">
      <!-- 0.0 -->
      <g transform="translate(107.412074 399.078438) scale(0.1 -0.1)">
       <defs>
        <path id="DejaVuSans-30" d="M 2034 4250 
Q 1547 4250 1301 3770 
Q 1056 3291 1056 2328 
Q 1056 1369 1301 889 
Q 1547 409 2034 409 
Q 2525 409 2770 889 
Q 3016 1369 3016 2328 
Q 3016 3291 2770 3770 
Q 2525 4250 2034 4250 
z
M 2034 4750 
Q 2819 4750 3233 4129 
Q 3647 3509 3647 2328 
Q 3647 1150 3233 529 
Q 2819 -91 2034 -91 
Q 1250 -91 836 529 
Q 422 1150 422 2328 
Q 422 3509 836 4129 
Q 1250 4750 2034 4750 
z
" transform="scale(0.015625)"/>
        <path id="DejaVuSans-2e" d="M 684 794 
L 1344 794 
L 1344 0 
L 684 0 
L 684 794 
z
" transform="scale(0.015625)"/>
       </defs>
       <use xlink:href="#DejaVuSans-30"/>
       <use xlink:href="#DejaVuSans-2e" transform="translate(63.623047 0)"/>
       <use xlink:href="#DejaVuSans-30" transform="translate(95.410156 0)"/>
      </g>
     </g>
    </g>
    <g id="xtick_2">
     <g id="line2d_3">
      <path d="M 216.818182 384.48 
L 216.818182 51.84 
" clip-path="url(#p9986c9c117)" style="fill: none; stroke: #b0b0b0; stroke-width: 0.8; stroke-linecap: square"/>
     </g>
     <g id="line2d_4">
      <g>
       <use xlink:href="#m50ef9127f3" x="216.818182" y="384.48" style="stroke: #000000; stroke-width: 0.8"/>
      </g>
     </g>
     <g id="text_2">
      <!-- 0.2 -->
      <g transform="translate(208.866619 399.078438) scale(0.1 -0.1)">
       <defs>
        <path id="DejaVuSans-32" d="M 1228 531 
L 3431 531 
L 3431 0 
L 469 0 
L 469 531 
Q 828 903 1448 1529 
Q 2069 2156 2228 2338 
Q 2531 2678 2651 2914 
Q 2772 3150 2772 3378 
Q 2772 3750 2511 3984 
Q 2250 4219 1831 4219 
Q 1534 4219 1204 4116 
Q 875 4013 500 3803 
L 500 4441 
Q 881 4594 1212 4672 
Q 1544 4750 1819 4750 
Q 2544 4750 2975 4387 
Q 3406 4025 3406 3419 
Q 3406 3131 3298 2873 
Q 3191 2616 2906 2266 
Q 2828 2175 2409 1742 
Q 1991 1309 1228 531 
z
" transform="scale(0.015625)"/>
       </defs>
       <use xlink:href="#DejaVuSans-30"/>
       <use xlink:href="#DejaVuSans-2e" transform="translate(63.623047 0)"/>
       <use xlink:href="#DejaVuSans-32" transform="translate(95.410156 0)"/>
      </g>
     </g>
    </g>
    <g id="xtick_3">
     <g id="line2d_5">
      <path d="M 318.272727 384.48 
L 318.272727 51.84 
" clip-path="url(#p9986c9c117)" style="fill: none; stroke: #b0b0b0; stroke-width: 0.8; stroke-linecap: square"/>
     </g>
     <g id="line2d_6">
      <g>
       <use xlink:href="#m50ef9127f3" x="318.272727" y="384.48" style="stroke: #000000; stroke-width: 0.8"/>
      </g>
     </g>
     <g id="text_3">
      <!-- 0.4 -->
      <g transform="translate(310.321165 399.078438) scale(0.1 -0.1)">
       <defs>
        <path id="DejaVuSans-34" d="M 2419 4116 
L 825 1625 
L 2419 1625 
L 2419 4116 
z
M 2253 4666 
L 3047 4666 
L 3047 1625 
L 3713 1625 
L 3713 1100 
L 3047 1100 
L 3047 0 
L 2419 0 
L 2419 1100 
L 313 1100 
L 313 1709 
L 2253 4666 
z
" transform="scale(0.015625)"/>
       </defs>
       <use xlink:href="#DejaVuSans-30"/>
       <use xlink:href="#DejaVuSans-2e" transform="translate(63.623047 0)"/>
       <use xlink:href="#DejaVuSans-34" transform="translate(95.410156 0)"/>
      </g>
     </g>
    </g>
    <g id="xtick_4">
     <g id="line2d_7">
      <path d="M 419.727273 384.48 
L 419.727273 51.84 
" clip-path="url(#p9986c9c117)" style="fill: none; stroke: #b0b0b0; stroke-width: 0.8; stroke-linecap: square"/>
     </g>
     <g id="line2d_8">
      <g>
       <use xlink:href="#m50ef9127f3" x="419.727273" y="384.48" style="stroke: #000000; stroke-width: 0.8"/>
      </g>
     </g>
     <g id="text_4">
      <!-- 0.6 -->
      <g transform="translate(411.77571 399.078438) scale(0.1 -0.1)">
       <defs>
        <path id="DejaVuSans-36" d="M 2113 2584 
Q 1688 2584 1439 2293 
Q 1191 2003 1191 1497 
Q 1191 994 1439 701 
Q 1688 409 2113 409 
Q 2538 409 2786 701 
Q 3034 994 3034 1497 
Q 3034 2003 2786 2293 
Q 2538 2584 2113 2584 
z
M 3366 4563 
L 3366 3988 
Q 3128 4100 2886 4159 
Q 2644 4219 2406 4219 
Q 1781 4219 1451 3797 
Q 1122 3375 1075 2522 
Q 1259 2794 1537 2939 
Q 1816 3084 2150 3084 
Q 2853 3084 3261 2657 
Q 3669 2231 3669 1497 
Q 3669 778 3244 343 
Q 2819 -91 2113 -91 
Q 1303 -91 875 529 
Q 447 1150 447 2328 
Q 447 3434 972 4092 
Q 1497 4750 2381 4750 
Q 2619 4750 2861 4703 
Q 3103 4656 3366 4563 
z
" transform="scale(0.015625)"/>
       </defs>
       <use xlink:href="#DejaVuSans-30"/>
       <use xlink:href="#DejaVuSans-2e" transform="translate(63.623047 0)"/>
       <use xlink:href="#DejaVuSans-36" transform="translate(95.410156 0)"/>
      </g>
     </g>
    </g>
    <g id="xtick_5">
     <g id="line2d_9">
      <path d="M 521.181818 384.48 
L 521.181818 51.84 
" clip-path="url(#p9986c9c117)" style="fill: none; stroke: #b0b0b0; stroke-width: 0.8; stroke-linecap: square"/>
     </g>
     <g id="line2d_10">
      <g>
       <use xlink:href="#m50ef9127f3" x="521.181818" y="384.48" style="stroke: #000000; stroke-width: 0.8"/>
      </g>
     </g>
     <g id="text_5">
      <!-- 0.8 -->
      <g transform="translate(513.230256 399.078438) scale(0.1 -0.1)">
       <defs>
        <path id="DejaVuSans-38" d="M 2034 2216 
Q 1584 2216 1326 1975 
Q 1069 1734 1069 1313 
Q 1069 891 1326 650 
Q 1584 409 2034 409 
Q 2484 409 2743 651 
Q 3003 894 3003 1313 
Q 3003 1734 2745 1975 
Q 2488 2216 2034 2216 
z
M 1403 2484 
Q 997 2584 770 2862 
Q 544 3141 544 3541 
Q 544 4100 942 4425 
Q 1341 4750 2034 4750 
Q 2731 4750 3128 4425 
Q 3525 4100 3525 3541 
Q 3525 3141 3298 2862 
Q 3072 2584 2669 2484 
Q 3125 2378 3379 2068 
Q 3634 1759 3634 1313 
Q 3634 634 3220 271 
Q 2806 -91 2034 -91 
Q 1263 -91 848 271 
Q 434 634 434 1313 
Q 434 1759 690 2068 
Q 947 2378 1403 2484 
z
M 1172 3481 
Q 1172 3119 1398 2916 
Q 1625 2713 2034 2713 
Q 2441 2713 2670 2916 
Q 2900 3119 2900 3481 
Q 2900 3844 2670 4047 
Q 2441 4250 2034 4250 
Q 1625 4250 1398 4047 
Q 1172 3844 1172 3481 
z
" transform="scale(0.015625)"/>
       </defs>
       <use xlink:href="#DejaVuSans-30"/>
       <use xlink:href="#DejaVuSans-2e" transform="translate(63.623047 0)"/>
       <use xlink:href="#DejaVuSans-38" transform="translate(95.410156 0)"/>
      </g>
     </g>
    </g>
    <g id="xtick_6">
     <g id="line2d_11">
      <path d="M 622.636364 384.48 
L 622.636364 51.84 
" clip-path="url(#p9986c9c117)" style="fill: none; stroke: #b0b0b0; stroke-width: 0.8; stroke-linecap: square"/>
     </g>
     <g id="line2d_12">
      <g>
       <use xlink:href="#m50ef9127f3" x="622.636364" y="384.48" style="stroke: #000000; stroke-width: 0.8"/>
      </g>
     </g>
     <g id="text_6">
      <!-- 1.0 -->
      <g transform="translate(614.684801 399.078438) scale(0.1 -0.1)">
       <defs>
        <path id="DejaVuSans-31" d="M 794 531 
L 1825 531 
L 1825 4091 
L 703 3866 
L 703 4441 
L 1819 4666 
L 2450 4666 
L 2450 531 
L 3481 531 
L 3481 0 
L 794 0 
L 794 531 
z
" transform="scale(0.015625)"/>
       </defs>
       <use xlink:href="#DejaVuSans-31"/>
       <use xlink:href="#DejaVuSans-2e" transform="translate(63.623047 0)"/>
       <use xlink:href="#DejaVuSans-30" transform="translate(95.410156 0)"/>
      </g>
     </g>
    </g>
    <g id="text_7">
     <!-- Recall -->
     <g transform="translate(354.082812 412.756563) scale(0.1 -0.1)">
      <defs>
       <path id="DejaVuSans-52" d="M 2841 2188 
Q 3044 2119 3236 1894 
Q 3428 1669 3622 1275 
L 4263 0 
L 3584 0 
L 2988 1197 
Q 2756 1666 2539 1819 
Q 2322 1972 1947 1972 
L 1259 1972 
L 1259 0 
L 628 0 
L 628 4666 
L 2053 4666 
Q 2853 4666 3247 4331 
Q 3641 3997 3641 3322 
Q 3641 2881 3436 2590 
Q 3231 2300 2841 2188 
z
M 1259 4147 
L 1259 2491 
L 2053 2491 
Q 2509 2491 2742 2702 
Q 2975 2913 2975 3322 
Q 2975 3731 2742 3939 
Q 2509 4147 2053 4147 
L 1259 4147 
z
" transform="scale(0.015625)"/>
       <path id="DejaVuSans-65" d="M 3597 1894 
L 3597 1613 
L 953 1613 
Q 991 1019 1311 708 
Q 1631 397 2203 397 
Q 2534 397 2845 478 
Q 3156 559 3463 722 
L 3463 178 
Q 3153 47 2828 -22 
Q 2503 -91 2169 -91 
Q 1331 -91 842 396 
Q 353 884 353 1716 
Q 353 2575 817 3079 
Q 1281 3584 2069 3584 
Q 2775 3584 3186 3129 
Q 3597 2675 3597 1894 
z
M 3022 2063 
Q 3016 2534 2758 2815 
Q 2500 3097 2075 3097 
Q 1594 3097 1305 2825 
Q 1016 2553 972 2059 
L 3022 2063 
z
" transform="scale(0.015625)"/>
       <path id="DejaVuSans-63" d="M 3122 3366 
L 3122 2828 
Q 2878 2963 2633 3030 
Q 2388 3097 2138 3097 
Q 1578 3097 1268 2742 
Q 959 2388 959 1747 
Q 959 1106 1268 751 
Q 1578 397 2138 397 
Q 2388 397 2633 464 
Q 2878 531 3122 666 
L 3122 134 
Q 2881 22 2623 -34 
Q 2366 -91 2075 -91 
Q 1284 -91 818 406 
Q 353 903 353 1747 
Q 353 2603 823 3093 
Q 1294 3584 2113 3584 
Q 2378 3584 2631 3529 
Q 2884 3475 3122 3366 
z
" transform="scale(0.015625)"/>
       <path id="DejaVuSans-61" d="M 2194 1759 
Q 1497 1759 1228 1600 
Q 959 1441 959 1056 
Q 959 750 1161 570 
Q 1363 391 1709 391 
Q 2188 391 2477 730 
Q 2766 1069 2766 1631 
L 2766 1759 
L 2194 1759 
z
M 3341 1997 
L 3341 0 
L 2766 0 
L 2766 531 
Q 2569 213 2275 61 
Q 1981 -91 1556 -91 
Q 1019 -91 701 211 
Q 384 513 384 1019 
Q 384 1609 779 1909 
Q 1175 2209 1959 2209 
L 2766 2209 
L 2766 2266 
Q 2766 2663 2505 2880 
Q 2244 3097 1772 3097 
Q 1472 3097 1187 3025 
Q 903 2953 641 2809 
L 641 3341 
Q 956 3463 1253 3523 
Q 1550 3584 1831 3584 
Q 2591 3584 2966 3190 
Q 3341 2797 3341 1997 
z
" transform="scale(0.015625)"/>
       <path id="DejaVuSans-6c" d="M 603 4863 
L 1178 4863 
L 1178 0 
L 603 0 
L 603 4863 
z
" transform="scale(0.015625)"/>
      </defs>
      <use xlink:href="#DejaVuSans-52"/>
      <use xlink:href="#DejaVuSans-65" transform="translate(64.982422 0)"/>
      <use xlink:href="#DejaVuSans-63" transform="translate(126.505859 0)"/>
      <use xlink:href="#DejaVuSans-61" transform="translate(181.486328 0)"/>
      <use xlink:href="#DejaVuSans-6c" transform="translate(242.765625 0)"/>
      <use xlink:href="#DejaVuSans-6c" transform="translate(270.548828 0)"/>
     </g>
    </g>
   </g>
   <g id="matplotlib.axis_2">
    <g id="ytick_1">
     <g id="line2d_13">
      <path d="M 90 369.770295 
L 648 369.770295 
" clip-path="url(#p9986c9c117)" style="fill: none; stroke: #b0b0b0; stroke-width: 0.8; stroke-linecap: square"/>
     </g>
     <g id="line2d_14">
      <defs>
       <path id="m0ee73d5fc6" d="M 0 0 
L -3.5 0 
" style="stroke: #000000; stroke-width: 0.8"/>
      </defs>
      <g>
       <use xlink:href="#m0ee73d5fc6" x="90" y="369.770295" style="stroke: #000000; stroke-width: 0.8"/>
      </g>
     </g>
     <g id="text_8">
      <!-- 0.0 -->
      <g transform="translate(67.096875 373.569514) scale(0.1 -0.1)">
       <use xlink:href="#DejaVuSans-30"/>
       <use xlink:href="#DejaVuSans-2e" transform="translate(63.623047 0)"/>
       <use xlink:href="#DejaVuSans-30" transform="translate(95.410156 0)"/>
      </g>
     </g>
    </g>
    <g id="ytick_2">
     <g id="line2d_15">
      <path d="M 90 309.208236 
L 648 309.208236 
" clip-path="url(#p9986c9c117)" style="fill: none; stroke: #b0b0b0; stroke-width: 0.8; stroke-linecap: square"/>
     </g>
     <g id="line2d_16">
      <g>
       <use xlink:href="#m0ee73d5fc6" x="90" y="309.208236" style="stroke: #000000; stroke-width: 0.8"/>
      </g>
     </g>
     <g id="text_9">
      <!-- 0.2 -->
      <g transform="translate(67.096875 313.007455) scale(0.1 -0.1)">
       <use xlink:href="#DejaVuSans-30"/>
       <use xlink:href="#DejaVuSans-2e" transform="translate(63.623047 0)"/>
       <use xlink:href="#DejaVuSans-32" transform="translate(95.410156 0)"/>
      </g>
     </g>
    </g>
    <g id="ytick_3">
     <g id="line2d_17">
      <path d="M 90 248.646177 
L 648 248.646177 
" clip-path="url(#p9986c9c117)" style="fill: none; stroke: #b0b0b0; stroke-width: 0.8; stroke-linecap: square"/>
     </g>
     <g id="line2d_18">
      <g>
       <use xlink:href="#m0ee73d5fc6" x="90" y="248.646177" style="stroke: #000000; stroke-width: 0.8"/>
      </g>
     </g>
     <g id="text_10">
      <!-- 0.4 -->
      <g transform="translate(67.096875 252.445396) scale(0.1 -0.1)">
       <use xlink:href="#DejaVuSans-30"/>
       <use xlink:href="#DejaVuSans-2e" transform="translate(63.623047 0)"/>
       <use xlink:href="#DejaVuSans-34" transform="translate(95.410156 0)"/>
      </g>
     </g>
    </g>
    <g id="ytick_4">
     <g id="line2d_19">
      <path d="M 90 188.084118 
L 648 188.084118 
" clip-path="url(#p9986c9c117)" style="fill: none; stroke: #b0b0b0; stroke-width: 0.8; stroke-linecap: square"/>
     </g>
     <g id="line2d_20">
      <g>
       <use xlink:href="#m0ee73d5fc6" x="90" y="188.084118" style="stroke: #000000; stroke-width: 0.8"/>
      </g>
     </g>
     <g id="text_11">
      <!-- 0.6 -->
      <g transform="translate(67.096875 191.883337) scale(0.1 -0.1)">
       <use xlink:href="#DejaVuSans-30"/>
       <use xlink:href="#DejaVuSans-2e" transform="translate(63.623047 0)"/>
       <use xlink:href="#DejaVuSans-36" transform="translate(95.410156 0)"/>
      </g>
     </g>
    </g>
    <g id="ytick_5">
     <g id="line2d_21">
      <path d="M 90 127.522059 
L 648 127.522059 
" clip-path="url(#p9986c9c117)" style="fill: none; stroke: #b0b0b0; stroke-width: 0.8; stroke-linecap: square"/>
     </g>
     <g id="line2d_22">
      <g>
       <use xlink:href="#m0ee73d5fc6" x="90" y="127.522059" style="stroke: #000000; stroke-width: 0.8"/>
      </g>
     </g>
     <g id="text_12">
      <!-- 0.8 -->
      <g transform="translate(67.096875 131.321278) scale(0.1 -0.1)">
       <use xlink:href="#DejaVuSans-30"/>
       <use xlink:href="#DejaVuSans-2e" transform="translate(63.623047 0)"/>
       <use xlink:href="#DejaVuSans-38" transform="translate(95.410156 0)"/>
      </g>
     </g>
    </g>
    <g id="ytick_6">
     <g id="line2d_23">
      <path d="M 90 66.96 
L 648 66.96 
" clip-path="url(#p9986c9c117)" style="fill: none; stroke: #b0b0b0; stroke-width: 0.8; stroke-linecap: square"/>
     </g>
     <g id="line2d_24">
      <g>
       <use xlink:href="#m0ee73d5fc6" x="90" y="66.96" style="stroke: #000000; stroke-width: 0.8"/>
      </g>
     </g>
     <g id="text_13">
      <!-- 1.0 -->
      <g transform="translate(67.096875 70.759219) scale(0.1 -0.1)">
       <use xlink:href="#DejaVuSans-31"/>
       <use xlink:href="#DejaVuSans-2e" transform="translate(63.623047 0)"/>
       <use xlink:href="#DejaVuSans-30" transform="translate(95.410156 0)"/>
      </g>
     </g>
    </g>
    <g id="text_14">
     <!-- Precision -->
     <g transform="translate(61.017187 240.467031) rotate(-90) scale(0.1 -0.1)">
      <defs>
       <path id="DejaVuSans-50" d="M 1259 4147 
L 1259 2394 
L 2053 2394 
Q 2494 2394 2734 2622 
Q 2975 2850 2975 3272 
Q 2975 3691 2734 3919 
Q 2494 4147 2053 4147 
L 1259 4147 
z
M 628 4666 
L 2053 4666 
Q 2838 4666 3239 4311 
Q 3641 3956 3641 3272 
Q 3641 2581 3239 2228 
Q 2838 1875 2053 1875 
L 1259 1875 
L 1259 0 
L 628 0 
L 628 4666 
z
" transform="scale(0.015625)"/>
       <path id="DejaVuSans-72" d="M 2631 2963 
Q 2534 3019 2420 3045 
Q 2306 3072 2169 3072 
Q 1681 3072 1420 2755 
Q 1159 2438 1159 1844 
L 1159 0 
L 581 0 
L 581 3500 
L 1159 3500 
L 1159 2956 
Q 1341 3275 1631 3429 
Q 1922 3584 2338 3584 
Q 2397 3584 2469 3576 
Q 2541 3569 2628 3553 
L 2631 2963 
z
" transform="scale(0.015625)"/>
       <path id="DejaVuSans-69" d="M 603 3500 
L 1178 3500 
L 1178 0 
L 603 0 
L 603 3500 
z
M 603 4863 
L 1178 4863 
L 1178 4134 
L 603 4134 
L 603 4863 
z
" transform="scale(0.015625)"/>
       <path id="DejaVuSans-73" d="M 2834 3397 
L 2834 2853 
Q 2591 2978 2328 3040 
Q 2066 3103 1784 3103 
Q 1356 3103 1142 2972 
Q 928 2841 928 2578 
Q 928 2378 1081 2264 
Q 1234 2150 1697 2047 
L 1894 2003 
Q 2506 1872 2764 1633 
Q 3022 1394 3022 966 
Q 3022 478 2636 193 
Q 2250 -91 1575 -91 
Q 1294 -91 989 -36 
Q 684 19 347 128 
L 347 722 
Q 666 556 975 473 
Q 1284 391 1588 391 
Q 1994 391 2212 530 
Q 2431 669 2431 922 
Q 2431 1156 2273 1281 
Q 2116 1406 1581 1522 
L 1381 1569 
Q 847 1681 609 1914 
Q 372 2147 372 2553 
Q 372 3047 722 3315 
Q 1072 3584 1716 3584 
Q 2034 3584 2315 3537 
Q 2597 3491 2834 3397 
z
" transform="scale(0.015625)"/>
       <path id="DejaVuSans-6f" d="M 1959 3097 
Q 1497 3097 1228 2736 
Q 959 2375 959 1747 
Q 959 1119 1226 758 
Q 1494 397 1959 397 
Q 2419 397 2687 759 
Q 2956 1122 2956 1747 
Q 2956 2369 2687 2733 
Q 2419 3097 1959 3097 
z
M 1959 3584 
Q 2709 3584 3137 3096 
Q 3566 2609 3566 1747 
Q 3566 888 3137 398 
Q 2709 -91 1959 -91 
Q 1206 -91 779 398 
Q 353 888 353 1747 
Q 353 2609 779 3096 
Q 1206 3584 1959 3584 
z
" transform="scale(0.015625)"/>
       <path id="DejaVuSans-6e" d="M 3513 2113 
L 3513 0 
L 2938 0 
L 2938 2094 
Q 2938 2591 2744 2837 
Q 2550 3084 2163 3084 
Q 1697 3084 1428 2787 
Q 1159 2491 1159 1978 
L 1159 0 
L 581 0 
L 581 3500 
L 1159 3500 
L 1159 2956 
Q 1366 3272 1645 3428 
Q 1925 3584 2291 3584 
Q 2894 3584 3203 3211 
Q 3513 2838 3513 2113 
z
" transform="scale(0.015625)"/>
      </defs>
      <use xlink:href="#DejaVuSans-50"/>
      <use xlink:href="#DejaVuSans-72" transform="translate(58.552734 0)"/>
      <use xlink:href="#DejaVuSans-65" transform="translate(97.416016 0)"/>
      <use xlink:href="#DejaVuSans-63" transform="translate(158.939453 0)"/>
      <use xlink:href="#DejaVuSans-69" transform="translate(213.919922 0)"/>
      <use xlink:href="#DejaVuSans-73" transform="translate(241.703125 0)"/>
      <use xlink:href="#DejaVuSans-69" transform="translate(293.802734 0)"/>
      <use xlink:href="#DejaVuSans-6f" transform="translate(321.585938 0)"/>
      <use xlink:href="#DejaVuSans-6e" transform="translate(382.767578 0)"/>
     </g>
    </g>
   </g>
   <g id="line2d_25">
    <path d="M 622.636364 369.36 
L 622.528424 369.330884 
L 621.731335 369.221337 
L 621.731335 369.220463 
L 621.648305 369.202403 
L 620.618731 369.093455 
L 620.618731 369.092445 
L 620.519095 369.08318 
L 618.883401 368.975719 
L 618.883401 368.974288 
L 618.775461 368.957025 
L 617.206192 368.848819 
L 617.206192 368.848434 
L 617.139767 368.823716 
L 617.114858 368.823733 
L 615.76977 368.718642 
L 615.76977 368.715151 
L 615.661831 368.701238 
L 614.524318 368.596731 
L 614.524318 368.592412 
L 614.416378 368.582306 
L 613.353592 368.494006 
L 613.353592 368.473715 
L 613.245653 368.469277 
L 612.050019 368.370055 
L 612.050019 368.361276 
L 611.958686 368.353934 
L 611.120081 368.245766 
L 611.120081 368.245203 
L 611.037051 368.236482 
L 610.165234 368.139848 
L 610.165234 368.128055 
L 610.065598 368.108534 
L 609.617235 368.004404 
L 609.617235 367.998921 
L 609.525902 367.964966 
L 608.853358 367.858349 
L 608.853358 367.856299 
L 608.753722 367.775407 
L 608.172511 367.679561 
L 608.172511 367.66663 
L 608.172511 367.660222 
L 607.832087 367.576745 
L 607.832087 367.550559 
L 607.765663 367.50821 
L 607.599603 367.408182 
L 607.599603 367.397856 
L 607.599603 367.388453 
L 607.126331 367.31828 
L 607.126331 367.279612 
L 607.043301 367.265214 
L 606.653059 367.170139 
L 606.653059 367.156078 
L 606.570029 367.139485 
L 606.171484 367.037852 
L 606.171484 367.030503 
L 606.063545 366.95192 
L 605.490637 366.857506 
L 605.490637 366.844073 
L 605.399304 366.819082 
L 605.274758 366.763849 
L 605.274758 366.708713 
L 605.166819 366.642111 
L 604.967547 366.551034 
L 604.967547 366.532262 
L 604.926032 366.505258 
L 604.735062 366.400694 
L 604.735062 366.395407 
L 604.635426 366.306434 
L 604.494275 366.210606 
L 604.494275 366.196309 
L 604.394639 365.9655 
L 604.062518 365.869162 
L 604.062518 365.856938 
L 604.037609 365.856974 
L 603.996094 365.818234 
L 603.805125 365.751195 
L 603.805125 365.708646 
L 603.730398 365.437768 
L 603.497913 365.406146 
L 603.497913 365.328701 
L 603.497913 365.248627 
L 603.331853 365.250142 
L 603.331853 365.139058 
L 603.331853 365.07289 
L 603.124277 365.011064 
L 603.124277 364.963745 
L 603.124277 364.956692 
L 602.71743 364.889465 
L 602.71743 364.849527 
L 602.71743 364.789363 
L 602.601187 364.790531 
L 602.601187 364.679432 
L 602.509854 364.363388 
L 602.451733 364.364021 
L 602.451733 364.252914 
L 602.352097 364.034971 
L 602.11131 363.932283 
L 602.11131 363.926637 
L 602.00337 363.75457 
L 601.820704 363.756783 
L 601.820704 363.645678 
L 601.721068 363.646746 
L 601.721068 363.600624 
L 601.58822 363.602275 
L 601.58822 363.491176 
L 601.530098 362.952731 
L 601.422159 362.843451 
L 601.422159 362.843104 
L 601.322523 362.543751 
L 600.965493 362.452637 
L 600.965493 362.437821 
L 600.857554 362.04397 
L 600.674888 362.046803 
L 600.674888 361.935692 
L 600.566949 361.86782 
L 600.533737 361.782674 
L 600.533737 361.757233 
L 600.425797 361.009754 
L 600.201616 360.951913 
L 600.201616 360.902585 
L 600.126889 360.693526 
L 599.944222 360.696844 
L 599.944222 360.585737 
L 599.894404 359.44376 
L 599.82798 359.445127 
L 599.82798 359.334093 
L 599.794768 358.945981 
L 599.66192 358.948843 
L 599.66192 358.837747 
L 599.570587 357.280152 
L 599.462648 357.282822 
L 599.462648 357.171701 
L 599.462648 356.525178 
L 599.313193 356.475328 
L 599.313193 356.418008 
L 599.313193 355.972392 
L 599.163739 355.976459 
L 599.163739 355.86534 
L 599.064103 352.690822 
L 598.881437 352.696908 
L 598.881437 352.585781 
L 598.7818 344.452649 
L 598.707073 344.39739 
L 598.707073 344.345497 
L 598.624043 340.778917 
L 598.482892 340.786574 
L 598.482892 340.675489 
L 598.482892 336.726181 
L 598.341741 336.734782 
L 598.341741 336.62369 
L 598.341741 332.004869 
L 598.183983 332.015343 
L 598.183983 331.904112 
L 598.100953 321.883495 
L 598.026226 321.889735 
L 598.026226 321.778383 
L 598.026226 318.239943 
L 597.885075 318.252449 
L 597.885075 318.141507 
L 597.885075 316.760934 
L 597.635984 316.73366 
L 597.635984 316.672016 
L 597.619378 304.168062 
L 597.445015 304.186643 
L 597.445015 304.075141 
L 597.445015 302.242502 
L 597.245742 302.264193 
L 597.245742 302.154589 
L 597.245742 300.674378 
L 596.830592 300.642312 
L 596.830592 300.608822 
L 596.830592 299.959618 
L 596.656228 299.979073 
L 596.656228 299.868455 
L 596.656228 286.593962 
L 596.515077 286.611656 
L 596.515077 286.501559 
L 596.465259 281.838047 
L 596.365623 281.850971 
L 596.365623 281.739788 
L 596.265987 280.985001 
L 596.066714 280.988982 
L 596.066714 280.903024 
L 595.967078 278.805885 
L 595.767806 278.832275 
L 595.767806 278.720744 
L 595.767806 278.619848 
L 595.419079 278.554562 
L 595.419079 278.278566 
L 595.078655 278.229113 
L 595.078655 278.2157 
L 595.078655 277.348993 
L 594.912595 277.371224 
L 594.912595 277.260277 
L 594.821262 252.540374 
L 594.630293 252.568995 
L 594.630293 252.461231 
L 594.630293 251.910685 
L 594.464232 251.935631 
L 594.464232 251.825069 
L 594.389505 221.480384 
L 594.206839 221.509245 
L 594.206839 221.403438 
L 594.206839 221.17367 
L 593.874718 221.137616 
L 593.874718 221.114826 
L 593.783385 212.300852 
L 593.74187 212.307411 
L 593.74187 212.20075 
L 593.708658 196.156809 
L 593.600719 196.173526 
L 593.600719 196.066333 
L 593.517689 186.712808 
L 593.442961 186.724123 
L 593.442961 186.626064 
L 593.368234 185.604258 
L 593.293507 185.61554 
L 593.293507 185.506519 
L 593.210477 185.183379 
L 593.061023 185.205924 
L 593.061023 185.094406 
L 592.986296 172.980379 
L 592.928174 172.988764 
L 592.928174 172.879761 
L 592.820235 163.286206 
L 592.762114 163.294203 
L 592.762114 163.188858 
L 592.728902 159.106432 
L 592.52963 159.1332 
L 592.52963 159.023512 
L 592.479812 153.962236 
L 592.396781 153.973028 
L 592.396781 153.876622 
L 592.313751 153.363669 
L 592.230721 153.37442 
L 592.230721 153.263969 
L 592.230721 152.136882 
L 592.072964 152.157139 
L 592.072964 152.04813 
L 592.023146 151.934484 
L 591.865388 151.95472 
L 591.865388 151.848194 
L 591.782358 151.596158 
L 591.691025 151.60785 
L 591.691025 151.511915 
L 591.691025 151.399426 
L 591.533268 151.419598 
L 591.533268 151.378409 
L 591.533268 151.271244 
L 591.358905 151.293526 
L 591.358905 151.199999 
L 591.358905 151.056803 
L 591.201147 151.076939 
L 591.201147 150.99147 
L 591.101511 149.981576 
L 590.96036 149.999459 
L 590.96036 149.893592 
L 590.96036 149.511067 
L 590.819209 149.528892 
L 590.819209 149.436539 
L 590.744481 140.176315 
L 590.503694 140.204444 
L 590.503694 140.110125 
L 590.404058 132.002873 
L 590.337634 132.010015 
L 590.337634 131.899007 
L 590.287816 131.71474 
L 590.221391 131.721861 
L 590.221391 131.617106 
L 590.113452 131.254679 
L 590.047028 131.261766 
L 590.047028 131.19274 
L 589.988907 126.812264 
L 589.864362 126.780521 
L 589.864362 126.71909 
L 589.83115 125.445831 
L 589.731514 125.455743 
L 589.731514 125.345285 
L 589.623574 123.188674 
L 589.424302 123.207919 
L 589.424302 123.105904 
L 589.424302 122.940391 
L 589.30806 122.951582 
L 589.30806 122.884599 
L 589.299757 120.604073 
L 589.108787 120.560772 
L 589.108787 120.51763 
L 589.108787 119.532085 
L 588.826485 119.521723 
L 588.826485 119.449166 
L 588.726849 118.265834 
L 588.660425 118.271814 
L 588.660425 118.227834 
L 588.552485 116.981118 
L 588.519273 116.98405 
L 588.519273 116.88032 
L 588.436243 113.236567 
L 588.403031 113.239319 
L 588.403031 113.136284 
L 588.303395 112.524484 
L 588.253577 112.528561 
L 588.253577 112.428762 
L 588.162244 112.182505 
L 588.137335 112.184532 
L 588.137335 112.076738 
L 588.062607 110.228383 
L 587.979577 110.234898 
L 587.979577 110.125429 
L 587.879941 109.313075 
L 587.863335 109.314355 
L 587.863335 109.204081 
L 587.780305 108.423936 
L 587.73879 108.427081 
L 587.73879 108.335863 
L 587.639154 107.407585 
L 587.589336 107.411282 
L 587.589336 107.343319 
L 587.564426 106.751978 
L 587.473093 106.758665 
L 587.473093 106.702405 
L 587.414972 106.037683 
L 587.390063 106.039479 
L 587.29873 105.945004 
L 587.207397 105.432848 
L 587.182488 105.434621 
L 587.182488 105.345256 
L 587.124367 104.713905 
L 586.991518 104.678279 
L 586.991518 104.612893 
L 586.991518 104.535205 
L 586.684307 104.556656 
L 586.684307 104.4666 
L 586.626186 104.28624 
L 586.493337 104.287264 
L 586.493337 104.26265 
L 586.385398 103.87974 
L 586.352186 103.87791 
L 586.352186 103.803803 
L 586.294065 103.184431 
L 586.128005 103.10459 
L 586.128005 103.088021 
L 586.053278 102.748769 
L 585.779278 102.76715 
L 585.779278 102.671541 
L 585.679642 102.35758 
L 585.538491 102.337771 
L 585.538491 102.271019 
L 585.455461 100.879464 
L 585.281097 100.856888 
L 585.281097 100.780914 
L 585.20637 100.307704 
L 585.12334 100.312949 
L 585.12334 100.206955 
L 585.015401 99.933482 
L 584.932371 99.904661 
L 584.932371 99.836601 
L 584.841037 99.215297 
L 584.716492 99.222944 
L 584.716492 99.115998 
L 584.716492 98.670194 
L 584.359463 98.614451 
L 584.359463 98.597255 
L 584.284735 98.395224 
L 584.060554 98.31389 
L 583.969221 98.099298 
L 583.819767 98.039077 
L 583.819767 98.000175 
L 583.753342 97.982505 
L 583.595585 97.987561 
L 583.595585 97.905349 
L 583.495949 97.646939 
L 583.338192 97.656235 
L 583.338192 97.560753 
L 583.338192 97.539044 
L 583.238555 97.544898 
L 582.873223 97.540306 
L 582.873223 97.514224 
L 582.86492 97.410332 
L 582.615829 97.355272 
L 582.615829 97.337851 
L 582.566011 97.122801 
L 582.557708 97.123284 
L 582.441466 97.125679 
L 582.441466 97.047107 
L 582.42486 96.917013 
L 582.333527 96.917921 
L 582.042921 96.84285 
L 582.042921 96.838474 
L 582.042921 96.816588 
L 581.553043 96.770365 
L 581.553043 96.739677 
L 581.453407 96.679621 
L 581.37868 96.683919 
L 581.37868 96.618083 
L 581.279044 96.527171 
L 581.237529 96.529549 
L 581.237529 96.450429 
L 581.237529 96.41525 
L 581.154499 96.419989 
L 580.648015 96.347641 
L 580.589894 96.236348 
L 580.540075 96.239181 
L 580.133228 96.156369 
L 580.041895 95.9582 
L 579.278017 95.890576 
L 579.278017 95.868407 
L 578.655291 95.81474 
L 578.572261 95.668289 
L 578.439413 95.564486 
L 578.356382 95.292782 
L 578.273352 95.297388 
L 578.273352 95.203646 
L 578.198625 95.069264 
L 577.90802 95.009225 
L 577.90802 94.991322 
L 577.874807 94.773642 
L 577.63402 94.741939 
L 577.63402 94.701553 
L 577.63402 94.562355 
L 577.567596 94.56596 
L 577.434748 94.532721 
L 577.434748 94.501249 
L 577.351718 94.09139 
L 577.293596 94.094498 
L 577.293596 93.990703 
L 577.218869 93.782311 
L 577.210566 93.78275 
L 577.152445 93.785827 
L 577.152445 93.763212 
L 577.094324 93.422047 
L 576.928264 93.408051 
L 576.853537 93.10759 
L 576.720688 93.018909 
L 576.720688 93.005252 
L 576.645961 92.717401 
L 576.579537 92.720795 
L 576.579537 92.615801 
L 576.529719 92.362341 
L 576.363659 92.370724 
L 576.363659 92.320368 
L 576.297235 92.172522 
L 576.139477 92.079519 
L 576.081356 91.903328 
L 575.882084 91.821264 
L 575.790751 91.66928 
L 575.45863 91.611902 
L 575.45863 91.579621 
L 575.408812 91.323527 
L 575.358994 91.325953 
L 575.259358 91.279951 
L 575.259358 91.256829 
L 575.159721 91.016294 
L 575.051782 91.021493 
L 575.051782 90.947317 
L 575.001964 90.373453 
L 574.85251 90.30593 
L 574.85251 90.259316 
L 574.744571 90.264369 
L 574.711359 90.265924 
L 574.711359 90.214618 
L 574.653238 89.937119 
L 574.096935 89.859873 
L 573.988996 89.62576 
L 573.598755 89.540277 
L 573.540633 89.27009 
L 573.133786 89.198895 
L 573.133786 89.180033 
L 573.133786 89.090403 
L 573.059059 89.093752 
L 572.917907 88.996185 
L 572.917907 88.982011 
L 572.818271 88.986459 
L 572.710332 88.901445 
L 572.660514 88.714332 
L 572.643908 88.715065 
L 572.48615 88.688863 
L 572.48615 88.636723 
L 572.48615 88.608275 
L 572.394817 88.612292 
L 571.963061 88.631301 
L 571.963061 88.52209 
L 571.888333 88.482604 
L 571.763788 88.473798 
L 571.763788 88.378689 
L 571.763788 88.25495 
L 571.689061 88.258192 
L 571.149365 88.238728 
L 571.149365 88.148102 
L 571.058032 88.152051 
L 570.842153 88.075432 
L 570.842153 88.051545 
L 570.767426 87.959163 
L 570.742517 87.960232 
L 570.402094 87.912633 
L 570.402094 87.907846 
L 570.377185 87.770006 
L 570.335669 87.771775 
L 570.161306 87.683288 
L 570.078276 87.523579 
L 569.887307 87.421061 
L 569.887307 87.416252 
L 569.804276 87.419737 
L 569.331005 87.333664 
L 569.223065 87.005269 
L 568.525612 86.966341 
L 568.525612 86.961501 
L 568.500703 86.909282 
L 568.450885 86.91133 
L 567.927795 86.898938 
L 567.927795 86.826199 
L 567.894583 86.803305 
L 567.853068 86.805007 
L 567.637189 86.736172 
L 567.628886 86.658782 
L 567.595674 86.660134 
L 566.831797 86.589053 
L 566.798585 86.531942 
L 566.723858 86.534973 
L 566.092829 86.4581 
L 566.092829 86.453217 
L 566.043011 86.416159 
L 565.644466 86.324681 
L 565.536527 86.284979 
L 564.9138 86.261021 
L 564.9138 86.256118 
L 564.805861 86.127994 
L 563.909136 86.055672 
L 563.842711 86.004177 
L 563.560409 85.911936 
L 563.560409 85.867564 
L 562.995804 85.83561 
L 562.921077 85.719979 
L 562.904471 85.720632 
L 561.80017 85.679912 
L 561.80017 85.669998 
L 561.742049 85.553244 
L 561.733746 85.553568 
L 561.335201 85.494653 
L 561.335201 85.489685 
L 561.252171 85.308929 
L 561.185746 85.261721 
L 561.077807 85.191173 
L 560.587929 85.100269 
L 560.587929 85.075312 
L 560.529808 85.077536 
L 560.347142 85.04457 
L 560.347142 85.004601 
L 560.347142 84.884626 
L 560.264112 84.887773 
L 558.869205 84.84548 
L 558.869205 84.770173 
L 558.769569 84.77394 
L 558.146843 84.717031 
L 558.146843 84.701935 
L 558.05551 84.534146 
L 557.515814 84.45342 
L 557.515814 84.362521 
L 557.416177 84.366218 
L 556.776845 84.288761 
L 556.776845 84.248254 
L 556.170725 84.255455 
L 556.170725 84.143855 
L 556.095998 84.146603 
L 555.481575 84.103154 
L 555.481575 84.042132 
L 555.415151 84.044565 
L 555.132848 84.054913 
L 555.132848 83.90723 
L 555.049818 83.910251 
L 554.584849 83.84045 
L 554.584849 83.758764 
L 554.543334 83.760264 
L 553.621699 83.727097 
L 553.621699 83.691258 
L 553.571881 83.646959 
L 553.538669 83.648154 
L 551.853157 83.606183 
L 551.853157 83.565023 
L 551.819945 83.566218 
L 551.454612 83.512401 
L 551.454612 83.507249 
L 551.4214 83.379561 
L 551.346673 83.382223 
L 550.757159 83.398086 
L 550.757159 83.294755 
L 550.757159 83.279249 
L 550.64922 83.283077 
L 549.818918 83.224519 
L 549.818918 83.16232 
L 549.752494 83.164665 
L 549.071647 83.100443 
L 549.071647 83.048478 
L 548.980314 83.051687 
L 547.817892 83.009237 
L 547.817892 83.004023 
L 547.726558 82.756689 
L 547.012499 82.687249 
L 547.012499 82.624411 
L 546.98759 82.625268 
L 546.4645 82.575108 
L 546.4645 82.501643 
L 546.398076 82.503915 
L 546.281834 82.444869 
L 546.281834 82.439616 
L 546.281834 82.323996 
L 546.198804 82.326807 
L 545.791956 82.24583 
L 545.791956 82.219496 
L 545.700623 82.222571 
L 545.0862 82.164143 
L 544.986563 82.067153 
L 542.960628 82.044924 
L 542.960628 82.018378 
L 542.869294 82.021435 
L 542.263174 82.015165 
L 542.263174 81.930044 
L 542.163538 81.933366 
L 541.582327 81.883477 
L 541.565721 81.761341 
L 541.515903 81.762986 
L 540.851662 81.68338 
L 540.785238 81.605308 
L 539.971542 81.589116 
L 539.863603 81.447748 
L 537.953909 81.412992 
L 537.953909 81.396805 
L 537.854273 81.400048 
L 536.301609 81.391185 
L 536.301609 81.331584 
L 536.251791 81.333204 
L 534.939915 81.354262 
L 534.939915 81.234617 
L 534.856885 81.237309 
L 532.482222 81.216248 
L 532.382586 81.197594 
L 531.560587 81.13111 
L 531.560587 81.109153 
L 531.510769 81.110767 
L 531.303194 81.117499 
L 531.303194 80.941625 
L 531.245073 80.943489 
L 530.340044 80.884372 
L 530.340044 80.856798 
L 530.331741 80.857063 
L 529.767136 80.786743 
L 529.692409 80.739374 
L 529.659197 80.740429 
L 528.637926 80.673151 
L 528.637926 80.623235 
L 528.571502 80.625333 
L 527.940473 80.589722 
L 527.940473 80.550813 
L 527.940473 80.461838 
L 527.874049 80.463915 
L 526.919202 80.387877 
L 526.919202 80.359977 
L 526.819566 80.363079 
L 525.507689 80.320053 
L 525.507689 80.28084 
L 525.39975 80.284192 
L 524.195813 80.248632 
L 524.195813 80.231765 
L 524.154298 80.182438 
L 524.112783 80.183722 
L 523.033391 80.143874 
L 523.033391 80.115662 
L 523.033391 80.042283 
L 522.966966 80.044323 
L 522.70127 80.041187 
L 522.70127 79.911165 
L 522.643149 79.912934 
L 521.090485 79.869528 
L 521.090485 79.846807 
L 521.024061 79.848827 
L 519.952972 79.813133 
L 519.952972 79.744742 
L 519.845033 79.748009 
L 518.209339 79.700404 
L 518.209339 79.671766 
L 518.134612 79.674026 
L 515.162132 79.660692 
L 515.162132 79.65492 
L 515.162132 79.643375 
L 515.112314 79.644889 
L 513.684195 79.584153 
L 513.684195 79.566761 
L 513.592862 79.569532 
L 511.500502 79.540089 
L 511.500502 79.49927 
L 511.400866 79.502294 
L 509.89802 79.454392 
L 509.89802 79.436818 
L 509.806687 79.334077 
L 509.258688 79.268366 
L 509.258688 79.191975 
L 509.233779 79.192718 
L 506.967056 79.171981 
L 506.967056 79.136499 
L 506.86742 79.139473 
L 505.887664 79.062028 
L 505.887664 79.056094 
L 505.779725 79.059305 
L 502.666094 79.044988 
L 502.666094 79.039004 
L 502.558155 79.042237 
L 500.06725 79.045054 
L 500.06725 79.03903 
L 500.06725 79.002878 
L 499.959311 79.006124 
L 499.054282 79.033404 
L 499.054282 78.979028 
L 499.054282 78.876262 
L 496.389014 78.852813 
L 496.389014 78.797989 
L 495.467379 78.825567 
L 495.467379 78.752272 
L 495.434167 78.618782 
L 493.416535 78.56793 
L 493.308595 78.558814 
L 491.789144 78.492632 
L 491.789144 78.47409 
L 491.722719 78.476045 
L 490.361025 78.410782 
L 490.336116 78.399099 
L 490.277995 78.400805 
L 486.948486 78.424267 
L 486.948486 78.380415 
L 486.857152 78.383117 
L 486.275941 78.30617 
L 486.275941 78.287329 
L 486.201214 78.289526 
L 483.892976 78.250363 
L 483.892976 78.231393 
L 483.785037 78.234572 
L 482.207464 78.179596 
L 482.207464 78.160529 
L 482.099525 78.163704 
L 480.712921 78.128064 
L 480.712921 78.083373 
L 480.696315 78.08386 
L 480.081892 78.018743 
L 480.081892 77.973941 
L 480.023771 77.975632 
L 478.520925 77.935981 
L 478.520925 77.852361 
L 478.421289 77.855242 
L 475.216325 77.851391 
L 475.216325 77.799435 
L 475.133295 77.801847 
L 472.567663 77.765684 
L 472.468027 77.683456 
L 472.011361 77.683582 
L 472.011361 77.604851 
L 472.011361 77.572034 
L 471.928331 77.574418 
L 469.022275 77.592384 
L 469.022275 77.532803 
L 468.914336 77.535918 
L 466.124523 77.516956 
L 466.124523 77.47021 
L 466.024887 77.473093 
L 464.854162 77.413231 
L 464.854162 77.319318 
L 464.762828 77.321933 
L 461.516349 77.334492 
L 461.516349 77.287064 
L 461.441622 77.289218 
L 459.855746 77.22619 
L 459.855746 77.219378 
L 459.814231 77.220572 
L 458.601991 77.146171 
L 458.601991 77.07775 
L 458.568779 77.078696 
L 455.206058 77.106351 
L 455.206058 76.96807 
L 451.901457 76.951331 
L 451.801821 76.891287 
L 450.024976 76.843886 
L 450.024976 76.689137 
L 450.016673 76.68937 
L 447.874495 76.657951 
L 447.799768 76.567911 
L 444.769167 76.546159 
L 444.769167 76.531845 
L 444.669531 76.534649 
L 441.971051 76.582372 
L 441.971051 76.488526 
L 439.920206 76.474172 
L 439.920206 76.365119 
L 439.828873 76.367684 
L 436.532576 76.358346 
L 436.532576 76.343645 
L 436.482758 76.345055 
L 433.991853 76.305005 
L 433.991853 76.297594 
L 429.566346 76.319831 
L 429.566346 76.282251 
L 429.524831 76.283445 
L 429.059862 76.251662 
L 429.059862 76.176337 
L 426.062473 76.156042 
L 425.987746 76.089683 
L 423.579872 76.066779 
L 423.563266 76.021201 
L 419.63594 76.056892 
L 419.63594 76.033568 
L 419.63594 76.01024 
L 419.552909 76.012637 
L 417.18655 75.987413 
L 417.18655 75.932516 
L 417.078611 75.935631 
L 414.21407 75.924053 
L 414.21407 75.844809 
L 414.13104 75.847206 
L 411.166864 75.861575 
L 411.166864 75.773468 
L 411.058925 75.776592 
L 408.667656 75.757496 
L 408.667656 75.692831 
L 408.584626 75.695233 
L 405.147178 75.714032 
L 405.147178 75.664932 
L 405.047541 75.66784 
L 401.87579 75.686964 
L 401.87579 75.645574 
L 401.776153 75.648508 
L 392.128049 75.84829 
L 392.128049 75.788366 
L 383.708792 75.942393 
L 383.708792 75.915925 
L 383.67558 75.917001 
L 380.9771 75.916167 
L 380.9771 75.826998 
L 380.885767 75.829959 
L 374.492445 75.941781 
L 374.492445 75.896096 
L 374.426021 75.898319 
L 373.072629 75.833596 
L 373.072629 75.760036 
L 373.039417 75.761138 
L 366.338884 75.875908 
L 366.338884 75.800396 
L 361.89677 75.868514 
L 361.863558 75.600398 
L 361.838649 75.601247 
L 358.243444 75.647345 
L 358.243444 75.491001 
L 358.177019 75.493269 
L 354.540299 75.579625 
L 354.540299 75.549856 
L 354.51539 75.302388 
L 354.457268 75.30436 
L 351.692364 75.288628 
L 351.692364 75.278566 
L 351.659152 75.279703 
L 349.492065 75.263183 
L 349.492065 75.161569 
L 349.400732 75.164683 
L 347.308372 75.134085 
L 347.308372 75.103294 
L 344.692922 75.110615 
L 344.692922 75.006767 
L 344.643104 75.008469 
L 340.99808 75.082221 
L 340.99808 75.00833 
L 340.981474 75.008907 
L 336.688815 75.063981 
L 336.688815 74.999407 
L 336.597482 75.002638 
L 332.155369 75.141012 
L 332.155369 75.075122 
L 332.155369 75.042165 
L 332.04743 75.046084 
L 330.229069 75.057263 
L 330.229069 74.935288 
L 330.129433 74.938891 
L 324.690958 75.06097 
L 324.690958 74.969926 
L 324.64114 74.971783 
L 323.254537 74.943566 
L 323.254537 74.909168 
L 323.179809 74.911951 
L 320.871571 74.929319 
L 320.871571 74.755235 
L 318.413879 74.788389 
L 318.413879 74.682598 
L 318.339151 74.685368 
L 312.63498 74.842452 
L 312.63498 74.7336 
L 312.527041 74.737747 
L 310.957771 74.700921 
L 310.957771 74.542163 
L 310.858134 74.545931 
L 308.97335 74.506832 
L 308.97335 74.482136 
L 308.923532 74.484024 
L 307.719595 74.467799 
L 307.719595 74.405632 
L 307.628262 74.409082 
L 303.194451 74.504153 
L 303.194451 74.465967 
L 303.13633 74.340838 
L 300.686941 74.332703 
L 300.686941 74.293956 
L 300.645426 74.295559 
L 300.205366 74.221924 
L 300.205366 74.196007 
L 300.172154 74.197276 
L 288.51472 74.547953 
L 288.51472 74.478928 
L 288.423387 74.482797 
L 285.434301 74.51332 
L 285.434301 74.485207 
L 285.351271 74.488791 
L 281.880611 74.55565 
L 281.880611 74.483877 
L 281.780974 74.48827 
L 277.612861 74.603139 
L 277.612861 74.529502 
L 277.529831 74.533281 
L 275.478986 74.553221 
L 275.478986 74.418834 
L 275.420865 74.421476 
L 271.327478 74.535758 
L 271.327478 74.382438 
L 271.294266 74.38398 
L 267.657545 74.541122 
L 267.657545 74.431231 
L 267.549606 74.4364 
L 265.349307 74.46364 
L 265.349307 74.431751 
L 265.349307 74.415804 
L 265.282883 74.419026 
L 263.09919 74.461795 
L 263.09919 74.380844 
L 260.292771 74.438468 
L 260.292771 74.207263 
L 260.20974 74.211318 
L 257.121019 74.365451 
L 257.121019 74.230355 
L 257.087807 74.232018 
L 247.605763 74.685887 
L 247.605763 74.487152 
L 247.522733 74.491764 
L 239.609959 74.843632 
L 239.609959 74.786033 
L 238.381113 74.76521 
L 238.381113 74.668188 
L 238.314689 74.672246 
L 237.924447 74.696175 
L 237.924447 74.676695 
L 237.924447 74.442725 
L 237.816508 74.449158 
L 233.208334 74.67372 
L 233.208334 74.023907 
L 226.740285 74.338096 
L 226.740285 73.886168 
L 226.657255 73.891217 
L 225.876772 73.939039 
L 225.876772 73.873883 
L 225.876772 73.808698 
L 225.611075 73.824829 
L 225.611075 73.585021 
L 225.577863 73.586974 
L 224.008593 73.680569 
L 224.008593 73.525606 
L 223.975381 73.527571 
L 219.583086 73.705891 
L 219.583086 73.65976 
L 219.549874 73.661849 
L 217.47412 73.747957 
L 217.47412 73.700887 
L 217.47412 73.677347 
L 217.382787 73.683227 
L 216.153941 73.763356 
L 216.153941 73.548668 
L 216.062607 73.554514 
L 215.597639 73.584435 
L 215.597639 73.392325 
L 215.54782 73.395456 
L 197.845792 74.480468 
L 197.845792 74.27742 
L 197.81258 74.280296 
L 190.821441 74.782626 
L 190.746713 74.219374 
L 190.730107 74.220935 
L 187.865567 74.43471 
L 187.865567 74.335714 
L 187.757628 74.346443 
L 186.337812 74.456844 
L 186.337812 74.322013 
L 186.229873 74.332953 
L 183.888423 74.578544 
L 183.888423 74.334267 
L 181.605093 74.473811 
L 181.605093 74.437711 
L 177.943464 74.863822 
L 177.943464 74.711317 
L 177.860433 74.721351 
L 177.030132 74.823139 
L 177.030132 74.590867 
L 177.021829 74.591869 
L 175.303105 74.765232 
L 175.303105 74.645748 
L 175.269893 74.649901 
L 171.832444 75.105419 
L 171.832444 74.894462 
L 169.241903 75.265498 
L 169.241903 74.823432 
L 169.183782 74.831703 
L 168.419905 74.942048 
L 168.419905 74.807218 
L 168.370087 74.814402 
L 165.605183 75.234835 
L 165.605183 74.997918 
L 165.588577 75.000505 
L 164.517488 75.170961 
L 164.517488 74.928692 
L 162.126219 75.27408 
L 162.126219 75.121438 
L 162.093007 75.127083 
L 161.553311 75.219907 
L 161.553311 74.289911 
L 161.470281 74.30279 
L 159.934223 74.549506 
L 159.934223 74.173702 
L 157.576167 74.566548 
L 157.576167 74.056207 
L 156.239381 74.282667 
L 156.239381 73.636985 
L 156.156351 73.650275 
L 149.904181 74.760734 
L 144.756311 76.005306 
L 142.43977 76.667187 
L 142.43977 76.493083 
L 141.318863 76.891278 
L 141.318863 75.799804 
L 139.616744 76.303516 
L 139.616744 75.815868 
L 137.45796 76.546789 
L 137.45796 76.226326 
L 137.350021 76.270419 
L 137.084325 76.380765 
L 137.084325 76.272062 
L 137.084325 76.163278 
L 137.001295 76.197516 
L 136.503114 76.408419 
L 136.428386 74.297326 
L 136.395174 74.308632 
L 135.896994 74.482495 
L 135.896994 73.430818 
L 135.440328 73.574788 
L 135.440328 73.214891 
L 135.191237 73.291827 
L 135.108207 72.9513 
L 132.550878 73.822556 
L 132.550878 72.559621 
L 132.525969 72.567598 
L 130.143004 73.452359 
L 129.99355 73.517247 
L 129.99355 72.857808 
L 129.943731 72.877566 
L 128.042341 73.745122 
L 127.153918 74.244096 
L 127.153918 74.040846 
L 125.576345 75.105214 
L 124.463741 76.071106 
L 124.131621 76.405459 
L 124.131621 73.963013 
L 122.894471 75.082594 
L 122.828047 75.152919 
L 122.828047 74.513836 
L 121.773564 75.720549 
L 121.640716 75.900484 
L 121.640716 73.619476 
L 120.735687 74.712673 
L 120.195991 75.553948 
L 119.772538 76.35375 
L 119.772538 75.278964 
L 119.216236 76.442577 
L 118.410843 78.850457 
L 117.929268 80.978995 
L 117.447693 84.035769 
L 116.966118 88.797281 
L 116.924603 87.946852 
L 116.509452 94.850422 
L 116.152423 105.853065 
L 115.994666 114.063824 
L 115.95315 66.96 
L 115.363636 66.96 
L 115.363636 66.96 
" clip-path="url(#p9986c9c117)" style="fill: none; stroke: #1f77b4; stroke-width: 1.5; stroke-linecap: square"/>
   </g>
   <g id="patch_3">
    <path d="M 90 384.48 
L 90 51.84 
" style="fill: none; stroke: #000000; stroke-width: 0.8; stroke-linejoin: miter; stroke-linecap: square"/>
   </g>
   <g id="patch_4">
    <path d="M 648 384.48 
L 648 51.84 
" style="fill: none; stroke: #000000; stroke-width: 0.8; stroke-linejoin: miter; stroke-linecap: square"/>
   </g>
   <g id="patch_5">
    <path d="M 90 384.48 
L 648 384.48 
" style="fill: none; stroke: #000000; stroke-width: 0.8; stroke-linejoin: miter; stroke-linecap: square"/>
   </g>
   <g id="patch_6">
    <path d="M 90 51.84 
L 648 51.84 
" style="fill: none; stroke: #000000; stroke-width: 0.8; stroke-linejoin: miter; stroke-linecap: square"/>
   </g>
   <g id="text_15">
    <!-- Precision-Recall Curves -->
    <g transform="translate(299.431875 32.402625) scale(0.12 -0.12)">
     <defs>
      <path id="DejaVuSans-2d" d="M 313 2009 
L 1997 2009 
L 1997 1497 
L 313 1497 
L 313 2009 
z
" transform="scale(0.015625)"/>
      <path id="DejaVuSans-20" transform="scale(0.015625)"/>
      <path id="DejaVuSans-43" d="M 4122 4306 
L 4122 3641 
Q 3803 3938 3442 4084 
Q 3081 4231 2675 4231 
Q 1875 4231 1450 3742 
Q 1025 3253 1025 2328 
Q 1025 1406 1450 917 
Q 1875 428 2675 428 
Q 3081 428 3442 575 
Q 3803 722 4122 1019 
L 4122 359 
Q 3791 134 3420 21 
Q 3050 -91 2638 -91 
Q 1578 -91 968 557 
Q 359 1206 359 2328 
Q 359 3453 968 4101 
Q 1578 4750 2638 4750 
Q 3056 4750 3426 4639 
Q 3797 4528 4122 4306 
z
" transform="scale(0.015625)"/>
      <path id="DejaVuSans-75" d="M 544 1381 
L 544 3500 
L 1119 3500 
L 1119 1403 
Q 1119 906 1312 657 
Q 1506 409 1894 409 
Q 2359 409 2629 706 
Q 2900 1003 2900 1516 
L 2900 3500 
L 3475 3500 
L 3475 0 
L 2900 0 
L 2900 538 
Q 2691 219 2414 64 
Q 2138 -91 1772 -91 
Q 1169 -91 856 284 
Q 544 659 544 1381 
z
M 1991 3584 
L 1991 3584 
z
" transform="scale(0.015625)"/>
      <path id="DejaVuSans-76" d="M 191 3500 
L 800 3500 
L 1894 563 
L 2988 3500 
L 3597 3500 
L 2284 0 
L 1503 0 
L 191 3500 
z
" transform="scale(0.015625)"/>
     </defs>
     <use xlink:href="#DejaVuSans-50"/>
     <use xlink:href="#DejaVuSans-72" transform="translate(58.552734 0)"/>
     <use xlink:href="#DejaVuSans-65" transform="translate(97.416016 0)"/>
     <use xlink:href="#DejaVuSans-63" transform="translate(158.939453 0)"/>
     <use xlink:href="#DejaVuSans-69" transform="translate(213.919922 0)"/>
     <use xlink:href="#DejaVuSans-73" transform="translate(241.703125 0)"/>
     <use xlink:href="#DejaVuSans-69" transform="translate(293.802734 0)"/>
     <use xlink:href="#DejaVuSans-6f" transform="translate(321.585938 0)"/>
     <use xlink:href="#DejaVuSans-6e" transform="translate(382.767578 0)"/>
     <use xlink:href="#DejaVuSans-2d" transform="translate(446.146484 0)"/>
     <use xlink:href="#DejaVuSans-52" transform="translate(482.230469 0)"/>
     <use xlink:href="#DejaVuSans-65" transform="translate(547.212891 0)"/>
     <use xlink:href="#DejaVuSans-63" transform="translate(608.736328 0)"/>
     <use xlink:href="#DejaVuSans-61" transform="translate(663.716797 0)"/>
     <use xlink:href="#DejaVuSans-6c" transform="translate(724.996094 0)"/>
     <use xlink:href="#DejaVuSans-6c" transform="translate(752.779297 0)"/>
     <use xlink:href="#DejaVuSans-20" transform="translate(780.5625 0)"/>
     <use xlink:href="#DejaVuSans-43" transform="translate(812.349609 0)"/>
     <use xlink:href="#DejaVuSans-75" transform="translate(882.173828 0)"/>
     <use xlink:href="#DejaVuSans-72" transform="translate(945.552734 0)"/>
     <use xlink:href="#DejaVuSans-76" transform="translate(986.666016 0)"/>
     <use xlink:href="#DejaVuSans-65" transform="translate(1045.845703 0)"/>
     <use xlink:href="#DejaVuSans-73" transform="translate(1107.369141 0)"/>
    </g>
    <!-- AURPC: 0.912, Top-k: 0.911 -->
    <g transform="translate(286.74 45.84) scale(0.12 -0.12)">
     <defs>
      <path id="DejaVuSans-41" d="M 2188 4044 
L 1331 1722 
L 3047 1722 
L 2188 4044 
z
M 1831 4666 
L 2547 4666 
L 4325 0 
L 3669 0 
L 3244 1197 
L 1141 1197 
L 716 0 
L 50 0 
L 1831 4666 
z
" transform="scale(0.015625)"/>
      <path id="DejaVuSans-55" d="M 556 4666 
L 1191 4666 
L 1191 1831 
Q 1191 1081 1462 751 
Q 1734 422 2344 422 
Q 2950 422 3222 751 
Q 3494 1081 3494 1831 
L 3494 4666 
L 4128 4666 
L 4128 1753 
Q 4128 841 3676 375 
Q 3225 -91 2344 -91 
Q 1459 -91 1007 375 
Q 556 841 556 1753 
L 556 4666 
z
" transform="scale(0.015625)"/>
      <path id="DejaVuSans-3a" d="M 750 794 
L 1409 794 
L 1409 0 
L 750 0 
L 750 794 
z
M 750 3309 
L 1409 3309 
L 1409 2516 
L 750 2516 
L 750 3309 
z
" transform="scale(0.015625)"/>
      <path id="DejaVuSans-39" d="M 703 97 
L 703 672 
Q 941 559 1184 500 
Q 1428 441 1663 441 
Q 2288 441 2617 861 
Q 2947 1281 2994 2138 
Q 2813 1869 2534 1725 
Q 2256 1581 1919 1581 
Q 1219 1581 811 2004 
Q 403 2428 403 3163 
Q 403 3881 828 4315 
Q 1253 4750 1959 4750 
Q 2769 4750 3195 4129 
Q 3622 3509 3622 2328 
Q 3622 1225 3098 567 
Q 2575 -91 1691 -91 
Q 1453 -91 1209 -44 
Q 966 3 703 97 
z
M 1959 2075 
Q 2384 2075 2632 2365 
Q 2881 2656 2881 3163 
Q 2881 3666 2632 3958 
Q 2384 4250 1959 4250 
Q 1534 4250 1286 3958 
Q 1038 3666 1038 3163 
Q 1038 2656 1286 2365 
Q 1534 2075 1959 2075 
z
" transform="scale(0.015625)"/>
      <path id="DejaVuSans-2c" d="M 750 794 
L 1409 794 
L 1409 256 
L 897 -744 
L 494 -744 
L 750 256 
L 750 794 
z
" transform="scale(0.015625)"/>
      <path id="DejaVuSans-54" d="M -19 4666 
L 3928 4666 
L 3928 4134 
L 2272 4134 
L 2272 0 
L 1638 0 
L 1638 4134 
L -19 4134 
L -19 4666 
z
" transform="scale(0.015625)"/>
      <path id="DejaVuSans-70" d="M 1159 525 
L 1159 -1331 
L 581 -1331 
L 581 3500 
L 1159 3500 
L 1159 2969 
Q 1341 3281 1617 3432 
Q 1894 3584 2278 3584 
Q 2916 3584 3314 3078 
Q 3713 2572 3713 1747 
Q 3713 922 3314 415 
Q 2916 -91 2278 -91 
Q 1894 -91 1617 61 
Q 1341 213 1159 525 
z
M 3116 1747 
Q 3116 2381 2855 2742 
Q 2594 3103 2138 3103 
Q 1681 3103 1420 2742 
Q 1159 2381 1159 1747 
Q 1159 1113 1420 752 
Q 1681 391 2138 391 
Q 2594 391 2855 752 
Q 3116 1113 3116 1747 
z
" transform="scale(0.015625)"/>
      <path id="DejaVuSans-6b" d="M 581 4863 
L 1159 4863 
L 1159 1991 
L 2875 3500 
L 3609 3500 
L 1753 1863 
L 3688 0 
L 2938 0 
L 1159 1709 
L 1159 0 
L 581 0 
L 581 4863 
z
" transform="scale(0.015625)"/>
     </defs>
     <use xlink:href="#DejaVuSans-41"/>
     <use xlink:href="#DejaVuSans-55" transform="translate(68.408203 0)"/>
     <use xlink:href="#DejaVuSans-52" transform="translate(141.601562 0)"/>
     <use xlink:href="#DejaVuSans-50" transform="translate(211.083984 0)"/>
     <use xlink:href="#DejaVuSans-43" transform="translate(271.386719 0)"/>
     <use xlink:href="#DejaVuSans-3a" transform="translate(341.210938 0)"/>
     <use xlink:href="#DejaVuSans-20" transform="translate(374.902344 0)"/>
     <use xlink:href="#DejaVuSans-30" transform="translate(406.689453 0)"/>
     <use xlink:href="#DejaVuSans-2e" transform="translate(470.3125 0)"/>
     <use xlink:href="#DejaVuSans-39" transform="translate(502.099609 0)"/>
     <use xlink:href="#DejaVuSans-31" transform="translate(565.722656 0)"/>
     <use xlink:href="#DejaVuSans-32" transform="translate(629.345703 0)"/>
     <use xlink:href="#DejaVuSans-2c" transform="translate(692.96875 0)"/>
     <use xlink:href="#DejaVuSans-20" transform="translate(724.755859 0)"/>
     <use xlink:href="#DejaVuSans-54" transform="translate(756.542969 0)"/>
     <use xlink:href="#DejaVuSans-6f" transform="translate(800.626953 0)"/>
     <use xlink:href="#DejaVuSans-70" transform="translate(861.808594 0)"/>
     <use xlink:href="#DejaVuSans-2d" transform="translate(925.285156 0)"/>
     <use xlink:href="#DejaVuSans-6b" transform="translate(961.369141 0)"/>
     <use xlink:href="#DejaVuSans-3a" transform="translate(1019.279297 0)"/>
     <use xlink:href="#DejaVuSans-20" transform="translate(1052.970703 0)"/>
     <use xlink:href="#DejaVuSans-30" transform="translate(1084.757812 0)"/>
     <use xlink:href="#DejaVuSans-2e" transform="translate(1148.380859 0)"/>
     <use xlink:href="#DejaVuSans-39" transform="translate(1180.167969 0)"/>
     <use xlink:href="#DejaVuSans-31" transform="translate(1243.791016 0)"/>
     <use xlink:href="#DejaVuSans-31" transform="translate(1307.414062 0)"/>
    </g>
   </g>
  </g>
 </g>
 <defs>
  <clipPath id="p9986c9c117">
   <rect x="90" y="51.84" width="558" height="332.64"/>
  </clipPath>
 </defs>
</svg>
