<?xml version="1.0" encoding="utf-8" standalone="no"?>
<!DOCTYPE svg PUBLIC "-//W3C//DTD SVG 1.1//EN"
  "http://www.w3.org/Graphics/SVG/1.1/DTD/svg11.dtd">
<svg xmlns:xlink="http://www.w3.org/1999/xlink" width="720pt" height="432pt" viewBox="0 0 720 432" xmlns="http://www.w3.org/2000/svg" version="1.1">
 <metadata>
  <rdf:RDF xmlns:dc="http://purl.org/dc/elements/1.1/" xmlns:cc="http://creativecommons.org/ns#" xmlns:rdf="http://www.w3.org/1999/02/22-rdf-syntax-ns#">
   <cc:Work>
    <dc:type rdf:resource="http://purl.org/dc/dcmitype/StillImage"/>
    <dc:date>2025-04-21T20:26:59.151235</dc:date>
    <dc:format>image/svg+xml</dc:format>
    <dc:creator>
     <cc:Agent>
      <dc:title>Matplotlib v3.10.1, https://matplotlib.org/</dc:title>
     </cc:Agent>
    </dc:creator>
   </cc:Work>
  </rdf:RDF>
 </metadata>
 <defs>
  <style type="text/css">*{stroke-linejoin: round; stroke-linecap: butt}</style>
 </defs>
 <g id="figure_1">
  <g id="patch_1">
   <path d="M 0 432 
L 720 432 
L 720 0 
L 0 0 
z
" style="fill: #ffffff"/>
  </g>
  <g id="axes_1">
   <g id="patch_2">
    <path d="M 90 384.48 
L 648 384.48 
L 648 51.84 
L 90 51.84 
z
" style="fill: #ffffff"/>
   </g>
   <g id="matplotlib.axis_1">
    <g id="xtick_1">
     <g id="line2d_1">
      <path d="M 115.363636 384.48 
L 115.363636 51.84 
" clip-path="url(#pc70fa63e7a)" style="fill: none; stroke: #b0b0b0; stroke-width: 0.8; stroke-linecap: square"/>
     </g>
     <g id="line2d_2">
      <defs>
       <path id="m23e4982b98" d="M 0 0 
L 0 3.5 
" style="stroke: #000000; stroke-width: 0.8"/>
      </defs>
      <g>
       <use xlink:href="#m23e4982b98" x="115.363636" y="384.48" style="stroke: #000000; stroke-width: 0.8"/>
      </g>
     </g>
     <g id="text_1">
      <!-- 0.0 -->
      <g transform="translate(107.412074 399.078438) scale(0.1 -0.1)">
       <defs>
        <path id="DejaVuSans-30" d="M 2034 4250 
Q 1547 4250 1301 3770 
Q 1056 3291 1056 2328 
Q 1056 1369 1301 889 
Q 1547 409 2034 409 
Q 2525 409 2770 889 
Q 3016 1369 3016 2328 
Q 3016 3291 2770 3770 
Q 2525 4250 2034 4250 
z
M 2034 4750 
Q 2819 4750 3233 4129 
Q 3647 3509 3647 2328 
Q 3647 1150 3233 529 
Q 2819 -91 2034 -91 
Q 1250 -91 836 529 
Q 422 1150 422 2328 
Q 422 3509 836 4129 
Q 1250 4750 2034 4750 
z
" transform="scale(0.015625)"/>
        <path id="DejaVuSans-2e" d="M 684 794 
L 1344 794 
L 1344 0 
L 684 0 
L 684 794 
z
" transform="scale(0.015625)"/>
       </defs>
       <use xlink:href="#DejaVuSans-30"/>
       <use xlink:href="#DejaVuSans-2e" transform="translate(63.623047 0)"/>
       <use xlink:href="#DejaVuSans-30" transform="translate(95.410156 0)"/>
      </g>
     </g>
    </g>
    <g id="xtick_2">
     <g id="line2d_3">
      <path d="M 216.818182 384.48 
L 216.818182 51.84 
" clip-path="url(#pc70fa63e7a)" style="fill: none; stroke: #b0b0b0; stroke-width: 0.8; stroke-linecap: square"/>
     </g>
     <g id="line2d_4">
      <g>
       <use xlink:href="#m23e4982b98" x="216.818182" y="384.48" style="stroke: #000000; stroke-width: 0.8"/>
      </g>
     </g>
     <g id="text_2">
      <!-- 0.2 -->
      <g transform="translate(208.866619 399.078438) scale(0.1 -0.1)">
       <defs>
        <path id="DejaVuSans-32" d="M 1228 531 
L 3431 531 
L 3431 0 
L 469 0 
L 469 531 
Q 828 903 1448 1529 
Q 2069 2156 2228 2338 
Q 2531 2678 2651 2914 
Q 2772 3150 2772 3378 
Q 2772 3750 2511 3984 
Q 2250 4219 1831 4219 
Q 1534 4219 1204 4116 
Q 875 4013 500 3803 
L 500 4441 
Q 881 4594 1212 4672 
Q 1544 4750 1819 4750 
Q 2544 4750 2975 4387 
Q 3406 4025 3406 3419 
Q 3406 3131 3298 2873 
Q 3191 2616 2906 2266 
Q 2828 2175 2409 1742 
Q 1991 1309 1228 531 
z
" transform="scale(0.015625)"/>
       </defs>
       <use xlink:href="#DejaVuSans-30"/>
       <use xlink:href="#DejaVuSans-2e" transform="translate(63.623047 0)"/>
       <use xlink:href="#DejaVuSans-32" transform="translate(95.410156 0)"/>
      </g>
     </g>
    </g>
    <g id="xtick_3">
     <g id="line2d_5">
      <path d="M 318.272727 384.48 
L 318.272727 51.84 
" clip-path="url(#pc70fa63e7a)" style="fill: none; stroke: #b0b0b0; stroke-width: 0.8; stroke-linecap: square"/>
     </g>
     <g id="line2d_6">
      <g>
       <use xlink:href="#m23e4982b98" x="318.272727" y="384.48" style="stroke: #000000; stroke-width: 0.8"/>
      </g>
     </g>
     <g id="text_3">
      <!-- 0.4 -->
      <g transform="translate(310.321165 399.078438) scale(0.1 -0.1)">
       <defs>
        <path id="DejaVuSans-34" d="M 2419 4116 
L 825 1625 
L 2419 1625 
L 2419 4116 
z
M 2253 4666 
L 3047 4666 
L 3047 1625 
L 3713 1625 
L 3713 1100 
L 3047 1100 
L 3047 0 
L 2419 0 
L 2419 1100 
L 313 1100 
L 313 1709 
L 2253 4666 
z
" transform="scale(0.015625)"/>
       </defs>
       <use xlink:href="#DejaVuSans-30"/>
       <use xlink:href="#DejaVuSans-2e" transform="translate(63.623047 0)"/>
       <use xlink:href="#DejaVuSans-34" transform="translate(95.410156 0)"/>
      </g>
     </g>
    </g>
    <g id="xtick_4">
     <g id="line2d_7">
      <path d="M 419.727273 384.48 
L 419.727273 51.84 
" clip-path="url(#pc70fa63e7a)" style="fill: none; stroke: #b0b0b0; stroke-width: 0.8; stroke-linecap: square"/>
     </g>
     <g id="line2d_8">
      <g>
       <use xlink:href="#m23e4982b98" x="419.727273" y="384.48" style="stroke: #000000; stroke-width: 0.8"/>
      </g>
     </g>
     <g id="text_4">
      <!-- 0.6 -->
      <g transform="translate(411.77571 399.078438) scale(0.1 -0.1)">
       <defs>
        <path id="DejaVuSans-36" d="M 2113 2584 
Q 1688 2584 1439 2293 
Q 1191 2003 1191 1497 
Q 1191 994 1439 701 
Q 1688 409 2113 409 
Q 2538 409 2786 701 
Q 3034 994 3034 1497 
Q 3034 2003 2786 2293 
Q 2538 2584 2113 2584 
z
M 3366 4563 
L 3366 3988 
Q 3128 4100 2886 4159 
Q 2644 4219 2406 4219 
Q 1781 4219 1451 3797 
Q 1122 3375 1075 2522 
Q 1259 2794 1537 2939 
Q 1816 3084 2150 3084 
Q 2853 3084 3261 2657 
Q 3669 2231 3669 1497 
Q 3669 778 3244 343 
Q 2819 -91 2113 -91 
Q 1303 -91 875 529 
Q 447 1150 447 2328 
Q 447 3434 972 4092 
Q 1497 4750 2381 4750 
Q 2619 4750 2861 4703 
Q 3103 4656 3366 4563 
z
" transform="scale(0.015625)"/>
       </defs>
       <use xlink:href="#DejaVuSans-30"/>
       <use xlink:href="#DejaVuSans-2e" transform="translate(63.623047 0)"/>
       <use xlink:href="#DejaVuSans-36" transform="translate(95.410156 0)"/>
      </g>
     </g>
    </g>
    <g id="xtick_5">
     <g id="line2d_9">
      <path d="M 521.181818 384.48 
L 521.181818 51.84 
" clip-path="url(#pc70fa63e7a)" style="fill: none; stroke: #b0b0b0; stroke-width: 0.8; stroke-linecap: square"/>
     </g>
     <g id="line2d_10">
      <g>
       <use xlink:href="#m23e4982b98" x="521.181818" y="384.48" style="stroke: #000000; stroke-width: 0.8"/>
      </g>
     </g>
     <g id="text_5">
      <!-- 0.8 -->
      <g transform="translate(513.230256 399.078438) scale(0.1 -0.1)">
       <defs>
        <path id="DejaVuSans-38" d="M 2034 2216 
Q 1584 2216 1326 1975 
Q 1069 1734 1069 1313 
Q 1069 891 1326 650 
Q 1584 409 2034 409 
Q 2484 409 2743 651 
Q 3003 894 3003 1313 
Q 3003 1734 2745 1975 
Q 2488 2216 2034 2216 
z
M 1403 2484 
Q 997 2584 770 2862 
Q 544 3141 544 3541 
Q 544 4100 942 4425 
Q 1341 4750 2034 4750 
Q 2731 4750 3128 4425 
Q 3525 4100 3525 3541 
Q 3525 3141 3298 2862 
Q 3072 2584 2669 2484 
Q 3125 2378 3379 2068 
Q 3634 1759 3634 1313 
Q 3634 634 3220 271 
Q 2806 -91 2034 -91 
Q 1263 -91 848 271 
Q 434 634 434 1313 
Q 434 1759 690 2068 
Q 947 2378 1403 2484 
z
M 1172 3481 
Q 1172 3119 1398 2916 
Q 1625 2713 2034 2713 
Q 2441 2713 2670 2916 
Q 2900 3119 2900 3481 
Q 2900 3844 2670 4047 
Q 2441 4250 2034 4250 
Q 1625 4250 1398 4047 
Q 1172 3844 1172 3481 
z
" transform="scale(0.015625)"/>
       </defs>
       <use xlink:href="#DejaVuSans-30"/>
       <use xlink:href="#DejaVuSans-2e" transform="translate(63.623047 0)"/>
       <use xlink:href="#DejaVuSans-38" transform="translate(95.410156 0)"/>
      </g>
     </g>
    </g>
    <g id="xtick_6">
     <g id="line2d_11">
      <path d="M 622.636364 384.48 
L 622.636364 51.84 
" clip-path="url(#pc70fa63e7a)" style="fill: none; stroke: #b0b0b0; stroke-width: 0.8; stroke-linecap: square"/>
     </g>
     <g id="line2d_12">
      <g>
       <use xlink:href="#m23e4982b98" x="622.636364" y="384.48" style="stroke: #000000; stroke-width: 0.8"/>
      </g>
     </g>
     <g id="text_6">
      <!-- 1.0 -->
      <g transform="translate(614.684801 399.078438) scale(0.1 -0.1)">
       <defs>
        <path id="DejaVuSans-31" d="M 794 531 
L 1825 531 
L 1825 4091 
L 703 3866 
L 703 4441 
L 1819 4666 
L 2450 4666 
L 2450 531 
L 3481 531 
L 3481 0 
L 794 0 
L 794 531 
z
" transform="scale(0.015625)"/>
       </defs>
       <use xlink:href="#DejaVuSans-31"/>
       <use xlink:href="#DejaVuSans-2e" transform="translate(63.623047 0)"/>
       <use xlink:href="#DejaVuSans-30" transform="translate(95.410156 0)"/>
      </g>
     </g>
    </g>
    <g id="text_7">
     <!-- Recall -->
     <g transform="translate(354.082812 412.756563) scale(0.1 -0.1)">
      <defs>
       <path id="DejaVuSans-52" d="M 2841 2188 
Q 3044 2119 3236 1894 
Q 3428 1669 3622 1275 
L 4263 0 
L 3584 0 
L 2988 1197 
Q 2756 1666 2539 1819 
Q 2322 1972 1947 1972 
L 1259 1972 
L 1259 0 
L 628 0 
L 628 4666 
L 2053 4666 
Q 2853 4666 3247 4331 
Q 3641 3997 3641 3322 
Q 3641 2881 3436 2590 
Q 3231 2300 2841 2188 
z
M 1259 4147 
L 1259 2491 
L 2053 2491 
Q 2509 2491 2742 2702 
Q 2975 2913 2975 3322 
Q 2975 3731 2742 3939 
Q 2509 4147 2053 4147 
L 1259 4147 
z
" transform="scale(0.015625)"/>
       <path id="DejaVuSans-65" d="M 3597 1894 
L 3597 1613 
L 953 1613 
Q 991 1019 1311 708 
Q 1631 397 2203 397 
Q 2534 397 2845 478 
Q 3156 559 3463 722 
L 3463 178 
Q 3153 47 2828 -22 
Q 2503 -91 2169 -91 
Q 1331 -91 842 396 
Q 353 884 353 1716 
Q 353 2575 817 3079 
Q 1281 3584 2069 3584 
Q 2775 3584 3186 3129 
Q 3597 2675 3597 1894 
z
M 3022 2063 
Q 3016 2534 2758 2815 
Q 2500 3097 2075 3097 
Q 1594 3097 1305 2825 
Q 1016 2553 972 2059 
L 3022 2063 
z
" transform="scale(0.015625)"/>
       <path id="DejaVuSans-63" d="M 3122 3366 
L 3122 2828 
Q 2878 2963 2633 3030 
Q 2388 3097 2138 3097 
Q 1578 3097 1268 2742 
Q 959 2388 959 1747 
Q 959 1106 1268 751 
Q 1578 397 2138 397 
Q 2388 397 2633 464 
Q 2878 531 3122 666 
L 3122 134 
Q 2881 22 2623 -34 
Q 2366 -91 2075 -91 
Q 1284 -91 818 406 
Q 353 903 353 1747 
Q 353 2603 823 3093 
Q 1294 3584 2113 3584 
Q 2378 3584 2631 3529 
Q 2884 3475 3122 3366 
z
" transform="scale(0.015625)"/>
       <path id="DejaVuSans-61" d="M 2194 1759 
Q 1497 1759 1228 1600 
Q 959 1441 959 1056 
Q 959 750 1161 570 
Q 1363 391 1709 391 
Q 2188 391 2477 730 
Q 2766 1069 2766 1631 
L 2766 1759 
L 2194 1759 
z
M 3341 1997 
L 3341 0 
L 2766 0 
L 2766 531 
Q 2569 213 2275 61 
Q 1981 -91 1556 -91 
Q 1019 -91 701 211 
Q 384 513 384 1019 
Q 384 1609 779 1909 
Q 1175 2209 1959 2209 
L 2766 2209 
L 2766 2266 
Q 2766 2663 2505 2880 
Q 2244 3097 1772 3097 
Q 1472 3097 1187 3025 
Q 903 2953 641 2809 
L 641 3341 
Q 956 3463 1253 3523 
Q 1550 3584 1831 3584 
Q 2591 3584 2966 3190 
Q 3341 2797 3341 1997 
z
" transform="scale(0.015625)"/>
       <path id="DejaVuSans-6c" d="M 603 4863 
L 1178 4863 
L 1178 0 
L 603 0 
L 603 4863 
z
" transform="scale(0.015625)"/>
      </defs>
      <use xlink:href="#DejaVuSans-52"/>
      <use xlink:href="#DejaVuSans-65" transform="translate(64.982422 0)"/>
      <use xlink:href="#DejaVuSans-63" transform="translate(126.505859 0)"/>
      <use xlink:href="#DejaVuSans-61" transform="translate(181.486328 0)"/>
      <use xlink:href="#DejaVuSans-6c" transform="translate(242.765625 0)"/>
      <use xlink:href="#DejaVuSans-6c" transform="translate(270.548828 0)"/>
     </g>
    </g>
   </g>
   <g id="matplotlib.axis_2">
    <g id="ytick_1">
     <g id="line2d_13">
      <path d="M 90 369.571004 
L 648 369.571004 
" clip-path="url(#pc70fa63e7a)" style="fill: none; stroke: #b0b0b0; stroke-width: 0.8; stroke-linecap: square"/>
     </g>
     <g id="line2d_14">
      <defs>
       <path id="m47a6885265" d="M 0 0 
L -3.5 0 
" style="stroke: #000000; stroke-width: 0.8"/>
      </defs>
      <g>
       <use xlink:href="#m47a6885265" x="90" y="369.571004" style="stroke: #000000; stroke-width: 0.8"/>
      </g>
     </g>
     <g id="text_8">
      <!-- 0.0 -->
      <g transform="translate(67.096875 373.370223) scale(0.1 -0.1)">
       <use xlink:href="#DejaVuSans-30"/>
       <use xlink:href="#DejaVuSans-2e" transform="translate(63.623047 0)"/>
       <use xlink:href="#DejaVuSans-30" transform="translate(95.410156 0)"/>
      </g>
     </g>
    </g>
    <g id="ytick_2">
     <g id="line2d_15">
      <path d="M 90 309.048803 
L 648 309.048803 
" clip-path="url(#pc70fa63e7a)" style="fill: none; stroke: #b0b0b0; stroke-width: 0.8; stroke-linecap: square"/>
     </g>
     <g id="line2d_16">
      <g>
       <use xlink:href="#m47a6885265" x="90" y="309.048803" style="stroke: #000000; stroke-width: 0.8"/>
      </g>
     </g>
     <g id="text_9">
      <!-- 0.2 -->
      <g transform="translate(67.096875 312.848022) scale(0.1 -0.1)">
       <use xlink:href="#DejaVuSans-30"/>
       <use xlink:href="#DejaVuSans-2e" transform="translate(63.623047 0)"/>
       <use xlink:href="#DejaVuSans-32" transform="translate(95.410156 0)"/>
      </g>
     </g>
    </g>
    <g id="ytick_3">
     <g id="line2d_17">
      <path d="M 90 248.526603 
L 648 248.526603 
" clip-path="url(#pc70fa63e7a)" style="fill: none; stroke: #b0b0b0; stroke-width: 0.8; stroke-linecap: square"/>
     </g>
     <g id="line2d_18">
      <g>
       <use xlink:href="#m47a6885265" x="90" y="248.526603" style="stroke: #000000; stroke-width: 0.8"/>
      </g>
     </g>
     <g id="text_10">
      <!-- 0.4 -->
      <g transform="translate(67.096875 252.325821) scale(0.1 -0.1)">
       <use xlink:href="#DejaVuSans-30"/>
       <use xlink:href="#DejaVuSans-2e" transform="translate(63.623047 0)"/>
       <use xlink:href="#DejaVuSans-34" transform="translate(95.410156 0)"/>
      </g>
     </g>
    </g>
    <g id="ytick_4">
     <g id="line2d_19">
      <path d="M 90 188.004402 
L 648 188.004402 
" clip-path="url(#pc70fa63e7a)" style="fill: none; stroke: #b0b0b0; stroke-width: 0.8; stroke-linecap: square"/>
     </g>
     <g id="line2d_20">
      <g>
       <use xlink:href="#m47a6885265" x="90" y="188.004402" style="stroke: #000000; stroke-width: 0.8"/>
      </g>
     </g>
     <g id="text_11">
      <!-- 0.6 -->
      <g transform="translate(67.096875 191.80362) scale(0.1 -0.1)">
       <use xlink:href="#DejaVuSans-30"/>
       <use xlink:href="#DejaVuSans-2e" transform="translate(63.623047 0)"/>
       <use xlink:href="#DejaVuSans-36" transform="translate(95.410156 0)"/>
      </g>
     </g>
    </g>
    <g id="ytick_5">
     <g id="line2d_21">
      <path d="M 90 127.482201 
L 648 127.482201 
" clip-path="url(#pc70fa63e7a)" style="fill: none; stroke: #b0b0b0; stroke-width: 0.8; stroke-linecap: square"/>
     </g>
     <g id="line2d_22">
      <g>
       <use xlink:href="#m47a6885265" x="90" y="127.482201" style="stroke: #000000; stroke-width: 0.8"/>
      </g>
     </g>
     <g id="text_12">
      <!-- 0.8 -->
      <g transform="translate(67.096875 131.28142) scale(0.1 -0.1)">
       <use xlink:href="#DejaVuSans-30"/>
       <use xlink:href="#DejaVuSans-2e" transform="translate(63.623047 0)"/>
       <use xlink:href="#DejaVuSans-38" transform="translate(95.410156 0)"/>
      </g>
     </g>
    </g>
    <g id="ytick_6">
     <g id="line2d_23">
      <path d="M 90 66.96 
L 648 66.96 
" clip-path="url(#pc70fa63e7a)" style="fill: none; stroke: #b0b0b0; stroke-width: 0.8; stroke-linecap: square"/>
     </g>
     <g id="line2d_24">
      <g>
       <use xlink:href="#m47a6885265" x="90" y="66.96" style="stroke: #000000; stroke-width: 0.8"/>
      </g>
     </g>
     <g id="text_13">
      <!-- 1.0 -->
      <g transform="translate(67.096875 70.759219) scale(0.1 -0.1)">
       <use xlink:href="#DejaVuSans-31"/>
       <use xlink:href="#DejaVuSans-2e" transform="translate(63.623047 0)"/>
       <use xlink:href="#DejaVuSans-30" transform="translate(95.410156 0)"/>
      </g>
     </g>
    </g>
    <g id="text_14">
     <!-- Precision -->
     <g transform="translate(61.017187 240.467031) rotate(-90) scale(0.1 -0.1)">
      <defs>
       <path id="DejaVuSans-50" d="M 1259 4147 
L 1259 2394 
L 2053 2394 
Q 2494 2394 2734 2622 
Q 2975 2850 2975 3272 
Q 2975 3691 2734 3919 
Q 2494 4147 2053 4147 
L 1259 4147 
z
M 628 4666 
L 2053 4666 
Q 2838 4666 3239 4311 
Q 3641 3956 3641 3272 
Q 3641 2581 3239 2228 
Q 2838 1875 2053 1875 
L 1259 1875 
L 1259 0 
L 628 0 
L 628 4666 
z
" transform="scale(0.015625)"/>
       <path id="DejaVuSans-72" d="M 2631 2963 
Q 2534 3019 2420 3045 
Q 2306 3072 2169 3072 
Q 1681 3072 1420 2755 
Q 1159 2438 1159 1844 
L 1159 0 
L 581 0 
L 581 3500 
L 1159 3500 
L 1159 2956 
Q 1341 3275 1631 3429 
Q 1922 3584 2338 3584 
Q 2397 3584 2469 3576 
Q 2541 3569 2628 3553 
L 2631 2963 
z
" transform="scale(0.015625)"/>
       <path id="DejaVuSans-69" d="M 603 3500 
L 1178 3500 
L 1178 0 
L 603 0 
L 603 3500 
z
M 603 4863 
L 1178 4863 
L 1178 4134 
L 603 4134 
L 603 4863 
z
" transform="scale(0.015625)"/>
       <path id="DejaVuSans-73" d="M 2834 3397 
L 2834 2853 
Q 2591 2978 2328 3040 
Q 2066 3103 1784 3103 
Q 1356 3103 1142 2972 
Q 928 2841 928 2578 
Q 928 2378 1081 2264 
Q 1234 2150 1697 2047 
L 1894 2003 
Q 2506 1872 2764 1633 
Q 3022 1394 3022 966 
Q 3022 478 2636 193 
Q 2250 -91 1575 -91 
Q 1294 -91 989 -36 
Q 684 19 347 128 
L 347 722 
Q 666 556 975 473 
Q 1284 391 1588 391 
Q 1994 391 2212 530 
Q 2431 669 2431 922 
Q 2431 1156 2273 1281 
Q 2116 1406 1581 1522 
L 1381 1569 
Q 847 1681 609 1914 
Q 372 2147 372 2553 
Q 372 3047 722 3315 
Q 1072 3584 1716 3584 
Q 2034 3584 2315 3537 
Q 2597 3491 2834 3397 
z
" transform="scale(0.015625)"/>
       <path id="DejaVuSans-6f" d="M 1959 3097 
Q 1497 3097 1228 2736 
Q 959 2375 959 1747 
Q 959 1119 1226 758 
Q 1494 397 1959 397 
Q 2419 397 2687 759 
Q 2956 1122 2956 1747 
Q 2956 2369 2687 2733 
Q 2419 3097 1959 3097 
z
M 1959 3584 
Q 2709 3584 3137 3096 
Q 3566 2609 3566 1747 
Q 3566 888 3137 398 
Q 2709 -91 1959 -91 
Q 1206 -91 779 398 
Q 353 888 353 1747 
Q 353 2609 779 3096 
Q 1206 3584 1959 3584 
z
" transform="scale(0.015625)"/>
       <path id="DejaVuSans-6e" d="M 3513 2113 
L 3513 0 
L 2938 0 
L 2938 2094 
Q 2938 2591 2744 2837 
Q 2550 3084 2163 3084 
Q 1697 3084 1428 2787 
Q 1159 2491 1159 1978 
L 1159 0 
L 581 0 
L 581 3500 
L 1159 3500 
L 1159 2956 
Q 1366 3272 1645 3428 
Q 1925 3584 2291 3584 
Q 2894 3584 3203 3211 
Q 3513 2838 3513 2113 
z
" transform="scale(0.015625)"/>
      </defs>
      <use xlink:href="#DejaVuSans-50"/>
      <use xlink:href="#DejaVuSans-72" transform="translate(58.552734 0)"/>
      <use xlink:href="#DejaVuSans-65" transform="translate(97.416016 0)"/>
      <use xlink:href="#DejaVuSans-63" transform="translate(158.939453 0)"/>
      <use xlink:href="#DejaVuSans-69" transform="translate(213.919922 0)"/>
      <use xlink:href="#DejaVuSans-73" transform="translate(241.703125 0)"/>
      <use xlink:href="#DejaVuSans-69" transform="translate(293.802734 0)"/>
      <use xlink:href="#DejaVuSans-6f" transform="translate(321.585938 0)"/>
      <use xlink:href="#DejaVuSans-6e" transform="translate(382.767578 0)"/>
     </g>
    </g>
   </g>
   <g id="line2d_25">
    <path d="M 622.636364 369.357118 
L 622.636364 369.355849 
L 619.869717 369.266051 
L 619.869717 369.24591 
L 619.869717 369.236162 
L 618.567766 369.158281 
L 618.567766 369.125915 
L 618.567766 369.072835 
L 616.289352 368.97781 
L 616.289352 368.963976 
L 616.289352 368.909752 
L 612.708986 368.833427 
L 612.708986 368.803356 
L 612.708986 368.768541 
L 611.569779 368.667825 
L 611.569779 368.659265 
L 611.569779 368.631707 
L 610.756059 368.524653 
L 610.756059 368.522133 
L 610.756059 368.440492 
L 610.267827 368.393067 
L 610.267827 368.330491 
L 610.267827 368.27814 
L 608.314901 368.211847 
L 608.314901 368.17211 
L 608.314901 368.133662 
L 607.663925 368.102525 
L 607.663925 368.024441 
L 607.663925 368.003697 
L 607.338437 367.928638 
L 607.338437 367.893618 
L 607.338437 367.761002 
L 605.873742 367.664257 
L 605.873742 367.65525 
L 605.873742 367.452169 
L 605.710998 367.452867 
L 605.710998 367.341756 
L 605.710998 367.187493 
L 605.060023 367.190632 
L 605.060023 367.07953 
L 605.060023 367.021654 
L 604.571791 367.024174 
L 604.571791 366.913078 
L 604.571791 366.554778 
L 604.083559 366.495906 
L 604.083559 366.446648 
L 604.083559 366.330963 
L 603.920815 366.33203 
L 603.920815 366.221083 
L 603.920815 365.48012 
L 603.595328 365.482808 
L 603.595328 365.371709 
L 603.595328 364.692595 
L 603.107096 364.697394 
L 603.107096 364.586338 
L 603.107096 364.368329 
L 602.944352 364.370035 
L 602.944352 364.259053 
L 602.944352 363.101137 
L 602.618864 363.105363 
L 602.618864 362.994414 
L 602.618864 361.278471 
L 602.45612 361.281164 
L 602.45612 361.170367 
L 602.45612 359.563438 
L 601.967889 359.573138 
L 601.967889 359.462446 
L 601.967889 354.81984 
L 601.642401 354.829227 
L 601.642401 354.718077 
L 601.642401 353.876601 
L 601.479657 353.881581 
L 601.479657 353.770507 
L 601.479657 349.727333 
L 600.991425 349.745957 
L 600.991425 349.636103 
L 600.991425 324.217351 
L 600.828681 324.230273 
L 600.828681 324.12527 
L 600.828681 314.942063 
L 600.177706 315.002107 
L 600.177706 314.892883 
L 600.177706 304.604286 
L 599.038499 304.724231 
L 599.038499 304.616512 
L 599.038499 292.452165 
L 598.713011 292.490843 
L 598.713011 292.451158 
L 598.713011 283.656208 
L 598.387523 283.697645 
L 598.387523 283.631911 
L 598.387523 240.489449 
L 597.736547 240.589265 
L 597.736547 240.570714 
L 597.736547 225.530693 
L 596.760084 225.683631 
L 596.760084 224.093457 
L 596.109108 224.195674 
L 596.109108 224.148374 
L 596.109108 192.488416 
L 595.946365 192.513288 
L 595.946365 192.40798 
L 595.946365 157.915321 
L 595.620877 157.958428 
L 595.620877 143.14984 
L 595.295389 143.188495 
L 595.295389 136.811523 
L 594.969901 136.84798 
L 594.969901 121.712575 
L 594.318926 121.773512 
L 594.318926 117.708961 
L 594.156182 117.723317 
L 594.156182 110.768221 
L 593.993438 110.78096 
L 593.993438 108.809515 
L 593.505206 108.846333 
L 593.505206 108.769851 
L 593.505206 106.843129 
L 592.203255 106.937639 
L 592.203255 105.922404 
L 589.273865 106.132067 
L 589.273865 103.426865 
L 588.948377 103.448906 
L 588.948377 103.368458 
L 588.948377 103.046179 
L 586.99545 103.17772 
L 586.99545 101.303433 
L 586.669962 101.324457 
L 586.669962 100.830904 
L 586.507218 100.841293 
L 586.507218 100.180212 
L 584.717036 100.209851 
L 584.717036 99.292238 
L 584.228804 99.322305 
L 584.228804 98.566247 
L 581.624902 98.724229 
L 581.624902 96.07557 
L 579.020999 96.223271 
L 579.020999 94.917054 
L 576.091609 95.078293 
L 576.091609 94.990314 
L 576.091609 94.284451 
L 575.766121 94.302023 
L 575.766121 93.947524 
L 574.46417 93.928239 
L 574.46417 93.750118 
L 573.162219 93.819545 
L 573.162219 92.563274 
L 572.023012 92.621729 
L 572.023012 91.987978 
L 567.79167 92.202527 
L 567.79167 91.560895 
L 564.86228 91.708107 
L 564.86228 89.56712 
L 563.560329 89.627872 
L 563.560329 88.589647 
L 560.956427 88.70696 
L 560.956427 86.982693 
L 548.099659 87.438234 
L 548.099659 87.141148 
L 547.611427 87.162421 
L 547.611427 86.963822 
L 547.285939 86.977899 
L 547.285939 86.5796 
L 547.123195 86.586516 
L 547.123195 85.685928 
L 537.846793 85.968778 
L 537.846793 85.763863 
L 537.358562 85.784265 
L 537.358562 85.578846 
L 534.754659 85.687292 
L 534.754659 85.376923 
L 517.178318 86.131486 
L 517.178318 85.700727 
L 514.248928 85.829776 
L 514.248928 85.176997 
L 513.597953 85.20498 
L 513.597953 84.876991 
L 511.156794 84.980918 
L 511.156794 84.540035 
L 508.87838 84.635876 
L 508.87838 82.961757 
L 503.345087 83.177739 
L 503.345087 82.950172 
L 500.903929 83.046037 
L 500.903929 82.126951 
L 498.46277 82.218723 
L 498.46277 81.288404 
L 491.627526 81.536158 
L 491.627526 81.417527 
L 478.933502 81.897394 
L 478.933502 80.544504 
L 477.306064 80.602832 
L 477.306064 80.23013 
L 475.678625 80.287428 
L 475.678625 80.037399 
L 461.194418 80.560495 
L 461.194418 80.300476 
L 459.892467 80.348658 
L 459.892467 80.087274 
L 458.427771 80.140879 
L 458.427771 79.614642 
L 454.684662 79.748338 
L 454.684662 79.348399 
L 440.037711 79.883407 
L 440.037711 79.744334 
L 433.853443 79.981892 
L 433.853443 79.556442 
L 423.437834 79.964012 
L 423.437834 79.817524 
L 412.533992 80.268547 
L 412.533992 79.509223 
L 408.139907 79.689643 
L 408.139907 79.380601 
L 391.865518 80.079959 
L 391.865518 79.916866 
L 380.636189 80.440912 
L 380.636189 80.101558 
L 374.289177 80.409378 
L 374.289177 80.235603 
L 351.016799 81.483737 
L 349.714848 81.560531 
L 349.714848 81.179313 
L 337.6718 81.911553 
L 337.6718 81.711233 
L 334.579666 81.909026 
L 334.579666 81.298711 
L 329.209117 81.641345 
L 329.209117 81.014502 
L 326.930703 81.158757 
L 326.930703 79.671 
L 324.3268 79.82266 
L 324.3268 79.60643 
L 318.630764 79.945606 
L 318.630764 79.278267 
L 314.72491 79.509596 
L 314.72491 79.054954 
L 308.86613 79.406098 
L 308.86613 78.937334 
L 303.658325 79.25514 
L 303.658325 78.772888 
L 299.426984 79.033614 
L 299.426984 77.795177 
L 297.799545 77.888342 
L 297.799545 77.385874 
L 280.548692 78.433403 
L 272.899729 78.968373 
L 272.899729 77.519706 
L 257.764546 78.598885 
L 257.764546 78.278783 
L 245.070522 79.341196 
L 245.070522 78.289639 
L 232.376498 79.467922 
L 223.26284 80.477206 
L 223.26284 79.222096 
L 212.847231 80.473729 
L 207.80217 81.176624 
L 207.80217 80.691928 
L 206.337475 80.902828 
L 206.337475 78.918854 
L 198.525768 79.993807 
L 190.388573 81.340275 
L 184.204305 82.5655 
L 182.73961 82.886895 
L 182.73961 82.229363 
L 181.92589 82.406501 
L 181.92589 81.067739 
L 178.671012 81.757604 
L 178.671012 78.195557 
L 176.718086 78.539503 
L 176.718086 74.779406 
L 169.720098 75.756832 
L 165.488757 76.476069 
L 165.488757 75.55148 
L 160.443696 76.482724 
L 155.886867 77.516198 
L 152.469245 78.451557 
L 149.865343 79.283525 
L 146.610465 80.509746 
L 146.610465 77.604608 
L 144.33205 78.410146 
L 144.33205 76.82775 
L 142.541867 77.455179 
L 142.541867 72.300194 
L 141.565404 72.495567 
L 141.565404 68.827969 
L 141.077172 68.863214 
L 141.077172 66.96 
L 115.363636 66.96 
L 115.363636 66.96 
" clip-path="url(#pc70fa63e7a)" style="fill: none; stroke: #1f77b4; stroke-width: 1.5; stroke-linecap: square"/>
   </g>
   <g id="line2d_26">
    <path d="M 622.636364 369.36 
L 622.636364 369.35003 
L 620.656763 369.256232 
L 620.656763 369.239781 
L 620.656763 369.239211 
L 619.172062 369.151871 
L 619.172062 369.129076 
L 619.172062 369.090174 
L 613.893126 368.992746 
L 613.893126 368.984093 
L 613.893126 368.912552 
L 613.068293 368.856425 
L 613.068293 368.802528 
L 613.068293 368.713197 
L 611.583592 368.611706 
L 611.583592 368.604638 
L 611.583592 368.566316 
L 607.62439 368.519206 
L 607.62439 368.463201 
L 607.62439 368.12432 
L 606.304656 368.031078 
L 606.304656 368.01707 
L 606.304656 367.929733 
L 605.974723 367.826754 
L 605.974723 367.819725 
L 605.974723 367.76124 
L 605.644789 367.76245 
L 605.644789 367.651346 
L 605.644789 367.549626 
L 604.160089 367.453144 
L 604.160089 367.444601 
L 604.160089 367.438811 
L 602.675388 367.381597 
L 602.675388 367.334131 
L 602.675388 367.280869 
L 601.355654 367.287025 
L 601.355654 367.17595 
L 601.355654 366.792585 
L 600.03592 366.800061 
L 600.03592 366.688948 
L 600.03592 366.425609 
L 599.04612 366.410599 
L 599.04612 366.321056 
L 599.04612 366.278984 
L 598.221286 366.241008 
L 598.221286 366.173476 
L 598.221286 365.644302 
L 596.901552 365.654895 
L 596.901552 365.54399 
L 596.901552 364.264973 
L 596.736585 364.266759 
L 596.736585 364.156268 
L 596.736585 362.286692 
L 596.406652 362.291565 
L 596.406652 362.180729 
L 596.406652 361.583191 
L 596.241685 361.585858 
L 596.241685 361.474751 
L 596.241685 361.39248 
L 596.076718 361.39521 
L 596.076718 361.284655 
L 596.076718 361.024941 
L 595.911752 361.027791 
L 595.911752 360.916742 
L 595.911752 356.994951 
L 595.746785 356.999089 
L 595.746785 356.887989 
L 595.746785 350.880853 
L 591.95255 351.019425 
L 591.95255 350.908539 
L 591.95255 342.518052 
L 589.643016 342.637482 
L 589.643016 342.526968 
L 589.643016 316.091373 
L 588.653215 316.183292 
L 588.653215 316.091211 
L 588.653215 225.711688 
L 588.488248 225.737998 
L 588.488248 165.649867 
L 588.323282 165.673061 
L 588.323282 165.577177 
L 588.323282 121.405744 
L 587.993348 121.436909 
L 587.993348 116.438004 
L 587.663415 116.466913 
L 587.663415 110.021782 
L 587.333481 110.047598 
L 587.333481 103.83433 
L 586.013747 103.925098 
L 586.013747 102.528259 
L 585.683814 102.550276 
L 585.683814 99.287805 
L 585.023947 99.328367 
L 585.023947 97.53642 
L 584.694013 97.555741 
L 584.694013 94.952724 
L 584.529047 94.961656 
L 584.529047 91.949812 
L 584.034146 91.974019 
L 584.034146 91.794635 
L 582.054545 91.891299 
L 582.054545 91.801202 
L 582.054545 91.078314 
L 580.734812 91.141245 
L 580.734812 91.050403 
L 580.734812 90.959502 
L 580.239911 90.891981 
L 580.239911 89.519178 
L 578.26031 89.608433 
L 578.26031 89.238724 
L 577.435477 89.27556 
L 577.435477 88.718313 
L 576.28071 88.768897 
L 576.28071 88.675607 
L 576.28071 87.268785 
L 572.816408 87.317282 
L 572.816408 87.127277 
L 569.68204 87.161412 
L 569.68204 86.489922 
L 567.042572 86.596643 
L 567.042572 85.334665 
L 562.423503 85.512874 
L 562.423503 85.414448 
L 562.423503 85.11876 
L 561.928603 85.137675 
L 561.928603 84.940014 
L 558.629268 85.065837 
L 558.629268 84.167084 
L 556.814634 84.133201 
L 556.814634 84.032553 
L 555.4949 83.979862 
L 555.4949 83.878803 
L 554.0102 83.932857 
L 554.0102 83.628339 
L 552.360532 83.687784 
L 552.360532 83.38159 
L 545.596896 83.521893 
L 545.596896 83.210518 
L 543.617295 83.177214 
L 543.617295 83.072767 
L 541.637694 83.143592 
L 541.637694 82.828491 
L 539.988027 82.886895 
L 539.988027 82.57 
L 532.399557 82.731627 
L 532.399557 82.624035 
L 525.63592 82.759431 
L 525.63592 82.650086 
L 513.098448 83.005752 
L 513.098448 82.893153 
L 507.159645 83.121767 
L 507.159645 82.893248 
L 505.015078 82.9763 
L 505.015078 81.358427 
L 503.86031 81.399183 
L 503.86031 80.463939 
L 493.467406 80.818123 
L 493.467406 80.697859 
L 492.312639 80.738028 
L 492.312639 80.617329 
L 486.373836 80.825926 
L 486.373836 80.457942 
L 485.878936 80.475166 
L 485.878936 80.352147 
L 481.0949 80.519476 
L 481.0949 80.394885 
L 477.465632 80.523505 
L 477.465632 80.271721 
L 472.186696 80.459873 
L 472.186696 80.076266 
L 468.062528 80.222915 
L 468.062528 80.093453 
L 447.276718 80.878097 
L 447.276718 79.916703 
L 436.883814 80.317033 
L 436.883814 80.033033 
L 432.594678 80.202053 
L 432.594678 79.91398 
L 426.160976 80.17043 
L 426.160976 78.545414 
L 425.336142 78.575059 
L 425.336142 78.127602 
L 394.322395 79.153746 
L 394.322395 78.98883 
L 384.42439 79.413128 
L 384.42439 79.242447 
L 366.443016 80.083922 
L 366.443016 79.537032 
L 362.15388 79.74638 
L 362.15388 79.188668 
L 356.874945 79.444933 
L 356.874945 79.06444 
L 354.730377 79.168513 
L 354.730377 78.783874 
L 348.791574 79.072652 
L 348.791574 78.875437 
L 346.152106 79.006286 
L 346.152106 78.806722 
L 333.779601 79.450099 
L 333.779601 79.029329 
L 325.036364 79.511738 
L 325.036364 79.292826 
L 324.21153 79.339541 
L 324.21153 78.899129 
L 315.963193 79.369915 
L 315.963193 78.681691 
L 311.839024 78.918015 
L 311.839024 78.213117 
L 293.692683 79.31147 
L 293.692683 79.05369 
L 290.558315 79.26126 
L 290.558315 76.347568 
L 272.08204 77.416071 
L 258.719734 78.353991 
L 244.697561 79.537964 
L 231.830155 80.863749 
L 228.53082 81.249964 
L 228.53082 79.639232 
L 224.736585 80.060043 
L 224.736585 79.222096 
L 222.262084 79.494184 
L 222.262084 78.633422 
L 214.508647 79.508463 
L 214.508647 79.045104 
L 204.77561 80.302637 
L 203.455876 80.493587 
L 203.455876 79.975527 
L 203.125942 80.022346 
L 203.125942 79.500636 
L 200.486475 79.8729 
L 200.486475 79.334428 
L 191.908204 80.658441 
L 191.248337 80.772121 
L 191.248337 80.171707 
L 188.773836 80.596977 
L 188.773836 79.351399 
L 181.350333 80.682217 
L 175.246563 82.011333 
L 170.462528 83.247844 
L 165.843459 84.651105 
L 161.71929 86.125364 
L 157.595122 87.867669 
L 155.285588 88.989154 
L 155.285588 86.822498 
L 151.821286 88.575072 
L 148.686918 90.450352 
L 145.882483 92.427263 
L 143.572949 94.323761 
L 140.768514 97.044135 
L 137.634146 100.804652 
L 135.819512 103.445015 
L 135.324612 104.238167 
L 135.324612 98.341882 
L 133.509978 101.125759 
L 130.87051 106.187352 
L 130.045676 108.091593 
L 128.560976 112.029724 
L 127.241242 116.222257 
L 126.416408 119.263137 
L 125.261641 124.210731 
L 124.766741 126.629775 
L 124.766741 123.159187 
L 124.436807 124.812104 
L 124.436807 109.514672 
L 123.28204 114.740685 
L 123.28204 110.190143 
L 121.302439 121.980183 
L 119.322838 142.612751 
L 119.322838 90.23777 
L 118.168071 98.81379 
L 118.168071 66.96 
L 115.363636 66.96 
L 115.363636 66.96 
" clip-path="url(#pc70fa63e7a)" style="fill: none; stroke: #ff7f0e; stroke-width: 1.5; stroke-linecap: square"/>
   </g>
   <g id="patch_3">
    <path d="M 90 384.48 
L 90 51.84 
" style="fill: none; stroke: #000000; stroke-width: 0.8; stroke-linejoin: miter; stroke-linecap: square"/>
   </g>
   <g id="patch_4">
    <path d="M 648 384.48 
L 648 51.84 
" style="fill: none; stroke: #000000; stroke-width: 0.8; stroke-linejoin: miter; stroke-linecap: square"/>
   </g>
   <g id="patch_5">
    <path d="M 90 384.48 
L 648 384.48 
" style="fill: none; stroke: #000000; stroke-width: 0.8; stroke-linejoin: miter; stroke-linecap: square"/>
   </g>
   <g id="patch_6">
    <path d="M 90 51.84 
L 648 51.84 
" style="fill: none; stroke: #000000; stroke-width: 0.8; stroke-linejoin: miter; stroke-linecap: square"/>
   </g>
   <g id="text_15">
    <!-- Precision-Recall Curves -->
    <g transform="translate(299.431875 32.402625) scale(0.12 -0.12)">
     <defs>
      <path id="DejaVuSans-2d" d="M 313 2009 
L 1997 2009 
L 1997 1497 
L 313 1497 
L 313 2009 
z
" transform="scale(0.015625)"/>
      <path id="DejaVuSans-20" transform="scale(0.015625)"/>
      <path id="DejaVuSans-43" d="M 4122 4306 
L 4122 3641 
Q 3803 3938 3442 4084 
Q 3081 4231 2675 4231 
Q 1875 4231 1450 3742 
Q 1025 3253 1025 2328 
Q 1025 1406 1450 917 
Q 1875 428 2675 428 
Q 3081 428 3442 575 
Q 3803 722 4122 1019 
L 4122 359 
Q 3791 134 3420 21 
Q 3050 -91 2638 -91 
Q 1578 -91 968 557 
Q 359 1206 359 2328 
Q 359 3453 968 4101 
Q 1578 4750 2638 4750 
Q 3056 4750 3426 4639 
Q 3797 4528 4122 4306 
z
" transform="scale(0.015625)"/>
      <path id="DejaVuSans-75" d="M 544 1381 
L 544 3500 
L 1119 3500 
L 1119 1403 
Q 1119 906 1312 657 
Q 1506 409 1894 409 
Q 2359 409 2629 706 
Q 2900 1003 2900 1516 
L 2900 3500 
L 3475 3500 
L 3475 0 
L 2900 0 
L 2900 538 
Q 2691 219 2414 64 
Q 2138 -91 1772 -91 
Q 1169 -91 856 284 
Q 544 659 544 1381 
z
M 1991 3584 
L 1991 3584 
z
" transform="scale(0.015625)"/>
      <path id="DejaVuSans-76" d="M 191 3500 
L 800 3500 
L 1894 563 
L 2988 3500 
L 3597 3500 
L 2284 0 
L 1503 0 
L 191 3500 
z
" transform="scale(0.015625)"/>
     </defs>
     <use xlink:href="#DejaVuSans-50"/>
     <use xlink:href="#DejaVuSans-72" transform="translate(58.552734 0)"/>
     <use xlink:href="#DejaVuSans-65" transform="translate(97.416016 0)"/>
     <use xlink:href="#DejaVuSans-63" transform="translate(158.939453 0)"/>
     <use xlink:href="#DejaVuSans-69" transform="translate(213.919922 0)"/>
     <use xlink:href="#DejaVuSans-73" transform="translate(241.703125 0)"/>
     <use xlink:href="#DejaVuSans-69" transform="translate(293.802734 0)"/>
     <use xlink:href="#DejaVuSans-6f" transform="translate(321.585938 0)"/>
     <use xlink:href="#DejaVuSans-6e" transform="translate(382.767578 0)"/>
     <use xlink:href="#DejaVuSans-2d" transform="translate(446.146484 0)"/>
     <use xlink:href="#DejaVuSans-52" transform="translate(482.230469 0)"/>
     <use xlink:href="#DejaVuSans-65" transform="translate(547.212891 0)"/>
     <use xlink:href="#DejaVuSans-63" transform="translate(608.736328 0)"/>
     <use xlink:href="#DejaVuSans-61" transform="translate(663.716797 0)"/>
     <use xlink:href="#DejaVuSans-6c" transform="translate(724.996094 0)"/>
     <use xlink:href="#DejaVuSans-6c" transform="translate(752.779297 0)"/>
     <use xlink:href="#DejaVuSans-20" transform="translate(780.5625 0)"/>
     <use xlink:href="#DejaVuSans-43" transform="translate(812.349609 0)"/>
     <use xlink:href="#DejaVuSans-75" transform="translate(882.173828 0)"/>
     <use xlink:href="#DejaVuSans-72" transform="translate(945.552734 0)"/>
     <use xlink:href="#DejaVuSans-76" transform="translate(986.666016 0)"/>
     <use xlink:href="#DejaVuSans-65" transform="translate(1045.845703 0)"/>
     <use xlink:href="#DejaVuSans-73" transform="translate(1107.369141 0)"/>
    </g>
    <!-- Mean AUPRC: 0.897, Mean Top-k: 0.914 -->
    <g transform="translate(250.53 45.84) scale(0.12 -0.12)">
     <defs>
      <path id="DejaVuSans-4d" d="M 628 4666 
L 1569 4666 
L 2759 1491 
L 3956 4666 
L 4897 4666 
L 4897 0 
L 4281 0 
L 4281 4097 
L 3078 897 
L 2444 897 
L 1241 4097 
L 1241 0 
L 628 0 
L 628 4666 
z
" transform="scale(0.015625)"/>
      <path id="DejaVuSans-41" d="M 2188 4044 
L 1331 1722 
L 3047 1722 
L 2188 4044 
z
M 1831 4666 
L 2547 4666 
L 4325 0 
L 3669 0 
L 3244 1197 
L 1141 1197 
L 716 0 
L 50 0 
L 1831 4666 
z
" transform="scale(0.015625)"/>
      <path id="DejaVuSans-55" d="M 556 4666 
L 1191 4666 
L 1191 1831 
Q 1191 1081 1462 751 
Q 1734 422 2344 422 
Q 2950 422 3222 751 
Q 3494 1081 3494 1831 
L 3494 4666 
L 4128 4666 
L 4128 1753 
Q 4128 841 3676 375 
Q 3225 -91 2344 -91 
Q 1459 -91 1007 375 
Q 556 841 556 1753 
L 556 4666 
z
" transform="scale(0.015625)"/>
      <path id="DejaVuSans-3a" d="M 750 794 
L 1409 794 
L 1409 0 
L 750 0 
L 750 794 
z
M 750 3309 
L 1409 3309 
L 1409 2516 
L 750 2516 
L 750 3309 
z
" transform="scale(0.015625)"/>
      <path id="DejaVuSans-39" d="M 703 97 
L 703 672 
Q 941 559 1184 500 
Q 1428 441 1663 441 
Q 2288 441 2617 861 
Q 2947 1281 2994 2138 
Q 2813 1869 2534 1725 
Q 2256 1581 1919 1581 
Q 1219 1581 811 2004 
Q 403 2428 403 3163 
Q 403 3881 828 4315 
Q 1253 4750 1959 4750 
Q 2769 4750 3195 4129 
Q 3622 3509 3622 2328 
Q 3622 1225 3098 567 
Q 2575 -91 1691 -91 
Q 1453 -91 1209 -44 
Q 966 3 703 97 
z
M 1959 2075 
Q 2384 2075 2632 2365 
Q 2881 2656 2881 3163 
Q 2881 3666 2632 3958 
Q 2384 4250 1959 4250 
Q 1534 4250 1286 3958 
Q 1038 3666 1038 3163 
Q 1038 2656 1286 2365 
Q 1534 2075 1959 2075 
z
" transform="scale(0.015625)"/>
      <path id="DejaVuSans-37" d="M 525 4666 
L 3525 4666 
L 3525 4397 
L 1831 0 
L 1172 0 
L 2766 4134 
L 525 4134 
L 525 4666 
z
" transform="scale(0.015625)"/>
      <path id="DejaVuSans-2c" d="M 750 794 
L 1409 794 
L 1409 256 
L 897 -744 
L 494 -744 
L 750 256 
L 750 794 
z
" transform="scale(0.015625)"/>
      <path id="DejaVuSans-54" d="M -19 4666 
L 3928 4666 
L 3928 4134 
L 2272 4134 
L 2272 0 
L 1638 0 
L 1638 4134 
L -19 4134 
L -19 4666 
z
" transform="scale(0.015625)"/>
      <path id="DejaVuSans-70" d="M 1159 525 
L 1159 -1331 
L 581 -1331 
L 581 3500 
L 1159 3500 
L 1159 2969 
Q 1341 3281 1617 3432 
Q 1894 3584 2278 3584 
Q 2916 3584 3314 3078 
Q 3713 2572 3713 1747 
Q 3713 922 3314 415 
Q 2916 -91 2278 -91 
Q 1894 -91 1617 61 
Q 1341 213 1159 525 
z
M 3116 1747 
Q 3116 2381 2855 2742 
Q 2594 3103 2138 3103 
Q 1681 3103 1420 2742 
Q 1159 2381 1159 1747 
Q 1159 1113 1420 752 
Q 1681 391 2138 391 
Q 2594 391 2855 752 
Q 3116 1113 3116 1747 
z
" transform="scale(0.015625)"/>
      <path id="DejaVuSans-6b" d="M 581 4863 
L 1159 4863 
L 1159 1991 
L 2875 3500 
L 3609 3500 
L 1753 1863 
L 3688 0 
L 2938 0 
L 1159 1709 
L 1159 0 
L 581 0 
L 581 4863 
z
" transform="scale(0.015625)"/>
     </defs>
     <use xlink:href="#DejaVuSans-4d"/>
     <use xlink:href="#DejaVuSans-65" transform="translate(86.279297 0)"/>
     <use xlink:href="#DejaVuSans-61" transform="translate(147.802734 0)"/>
     <use xlink:href="#DejaVuSans-6e" transform="translate(209.082031 0)"/>
     <use xlink:href="#DejaVuSans-20" transform="translate(272.460938 0)"/>
     <use xlink:href="#DejaVuSans-41" transform="translate(304.248047 0)"/>
     <use xlink:href="#DejaVuSans-55" transform="translate(372.65625 0)"/>
     <use xlink:href="#DejaVuSans-50" transform="translate(445.849609 0)"/>
     <use xlink:href="#DejaVuSans-52" transform="translate(506.152344 0)"/>
     <use xlink:href="#DejaVuSans-43" transform="translate(570.634766 0)"/>
     <use xlink:href="#DejaVuSans-3a" transform="translate(640.458984 0)"/>
     <use xlink:href="#DejaVuSans-20" transform="translate(674.150391 0)"/>
     <use xlink:href="#DejaVuSans-30" transform="translate(705.9375 0)"/>
     <use xlink:href="#DejaVuSans-2e" transform="translate(769.560547 0)"/>
     <use xlink:href="#DejaVuSans-38" transform="translate(801.347656 0)"/>
     <use xlink:href="#DejaVuSans-39" transform="translate(864.970703 0)"/>
     <use xlink:href="#DejaVuSans-37" transform="translate(928.59375 0)"/>
     <use xlink:href="#DejaVuSans-2c" transform="translate(992.216797 0)"/>
     <use xlink:href="#DejaVuSans-20" transform="translate(1024.003906 0)"/>
     <use xlink:href="#DejaVuSans-4d" transform="translate(1055.791016 0)"/>
     <use xlink:href="#DejaVuSans-65" transform="translate(1142.070312 0)"/>
     <use xlink:href="#DejaVuSans-61" transform="translate(1203.59375 0)"/>
     <use xlink:href="#DejaVuSans-6e" transform="translate(1264.873047 0)"/>
     <use xlink:href="#DejaVuSans-20" transform="translate(1328.251953 0)"/>
     <use xlink:href="#DejaVuSans-54" transform="translate(1360.039062 0)"/>
     <use xlink:href="#DejaVuSans-6f" transform="translate(1404.123047 0)"/>
     <use xlink:href="#DejaVuSans-70" transform="translate(1465.304688 0)"/>
     <use xlink:href="#DejaVuSans-2d" transform="translate(1528.78125 0)"/>
     <use xlink:href="#DejaVuSans-6b" transform="translate(1564.865234 0)"/>
     <use xlink:href="#DejaVuSans-3a" transform="translate(1622.775391 0)"/>
     <use xlink:href="#DejaVuSans-20" transform="translate(1656.466797 0)"/>
     <use xlink:href="#DejaVuSans-30" transform="translate(1688.253906 0)"/>
     <use xlink:href="#DejaVuSans-2e" transform="translate(1751.876953 0)"/>
     <use xlink:href="#DejaVuSans-39" transform="translate(1783.664062 0)"/>
     <use xlink:href="#DejaVuSans-31" transform="translate(1847.287109 0)"/>
     <use xlink:href="#DejaVuSans-34" transform="translate(1910.910156 0)"/>
    </g>
   </g>
   <g id="legend_1">
    <g id="patch_7">
     <path d="M 97 379.48 
L 254.923437 379.48 
Q 256.923437 379.48 256.923437 377.48 
L 256.923437 349.12375 
Q 256.923437 347.12375 254.923437 347.12375 
L 97 347.12375 
Q 95 347.12375 95 349.12375 
L 95 377.48 
Q 95 379.48 97 379.48 
z
" style="fill: #ffffff; opacity: 0.8; stroke: #cccccc; stroke-linejoin: miter"/>
    </g>
    <g id="line2d_27">
     <path d="M 99 355.222188 
L 109 355.222188 
L 119 355.222188 
" style="fill: none; stroke: #1f77b4; stroke-width: 1.5; stroke-linecap: square"/>
    </g>
    <g id="text_16">
     <!-- Acceptor (AUPRC=0.907) -->
     <g transform="translate(127 358.722188) scale(0.1 -0.1)">
      <defs>
       <path id="DejaVuSans-74" d="M 1172 4494 
L 1172 3500 
L 2356 3500 
L 2356 3053 
L 1172 3053 
L 1172 1153 
Q 1172 725 1289 603 
Q 1406 481 1766 481 
L 2356 481 
L 2356 0 
L 1766 0 
Q 1100 0 847 248 
Q 594 497 594 1153 
L 594 3053 
L 172 3053 
L 172 3500 
L 594 3500 
L 594 4494 
L 1172 4494 
z
" transform="scale(0.015625)"/>
       <path id="DejaVuSans-28" d="M 1984 4856 
Q 1566 4138 1362 3434 
Q 1159 2731 1159 2009 
Q 1159 1288 1364 580 
Q 1569 -128 1984 -844 
L 1484 -844 
Q 1016 -109 783 600 
Q 550 1309 550 2009 
Q 550 2706 781 3412 
Q 1013 4119 1484 4856 
L 1984 4856 
z
" transform="scale(0.015625)"/>
       <path id="DejaVuSans-3d" d="M 678 2906 
L 4684 2906 
L 4684 2381 
L 678 2381 
L 678 2906 
z
M 678 1631 
L 4684 1631 
L 4684 1100 
L 678 1100 
L 678 1631 
z
" transform="scale(0.015625)"/>
       <path id="DejaVuSans-29" d="M 513 4856 
L 1013 4856 
Q 1481 4119 1714 3412 
Q 1947 2706 1947 2009 
Q 1947 1309 1714 600 
Q 1481 -109 1013 -844 
L 513 -844 
Q 928 -128 1133 580 
Q 1338 1288 1338 2009 
Q 1338 2731 1133 3434 
Q 928 4138 513 4856 
z
" transform="scale(0.015625)"/>
      </defs>
      <use xlink:href="#DejaVuSans-41"/>
      <use xlink:href="#DejaVuSans-63" transform="translate(66.658203 0)"/>
      <use xlink:href="#DejaVuSans-63" transform="translate(121.638672 0)"/>
      <use xlink:href="#DejaVuSans-65" transform="translate(176.619141 0)"/>
      <use xlink:href="#DejaVuSans-70" transform="translate(238.142578 0)"/>
      <use xlink:href="#DejaVuSans-74" transform="translate(301.619141 0)"/>
      <use xlink:href="#DejaVuSans-6f" transform="translate(340.828125 0)"/>
      <use xlink:href="#DejaVuSans-72" transform="translate(402.009766 0)"/>
      <use xlink:href="#DejaVuSans-20" transform="translate(443.123047 0)"/>
      <use xlink:href="#DejaVuSans-28" transform="translate(474.910156 0)"/>
      <use xlink:href="#DejaVuSans-41" transform="translate(513.923828 0)"/>
      <use xlink:href="#DejaVuSans-55" transform="translate(582.332031 0)"/>
      <use xlink:href="#DejaVuSans-50" transform="translate(655.525391 0)"/>
      <use xlink:href="#DejaVuSans-52" transform="translate(715.828125 0)"/>
      <use xlink:href="#DejaVuSans-43" transform="translate(780.310547 0)"/>
      <use xlink:href="#DejaVuSans-3d" transform="translate(850.134766 0)"/>
      <use xlink:href="#DejaVuSans-30" transform="translate(933.923828 0)"/>
      <use xlink:href="#DejaVuSans-2e" transform="translate(997.546875 0)"/>
      <use xlink:href="#DejaVuSans-39" transform="translate(1029.333984 0)"/>
      <use xlink:href="#DejaVuSans-30" transform="translate(1092.957031 0)"/>
      <use xlink:href="#DejaVuSans-37" transform="translate(1156.580078 0)"/>
      <use xlink:href="#DejaVuSans-29" transform="translate(1220.203125 0)"/>
     </g>
    </g>
    <g id="line2d_28">
     <path d="M 99 369.900312 
L 109 369.900312 
L 119 369.900312 
" style="fill: none; stroke: #ff7f0e; stroke-width: 1.5; stroke-linecap: square"/>
    </g>
    <g id="text_17">
     <!-- Donor (AUPRC=0.887) -->
     <g transform="translate(127 373.400312) scale(0.1 -0.1)">
      <defs>
       <path id="DejaVuSans-44" d="M 1259 4147 
L 1259 519 
L 2022 519 
Q 2988 519 3436 956 
Q 3884 1394 3884 2338 
Q 3884 3275 3436 3711 
Q 2988 4147 2022 4147 
L 1259 4147 
z
M 628 4666 
L 1925 4666 
Q 3281 4666 3915 4102 
Q 4550 3538 4550 2338 
Q 4550 1131 3912 565 
Q 3275 0 1925 0 
L 628 0 
L 628 4666 
z
" transform="scale(0.015625)"/>
      </defs>
      <use xlink:href="#DejaVuSans-44"/>
      <use xlink:href="#DejaVuSans-6f" transform="translate(77.001953 0)"/>
      <use xlink:href="#DejaVuSans-6e" transform="translate(138.183594 0)"/>
      <use xlink:href="#DejaVuSans-6f" transform="translate(201.5625 0)"/>
      <use xlink:href="#DejaVuSans-72" transform="translate(262.744141 0)"/>
      <use xlink:href="#DejaVuSans-20" transform="translate(303.857422 0)"/>
      <use xlink:href="#DejaVuSans-28" transform="translate(335.644531 0)"/>
      <use xlink:href="#DejaVuSans-41" transform="translate(374.658203 0)"/>
      <use xlink:href="#DejaVuSans-55" transform="translate(443.066406 0)"/>
      <use xlink:href="#DejaVuSans-50" transform="translate(516.259766 0)"/>
      <use xlink:href="#DejaVuSans-52" transform="translate(576.5625 0)"/>
      <use xlink:href="#DejaVuSans-43" transform="translate(641.044922 0)"/>
      <use xlink:href="#DejaVuSans-3d" transform="translate(710.869141 0)"/>
      <use xlink:href="#DejaVuSans-30" transform="translate(794.658203 0)"/>
      <use xlink:href="#DejaVuSans-2e" transform="translate(858.28125 0)"/>
      <use xlink:href="#DejaVuSans-38" transform="translate(890.068359 0)"/>
      <use xlink:href="#DejaVuSans-38" transform="translate(953.691406 0)"/>
      <use xlink:href="#DejaVuSans-37" transform="translate(1017.314453 0)"/>
      <use xlink:href="#DejaVuSans-29" transform="translate(1080.9375 0)"/>
     </g>
    </g>
   </g>
  </g>
 </g>
 <defs>
  <clipPath id="pc70fa63e7a">
   <rect x="90" y="51.84" width="558" height="332.64"/>
  </clipPath>
 </defs>
</svg>
