<?xml version="1.0" encoding="utf-8" standalone="no"?>
<!DOCTYPE svg PUBLIC "-//W3C//DTD SVG 1.1//EN"
  "http://www.w3.org/Graphics/SVG/1.1/DTD/svg11.dtd">
<svg xmlns:xlink="http://www.w3.org/1999/xlink" width="720pt" height="432pt" viewBox="0 0 720 432" xmlns="http://www.w3.org/2000/svg" version="1.1">
 <metadata>
  <rdf:RDF xmlns:dc="http://purl.org/dc/elements/1.1/" xmlns:cc="http://creativecommons.org/ns#" xmlns:rdf="http://www.w3.org/1999/02/22-rdf-syntax-ns#">
   <cc:Work>
    <dc:type rdf:resource="http://purl.org/dc/dcmitype/StillImage"/>
    <dc:date>2025-04-21T10:26:01.768107</dc:date>
    <dc:format>image/svg+xml</dc:format>
    <dc:creator>
     <cc:Agent>
      <dc:title>Matplotlib v3.10.1, https://matplotlib.org/</dc:title>
     </cc:Agent>
    </dc:creator>
   </cc:Work>
  </rdf:RDF>
 </metadata>
 <defs>
  <style type="text/css">*{stroke-linejoin: round; stroke-linecap: butt}</style>
 </defs>
 <g id="figure_1">
  <g id="patch_1">
   <path d="M 0 432 
L 720 432 
L 720 0 
L 0 0 
z
" style="fill: #ffffff"/>
  </g>
  <g id="axes_1">
   <g id="patch_2">
    <path d="M 90 384.48 
L 648 384.48 
L 648 51.84 
L 90 51.84 
z
" style="fill: #ffffff"/>
   </g>
   <g id="matplotlib.axis_1">
    <g id="xtick_1">
     <g id="line2d_1">
      <path d="M 115.363636 384.48 
L 115.363636 51.84 
" clip-path="url(#p23df9340d5)" style="fill: none; stroke: #b0b0b0; stroke-width: 0.8; stroke-linecap: square"/>
     </g>
     <g id="line2d_2">
      <defs>
       <path id="m33f0a7f489" d="M 0 0 
L 0 3.5 
" style="stroke: #000000; stroke-width: 0.8"/>
      </defs>
      <g>
       <use xlink:href="#m33f0a7f489" x="115.363636" y="384.48" style="stroke: #000000; stroke-width: 0.8"/>
      </g>
     </g>
     <g id="text_1">
      <!-- 0.0 -->
      <g transform="translate(107.412074 399.078438) scale(0.1 -0.1)">
       <defs>
        <path id="DejaVuSans-30" d="M 2034 4250 
Q 1547 4250 1301 3770 
Q 1056 3291 1056 2328 
Q 1056 1369 1301 889 
Q 1547 409 2034 409 
Q 2525 409 2770 889 
Q 3016 1369 3016 2328 
Q 3016 3291 2770 3770 
Q 2525 4250 2034 4250 
z
M 2034 4750 
Q 2819 4750 3233 4129 
Q 3647 3509 3647 2328 
Q 3647 1150 3233 529 
Q 2819 -91 2034 -91 
Q 1250 -91 836 529 
Q 422 1150 422 2328 
Q 422 3509 836 4129 
Q 1250 4750 2034 4750 
z
" transform="scale(0.015625)"/>
        <path id="DejaVuSans-2e" d="M 684 794 
L 1344 794 
L 1344 0 
L 684 0 
L 684 794 
z
" transform="scale(0.015625)"/>
       </defs>
       <use xlink:href="#DejaVuSans-30"/>
       <use xlink:href="#DejaVuSans-2e" transform="translate(63.623047 0)"/>
       <use xlink:href="#DejaVuSans-30" transform="translate(95.410156 0)"/>
      </g>
     </g>
    </g>
    <g id="xtick_2">
     <g id="line2d_3">
      <path d="M 216.818182 384.48 
L 216.818182 51.84 
" clip-path="url(#p23df9340d5)" style="fill: none; stroke: #b0b0b0; stroke-width: 0.8; stroke-linecap: square"/>
     </g>
     <g id="line2d_4">
      <g>
       <use xlink:href="#m33f0a7f489" x="216.818182" y="384.48" style="stroke: #000000; stroke-width: 0.8"/>
      </g>
     </g>
     <g id="text_2">
      <!-- 0.2 -->
      <g transform="translate(208.866619 399.078438) scale(0.1 -0.1)">
       <defs>
        <path id="DejaVuSans-32" d="M 1228 531 
L 3431 531 
L 3431 0 
L 469 0 
L 469 531 
Q 828 903 1448 1529 
Q 2069 2156 2228 2338 
Q 2531 2678 2651 2914 
Q 2772 3150 2772 3378 
Q 2772 3750 2511 3984 
Q 2250 4219 1831 4219 
Q 1534 4219 1204 4116 
Q 875 4013 500 3803 
L 500 4441 
Q 881 4594 1212 4672 
Q 1544 4750 1819 4750 
Q 2544 4750 2975 4387 
Q 3406 4025 3406 3419 
Q 3406 3131 3298 2873 
Q 3191 2616 2906 2266 
Q 2828 2175 2409 1742 
Q 1991 1309 1228 531 
z
" transform="scale(0.015625)"/>
       </defs>
       <use xlink:href="#DejaVuSans-30"/>
       <use xlink:href="#DejaVuSans-2e" transform="translate(63.623047 0)"/>
       <use xlink:href="#DejaVuSans-32" transform="translate(95.410156 0)"/>
      </g>
     </g>
    </g>
    <g id="xtick_3">
     <g id="line2d_5">
      <path d="M 318.272727 384.48 
L 318.272727 51.84 
" clip-path="url(#p23df9340d5)" style="fill: none; stroke: #b0b0b0; stroke-width: 0.8; stroke-linecap: square"/>
     </g>
     <g id="line2d_6">
      <g>
       <use xlink:href="#m33f0a7f489" x="318.272727" y="384.48" style="stroke: #000000; stroke-width: 0.8"/>
      </g>
     </g>
     <g id="text_3">
      <!-- 0.4 -->
      <g transform="translate(310.321165 399.078438) scale(0.1 -0.1)">
       <defs>
        <path id="DejaVuSans-34" d="M 2419 4116 
L 825 1625 
L 2419 1625 
L 2419 4116 
z
M 2253 4666 
L 3047 4666 
L 3047 1625 
L 3713 1625 
L 3713 1100 
L 3047 1100 
L 3047 0 
L 2419 0 
L 2419 1100 
L 313 1100 
L 313 1709 
L 2253 4666 
z
" transform="scale(0.015625)"/>
       </defs>
       <use xlink:href="#DejaVuSans-30"/>
       <use xlink:href="#DejaVuSans-2e" transform="translate(63.623047 0)"/>
       <use xlink:href="#DejaVuSans-34" transform="translate(95.410156 0)"/>
      </g>
     </g>
    </g>
    <g id="xtick_4">
     <g id="line2d_7">
      <path d="M 419.727273 384.48 
L 419.727273 51.84 
" clip-path="url(#p23df9340d5)" style="fill: none; stroke: #b0b0b0; stroke-width: 0.8; stroke-linecap: square"/>
     </g>
     <g id="line2d_8">
      <g>
       <use xlink:href="#m33f0a7f489" x="419.727273" y="384.48" style="stroke: #000000; stroke-width: 0.8"/>
      </g>
     </g>
     <g id="text_4">
      <!-- 0.6 -->
      <g transform="translate(411.77571 399.078438) scale(0.1 -0.1)">
       <defs>
        <path id="DejaVuSans-36" d="M 2113 2584 
Q 1688 2584 1439 2293 
Q 1191 2003 1191 1497 
Q 1191 994 1439 701 
Q 1688 409 2113 409 
Q 2538 409 2786 701 
Q 3034 994 3034 1497 
Q 3034 2003 2786 2293 
Q 2538 2584 2113 2584 
z
M 3366 4563 
L 3366 3988 
Q 3128 4100 2886 4159 
Q 2644 4219 2406 4219 
Q 1781 4219 1451 3797 
Q 1122 3375 1075 2522 
Q 1259 2794 1537 2939 
Q 1816 3084 2150 3084 
Q 2853 3084 3261 2657 
Q 3669 2231 3669 1497 
Q 3669 778 3244 343 
Q 2819 -91 2113 -91 
Q 1303 -91 875 529 
Q 447 1150 447 2328 
Q 447 3434 972 4092 
Q 1497 4750 2381 4750 
Q 2619 4750 2861 4703 
Q 3103 4656 3366 4563 
z
" transform="scale(0.015625)"/>
       </defs>
       <use xlink:href="#DejaVuSans-30"/>
       <use xlink:href="#DejaVuSans-2e" transform="translate(63.623047 0)"/>
       <use xlink:href="#DejaVuSans-36" transform="translate(95.410156 0)"/>
      </g>
     </g>
    </g>
    <g id="xtick_5">
     <g id="line2d_9">
      <path d="M 521.181818 384.48 
L 521.181818 51.84 
" clip-path="url(#p23df9340d5)" style="fill: none; stroke: #b0b0b0; stroke-width: 0.8; stroke-linecap: square"/>
     </g>
     <g id="line2d_10">
      <g>
       <use xlink:href="#m33f0a7f489" x="521.181818" y="384.48" style="stroke: #000000; stroke-width: 0.8"/>
      </g>
     </g>
     <g id="text_5">
      <!-- 0.8 -->
      <g transform="translate(513.230256 399.078438) scale(0.1 -0.1)">
       <defs>
        <path id="DejaVuSans-38" d="M 2034 2216 
Q 1584 2216 1326 1975 
Q 1069 1734 1069 1313 
Q 1069 891 1326 650 
Q 1584 409 2034 409 
Q 2484 409 2743 651 
Q 3003 894 3003 1313 
Q 3003 1734 2745 1975 
Q 2488 2216 2034 2216 
z
M 1403 2484 
Q 997 2584 770 2862 
Q 544 3141 544 3541 
Q 544 4100 942 4425 
Q 1341 4750 2034 4750 
Q 2731 4750 3128 4425 
Q 3525 4100 3525 3541 
Q 3525 3141 3298 2862 
Q 3072 2584 2669 2484 
Q 3125 2378 3379 2068 
Q 3634 1759 3634 1313 
Q 3634 634 3220 271 
Q 2806 -91 2034 -91 
Q 1263 -91 848 271 
Q 434 634 434 1313 
Q 434 1759 690 2068 
Q 947 2378 1403 2484 
z
M 1172 3481 
Q 1172 3119 1398 2916 
Q 1625 2713 2034 2713 
Q 2441 2713 2670 2916 
Q 2900 3119 2900 3481 
Q 2900 3844 2670 4047 
Q 2441 4250 2034 4250 
Q 1625 4250 1398 4047 
Q 1172 3844 1172 3481 
z
" transform="scale(0.015625)"/>
       </defs>
       <use xlink:href="#DejaVuSans-30"/>
       <use xlink:href="#DejaVuSans-2e" transform="translate(63.623047 0)"/>
       <use xlink:href="#DejaVuSans-38" transform="translate(95.410156 0)"/>
      </g>
     </g>
    </g>
    <g id="xtick_6">
     <g id="line2d_11">
      <path d="M 622.636364 384.48 
L 622.636364 51.84 
" clip-path="url(#p23df9340d5)" style="fill: none; stroke: #b0b0b0; stroke-width: 0.8; stroke-linecap: square"/>
     </g>
     <g id="line2d_12">
      <g>
       <use xlink:href="#m33f0a7f489" x="622.636364" y="384.48" style="stroke: #000000; stroke-width: 0.8"/>
      </g>
     </g>
     <g id="text_6">
      <!-- 1.0 -->
      <g transform="translate(614.684801 399.078438) scale(0.1 -0.1)">
       <defs>
        <path id="DejaVuSans-31" d="M 794 531 
L 1825 531 
L 1825 4091 
L 703 3866 
L 703 4441 
L 1819 4666 
L 2450 4666 
L 2450 531 
L 3481 531 
L 3481 0 
L 794 0 
L 794 531 
z
" transform="scale(0.015625)"/>
       </defs>
       <use xlink:href="#DejaVuSans-31"/>
       <use xlink:href="#DejaVuSans-2e" transform="translate(63.623047 0)"/>
       <use xlink:href="#DejaVuSans-30" transform="translate(95.410156 0)"/>
      </g>
     </g>
    </g>
    <g id="text_7">
     <!-- Recall -->
     <g transform="translate(354.082812 412.756563) scale(0.1 -0.1)">
      <defs>
       <path id="DejaVuSans-52" d="M 2841 2188 
Q 3044 2119 3236 1894 
Q 3428 1669 3622 1275 
L 4263 0 
L 3584 0 
L 2988 1197 
Q 2756 1666 2539 1819 
Q 2322 1972 1947 1972 
L 1259 1972 
L 1259 0 
L 628 0 
L 628 4666 
L 2053 4666 
Q 2853 4666 3247 4331 
Q 3641 3997 3641 3322 
Q 3641 2881 3436 2590 
Q 3231 2300 2841 2188 
z
M 1259 4147 
L 1259 2491 
L 2053 2491 
Q 2509 2491 2742 2702 
Q 2975 2913 2975 3322 
Q 2975 3731 2742 3939 
Q 2509 4147 2053 4147 
L 1259 4147 
z
" transform="scale(0.015625)"/>
       <path id="DejaVuSans-65" d="M 3597 1894 
L 3597 1613 
L 953 1613 
Q 991 1019 1311 708 
Q 1631 397 2203 397 
Q 2534 397 2845 478 
Q 3156 559 3463 722 
L 3463 178 
Q 3153 47 2828 -22 
Q 2503 -91 2169 -91 
Q 1331 -91 842 396 
Q 353 884 353 1716 
Q 353 2575 817 3079 
Q 1281 3584 2069 3584 
Q 2775 3584 3186 3129 
Q 3597 2675 3597 1894 
z
M 3022 2063 
Q 3016 2534 2758 2815 
Q 2500 3097 2075 3097 
Q 1594 3097 1305 2825 
Q 1016 2553 972 2059 
L 3022 2063 
z
" transform="scale(0.015625)"/>
       <path id="DejaVuSans-63" d="M 3122 3366 
L 3122 2828 
Q 2878 2963 2633 3030 
Q 2388 3097 2138 3097 
Q 1578 3097 1268 2742 
Q 959 2388 959 1747 
Q 959 1106 1268 751 
Q 1578 397 2138 397 
Q 2388 397 2633 464 
Q 2878 531 3122 666 
L 3122 134 
Q 2881 22 2623 -34 
Q 2366 -91 2075 -91 
Q 1284 -91 818 406 
Q 353 903 353 1747 
Q 353 2603 823 3093 
Q 1294 3584 2113 3584 
Q 2378 3584 2631 3529 
Q 2884 3475 3122 3366 
z
" transform="scale(0.015625)"/>
       <path id="DejaVuSans-61" d="M 2194 1759 
Q 1497 1759 1228 1600 
Q 959 1441 959 1056 
Q 959 750 1161 570 
Q 1363 391 1709 391 
Q 2188 391 2477 730 
Q 2766 1069 2766 1631 
L 2766 1759 
L 2194 1759 
z
M 3341 1997 
L 3341 0 
L 2766 0 
L 2766 531 
Q 2569 213 2275 61 
Q 1981 -91 1556 -91 
Q 1019 -91 701 211 
Q 384 513 384 1019 
Q 384 1609 779 1909 
Q 1175 2209 1959 2209 
L 2766 2209 
L 2766 2266 
Q 2766 2663 2505 2880 
Q 2244 3097 1772 3097 
Q 1472 3097 1187 3025 
Q 903 2953 641 2809 
L 641 3341 
Q 956 3463 1253 3523 
Q 1550 3584 1831 3584 
Q 2591 3584 2966 3190 
Q 3341 2797 3341 1997 
z
" transform="scale(0.015625)"/>
       <path id="DejaVuSans-6c" d="M 603 4863 
L 1178 4863 
L 1178 0 
L 603 0 
L 603 4863 
z
" transform="scale(0.015625)"/>
      </defs>
      <use xlink:href="#DejaVuSans-52"/>
      <use xlink:href="#DejaVuSans-65" transform="translate(64.982422 0)"/>
      <use xlink:href="#DejaVuSans-63" transform="translate(126.505859 0)"/>
      <use xlink:href="#DejaVuSans-61" transform="translate(181.486328 0)"/>
      <use xlink:href="#DejaVuSans-6c" transform="translate(242.765625 0)"/>
      <use xlink:href="#DejaVuSans-6c" transform="translate(270.548828 0)"/>
     </g>
    </g>
   </g>
   <g id="matplotlib.axis_2">
    <g id="ytick_1">
     <g id="line2d_13">
      <path d="M 90 369.568571 
L 648 369.568571 
" clip-path="url(#p23df9340d5)" style="fill: none; stroke: #b0b0b0; stroke-width: 0.8; stroke-linecap: square"/>
     </g>
     <g id="line2d_14">
      <defs>
       <path id="meebfbe770d" d="M 0 0 
L -3.5 0 
" style="stroke: #000000; stroke-width: 0.8"/>
      </defs>
      <g>
       <use xlink:href="#meebfbe770d" x="90" y="369.568571" style="stroke: #000000; stroke-width: 0.8"/>
      </g>
     </g>
     <g id="text_8">
      <!-- 0.0 -->
      <g transform="translate(67.096875 373.36779) scale(0.1 -0.1)">
       <use xlink:href="#DejaVuSans-30"/>
       <use xlink:href="#DejaVuSans-2e" transform="translate(63.623047 0)"/>
       <use xlink:href="#DejaVuSans-30" transform="translate(95.410156 0)"/>
      </g>
     </g>
    </g>
    <g id="ytick_2">
     <g id="line2d_15">
      <path d="M 90 309.046857 
L 648 309.046857 
" clip-path="url(#p23df9340d5)" style="fill: none; stroke: #b0b0b0; stroke-width: 0.8; stroke-linecap: square"/>
     </g>
     <g id="line2d_16">
      <g>
       <use xlink:href="#meebfbe770d" x="90" y="309.046857" style="stroke: #000000; stroke-width: 0.8"/>
      </g>
     </g>
     <g id="text_9">
      <!-- 0.2 -->
      <g transform="translate(67.096875 312.846076) scale(0.1 -0.1)">
       <use xlink:href="#DejaVuSans-30"/>
       <use xlink:href="#DejaVuSans-2e" transform="translate(63.623047 0)"/>
       <use xlink:href="#DejaVuSans-32" transform="translate(95.410156 0)"/>
      </g>
     </g>
    </g>
    <g id="ytick_3">
     <g id="line2d_17">
      <path d="M 90 248.525143 
L 648 248.525143 
" clip-path="url(#p23df9340d5)" style="fill: none; stroke: #b0b0b0; stroke-width: 0.8; stroke-linecap: square"/>
     </g>
     <g id="line2d_18">
      <g>
       <use xlink:href="#meebfbe770d" x="90" y="248.525143" style="stroke: #000000; stroke-width: 0.8"/>
      </g>
     </g>
     <g id="text_10">
      <!-- 0.4 -->
      <g transform="translate(67.096875 252.324361) scale(0.1 -0.1)">
       <use xlink:href="#DejaVuSans-30"/>
       <use xlink:href="#DejaVuSans-2e" transform="translate(63.623047 0)"/>
       <use xlink:href="#DejaVuSans-34" transform="translate(95.410156 0)"/>
      </g>
     </g>
    </g>
    <g id="ytick_4">
     <g id="line2d_19">
      <path d="M 90 188.003428 
L 648 188.003428 
" clip-path="url(#p23df9340d5)" style="fill: none; stroke: #b0b0b0; stroke-width: 0.8; stroke-linecap: square"/>
     </g>
     <g id="line2d_20">
      <g>
       <use xlink:href="#meebfbe770d" x="90" y="188.003428" style="stroke: #000000; stroke-width: 0.8"/>
      </g>
     </g>
     <g id="text_11">
      <!-- 0.6 -->
      <g transform="translate(67.096875 191.802647) scale(0.1 -0.1)">
       <use xlink:href="#DejaVuSans-30"/>
       <use xlink:href="#DejaVuSans-2e" transform="translate(63.623047 0)"/>
       <use xlink:href="#DejaVuSans-36" transform="translate(95.410156 0)"/>
      </g>
     </g>
    </g>
    <g id="ytick_5">
     <g id="line2d_21">
      <path d="M 90 127.481714 
L 648 127.481714 
" clip-path="url(#p23df9340d5)" style="fill: none; stroke: #b0b0b0; stroke-width: 0.8; stroke-linecap: square"/>
     </g>
     <g id="line2d_22">
      <g>
       <use xlink:href="#meebfbe770d" x="90" y="127.481714" style="stroke: #000000; stroke-width: 0.8"/>
      </g>
     </g>
     <g id="text_12">
      <!-- 0.8 -->
      <g transform="translate(67.096875 131.280933) scale(0.1 -0.1)">
       <use xlink:href="#DejaVuSans-30"/>
       <use xlink:href="#DejaVuSans-2e" transform="translate(63.623047 0)"/>
       <use xlink:href="#DejaVuSans-38" transform="translate(95.410156 0)"/>
      </g>
     </g>
    </g>
    <g id="ytick_6">
     <g id="line2d_23">
      <path d="M 90 66.96 
L 648 66.96 
" clip-path="url(#p23df9340d5)" style="fill: none; stroke: #b0b0b0; stroke-width: 0.8; stroke-linecap: square"/>
     </g>
     <g id="line2d_24">
      <g>
       <use xlink:href="#meebfbe770d" x="90" y="66.96" style="stroke: #000000; stroke-width: 0.8"/>
      </g>
     </g>
     <g id="text_13">
      <!-- 1.0 -->
      <g transform="translate(67.096875 70.759219) scale(0.1 -0.1)">
       <use xlink:href="#DejaVuSans-31"/>
       <use xlink:href="#DejaVuSans-2e" transform="translate(63.623047 0)"/>
       <use xlink:href="#DejaVuSans-30" transform="translate(95.410156 0)"/>
      </g>
     </g>
    </g>
    <g id="text_14">
     <!-- Precision -->
     <g transform="translate(61.017187 240.467031) rotate(-90) scale(0.1 -0.1)">
      <defs>
       <path id="DejaVuSans-50" d="M 1259 4147 
L 1259 2394 
L 2053 2394 
Q 2494 2394 2734 2622 
Q 2975 2850 2975 3272 
Q 2975 3691 2734 3919 
Q 2494 4147 2053 4147 
L 1259 4147 
z
M 628 4666 
L 2053 4666 
Q 2838 4666 3239 4311 
Q 3641 3956 3641 3272 
Q 3641 2581 3239 2228 
Q 2838 1875 2053 1875 
L 1259 1875 
L 1259 0 
L 628 0 
L 628 4666 
z
" transform="scale(0.015625)"/>
       <path id="DejaVuSans-72" d="M 2631 2963 
Q 2534 3019 2420 3045 
Q 2306 3072 2169 3072 
Q 1681 3072 1420 2755 
Q 1159 2438 1159 1844 
L 1159 0 
L 581 0 
L 581 3500 
L 1159 3500 
L 1159 2956 
Q 1341 3275 1631 3429 
Q 1922 3584 2338 3584 
Q 2397 3584 2469 3576 
Q 2541 3569 2628 3553 
L 2631 2963 
z
" transform="scale(0.015625)"/>
       <path id="DejaVuSans-69" d="M 603 3500 
L 1178 3500 
L 1178 0 
L 603 0 
L 603 3500 
z
M 603 4863 
L 1178 4863 
L 1178 4134 
L 603 4134 
L 603 4863 
z
" transform="scale(0.015625)"/>
       <path id="DejaVuSans-73" d="M 2834 3397 
L 2834 2853 
Q 2591 2978 2328 3040 
Q 2066 3103 1784 3103 
Q 1356 3103 1142 2972 
Q 928 2841 928 2578 
Q 928 2378 1081 2264 
Q 1234 2150 1697 2047 
L 1894 2003 
Q 2506 1872 2764 1633 
Q 3022 1394 3022 966 
Q 3022 478 2636 193 
Q 2250 -91 1575 -91 
Q 1294 -91 989 -36 
Q 684 19 347 128 
L 347 722 
Q 666 556 975 473 
Q 1284 391 1588 391 
Q 1994 391 2212 530 
Q 2431 669 2431 922 
Q 2431 1156 2273 1281 
Q 2116 1406 1581 1522 
L 1381 1569 
Q 847 1681 609 1914 
Q 372 2147 372 2553 
Q 372 3047 722 3315 
Q 1072 3584 1716 3584 
Q 2034 3584 2315 3537 
Q 2597 3491 2834 3397 
z
" transform="scale(0.015625)"/>
       <path id="DejaVuSans-6f" d="M 1959 3097 
Q 1497 3097 1228 2736 
Q 959 2375 959 1747 
Q 959 1119 1226 758 
Q 1494 397 1959 397 
Q 2419 397 2687 759 
Q 2956 1122 2956 1747 
Q 2956 2369 2687 2733 
Q 2419 3097 1959 3097 
z
M 1959 3584 
Q 2709 3584 3137 3096 
Q 3566 2609 3566 1747 
Q 3566 888 3137 398 
Q 2709 -91 1959 -91 
Q 1206 -91 779 398 
Q 353 888 353 1747 
Q 353 2609 779 3096 
Q 1206 3584 1959 3584 
z
" transform="scale(0.015625)"/>
       <path id="DejaVuSans-6e" d="M 3513 2113 
L 3513 0 
L 2938 0 
L 2938 2094 
Q 2938 2591 2744 2837 
Q 2550 3084 2163 3084 
Q 1697 3084 1428 2787 
Q 1159 2491 1159 1978 
L 1159 0 
L 581 0 
L 581 3500 
L 1159 3500 
L 1159 2956 
Q 1366 3272 1645 3428 
Q 1925 3584 2291 3584 
Q 2894 3584 3203 3211 
Q 3513 2838 3513 2113 
z
" transform="scale(0.015625)"/>
      </defs>
      <use xlink:href="#DejaVuSans-50"/>
      <use xlink:href="#DejaVuSans-72" transform="translate(58.552734 0)"/>
      <use xlink:href="#DejaVuSans-65" transform="translate(97.416016 0)"/>
      <use xlink:href="#DejaVuSans-63" transform="translate(158.939453 0)"/>
      <use xlink:href="#DejaVuSans-69" transform="translate(213.919922 0)"/>
      <use xlink:href="#DejaVuSans-73" transform="translate(241.703125 0)"/>
      <use xlink:href="#DejaVuSans-69" transform="translate(293.802734 0)"/>
      <use xlink:href="#DejaVuSans-6f" transform="translate(321.585938 0)"/>
      <use xlink:href="#DejaVuSans-6e" transform="translate(382.767578 0)"/>
     </g>
    </g>
   </g>
   <g id="line2d_25">
    <path d="M 622.636364 369.357557 
L 622.539562 369.346927 
L 620.538995 369.23791 
L 620.538995 369.236689 
L 620.442194 369.225315 
L 617.376809 369.120061 
L 617.376809 369.116285 
L 617.344542 369.111158 
L 614.730898 369.003116 
L 614.730898 369.002425 
L 614.666364 368.997542 
L 611.02017 368.893344 
L 611.02017 368.890593 
L 610.955635 368.888105 
L 609.084138 368.7828 
L 609.084138 368.779558 
L 609.019603 368.773252 
L 607.406243 368.666563 
L 607.406243 368.664735 
L 607.309441 368.643962 
L 606.63183 368.560506 
L 606.63183 368.534121 
L 606.599563 368.527319 
L 604.695798 368.429931 
L 604.695798 368.42023 
L 604.663531 368.385604 
L 603.792316 368.290131 
L 603.792316 368.276595 
L 603.792316 368.262176 
L 602.630697 368.155686 
L 602.630697 368.154159 
L 602.566162 368.1476 
L 601.66268 368.066466 
L 601.66268 368.039111 
L 601.66268 368.03121 
L 600.146122 367.935211 
L 600.146122 367.924868 
L 600.113855 367.92402 
L 599.500778 367.815628 
L 599.500778 367.814978 
L 599.403976 367.797209 
L 599.339442 367.797444 
L 599.339442 367.686334 
L 599.24264 367.554468 
L 598.629563 367.463613 
L 598.629563 367.445891 
L 598.532762 367.365319 
L 598.306891 367.272483 
L 598.306891 367.255232 
L 598.306891 367.253023 
L 597.951952 367.171 
L 597.951952 367.143602 
L 597.951952 367.100497 
L 597.758349 367.101479 
L 597.758349 366.990367 
L 597.693814 366.955503 
L 597.113005 366.877164 
L 597.113005 366.84752 
L 597.080737 366.727454 
L 596.564462 366.681494 
L 596.564462 366.619367 
L 596.532195 366.519402 
L 596.435393 366.520009 
L 596.435393 366.408899 
L 596.338592 366.138114 
L 596.274057 366.13857 
L 596.274057 366.027467 
L 596.177256 365.922838 
L 596.112721 365.923321 
L 596.112721 365.81221 
L 596.112721 365.188921 
L 595.919118 365.190659 
L 595.919118 365.079544 
L 595.886851 365.040462 
L 595.790049 365.04136 
L 595.790049 364.930303 
L 595.757782 364.690219 
L 595.43511 364.614309 
L 595.43511 364.582348 
L 595.338308 363.941345 
L 595.306041 363.941716 
L 595.306041 363.830603 
L 595.241507 363.402557 
L 595.176972 363.40337 
L 595.176972 363.292259 
L 595.144705 362.126667 
L 594.983369 362.129108 
L 594.983369 362.018189 
L 594.951102 360.622397 
L 594.822033 360.624733 
L 594.822033 360.513641 
L 594.789766 358.287847 
L 594.467094 358.295157 
L 594.467094 358.1841 
L 594.370292 355.73387 
L 594.208956 355.738317 
L 594.208956 355.627199 
L 594.144422 354.97334 
L 593.983086 354.978021 
L 593.983086 354.866864 
L 593.983086 353.819233 
L 593.854017 353.823259 
L 593.854017 353.712208 
L 593.757215 350.590653 
L 593.46681 350.601451 
L 593.46681 350.490321 
L 593.434543 349.262178 
L 593.111871 349.274964 
L 593.111871 349.164246 
L 593.111871 346.550377 
L 592.853734 346.561868 
L 592.853734 346.450935 
L 592.789199 331.516828 
L 592.692398 331.523573 
L 592.692398 331.412994 
L 592.692398 329.40268 
L 592.43426 329.421519 
L 592.43426 329.310255 
L 592.43426 322.579959 
L 592.111588 322.606808 
L 592.111588 322.49556 
L 592.111588 319.606658 
L 591.788916 319.634893 
L 591.788916 319.523594 
L 591.788916 318.370373 
L 591.401709 318.404948 
L 591.401709 318.294475 
L 591.401709 305.971542 
L 591.014503 305.968911 
L 591.014503 305.903556 
L 591.014503 305.469004 
L 590.691831 305.503282 
L 590.691831 305.394452 
L 590.691831 305.263922 
L 589.981952 305.24211 
L 589.981952 305.230952 
L 589.981952 289.017891 
L 589.756082 289.046025 
L 589.756082 288.938033 
L 589.756082 286.797386 
L 589.465677 286.834202 
L 589.465677 286.726296 
L 589.43341 282.084802 
L 589.304341 282.101736 
L 589.304341 282.00179 
L 589.239807 273.99838 
L 589.175272 274.007285 
L 589.175272 273.898239 
L 589.110738 266.559157 
L 588.949402 266.582298 
L 588.949402 266.477118 
L 588.917135 264.902563 
L 588.562195 264.953892 
L 588.562195 264.85021 
L 588.497661 248.086039 
L 588.400859 248.100917 
L 588.400859 248.001059 
L 588.336325 244.866956 
L 588.27179 244.87696 
L 588.27179 244.775211 
L 588.174989 235.449113 
L 588.013653 235.474599 
L 588.013653 235.37717 
L 588.013653 235.324337 
L 587.852317 235.349836 
L 587.852317 235.239978 
L 587.852317 227.258865 
L 587.658714 227.28976 
L 587.658714 227.179988 
L 587.658714 223.426244 
L 587.46511 223.457225 
L 587.46511 223.351068 
L 587.368309 216.738914 
L 587.336042 216.744086 
L 587.336042 216.633198 
L 587.336042 216.267717 
L 587.206973 216.288404 
L 587.206973 216.187457 
L 587.174706 201.869404 
L 587.013369 201.894974 
L 587.013369 201.825028 
L 587.013369 200.361981 
L 586.368025 200.464122 
L 586.368025 200.3864 
L 586.368025 200.243723 
L 585.62588 200.34186 
L 585.62588 200.30289 
L 585.529078 194.630682 
L 585.464544 194.640814 
L 585.464544 194.529691 
L 585.367742 184.008394 
L 585.303208 184.01825 
L 585.303208 183.908818 
L 585.206406 177.556918 
L 585.077337 177.5762 
L 585.077337 177.534351 
L 585.04507 170.770432 
L 584.916001 170.789177 
L 584.916001 170.690424 
L 584.8192 169.120014 
L 584.593329 169.152583 
L 584.593329 169.042992 
L 584.496528 166.268076 
L 584.46426 166.272665 
L 584.46426 166.18808 
L 584.46426 166.056363 
L 584.270657 166.083876 
L 584.270657 166.055624 
L 584.173855 164.033536 
L 584.077054 164.047152 
L 584.077054 163.951015 
L 584.077054 162.605338 
L 583.851183 162.636872 
L 583.851183 162.539363 
L 583.754382 161.286636 
L 583.560779 161.313479 
L 583.560779 161.224544 
L 583.560779 161.066251 
L 583.302641 161.102014 
L 583.302641 161.012849 
L 583.238107 155.361176 
L 583.076771 155.382759 
L 583.076771 155.309523 
L 583.044503 153.061086 
L 582.947702 153.073839 
L 582.947702 152.988297 
L 582.8509 151.210519 
L 582.754098 151.223109 
L 582.754098 151.146947 
L 582.689564 146.837467 
L 582.592762 146.849647 
L 582.592762 146.747716 
L 582.528228 145.536719 
L 582.463694 145.544756 
L 582.463694 145.441599 
L 582.463694 144.728368 
L 582.334625 144.744338 
L 582.334625 144.732795 
L 582.334625 144.385969 
L 582.141022 144.409864 
L 582.141022 144.305586 
L 582.076487 143.569171 
L 582.011953 143.577084 
L 582.011953 143.483684 
L 582.011953 143.34344 
L 581.850617 143.363188 
L 581.850617 143.281284 
L 581.850617 143.164177 
L 581.657013 143.187846 
L 581.657013 143.117509 
L 581.624746 139.922342 
L 581.46341 139.941506 
L 581.46341 139.893245 
L 581.46341 139.348905 
L 581.334341 139.364158 
L 581.334341 139.303508 
L 581.334341 139.182111 
L 581.043937 139.119154 
L 580.947135 138.018533 
L 580.850333 138.029839 
L 580.850333 137.931553 
L 580.785799 136.018032 
L 580.721265 136.025423 
L 580.721265 135.975422 
L 580.624463 135.585678 
L 580.559929 135.593039 
L 580.559929 135.517725 
L 580.527661 134.487192 
L 580.43086 134.49811 
L 580.43086 134.434745 
L 580.43086 134.358662 
L 580.204989 134.320658 
L 580.204989 134.282567 
L 580.140455 134.200902 
L 580.043653 134.211797 
L 580.043653 134.110065 
L 580.043653 133.651181 
L 579.979119 133.658402 
L 579.85005 133.67285 
L 579.85005 133.570609 
L 579.85005 132.659321 
L 579.559645 132.691495 
L 579.559645 132.588337 
L 579.462844 129.593984 
L 579.172439 129.572124 
L 579.172439 129.519145 
L 579.172439 129.014672 
L 579.04337 129.028403 
L 579.04337 128.961856 
L 578.978835 127.952569 
L 578.817499 127.969521 
L 578.817499 127.862036 
L 578.817499 127.70063 
L 578.720698 127.710772 
L 578.559362 127.727683 
L 578.527095 126.458736 
L 578.398026 126.472059 
L 578.398026 126.376759 
L 578.301224 125.209638 
L 577.978552 125.159857 
L 577.978552 124.178351 
L 577.688147 124.207493 
L 577.688147 124.096363 
L 577.688147 123.818097 
L 577.43001 123.843891 
L 577.43001 123.760259 
L 577.43001 123.159226 
L 577.333208 123.168815 
L 577.268674 123.175209 
L 577.268674 123.133158 
L 577.236406 122.869682 
L 577.139605 122.879237 
L 577.139605 122.851129 
L 577.139605 122.752701 
L 576.881467 122.778151 
L 576.881467 122.721851 
L 576.881467 122.496394 
L 576.62333 122.521768 
L 576.62333 122.465319 
L 576.62333 121.927769 
L 576.107054 121.978164 
L 576.04252 121.15881 
L 575.881184 121.174396 
L 575.881184 121.074352 
L 575.881184 120.916978 
L 575.719848 120.932515 
L 575.719848 120.372814 
L 575.687581 120.375898 
L 575.300374 120.340942 
L 575.300374 120.312138 
L 575.300374 120.153596 
L 575.106771 120.172058 
L 575.106771 120.071035 
L 575.106771 119.839818 
L 575.009969 119.849008 
L 574.42916 119.904216 
L 574.42916 119.875256 
L 574.42916 119.628824 
L 573.751548 119.693114 
L 573.751548 119.591403 
L 573.751548 119.445957 
L 572.493127 119.477822 
L 572.493127 119.361052 
L 572.23499 119.38553 
L 572.23499 119.297849 
L 572.202722 118.670694 
L 572.009119 118.68887 
L 572.009119 118.615363 
L 572.009119 118.261928 
L 571.847783 118.276985 
L 571.847783 118.203211 
L 571.783249 116.215612 
L 571.589646 116.203107 
L 571.589646 116.173097 
L 571.557378 115.980759 
L 571.42831 115.992384 
L 571.42831 115.932235 
L 571.363775 114.318223 
L 570.750698 114.371991 
L 570.750698 114.280463 
L 570.718431 114.038883 
L 570.589362 114.050154 
L 570.589362 113.958361 
L 570.557095 112.715436 
L 570.524828 112.718189 
L 570.428026 112.72645 
L 570.428026 112.633672 
L 570.428026 112.509863 
L 570.363492 112.515351 
L 570.073087 112.509075 
L 570.073087 112.431573 
L 569.976285 112.238045 
L 569.879484 112.246245 
L 569.879484 112.13746 
L 569.847217 111.89118 
L 569.589079 111.834976 
L 569.589079 111.803785 
L 569.589079 111.241048 
L 569.427743 111.254479 
L 569.427743 111.176107 
L 569.363208 110.678714 
L 569.201872 110.644763 
L 569.201872 110.629011 
L 569.201872 110.47138 
L 568.943735 110.492581 
L 568.943735 110.413662 
L 568.846933 109.994544 
L 568.556528 109.970637 
L 568.556528 109.93892 
L 568.556528 109.875465 
L 568.233856 109.901703 
L 568.169322 108.982778 
L 567.943451 109.000837 
L 567.943451 108.904823 
L 567.943451 108.616354 
L 567.814383 108.6266 
L 567.814383 108.562396 
L 567.749848 108.294266 
L 567.685314 108.299358 
L 567.685314 108.251073 
L 567.588512 107.564548 
L 567.394909 107.579604 
L 567.394909 107.206678 
L 567.298107 107.214152 
L 567.136771 107.161622 
L 567.136771 107.129113 
L 567.136771 106.264699 
L 566.45916 106.217735 
L 566.362358 105.369683 
L 565.910618 105.403302 
L 565.846083 104.712558 
L 565.265273 104.68871 
L 565.200739 104.543688 
L 564.619929 104.5529 
L 564.619929 104.502882 
L 564.619929 103.901181 
L 564.523128 103.908171 
L 563.942318 103.89984 
L 563.877784 103.383333 
L 563.651913 103.298327 
L 563.555112 103.203992 
L 563.426043 103.111842 
L 563.426043 102.841224 
L 563.167905 102.757786 
L 563.103371 102.558745 
L 562.909767 102.555346 
L 562.909767 102.538359 
L 562.845233 101.262474 
L 562.748431 101.269055 
L 562.65163 100.759855 
L 562.587095 100.764188 
L 562.490294 100.442907 
L 562.038553 100.455732 
L 562.038553 100.421151 
L 562.038553 100.24811 
L 562.006286 100.25025 
L 561.877217 100.258814 
L 561.877217 100.172186 
L 561.84495 99.74032 
L 561.780415 99.744545 
L 561.748148 99.746659 
L 561.748148 99.659675 
L 561.651346 98.950496 
L 561.199606 98.979481 
L 561.199606 98.944453 
L 561.199606 98.856844 
L 560.715598 98.800111 
L 560.651063 98.540645 
L 560.005719 98.581691 
L 560.005719 98.511232 
L 560.005719 98.317279 
L 559.457177 98.334331 
L 559.457177 97.909725 
L 559.263573 97.921843 
L 559.263573 97.815447 
L 559.263573 97.282214 
L 558.876367 97.288209 
L 558.876367 97.216894 
L 558.811832 96.648923 
L 558.424626 96.582677 
L 558.424626 96.36729 
L 558.134221 96.330773 
L 558.101954 95.954587 
L 558.005152 95.96032 
L 558.005152 95.671476 
L 557.908351 95.67716 
L 557.811549 95.682847 
L 557.811549 95.610514 
L 557.811549 95.501944 
L 557.714748 95.507601 
L 557.553411 95.498922 
L 557.553411 95.42645 
L 557.521144 95.138045 
L 557.198472 95.138532 
L 557.198472 95.083995 
L 557.166205 94.521004 
L 556.262723 94.462549 
L 556.198189 93.89755 
L 556.101387 93.90294 
L 556.101387 93.82938 
L 556.101387 93.755781 
L 556.036853 93.759358 
L 555.810982 93.716628 
L 555.810982 93.606051 
L 555.423776 93.627431 
L 555.423776 93.535149 
L 555.423776 93.498219 
L 554.875233 93.491455 
L 554.875233 93.417469 
L 554.810699 92.939082 
L 554.778432 92.940826 
L 554.552561 92.95304 
L 554.552561 92.860122 
L 554.45576 92.49298 
L 554.294424 92.408297 
L 554.294424 92.296283 
L 554.197622 92.301404 
L 554.004019 92.311652 
L 554.004019 92.218186 
L 553.971752 91.920356 
L 553.907217 91.923726 
L 553.165072 91.925002 
L 553.165072 91.831096 
L 553.100537 91.834461 
L 552.616529 91.840921 
L 552.616529 91.765662 
L 552.616529 91.728016 
L 552.003452 91.759943 
L 552.003452 91.590214 
L 551.874383 91.596903 
L 551.874383 91.370219 
L 551.583979 91.385158 
L 551.583979 91.328397 
L 551.583979 90.797513 
L 551.519444 90.800762 
L 551.358108 90.808889 
L 551.358108 90.713834 
L 551.358108 90.466386 
L 551.261307 90.471201 
L 551.035436 90.482442 
L 551.035436 90.463378 
L 551.035436 90.177096 
L 550.970902 90.180272 
L 550.841833 90.186626 
L 550.841833 90.110156 
L 550.745031 90.019245 
L 550.680497 90.022403 
L 550.680497 89.773339 
L 550.486894 89.782724 
L 550.486894 89.763539 
L 550.422359 89.343889 
L 550.390092 89.345427 
L 549.744748 89.376221 
L 549.744748 89.144768 
L 549.131671 89.173822 
L 549.131671 89.115829 
L 549.131671 88.902984 
L 548.776732 88.91965 
L 548.776732 88.803335 
L 548.67993 88.807862 
L 548.45406 88.818433 
L 548.45406 88.740787 
L 548.45406 88.488139 
L 548.09912 88.50454 
L 548.09912 88.446131 
L 548.09912 88.387698 
L 548.066853 88.389182 
L 547.970052 88.393638 
L 547.970052 88.315669 
L 547.970052 88.237657 
L 547.905517 88.240608 
L 547.002035 88.223363 
L 547.002035 87.714034 
L 546.808432 87.722708 
L 546.808432 87.526245 
L 546.711631 87.530547 
L 546.324424 87.508408 
L 546.324424 87.114166 
L 545.872683 87.094384 
L 545.872683 86.896615 
L 545.808149 86.899407 
L 545.195072 86.866504 
L 545.130538 86.372706 
L 543.710781 86.392991 
L 543.710781 86.193234 
L 543.355841 86.20817 
L 543.355841 86.088093 
L 542.581428 86.060399 
L 542.581428 86.020271 
L 542.581428 85.960057 
L 541.87155 85.989692 
L 541.839283 85.709275 
L 541.774748 85.711937 
L 541.129404 85.718419 
L 541.129404 85.556899 
L 541.032603 85.560868 
L 540.25819 85.531957 
L 540.25819 85.471204 
L 540.161388 85.475165 
L 538.709364 85.494125 
L 538.709364 85.311075 
L 537.805882 85.266353 
L 537.805882 85.184721 
L 537.547744 85.133906 
L 537.547744 85.052148 
L 537.450943 85.056049 
L 536.67653 85.087319 
L 536.644263 84.822084 
L 536.579728 84.824659 
L 535.579445 84.761791 
L 535.579445 84.741206 
L 535.482643 84.745062 
L 535.256773 84.754067 
L 535.256773 84.671643 
L 535.159971 84.572371 
L 534.417826 84.560411 
L 534.417826 84.457028 
L 534.321024 84.460837 
L 534.191955 84.465918 
L 534.127421 84.302788 
L 533.482077 84.307269 
L 533.482077 84.244998 
L 533.482077 84.161928 
L 533.385275 84.165685 
L 533.127137 84.175712 
L 533.127137 83.988487 
L 532.546328 84.010859 
L 532.546328 83.948319 
L 532.546328 83.86489 
L 531.513777 83.7999 
L 531.513777 83.695238 
L 531.449243 83.69769 
L 530.868433 83.677847 
L 530.771631 83.366489 
L 529.577745 83.326863 
L 529.51321 82.991355 
L 529.28734 82.999639 
L 529.28734 82.766743 
L 529.222806 82.769079 
L 527.706247 82.717823 
L 527.706247 82.355638 
L 525.673413 82.320841 
L 525.673413 82.299397 
L 525.383008 82.288249 
L 525.383008 82.245317 
L 525.383008 81.944432 
L 525.286207 81.947795 
L 523.543778 81.900545 
L 523.543778 81.878925 
L 523.479243 81.881168 
L 522.672563 81.822583 
L 522.672563 81.757541 
L 521.704547 81.682363 
L 521.607745 81.555122 
L 521.188272 81.569479 
L 521.188272 81.416845 
L 521.123737 81.419034 
L 519.639446 81.360073 
L 519.639446 81.228561 
L 517.671146 81.184893 
L 517.606612 80.833902 
L 517.025802 80.808779 
L 517.025802 80.7645 
L 517.025802 80.631585 
L 516.929001 80.634731 
L 515.057503 80.695855 
L 515.057503 80.249926 
L 514.960701 80.253004 
L 514.250823 80.27562 
L 514.250823 80.186104 
L 514.218555 80.097549 
L 509.862483 80.145713 
L 509.862483 80.12307 
L 509.765681 80.126161 
L 508.378191 80.102428 
L 508.378191 80.056954 
L 508.087786 79.997935 
L 507.990985 79.84152 
L 506.571228 79.886272 
L 506.571228 79.771864 
L 506.506693 79.773888 
L 504.69973 79.738835 
L 504.69973 79.623759 
L 502.763698 79.614979 
L 502.666896 79.177567 
L 500.375925 79.153911 
L 500.375925 78.943533 
L 499.020702 78.890278 
L 499.020702 78.796314 
L 496.794265 78.768155 
L 496.761998 78.627192 
L 496.697463 78.629091 
L 495.535844 78.568393 
L 495.535844 78.378259 
L 495.503577 78.379191 
L 494.825965 78.398812 
L 494.825965 78.2081 
L 494.729164 78.210863 
L 494.53556 78.216394 
L 494.53556 78.168643 
L 494.53556 78.073095 
L 494.503293 78.074006 
L 492.534994 78.033783 
L 492.534994 78.009752 
L 492.470459 78.011574 
L 492.018718 77.952138 
L 492.018718 77.903981 
L 488.856532 77.896141 
L 488.856532 77.701709 
L 487.243172 77.673377 
L 487.243172 77.600067 
L 487.178638 77.601849 
L 486.404225 77.598781 
L 486.404225 77.500755 
L 486.371958 77.50164 
L 486.242889 77.407049 
L 486.242889 77.382506 
L 484.177788 77.340118 
L 484.177788 77.216617 
L 482.015885 77.275032 
L 482.015885 77.026356 
L 479.821715 76.984783 
L 479.821715 76.934683 
L 479.724913 76.937246 
L 479.144104 76.952649 
L 479.144104 76.801985 
L 479.079569 76.803674 
L 477.692079 76.789694 
L 477.692079 76.713995 
L 477.627545 76.715677 
L 477.175804 76.727464 
L 477.175804 76.525138 
L 477.079003 76.527617 
L 476.724063 76.435331 
L 476.724063 76.28312 
L 472.916533 76.328031 
L 472.916533 76.174085 
L 472.819732 76.176505 
L 468.140987 76.242965 
L 468.140987 76.164925 
L 467.75378 76.174732 
L 467.75378 75.992289 
L 467.689246 75.993894 
L 464.817465 75.960721 
L 464.817465 75.908103 
L 464.720663 75.910509 
L 464.010785 75.928193 
L 464.010785 75.849059 
L 464.010785 75.769882 
L 463.913983 75.772258 
L 461.171271 75.733647 
L 461.171271 75.707022 
L 454.072486 75.776287 
L 453.975684 75.315945 
L 453.588477 75.325246 
L 453.588477 75.270645 
L 453.588477 75.188706 
L 453.55621 75.18947 
L 452.265522 75.137848 
L 452.265522 75.082963 
L 447.425441 75.114637 
L 447.425441 75.058943 
L 447.32864 75.061242 
L 444.682729 75.040336 
L 444.682729 74.89983 
L 442.069085 74.876662 
L 442.069085 74.848315 
L 442.004551 74.849833 
L 436.067385 74.905439 
L 436.067385 74.876568 
L 432.195321 74.941545 
L 432.195321 74.707644 
L 432.163053 74.708413 
L 428.516859 74.766706 
L 428.516859 74.618668 
L 428.452325 74.620207 
L 424.58026 74.623704 
L 424.58026 74.563695 
L 421.93435 74.536859 
L 421.93435 74.506581 
L 415.964917 74.590916 
L 415.964917 74.529173 
L 414.383824 74.537153 
L 414.383824 74.350798 
L 414.287022 74.353133 
L 413.512609 74.27834 
L 413.512609 74.247152 
L 402.735363 74.416678 
L 402.735363 74.319674 
L 400.250788 74.284412 
L 400.250788 74.219127 
L 392.409857 74.31889 
L 392.409857 74.083846 
L 392.345323 74.085466 
L 388.666861 74.110981 
L 388.666861 73.872379 
L 382.439291 73.960033 
L 382.439291 73.89024 
L 382.374756 73.891877 
L 380.051518 73.880887 
L 380.051518 73.704673 
L 379.986983 73.706281 
L 375.856781 73.739194 
L 375.856781 73.66753 
L 372.791397 73.636826 
L 372.791397 73.600546 
L 365.692612 73.710059 
L 365.692612 73.560843 
L 360.820264 73.688957 
L 360.820264 73.57482 
L 360.723462 73.577373 
L 360.691195 73.578224 
L 360.691195 73.463942 
L 360.594393 73.466454 
L 358.948766 73.50946 
L 358.948766 73.394306 
L 358.851964 73.39681 
L 352.527592 73.485904 
L 352.527592 73.446484 
L 348.62326 73.472556 
L 348.62326 73.432472 
L 348.590993 73.433349 
L 343.460507 73.575768 
L 343.460507 73.370843 
L 343.395973 73.372619 
L 338.071884 73.438647 
L 338.071884 73.312634 
L 333.199536 73.408747 
L 333.199536 73.322854 
L 325.616743 73.458427 
L 325.616743 73.413953 
L 323.648444 73.47363 
L 323.648444 73.338919 
L 319.840913 73.363672 
L 319.840913 73.272138 
L 319.776379 73.274089 
L 315.291238 73.412718 
L 315.291238 73.17864 
L 315.226703 73.180606 
L 313.129335 73.245208 
L 313.129335 73.008301 
L 313.032533 73.011203 
L 310.999699 72.97695 
L 310.999699 72.881028 
L 310.935165 72.882944 
L 308.579659 72.856581 
L 308.579659 72.759378 
L 308.547392 72.760328 
L 308.353789 72.766035 
L 308.353789 72.473715 
L 308.289254 72.475526 
L 307.192169 72.457431 
L 307.192169 72.310152 
L 300.25472 72.405398 
L 300.25472 72.303508 
L 292.28472 72.4334 
L 292.28472 72.167102 
L 292.187919 72.169904 
L 276.957798 72.535305 
L 276.957798 72.418821 
L 273.279337 72.543632 
L 273.279337 72.484048 
L 273.279337 72.364809 
L 273.182535 72.368065 
L 266.503224 72.540376 
L 266.341888 72.483908 
L 259.178568 72.688448 
L 259.178568 72.623084 
L 255.725977 72.759713 
L 255.725977 72.625805 
L 255.661443 72.628362 
L 252.854196 72.741886 
L 252.854196 72.468313 
L 237.656343 72.985565 
L 237.656343 72.755299 
L 237.624075 72.756799 
L 234.397355 72.83199 
L 234.397355 72.595169 
L 234.365088 72.596668 
L 229.976748 72.808316 
L 229.976748 72.64436 
L 228.331121 72.725588 
L 228.331121 72.559149 
L 218.392821 73.088311 
L 218.392821 72.815141 
L 218.328287 72.81874 
L 214.553024 73.037252 
L 214.553024 72.848077 
L 214.101283 72.87449 
L 214.101283 72.589024 
L 214.069016 72.59083 
L 212.971931 72.652928 
L 212.971931 72.460188 
L 212.907397 72.463761 
L 203.840312 72.910472 
L 203.840312 72.804372 
L 203.775778 72.808555 
L 200.678126 73.016658 
L 200.678126 72.576343 
L 200.581324 72.582604 
L 200.032782 72.61835 
L 200.032782 72.396082 
L 199.871446 72.406273 
L 199.871446 72.183262 
L 199.839179 72.185223 
L 188.319787 72.993808 
L 185.286669 73.250101 
L 185.286669 72.713536 
L 175.92918 73.583012 
L 172.702459 73.947114 
L 172.702459 73.784506 
L 170.798694 74.013412 
L 170.798694 73.845292 
L 170.605091 73.868871 
L 170.605091 72.852721 
L 170.540557 72.859479 
L 168.701326 73.058809 
L 168.701326 72.882944 
L 165.635942 73.236608 
L 165.635942 72.676787 
L 162.506023 73.048704 
L 162.506023 72.849697 
L 162.409221 72.861579 
L 161.602541 72.962496 
L 161.602541 72.75948 
L 161.505739 72.771413 
L 160.311853 72.92273 
L 160.311853 72.29513 
L 160.279585 72.298895 
L 155.794444 72.879573 
L 155.72991 71.25232 
L 155.697642 71.255705 
L 152.535456 71.615516 
L 152.535456 71.105323 
L 152.438655 71.115998 
L 146.920963 71.830963 
L 143.339303 72.443281 
L 143.339303 71.091175 
L 139.047765 71.827698 
L 135.627441 72.633911 
L 135.369303 72.705732 
L 135.369303 72.235268 
L 135.337036 72.243642 
L 132.497522 73.101502 
L 131.110032 73.63073 
L 131.110032 66.96 
L 131.013231 66.96 
L 115.363636 66.96 
L 115.363636 66.96 
" clip-path="url(#p23df9340d5)" style="fill: none; stroke: #1f77b4; stroke-width: 1.5; stroke-linecap: square"/>
   </g>
   <g id="line2d_26">
    <path d="M 622.636364 369.36 
L 622.571073 369.359525 
L 622.538428 369.359537 
L 612.091986 369.252889 
L 612.091986 369.252728 
L 611.99405 369.249888 
L 606.346442 369.142515 
L 606.346442 369.142397 
L 606.281152 369.1286 
L 602.951348 369.028497 
L 602.951348 369.020465 
L 602.951348 369.007972 
L 602.004639 368.902479 
L 602.004639 368.897947 
L 601.939349 368.895708 
L 600.666189 368.788224 
L 600.666189 368.786355 
L 600.666189 368.756688 
L 599.850061 368.651521 
L 599.850061 368.646939 
L 599.850061 368.639698 
L 598.413675 368.533198 
L 598.413675 368.531332 
L 598.413675 368.472258 
L 597.466966 368.376733 
L 597.466966 368.363287 
L 597.401676 368.311902 
L 596.128515 368.217093 
L 596.128515 368.204097 
L 596.128515 368.158111 
L 595.997935 368.158492 
L 595.997935 368.047381 
L 595.997935 368.034186 
L 595.149161 367.930697 
L 595.149161 367.925773 
L 595.149161 367.908196 
L 594.463614 367.808618 
L 594.463614 367.799444 
L 594.463614 367.765848 
L 594.104517 367.767191 
L 594.104517 367.65608 
L 594.006582 367.493852 
L 593.745421 367.384104 
L 593.745421 367.383864 
L 593.68013 367.249559 
L 593.451614 367.142525 
L 593.451614 367.13955 
L 593.353679 367.057335 
L 592.831357 367.029907 
L 592.831357 366.948949 
L 592.831357 366.889212 
L 592.635486 366.890301 
L 592.635486 366.77919 
L 592.635486 366.688041 
L 592.439615 366.615504 
L 592.439615 366.578117 
L 592.439615 366.260114 
L 591.982583 366.258727 
L 591.982583 366.152137 
L 591.949938 365.675247 
L 591.852003 365.676036 
L 591.852003 365.564939 
L 591.852003 365.099791 
L 591.656132 365.101601 
L 591.656132 364.990486 
L 591.656132 364.923952 
L 591.427616 364.926146 
L 591.427616 364.815055 
L 591.427616 364.272354 
L 591.26439 364.274138 
L 591.26439 364.163032 
L 591.26439 363.86421 
L 591.13381 363.865746 
L 591.13381 363.754645 
L 591.035875 362.515628 
L 591.003229 362.516101 
L 591.003229 362.40501 
L 590.905294 360.701601 
L 590.774713 360.703964 
L 590.774713 360.592836 
L 590.774713 359.660619 
L 590.480907 359.656803 
L 590.480907 359.555441 
L 590.448262 356.939994 
L 590.187101 356.946647 
L 590.187101 356.835534 
L 590.187101 354.151477 
L 590.056521 354.155501 
L 590.056521 354.045064 
L 589.99123 344.641088 
L 589.893295 344.645808 
L 589.893295 344.535032 
L 589.828005 342.45738 
L 589.697424 342.464173 
L 589.697424 342.352942 
L 589.697424 341.706216 
L 589.468908 341.718404 
L 589.468908 341.607659 
L 589.468908 336.984926 
L 589.240392 336.998941 
L 589.240392 336.887962 
L 589.240392 323.164392 
L 588.946586 323.188753 
L 588.946586 323.080209 
L 588.946586 312.165693 
L 588.522199 312.207382 
L 588.522199 312.096139 
L 588.522199 311.312161 
L 588.097813 311.35436 
L 588.097813 311.246665 
L 587.999877 297.021885 
L 587.804006 297.044745 
L 587.804006 296.934082 
L 587.804006 296.617075 
L 587.608136 296.640031 
L 587.608136 296.53052 
L 587.608136 296.486623 
L 587.412265 296.509617 
L 587.412265 296.398444 
L 587.412265 296.159073 
L 586.30233 296.224632 
L 586.30233 296.191346 
L 586.30233 278.300748 
L 585.910589 278.353783 
L 585.910589 278.252573 
L 585.910589 278.112803 
L 585.780008 278.130514 
L 585.780008 278.023014 
L 585.714718 276.49402 
L 585.649428 276.502966 
L 585.649428 276.393564 
L 585.584137 267.329135 
L 585.518847 267.338536 
L 585.518847 267.235317 
L 585.518847 256.231025 
L 585.159751 256.285185 
L 585.159751 256.173093 
L 585.061815 228.353855 
L 584.931235 228.374796 
L 584.931235 228.26479 
L 584.931235 228.24185 
L 584.474203 228.306018 
L 584.474203 228.204988 
L 584.441558 224.124948 
L 584.343622 224.140721 
L 584.343622 224.082318 
L 584.343622 213.718756 
L 583.951881 213.781919 
L 583.951881 213.69247 
L 583.951881 208.172836 
L 583.788655 208.199076 
L 583.788655 208.121076 
L 583.723365 202.148967 
L 583.625429 202.164609 
L 583.625429 202.061245 
L 583.592784 196.233318 
L 583.429558 196.259137 
L 583.429558 196.155234 
L 583.429558 194.694455 
L 583.135752 194.740807 
L 583.135752 194.642066 
L 583.135752 194.514949 
L 582.841946 194.561312 
L 582.841946 194.518895 
L 582.841946 193.958475 
L 582.384914 193.994973 
L 582.384914 193.966485 
L 582.352269 189.328924 
L 582.254334 189.344211 
L 582.254334 189.246594 
L 582.156398 179.270394 
L 582.091108 179.280273 
L 582.091108 179.196542 
L 581.993173 175.973847 
L 581.797302 176.00313 
L 581.797302 175.942451 
L 581.732012 170.834325 
L 581.34027 170.891659 
L 581.34027 170.791086 
L 581.27498 168.786166 
L 581.177044 168.80037 
L 581.177044 168.697632 
L 581.079109 159.02361 
L 581.046464 159.028101 
L 581.046464 158.935641 
L 581.046464 156.995997 
L 580.915883 157.013735 
L 580.915883 156.919471 
L 580.915883 156.898512 
L 580.622077 156.93842 
L 580.622077 156.84403 
L 580.556787 156.14753 
L 580.458851 156.160774 
L 580.458851 156.065659 
L 580.458851 152.168323 
L 580.328271 152.185514 
L 580.328271 152.086793 
L 580.295626 151.26489 
L 580.099755 151.179865 
L 580.099755 150.268244 
L 579.708013 150.319166 
L 579.708013 150.285657 
L 579.610078 145.117703 
L 579.512142 145.129934 
L 579.512142 145.07138 
L 579.446852 144.244695 
L 579.381562 144.252792 
L 579.381562 144.146516 
L 579.316272 143.681024 
L 579.185691 143.697146 
L 579.185691 143.602177 
L 579.185691 142.276195 
L 578.98982 142.300093 
L 578.98982 142.191875 
L 578.92453 142.067422 
L 578.85924 142.075375 
L 578.85924 142.003079 
L 578.79395 141.00612 
L 578.663369 141.021882 
L 578.663369 140.92454 
L 578.565434 139.342672 
L 578.369563 139.365966 
L 578.369563 139.254787 
L 578.271627 136.286548 
L 578.108402 136.305398 
L 578.108402 136.216569 
L 578.075757 134.661189 
L 577.977821 134.672314 
L 577.977821 134.607963 
L 577.912531 133.528888 
L 577.58608 133.565555 
L 577.58608 133.461514 
L 577.488144 132.963935 
L 577.390209 132.974874 
L 577.390209 132.909506 
L 577.390209 132.240681 
L 577.161693 132.266013 
L 577.063757 131.378844 
L 577.031112 131.382429 
L 577.031112 131.342652 
L 576.965822 130.391087 
L 576.900532 130.398179 
L 576.900532 130.358061 
L 576.867887 128.433496 
L 576.606726 128.461229 
L 576.606726 128.366015 
L 576.50879 125.5957 
L 576.149694 125.54892 
L 576.051758 123.718706 
L 575.986468 123.725242 
L 575.986468 123.626117 
L 575.921178 121.431302 
L 575.725307 121.450304 
L 575.725307 121.349279 
L 575.725307 120.610747 
L 575.137695 120.667145 
L 575.137695 120.594444 
L 575.137695 120.02591 
L 575.007114 120.038341 
L 575.007114 119.936002 
L 575.007114 119.83358 
L 574.843888 119.84908 
L 574.843888 119.74655 
L 574.811243 119.25042 
L 574.484792 119.192824 
L 574.484792 119.178094 
L 574.386857 117.54114 
L 574.321566 117.547133 
L 574.321566 117.457525 
L 574.321566 117.263156 
L 574.02776 117.29002 
L 574.02776 117.185191 
L 573.929825 116.518053 
L 573.89718 116.521004 
L 573.89718 116.415504 
L 573.831889 115.634849 
L 573.733954 115.643576 
L 573.733954 115.537306 
L 573.733954 115.385337 
L 573.603373 115.396927 
L 573.603373 115.381717 
L 573.505438 114.305682 
L 573.472793 114.308528 
L 573.472793 114.231786 
L 573.407503 113.606378 
L 573.309567 113.614816 
L 573.309567 112.980501 
L 572.852535 112.91079 
L 572.81989 112.415514 
L 572.624019 112.43206 
L 572.624019 112.35404 
L 572.558729 111.921721 
L 572.460794 111.929923 
L 572.460794 111.820216 
L 572.362858 111.640089 
L 571.807891 111.686384 
L 571.807891 111.592043 
L 571.807891 111.513372 
L 571.709956 111.521526 
L 571.61202 111.529682 
L 571.61202 111.466692 
L 571.514085 110.621326 
L 571.187633 110.648081 
L 571.187633 110.552849 
L 571.089698 109.812336 
L 570.632666 109.849257 
L 570.632666 109.785307 
L 570.567376 109.374089 
L 570.436795 109.384553 
L 570.436795 109.336401 
L 570.436795 109.240042 
L 568.673958 109.333071 
L 568.673958 109.284712 
L 568.576023 107.767936 
L 568.543378 107.770479 
L 568.543378 107.705201 
L 568.543378 106.491656 
L 568.216926 106.499943 
L 568.216926 106.433982 
L 568.216926 106.351484 
L 568.053701 106.363838 
L 568.053701 106.264746 
L 567.955765 105.592907 
L 567.85783 105.517113 
L 567.85783 105.41734 
L 567.564024 105.372559 
L 567.564024 105.172587 
L 567.433443 105.182231 
L 567.433443 105.13218 
L 567.433443 104.931786 
L 567.172282 104.850625 
L 567.106992 103.628179 
L 566.976411 103.553004 
L 566.976411 103.5361 
L 566.976411 103.451543 
L 566.813186 103.463145 
L 566.813186 103.378511 
L 566.71525 103.114227 
L 566.192928 103.13412 
L 566.192928 103.04916 
L 566.160283 102.898389 
L 565.670606 102.830592 
L 565.637961 102.525703 
L 565.474735 102.537084 
L 565.474735 102.485805 
L 565.474735 102.177711 
L 565.44209 102.179968 
L 565.311509 102.103268 
L 565.278864 101.744828 
L 565.017703 101.711077 
L 565.017703 101.659427 
L 564.919768 101.407527 
L 564.789187 101.416396 
L 564.789187 101.347338 
L 564.789187 100.585345 
L 564.201575 100.572305 
L 564.10364 99.916204 
L 564.070994 99.91834 
L 564.070994 99.830905 
L 564.070994 99.550731 
L 563.875124 99.56343 
L 563.875124 99.475726 
L 563.809833 98.245946 
L 563.483382 98.195483 
L 563.385447 97.704207 
L 562.993705 97.710566 
L 562.993705 97.657121 
L 562.96106 97.355862 
L 562.275512 97.326254 
L 562.275512 97.290468 
L 562.275512 97.254673 
L 562.177577 97.260648 
L 562.144932 97.26264 
L 562.144932 97.173089 
L 562.046996 96.298173 
L 561.88377 96.307857 
L 561.88377 96.217624 
L 561.88377 96.181515 
L 561.589964 96.198896 
L 561.589964 96.090452 
L 561.557319 95.965743 
L 561.426739 95.97342 
L 561.426739 95.9191 
L 561.426739 95.68346 
L 560.61061 95.694762 
L 560.61061 95.65841 
L 560.54532 95.534898 
L 560.186224 95.446487 
L 560.186224 95.410035 
L 559.761837 95.325147 
L 559.761837 95.270364 
L 559.435385 95.17953 
L 559.370095 95.110104 
L 558.684547 95.07626 
L 558.684547 95.039585 
L 558.651902 94.931371 
L 558.586612 94.935111 
L 558.292806 94.933582 
L 558.292806 94.8417 
L 558.292806 94.749756 
L 558.096935 94.650468 
L 558.096935 94.595208 
L 558.06429 94.59706 
L 557.933709 94.604469 
L 557.933709 94.586039 
L 557.933709 93.994957 
L 557.639903 93.974263 
L 557.639903 93.937206 
L 557.639903 93.584665 
L 557.313452 93.6026 
L 557.248162 93.196557 
L 557.084936 93.205411 
L 557.052291 92.945778 
L 556.889065 92.954559 
L 556.889065 92.879758 
L 556.889065 92.823631 
L 556.529969 92.842882 
L 556.529969 92.786694 
L 556.497323 92.619731 
L 556.203517 92.635382 
L 556.203517 92.616613 
L 556.138227 92.300593 
L 555.779131 92.244189 
L 555.779131 92.206506 
L 555.58326 92.141378 
L 555.517969 91.861563 
L 555.289454 91.816691 
L 555.224163 91.592849 
L 554.538615 91.571227 
L 554.538615 91.419274 
L 554.50597 91.420946 
L 554.212164 91.39796 
L 554.212164 91.340883 
L 554.212164 91.245704 
L 554.179519 91.247366 
L 554.081584 91.252352 
L 554.081584 91.195199 
L 554.016293 90.835957 
L 553.885713 90.842506 
L 553.853068 90.557154 
L 553.755132 90.562014 
L 553.755132 90.485369 
L 553.689842 90.335166 
L 553.591907 90.339986 
L 553.591907 90.320791 
L 553.591907 90.090246 
L 553.526616 90.093429 
L 553.036939 90.11733 
L 553.036939 89.924712 
L 552.906359 89.931045 
L 552.906359 89.77672 
L 552.808423 89.781443 
L 552.612553 89.790894 
L 552.612553 89.732945 
L 552.612553 89.558954 
L 552.514617 89.563639 
L 551.535263 89.513635 
L 551.535263 89.202916 
L 551.469973 89.206001 
L 551.306747 89.213718 
L 551.306747 88.921661 
L 551.274102 88.923186 
L 550.849715 88.904013 
L 550.849715 88.84546 
L 550.849715 88.786882 
L 549.935652 88.751192 
L 549.870361 88.479864 
L 549.217459 88.470653 
L 549.217459 88.411698 
L 549.217459 88.17563 
L 549.119523 88.180085 
L 548.074879 88.207978 
L 548.009589 87.458878 
L 547.781073 87.468977 
L 547.781073 87.369674 
L 547.781073 87.310059 
L 546.605848 87.301997 
L 546.605848 87.262129 
L 546.507913 86.847052 
L 545.985591 86.829539 
L 545.985591 86.609071 
L 545.952945 86.610464 
L 545.365333 86.575309 
L 545.365333 86.555216 
L 545.300043 85.792234 
L 545.169462 85.797599 
L 545.169462 85.71673 
L 545.071527 85.173553 
L 545.038882 85.174854 
L 545.038882 85.093604 
L 544.973591 84.89284 
L 544.451269 84.852246 
L 544.451269 84.791091 
L 544.353334 84.794922 
L 543.896302 84.710721 
L 543.896302 84.690293 
L 543.602496 84.701744 
L 543.602496 84.333302 
L 543.50456 84.337048 
L 542.525206 84.312959 
L 542.492561 84.149703 
L 542.459916 84.150942 
L 541.578498 84.101988 
L 541.578498 83.978178 
L 541.480562 83.981869 
L 541.252046 83.907832 
L 541.219401 83.598649 
L 540.305337 83.528649 
L 540.305337 83.507876 
L 540.207402 83.511482 
L 540.142112 83.513887 
L 540.142112 83.368344 
L 539.587144 83.388644 
L 539.587144 83.284472 
L 539.554499 83.181406 
L 538.216049 83.146297 
L 538.216049 83.104432 
L 537.987533 83.112695 
L 537.987533 83.007927 
L 537.987533 82.903083 
L 537.954888 82.90425 
L 537.432566 82.838911 
L 537.432566 82.69174 
L 537.367275 82.694048 
L 535.604438 82.65098 
L 535.604438 82.608708 
L 535.506503 82.612167 
L 535.473858 82.613321 
L 535.375922 82.108303 
L 534.690374 82.02551 
L 534.690374 81.940401 
L 534.625084 81.942618 
L 533.547795 81.872579 
L 533.547795 81.851226 
L 533.482504 81.853436 
L 532.992827 81.870039 
L 532.992827 81.805882 
L 532.894892 81.509355 
L 532.764311 81.427881 
L 532.764311 81.32055 
L 532.731666 81.32162 
L 531.915538 81.240811 
L 531.915538 81.219279 
L 531.132055 81.136992 
L 531.132055 81.115404 
L 531.034119 81.118583 
L 529.989475 81.10929 
L 529.989475 81.022666 
L 529.89154 81.025834 
L 527.214639 81.025775 
L 527.214639 80.982152 
L 526.692317 80.977291 
L 526.692317 80.780569 
L 525.974124 80.781727 
L 525.974124 80.430725 
L 525.647672 80.440966 
L 525.647672 80.176962 
L 525.288576 80.143952 
L 525.288576 80.011623 
L 525.255931 80.012618 
L 525.06006 80.018589 
L 525.06006 79.97443 
L 525.027415 79.842855 
L 523.623674 79.863083 
L 523.558384 79.44301 
L 523.525739 79.443967 
L 523.297223 79.428411 
L 523.199287 79.029924 
L 522.219933 79.057816 
L 522.219933 78.856275 
L 521.207934 78.7949 
L 521.207934 78.749944 
L 521.109999 78.752679 
L 520.783548 78.761805 
L 520.783548 78.581669 
L 520.685612 78.584369 
L 519.967419 78.604209 
L 519.967419 78.423514 
L 519.118646 78.446697 
L 519.118646 78.197391 
L 519.02071 78.200016 
L 518.204582 78.153731 
L 518.204582 78.085489 
L 518.106647 78.088095 
L 516.898777 78.074686 
L 516.898777 77.731859 
L 516.800841 77.734393 
L 516.376455 77.676644 
L 516.278519 77.564496 
L 515.821487 77.576174 
L 515.821487 77.41531 
L 515.788842 77.416132 
L 513.92807 77.393953 
L 513.92807 77.324619 
L 513.830134 77.327079 
L 512.393748 77.270466 
L 512.393748 77.224029 
L 512.328458 77.22566 
L 511.806136 77.238726 
L 511.806136 77.052573 
L 510.108589 77.000982 
L 510.043299 76.838724 
L 509.22717 76.788105 
L 509.22717 76.600154 
L 509.194525 76.600928 
L 506.387044 76.596904 
L 506.387044 76.40734 
L 503.906014 76.370328 
L 503.906014 76.322584 
L 503.873368 76.323346 
L 502.99195 76.296112 
L 502.99195 76.272173 
L 502.99195 76.224284 
L 501.71879 76.157754 
L 501.71879 75.869011 
L 500.967952 75.789296 
L 500.870016 75.670667 
L 498.846018 75.66672 
L 498.748083 75.376927 
L 496.854665 75.344113 
L 496.854665 75.319631 
L 496.756729 75.27273 
L 496.462923 75.278963 
L 496.462923 75.229923 
L 496.462923 74.812421 
L 496.364988 74.814387 
L 495.907956 74.798945 
L 495.842666 74.529011 
L 494.145119 74.462902 
L 494.145119 74.413288 
L 494.047183 74.415168 
L 492.904604 74.437172 
L 492.871959 74.088919 
L 492.806668 74.090123 
L 491.696734 74.010526 
L 491.631443 73.936566 
L 491.207057 73.944262 
L 491.207057 73.793677 
L 490.423574 73.7573 
L 490.423574 73.706953 
L 490.423574 73.581012 
L 487.061125 73.537882 
L 487.061125 73.461559 
L 486.995835 73.462677 
L 484.416869 73.404612 
L 484.416869 73.37897 
L 484.155708 73.280737 
L 484.155708 73.203679 
L 481.380872 73.172371 
L 481.380872 73.068763 
L 479.944486 73.092343 
L 479.944486 72.936207 
L 478.703971 72.877821 
L 478.703971 72.825541 
L 478.606035 72.827091 
L 478.181649 72.78145 
L 478.181649 72.676652 
L 478.083713 72.678166 
L 476.09236 72.603677 
L 476.09236 72.577301 
L 473.513394 72.510712 
L 473.513394 72.377753 
L 469.008366 72.391647 
L 469.008366 72.283847 
L 467.049658 72.231638 
L 467.049658 72.150257 
L 465.286821 72.066849 
L 465.286821 72.03956 
L 456.668506 72.05375 
L 456.668506 72.025769 
L 456.57057 72.027199 
L 454.513927 72.057409 
L 454.513927 71.747385 
L 454.448637 71.748292 
L 453.991605 71.669861 
L 453.991605 71.613307 
L 453.926314 71.61419 
L 452.587864 71.632378 
L 452.489929 71.43475 
L 444.067484 71.460196 
L 444.067484 71.372671 
L 439.725681 71.4013 
L 439.725681 71.253385 
L 439.627746 71.254663 
L 438.419876 71.240775 
L 438.419876 71.032591 
L 438.354586 71.033403 
L 436.330588 70.968865 
L 436.330588 70.938894 
L 432.674333 70.893174 
L 432.674333 70.862842 
L 432.282591 70.867604 
L 432.282591 70.685266 
L 432.217301 70.686024 
L 420.497698 70.732616 
L 420.497698 70.54306 
L 420.399762 70.544196 
L 414.91538 70.512432 
L 414.91538 70.448001 
L 414.295123 70.455155 
L 414.295123 70.293629 
L 414.262477 70.293989 
L 407.831386 70.300419 
L 407.831386 70.234334 
L 402.118488 70.231444 
L 402.118488 70.029052 
L 402.020552 70.03009 
L 401.335005 70.037375 
L 401.335005 69.935805 
L 401.335005 69.868053 
L 399.408942 69.785219 
L 399.408942 69.751083 
L 399.376297 69.751401 
L 391.215013 69.727761 
L 391.215013 69.692598 
L 391.149723 69.693239 
L 370.811805 69.79492 
L 370.746515 69.719698 
L 370.71387 69.720048 
L 367.449356 69.678506 
L 367.449356 69.640014 
L 355.566528 69.730991 
L 355.566528 69.650216 
L 341.659701 69.771142 
L 341.659701 69.470915 
L 341.561765 69.471993 
L 330.854162 69.550671 
L 330.854162 69.325196 
L 330.756226 69.326263 
L 322.758169 69.323022 
L 322.758169 69.135339 
L 308.4596 69.244796 
L 308.4596 68.992635 
L 308.39431 68.993318 
L 279.307496 69.232554 
L 279.307496 69.173188 
L 279.242206 69.174063 
L 271.668535 69.218273 
L 271.668535 69.155998 
L 269.35073 69.125584 
L 269.35073 69.062333 
L 265.759766 69.047406 
L 265.759766 68.788056 
L 249.828941 68.930678 
L 249.828941 68.858148 
L 249.796296 68.858606 
L 241.373851 68.984658 
L 241.373851 68.829878 
L 241.341206 68.830359 
L 218.293742 69.151435 
L 218.293742 68.962136 
L 207.847299 69.081336 
L 207.847299 68.975976 
L 199.163694 69.183342 
L 199.163694 68.717989 
L 199.131049 68.718671 
L 181.045645 69.051076 
L 181.045645 68.605425 
L 180.947709 68.607868 
L 165.963593 69.092411 
L 161.850306 69.279648 
L 161.850306 69.070241 
L 152.219992 69.616792 
L 146.73561 70.076463 
L 146.73561 69.767708 
L 141.022711 70.385757 
L 136.713554 71.067809 
L 136.582973 71.092742 
L 136.582973 70.639132 
L 136.517683 70.650348 
L 134.65691 71.001517 
L 134.65691 70.502241 
L 134.624265 70.508174 
L 131.425042 71.20501 
L 129.956011 71.625771 
L 129.956011 69.64389 
L 127.115884 70.285369 
L 125.091886 70.968061 
L 123.688145 71.633491 
L 122.349695 72.512451 
L 121.337696 73.432911 
L 120.488922 74.478225 
L 119.999245 75.250646 
L 119.085182 77.217918 
L 118.432279 79.31137 
L 117.844666 82.090429 
L 117.387635 85.299913 
L 117.028538 88.967896 
L 116.702087 93.85854 
L 116.375635 101.543837 
L 116.179765 108.699113 
L 115.820668 134.206349 
L 115.820668 66.96 
L 115.363636 66.96 
L 115.363636 66.96 
" clip-path="url(#p23df9340d5)" style="fill: none; stroke: #ff7f0e; stroke-width: 1.5; stroke-linecap: square"/>
   </g>
   <g id="patch_3">
    <path d="M 90 384.48 
L 90 51.84 
" style="fill: none; stroke: #000000; stroke-width: 0.8; stroke-linejoin: miter; stroke-linecap: square"/>
   </g>
   <g id="patch_4">
    <path d="M 648 384.48 
L 648 51.84 
" style="fill: none; stroke: #000000; stroke-width: 0.8; stroke-linejoin: miter; stroke-linecap: square"/>
   </g>
   <g id="patch_5">
    <path d="M 90 384.48 
L 648 384.48 
" style="fill: none; stroke: #000000; stroke-width: 0.8; stroke-linejoin: miter; stroke-linecap: square"/>
   </g>
   <g id="patch_6">
    <path d="M 90 51.84 
L 648 51.84 
" style="fill: none; stroke: #000000; stroke-width: 0.8; stroke-linejoin: miter; stroke-linecap: square"/>
   </g>
   <g id="text_15">
    <!-- Precision-Recall Curves -->
    <g transform="translate(299.431875 32.402625) scale(0.12 -0.12)">
     <defs>
      <path id="DejaVuSans-2d" d="M 313 2009 
L 1997 2009 
L 1997 1497 
L 313 1497 
L 313 2009 
z
" transform="scale(0.015625)"/>
      <path id="DejaVuSans-20" transform="scale(0.015625)"/>
      <path id="DejaVuSans-43" d="M 4122 4306 
L 4122 3641 
Q 3803 3938 3442 4084 
Q 3081 4231 2675 4231 
Q 1875 4231 1450 3742 
Q 1025 3253 1025 2328 
Q 1025 1406 1450 917 
Q 1875 428 2675 428 
Q 3081 428 3442 575 
Q 3803 722 4122 1019 
L 4122 359 
Q 3791 134 3420 21 
Q 3050 -91 2638 -91 
Q 1578 -91 968 557 
Q 359 1206 359 2328 
Q 359 3453 968 4101 
Q 1578 4750 2638 4750 
Q 3056 4750 3426 4639 
Q 3797 4528 4122 4306 
z
" transform="scale(0.015625)"/>
      <path id="DejaVuSans-75" d="M 544 1381 
L 544 3500 
L 1119 3500 
L 1119 1403 
Q 1119 906 1312 657 
Q 1506 409 1894 409 
Q 2359 409 2629 706 
Q 2900 1003 2900 1516 
L 2900 3500 
L 3475 3500 
L 3475 0 
L 2900 0 
L 2900 538 
Q 2691 219 2414 64 
Q 2138 -91 1772 -91 
Q 1169 -91 856 284 
Q 544 659 544 1381 
z
M 1991 3584 
L 1991 3584 
z
" transform="scale(0.015625)"/>
      <path id="DejaVuSans-76" d="M 191 3500 
L 800 3500 
L 1894 563 
L 2988 3500 
L 3597 3500 
L 2284 0 
L 1503 0 
L 191 3500 
z
" transform="scale(0.015625)"/>
     </defs>
     <use xlink:href="#DejaVuSans-50"/>
     <use xlink:href="#DejaVuSans-72" transform="translate(58.552734 0)"/>
     <use xlink:href="#DejaVuSans-65" transform="translate(97.416016 0)"/>
     <use xlink:href="#DejaVuSans-63" transform="translate(158.939453 0)"/>
     <use xlink:href="#DejaVuSans-69" transform="translate(213.919922 0)"/>
     <use xlink:href="#DejaVuSans-73" transform="translate(241.703125 0)"/>
     <use xlink:href="#DejaVuSans-69" transform="translate(293.802734 0)"/>
     <use xlink:href="#DejaVuSans-6f" transform="translate(321.585938 0)"/>
     <use xlink:href="#DejaVuSans-6e" transform="translate(382.767578 0)"/>
     <use xlink:href="#DejaVuSans-2d" transform="translate(446.146484 0)"/>
     <use xlink:href="#DejaVuSans-52" transform="translate(482.230469 0)"/>
     <use xlink:href="#DejaVuSans-65" transform="translate(547.212891 0)"/>
     <use xlink:href="#DejaVuSans-63" transform="translate(608.736328 0)"/>
     <use xlink:href="#DejaVuSans-61" transform="translate(663.716797 0)"/>
     <use xlink:href="#DejaVuSans-6c" transform="translate(724.996094 0)"/>
     <use xlink:href="#DejaVuSans-6c" transform="translate(752.779297 0)"/>
     <use xlink:href="#DejaVuSans-20" transform="translate(780.5625 0)"/>
     <use xlink:href="#DejaVuSans-43" transform="translate(812.349609 0)"/>
     <use xlink:href="#DejaVuSans-75" transform="translate(882.173828 0)"/>
     <use xlink:href="#DejaVuSans-72" transform="translate(945.552734 0)"/>
     <use xlink:href="#DejaVuSans-76" transform="translate(986.666016 0)"/>
     <use xlink:href="#DejaVuSans-65" transform="translate(1045.845703 0)"/>
     <use xlink:href="#DejaVuSans-73" transform="translate(1107.369141 0)"/>
    </g>
    <!-- Mean AUPRC: 0.902, Mean Top-k: 0.884 -->
    <g transform="translate(250.53 45.84) scale(0.12 -0.12)">
     <defs>
      <path id="DejaVuSans-4d" d="M 628 4666 
L 1569 4666 
L 2759 1491 
L 3956 4666 
L 4897 4666 
L 4897 0 
L 4281 0 
L 4281 4097 
L 3078 897 
L 2444 897 
L 1241 4097 
L 1241 0 
L 628 0 
L 628 4666 
z
" transform="scale(0.015625)"/>
      <path id="DejaVuSans-41" d="M 2188 4044 
L 1331 1722 
L 3047 1722 
L 2188 4044 
z
M 1831 4666 
L 2547 4666 
L 4325 0 
L 3669 0 
L 3244 1197 
L 1141 1197 
L 716 0 
L 50 0 
L 1831 4666 
z
" transform="scale(0.015625)"/>
      <path id="DejaVuSans-55" d="M 556 4666 
L 1191 4666 
L 1191 1831 
Q 1191 1081 1462 751 
Q 1734 422 2344 422 
Q 2950 422 3222 751 
Q 3494 1081 3494 1831 
L 3494 4666 
L 4128 4666 
L 4128 1753 
Q 4128 841 3676 375 
Q 3225 -91 2344 -91 
Q 1459 -91 1007 375 
Q 556 841 556 1753 
L 556 4666 
z
" transform="scale(0.015625)"/>
      <path id="DejaVuSans-3a" d="M 750 794 
L 1409 794 
L 1409 0 
L 750 0 
L 750 794 
z
M 750 3309 
L 1409 3309 
L 1409 2516 
L 750 2516 
L 750 3309 
z
" transform="scale(0.015625)"/>
      <path id="DejaVuSans-39" d="M 703 97 
L 703 672 
Q 941 559 1184 500 
Q 1428 441 1663 441 
Q 2288 441 2617 861 
Q 2947 1281 2994 2138 
Q 2813 1869 2534 1725 
Q 2256 1581 1919 1581 
Q 1219 1581 811 2004 
Q 403 2428 403 3163 
Q 403 3881 828 4315 
Q 1253 4750 1959 4750 
Q 2769 4750 3195 4129 
Q 3622 3509 3622 2328 
Q 3622 1225 3098 567 
Q 2575 -91 1691 -91 
Q 1453 -91 1209 -44 
Q 966 3 703 97 
z
M 1959 2075 
Q 2384 2075 2632 2365 
Q 2881 2656 2881 3163 
Q 2881 3666 2632 3958 
Q 2384 4250 1959 4250 
Q 1534 4250 1286 3958 
Q 1038 3666 1038 3163 
Q 1038 2656 1286 2365 
Q 1534 2075 1959 2075 
z
" transform="scale(0.015625)"/>
      <path id="DejaVuSans-2c" d="M 750 794 
L 1409 794 
L 1409 256 
L 897 -744 
L 494 -744 
L 750 256 
L 750 794 
z
" transform="scale(0.015625)"/>
      <path id="DejaVuSans-54" d="M -19 4666 
L 3928 4666 
L 3928 4134 
L 2272 4134 
L 2272 0 
L 1638 0 
L 1638 4134 
L -19 4134 
L -19 4666 
z
" transform="scale(0.015625)"/>
      <path id="DejaVuSans-70" d="M 1159 525 
L 1159 -1331 
L 581 -1331 
L 581 3500 
L 1159 3500 
L 1159 2969 
Q 1341 3281 1617 3432 
Q 1894 3584 2278 3584 
Q 2916 3584 3314 3078 
Q 3713 2572 3713 1747 
Q 3713 922 3314 415 
Q 2916 -91 2278 -91 
Q 1894 -91 1617 61 
Q 1341 213 1159 525 
z
M 3116 1747 
Q 3116 2381 2855 2742 
Q 2594 3103 2138 3103 
Q 1681 3103 1420 2742 
Q 1159 2381 1159 1747 
Q 1159 1113 1420 752 
Q 1681 391 2138 391 
Q 2594 391 2855 752 
Q 3116 1113 3116 1747 
z
" transform="scale(0.015625)"/>
      <path id="DejaVuSans-6b" d="M 581 4863 
L 1159 4863 
L 1159 1991 
L 2875 3500 
L 3609 3500 
L 1753 1863 
L 3688 0 
L 2938 0 
L 1159 1709 
L 1159 0 
L 581 0 
L 581 4863 
z
" transform="scale(0.015625)"/>
     </defs>
     <use xlink:href="#DejaVuSans-4d"/>
     <use xlink:href="#DejaVuSans-65" transform="translate(86.279297 0)"/>
     <use xlink:href="#DejaVuSans-61" transform="translate(147.802734 0)"/>
     <use xlink:href="#DejaVuSans-6e" transform="translate(209.082031 0)"/>
     <use xlink:href="#DejaVuSans-20" transform="translate(272.460938 0)"/>
     <use xlink:href="#DejaVuSans-41" transform="translate(304.248047 0)"/>
     <use xlink:href="#DejaVuSans-55" transform="translate(372.65625 0)"/>
     <use xlink:href="#DejaVuSans-50" transform="translate(445.849609 0)"/>
     <use xlink:href="#DejaVuSans-52" transform="translate(506.152344 0)"/>
     <use xlink:href="#DejaVuSans-43" transform="translate(570.634766 0)"/>
     <use xlink:href="#DejaVuSans-3a" transform="translate(640.458984 0)"/>
     <use xlink:href="#DejaVuSans-20" transform="translate(674.150391 0)"/>
     <use xlink:href="#DejaVuSans-30" transform="translate(705.9375 0)"/>
     <use xlink:href="#DejaVuSans-2e" transform="translate(769.560547 0)"/>
     <use xlink:href="#DejaVuSans-39" transform="translate(801.347656 0)"/>
     <use xlink:href="#DejaVuSans-30" transform="translate(864.970703 0)"/>
     <use xlink:href="#DejaVuSans-32" transform="translate(928.59375 0)"/>
     <use xlink:href="#DejaVuSans-2c" transform="translate(992.216797 0)"/>
     <use xlink:href="#DejaVuSans-20" transform="translate(1024.003906 0)"/>
     <use xlink:href="#DejaVuSans-4d" transform="translate(1055.791016 0)"/>
     <use xlink:href="#DejaVuSans-65" transform="translate(1142.070312 0)"/>
     <use xlink:href="#DejaVuSans-61" transform="translate(1203.59375 0)"/>
     <use xlink:href="#DejaVuSans-6e" transform="translate(1264.873047 0)"/>
     <use xlink:href="#DejaVuSans-20" transform="translate(1328.251953 0)"/>
     <use xlink:href="#DejaVuSans-54" transform="translate(1360.039062 0)"/>
     <use xlink:href="#DejaVuSans-6f" transform="translate(1404.123047 0)"/>
     <use xlink:href="#DejaVuSans-70" transform="translate(1465.304688 0)"/>
     <use xlink:href="#DejaVuSans-2d" transform="translate(1528.78125 0)"/>
     <use xlink:href="#DejaVuSans-6b" transform="translate(1564.865234 0)"/>
     <use xlink:href="#DejaVuSans-3a" transform="translate(1622.775391 0)"/>
     <use xlink:href="#DejaVuSans-20" transform="translate(1656.466797 0)"/>
     <use xlink:href="#DejaVuSans-30" transform="translate(1688.253906 0)"/>
     <use xlink:href="#DejaVuSans-2e" transform="translate(1751.876953 0)"/>
     <use xlink:href="#DejaVuSans-38" transform="translate(1783.664062 0)"/>
     <use xlink:href="#DejaVuSans-38" transform="translate(1847.287109 0)"/>
     <use xlink:href="#DejaVuSans-34" transform="translate(1910.910156 0)"/>
    </g>
   </g>
   <g id="legend_1">
    <g id="patch_7">
     <path d="M 97 379.48 
L 254.923437 379.48 
Q 256.923437 379.48 256.923437 377.48 
L 256.923437 349.12375 
Q 256.923437 347.12375 254.923437 347.12375 
L 97 347.12375 
Q 95 347.12375 95 349.12375 
L 95 377.48 
Q 95 379.48 97 379.48 
z
" style="fill: #ffffff; opacity: 0.8; stroke: #cccccc; stroke-linejoin: miter"/>
    </g>
    <g id="line2d_27">
     <path d="M 99 355.222188 
L 109 355.222188 
L 119 355.222188 
" style="fill: none; stroke: #1f77b4; stroke-width: 1.5; stroke-linecap: square"/>
    </g>
    <g id="text_16">
     <!-- Acceptor (AUPRC=0.900) -->
     <g transform="translate(127 358.722188) scale(0.1 -0.1)">
      <defs>
       <path id="DejaVuSans-74" d="M 1172 4494 
L 1172 3500 
L 2356 3500 
L 2356 3053 
L 1172 3053 
L 1172 1153 
Q 1172 725 1289 603 
Q 1406 481 1766 481 
L 2356 481 
L 2356 0 
L 1766 0 
Q 1100 0 847 248 
Q 594 497 594 1153 
L 594 3053 
L 172 3053 
L 172 3500 
L 594 3500 
L 594 4494 
L 1172 4494 
z
" transform="scale(0.015625)"/>
       <path id="DejaVuSans-28" d="M 1984 4856 
Q 1566 4138 1362 3434 
Q 1159 2731 1159 2009 
Q 1159 1288 1364 580 
Q 1569 -128 1984 -844 
L 1484 -844 
Q 1016 -109 783 600 
Q 550 1309 550 2009 
Q 550 2706 781 3412 
Q 1013 4119 1484 4856 
L 1984 4856 
z
" transform="scale(0.015625)"/>
       <path id="DejaVuSans-3d" d="M 678 2906 
L 4684 2906 
L 4684 2381 
L 678 2381 
L 678 2906 
z
M 678 1631 
L 4684 1631 
L 4684 1100 
L 678 1100 
L 678 1631 
z
" transform="scale(0.015625)"/>
       <path id="DejaVuSans-29" d="M 513 4856 
L 1013 4856 
Q 1481 4119 1714 3412 
Q 1947 2706 1947 2009 
Q 1947 1309 1714 600 
Q 1481 -109 1013 -844 
L 513 -844 
Q 928 -128 1133 580 
Q 1338 1288 1338 2009 
Q 1338 2731 1133 3434 
Q 928 4138 513 4856 
z
" transform="scale(0.015625)"/>
      </defs>
      <use xlink:href="#DejaVuSans-41"/>
      <use xlink:href="#DejaVuSans-63" transform="translate(66.658203 0)"/>
      <use xlink:href="#DejaVuSans-63" transform="translate(121.638672 0)"/>
      <use xlink:href="#DejaVuSans-65" transform="translate(176.619141 0)"/>
      <use xlink:href="#DejaVuSans-70" transform="translate(238.142578 0)"/>
      <use xlink:href="#DejaVuSans-74" transform="translate(301.619141 0)"/>
      <use xlink:href="#DejaVuSans-6f" transform="translate(340.828125 0)"/>
      <use xlink:href="#DejaVuSans-72" transform="translate(402.009766 0)"/>
      <use xlink:href="#DejaVuSans-20" transform="translate(443.123047 0)"/>
      <use xlink:href="#DejaVuSans-28" transform="translate(474.910156 0)"/>
      <use xlink:href="#DejaVuSans-41" transform="translate(513.923828 0)"/>
      <use xlink:href="#DejaVuSans-55" transform="translate(582.332031 0)"/>
      <use xlink:href="#DejaVuSans-50" transform="translate(655.525391 0)"/>
      <use xlink:href="#DejaVuSans-52" transform="translate(715.828125 0)"/>
      <use xlink:href="#DejaVuSans-43" transform="translate(780.310547 0)"/>
      <use xlink:href="#DejaVuSans-3d" transform="translate(850.134766 0)"/>
      <use xlink:href="#DejaVuSans-30" transform="translate(933.923828 0)"/>
      <use xlink:href="#DejaVuSans-2e" transform="translate(997.546875 0)"/>
      <use xlink:href="#DejaVuSans-39" transform="translate(1029.333984 0)"/>
      <use xlink:href="#DejaVuSans-30" transform="translate(1092.957031 0)"/>
      <use xlink:href="#DejaVuSans-30" transform="translate(1156.580078 0)"/>
      <use xlink:href="#DejaVuSans-29" transform="translate(1220.203125 0)"/>
     </g>
    </g>
    <g id="line2d_28">
     <path d="M 99 369.900312 
L 109 369.900312 
L 119 369.900312 
" style="fill: none; stroke: #ff7f0e; stroke-width: 1.5; stroke-linecap: square"/>
    </g>
    <g id="text_17">
     <!-- Donor (AUPRC=0.904) -->
     <g transform="translate(127 373.400312) scale(0.1 -0.1)">
      <defs>
       <path id="DejaVuSans-44" d="M 1259 4147 
L 1259 519 
L 2022 519 
Q 2988 519 3436 956 
Q 3884 1394 3884 2338 
Q 3884 3275 3436 3711 
Q 2988 4147 2022 4147 
L 1259 4147 
z
M 628 4666 
L 1925 4666 
Q 3281 4666 3915 4102 
Q 4550 3538 4550 2338 
Q 4550 1131 3912 565 
Q 3275 0 1925 0 
L 628 0 
L 628 4666 
z
" transform="scale(0.015625)"/>
      </defs>
      <use xlink:href="#DejaVuSans-44"/>
      <use xlink:href="#DejaVuSans-6f" transform="translate(77.001953 0)"/>
      <use xlink:href="#DejaVuSans-6e" transform="translate(138.183594 0)"/>
      <use xlink:href="#DejaVuSans-6f" transform="translate(201.5625 0)"/>
      <use xlink:href="#DejaVuSans-72" transform="translate(262.744141 0)"/>
      <use xlink:href="#DejaVuSans-20" transform="translate(303.857422 0)"/>
      <use xlink:href="#DejaVuSans-28" transform="translate(335.644531 0)"/>
      <use xlink:href="#DejaVuSans-41" transform="translate(374.658203 0)"/>
      <use xlink:href="#DejaVuSans-55" transform="translate(443.066406 0)"/>
      <use xlink:href="#DejaVuSans-50" transform="translate(516.259766 0)"/>
      <use xlink:href="#DejaVuSans-52" transform="translate(576.5625 0)"/>
      <use xlink:href="#DejaVuSans-43" transform="translate(641.044922 0)"/>
      <use xlink:href="#DejaVuSans-3d" transform="translate(710.869141 0)"/>
      <use xlink:href="#DejaVuSans-30" transform="translate(794.658203 0)"/>
      <use xlink:href="#DejaVuSans-2e" transform="translate(858.28125 0)"/>
      <use xlink:href="#DejaVuSans-39" transform="translate(890.068359 0)"/>
      <use xlink:href="#DejaVuSans-30" transform="translate(953.691406 0)"/>
      <use xlink:href="#DejaVuSans-34" transform="translate(1017.314453 0)"/>
      <use xlink:href="#DejaVuSans-29" transform="translate(1080.9375 0)"/>
     </g>
    </g>
   </g>
  </g>
 </g>
 <defs>
  <clipPath id="p23df9340d5">
   <rect x="90" y="51.84" width="558" height="332.64"/>
  </clipPath>
 </defs>
</svg>
