<?xml version="1.0" encoding="utf-8" standalone="no"?>
<!DOCTYPE svg PUBLIC "-//W3C//DTD SVG 1.1//EN"
  "http://www.w3.org/Graphics/SVG/1.1/DTD/svg11.dtd">
<svg xmlns:xlink="http://www.w3.org/1999/xlink" width="720pt" height="432pt" viewBox="0 0 720 432" xmlns="http://www.w3.org/2000/svg" version="1.1">
 <metadata>
  <rdf:RDF xmlns:dc="http://purl.org/dc/elements/1.1/" xmlns:cc="http://creativecommons.org/ns#" xmlns:rdf="http://www.w3.org/1999/02/22-rdf-syntax-ns#">
   <cc:Work>
    <dc:type rdf:resource="http://purl.org/dc/dcmitype/StillImage"/>
    <dc:date>2025-04-21T10:49:49.123329</dc:date>
    <dc:format>image/svg+xml</dc:format>
    <dc:creator>
     <cc:Agent>
      <dc:title>Matplotlib v3.10.1, https://matplotlib.org/</dc:title>
     </cc:Agent>
    </dc:creator>
   </cc:Work>
  </rdf:RDF>
 </metadata>
 <defs>
  <style type="text/css">*{stroke-linejoin: round; stroke-linecap: butt}</style>
 </defs>
 <g id="figure_1">
  <g id="patch_1">
   <path d="M 0 432 
L 720 432 
L 720 0 
L 0 0 
z
" style="fill: #ffffff"/>
  </g>
  <g id="axes_1">
   <g id="patch_2">
    <path d="M 90 384.48 
L 648 384.48 
L 648 51.84 
L 90 51.84 
z
" style="fill: #ffffff"/>
   </g>
   <g id="matplotlib.axis_1">
    <g id="xtick_1">
     <g id="line2d_1">
      <path d="M 115.363636 384.48 
L 115.363636 51.84 
" clip-path="url(#pbfb14ed462)" style="fill: none; stroke: #b0b0b0; stroke-width: 0.8; stroke-linecap: square"/>
     </g>
     <g id="line2d_2">
      <defs>
       <path id="m076ba94efa" d="M 0 0 
L 0 3.5 
" style="stroke: #000000; stroke-width: 0.8"/>
      </defs>
      <g>
       <use xlink:href="#m076ba94efa" x="115.363636" y="384.48" style="stroke: #000000; stroke-width: 0.8"/>
      </g>
     </g>
     <g id="text_1">
      <!-- 0.0 -->
      <g transform="translate(107.412074 399.078438) scale(0.1 -0.1)">
       <defs>
        <path id="DejaVuSans-30" d="M 2034 4250 
Q 1547 4250 1301 3770 
Q 1056 3291 1056 2328 
Q 1056 1369 1301 889 
Q 1547 409 2034 409 
Q 2525 409 2770 889 
Q 3016 1369 3016 2328 
Q 3016 3291 2770 3770 
Q 2525 4250 2034 4250 
z
M 2034 4750 
Q 2819 4750 3233 4129 
Q 3647 3509 3647 2328 
Q 3647 1150 3233 529 
Q 2819 -91 2034 -91 
Q 1250 -91 836 529 
Q 422 1150 422 2328 
Q 422 3509 836 4129 
Q 1250 4750 2034 4750 
z
" transform="scale(0.015625)"/>
        <path id="DejaVuSans-2e" d="M 684 794 
L 1344 794 
L 1344 0 
L 684 0 
L 684 794 
z
" transform="scale(0.015625)"/>
       </defs>
       <use xlink:href="#DejaVuSans-30"/>
       <use xlink:href="#DejaVuSans-2e" transform="translate(63.623047 0)"/>
       <use xlink:href="#DejaVuSans-30" transform="translate(95.410156 0)"/>
      </g>
     </g>
    </g>
    <g id="xtick_2">
     <g id="line2d_3">
      <path d="M 216.818182 384.48 
L 216.818182 51.84 
" clip-path="url(#pbfb14ed462)" style="fill: none; stroke: #b0b0b0; stroke-width: 0.8; stroke-linecap: square"/>
     </g>
     <g id="line2d_4">
      <g>
       <use xlink:href="#m076ba94efa" x="216.818182" y="384.48" style="stroke: #000000; stroke-width: 0.8"/>
      </g>
     </g>
     <g id="text_2">
      <!-- 0.2 -->
      <g transform="translate(208.866619 399.078438) scale(0.1 -0.1)">
       <defs>
        <path id="DejaVuSans-32" d="M 1228 531 
L 3431 531 
L 3431 0 
L 469 0 
L 469 531 
Q 828 903 1448 1529 
Q 2069 2156 2228 2338 
Q 2531 2678 2651 2914 
Q 2772 3150 2772 3378 
Q 2772 3750 2511 3984 
Q 2250 4219 1831 4219 
Q 1534 4219 1204 4116 
Q 875 4013 500 3803 
L 500 4441 
Q 881 4594 1212 4672 
Q 1544 4750 1819 4750 
Q 2544 4750 2975 4387 
Q 3406 4025 3406 3419 
Q 3406 3131 3298 2873 
Q 3191 2616 2906 2266 
Q 2828 2175 2409 1742 
Q 1991 1309 1228 531 
z
" transform="scale(0.015625)"/>
       </defs>
       <use xlink:href="#DejaVuSans-30"/>
       <use xlink:href="#DejaVuSans-2e" transform="translate(63.623047 0)"/>
       <use xlink:href="#DejaVuSans-32" transform="translate(95.410156 0)"/>
      </g>
     </g>
    </g>
    <g id="xtick_3">
     <g id="line2d_5">
      <path d="M 318.272727 384.48 
L 318.272727 51.84 
" clip-path="url(#pbfb14ed462)" style="fill: none; stroke: #b0b0b0; stroke-width: 0.8; stroke-linecap: square"/>
     </g>
     <g id="line2d_6">
      <g>
       <use xlink:href="#m076ba94efa" x="318.272727" y="384.48" style="stroke: #000000; stroke-width: 0.8"/>
      </g>
     </g>
     <g id="text_3">
      <!-- 0.4 -->
      <g transform="translate(310.321165 399.078438) scale(0.1 -0.1)">
       <defs>
        <path id="DejaVuSans-34" d="M 2419 4116 
L 825 1625 
L 2419 1625 
L 2419 4116 
z
M 2253 4666 
L 3047 4666 
L 3047 1625 
L 3713 1625 
L 3713 1100 
L 3047 1100 
L 3047 0 
L 2419 0 
L 2419 1100 
L 313 1100 
L 313 1709 
L 2253 4666 
z
" transform="scale(0.015625)"/>
       </defs>
       <use xlink:href="#DejaVuSans-30"/>
       <use xlink:href="#DejaVuSans-2e" transform="translate(63.623047 0)"/>
       <use xlink:href="#DejaVuSans-34" transform="translate(95.410156 0)"/>
      </g>
     </g>
    </g>
    <g id="xtick_4">
     <g id="line2d_7">
      <path d="M 419.727273 384.48 
L 419.727273 51.84 
" clip-path="url(#pbfb14ed462)" style="fill: none; stroke: #b0b0b0; stroke-width: 0.8; stroke-linecap: square"/>
     </g>
     <g id="line2d_8">
      <g>
       <use xlink:href="#m076ba94efa" x="419.727273" y="384.48" style="stroke: #000000; stroke-width: 0.8"/>
      </g>
     </g>
     <g id="text_4">
      <!-- 0.6 -->
      <g transform="translate(411.77571 399.078438) scale(0.1 -0.1)">
       <defs>
        <path id="DejaVuSans-36" d="M 2113 2584 
Q 1688 2584 1439 2293 
Q 1191 2003 1191 1497 
Q 1191 994 1439 701 
Q 1688 409 2113 409 
Q 2538 409 2786 701 
Q 3034 994 3034 1497 
Q 3034 2003 2786 2293 
Q 2538 2584 2113 2584 
z
M 3366 4563 
L 3366 3988 
Q 3128 4100 2886 4159 
Q 2644 4219 2406 4219 
Q 1781 4219 1451 3797 
Q 1122 3375 1075 2522 
Q 1259 2794 1537 2939 
Q 1816 3084 2150 3084 
Q 2853 3084 3261 2657 
Q 3669 2231 3669 1497 
Q 3669 778 3244 343 
Q 2819 -91 2113 -91 
Q 1303 -91 875 529 
Q 447 1150 447 2328 
Q 447 3434 972 4092 
Q 1497 4750 2381 4750 
Q 2619 4750 2861 4703 
Q 3103 4656 3366 4563 
z
" transform="scale(0.015625)"/>
       </defs>
       <use xlink:href="#DejaVuSans-30"/>
       <use xlink:href="#DejaVuSans-2e" transform="translate(63.623047 0)"/>
       <use xlink:href="#DejaVuSans-36" transform="translate(95.410156 0)"/>
      </g>
     </g>
    </g>
    <g id="xtick_5">
     <g id="line2d_9">
      <path d="M 521.181818 384.48 
L 521.181818 51.84 
" clip-path="url(#pbfb14ed462)" style="fill: none; stroke: #b0b0b0; stroke-width: 0.8; stroke-linecap: square"/>
     </g>
     <g id="line2d_10">
      <g>
       <use xlink:href="#m076ba94efa" x="521.181818" y="384.48" style="stroke: #000000; stroke-width: 0.8"/>
      </g>
     </g>
     <g id="text_5">
      <!-- 0.8 -->
      <g transform="translate(513.230256 399.078438) scale(0.1 -0.1)">
       <defs>
        <path id="DejaVuSans-38" d="M 2034 2216 
Q 1584 2216 1326 1975 
Q 1069 1734 1069 1313 
Q 1069 891 1326 650 
Q 1584 409 2034 409 
Q 2484 409 2743 651 
Q 3003 894 3003 1313 
Q 3003 1734 2745 1975 
Q 2488 2216 2034 2216 
z
M 1403 2484 
Q 997 2584 770 2862 
Q 544 3141 544 3541 
Q 544 4100 942 4425 
Q 1341 4750 2034 4750 
Q 2731 4750 3128 4425 
Q 3525 4100 3525 3541 
Q 3525 3141 3298 2862 
Q 3072 2584 2669 2484 
Q 3125 2378 3379 2068 
Q 3634 1759 3634 1313 
Q 3634 634 3220 271 
Q 2806 -91 2034 -91 
Q 1263 -91 848 271 
Q 434 634 434 1313 
Q 434 1759 690 2068 
Q 947 2378 1403 2484 
z
M 1172 3481 
Q 1172 3119 1398 2916 
Q 1625 2713 2034 2713 
Q 2441 2713 2670 2916 
Q 2900 3119 2900 3481 
Q 2900 3844 2670 4047 
Q 2441 4250 2034 4250 
Q 1625 4250 1398 4047 
Q 1172 3844 1172 3481 
z
" transform="scale(0.015625)"/>
       </defs>
       <use xlink:href="#DejaVuSans-30"/>
       <use xlink:href="#DejaVuSans-2e" transform="translate(63.623047 0)"/>
       <use xlink:href="#DejaVuSans-38" transform="translate(95.410156 0)"/>
      </g>
     </g>
    </g>
    <g id="xtick_6">
     <g id="line2d_11">
      <path d="M 622.636364 384.48 
L 622.636364 51.84 
" clip-path="url(#pbfb14ed462)" style="fill: none; stroke: #b0b0b0; stroke-width: 0.8; stroke-linecap: square"/>
     </g>
     <g id="line2d_12">
      <g>
       <use xlink:href="#m076ba94efa" x="622.636364" y="384.48" style="stroke: #000000; stroke-width: 0.8"/>
      </g>
     </g>
     <g id="text_6">
      <!-- 1.0 -->
      <g transform="translate(614.684801 399.078438) scale(0.1 -0.1)">
       <defs>
        <path id="DejaVuSans-31" d="M 794 531 
L 1825 531 
L 1825 4091 
L 703 3866 
L 703 4441 
L 1819 4666 
L 2450 4666 
L 2450 531 
L 3481 531 
L 3481 0 
L 794 0 
L 794 531 
z
" transform="scale(0.015625)"/>
       </defs>
       <use xlink:href="#DejaVuSans-31"/>
       <use xlink:href="#DejaVuSans-2e" transform="translate(63.623047 0)"/>
       <use xlink:href="#DejaVuSans-30" transform="translate(95.410156 0)"/>
      </g>
     </g>
    </g>
    <g id="text_7">
     <!-- Recall -->
     <g transform="translate(354.082812 412.756563) scale(0.1 -0.1)">
      <defs>
       <path id="DejaVuSans-52" d="M 2841 2188 
Q 3044 2119 3236 1894 
Q 3428 1669 3622 1275 
L 4263 0 
L 3584 0 
L 2988 1197 
Q 2756 1666 2539 1819 
Q 2322 1972 1947 1972 
L 1259 1972 
L 1259 0 
L 628 0 
L 628 4666 
L 2053 4666 
Q 2853 4666 3247 4331 
Q 3641 3997 3641 3322 
Q 3641 2881 3436 2590 
Q 3231 2300 2841 2188 
z
M 1259 4147 
L 1259 2491 
L 2053 2491 
Q 2509 2491 2742 2702 
Q 2975 2913 2975 3322 
Q 2975 3731 2742 3939 
Q 2509 4147 2053 4147 
L 1259 4147 
z
" transform="scale(0.015625)"/>
       <path id="DejaVuSans-65" d="M 3597 1894 
L 3597 1613 
L 953 1613 
Q 991 1019 1311 708 
Q 1631 397 2203 397 
Q 2534 397 2845 478 
Q 3156 559 3463 722 
L 3463 178 
Q 3153 47 2828 -22 
Q 2503 -91 2169 -91 
Q 1331 -91 842 396 
Q 353 884 353 1716 
Q 353 2575 817 3079 
Q 1281 3584 2069 3584 
Q 2775 3584 3186 3129 
Q 3597 2675 3597 1894 
z
M 3022 2063 
Q 3016 2534 2758 2815 
Q 2500 3097 2075 3097 
Q 1594 3097 1305 2825 
Q 1016 2553 972 2059 
L 3022 2063 
z
" transform="scale(0.015625)"/>
       <path id="DejaVuSans-63" d="M 3122 3366 
L 3122 2828 
Q 2878 2963 2633 3030 
Q 2388 3097 2138 3097 
Q 1578 3097 1268 2742 
Q 959 2388 959 1747 
Q 959 1106 1268 751 
Q 1578 397 2138 397 
Q 2388 397 2633 464 
Q 2878 531 3122 666 
L 3122 134 
Q 2881 22 2623 -34 
Q 2366 -91 2075 -91 
Q 1284 -91 818 406 
Q 353 903 353 1747 
Q 353 2603 823 3093 
Q 1294 3584 2113 3584 
Q 2378 3584 2631 3529 
Q 2884 3475 3122 3366 
z
" transform="scale(0.015625)"/>
       <path id="DejaVuSans-61" d="M 2194 1759 
Q 1497 1759 1228 1600 
Q 959 1441 959 1056 
Q 959 750 1161 570 
Q 1363 391 1709 391 
Q 2188 391 2477 730 
Q 2766 1069 2766 1631 
L 2766 1759 
L 2194 1759 
z
M 3341 1997 
L 3341 0 
L 2766 0 
L 2766 531 
Q 2569 213 2275 61 
Q 1981 -91 1556 -91 
Q 1019 -91 701 211 
Q 384 513 384 1019 
Q 384 1609 779 1909 
Q 1175 2209 1959 2209 
L 2766 2209 
L 2766 2266 
Q 2766 2663 2505 2880 
Q 2244 3097 1772 3097 
Q 1472 3097 1187 3025 
Q 903 2953 641 2809 
L 641 3341 
Q 956 3463 1253 3523 
Q 1550 3584 1831 3584 
Q 2591 3584 2966 3190 
Q 3341 2797 3341 1997 
z
" transform="scale(0.015625)"/>
       <path id="DejaVuSans-6c" d="M 603 4863 
L 1178 4863 
L 1178 0 
L 603 0 
L 603 4863 
z
" transform="scale(0.015625)"/>
      </defs>
      <use xlink:href="#DejaVuSans-52"/>
      <use xlink:href="#DejaVuSans-65" transform="translate(64.982422 0)"/>
      <use xlink:href="#DejaVuSans-63" transform="translate(126.505859 0)"/>
      <use xlink:href="#DejaVuSans-61" transform="translate(181.486328 0)"/>
      <use xlink:href="#DejaVuSans-6c" transform="translate(242.765625 0)"/>
      <use xlink:href="#DejaVuSans-6c" transform="translate(270.548828 0)"/>
     </g>
    </g>
   </g>
   <g id="matplotlib.axis_2">
    <g id="ytick_1">
     <g id="line2d_13">
      <path d="M 90 369.801737 
L 648 369.801737 
" clip-path="url(#pbfb14ed462)" style="fill: none; stroke: #b0b0b0; stroke-width: 0.8; stroke-linecap: square"/>
     </g>
     <g id="line2d_14">
      <defs>
       <path id="me811350076" d="M 0 0 
L -3.5 0 
" style="stroke: #000000; stroke-width: 0.8"/>
      </defs>
      <g>
       <use xlink:href="#me811350076" x="90" y="369.801737" style="stroke: #000000; stroke-width: 0.8"/>
      </g>
     </g>
     <g id="text_8">
      <!-- 0.0 -->
      <g transform="translate(67.096875 373.600955) scale(0.1 -0.1)">
       <use xlink:href="#DejaVuSans-30"/>
       <use xlink:href="#DejaVuSans-2e" transform="translate(63.623047 0)"/>
       <use xlink:href="#DejaVuSans-30" transform="translate(95.410156 0)"/>
      </g>
     </g>
    </g>
    <g id="ytick_2">
     <g id="line2d_15">
      <path d="M 90 309.233389 
L 648 309.233389 
" clip-path="url(#pbfb14ed462)" style="fill: none; stroke: #b0b0b0; stroke-width: 0.8; stroke-linecap: square"/>
     </g>
     <g id="line2d_16">
      <g>
       <use xlink:href="#me811350076" x="90" y="309.233389" style="stroke: #000000; stroke-width: 0.8"/>
      </g>
     </g>
     <g id="text_9">
      <!-- 0.2 -->
      <g transform="translate(67.096875 313.032608) scale(0.1 -0.1)">
       <use xlink:href="#DejaVuSans-30"/>
       <use xlink:href="#DejaVuSans-2e" transform="translate(63.623047 0)"/>
       <use xlink:href="#DejaVuSans-32" transform="translate(95.410156 0)"/>
      </g>
     </g>
    </g>
    <g id="ytick_3">
     <g id="line2d_17">
      <path d="M 90 248.665042 
L 648 248.665042 
" clip-path="url(#pbfb14ed462)" style="fill: none; stroke: #b0b0b0; stroke-width: 0.8; stroke-linecap: square"/>
     </g>
     <g id="line2d_18">
      <g>
       <use xlink:href="#me811350076" x="90" y="248.665042" style="stroke: #000000; stroke-width: 0.8"/>
      </g>
     </g>
     <g id="text_10">
      <!-- 0.4 -->
      <g transform="translate(67.096875 252.464261) scale(0.1 -0.1)">
       <use xlink:href="#DejaVuSans-30"/>
       <use xlink:href="#DejaVuSans-2e" transform="translate(63.623047 0)"/>
       <use xlink:href="#DejaVuSans-34" transform="translate(95.410156 0)"/>
      </g>
     </g>
    </g>
    <g id="ytick_4">
     <g id="line2d_19">
      <path d="M 90 188.096695 
L 648 188.096695 
" clip-path="url(#pbfb14ed462)" style="fill: none; stroke: #b0b0b0; stroke-width: 0.8; stroke-linecap: square"/>
     </g>
     <g id="line2d_20">
      <g>
       <use xlink:href="#me811350076" x="90" y="188.096695" style="stroke: #000000; stroke-width: 0.8"/>
      </g>
     </g>
     <g id="text_11">
      <!-- 0.6 -->
      <g transform="translate(67.096875 191.895913) scale(0.1 -0.1)">
       <use xlink:href="#DejaVuSans-30"/>
       <use xlink:href="#DejaVuSans-2e" transform="translate(63.623047 0)"/>
       <use xlink:href="#DejaVuSans-36" transform="translate(95.410156 0)"/>
      </g>
     </g>
    </g>
    <g id="ytick_5">
     <g id="line2d_21">
      <path d="M 90 127.528347 
L 648 127.528347 
" clip-path="url(#pbfb14ed462)" style="fill: none; stroke: #b0b0b0; stroke-width: 0.8; stroke-linecap: square"/>
     </g>
     <g id="line2d_22">
      <g>
       <use xlink:href="#me811350076" x="90" y="127.528347" style="stroke: #000000; stroke-width: 0.8"/>
      </g>
     </g>
     <g id="text_12">
      <!-- 0.8 -->
      <g transform="translate(67.096875 131.327566) scale(0.1 -0.1)">
       <use xlink:href="#DejaVuSans-30"/>
       <use xlink:href="#DejaVuSans-2e" transform="translate(63.623047 0)"/>
       <use xlink:href="#DejaVuSans-38" transform="translate(95.410156 0)"/>
      </g>
     </g>
    </g>
    <g id="ytick_6">
     <g id="line2d_23">
      <path d="M 90 66.96 
L 648 66.96 
" clip-path="url(#pbfb14ed462)" style="fill: none; stroke: #b0b0b0; stroke-width: 0.8; stroke-linecap: square"/>
     </g>
     <g id="line2d_24">
      <g>
       <use xlink:href="#me811350076" x="90" y="66.96" style="stroke: #000000; stroke-width: 0.8"/>
      </g>
     </g>
     <g id="text_13">
      <!-- 1.0 -->
      <g transform="translate(67.096875 70.759219) scale(0.1 -0.1)">
       <use xlink:href="#DejaVuSans-31"/>
       <use xlink:href="#DejaVuSans-2e" transform="translate(63.623047 0)"/>
       <use xlink:href="#DejaVuSans-30" transform="translate(95.410156 0)"/>
      </g>
     </g>
    </g>
    <g id="text_14">
     <!-- Precision -->
     <g transform="translate(61.017187 240.467031) rotate(-90) scale(0.1 -0.1)">
      <defs>
       <path id="DejaVuSans-50" d="M 1259 4147 
L 1259 2394 
L 2053 2394 
Q 2494 2394 2734 2622 
Q 2975 2850 2975 3272 
Q 2975 3691 2734 3919 
Q 2494 4147 2053 4147 
L 1259 4147 
z
M 628 4666 
L 2053 4666 
Q 2838 4666 3239 4311 
Q 3641 3956 3641 3272 
Q 3641 2581 3239 2228 
Q 2838 1875 2053 1875 
L 1259 1875 
L 1259 0 
L 628 0 
L 628 4666 
z
" transform="scale(0.015625)"/>
       <path id="DejaVuSans-72" d="M 2631 2963 
Q 2534 3019 2420 3045 
Q 2306 3072 2169 3072 
Q 1681 3072 1420 2755 
Q 1159 2438 1159 1844 
L 1159 0 
L 581 0 
L 581 3500 
L 1159 3500 
L 1159 2956 
Q 1341 3275 1631 3429 
Q 1922 3584 2338 3584 
Q 2397 3584 2469 3576 
Q 2541 3569 2628 3553 
L 2631 2963 
z
" transform="scale(0.015625)"/>
       <path id="DejaVuSans-69" d="M 603 3500 
L 1178 3500 
L 1178 0 
L 603 0 
L 603 3500 
z
M 603 4863 
L 1178 4863 
L 1178 4134 
L 603 4134 
L 603 4863 
z
" transform="scale(0.015625)"/>
       <path id="DejaVuSans-73" d="M 2834 3397 
L 2834 2853 
Q 2591 2978 2328 3040 
Q 2066 3103 1784 3103 
Q 1356 3103 1142 2972 
Q 928 2841 928 2578 
Q 928 2378 1081 2264 
Q 1234 2150 1697 2047 
L 1894 2003 
Q 2506 1872 2764 1633 
Q 3022 1394 3022 966 
Q 3022 478 2636 193 
Q 2250 -91 1575 -91 
Q 1294 -91 989 -36 
Q 684 19 347 128 
L 347 722 
Q 666 556 975 473 
Q 1284 391 1588 391 
Q 1994 391 2212 530 
Q 2431 669 2431 922 
Q 2431 1156 2273 1281 
Q 2116 1406 1581 1522 
L 1381 1569 
Q 847 1681 609 1914 
Q 372 2147 372 2553 
Q 372 3047 722 3315 
Q 1072 3584 1716 3584 
Q 2034 3584 2315 3537 
Q 2597 3491 2834 3397 
z
" transform="scale(0.015625)"/>
       <path id="DejaVuSans-6f" d="M 1959 3097 
Q 1497 3097 1228 2736 
Q 959 2375 959 1747 
Q 959 1119 1226 758 
Q 1494 397 1959 397 
Q 2419 397 2687 759 
Q 2956 1122 2956 1747 
Q 2956 2369 2687 2733 
Q 2419 3097 1959 3097 
z
M 1959 3584 
Q 2709 3584 3137 3096 
Q 3566 2609 3566 1747 
Q 3566 888 3137 398 
Q 2709 -91 1959 -91 
Q 1206 -91 779 398 
Q 353 888 353 1747 
Q 353 2609 779 3096 
Q 1206 3584 1959 3584 
z
" transform="scale(0.015625)"/>
       <path id="DejaVuSans-6e" d="M 3513 2113 
L 3513 0 
L 2938 0 
L 2938 2094 
Q 2938 2591 2744 2837 
Q 2550 3084 2163 3084 
Q 1697 3084 1428 2787 
Q 1159 2491 1159 1978 
L 1159 0 
L 581 0 
L 581 3500 
L 1159 3500 
L 1159 2956 
Q 1366 3272 1645 3428 
Q 1925 3584 2291 3584 
Q 2894 3584 3203 3211 
Q 3513 2838 3513 2113 
z
" transform="scale(0.015625)"/>
      </defs>
      <use xlink:href="#DejaVuSans-50"/>
      <use xlink:href="#DejaVuSans-72" transform="translate(58.552734 0)"/>
      <use xlink:href="#DejaVuSans-65" transform="translate(97.416016 0)"/>
      <use xlink:href="#DejaVuSans-63" transform="translate(158.939453 0)"/>
      <use xlink:href="#DejaVuSans-69" transform="translate(213.919922 0)"/>
      <use xlink:href="#DejaVuSans-73" transform="translate(241.703125 0)"/>
      <use xlink:href="#DejaVuSans-69" transform="translate(293.802734 0)"/>
      <use xlink:href="#DejaVuSans-6f" transform="translate(321.585938 0)"/>
      <use xlink:href="#DejaVuSans-6e" transform="translate(382.767578 0)"/>
     </g>
    </g>
   </g>
   <g id="line2d_25">
    <path d="M 622.636364 369.353015 
L 622.560436 369.348743 
L 620.130751 369.24201 
L 620.130751 369.239799 
L 620.054823 369.235773 
L 615.878801 369.130907 
L 615.878801 369.129336 
L 615.802874 369.126929 
L 611.399069 369.024936 
L 611.399069 369.021743 
L 611.323142 369.019826 
L 607.982324 368.91405 
L 607.982324 368.913969 
L 607.906397 368.906249 
L 604.945218 368.803306 
L 604.945218 368.800507 
L 604.86929 368.780323 
L 602.28775 368.689052 
L 602.28775 368.67458 
L 602.28775 368.665568 
L 599.706209 368.5793 
L 599.706209 368.560457 
L 599.630281 368.550648 
L 598.187656 368.443556 
L 598.187656 368.44325 
L 598.111728 368.440365 
L 596.74503 368.342795 
L 596.74503 368.333092 
L 596.669102 368.327807 
L 595.45426 368.226118 
L 595.45426 368.220399 
L 595.378332 368.183099 
L 593.404213 368.083628 
L 593.404213 368.078608 
L 593.404213 368.073589 
L 591.657876 367.990365 
L 591.657876 367.968755 
L 591.581949 367.889338 
L 590.746744 367.787874 
L 590.746744 367.781563 
L 590.670817 367.683863 
L 590.443034 367.642395 
L 590.443034 367.57376 
L 590.367106 367.553201 
L 589.304119 367.45682 
L 589.304119 367.447085 
L 589.304119 367.43767 
L 588.468915 367.343611 
L 588.468915 367.330694 
L 588.392987 367.248061 
L 588.241132 367.15389 
L 588.241132 367.137763 
L 588.165204 367.046164 
L 587.937421 366.984768 
L 587.937421 366.93637 
L 587.861493 366.920841 
L 587.63371 366.90553 
L 587.63371 366.811111 
L 587.557783 366.723581 
L 587.254072 366.666238 
L 587.254072 366.614431 
L 587.178144 366.56873 
L 586.950361 366.490269 
L 586.950361 366.459162 
L 586.950361 366.293182 
L 586.570723 366.194928 
L 586.570723 366.184863 
L 586.494795 365.502891 
L 586.267012 365.445413 
L 586.267012 365.393825 
L 586.191085 364.783454 
L 585.659591 364.70968 
L 585.659591 364.677911 
L 585.583663 363.573575 
L 585.507736 363.57456 
L 585.507736 363.463446 
L 585.507736 362.580306 
L 585.279953 362.583722 
L 585.279953 362.4726 
L 585.204025 361.175721 
L 585.05217 361.178429 
L 585.05217 361.067302 
L 584.976242 359.676563 
L 584.824387 359.679727 
L 584.824387 359.568595 
L 584.824387 359.38048 
L 584.672531 359.383735 
L 584.672531 359.272629 
L 584.596604 357.299402 
L 584.520676 357.301342 
L 584.520676 357.190304 
L 584.520676 350.520742 
L 584.368821 350.526586 
L 584.368821 350.416124 
L 584.368821 350.181487 
L 584.216965 350.187429 
L 584.216965 350.076327 
L 584.141038 344.046611 
L 584.06511 344.050427 
L 584.06511 343.939992 
L 583.989182 330.143355 
L 583.913255 330.148939 
L 583.913255 330.038415 
L 583.913255 325.808414 
L 583.457689 325.844979 
L 583.457689 325.735004 
L 583.381761 319.140449 
L 583.305833 319.147293 
L 583.305833 319.037073 
L 583.305833 310.162381 
L 583.153978 310.177925 
L 583.153978 310.06721 
L 583.07805 284.271266 
L 582.090991 284.369513 
L 582.090991 284.291027 
L 582.090991 259.237613 
L 581.939135 259.260455 
L 581.939135 259.148718 
L 581.863208 217.31365 
L 581.78728 217.325973 
L 581.78728 217.213417 
L 581.78728 192.202043 
L 581.635425 192.22596 
L 581.635425 192.124169 
L 581.635425 166.082698 
L 581.331714 166.126149 
L 581.331714 166.014485 
L 581.255786 135.323895 
L 581.103931 135.341152 
L 581.103931 135.252341 
L 581.028003 124.447923 
L 580.80022 124.470714 
L 580.80022 124.405855 
L 580.724293 118.22719 
L 580.572437 118.241091 
L 580.572437 118.172862 
L 580.49651 113.096537 
L 580.344654 113.109308 
L 580.344654 113.002679 
L 580.268727 107.931951 
L 580.192799 107.937738 
L 580.192799 107.826731 
L 580.192799 107.715631 
L 580.040944 107.727157 
L 580.040944 107.615935 
L 579.965016 105.074796 
L 579.889088 105.080241 
L 579.889088 105.004574 
L 579.813161 99.40575 
L 579.737233 99.410487 
L 579.737233 99.371008 
L 579.737233 98.300702 
L 579.50945 98.31449 
L 579.50945 98.274671 
L 579.433522 96.636345 
L 579.281667 96.645107 
L 579.281667 96.564434 
L 579.281667 96.200818 
L 578.902029 96.141464 
L 578.902029 95.695168 
L 578.826101 95.699429 
L 578.750173 95.703691 
L 578.750173 95.622369 
L 578.750173 90.947917 
L 578.598318 90.955157 
L 578.598318 90.870964 
L 578.52239 90.537248 
L 578.370535 90.544378 
L 578.370535 90.459896 
L 578.294608 88.377248 
L 578.21868 88.380513 
L 578.21868 88.294688 
L 578.142752 87.523042 
L 577.990897 87.529333 
L 577.914969 86.926567 
L 577.839042 86.929628 
L 577.839042 86.842844 
L 577.763114 84.570345 
L 577.687186 84.573069 
L 577.687186 84.263902 
L 577.459403 84.227704 
L 577.459403 83.917634 
L 577.383476 83.920265 
L 577.23162 83.925529 
L 577.23162 83.836775 
L 577.23162 83.792377 
L 577.003837 83.800221 
L 577.003837 83.711345 
L 576.92791 83.402403 
L 576.851982 83.404961 
L 576.851982 83.315811 
L 576.776054 82.378773 
L 576.700127 82.381182 
L 576.700127 82.291363 
L 576.700127 82.06657 
L 576.624199 82.068932 
L 576.548271 82.071296 
L 576.472344 80.898522 
L 576.092705 80.818617 
L 576.092705 80.682218 
L 575.864922 80.688698 
L 575.864922 80.597653 
L 575.864922 80.552109 
L 575.485284 80.517228 
L 575.485284 80.471621 
L 575.485284 80.243371 
L 574.801935 80.216505 
L 574.801935 80.033339 
L 574.574152 80.039543 
L 574.574152 79.856063 
L 574.346369 79.86219 
L 574.346369 79.770321 
L 574.270441 79.496351 
L 573.814875 79.462199 
L 573.814875 79.416092 
L 573.738948 79.094857 
L 573.131526 79.110313 
L 573.131526 79.017722 
L 573.131526 78.971404 
L 572.068539 78.90537 
L 571.992611 78.767827 
L 571.764828 78.773491 
L 571.764828 78.680406 
L 571.688901 78.262599 
L 570.853696 78.188963 
L 570.777769 78.003385 
L 570.701841 78.00516 
L 570.701841 77.911365 
L 570.625913 77.584316 
L 570.246275 77.592871 
L 570.246275 77.498717 
L 570.170347 77.406185 
L 570.09442 77.407869 
L 570.09442 77.313564 
L 570.09442 77.266388 
L 569.790709 77.273042 
L 569.790709 77.178586 
L 569.790709 77.08407 
L 569.031432 77.100446 
L 569.031432 77.053091 
L 568.955505 76.722758 
L 568.727722 76.679997 
L 568.727722 76.632474 
L 568.727722 76.584936 
L 568.651794 76.586497 
L 568.272156 76.594309 
L 568.272156 76.546711 
L 568.272156 76.308486 
L 567.512879 76.323699 
L 567.512879 76.132539 
L 567.436951 76.134033 
L 565.842471 76.069511 
L 565.842471 76.021484 
L 565.159122 75.9386 
L 565.159122 75.745935 
L 565.083194 75.747375 
L 564.779483 75.753141 
L 564.779483 75.704897 
L 564.703556 75.561481 
L 564.096134 75.476023 
L 564.020207 75.138173 
L 563.185002 75.055769 
L 563.185002 75.007123 
L 563.109075 75.008452 
L 563.033147 75.00978 
L 563.033147 74.814973 
L 562.957219 74.816271 
L 562.046087 74.734175 
L 562.046087 74.685299 
L 561.97016 74.686578 
L 560.755317 74.609044 
L 560.755317 74.510908 
L 560.679389 74.512163 
L 559.616402 74.431341 
L 559.616402 74.332835 
L 559.540474 74.334065 
L 559.388619 74.336525 
L 559.388619 74.13922 
L 559.312691 74.140419 
L 557.945993 74.112544 
L 557.945993 74.063006 
L 557.945993 74.013452 
L 557.870066 74.014634 
L 556.503368 73.936512 
L 556.503368 73.886753 
L 556.42744 73.887919 
L 551.795853 73.909453 
L 551.795853 73.708132 
L 551.719925 73.70928 
L 550.656938 73.624378 
L 550.656938 73.573844 
L 547.01241 73.526522 
L 547.01241 73.32244 
L 546.936482 73.323536 
L 545.721639 73.238681 
L 545.721639 73.136171 
L 545.645712 73.137239 
L 544.962363 73.044108 
L 544.962363 72.992704 
L 541.773401 72.933314 
L 541.773401 72.777777 
L 541.697473 72.778793 
L 536.382537 72.745761 
L 536.382537 72.693203 
L 532.510226 72.639297 
L 532.510226 72.586213 
L 529.169408 72.523735 
L 529.169408 72.416608 
L 529.093481 72.417591 
L 524.689676 72.366903 
L 524.689676 72.312706 
L 524.613749 72.313681 
L 520.969221 72.251515 
L 520.969221 72.142021 
L 520.589582 72.146792 
L 520.589582 71.982251 
L 512.465322 71.971296 
L 512.465322 71.915281 
L 512.313467 71.917146 
L 512.313467 71.805012 
L 507.378169 71.808238 
L 507.378169 71.694609 
L 507.150386 71.697318 
L 507.150386 71.583538 
L 507.074458 71.58442 
L 505.555905 71.544994 
L 505.555905 71.373417 
L 502.063232 71.412693 
L 502.063232 71.297195 
L 501.987305 71.298035 
L 499.937258 71.262734 
L 499.937258 71.14648 
L 499.86133 71.147296 
L 489.914806 71.197242 
L 489.914806 71.137545 
L 483.764665 71.145617 
L 483.764665 71.084903 
L 483.688737 71.085741 
L 477.386741 71.094786 
L 477.386741 71.03298 
L 477.310814 71.033823 
L 472.375515 71.089371 
L 472.375515 70.963994 
L 472.299588 70.964834 
L 453.241744 71.121389 
L 453.241744 71.055178 
L 453.165816 71.056086 
L 440.409969 71.145788 
L 440.409969 71.076973 
L 440.334041 71.077922 
L 436.917296 71.051503 
L 436.917296 70.981896 
L 436.841368 70.982834 
L 424.692942 71.066329 
L 424.692942 70.921592 
L 424.617014 70.922552 
L 423.402172 70.865258 
L 423.402172 70.792507 
L 423.326244 70.79344 
L 410.646324 70.880033 
L 410.646324 70.804145 
L 410.570396 70.805121 
L 407.381434 70.769819 
L 407.381434 70.693026 
L 407.305507 70.693985 
L 400.775728 70.778336 
L 400.775728 70.621162 
L 394.397804 70.703811 
L 394.397804 70.542962 
L 389.690289 70.603707 
L 389.690289 70.439987 
L 389.614361 70.44094 
L 387.716169 70.46492 
L 387.716169 70.299859 
L 387.640242 70.30078 
L 385.058701 70.249008 
L 385.058701 70.08208 
L 384.982773 70.08295 
L 377.086296 70.176172 
L 377.086296 69.917949 
L 377.010369 69.918799 
L 376.63073 69.836735 
L 376.63073 69.750364 
L 371.239866 69.8086 
L 371.239866 69.632133 
L 364.786015 69.610094 
L 364.786015 69.519483 
L 364.710087 69.520256 
L 355.52284 69.523237 
L 355.52284 69.429077 
L 355.446912 69.429851 
L 349.296771 69.397554 
L 349.296771 69.300806 
L 349.220843 69.30156 
L 328.872229 69.416917 
L 328.872229 69.310924 
L 328.796302 69.311754 
L 319.533127 69.306744 
L 319.533127 69.195819 
L 259.626199 69.958433 
L 240.264645 70.417928 
L 240.264645 70.237902 
L 240.188717 70.239874 
L 229.558844 70.541571 
L 229.558844 70.147808 
L 222.19386 70.365107 
L 222.19386 70.154533 
L 214.677022 70.39358 
L 214.677022 69.029534 
L 214.601094 69.031106 
L 213.006613 69.064692 
L 213.006613 68.832283 
L 195.163612 69.247756 
L 195.163612 68.963679 
L 195.087684 68.965574 
L 188.026411 69.159058 
L 188.026411 68.846864 
L 187.950484 68.848826 
L 180.813283 69.053376 
L 180.813283 68.358807 
L 177.320611 68.437277 
L 177.320611 68.06931 
L 177.244683 68.070667 
L 175.953913 68.094239 
L 175.953913 67.717104 
L 175.877985 67.718052 
L 158.338695 68.026344 
L 158.338695 67.494112 
L 158.186839 67.496003 
L 158.186839 66.96 
L 115.363636 66.96 
L 115.363636 66.96 
" clip-path="url(#pbfb14ed462)" style="fill: none; stroke: #1f77b4; stroke-width: 1.5; stroke-linecap: square"/>
   </g>
   <g id="line2d_26">
    <path d="M 622.636364 369.36 
L 622.636364 369.358461 
L 622.559235 369.358479 
L 616.851742 369.258354 
L 616.851742 369.252348 
L 616.774614 369.251014 
L 611.761276 369.150236 
L 611.761276 369.145399 
L 611.684147 369.140368 
L 606.979322 369.039169 
L 606.979322 369.035513 
L 606.979322 369.031443 
L 603.277164 368.928125 
L 603.277164 368.926118 
L 603.200036 368.923383 
L 599.88352 368.83506 
L 599.88352 368.818226 
L 599.806391 368.806732 
L 597.492543 368.700909 
L 597.492543 368.700357 
L 597.415415 368.697501 
L 596.412747 368.600435 
L 596.412747 368.588678 
L 596.335619 368.567313 
L 595.641464 368.477023 
L 595.641464 368.457976 
L 595.641464 368.452804 
L 594.48454 368.350295 
L 594.48454 368.344928 
L 594.407412 368.333253 
L 593.481872 368.230386 
L 593.481872 368.224966 
L 593.404744 368.202749 
L 592.941974 368.124101 
L 592.941974 368.093178 
L 592.864846 368.086903 
L 592.402076 368.018031 
L 592.402076 367.977444 
L 592.324948 367.962312 
L 591.78505 367.862249 
L 591.78505 367.853273 
L 591.707922 367.655692 
L 591.553665 367.609339 
L 591.553665 367.545275 
L 591.476537 367.385094 
L 590.936639 367.287109 
L 590.936639 367.276701 
L 590.85951 367.140937 
L 590.628126 367.031732 
L 590.628126 367.031119 
L 590.550997 366.881113 
L 590.396741 366.784879 
L 590.396741 366.770942 
L 590.396741 366.748258 
L 590.088228 366.674949 
L 590.088228 366.639112 
L 590.011099 366.600772 
L 589.933971 366.601287 
L 589.933971 366.490188 
L 589.856843 366.368123 
L 589.54833 366.286969 
L 589.54833 366.259222 
L 589.54833 366.253139 
L 588.931303 366.237861 
L 588.931303 366.146593 
L 588.854175 365.96423 
L 588.62279 365.911396 
L 588.62279 365.854969 
L 588.62279 365.749167 
L 588.16002 365.691967 
L 588.16002 365.641972 
L 588.082892 365.374483 
L 588.005764 365.375195 
L 588.005764 365.264083 
L 587.928636 364.318434 
L 587.851507 364.319312 
L 587.851507 364.208199 
L 587.774379 363.632783 
L 587.620122 363.556957 
L 587.620122 363.523657 
L 587.542994 363.205126 
L 587.388738 363.207234 
L 587.388738 363.096123 
L 587.388738 362.564471 
L 587.234481 362.566779 
L 587.234481 362.455709 
L 587.234481 362.323408 
L 586.925968 362.257531 
L 586.925968 362.217078 
L 586.925968 361.663842 
L 586.771711 361.666433 
L 586.771711 361.555344 
L 586.694583 357.454498 
L 586.463198 357.460312 
L 586.463198 357.349232 
L 586.463198 356.018355 
L 586.308942 356.022663 
L 586.308942 355.911604 
L 586.231813 353.366356 
L 586.154685 353.368902 
L 586.154685 353.257866 
L 586.077557 349.985048 
L 586.000428 349.988082 
L 586.000428 349.876993 
L 585.9233 332.754146 
L 585.691915 332.770136 
L 585.691915 332.65916 
L 585.691915 314.777337 
L 585.537659 314.792105 
L 585.537659 314.682063 
L 585.46053 300.378674 
L 585.383402 300.387454 
L 585.383402 300.277625 
L 585.306274 208.534939 
L 585.229146 208.547313 
L 585.229146 208.462702 
L 585.229146 199.857755 
L 584.766376 199.931247 
L 584.766376 199.821583 
L 584.766376 192.615156 
L 584.612119 192.639321 
L 584.612119 192.571155 
L 584.534991 164.016852 
L 584.457863 164.027695 
L 584.457863 163.935699 
L 584.457863 138.873522 
L 584.303606 138.891559 
L 584.303606 138.862597 
L 584.226478 135.789417 
L 584.14935 135.798167 
L 584.14935 135.708887 
L 584.14935 124.509616 
L 584.072221 124.517286 
L 583.763708 124.515278 
L 583.763708 124.449833 
L 583.68658 121.910792 
L 583.609452 121.918201 
L 583.609452 121.817898 
L 583.532323 115.161296 
L 583.455195 115.167974 
L 583.455195 115.132691 
L 583.455195 114.850079 
L 583.22381 114.799242 
L 583.22381 114.302714 
L 583.069554 114.315886 
L 583.069554 114.209212 
L 582.992425 107.572452 
L 582.761041 107.58986 
L 582.761041 107.51491 
L 582.761041 106.951418 
L 582.529656 106.968609 
L 582.529656 106.930943 
L 582.529656 105.339165 
L 582.375399 105.350235 
L 582.375399 105.312091 
L 582.375399 100.732519 
L 582.066886 100.752354 
L 582.066886 100.673326 
L 581.989758 99.566854 
L 581.835501 99.576475 
L 581.835501 99.496715 
L 581.758373 98.299293 
L 581.681245 98.30394 
L 581.681245 98.223401 
L 581.604116 93.180658 
L 581.526988 93.184621 
L 581.526988 93.14281 
L 581.44986 91.167051 
L 581.372731 91.170737 
L 581.372731 91.085853 
L 581.295603 89.98116 
L 581.141347 89.988204 
L 581.141347 89.945387 
L 581.064218 89.003456 
L 580.832833 88.97047 
L 580.832833 88.927312 
L 580.832833 88.711321 
L 580.755705 88.714667 
L 580.292935 88.691483 
L 580.292935 88.648188 
L 580.292935 88.388142 
L 580.138679 88.394751 
L 580.138679 88.090668 
L 579.907294 88.100458 
L 579.907294 88.013419 
L 579.830166 85.822768 
L 579.753037 85.825705 
L 579.753037 85.737226 
L 579.675909 83.509768 
L 579.598781 83.512368 
L 579.598781 83.42241 
L 579.598781 83.016901 
L 579.444524 83.021955 
L 579.444524 82.93166 
L 579.367396 82.753385 
L 579.290268 82.755874 
L 579.290268 82.66538 
L 579.213139 82.214463 
L 578.75037 82.137997 
L 578.75037 81.591194 
L 578.596113 81.595831 
L 578.596113 81.504468 
L 578.518985 80.773665 
L 578.210472 80.736481 
L 578.210472 80.690496 
L 578.210472 80.644495 
L 577.82483 80.655391 
L 577.82483 80.609341 
L 577.747702 79.594542 
L 577.284932 79.606671 
L 577.284932 79.513779 
L 577.284932 79.281288 
L 576.745034 79.201918 
L 576.745034 79.108658 
L 576.359393 79.02502 
L 576.359393 78.931568 
L 575.819495 78.851436 
L 575.742367 78.149216 
L 575.433854 78.062241 
L 575.433854 77.637583 
L 575.356725 77.639311 
L 574.971084 77.55333 
L 574.971084 77.363897 
L 574.893956 77.365583 
L 574.739699 77.368957 
L 574.739699 77.274104 
L 574.739699 77.226654 
L 574.508314 77.231653 
L 574.431186 76.995691 
L 573.968416 76.910233 
L 573.968416 76.767243 
L 573.891288 76.768839 
L 572.734364 76.6972 
L 572.657235 76.603066 
L 572.271594 76.515085 
L 572.271594 76.467131 
L 572.040209 76.471797 
L 572.040209 76.375796 
L 572.040209 76.279733 
L 571.963081 76.281258 
L 571.731696 76.285839 
L 571.731696 76.189651 
L 571.731696 76.141534 
L 570.6519 76.114408 
L 570.574772 75.777731 
L 570.034874 75.739467 
L 570.034874 75.545591 
L 569.957745 75.547006 
L 569.572104 75.456962 
L 569.572104 75.213863 
L 568.877949 75.128658 
L 568.877949 74.933478 
L 568.800821 74.934799 
L 568.41518 74.892526 
L 568.338051 74.698116 
L 567.875282 74.607773 
L 567.875282 74.558721 
L 567.798153 74.559984 
L 565.638561 74.4969 
L 565.561433 74.300697 
L 564.481637 74.218862 
L 564.481637 74.169309 
L 563.941739 74.128153 
L 563.941739 74.07851 
L 563.864611 73.382834 
L 562.939071 73.295815 
L 562.939071 73.24578 
L 561.936404 73.159264 
L 561.936404 73.008633 
L 561.859275 73.009657 
L 561.782147 73.010681 
L 561.782147 72.859847 
L 561.705019 72.860847 
L 560.933736 72.770037 
L 560.933736 72.719598 
L 560.856608 72.720577 
L 558.928401 72.643773 
L 558.928401 72.593063 
L 558.851272 72.594024 
L 558.157118 72.501051 
L 558.157118 72.450204 
L 558.079989 72.451143 
L 557.771476 72.454903 
L 557.771476 72.403996 
L 557.771476 72.251171 
L 557.694348 72.252078 
L 556.768809 72.160785 
L 556.69168 71.905842 
L 556.383167 71.909246 
L 556.383167 71.857991 
L 556.383167 71.755429 
L 556.306039 71.756254 
L 554.840602 71.720511 
L 554.840602 71.617493 
L 554.763473 71.618298 
L 550.752802 71.556516 
L 550.675674 71.401115 
L 548.824595 71.315142 
L 548.824595 71.000725 
L 548.747467 71.001435 
L 547.513415 71.012821 
L 547.513415 70.802221 
L 547.436286 70.802898 
L 546.35649 70.706716 
L 546.35649 70.653845 
L 546.279362 70.654498 
L 542.191563 70.582638 
L 542.191563 70.529206 
L 542.114435 70.529844 
L 541.88305 70.531757 
L 541.805921 70.157506 
L 537.178224 70.083775 
L 537.178224 70.029527 
L 537.101096 70.030083 
L 532.396271 69.95459 
L 532.396271 69.899673 
L 531.624988 69.850029 
L 531.624988 69.739895 
L 526.920163 69.659926 
L 518.975949 69.65575 
L 518.975949 69.598894 
L 518.898821 69.599394 
L 518.590308 69.601396 
L 518.590308 69.487511 
L 518.51318 69.48799 
L 517.047742 69.497136 
L 517.047742 69.382734 
L 512.65143 69.35147 
L 512.65143 69.235689 
L 512.574302 69.236128 
L 503.473164 69.289092 
L 503.473164 69.170524 
L 503.396036 69.17096 
L 490.901254 69.182692 
L 490.901254 69.121391 
L 490.824125 69.121832 
L 478.792113 69.129536 
L 478.792113 69.06617 
L 478.714985 69.066614 
L 476.169751 69.017523 
L 476.169751 68.953649 
L 476.092623 68.954073 
L 467.917025 68.934626 
L 467.917025 68.86922 
L 467.839897 68.869635 
L 463.906354 68.891049 
L 463.906354 68.758664 
L 454.111062 68.742228 
L 454.111062 68.674069 
L 451.025931 68.689733 
L 451.025931 68.552082 
L 450.948802 68.552446 
L 445.549822 68.508343 
L 445.549822 68.438307 
L 445.472694 68.438651 
L 426.499136 68.454039 
L 426.499136 68.379687 
L 426.422008 68.380038 
L 423.028363 68.320407 
L 423.028363 68.24515 
L 422.951235 68.245471 
L 403.514907 68.251436 
L 403.514907 68.090609 
L 403.437779 68.090911 
L 390.017458 68.145954 
L 390.017458 67.977101 
L 375.748725 67.943543 
L 375.748725 67.854394 
L 363.793841 67.803831 
L 363.793841 67.710305 
L 363.716713 67.710537 
L 342.429306 67.678364 
L 342.429306 67.575949 
L 342.352178 67.576158 
L 295.689566 67.606269 
L 295.689566 67.477236 
L 295.612437 67.477457 
L 287.822481 67.500789 
L 287.822481 67.365773 
L 287.745352 67.365954 
L 268.771794 67.416087 
L 268.771794 67.264211 
L 268.694666 67.264364 
L 259.439272 67.283895 
L 259.439272 67.122034 
L 259.362144 67.122121 
L 179.765754 67.322251 
L 152.770854 67.583131 
L 139.890431 67.909347 
L 137.036684 68.033907 
L 137.036684 66.96 
L 115.363636 66.96 
L 115.363636 66.96 
" clip-path="url(#pbfb14ed462)" style="fill: none; stroke: #ff7f0e; stroke-width: 1.5; stroke-linecap: square"/>
   </g>
   <g id="patch_3">
    <path d="M 90 384.48 
L 90 51.84 
" style="fill: none; stroke: #000000; stroke-width: 0.8; stroke-linejoin: miter; stroke-linecap: square"/>
   </g>
   <g id="patch_4">
    <path d="M 648 384.48 
L 648 51.84 
" style="fill: none; stroke: #000000; stroke-width: 0.8; stroke-linejoin: miter; stroke-linecap: square"/>
   </g>
   <g id="patch_5">
    <path d="M 90 384.48 
L 648 384.48 
" style="fill: none; stroke: #000000; stroke-width: 0.8; stroke-linejoin: miter; stroke-linecap: square"/>
   </g>
   <g id="patch_6">
    <path d="M 90 51.84 
L 648 51.84 
" style="fill: none; stroke: #000000; stroke-width: 0.8; stroke-linejoin: miter; stroke-linecap: square"/>
   </g>
   <g id="text_15">
    <!-- Precision-Recall Curves -->
    <g transform="translate(299.431875 32.402625) scale(0.12 -0.12)">
     <defs>
      <path id="DejaVuSans-2d" d="M 313 2009 
L 1997 2009 
L 1997 1497 
L 313 1497 
L 313 2009 
z
" transform="scale(0.015625)"/>
      <path id="DejaVuSans-20" transform="scale(0.015625)"/>
      <path id="DejaVuSans-43" d="M 4122 4306 
L 4122 3641 
Q 3803 3938 3442 4084 
Q 3081 4231 2675 4231 
Q 1875 4231 1450 3742 
Q 1025 3253 1025 2328 
Q 1025 1406 1450 917 
Q 1875 428 2675 428 
Q 3081 428 3442 575 
Q 3803 722 4122 1019 
L 4122 359 
Q 3791 134 3420 21 
Q 3050 -91 2638 -91 
Q 1578 -91 968 557 
Q 359 1206 359 2328 
Q 359 3453 968 4101 
Q 1578 4750 2638 4750 
Q 3056 4750 3426 4639 
Q 3797 4528 4122 4306 
z
" transform="scale(0.015625)"/>
      <path id="DejaVuSans-75" d="M 544 1381 
L 544 3500 
L 1119 3500 
L 1119 1403 
Q 1119 906 1312 657 
Q 1506 409 1894 409 
Q 2359 409 2629 706 
Q 2900 1003 2900 1516 
L 2900 3500 
L 3475 3500 
L 3475 0 
L 2900 0 
L 2900 538 
Q 2691 219 2414 64 
Q 2138 -91 1772 -91 
Q 1169 -91 856 284 
Q 544 659 544 1381 
z
M 1991 3584 
L 1991 3584 
z
" transform="scale(0.015625)"/>
      <path id="DejaVuSans-76" d="M 191 3500 
L 800 3500 
L 1894 563 
L 2988 3500 
L 3597 3500 
L 2284 0 
L 1503 0 
L 191 3500 
z
" transform="scale(0.015625)"/>
     </defs>
     <use xlink:href="#DejaVuSans-50"/>
     <use xlink:href="#DejaVuSans-72" transform="translate(58.552734 0)"/>
     <use xlink:href="#DejaVuSans-65" transform="translate(97.416016 0)"/>
     <use xlink:href="#DejaVuSans-63" transform="translate(158.939453 0)"/>
     <use xlink:href="#DejaVuSans-69" transform="translate(213.919922 0)"/>
     <use xlink:href="#DejaVuSans-73" transform="translate(241.703125 0)"/>
     <use xlink:href="#DejaVuSans-69" transform="translate(293.802734 0)"/>
     <use xlink:href="#DejaVuSans-6f" transform="translate(321.585938 0)"/>
     <use xlink:href="#DejaVuSans-6e" transform="translate(382.767578 0)"/>
     <use xlink:href="#DejaVuSans-2d" transform="translate(446.146484 0)"/>
     <use xlink:href="#DejaVuSans-52" transform="translate(482.230469 0)"/>
     <use xlink:href="#DejaVuSans-65" transform="translate(547.212891 0)"/>
     <use xlink:href="#DejaVuSans-63" transform="translate(608.736328 0)"/>
     <use xlink:href="#DejaVuSans-61" transform="translate(663.716797 0)"/>
     <use xlink:href="#DejaVuSans-6c" transform="translate(724.996094 0)"/>
     <use xlink:href="#DejaVuSans-6c" transform="translate(752.779297 0)"/>
     <use xlink:href="#DejaVuSans-20" transform="translate(780.5625 0)"/>
     <use xlink:href="#DejaVuSans-43" transform="translate(812.349609 0)"/>
     <use xlink:href="#DejaVuSans-75" transform="translate(882.173828 0)"/>
     <use xlink:href="#DejaVuSans-72" transform="translate(945.552734 0)"/>
     <use xlink:href="#DejaVuSans-76" transform="translate(986.666016 0)"/>
     <use xlink:href="#DejaVuSans-65" transform="translate(1045.845703 0)"/>
     <use xlink:href="#DejaVuSans-73" transform="translate(1107.369141 0)"/>
    </g>
    <!-- Mean AUPRC: 0.915, Mean Top-k: 0.916 -->
    <g transform="translate(250.53 45.84) scale(0.12 -0.12)">
     <defs>
      <path id="DejaVuSans-4d" d="M 628 4666 
L 1569 4666 
L 2759 1491 
L 3956 4666 
L 4897 4666 
L 4897 0 
L 4281 0 
L 4281 4097 
L 3078 897 
L 2444 897 
L 1241 4097 
L 1241 0 
L 628 0 
L 628 4666 
z
" transform="scale(0.015625)"/>
      <path id="DejaVuSans-41" d="M 2188 4044 
L 1331 1722 
L 3047 1722 
L 2188 4044 
z
M 1831 4666 
L 2547 4666 
L 4325 0 
L 3669 0 
L 3244 1197 
L 1141 1197 
L 716 0 
L 50 0 
L 1831 4666 
z
" transform="scale(0.015625)"/>
      <path id="DejaVuSans-55" d="M 556 4666 
L 1191 4666 
L 1191 1831 
Q 1191 1081 1462 751 
Q 1734 422 2344 422 
Q 2950 422 3222 751 
Q 3494 1081 3494 1831 
L 3494 4666 
L 4128 4666 
L 4128 1753 
Q 4128 841 3676 375 
Q 3225 -91 2344 -91 
Q 1459 -91 1007 375 
Q 556 841 556 1753 
L 556 4666 
z
" transform="scale(0.015625)"/>
      <path id="DejaVuSans-3a" d="M 750 794 
L 1409 794 
L 1409 0 
L 750 0 
L 750 794 
z
M 750 3309 
L 1409 3309 
L 1409 2516 
L 750 2516 
L 750 3309 
z
" transform="scale(0.015625)"/>
      <path id="DejaVuSans-39" d="M 703 97 
L 703 672 
Q 941 559 1184 500 
Q 1428 441 1663 441 
Q 2288 441 2617 861 
Q 2947 1281 2994 2138 
Q 2813 1869 2534 1725 
Q 2256 1581 1919 1581 
Q 1219 1581 811 2004 
Q 403 2428 403 3163 
Q 403 3881 828 4315 
Q 1253 4750 1959 4750 
Q 2769 4750 3195 4129 
Q 3622 3509 3622 2328 
Q 3622 1225 3098 567 
Q 2575 -91 1691 -91 
Q 1453 -91 1209 -44 
Q 966 3 703 97 
z
M 1959 2075 
Q 2384 2075 2632 2365 
Q 2881 2656 2881 3163 
Q 2881 3666 2632 3958 
Q 2384 4250 1959 4250 
Q 1534 4250 1286 3958 
Q 1038 3666 1038 3163 
Q 1038 2656 1286 2365 
Q 1534 2075 1959 2075 
z
" transform="scale(0.015625)"/>
      <path id="DejaVuSans-35" d="M 691 4666 
L 3169 4666 
L 3169 4134 
L 1269 4134 
L 1269 2991 
Q 1406 3038 1543 3061 
Q 1681 3084 1819 3084 
Q 2600 3084 3056 2656 
Q 3513 2228 3513 1497 
Q 3513 744 3044 326 
Q 2575 -91 1722 -91 
Q 1428 -91 1123 -41 
Q 819 9 494 109 
L 494 744 
Q 775 591 1075 516 
Q 1375 441 1709 441 
Q 2250 441 2565 725 
Q 2881 1009 2881 1497 
Q 2881 1984 2565 2268 
Q 2250 2553 1709 2553 
Q 1456 2553 1204 2497 
Q 953 2441 691 2322 
L 691 4666 
z
" transform="scale(0.015625)"/>
      <path id="DejaVuSans-2c" d="M 750 794 
L 1409 794 
L 1409 256 
L 897 -744 
L 494 -744 
L 750 256 
L 750 794 
z
" transform="scale(0.015625)"/>
      <path id="DejaVuSans-54" d="M -19 4666 
L 3928 4666 
L 3928 4134 
L 2272 4134 
L 2272 0 
L 1638 0 
L 1638 4134 
L -19 4134 
L -19 4666 
z
" transform="scale(0.015625)"/>
      <path id="DejaVuSans-70" d="M 1159 525 
L 1159 -1331 
L 581 -1331 
L 581 3500 
L 1159 3500 
L 1159 2969 
Q 1341 3281 1617 3432 
Q 1894 3584 2278 3584 
Q 2916 3584 3314 3078 
Q 3713 2572 3713 1747 
Q 3713 922 3314 415 
Q 2916 -91 2278 -91 
Q 1894 -91 1617 61 
Q 1341 213 1159 525 
z
M 3116 1747 
Q 3116 2381 2855 2742 
Q 2594 3103 2138 3103 
Q 1681 3103 1420 2742 
Q 1159 2381 1159 1747 
Q 1159 1113 1420 752 
Q 1681 391 2138 391 
Q 2594 391 2855 752 
Q 3116 1113 3116 1747 
z
" transform="scale(0.015625)"/>
      <path id="DejaVuSans-6b" d="M 581 4863 
L 1159 4863 
L 1159 1991 
L 2875 3500 
L 3609 3500 
L 1753 1863 
L 3688 0 
L 2938 0 
L 1159 1709 
L 1159 0 
L 581 0 
L 581 4863 
z
" transform="scale(0.015625)"/>
     </defs>
     <use xlink:href="#DejaVuSans-4d"/>
     <use xlink:href="#DejaVuSans-65" transform="translate(86.279297 0)"/>
     <use xlink:href="#DejaVuSans-61" transform="translate(147.802734 0)"/>
     <use xlink:href="#DejaVuSans-6e" transform="translate(209.082031 0)"/>
     <use xlink:href="#DejaVuSans-20" transform="translate(272.460938 0)"/>
     <use xlink:href="#DejaVuSans-41" transform="translate(304.248047 0)"/>
     <use xlink:href="#DejaVuSans-55" transform="translate(372.65625 0)"/>
     <use xlink:href="#DejaVuSans-50" transform="translate(445.849609 0)"/>
     <use xlink:href="#DejaVuSans-52" transform="translate(506.152344 0)"/>
     <use xlink:href="#DejaVuSans-43" transform="translate(570.634766 0)"/>
     <use xlink:href="#DejaVuSans-3a" transform="translate(640.458984 0)"/>
     <use xlink:href="#DejaVuSans-20" transform="translate(674.150391 0)"/>
     <use xlink:href="#DejaVuSans-30" transform="translate(705.9375 0)"/>
     <use xlink:href="#DejaVuSans-2e" transform="translate(769.560547 0)"/>
     <use xlink:href="#DejaVuSans-39" transform="translate(801.347656 0)"/>
     <use xlink:href="#DejaVuSans-31" transform="translate(864.970703 0)"/>
     <use xlink:href="#DejaVuSans-35" transform="translate(928.59375 0)"/>
     <use xlink:href="#DejaVuSans-2c" transform="translate(992.216797 0)"/>
     <use xlink:href="#DejaVuSans-20" transform="translate(1024.003906 0)"/>
     <use xlink:href="#DejaVuSans-4d" transform="translate(1055.791016 0)"/>
     <use xlink:href="#DejaVuSans-65" transform="translate(1142.070312 0)"/>
     <use xlink:href="#DejaVuSans-61" transform="translate(1203.59375 0)"/>
     <use xlink:href="#DejaVuSans-6e" transform="translate(1264.873047 0)"/>
     <use xlink:href="#DejaVuSans-20" transform="translate(1328.251953 0)"/>
     <use xlink:href="#DejaVuSans-54" transform="translate(1360.039062 0)"/>
     <use xlink:href="#DejaVuSans-6f" transform="translate(1404.123047 0)"/>
     <use xlink:href="#DejaVuSans-70" transform="translate(1465.304688 0)"/>
     <use xlink:href="#DejaVuSans-2d" transform="translate(1528.78125 0)"/>
     <use xlink:href="#DejaVuSans-6b" transform="translate(1564.865234 0)"/>
     <use xlink:href="#DejaVuSans-3a" transform="translate(1622.775391 0)"/>
     <use xlink:href="#DejaVuSans-20" transform="translate(1656.466797 0)"/>
     <use xlink:href="#DejaVuSans-30" transform="translate(1688.253906 0)"/>
     <use xlink:href="#DejaVuSans-2e" transform="translate(1751.876953 0)"/>
     <use xlink:href="#DejaVuSans-39" transform="translate(1783.664062 0)"/>
     <use xlink:href="#DejaVuSans-31" transform="translate(1847.287109 0)"/>
     <use xlink:href="#DejaVuSans-36" transform="translate(1910.910156 0)"/>
    </g>
   </g>
   <g id="legend_1">
    <g id="patch_7">
     <path d="M 97 379.48 
L 254.923437 379.48 
Q 256.923437 379.48 256.923437 377.48 
L 256.923437 349.12375 
Q 256.923437 347.12375 254.923437 347.12375 
L 97 347.12375 
Q 95 347.12375 95 349.12375 
L 95 377.48 
Q 95 379.48 97 379.48 
z
" style="fill: #ffffff; opacity: 0.8; stroke: #cccccc; stroke-linejoin: miter"/>
    </g>
    <g id="line2d_27">
     <path d="M 99 355.222188 
L 109 355.222188 
L 119 355.222188 
" style="fill: none; stroke: #1f77b4; stroke-width: 1.5; stroke-linecap: square"/>
    </g>
    <g id="text_16">
     <!-- Acceptor (AUPRC=0.910) -->
     <g transform="translate(127 358.722188) scale(0.1 -0.1)">
      <defs>
       <path id="DejaVuSans-74" d="M 1172 4494 
L 1172 3500 
L 2356 3500 
L 2356 3053 
L 1172 3053 
L 1172 1153 
Q 1172 725 1289 603 
Q 1406 481 1766 481 
L 2356 481 
L 2356 0 
L 1766 0 
Q 1100 0 847 248 
Q 594 497 594 1153 
L 594 3053 
L 172 3053 
L 172 3500 
L 594 3500 
L 594 4494 
L 1172 4494 
z
" transform="scale(0.015625)"/>
       <path id="DejaVuSans-28" d="M 1984 4856 
Q 1566 4138 1362 3434 
Q 1159 2731 1159 2009 
Q 1159 1288 1364 580 
Q 1569 -128 1984 -844 
L 1484 -844 
Q 1016 -109 783 600 
Q 550 1309 550 2009 
Q 550 2706 781 3412 
Q 1013 4119 1484 4856 
L 1984 4856 
z
" transform="scale(0.015625)"/>
       <path id="DejaVuSans-3d" d="M 678 2906 
L 4684 2906 
L 4684 2381 
L 678 2381 
L 678 2906 
z
M 678 1631 
L 4684 1631 
L 4684 1100 
L 678 1100 
L 678 1631 
z
" transform="scale(0.015625)"/>
       <path id="DejaVuSans-29" d="M 513 4856 
L 1013 4856 
Q 1481 4119 1714 3412 
Q 1947 2706 1947 2009 
Q 1947 1309 1714 600 
Q 1481 -109 1013 -844 
L 513 -844 
Q 928 -128 1133 580 
Q 1338 1288 1338 2009 
Q 1338 2731 1133 3434 
Q 928 4138 513 4856 
z
" transform="scale(0.015625)"/>
      </defs>
      <use xlink:href="#DejaVuSans-41"/>
      <use xlink:href="#DejaVuSans-63" transform="translate(66.658203 0)"/>
      <use xlink:href="#DejaVuSans-63" transform="translate(121.638672 0)"/>
      <use xlink:href="#DejaVuSans-65" transform="translate(176.619141 0)"/>
      <use xlink:href="#DejaVuSans-70" transform="translate(238.142578 0)"/>
      <use xlink:href="#DejaVuSans-74" transform="translate(301.619141 0)"/>
      <use xlink:href="#DejaVuSans-6f" transform="translate(340.828125 0)"/>
      <use xlink:href="#DejaVuSans-72" transform="translate(402.009766 0)"/>
      <use xlink:href="#DejaVuSans-20" transform="translate(443.123047 0)"/>
      <use xlink:href="#DejaVuSans-28" transform="translate(474.910156 0)"/>
      <use xlink:href="#DejaVuSans-41" transform="translate(513.923828 0)"/>
      <use xlink:href="#DejaVuSans-55" transform="translate(582.332031 0)"/>
      <use xlink:href="#DejaVuSans-50" transform="translate(655.525391 0)"/>
      <use xlink:href="#DejaVuSans-52" transform="translate(715.828125 0)"/>
      <use xlink:href="#DejaVuSans-43" transform="translate(780.310547 0)"/>
      <use xlink:href="#DejaVuSans-3d" transform="translate(850.134766 0)"/>
      <use xlink:href="#DejaVuSans-30" transform="translate(933.923828 0)"/>
      <use xlink:href="#DejaVuSans-2e" transform="translate(997.546875 0)"/>
      <use xlink:href="#DejaVuSans-39" transform="translate(1029.333984 0)"/>
      <use xlink:href="#DejaVuSans-31" transform="translate(1092.957031 0)"/>
      <use xlink:href="#DejaVuSans-30" transform="translate(1156.580078 0)"/>
      <use xlink:href="#DejaVuSans-29" transform="translate(1220.203125 0)"/>
     </g>
    </g>
    <g id="line2d_28">
     <path d="M 99 369.900312 
L 109 369.900312 
L 119 369.900312 
" style="fill: none; stroke: #ff7f0e; stroke-width: 1.5; stroke-linecap: square"/>
    </g>
    <g id="text_17">
     <!-- Donor (AUPRC=0.921) -->
     <g transform="translate(127 373.400312) scale(0.1 -0.1)">
      <defs>
       <path id="DejaVuSans-44" d="M 1259 4147 
L 1259 519 
L 2022 519 
Q 2988 519 3436 956 
Q 3884 1394 3884 2338 
Q 3884 3275 3436 3711 
Q 2988 4147 2022 4147 
L 1259 4147 
z
M 628 4666 
L 1925 4666 
Q 3281 4666 3915 4102 
Q 4550 3538 4550 2338 
Q 4550 1131 3912 565 
Q 3275 0 1925 0 
L 628 0 
L 628 4666 
z
" transform="scale(0.015625)"/>
      </defs>
      <use xlink:href="#DejaVuSans-44"/>
      <use xlink:href="#DejaVuSans-6f" transform="translate(77.001953 0)"/>
      <use xlink:href="#DejaVuSans-6e" transform="translate(138.183594 0)"/>
      <use xlink:href="#DejaVuSans-6f" transform="translate(201.5625 0)"/>
      <use xlink:href="#DejaVuSans-72" transform="translate(262.744141 0)"/>
      <use xlink:href="#DejaVuSans-20" transform="translate(303.857422 0)"/>
      <use xlink:href="#DejaVuSans-28" transform="translate(335.644531 0)"/>
      <use xlink:href="#DejaVuSans-41" transform="translate(374.658203 0)"/>
      <use xlink:href="#DejaVuSans-55" transform="translate(443.066406 0)"/>
      <use xlink:href="#DejaVuSans-50" transform="translate(516.259766 0)"/>
      <use xlink:href="#DejaVuSans-52" transform="translate(576.5625 0)"/>
      <use xlink:href="#DejaVuSans-43" transform="translate(641.044922 0)"/>
      <use xlink:href="#DejaVuSans-3d" transform="translate(710.869141 0)"/>
      <use xlink:href="#DejaVuSans-30" transform="translate(794.658203 0)"/>
      <use xlink:href="#DejaVuSans-2e" transform="translate(858.28125 0)"/>
      <use xlink:href="#DejaVuSans-39" transform="translate(890.068359 0)"/>
      <use xlink:href="#DejaVuSans-32" transform="translate(953.691406 0)"/>
      <use xlink:href="#DejaVuSans-31" transform="translate(1017.314453 0)"/>
      <use xlink:href="#DejaVuSans-29" transform="translate(1080.9375 0)"/>
     </g>
    </g>
   </g>
  </g>
 </g>
 <defs>
  <clipPath id="pbfb14ed462">
   <rect x="90" y="51.84" width="558" height="332.64"/>
  </clipPath>
 </defs>
</svg>
